<svg xmlns="http://www.w3.org/2000/svg" xmlns:xlink="http://www.w3.org/1999/xlink" viewBox="0 0 116.09 138.37"><defs><style>.cls-1{fill:url(#linear-gradient);}.cls-2{isolation:isolate;}.cls-3{mask:url(#mask);}.cls-4{opacity:0.9;}.cls-5{fill:url(#Degradado_sin_nombre_60);}.cls-6{fill:url(#Degradado_sin_nombre_45);}.cls-7{fill:url(#Degradado_sin_nombre_105);}.cls-8{fill:url(#Degradado_sin_nombre_67);}.cls-9{fill:url(#Degradado_sin_nombre_110);}.cls-10{fill:url(#Degradado_sin_nombre_60-2);}.cls-11,.cls-12{opacity:0.8;}.cls-11{fill:url(#Degradado_sin_nombre_91);}.cls-13{fill:url(#Degradado_sin_nombre_49);}.cls-14{fill:url(#Degradado_sin_nombre_30);}.cls-15{opacity:0.7;fill:url(#Radial_Gradient_1);}.cls-15,.cls-19,.cls-20,.cls-42{mix-blend-mode:color-dodge;}.cls-16{opacity:0.95;}.cls-17{fill:url(#Degradado_sin_nombre_24);}.cls-18{fill:url(#Degradado_sin_nombre_12);}.cls-19{fill:url(#Radial_Gradient_1-2);}.cls-21{fill:#040404;}.cls-22{fill:#080809;}.cls-23{fill:#0d0d0d;}.cls-24{fill:#111;}.cls-25{fill:#151516;}.cls-26{fill:#19191a;}.cls-27{fill:#1d1e1e;}.cls-28{fill:#222223;}.cls-29{fill:#262627;}.cls-30{fill:#2a2a2b;}.cls-31{fill:#2e2f30;}.cls-32{fill:#323334;}.cls-33{fill:#363738;}.cls-34{fill:#3b3b3d;}.cls-35{fill:#3f4041;}.cls-36{fill:#434445;}.cls-37{fill:#47484a;}.cls-38{fill:#4b4c4e;}.cls-39{fill:#505152;}.cls-40{fill:#545557;}.cls-41{fill:#58595b;}.cls-42{opacity:0.5;}.cls-43{fill:#1e3480;}.cls-44{mix-blend-mode:screen;}</style><linearGradient id="linear-gradient" x1="6671.57" y1="2708.05" x2="6671.57" y2="2569.94" gradientTransform="translate(-6617.2 -2564.95)" gradientUnits="userSpaceOnUse"><stop offset="0.39" stop-color="#fff"/><stop offset="0.45" stop-color="#f5f4f5"/><stop offset="0.57" stop-color="#d8d8d9"/><stop offset="0.71" stop-color="#abaaab"/><stop offset="0.89" stop-color="#6c6c6d"/><stop offset="1" stop-color="#414042"/></linearGradient><mask id="mask" x="-8.46" y="-3.17" width="125.66" height="151.83" maskUnits="userSpaceOnUse"><rect class="cls-1" x="-8.46" y="-3.17" width="125.66" height="151.83" transform="translate(108.73 145.5) rotate(180)"/></mask><linearGradient id="Degradado_sin_nombre_60" x1="62.76" y1="97.75" x2="55.92" y2="116.5" gradientUnits="userSpaceOnUse"><stop offset="0.1" stop-color="#1e3480"/><stop offset="1" stop-color="#5de7e5"/></linearGradient><linearGradient id="Degradado_sin_nombre_45" x1="48.13" y1="120.99" x2="68.06" y2="120.99" gradientUnits="userSpaceOnUse"><stop offset="0.07" stop-color="#1e3480"/><stop offset="0.86" stop-color="#1e3445"/></linearGradient><linearGradient id="Degradado_sin_nombre_105" x1="48.26" y1="34.36" x2="69.28" y2="78.51" gradientUnits="userSpaceOnUse"><stop offset="0.06" stop-color="#8fe7e5"/><stop offset="0.31" stop-color="#91e7e5"/><stop offset="0.43" stop-color="#99e7e5"/><stop offset="0.49" stop-color="#a1e7e5"/><stop offset="0.59" stop-color="#a5e8e6"/><stop offset="0.7" stop-color="#b3ebea"/><stop offset="0.81" stop-color="#c8f1f0"/><stop offset="0.92" stop-color="#e7f9f8"/><stop offset="1" stop-color="#fff"/></linearGradient><linearGradient id="Degradado_sin_nombre_67" x1="34.79" y1="92.77" x2="81.45" y2="92.77" gradientUnits="userSpaceOnUse"><stop offset="0.1" stop-color="#1e3480"/><stop offset="1" stop-color="#5de7e5"/></linearGradient><linearGradient id="Degradado_sin_nombre_110" x1="38.55" y1="107.47" x2="78.22" y2="107.47" gradientUnits="userSpaceOnUse"><stop offset="0.07" stop-color="#1e3480"/><stop offset="0.34" stop-color="#1e203b"/><stop offset="0.62" stop-color="#1e2a5f"/><stop offset="0.86" stop-color="#1e3480"/></linearGradient><linearGradient id="Degradado_sin_nombre_60-2" x1="78.29" y1="51.85" x2="41.79" y2="93.01" xlink:href="#Degradado_sin_nombre_60"/><linearGradient id="Degradado_sin_nombre_91" x1="314.22" y1="94.1" x2="314.72" y2="94.1" gradientUnits="userSpaceOnUse"><stop offset="0" stop-color="#1e3480"/><stop offset="0.39" stop-color="#1e3480"/><stop offset="1" stop-color="#1e3480"/></linearGradient><linearGradient id="Degradado_sin_nombre_49" x1="48.26" y1="34.36" x2="69.28" y2="78.51" gradientUnits="userSpaceOnUse"><stop offset="0.04" stop-color="#1e3480"/><stop offset="0.16" stop-color="#234389"/><stop offset="0.4" stop-color="#326ca0"/><stop offset="0.73" stop-color="#48adc4"/><stop offset="1" stop-color="#5de7e5"/></linearGradient><linearGradient id="Degradado_sin_nombre_30" x1="98.71" y1="79.19" x2="16.63" y2="79.19" gradientUnits="userSpaceOnUse"><stop offset="0.04" stop-color="#1e3480"/><stop offset="0.11" stop-color="#234389"/><stop offset="0.26" stop-color="#326ca0"/><stop offset="0.46" stop-color="#48adc4"/><stop offset="0.63" stop-color="#5de7e5"/><stop offset="0.87" stop-color="#1e3480"/></linearGradient><radialGradient id="Radial_Gradient_1" cx="43.72" cy="71.71" r="26.92" gradientUnits="userSpaceOnUse"><stop offset="0" stop-color="#fff"/><stop offset="1"/></radialGradient><linearGradient id="Degradado_sin_nombre_24" x1="4.38" y1="40.28" x2="113.07" y2="40.28" gradientUnits="userSpaceOnUse"><stop offset="0.07" stop-color="#1e3480"/><stop offset="0.34" stop-color="#5de7e5"/><stop offset="0.46" stop-color="#50c3d1"/><stop offset="0.72" stop-color="#30689e"/><stop offset="0.86" stop-color="#1e3480"/></linearGradient><linearGradient id="Degradado_sin_nombre_12" x1="86.74" y1="-31.25" x2="43.08" y2="67.75" gradientUnits="userSpaceOnUse"><stop offset="0.1" stop-color="#1e3480"/><stop offset="1" stop-color="#1e2572"/></linearGradient><radialGradient id="Radial_Gradient_1-2" cx="41.3" cy="52.5" r="42.79" xlink:href="#Radial_Gradient_1"/></defs><title>Recurso 6</title><g class="cls-2"><g id="Capa_2" data-name="Capa 2"><g id="Layer_1" data-name="Layer 1"><g class="cls-3"><g class="cls-4"><ellipse class="cls-5" cx="58.05" cy="110.67" rx="11.66" ry="6.79"/><path class="cls-6" d="M58.05,117.46c-4.2,0-7.86-1.29-9.92-3.23,5.92,8.24,9.92,13.6,9.92,13.6s4-5.4,10-13.69C66,116.12,62.31,117.46,58.05,117.46Z"/></g><ellipse class="cls-7" cx="58.13" cy="55.1" rx="46.53" ry="27.1"/><g class="cls-4"><ellipse class="cls-8" cx="58.12" cy="92.77" rx="23.33" ry="13.58"/><path class="cls-9" d="M58.13,106.27c-9.52,0-17.7-3.32-21.33-8.08C40,102.75,43,107,45.72,110.86c.47.59.77,1,.83,1.09,1.62,2.8,6.15,4.81,11.5,4.81,5.16,0,9.56-1.87,11.31-4.52l.33-.38c2.75-3.83,5.83-8.18,9.08-12.82C74.85,103.34,67.08,106.27,58.13,106.27Z"/></g><g class="cls-4"><ellipse class="cls-10" cx="58.19" cy="74.52" rx="35" ry="20.38"/><path class="cls-11" d="M58.19,94.81c-14,0-26.1-4.8-31.69-11.73,2.91,4.36,5.84,8.67,8.69,12.78a9.24,9.24,0,0,1,.67.77c3.74,5,12.3,8.49,22.26,8.49,9.56,0,17.82-3.21,21.78-7.89.08-.1.25-.27.45-.48,2.81-4,5.71-8.28,8.6-12.59C83,90.51,71.47,94.81,58.19,94.81Z"/></g><g class="cls-12"><ellipse class="cls-13" cx="58.13" cy="55.1" rx="46.53" ry="27.1"/><path class="cls-14" d="M58.13,82.19c-19.55,0-36.28-7-43.16-17,2.6,4.2,5.38,8.54,8.22,12.87a6.07,6.07,0,0,1,.5.68c4.85,8.38,18.44,14.4,34.46,14.4,14.56,0,27.13-5,32.93-12.19,3.33-5,6.6-10.08,9.66-15C93.53,75.53,77.17,82.19,58.13,82.19Z"/><path class="cls-15" d="M58.13,81.44C32.65,81.44,12,69.51,11.62,54.72c0,.13,0,.25,0,.38,0,15,20.83,27.09,46.53,27.09s46.54-12.13,46.54-27.09c0-.13,0-.25,0-.38C104.31,69.51,83.62,81.44,58.13,81.44Z"/></g><g class="cls-16"><path class="cls-17" d="M113.87,43.07a20.94,20.94,0,0,0,2.22-9.27c0-18.67-26-33.8-58-33.8S0,15.13,0,33.8a16,16,0,0,0,.85,5.75,22.89,22.89,0,0,0,2.05,4.8c.26.53.53,1.09.83,1.69,2.55,5.07,5.88,10.9,9.64,17.07,7.24,10.24,24.55,17.46,44.76,17.46,19.76,0,36.75-6.89,44.27-16.77a221.83,221.83,0,0,0,11.36-20.44A2,2,0,0,0,113.87,43.07Z"/><ellipse class="cls-18" cx="58.05" cy="33.8" rx="58.05" ry="33.8"/><path class="cls-19" d="M58.05,66.77C26.23,66.77.4,51.86,0,33.39c0,.14,0,.27,0,.41C0,52.47,26,67.61,58.05,67.61s58-15.14,58-33.81c0-.14,0-.27,0-.41C115.69,51.86,89.87,66.77,58.05,66.77Z"/></g><g class="cls-20"><path d="M58,127.16,40.79,100.05,23.57,72.94l-2.23-6.45c0-.07.57-1.33.56-1.4-.71-8,13.67,2.25,23.31,1.91,4.83-.17,9,0,14.08-.13A185.9,185.9,0,0,0,78.88,65.5c.07,0,.65,3.52.65,3.52L68.77,98.09Z"/><path class="cls-21" d="M22.82,65.91c-.58-6.23,8.14-1.21,16.34.89a23.62,23.62,0,0,0,6.08.86c4.61-.1,8.6,0,13.46,0h.23a162.77,162.77,0,0,0,18.52-1c.06,0,.63,3.41.63,3.41L68,98.38,58,127,41.22,100.31,24.69,74l-.22-.35-1.54-4.46s-.63-1.84-.63-1.87S22.82,66,22.82,65.91Z"/><path class="cls-22" d="M23.74,66.72c-.58-6.1,7.84-1.23,15.68.74a22.26,22.26,0,0,0,5.84.86c4.4-.14,8.21.13,12.85.23h.22c4.55-.08,10.11.32,17.68-.57.06,0,.62,3.31.62,3.31L67.18,98.66l-9.25,28.17L41.66,100.57,25.59,74.62l-.21-.33-1.52-4.38s-.6-1.78-.61-1.84S23.74,66.78,23.74,66.72Z"/><path class="cls-23" d="M24.66,67.53c-.58-6,7.55-1.26,15,.59a21.74,21.74,0,0,0,5.6.86c4.19-.13,7.82.21,12.24.41h.21c4.31-.08,9.68.67,16.85-.18,0,0,.6,3.2.6,3.2L66.38,99l-8.49,27.71-15.8-25.83L26.49,75.29l-.2-.33-1.5-4.29s-.57-1.72-.59-1.81S24.66,67.59,24.66,67.53Z"/><path class="cls-24" d="M25.58,68.35c-.59-5.86,7.25-1.3,14.36.43a21.25,21.25,0,0,0,5.37.86,116.32,116.32,0,0,1,11.62.58l.2,0h0c4.07-.07,9.24,1,16,.22,0,0,.59,3.1.59,3.1L65.58,99.23l-7.73,27.26L42.53,101.08,27.39,76l-.19-.32-1.48-4.21s-.55-1.66-.56-1.77A12.7,12.7,0,0,1,25.58,68.35Z"/><path class="cls-25" d="M26.5,69.16c-.6-5.73,7-1.33,13.7.28a28.62,28.62,0,0,0,5.13.86c3.76.16,7,.38,11,.76l.19,0h0c3.83-.07,8.8,1.38,15.17.63.06,0,.58,3,.58,3L64.79,99.52l-7,26.8L43,101.34,28.29,76.63l-.18-.31-1.46-4.14s-.52-1.59-.54-1.73A11.21,11.21,0,0,1,26.5,69.16Z"/><path class="cls-26" d="M27.42,70c-.61-5.6,6.66-1.36,13,.13a31.76,31.76,0,0,0,4.88.86c3.55.23,6.65.46,10.39.94l.18,0h0c3.6-.06,8.38,1.73,14.35,1,0,0,.56,2.88.56,2.88L64,99.8l-6.22,26.35L43.4,101.6,29.19,77.3,29,77l-1.43-4s-.49-1.54-.52-1.7A10.07,10.07,0,0,1,27.42,70Z"/><path class="cls-27" d="M28.34,70.78c-.61-5.48,6.36-1.39,12.39,0a35.72,35.72,0,0,0,4.65.86c3.33.29,6.25.55,9.77,1.12l.17,0h0c3.36-.06,7.94,2.08,13.51,1.43,0,0,.55,2.77.55,2.77l-6.19,23.13L57.73,126,43.84,101.86,30.1,78l-.18-.3-1.41-4S28.05,72.22,28,72A8.33,8.33,0,0,1,28.34,70.78Z"/><path class="cls-28" d="M29.26,71.6c-.62-5.36,6.07-1.43,11.73-.18a44.89,44.89,0,0,0,4.41.86c3.12.35,5.86.63,9.16,1.29l.16,0h0c3.12-.06,7.5,2.43,12.68,1.82,0,0,.53,2.67.53,2.67L62.4,100.37l-4.71,25.44L44.27,102.12,31,78.64l-.17-.3-1.38-3.88S29,73,29,72.83A7.24,7.24,0,0,1,29.26,71.6Z"/><path class="cls-29" d="M30.18,72.41C29.55,67.18,36,71,41.25,72.08c1.45.31,2.85.68,4.17.86A79.39,79.39,0,0,1,54,74.41l.15,0h0c2.88,0,7.06,2.78,11.84,2.22,0,0,.52,2.56.52,2.56L61.6,100.66l-4,25L44.71,102.37,31.9,79.31,31.74,79l-1.36-3.8s-.42-1.36-.46-1.6A6.86,6.86,0,0,1,30.18,72.41Z"/><path class="cls-30" d="M31.1,73.22c-.64-5.1,5.48-1.49,10.41-.48,1.37.28,2.68.65,3.93.86a62.8,62.8,0,0,1,7.94,1.65l.14,0h0c2.63-.05,6.63,3.14,11,2.62,0,0,.5,2.46.5,2.46L60.8,100.94l-3.19,24.53L45.15,102.63,32.8,80l-.16-.29L31.31,76s-.39-1.3-.43-1.57A6.07,6.07,0,0,1,31.1,73.22Z"/><path class="cls-31" d="M32,74c-.65-5,5.18-1.54,9.75-.64,1.28.25,2.51.62,3.7.86a50.19,50.19,0,0,1,7.32,1.83l.13,0h0c2.39,0,6.19,3.49,10.17,3,0,0,.49,2.35.49,2.35L60,101.23,57.57,125.3l-12-22.41L33.7,80.64l-.15-.27-1.31-3.63s-.37-1.24-.41-1.54A5.65,5.65,0,0,1,32,74Z"/><path class="cls-32" d="M32.94,74.85c-.66-4.86,4.89-1.57,9.09-.79,1.2.22,2.34.59,3.46.86a41.39,41.39,0,0,1,6.71,2l.11,0h0c2.16,0,5.76,3.84,9.35,3.42,0,0,.47,2.25.47,2.25l-2.92,18.87-1.68,23.62L46,103.15,34.6,81.31,34.46,81,33.17,77.5s-.34-1.18-.39-1.51A5.69,5.69,0,0,1,32.94,74.85Z"/><path class="cls-33" d="M33.86,75.66c-.67-4.73,4.6-1.6,8.43-.94a27.66,27.66,0,0,1,3.22.86,32.33,32.33,0,0,1,6.1,2.18l.1.06h0c1.92,0,5.33,4.19,8.51,3.81,0,0,.46,2.14.46,2.14l-2.27,18L57.49,125l-11-21.55L35.5,82l-.13-.26L34.1,78.26s-.31-1.12-.36-1.47A5.19,5.19,0,0,1,33.86,75.66Z"/><path class="cls-34" d="M34.78,76.48c-.68-4.61,4.3-1.65,7.77-1.1a17.31,17.31,0,0,1,3,.86A25.6,25.6,0,0,1,51,78.6l.09.06h0c1.68,0,4.89,4.54,7.68,4.22,0,0,.44,2,.44,2l-1.62,17.17-.16,22.72L46.89,103.67l-10.49-21-.12-.26L35,79s-.28-1.06-.34-1.44A5.12,5.12,0,0,1,34.78,76.48Z"/><path class="cls-35" d="M35.7,77.29c-.7-4.49,4-1.69,7.11-1.25a11.09,11.09,0,0,1,2.75.86,20.65,20.65,0,0,1,4.86,2.53l.09.07h0c1.44,0,4.45,4.9,6.84,4.62,0,0,.43,1.92.43,1.92l-1,16.33.59,22.26L47.33,103.92l-10-20.6-.13-.25L36,79.78s-.26-1-.32-1.41A5.38,5.38,0,0,1,35.7,77.29Z"/><path class="cls-36" d="M36.62,78.1c-.72-4.36,3.72-1.73,6.46-1.4a7.67,7.67,0,0,1,2.5.86,16.56,16.56,0,0,1,4.25,2.71l.08.07h0c1.2,0,4,5.25,6,5,0,0,.41,1.82.41,1.82L56,102.66l1.35,21.8-9.61-20.28L38.21,84l-.12-.25-1.2-3.2s-.23-.94-.29-1.38A5.26,5.26,0,0,1,36.62,78.1Z"/><path class="cls-37" d="M37.53,78.91c-.72-4.23,3.44-1.77,5.81-1.55a5.36,5.36,0,0,1,2.27.86,14,14,0,0,1,3.63,2.89l.07.07h0c1,0,3.58,5.61,5.17,5.42,0,0,.4,1.71.4,1.71l.34,14.63,2.11,21.35L48.2,104.44,39.11,84.66,39,84.42,37.82,81.3s-.2-.88-.27-1.35A7.82,7.82,0,0,1,37.53,78.91Z"/><path class="cls-38" d="M38.45,79.73C37.7,75.62,41.6,77.9,43.6,78a3.69,3.69,0,0,1,2,.86,11.87,11.87,0,0,1,3,3.07.22.22,0,0,1,.05.08h0c.72,0,3.15,6,4.35,5.81,0,0,.38,1.61.38,1.61l1,13.78,2.86,20.89L48.63,104.7,40,85.33l-.1-.24-1.16-3s-.17-.82-.25-1.31S38.46,79.75,38.45,79.73Z"/><path class="cls-39" d="M39.37,80.54c-.77-4,2.86-1.76,4.49-1.86a2.41,2.41,0,0,1,1.79.86,11.43,11.43,0,0,1,2.41,3.24.36.36,0,0,1,0,.09h0c.48,0,2.72,6.3,3.51,6.21,0,0,.37,1.5.37,1.5l1.65,12.93L57.25,124l-8.18-19L40.91,86l-.09-.23-1.13-3s-.16-.75-.24-1.27S39.38,80.56,39.37,80.54Z"/><path class="cls-40" d="M40.29,81.35c-.81-3.85,2.56-1.94,3.83-2a1.83,1.83,0,0,1,1.56.86,11.77,11.77,0,0,1,1.79,3.42l0,.09h0c.24,0,2.28,6.66,2.68,6.61l.35,1.4,2.3,12.08,4.38,20-7.7-18.57-7.7-18.55-.09-.21-1.1-2.88s-.13-.69-.21-1.24S40.3,81.37,40.29,81.35Z"/><path class="cls-41" d="M57.17,123.61l-7.23-18.14L42.71,87.33l-1.16-3s-.33-2.13-.34-2.16c-.85-3.72,2.27-2,3.17-2.17s1.65.74,2.5,4.46l0,.09h0L52,104.08Z"/></g><g class="cls-42"><path d="M57.91,126.18l16-22.87,16-22.87s7.37-11.61,7.39-11.67c2.46-7.51-1.32-9.41-4.42-10.1S82.51,58,80.06,65.51c0,.07-2.73,7-2.73,7L67.62,99.35Z"/><path class="cls-21" d="M92.58,59.54c-3-.66-10-.49-12.44,6.83a1,1,0,0,1-.06.15h0c-.38,1-2.62,6.67-2.62,6.67L69.12,96l-1.23,3.35-9.56,26.12L73.9,103.12l2.95-4.22L89.48,80.8,95,72.11h0l.11-.16c.9-1.45,1.56-2.49,1.57-2.53C99.22,62.18,95.55,60.2,92.58,59.54Z"/><path class="cls-22" d="M92.25,60.42c-2.83-.63-9.7-.32-12,6.81a.67.67,0,0,0-.06.15h0c-.36.93-2.58,6.48-2.58,6.48L69.37,96l-1.21,3.26-9.42,25.41,15.14-21.76,2.86-4.11L89,81.16l5.36-8.46h0l.1-.16c.87-1.4,1.5-2.41,1.52-2.47C98.53,63.06,95.08,61.05,92.25,60.42Z"/><path class="cls-23" d="M91.93,61.3a10,10,0,0,0-11.64,6.78s0,.06-.05.15h0c-.34.88-2.53,6.31-2.53,6.31L69.62,96.06l-1.19,3.17-9.27,24.7,14.69-21.2,2.78-4L88.55,81.53s3.33-5.28,5.21-8.24h0l.09-.16c.83-1.35,1.44-2.33,1.47-2.41C97.81,63.93,94.62,61.9,91.93,61.3Z"/><path class="cls-24" d="M91.6,62.17a9.82,9.82,0,0,0-11.23,6.77,1.34,1.34,0,0,1-.05.14h0c-.33.84-2.49,6.13-2.49,6.13l-8,20.91L68.7,99.2l-9.13,24,14.26-20.64,2.69-3.91L88.08,81.89l5.06-8h0l.1-.15c.78-1.3,1.38-2.25,1.41-2.35C97.09,64.8,94.16,62.74,91.6,62.17Z"/><path class="cls-25" d="M91.27,63.05A9.64,9.64,0,0,0,80.45,69.8a1.34,1.34,0,0,1,0,.14h0c-.31.78-2.45,5.94-2.45,5.94L70.13,96.17l-1.16,3-9,23.27L73.8,102.34l2.61-3.8L87.62,82.25s3.24-5.16,4.91-7.79h0l.09-.15c.75-1.25,1.32-2.17,1.36-2.29C96.36,65.67,93.69,63.59,91.27,63.05Z"/><path class="cls-26" d="M90.94,63.93a9.46,9.46,0,0,0-10.41,6.72.62.62,0,0,0,0,.14h0c-.29.74-2.4,5.77-2.4,5.77l-7.7,19.66-1.14,2.9L60.4,121.68l13.38-19.53,2.53-3.69L87.15,82.62s3.21-5.11,4.77-7.57h0L92,74.9c.71-1.2,1.26-2.09,1.31-2.23C95.62,66.53,93.23,64.44,90.94,63.93Z"/><path class="cls-27" d="M90.62,64.8a9.35,9.35,0,0,0-10,6.71l0,.13h0c-.26.69-2.35,5.59-2.35,5.59l-7.57,19-1.12,2.81-8.69,21.85,12.93-19,2.45-3.59L86.68,83l4.62-7.35h0l.09-.14c.67-1.15,1.19-2,1.25-2.17C94.88,67.39,92.77,65.28,90.62,64.8Z"/><path class="cls-28" d="M90.29,65.68c-2-.46-7.64.68-9.61,6.69l-.05.13h0c-.24.64-2.3,5.4-2.3,5.4L70.88,96.33,69.78,99l-8.54,21.14,12.49-18.42,2.36-3.48L86.22,83.34s3.12-5,4.47-7.12h0l.08-.14C91.4,75,91.9,74.15,92,74,94.14,68.26,92.31,66.13,90.29,65.68Z"/><path class="cls-29" d="M90,66.55c-1.9-.42-7.29.85-9.2,6.67l-.05.13h0c-.23.59-2.26,5.22-2.26,5.22L71.13,96.38,70.05,99l-8.4,20.43L73.7,101.57,76,98.19l9.77-14.48s3.08-4.93,4.33-6.9h0s0-.09.07-.14c.6-1,1.08-1.85,1.15-2.06C93.4,69.12,91.84,67,90,66.55Z"/><path class="cls-30" d="M89.63,67.43c-1.76-.39-6.94,1-8.79,6.65,0,0,0,.06,0,.12h0c-.21.54-2.21,5-2.21,5l-7.2,17.18-1,2.53-8.26,19.72,11.61-17.3,2.19-3.27,9.42-14s3-4.87,4.17-6.68h0l.08-.13c.55-1,1-1.77,1.09-2C92.66,70,91.38,67.82,89.63,67.43Z"/><path class="cls-31" d="M89.31,68.31c-1.63-.37-6.6,1.18-8.39,6.63a.87.87,0,0,0,0,.12h0c-.19.49-2.17,4.86-2.17,4.86L71.64,96.49l-1,2.43-8.12,19,11.17-16.75L75.76,98l9.06-13.59s3-4.81,4-6.45h0s.05-.08.07-.13c.52-1,1-1.7,1-1.94C91.92,70.84,90.92,68.67,89.31,68.31Z"/><path class="cls-32" d="M89,69.18c-1.5-.33-6.26,1.36-8,6.61a.79.79,0,0,1,0,.12h0c-.17.44-2.12,4.68-2.12,4.68l-6.94,16-1,2.34-8,18.3L73.63,101l2-3.06,8.7-13.13s2.94-4.75,3.88-6.23h0l.06-.13c.48-.91.89-1.62,1-1.88C91.18,71.7,90.46,69.52,89,69.18Z"/><path class="cls-33" d="M88.65,70.06c-1.36-.31-5.91,1.52-7.58,6.59l0,.11h0c-.15.4-2.08,4.51-2.08,4.51L72.14,96.59l-1,2.25-7.82,17.59L73.6,100.8l2-3,8.34-12.68s2.9-4.69,3.74-6h0a.67.67,0,0,1,.06-.12c.44-.86.82-1.54.93-1.82C90.44,72.57,90,70.36,88.65,70.06Z"/><path class="cls-34" d="M88.33,70.94c-1.23-.28-5.57,1.69-7.18,6.57l0,.11h0c-.13.34-2,4.32-2,4.32l-6.69,14.7-1,2.16-7.68,16.88,9.85-15.08,1.86-2.85,8-12.23s2.85-4.63,3.58-5.78h0l.06-.12c.4-.81.76-1.46.88-1.76C89.7,73.43,89.53,71.21,88.33,70.94Z"/><path class="cls-35" d="M88,71.81c-1.1-.24-5.22,1.86-6.77,6.55l0,.11h0c-.12.3-2,4.14-2,4.14L72.64,96.7l-1,2.07-7.53,16.16,9.4-14.52,1.78-2.74L83,85.89s2.82-4.58,3.44-5.56h0a1.17,1.17,0,0,1,0-.11c.37-.77.71-1.39.83-1.71C89,74.29,89.07,72.05,88,71.81Z"/><path class="cls-36" d="M87.67,72.69c-1-.22-4.88,2-6.37,6.53a.93.93,0,0,1,0,.1h0c-.1.25-1.94,4-1.94,4L72.89,96.75l-.94,2-7.39,15.45,9-14,1.69-2.64L82.5,86.25s2.77-4.51,3.29-5.34h0l0-.1c.33-.72.65-1.31.78-1.65C88.22,75.15,88.6,72.9,87.67,72.69Z"/><path class="cls-37" d="M87.34,73.57c-.82-.19-4.53,2.19-6,6.51a.62.62,0,0,0,0,.1h0c-.08.19-1.9,3.78-1.9,3.78L73.15,96.8l-.93,1.89L65,113.43,73.5,100l1.61-2.53L82,86.61l3.14-5.11h0l0-.1c.29-.66.58-1.23.72-1.59C87.48,76,88.14,73.75,87.34,73.57Z"/><path class="cls-38" d="M87,74.44c-.7-.16-4.19,2.36-5.56,6.49l0,.1h0c-.06.15-1.85,3.6-1.85,3.6L73.4,96.85l-.91,1.8-7.1,14,8.09-12.85L75,97.4,81.57,87s2.68-4.4,3-4.89h0a1,1,0,0,1,0-.1c.26-.61.52-1.15.67-1.53C86.73,76.87,87.68,74.59,87,74.44Z"/><path class="cls-39" d="M86.69,75.32c-.56-.13-3.84,2.53-5.15,6.47l0,.1h0c0,.09-1.8,3.41-1.8,3.41l-6,11.61-.89,1.7-7,13.32,7.64-12.29,1.45-2.33,6.2-10S83.74,83,84,82.67h0l0-.09c.23-.56.46-1.07.62-1.47C86,77.73,87.22,75.44,86.69,75.32Z"/><path class="cls-40" d="M86.36,76.2c-.42-.1-3.5,2.69-4.75,6.45l0,.09h0c0,.05-1.75,3.24-1.75,3.24L73.9,97,73,98.57l-6.8,12.61,7.2-11.74,1.36-2.21,5.85-9.53,2.69-4.44h0l0-.09c.19-.51.39-1,.56-1.41C85.25,78.59,86.75,76.29,86.36,76.2Z"/><path class="cls-41" d="M66.64,110.43l8-13.29,8-13.29h0l0-.09c1.19-3.57,3.58-6.62,3.28-6.69s-3.15,2.86-4.34,6.43l0,.09h0L74.15,97Z"/></g><path class="cls-43" d="M9.43,71.71A.5.5,0,0,1,9,71.46a.51.51,0,0,1,.18-.69l5.42-3.29a.52.52,0,0,1,.69.19.5.5,0,0,1-.18.68L9.68,71.64A.59.59,0,0,1,9.43,71.71Z"/><path class="cls-43" d="M9.43,95a.5.5,0,0,1-.25-.93L25.79,84.3a.5.5,0,0,1,.68.18.51.51,0,0,1-.18.69L9.68,95A.47.47,0,0,1,9.43,95Z"/><path class="cls-43" d="M9.43,116.71a.5.5,0,0,1-.43-.25.51.51,0,0,1,.18-.69L36,100.05a.5.5,0,0,1,.68.18.51.51,0,0,1-.18.69L9.68,116.64A.59.59,0,0,1,9.43,116.71Z"/><path class="cls-43" d="M9.43,138.37a.5.5,0,0,1-.25-.93l37.36-21.77a.5.5,0,0,1,.5.86L9.68,138.3A.47.47,0,0,1,9.43,138.37Z"/><g class="cls-44"><path class="cls-43" d="M7.26,64.75a1.28,1.28,0,0,1,1-.24q.36.12.36.66a2.64,2.64,0,0,1-.8,1.69,1.08,1.08,0,0,1,.73.2.78.78,0,0,1,.21.6,2.22,2.22,0,0,1-.39,1.22,3.19,3.19,0,0,1-1.07,1,1.52,1.52,0,0,1-1.1.29c-.26-.09-.39-.34-.39-.77a2,2,0,0,1,.2-.86,4.18,4.18,0,0,1,.67-1,.8.8,0,0,1-.57-.25.92.92,0,0,1-.17-.59,1.88,1.88,0,0,1,.37-1.08A3,3,0,0,1,7.26,64.75ZM6.46,69c0,.24.07.38.21.43a.77.77,0,0,0,.59-.15,1.69,1.69,0,0,0,.6-.55A1.2,1.2,0,0,0,8.07,68a.41.41,0,0,0-.19-.39,1,1,0,0,0-.6-.08H7.2a3.82,3.82,0,0,0-.57.76A1.4,1.4,0,0,0,6.46,69Zm.8-3.61a1.3,1.3,0,0,0-.48.45,1,1,0,0,0-.18.56.55.55,0,0,0,.06.28.33.33,0,0,0,.19.14,1.51,1.51,0,0,0,.43,0,3.71,3.71,0,0,0,.5-.68,1.17,1.17,0,0,0,.15-.55c0-.19-.06-.31-.18-.35A.61.61,0,0,0,7.26,65.37Z"/><path class="cls-43" d="M12.38,64.36A5.27,5.27,0,0,1,12,66.5a2.59,2.59,0,0,1-1.11,1.28c-.49.28-.85.27-1.1,0a2.7,2.7,0,0,1-.38-1.69,5.27,5.27,0,0,1,.37-2.16,2.63,2.63,0,0,1,1.11-1.28c.49-.28.85-.27,1.1,0A2.77,2.77,0,0,1,12.38,64.36Zm-2.25,1.3A3.28,3.28,0,0,0,10.31,67c.12.22.32.25.59.1a1.41,1.41,0,0,0,.59-.78,5.28,5.28,0,0,0,.18-1.56,3.34,3.34,0,0,0-.18-1.35c-.13-.23-.32-.27-.59-.11a1.31,1.31,0,0,0-.59.78A5.27,5.27,0,0,0,10.13,65.66Z"/><path class="cls-43" d="M5.8,90.52a4.37,4.37,0,0,1,2.09-4.13,2.2,2.2,0,0,1,.55-.26v.67a1.83,1.83,0,0,0-.52.22,2.69,2.69,0,0,0-1,1,3.43,3.43,0,0,0-.39,1.6l0,0A2,2,0,0,1,6.91,89a2.22,2.22,0,0,1,.6-.5c.39-.23.7-.27.92-.12a1.09,1.09,0,0,1,.33.94,3,3,0,0,1-.38,1.47,2.86,2.86,0,0,1-1,1.06,1.27,1.27,0,0,1-.82.21A.72.72,0,0,1,6,91.6,2.55,2.55,0,0,1,5.8,90.52Zm1.52.66a1.39,1.39,0,0,0,.56-.59,1.86,1.86,0,0,0,.19-.87.69.69,0,0,0-.18-.57c-.12-.1-.3-.07-.55.07a1.51,1.51,0,0,0-.42.35,2.41,2.41,0,0,0-.3.48,1.23,1.23,0,0,0-.11.46.88.88,0,0,0,.23.68A.46.46,0,0,0,7.32,91.18Z"/><path class="cls-43" d="M12.38,86.36A5.27,5.27,0,0,1,12,88.5a2.59,2.59,0,0,1-1.11,1.28c-.49.28-.85.27-1.1,0a2.7,2.7,0,0,1-.38-1.69,5.27,5.27,0,0,1,.37-2.16,2.63,2.63,0,0,1,1.11-1.28c.49-.28.85-.27,1.1,0A2.77,2.77,0,0,1,12.38,86.36Zm-2.25,1.3A3.28,3.28,0,0,0,10.31,89c.12.22.32.25.59.1a1.41,1.41,0,0,0,.59-.78,5.28,5.28,0,0,0,.18-1.56,3.34,3.34,0,0,0-.18-1.35c-.13-.23-.32-.27-.59-.11a1.31,1.31,0,0,0-.59.78A5.27,5.27,0,0,0,10.13,87.66Z"/><path class="cls-43" d="M8.9,111.78l-.59.33v1.09l-.68.4v-1.09l-2,1.15V113l2-4.45.68-.4v3.26l.59-.34Zm-1.27.06v-1.25c0-.45,0-.82,0-1.12l0,0q-.09.27-.27.69l-1.08,2.43Z"/><path class="cls-43" d="M12.38,108.36A5.27,5.27,0,0,1,12,110.5a2.59,2.59,0,0,1-1.11,1.28c-.49.28-.85.27-1.1,0a2.7,2.7,0,0,1-.38-1.69,5.27,5.27,0,0,1,.37-2.16,2.63,2.63,0,0,1,1.11-1.28c.49-.28.85-.27,1.1,0A2.77,2.77,0,0,1,12.38,108.36Zm-2.25,1.3a3.28,3.28,0,0,0,.18,1.35c.12.22.32.25.59.1a1.41,1.41,0,0,0,.59-.78,5.28,5.28,0,0,0,.18-1.56,3.34,3.34,0,0,0-.18-1.35c-.13-.23-.32-.27-.59-.11a1.31,1.31,0,0,0-.59.78A5.27,5.27,0,0,0,10.13,109.66Z"/><path class="cls-43" d="M8.74,135l-2.95,1.71v-.61l1.13-1.94c.33-.58.55-1,.66-1.21a5.42,5.42,0,0,0,.23-.6,1.8,1.8,0,0,0,.08-.5c0-.23-.06-.37-.18-.44a.53.53,0,0,0-.49.09,2.16,2.16,0,0,0-.48.39,5.32,5.32,0,0,0-.55.69l-.37-.31a5.53,5.53,0,0,1,.7-.9,3.52,3.52,0,0,1,.73-.57,1.14,1.14,0,0,1,1-.2c.24.1.36.36.36.77a2.52,2.52,0,0,1-.1.7,4.61,4.61,0,0,1-.33.81c-.14.3-.39.74-.73,1.3l-.75,1.28v0l2.06-1.19Z"/><path class="cls-43" d="M12.38,130.36A5.27,5.27,0,0,1,12,132.5a2.59,2.59,0,0,1-1.11,1.28c-.49.28-.85.27-1.1,0a2.7,2.7,0,0,1-.38-1.69,5.27,5.27,0,0,1,.37-2.16,2.63,2.63,0,0,1,1.11-1.28c.49-.28.85-.27,1.1,0A2.77,2.77,0,0,1,12.38,130.36Zm-2.25,1.3a3.28,3.28,0,0,0,.18,1.35c.12.22.32.25.59.1a1.41,1.41,0,0,0,.59-.78,5.28,5.28,0,0,0,.18-1.56,3.34,3.34,0,0,0-.18-1.35c-.13-.23-.32-.27-.59-.11a1.31,1.31,0,0,0-.59.78A5.27,5.27,0,0,0,10.13,131.66Z"/></g></g></g></g></g></svg>