<svg xmlns="http://www.w3.org/2000/svg" xmlns:xlink="http://www.w3.org/1999/xlink" viewBox="0 0 109.36 139.22"><defs><style>.cls-1{isolation:isolate;}.cls-2{mix-blend-mode:screen;}.cls-3{fill:#1e3480;}.cls-4{opacity:0.3;}.cls-5{opacity:0.5;}.cls-6{opacity:0.1;}.cls-7{fill:url(#Degradado_sin_nombre_42);}.cls-11,.cls-12,.cls-8{opacity:0.8;}.cls-8{fill:url(#Degradado_sin_nombre_42-2);}.cls-9{fill:url(#Degradado_sin_nombre_42-3);}.cls-10{fill:url(#Degradado_sin_nombre_42-4);}.cls-11{fill:url(#Degradado_sin_nombre_42-5);}.cls-12{fill:url(#Degradado_sin_nombre_42-6);}.cls-13{fill:url(#Degradado_sin_nombre_42-7);}.cls-14{fill:url(#Degradado_sin_nombre_42-8);}.cls-15{fill:url(#Degradado_sin_nombre_42-9);}.cls-16{fill:url(#Degradado_sin_nombre_42-10);}.cls-17{fill:url(#Degradado_sin_nombre_13);}.cls-18,.cls-19{mix-blend-mode:color-dodge;}.cls-18{fill:url(#radial-gradient);}.cls-19{fill:url(#radial-gradient-2);}</style><linearGradient id="Degradado_sin_nombre_42" x1="-4.41" y1="103.84" x2="55.09" y2="74.34" gradientUnits="userSpaceOnUse"><stop offset="0" stop-color="#1e3480"/><stop offset="0.99" stop-color="#5de7e5"/></linearGradient><linearGradient id="Degradado_sin_nombre_42-2" x1="72.51" y1="116.16" x2="51.76" y2="77.41" xlink:href="#Degradado_sin_nombre_42"/><linearGradient id="Degradado_sin_nombre_42-3" x1="132.02" y1="-28.16" x2="57.35" y2="61.01" xlink:href="#Degradado_sin_nombre_42"/><linearGradient id="Degradado_sin_nombre_42-4" x1="64.77" y1="33.48" x2="48.6" y2="105.15" xlink:href="#Degradado_sin_nombre_42"/><linearGradient id="Degradado_sin_nombre_42-5" x1="112" y1="38.2" x2="53.75" y2="71.2" xlink:href="#Degradado_sin_nombre_42"/><linearGradient id="Degradado_sin_nombre_42-6" x1="39.98" y1="24.53" x2="56.73" y2="69.53" xlink:href="#Degradado_sin_nombre_42"/><linearGradient id="Degradado_sin_nombre_42-7" x1="21.97" y1="61.31" x2="69.47" y2="76.31" xlink:href="#Degradado_sin_nombre_42"/><linearGradient id="Degradado_sin_nombre_42-8" x1="89.38" y1="78.81" x2="20.05" y2="64.15" xlink:href="#Degradado_sin_nombre_42"/><linearGradient id="Degradado_sin_nombre_42-9" x1="46.21" y1="112.86" x2="56.21" y2="48.02" xlink:href="#Degradado_sin_nombre_42"/><linearGradient id="Degradado_sin_nombre_42-10" x1="17.47" y1="126.34" x2="62.97" y2="51.59" xlink:href="#Degradado_sin_nombre_42"/><linearGradient id="Degradado_sin_nombre_13" x1="43.18" y1="55.19" x2="58.93" y2="74.19" gradientUnits="userSpaceOnUse"><stop offset="0.04" stop-color="#1e3480"/><stop offset="0.16" stop-color="#234389"/><stop offset="0.4" stop-color="#326ca0"/><stop offset="0.73" stop-color="#48adc4"/><stop offset="1" stop-color="#5de7e5"/></linearGradient><radialGradient id="radial-gradient" cx="54.52" cy="69.05" r="4.32" gradientUnits="userSpaceOnUse"><stop offset="0" stop-color="#fff"/><stop offset="1"/></radialGradient><radialGradient id="radial-gradient-2" cx="32.86" cy="39.01" r="58.33" xlink:href="#radial-gradient"/></defs><title>Recurso 1</title><g class="cls-1"><g id="Capa_2" data-name="Capa 2"><g id="Layer_1" data-name="Layer 1"><g class="cls-2"><path class="cls-3" d="M25.69,40.25l-1.33-1.34A125.29,125.29,0,0,0,4.9,80.85l2.16-.44A120.24,120.24,0,0,1,25.69,40.25Z"/><path class="cls-3" d="M4.56,100a83.52,83.52,0,0,1,2.5-19.63l-2.16.44a87.38,87.38,0,0,0-2.62,20.5A54.66,54.66,0,0,0,4.9,118.83l2.16-2.06A52.26,52.26,0,0,1,4.56,100Z"/><path class="cls-3" d="M7.06,116.77,4.9,118.83C8.42,129.25,15.32,136,24.36,138.3l1.33-2.88C17,133.19,10.44,126.75,7.06,116.77Z"/><path class="cls-3" d="M25.69,135.42l-1.33,2.88c8.83,2.28,19.7.37,31.46-6.42v-2.62C44.56,135.77,34.15,137.6,25.69,135.42Z"/><path class="cls-3" d="M55.82,129.26h0v2.62h0c11.76-6.79,22.63-17.43,31.47-29.91L86,100.63C77.49,112.58,67.08,122.76,55.82,129.26Z"/><path class="cls-3" d="M86,100.63,87.29,102A125.64,125.64,0,0,0,106.75,60l-2.17.45A120.33,120.33,0,0,1,86,100.63Z"/><path class="cls-3" d="M107.09,40.84a83.54,83.54,0,0,1-2.51,19.63l2.17-.45a87.27,87.27,0,0,0,2.61-20.49,54.63,54.63,0,0,0-2.61-17.48l-2.17,2.06A52.25,52.25,0,0,1,107.09,40.84Z"/><path class="cls-3" d="M87.29,2.57,86,5.46c8.65,2.23,15.25,8.67,18.63,18.65l2.17-2.06C103.22,11.63,96.32,4.9,87.29,2.57Z"/><path class="cls-3" d="M55.82,11.61C67.08,5.11,77.49,3.28,86,5.46l1.34-2.89C78.45.3,67.58,2.21,55.82,9h0v2.61Z"/><path class="cls-3" d="M55.82,11.61V9C44.06,15.79,33.19,26.43,24.36,38.91l1.33,1.34C34.15,28.3,44.56,18.12,55.82,11.61Z"/></g><g class="cls-2"><g class="cls-4"><path class="cls-3" d="M55.82,70.44,9.13,80A109.77,109.77,0,0,1,27,41.52Z"/></g><g class="cls-5"><path class="cls-3" d="M55.82,70.44,9.13,114.8c-3.35-9.9-3.35-21,0-34.81Z"/></g><g class="cls-4"><path class="cls-3" d="M55.82,70.44,27,132.67c-8.78-2.25-14.49-8-17.84-17.87Z"/></g><g class="cls-5"><path class="cls-3" d="M55.82,70.44v56.33C45,133,35.74,134.92,27,132.67Z"/></g><g class="cls-6"><path class="cls-3" d="M55.82,70.44,84.68,99.35c-8.78,12.38-18,21.16-28.86,27.42Z"/></g><g class="cls-5"><path class="cls-3" d="M55.82,70.44l46.69-9.55A109.87,109.87,0,0,1,84.68,99.35Z"/></g><g class="cls-4"><path class="cls-3" d="M55.82,70.44l46.69-44.37c3.35,9.91,3.35,21,0,34.82Z"/></g><g class="cls-5"><path class="cls-3" d="M55.82,70.44,84.68,8.2c8.77,2.25,14.48,8,17.83,17.87Z"/></g><g class="cls-4"><path class="cls-3" d="M55.82,70.44V14.11C66.67,7.84,75.9,6,84.68,8.2Z"/></g><g class="cls-5"><path class="cls-3" d="M55.82,70.44,27,41.52c8.77-12.38,18-21.15,28.85-27.41Z"/></g></g><path class="cls-7" d="M55.82,70.44,12.48,111.62c-3.11-9.19-3.11-19.54,0-32.32Z"/><path class="cls-8" d="M55.82,70.44,82.61,97.28c-8.15,11.49-16.72,19.64-26.79,25.45Z"/><path class="cls-9" d="M55.82,70.44,82.61,12.67c8.14,2.09,13.44,7.4,16.55,16.59Z"/><path class="cls-10" d="M72.56,34.34c-4.7-1.21-10.48-.19-16.74,3.42V70.44Z"/><path class="cls-11" d="M93.74,62.68a65,65,0,0,0,2-15.26,40.56,40.56,0,0,0-2-13l-37.92,36Z"/><path class="cls-12" d="M55.82,70.44v-49c-9.38,5.42-18.06,13.91-25.1,23.86Z"/><path class="cls-13" d="M55.82,70.44,35.74,50.31A80.12,80.12,0,0,0,23.32,77.09Z"/><path class="cls-14" d="M55.82,70.44l21.76,21.8A86.75,86.75,0,0,0,91,63.24Z"/><path class="cls-15" d="M39.08,106.54c4.7,1.21,10.48.19,16.74-3.42V70.44Z"/><path class="cls-16" d="M32.39,121,55.82,70.44l-37.92,36C20.52,114.23,25.66,119.24,32.39,121Z"/><path class="cls-17" d="M59.81,68.14a8.79,8.79,0,0,1-4,6.87c-2.2,1.28-4,.26-4-2.27a8.81,8.81,0,0,1,4-6.88C58,64.59,59.81,65.61,59.81,68.14Z"/><path class="cls-18" d="M52.17,73.32a8.78,8.78,0,0,1,4-6.87c1.44-.83,2.69-.67,3.39.23-.57-1.4-2-1.8-3.72-.82a8.81,8.81,0,0,0-4,6.88,3.22,3.22,0,0,0,.61,2A3.73,3.73,0,0,1,52.17,73.32Z"/><path class="cls-19" d="M1,101.87c0-34.55,24.4-76.64,54.51-94C68.48.37,80.37-1.3,89.73,2,80.23-1.79,67.94-.28,54.5,7.47,24.4,24.85,0,66.94,0,101.49c0,19.66,7.92,32.63,20.29,37C8.5,133.78,1,121,1,101.87Z"/><path class="cls-3" d="M35.51,130.12c-16,0-25.94-12.72-25.94-33.18,0-29.45,20.88-65.45,46.54-80.27,7.37-4.25,14.43-6.41,21-6.41C93.1,10.26,103,23,103,43.44c0,29.44-20.88,65.45-46.53,80.26C49.13,128,42.07,130.12,35.51,130.12ZM77.1,11.06c-6.41,0-13.34,2.12-20.59,6.31C31.07,32.05,10.37,67.75,10.37,96.94c0,20,9.63,32.38,25.14,32.38,6.41,0,13.34-2.13,20.6-6.31,25.43-14.69,46.13-50.38,46.13-79.57C102.24,23.47,92.61,11.06,77.1,11.06Z"/><path class="cls-3" d="M38.11,122.68c-14,0-22.75-11.15-22.75-29.09,0-25.78,18.28-57.3,40.75-70.27,6.46-3.73,12.65-5.62,18.39-5.62,14,0,22.75,11.14,22.75,29.08,0,25.78-18.28,57.3-40.74,70.27C50,120.78,43.86,122.68,38.11,122.68ZM74.5,18.5c-5.6,0-11.66,1.86-18,5.51C34.26,36.86,16.16,68.07,16.16,93.59c0,17.45,8.41,28.29,22,28.29,5.6,0,11.66-1.86,18-5.52,22.24-12.84,40.34-44,40.34-69.58C96.45,29.34,88,18.5,74.5,18.5Z"/><path class="cls-3" d="M40.71,115.23c-12.06,0-19.55-9.57-19.55-25,0-22.11,15.67-49.16,35-60.28C61.65,26.76,67,25.14,71.9,25.14c12.06,0,19.55,9.57,19.55,25,0,22.12-15.67,49.16-34.94,60.29C51,113.61,45.64,115.23,40.71,115.23ZM71.9,25.94c-4.79,0-10,1.59-15.39,4.72C37.45,41.66,22,68.39,22,90.25c0,14.92,7.18,24.18,18.75,24.18,4.79,0,10-1.58,15.4-4.71,19-11,34.54-37.74,34.54-59.6C90.65,35.21,83.47,25.94,71.9,25.94Z"/><path class="cls-3" d="M43.31,107.79c-10.09,0-16.36-8-16.36-20.88,0-18.45,13.08-41,29.16-50.3,4.63-2.67,9.07-4,13.19-4,10.09,0,16.36,8,16.36,20.89,0,18.45-13.08,41-29.15,50.29C51.87,106.44,47.43,107.79,43.31,107.79Zm26-74.41c-4,0-8.29,1.32-12.79,3.93-15.86,9.15-28.76,31.4-28.76,49.6,0,12.39,6,20.08,15.56,20.08,4,0,8.29-1.32,12.8-3.92C72,93.92,84.86,71.66,84.86,53.47,84.86,41.08,78.9,33.38,69.3,33.38Z"/><path class="cls-3" d="M45.91,100.35c-8.13,0-13.17-6.43-13.17-16.79,0-14.78,10.48-32.86,23.37-40.3A21.35,21.35,0,0,1,66.7,40c8.13,0,13.17,6.44,13.17,16.79,0,14.79-10.48,32.87-23.36,40.31A21.5,21.5,0,0,1,45.91,100.35ZM66.7,40.82A20.56,20.56,0,0,0,56.51,44c-12.67,7.31-23,25.08-23,39.61,0,9.87,4.74,16,12.37,16a20.62,20.62,0,0,0,10.2-3.13c12.66-7.31,23-25.08,23-39.61C79.07,47,74.33,40.82,66.7,40.82Z"/></g></g></g></svg>