<svg xmlns="http://www.w3.org/2000/svg" xmlns:xlink="http://www.w3.org/1999/xlink" viewBox="0 0 112.89 149.61"><defs><style>.cls-1{fill:url(#linear-gradient);}.cls-2{mask:url(#mask);filter:url(#luminosity-noclip-2);}.cls-3{mix-blend-mode:multiply;fill:url(#linear-gradient-2);}.cls-4{isolation:isolate;}.cls-5{mask:url(#mask-2);}.cls-14,.cls-6{mix-blend-mode:color-dodge;}.cls-6{fill:url(#radial-gradient);}.cls-7{mix-blend-mode:screen;}.cls-8{fill:#33076b;}.cls-9{fill:url(#Degradado_sin_nombre_52);}.cls-10{fill:#1e3480;}.cls-11{mask:url(#mask-3);}.cls-12{fill:url(#Degradado_sin_nombre_67);}.cls-13{fill:url(#Degradado_sin_nombre_23);}.cls-15{fill:url(#radial-gradient-2);}.cls-16{fill:url(#radial-gradient-3);}.cls-17{fill:url(#radial-gradient-4);}.cls-18{fill:url(#Degradado_sin_nombre_111);}.cls-19{fill:url(#Degradado_sin_nombre_70);}.cls-20{fill:url(#Degradado_sin_nombre_32);}.cls-21{fill:url(#Degradado_sin_nombre_23-2);}.cls-22{fill:#ebdef3;}.cls-23{filter:url(#luminosity-noclip);}</style><linearGradient id="linear-gradient" x1="45.08" y1="44.81" x2="83.42" y2="110.58" gradientUnits="userSpaceOnUse"><stop offset="0.56" stop-color="#fff"/><stop offset="0.61" stop-color="#f5f4f5"/><stop offset="0.69" stop-color="#d8d8d9"/><stop offset="0.8" stop-color="#abaaab"/><stop offset="0.92" stop-color="#6c6c6d"/><stop offset="1" stop-color="#414042"/></linearGradient><filter id="luminosity-noclip" x="69.63" y="-8186.38" width="4.83" height="32766" filterUnits="userSpaceOnUse" color-interpolation-filters="sRGB"><feFlood flood-color="#fff" result="bg"/><feBlend in="SourceGraphic" in2="bg"/></filter><mask id="mask" x="69.63" y="-8186.38" width="4.83" height="32766" maskUnits="userSpaceOnUse"><g class="cls-23"/></mask><linearGradient id="linear-gradient-2" x1="86.5" y1="101.18" x2="51.16" y2="34.48" gradientUnits="userSpaceOnUse"><stop offset="0"/><stop offset="1" stop-color="#fff"/></linearGradient><mask id="mask-2" x="-15.86" y="-5.69" width="155.25" height="158.25" maskUnits="userSpaceOnUse"><rect class="cls-1" x="-15.86" y="-5.69" width="155.25" height="158.25"/></mask><radialGradient id="radial-gradient" cx="31.84" cy="54.99" r="64.96" gradientUnits="userSpaceOnUse"><stop offset="0" stop-color="#fff"/><stop offset="1"/></radialGradient><linearGradient id="Degradado_sin_nombre_52" x1="3.19" y1="75.28" x2="111.13" y2="75.28" gradientUnits="userSpaceOnUse"><stop offset="0" stop-color="#1e3480"/><stop offset="1" stop-color="#5de7e5"/></linearGradient><filter id="luminosity-noclip-2" x="69.63" y="37.68" width="4.83" height="72.27" filterUnits="userSpaceOnUse" color-interpolation-filters="sRGB"><feFlood flood-color="#fff" result="bg"/><feBlend in="SourceGraphic" in2="bg"/></filter><mask id="mask-3" x="69.63" y="37.68" width="4.83" height="72.27" maskUnits="userSpaceOnUse"><g class="cls-2"><polygon class="cls-3" points="74.46 107.24 69.63 109.94 69.63 39.16 72.53 37.68 74.46 37.86 74.46 107.24"/></g></mask><linearGradient id="Degradado_sin_nombre_67" x1="86.5" y1="101.18" x2="51.16" y2="34.48" gradientUnits="userSpaceOnUse"><stop offset="0" stop-color="#5513ab"/><stop offset="1" stop-color="#1e3480"/></linearGradient><linearGradient id="Degradado_sin_nombre_23" x1="72.65" y1="112.19" x2="40.4" y2="54.19" gradientUnits="userSpaceOnUse"><stop offset="0.04" stop-color="#1e3480"/><stop offset="0.16" stop-color="#234389"/><stop offset="0.4" stop-color="#326ca0"/><stop offset="0.73" stop-color="#48adc4"/><stop offset="1" stop-color="#5de7e5"/></linearGradient><radialGradient id="radial-gradient-2" cx="95.23" cy="46.72" r="9.72" xlink:href="#radial-gradient"/><radialGradient id="radial-gradient-3" cx="79.61" cy="44.43" r="2.88" xlink:href="#radial-gradient"/><radialGradient id="radial-gradient-4" cx="63.92" cy="42.49" r="29.15" xlink:href="#radial-gradient"/><linearGradient id="Degradado_sin_nombre_111" x1="4147.05" y1="7990.22" x2="4036.37" y2="8051.54" gradientTransform="translate(-8915.21 -500.3) rotate(-59.58)" gradientUnits="userSpaceOnUse"><stop offset="0.01" stop-color="#1e3480"/><stop offset="0.2" stop-color="#15255c"/><stop offset="0.44" stop-color="#0c1534"/><stop offset="0.66" stop-color="#060a18"/><stop offset="0.86" stop-color="#010306"/><stop offset="1"/></linearGradient><linearGradient id="Degradado_sin_nombre_70" x1="4113.07" y1="8008.23" x2="4036.2" y2="8051.92" gradientTransform="translate(-8915.21 -500.3) rotate(-59.58)" gradientUnits="userSpaceOnUse"><stop offset="0" stop-color="#1e3480"/><stop offset="0.25" stop-color="#152459"/><stop offset="0.59" stop-color="#0a1129"/><stop offset="0.85" stop-color="#03050b"/><stop offset="1"/></linearGradient><linearGradient id="Degradado_sin_nombre_32" x1="4084.04" y1="8024.48" x2="4036.51" y2="8052.18" gradientTransform="translate(-8915.21 -500.3) rotate(-59.58)" gradientUnits="userSpaceOnUse"><stop offset="0" stop-color="#5de7e5"/><stop offset="0.28" stop-color="#42a3a1"/><stop offset="0.78" stop-color="#132f2e"/><stop offset="1"/></linearGradient><linearGradient id="Degradado_sin_nombre_23-2" x1="61.95" y1="24.44" x2="74.93" y2="40.1" xlink:href="#Degradado_sin_nombre_23"/></defs><title>Recurso 4</title><g class="cls-4"><g id="Capa_2" data-name="Capa 2"><g id="Layer_1" data-name="Layer 1"><g class="cls-5"><path class="cls-6" d="M1,144.81V67.3c0-2.69,1.63-5.8,3.65-7L107.82.77a2.78,2.78,0,0,1,1.53-.42,2.25,2.25,0,0,0-2.53.08L3.65,60C1.63,61.16,0,64.28,0,67v77.5c0,1.95.87,3.12,2.11,3.18A3.37,3.37,0,0,1,1,144.81Z"/><g class="cls-7"><path class="cls-8" d="M4.13,149.61h0c-1.62,0-2.7-1.48-2.7-3.69V68.41c0-2.89,1.71-6.14,3.89-7.4L108.5,1.45a3.36,3.36,0,0,1,1.69-.51c1.62,0,2.7,1.49,2.7,3.7v77.5c0,2.89-1.71,6.14-3.89,7.4L5.82,149.11A3.44,3.44,0,0,1,4.13,149.61ZM110.19,1.94a2.44,2.44,0,0,0-1.19.37L5.82,61.88C4,63,2.43,65.89,2.43,68.41v77.51c0,1.64.67,2.69,1.7,2.69a2.34,2.34,0,0,0,1.19-.37L108.5,88.68c1.87-1.08,3.39-4,3.39-6.54V4.64C111.89,3,111.22,1.94,110.19,1.94Z"/></g><path class="cls-9" d="M4.13,147.85a1.64,1.64,0,0,0,.81-.27L108.11,88a7.48,7.48,0,0,0,3-5.88V4.64c0-1-.29-1.93-.94-1.93a1.73,1.73,0,0,0-.81.26L6.21,62.54c-1.64.94-3,3.63-3,5.87v77.51C3.19,146.88,3.48,147.85,4.13,147.85Z"/><g class="cls-7"><path class="cls-10" d="M41.39,117.06a.5.5,0,0,1-.5-.5v-2a.5.5,0,0,1,1,0v2A.5.5,0,0,1,41.39,117.06Zm0-5a.5.5,0,0,1-.5-.5v-2a.5.5,0,0,1,1,0v2A.5.5,0,0,1,41.39,112.06Zm0-5a.5.5,0,0,1-.5-.5v-2a.5.5,0,0,1,1,0v2A.5.5,0,0,1,41.39,107.06Zm0-5a.5.5,0,0,1-.5-.5v-2a.5.5,0,0,1,1,0v2A.5.5,0,0,1,41.39,102.06Zm0-5a.5.5,0,0,1-.5-.5v-2a.5.5,0,0,1,1,0v2A.5.5,0,0,1,41.39,97.06Z"/></g><g class="cls-7"><path class="cls-10" d="M10.81,134.74a.5.5,0,0,1-.5-.5v-2a.51.51,0,0,1,.5-.5.5.5,0,0,1,.5.5v2A.5.5,0,0,1,10.81,134.74Zm0-5a.5.5,0,0,1-.5-.5v-1.68a.5.5,0,0,1,.5-.5.5.5,0,0,1,.5.5v1.68A.5.5,0,0,1,10.81,129.74Z"/></g><g class="cls-7"><path class="cls-10" d="M26.06,125.58a.5.5,0,0,1-.5-.5v-2a.5.5,0,0,1,.5-.5.51.51,0,0,1,.5.5v2A.5.5,0,0,1,26.06,125.58Zm0-5a.5.5,0,0,1-.5-.5v-2a.5.5,0,0,1,.5-.5.51.51,0,0,1,.5.5v2A.5.5,0,0,1,26.06,120.58Zm0-5a.5.5,0,0,1-.5-.5v-2a.5.5,0,0,1,.5-.5.51.51,0,0,1,.5.5v2A.5.5,0,0,1,26.06,115.58Zm0-5a.5.5,0,0,1-.5-.5v-2a.5.5,0,0,1,.5-.5.51.51,0,0,1,.5.5v2A.5.5,0,0,1,26.06,110.58Zm0-5a.5.5,0,0,1-.5-.5v-1.85a.5.5,0,0,1,.5-.5.5.5,0,0,1,.5.5v1.85A.5.5,0,0,1,26.06,105.58Z"/></g><g class="cls-7"><path class="cls-10" d="M56.63,108.39a.5.5,0,0,1-.5-.5v-2a.5.5,0,0,1,1,0v2A.5.5,0,0,1,56.63,108.39Zm0-5a.5.5,0,0,1-.5-.5v-2a.5.5,0,0,1,1,0v2A.5.5,0,0,1,56.63,103.39Zm0-5a.5.5,0,0,1-.5-.5v-2a.5.5,0,0,1,1,0v2A.5.5,0,0,1,56.63,98.39Zm0-5a.5.5,0,0,1-.5-.5v-2a.5.5,0,0,1,1,0v2A.5.5,0,0,1,56.63,93.39Zm0-5a.5.5,0,0,1-.5-.5v-2a.5.5,0,0,1,1,0v2A.5.5,0,0,1,56.63,88.39Zm0-5a.5.5,0,0,1-.5-.5v-2a.5.5,0,0,1,1,0v2A.5.5,0,0,1,56.63,83.39Zm0-5a.5.5,0,0,1-.5-.5v-2a.5.5,0,0,1,1,0v2A.5.5,0,0,1,56.63,78.39Zm0-5a.5.5,0,0,1-.5-.5v-2a.5.5,0,0,1,1,0v2A.5.5,0,0,1,56.63,73.39Zm0-5a.5.5,0,0,1-.5-.5v-2a.5.5,0,0,1,1,0v2A.5.5,0,0,1,56.63,68.39Zm0-5a.5.5,0,0,1-.5-.5v-.83a.5.5,0,0,1,1,0v.83A.5.5,0,0,1,56.63,63.39Z"/></g><g class="cls-7"><path class="cls-10" d="M71.87,99.56a.5.5,0,0,1-.5-.5v-2a.5.5,0,0,1,.5-.5.5.5,0,0,1,.5.5v2A.5.5,0,0,1,71.87,99.56Zm0-5a.5.5,0,0,1-.5-.5v-2a.5.5,0,0,1,.5-.5.5.5,0,0,1,.5.5v2A.5.5,0,0,1,71.87,94.56Zm0-5a.5.5,0,0,1-.5-.5v-2a.5.5,0,0,1,.5-.5.5.5,0,0,1,.5.5v2A.5.5,0,0,1,71.87,89.56Zm0-5a.5.5,0,0,1-.5-.5v-2a.5.5,0,0,1,.5-.5.5.5,0,0,1,.5.5v2A.5.5,0,0,1,71.87,84.56Zm0-5a.5.5,0,0,1-.5-.5v-2a.5.5,0,0,1,.5-.5.5.5,0,0,1,.5.5v2A.5.5,0,0,1,71.87,79.56Zm0-5a.5.5,0,0,1-.5-.5v-2a.5.5,0,0,1,.5-.5.5.5,0,0,1,.5.5v2A.5.5,0,0,1,71.87,74.56Zm0-5a.5.5,0,0,1-.5-.5v-2a.5.5,0,0,1,.5-.5.5.5,0,0,1,.5.5v2A.5.5,0,0,1,71.87,69.56Zm0-5a.5.5,0,0,1-.5-.5v-2a.5.5,0,0,1,.5-.5.5.5,0,0,1,.5.5v2A.5.5,0,0,1,71.87,64.56Zm0-5a.5.5,0,0,1-.5-.5v-2a.5.5,0,0,1,.5-.5.5.5,0,0,1,.5.5v2A.5.5,0,0,1,71.87,59.56Zm0-5a.5.5,0,0,1-.5-.5v-2a.5.5,0,0,1,.5-.5.5.5,0,0,1,.5.5v2A.5.5,0,0,1,71.87,54.56Zm0-5a.5.5,0,0,1-.5-.5v-2a.5.5,0,0,1,.5-.5.5.5,0,0,1,.5.5v2A.5.5,0,0,1,71.87,49.56Zm0-5a.5.5,0,0,1-.5-.5v-2a.5.5,0,0,1,.5-.5.5.5,0,0,1,.5.5v2A.5.5,0,0,1,71.87,44.56Z"/></g><g class="cls-7"><path class="cls-10" d="M87.11,90.35a.51.51,0,0,1-.5-.5v-2a.5.5,0,0,1,.5-.5.5.5,0,0,1,.5.5v2A.5.5,0,0,1,87.11,90.35Zm0-5a.51.51,0,0,1-.5-.5v-2a.5.5,0,0,1,.5-.5.5.5,0,0,1,.5.5v2A.5.5,0,0,1,87.11,85.35Zm0-5a.51.51,0,0,1-.5-.5v-2a.5.5,0,0,1,.5-.5.5.5,0,0,1,.5.5v2A.5.5,0,0,1,87.11,80.35Zm0-5a.51.51,0,0,1-.5-.5v-2a.5.5,0,0,1,.5-.5.5.5,0,0,1,.5.5v2A.5.5,0,0,1,87.11,75.35Zm0-5a.51.51,0,0,1-.5-.5v-2a.5.5,0,0,1,.5-.5.5.5,0,0,1,.5.5v2A.5.5,0,0,1,87.11,70.35Zm0-5a.51.51,0,0,1-.5-.5v-2a.5.5,0,0,1,.5-.5.5.5,0,0,1,.5.5v2A.5.5,0,0,1,87.11,65.35Zm0-5a.51.51,0,0,1-.5-.5v-2a.5.5,0,0,1,.5-.5.5.5,0,0,1,.5.5v2A.5.5,0,0,1,87.11,60.35Z"/></g><g class="cls-7"><path class="cls-10" d="M102.36,81.69a.5.5,0,0,1-.5-.5v-2a.5.5,0,0,1,.5-.5.5.5,0,0,1,.5.5v2A.51.51,0,0,1,102.36,81.69Zm0-5a.5.5,0,0,1-.5-.5v-2a.5.5,0,0,1,.5-.5.5.5,0,0,1,.5.5v2A.51.51,0,0,1,102.36,76.69Zm0-5a.5.5,0,0,1-.5-.5v-2a.5.5,0,0,1,.5-.5.5.5,0,0,1,.5.5v2A.51.51,0,0,1,102.36,71.69Zm0-5a.5.5,0,0,1-.5-.5v-2a.5.5,0,0,1,.5-.5.5.5,0,0,1,.5.5v2A.51.51,0,0,1,102.36,66.69Zm0-5a.5.5,0,0,1-.5-.5v-2a.5.5,0,0,1,.5-.5.5.5,0,0,1,.5.5v2A.51.51,0,0,1,102.36,61.69Zm0-5a.48.48,0,0,1-.5-.48v0a.5.5,0,0,1,.5-.5.51.51,0,0,1,0,1Z"/></g></g><g class="cls-7"><path class="cls-10" d="M12.61,139a4.54,4.54,0,0,1-.31,1.82,2.22,2.22,0,0,1-.94,1.08c-.41.24-.72.23-.94,0a2.35,2.35,0,0,1-.31-1.44,4.53,4.53,0,0,1,.31-1.83,2.14,2.14,0,0,1,.94-1.07c.41-.24.72-.24.93,0A2.34,2.34,0,0,1,12.61,139Zm-1.9,1.1a2.85,2.85,0,0,0,.15,1.15c.1.19.27.21.5.08a1.14,1.14,0,0,0,.49-.66,4.14,4.14,0,0,0,.16-1.32,2.61,2.61,0,0,0-.16-1.14c-.1-.19-.27-.22-.49-.09a1.11,1.11,0,0,0-.5.66A4.46,4.46,0,0,0,10.71,140.12Z"/><path class="cls-10" d="M26.92,132.88l-.6.34v-2.73c0-.32,0-.59,0-.79,0,.07-.08.15-.14.24l-.57.86-.29-.26,1.08-1.6.5-.29Z"/><path class="cls-10" d="M30.75,128.55a4.54,4.54,0,0,1-.31,1.82,2.31,2.31,0,0,1-.94,1.08c-.41.23-.73.23-.94,0a2.3,2.3,0,0,1-.31-1.43,4.72,4.72,0,0,1,.3-1.83,2.28,2.28,0,0,1,.95-1.08c.41-.23.72-.23.93,0A2.34,2.34,0,0,1,30.75,128.55Zm-1.9,1.1A2.85,2.85,0,0,0,29,130.8c.1.18.27.21.5.08a1.14,1.14,0,0,0,.49-.66,4.14,4.14,0,0,0,.16-1.32,2.61,2.61,0,0,0-.16-1.14c-.1-.2-.27-.23-.49-.1a1.14,1.14,0,0,0-.5.66A4.54,4.54,0,0,0,28.85,129.65Z"/><path class="cls-10" d="M42.48,123.89,40,125.34v-.52l1-1.64c.28-.5.47-.84.56-1a3.45,3.45,0,0,0,.2-.5,1.65,1.65,0,0,0,.06-.43q0-.28-.15-.36c-.1-.06-.23,0-.41.07a1.75,1.75,0,0,0-.41.33,4.17,4.17,0,0,0-.46.58l-.32-.26a5.45,5.45,0,0,1,.6-.77,3.13,3.13,0,0,1,.62-.48,1,1,0,0,1,.82-.16c.21.08.31.3.31.65a2.06,2.06,0,0,1-.09.59,4.42,4.42,0,0,1-.27.69c-.13.25-.33.62-.62,1.1l-.64,1.08v0l1.75-1Z"/><path class="cls-10" d="M45.55,120a4.74,4.74,0,0,1-.3,1.82,2.24,2.24,0,0,1-1,1.08c-.41.24-.72.23-.93,0a2.34,2.34,0,0,1-.32-1.44,4.53,4.53,0,0,1,.31-1.83,2.24,2.24,0,0,1,.94-1.07c.41-.24.72-.24.94,0A2.35,2.35,0,0,1,45.55,120Zm-1.9,1.1a2.64,2.64,0,0,0,.16,1.15c.1.19.26.21.49.08a1.15,1.15,0,0,0,.5-.66,4.45,4.45,0,0,0,.16-1.32,2.78,2.78,0,0,0-.16-1.14c-.11-.19-.27-.22-.5-.09a1.1,1.1,0,0,0-.49.66A4.1,4.1,0,0,0,43.65,121.1Z"/><path class="cls-10" d="M57.28,112.09a1.61,1.61,0,0,1-.21.79,2.19,2.19,0,0,1-.57.69v0a.77.77,0,0,1,.66-.07c.15.08.22.27.22.54a2,2,0,0,1-.37,1.16,3.22,3.22,0,0,1-1.07,1,2.3,2.3,0,0,1-1,.37v-.61a1.48,1.48,0,0,0,.49-.08,1.92,1.92,0,0,0,.51-.22,1.85,1.85,0,0,0,.64-.55,1.16,1.16,0,0,0,.21-.68c0-.23-.08-.35-.24-.37a1.55,1.55,0,0,0-.73.27l-.32.18v-.55l.32-.19a1.45,1.45,0,0,0,.89-1.2c0-.19-.06-.3-.16-.34a.6.6,0,0,0-.45.12,2.26,2.26,0,0,0-.41.3,3.91,3.91,0,0,0-.45.53l-.29-.31a3.58,3.58,0,0,1,1.17-1.1,1.13,1.13,0,0,1,.87-.23C57.17,111.58,57.28,111.77,57.28,112.09Z"/><path class="cls-10" d="M60.49,111.38a4.54,4.54,0,0,1-.31,1.82,2.31,2.31,0,0,1-.94,1.08c-.41.23-.73.23-.94,0a2.3,2.3,0,0,1-.31-1.43,4.72,4.72,0,0,1,.3-1.83,2.28,2.28,0,0,1,1-1.08c.41-.23.72-.23.93,0A2.34,2.34,0,0,1,60.49,111.38Zm-1.9,1.1a2.85,2.85,0,0,0,.15,1.15c.1.18.27.21.5.08a1.14,1.14,0,0,0,.49-.66,4.14,4.14,0,0,0,.16-1.32,2.61,2.61,0,0,0-.16-1.14c-.1-.2-.27-.23-.49-.1a1.14,1.14,0,0,0-.5.66A4.54,4.54,0,0,0,58.59,112.48Z"/><path class="cls-10" d="M72.48,105.65l-.5.29v.92l-.58.33v-.92l-1.68,1v-.52L71.4,103l.58-.33v2.75l.5-.28Zm-1.08.06v-1.06c0-.38,0-.7,0-1h0a5.85,5.85,0,0,1-.22.59l-.92,2.06Z"/><path class="cls-10" d="M75.42,102.76a4.69,4.69,0,0,1-.3,1.81,2.24,2.24,0,0,1-1,1.08c-.41.24-.72.24-.93,0a2.32,2.32,0,0,1-.32-1.44,4.51,4.51,0,0,1,.31-1.82,2.27,2.27,0,0,1,.94-1.08c.41-.24.72-.23.94,0A2.33,2.33,0,0,1,75.42,102.76Zm-1.9,1.1a2.58,2.58,0,0,0,.16,1.14c.1.19.26.22.49.09a1.15,1.15,0,0,0,.5-.66,4.58,4.58,0,0,0,.16-1.33,2.75,2.75,0,0,0-.16-1.13c-.11-.2-.27-.23-.5-.1a1.1,1.1,0,0,0-.49.66A4.17,4.17,0,0,0,73.52,103.86Z"/><path class="cls-10" d="M86,96.11a1,1,0,0,1,.88-.18c.21.11.32.35.32.74a2.32,2.32,0,0,1-.37,1.27,2.79,2.79,0,0,1-1.05,1,1.81,1.81,0,0,1-1,.33v-.62a1.38,1.38,0,0,0,.47-.06,3.14,3.14,0,0,0,.49-.21,1.75,1.75,0,0,0,.61-.56,1.32,1.32,0,0,0,.21-.72c0-.51-.28-.6-.84-.28l-.29.2-.31.24-.26,0,.14-2.14L87,94v.6l-1.39.81-.08,1.09.21-.16A3.71,3.71,0,0,1,86,96.11Z"/><path class="cls-10" d="M90.36,94.14A4.67,4.67,0,0,1,90.05,96,2.22,2.22,0,0,1,89.11,97c-.41.24-.73.23-.94,0a2.35,2.35,0,0,1-.31-1.44,4.79,4.79,0,0,1,.3-1.83,2.21,2.21,0,0,1,1-1.07c.41-.24.72-.23.93,0A2.36,2.36,0,0,1,90.36,94.14Zm-1.9,1.1a2.83,2.83,0,0,0,.15,1.14c.1.19.27.22.5.09a1.2,1.2,0,0,0,.49-.67,4.14,4.14,0,0,0,.16-1.32,2.61,2.61,0,0,0-.16-1.14c-.1-.19-.27-.22-.49-.09a1.11,1.11,0,0,0-.5.66A4.54,4.54,0,0,0,88.46,95.24Z"/><path class="cls-10" d="M99.73,89a3.72,3.72,0,0,1,1.76-3.5,2.34,2.34,0,0,1,.47-.22v.57a1.46,1.46,0,0,0-.44.19,2.28,2.28,0,0,0-.89.88,2.92,2.92,0,0,0-.33,1.35l0,0a1.86,1.86,0,0,1,.34-.55,1.83,1.83,0,0,1,.5-.42c.33-.19.6-.23.78-.1s.28.39.28.8a2.51,2.51,0,0,1-.32,1.23,2.33,2.33,0,0,1-.89.9,1.07,1.07,0,0,1-.68.18.59.59,0,0,1-.45-.38A2,2,0,0,1,99.73,89Zm1.28.56a1.22,1.22,0,0,0,.48-.5,1.72,1.72,0,0,0,.16-.74q0-.37-.15-.48c-.11-.08-.26-.07-.47.05a1.43,1.43,0,0,0-.35.3,1.49,1.49,0,0,0-.26.41,1,1,0,0,0-.09.38.72.72,0,0,0,.19.58A.4.4,0,0,0,101,89.6Z"/><path class="cls-10" d="M105.29,85.51a4.54,4.54,0,0,1-.31,1.82,2.17,2.17,0,0,1-.94,1.08c-.41.24-.72.23-.93,0a2.34,2.34,0,0,1-.32-1.44,4.53,4.53,0,0,1,.31-1.83,2.19,2.19,0,0,1,.94-1.07c.41-.24.72-.24.94,0A2.35,2.35,0,0,1,105.29,85.51Zm-1.9,1.1a2.85,2.85,0,0,0,.15,1.15c.11.19.27.21.5.08a1.15,1.15,0,0,0,.5-.66,4.45,4.45,0,0,0,.16-1.32,2.78,2.78,0,0,0-.16-1.14c-.11-.19-.27-.22-.5-.09a1.15,1.15,0,0,0-.5.66A4.46,4.46,0,0,0,103.39,86.61Z"/></g><g class="cls-11"><polygon class="cls-12" points="74.46 107.24 69.63 109.94 69.63 39.16 72.53 37.68 74.46 37.86 74.46 107.24"/></g><path class="cls-13" d="M6,125.24a.75.75,0,0,1-.35-1.41c6.4-3.47,9.28-9.65,12.06-15.62,2.26-4.84,4.39-9.41,8.24-11.7a22.88,22.88,0,0,1,9.34-3.24c2.27-.33,3.9-.57,6-2.61,1.54-1.49,2-5.88,2.53-10.52.9-8.25,1.92-17.61,9-19,5.56-1.13,8.53-7.47,11.41-13.6,2.18-4.66,4.25-9.07,7.38-10.67,4.5-2.29,6.8,2.12,9,6.37,2,3.93,4.38,8.38,8.6,8.89,7,.84,10-3.17,12.65-6.72,1.56-2.12,2.92-4,4.92-4.43a.75.75,0,0,1,.35,1.46c-1.47.35-2.67,2-4.07,3.86-2.73,3.69-6.13,8.28-14,7.32-5-.6-7.53-5.43-9.75-9.68-2.45-4.69-4-7.27-7-5.73-2.67,1.37-4.63,5.54-6.71,10-2.89,6.16-6.17,13.15-12.46,14.43-6,1.23-7,10-7.84,17.74-.56,5.14-1.05,9.57-3,11.44-2.44,2.37-4.47,2.67-6.82,3a21,21,0,0,0-8.79,3c-3.46,2-5.49,6.41-7.65,11-2.75,5.91-5.87,12.61-12.71,16.31A.77.77,0,0,1,6,125.24Z"/><g class="cls-14"><path class="cls-15" d="M89.43,52.41c7,.84,10-3.17,12.64-6.72,1.57-2.12,2.93-3.94,4.93-4.43a.75.75,0,0,1,.69.21.77.77,0,0,0-.9-.54c-2,.48-3.36,2.31-4.92,4.43-2.63,3.55-5.62,7.56-12.65,6.72-2.84-.34-4.82-2.47-6.44-5C84.43,49.75,86.46,52.06,89.43,52.41Z"/><path class="cls-16" d="M79.5,44.22c-.68-1.29-1.28-2.42-1.87-3.34.52.86,1.06,1.87,1.66,3,.71,1.36,1.46,2.78,2.3,4.1C80.83,46.77,80.15,45.47,79.5,44.22Z"/><path class="cls-17" d="M5.81,124.17c6.41-3.47,9.29-9.65,12.07-15.63,2.25-4.84,4.38-9.41,8.24-11.69a22.73,22.73,0,0,1,9.34-3.24c2.26-.34,3.9-.58,6-2.61,1.54-1.49,2-5.88,2.53-10.53.9-8.25,1.92-17.6,9-19,5.55-1.12,8.53-7.46,11.4-13.6,2.19-4.66,4.26-9.06,7.39-10.66,3.28-1.68,5.39.22,7.16,3-1.81-3-4-5.1-7.37-3.36-3.13,1.6-5.2,6-7.38,10.67C61.34,53.62,58.37,60,52.81,61.09c-7.11,1.44-8.13,10.8-9,19-.51,4.64-1,9-2.53,10.52-2.1,2-3.73,2.28-6,2.61a22.88,22.88,0,0,0-9.34,3.24c-3.85,2.29-6,6.86-8.24,11.7-2.78,6-5.66,12.15-12.06,15.62a.76.76,0,0,0-.31,1,.81.81,0,0,0,.16.16A.74.74,0,0,1,5.81,124.17Z"/></g><g class="cls-14"><path class="cls-18" d="M69.84,103.16h3.85l.09-24.57.09-39.16a1.92,1.92,0,0,0-1.93-1.93h0A1.94,1.94,0,0,0,70,39.42l-.09,39.17Z"/><path class="cls-19" d="M71,99.91l-.15-22.08v-.76l-.14-35.89a3.09,3.09,0,0,1,.37-1.48,1,1,0,0,1,.88-.5h0a1.06,1.06,0,0,1,.92.52,2.83,2.83,0,0,1,.35,1.38l-.14,36V78L73,98.49Z"/><path class="cls-20" d="M72.24,96.67,71.83,76.4l-.4-34.87a.61.61,0,0,1,.61-.61h0a.61.61,0,0,1,.62.61L72.45,76.4Z"/></g><path class="cls-21" d="M75.65,35.11a7.24,7.24,0,0,1-3.29,5.67c-1.81,1-3.28.21-3.28-1.87a7.24,7.24,0,0,1,3.28-5.67C74.18,32.19,75.65,33,75.65,35.11Z"/><path class="cls-22" d="M70.89,41.73c-1.4,0-2.31-1.11-2.31-2.82a7.71,7.71,0,0,1,3.53-6.11,3.52,3.52,0,0,1,1.73-.51c1.4,0,2.31,1.1,2.31,2.82a7.66,7.66,0,0,1-3.54,6.1A3.38,3.38,0,0,1,70.89,41.73Zm3-8.44a2.56,2.56,0,0,0-1.23.38,6.72,6.72,0,0,0-3,5.24c0,1.14.49,1.82,1.31,1.82a2.52,2.52,0,0,0,1.22-.38,6.7,6.7,0,0,0,3-5.24C75.15,34,74.66,33.29,73.84,33.29Z"/></g></g></g></svg>