<svg xmlns="http://www.w3.org/2000/svg" xmlns:xlink="http://www.w3.org/1999/xlink" viewBox="0 0 134.91 158.41"><defs><style>.cls-1{mask:url(#mask);filter:url(#luminosity-noclip-4);}.cls-2,.cls-4,.cls-6{mix-blend-mode:multiply;}.cls-2{fill:url(#linear-gradient);}.cls-3{mask:url(#mask-2);filter:url(#luminosity-noclip-5);}.cls-4{fill:url(#linear-gradient-2);}.cls-5{mask:url(#mask-3);filter:url(#luminosity-noclip-6);}.cls-6{fill:url(#linear-gradient-3);}.cls-7{isolation:isolate;}.cls-8{mix-blend-mode:screen;}.cls-9{fill:#1e3480;}.cls-10{mask:url(#mask-4);}.cls-11{fill:url(#Degradado_sin_nombre_57);}.cls-12{mask:url(#mask-5);}.cls-13{fill:url(#Degradado_sin_nombre_47);}.cls-14{mask:url(#mask-6);}.cls-15{fill:url(#Degradado_sin_nombre_47-2);}.cls-16,.cls-17,.cls-18{mix-blend-mode:color-dodge;}.cls-16{fill:url(#radial-gradient);}.cls-17{fill:url(#radial-gradient-2);}.cls-18{fill:url(#radial-gradient-3);}.cls-19{filter:url(#luminosity-noclip-3);}.cls-20{filter:url(#luminosity-noclip-2);}.cls-21{filter:url(#luminosity-noclip);}</style><filter id="luminosity-noclip" x="24.45" y="-8188.42" width="96.56" height="32766" filterUnits="userSpaceOnUse" color-interpolation-filters="sRGB"><feFlood flood-color="#fff" result="bg"/><feBlend in="SourceGraphic" in2="bg"/></filter><mask id="mask" x="24.45" y="-8188.42" width="96.56" height="32766" maskUnits="userSpaceOnUse"><g class="cls-21"/></mask><linearGradient id="linear-gradient" x1="90.36" y1="147.57" x2="53.73" y2="35.24" gradientUnits="userSpaceOnUse"><stop offset="0"/><stop offset="1" stop-color="#fff"/></linearGradient><filter id="luminosity-noclip-2" x="32.78" y="-8188.42" width="96.56" height="32766" filterUnits="userSpaceOnUse" color-interpolation-filters="sRGB"><feFlood flood-color="#fff" result="bg"/><feBlend in="SourceGraphic" in2="bg"/></filter><mask id="mask-2" x="32.78" y="-8188.42" width="96.56" height="32766" maskUnits="userSpaceOnUse"><g class="cls-20"/></mask><linearGradient id="linear-gradient-2" x1="102.75" y1="138.59" x2="60.46" y2="68.56" xlink:href="#linear-gradient"/><filter id="luminosity-noclip-3" x="15.78" y="-8188.42" width="96.56" height="32766" filterUnits="userSpaceOnUse" color-interpolation-filters="sRGB"><feFlood flood-color="#fff" result="bg"/><feBlend in="SourceGraphic" in2="bg"/></filter><mask id="mask-3" x="15.78" y="-8188.42" width="96.56" height="32766" maskUnits="userSpaceOnUse"><g class="cls-19"/></mask><linearGradient id="linear-gradient-3" x1="88.58" y1="142.5" x2="35" y2="20.36" xlink:href="#linear-gradient"/><filter id="luminosity-noclip-4" x="24.45" y="37.87" width="96.56" height="110.01" filterUnits="userSpaceOnUse" color-interpolation-filters="sRGB"><feFlood flood-color="#fff" result="bg"/><feBlend in="SourceGraphic" in2="bg"/></filter><mask id="mask-4" x="24.45" y="37.87" width="96.56" height="110.01" maskUnits="userSpaceOnUse"><g class="cls-1"><polygon class="cls-2" points="121.01 92.13 24.45 147.88 24.45 103.82 31.96 95.18 39.75 94.98 57.07 72.73 66.31 72.03 77.57 54.6 85.94 58.05 95.46 49.22 107.01 46.55 116.82 37.87 121.01 39.12 121.01 92.13"/></g></mask><linearGradient id="Degradado_sin_nombre_57" x1="90.36" y1="147.57" x2="53.73" y2="35.24" gradientUnits="userSpaceOnUse"><stop offset="0" stop-color="#1e3480"/><stop offset="0.99" stop-color="#5de7e5"/></linearGradient><filter id="luminosity-noclip-5" x="32.78" y="52.61" width="96.56" height="100.14" filterUnits="userSpaceOnUse" color-interpolation-filters="sRGB"><feFlood flood-color="#fff" result="bg"/><feBlend in="SourceGraphic" in2="bg"/></filter><mask id="mask-5" x="32.78" y="52.61" width="96.56" height="100.14" maskUnits="userSpaceOnUse"><g class="cls-3"><polygon class="cls-4" points="129.34 97 32.78 152.75 32.78 116.97 44.62 106.83 55.88 102.31 73.2 79.06 79.26 80.2 85.9 69.74 94.27 68.22 103.79 59.39 115.34 63.01 125.15 53.01 129.34 52.61 129.34 97"/></g></mask><linearGradient id="Degradado_sin_nombre_47" x1="102.75" y1="138.59" x2="60.46" y2="68.56" gradientUnits="userSpaceOnUse"><stop offset="0" stop-color="#1e3480"/><stop offset="1" stop-color="#5de7e5"/></linearGradient><filter id="luminosity-noclip-6" x="15.78" y="28.49" width="96.56" height="114.98" filterUnits="userSpaceOnUse" color-interpolation-filters="sRGB"><feFlood flood-color="#fff" result="bg"/><feBlend in="SourceGraphic" in2="bg"/></filter><mask id="mask-6" x="15.78" y="28.49" width="96.56" height="114.98" maskUnits="userSpaceOnUse"><g class="cls-5"><polygon class="cls-6" points="112.34 87.72 15.78 143.47 15.78 85.17 23.29 76.53 31.08 76.34 42.4 56.75 53.66 56.87 66.88 37.09 74.39 39.4 83.91 30.57 98.34 37.17 108.15 28.5 112.34 29.75 112.34 87.72"/></g></mask><linearGradient id="Degradado_sin_nombre_47-2" x1="88.58" y1="142.5" x2="35" y2="20.36" xlink:href="#Degradado_sin_nombre_47"/><radialGradient id="radial-gradient" cx="57.19" cy="41.61" r="53.08" gradientUnits="userSpaceOnUse"><stop offset="0" stop-color="#fff"/><stop offset="1"/></radialGradient><radialGradient id="radial-gradient-2" cx="56.23" cy="85.25" r="51.75" xlink:href="#radial-gradient"/><radialGradient id="radial-gradient-3" cx="96.31" cy="76.8" r="49.18" xlink:href="#radial-gradient"/></defs><title>Recurso 5</title><g class="cls-7"><g id="Capa_2" data-name="Capa 2"><g id="Layer_1" data-name="Layer 1"><g class="cls-8"><path class="cls-9" d="M104.23,100.86a.47.47,0,0,1-.25-.07l-.86-.51a.49.49,0,0,1-.18-.68.51.51,0,0,1,.69-.18l.86.51a.5.5,0,0,1,.17.69A.51.51,0,0,1,104.23,100.86Z"/><path class="cls-9" d="M113.74,106.47a.59.59,0,0,1-.25-.07l-1.9-1.12a.51.51,0,0,1-.18-.69.5.5,0,0,1,.68-.18l1.91,1.13a.5.5,0,0,1-.26.93ZM109,103.66a.58.58,0,0,1-.26-.06l-1.9-1.13a.48.48,0,0,1-.17-.68.49.49,0,0,1,.68-.18l1.9,1.12a.51.51,0,0,1,.18.69A.49.49,0,0,1,109,103.66Z"/><path class="cls-9" d="M117.46,108.66a.59.59,0,0,1-.26-.07l-.86-.51a.5.5,0,0,1,.51-.86l.86.51a.49.49,0,0,1,.18.68A.51.51,0,0,1,117.46,108.66Z"/><path class="cls-9" d="M87.11,110.92a.58.58,0,0,1-.26-.06l-.86-.51a.51.51,0,0,1-.17-.69.49.49,0,0,1,.68-.17l.86.5a.51.51,0,0,1,.18.69A.49.49,0,0,1,87.11,110.92Z"/><path class="cls-9" d="M96.62,116.53a.48.48,0,0,1-.26-.07l-1.9-1.12a.5.5,0,0,1,.51-.86l1.9,1.12a.5.5,0,0,1-.25.93Zm-4.76-2.8a.59.59,0,0,1-.25-.07l-1.9-1.12a.51.51,0,0,1-.18-.69.49.49,0,0,1,.68-.17l1.91,1.12a.5.5,0,0,1-.26.93Z"/><path class="cls-9" d="M100.33,118.72a.47.47,0,0,1-.25-.07l-.86-.51a.5.5,0,0,1,.5-.86l.87.51a.5.5,0,0,1-.26.93Z"/><path class="cls-9" d="M70,121a.59.59,0,0,1-.25-.07l-.86-.51a.5.5,0,0,1-.18-.68.51.51,0,0,1,.69-.18l.86.51A.5.5,0,0,1,70,121Z"/><path class="cls-9" d="M79.49,126.59a.47.47,0,0,1-.25-.07l-1.9-1.12a.5.5,0,1,1,.5-.86l1.91,1.12a.5.5,0,0,1-.26.93Zm-4.75-2.8a.48.48,0,0,1-.26-.07l-1.9-1.12a.49.49,0,0,1-.17-.69.5.5,0,0,1,.68-.17l1.9,1.12a.5.5,0,0,1-.25.93Z"/><path class="cls-9" d="M83.21,128.78a.48.48,0,0,1-.26-.07l-.86-.51a.49.49,0,0,1-.18-.68.51.51,0,0,1,.69-.18l.86.51a.5.5,0,0,1,.18.68A.51.51,0,0,1,83.21,128.78Z"/><path class="cls-9" d="M52.86,131.05a.48.48,0,0,1-.26-.07l-.86-.51a.5.5,0,0,1-.17-.68.49.49,0,0,1,.68-.18l.86.51a.5.5,0,0,1-.25.93Z"/><path class="cls-9" d="M62.37,136.65a.48.48,0,0,1-.26-.07l-1.9-1.12a.48.48,0,0,1-.17-.68.49.49,0,0,1,.68-.18l1.9,1.12a.51.51,0,0,1,.18.69A.49.49,0,0,1,62.37,136.65Zm-4.76-2.8a.47.47,0,0,1-.25-.07l-1.9-1.12a.5.5,0,0,1,.5-.86l1.91,1.12a.5.5,0,0,1-.26.93Z"/><path class="cls-9" d="M66.08,138.84a.47.47,0,0,1-.25-.07l-.86-.5a.51.51,0,0,1-.18-.69.5.5,0,0,1,.68-.18l.87.51a.51.51,0,0,1,.17.69A.49.49,0,0,1,66.08,138.84Z"/><path class="cls-9" d="M35.73,141.11a.47.47,0,0,1-.25-.07l-.86-.51a.49.49,0,0,1-.18-.68.51.51,0,0,1,.69-.18l.86.51a.5.5,0,0,1,.17.69A.51.51,0,0,1,35.73,141.11Z"/><path class="cls-9" d="M45.24,146.72a.59.59,0,0,1-.25-.07l-1.9-1.12a.51.51,0,0,1-.18-.69.5.5,0,0,1,.68-.18l1.91,1.13a.5.5,0,0,1-.26.93Zm-4.75-2.81a.58.58,0,0,1-.26-.06l-1.9-1.13a.5.5,0,0,1,.51-.86l1.9,1.12a.51.51,0,0,1,.18.69A.49.49,0,0,1,40.49,143.91Z"/><path class="cls-9" d="M49,148.91a.59.59,0,0,1-.26-.07l-.86-.51a.51.51,0,0,1-.18-.69.51.51,0,0,1,.69-.17l.86.51a.49.49,0,0,1,.18.68A.51.51,0,0,1,49,148.91Z"/></g><g class="cls-8"><path class="cls-9" d="M123.64,111.07c.44.25.67.52.69.8s-.16.54-.56.77a2.84,2.84,0,0,1-1.52.37,3.49,3.49,0,0,1-1.63-.49,2.24,2.24,0,0,1-.91-.8l.63-.36a1.64,1.64,0,0,0,.35.44,2.64,2.64,0,0,0,.5.38,2,2,0,0,0,.93.29,1.58,1.58,0,0,0,.87-.21c.51-.3.44-.64-.22-1l-.38-.19-.42-.17-.13-.28,2.28-1.13,2.26,1.31-.61.36-1.65-1-1.17.57.29.12A3,3,0,0,1,123.64,111.07Z"/><path class="cls-9" d="M128.21,114.33a5.62,5.62,0,0,1-2,.76,2.65,2.65,0,0,1-1.67-.33c-.48-.28-.66-.6-.54-1a2.77,2.77,0,0,1,1.29-1.17,5.48,5.48,0,0,1,2-.76,2.62,2.62,0,0,1,1.66.33c.48.28.66.6.53,1A2.69,2.69,0,0,1,128.21,114.33ZM126,113a3.36,3.36,0,0,0-1.09.84c-.13.21-.06.4.21.55a1.31,1.31,0,0,0,1,.12,5,5,0,0,0,1.45-.62,3.1,3.1,0,0,0,1.07-.83c.14-.23.07-.41-.2-.57a1.38,1.38,0,0,0-1-.12A5.31,5.31,0,0,0,126,113Z"/><path class="cls-9" d="M134.91,115.7l-6.75,1.1-.58-.33,6.75-1.11Zm-3.24-.38a3.3,3.3,0,0,1-1.27.45,1.76,1.76,0,0,1-1.07-.23c-.3-.17-.42-.37-.35-.6s.33-.48.76-.73a2.23,2.23,0,0,1,2.31-.23c.31.18.43.38.37.61S132.1,115.07,131.67,115.32Zm-1.35-.77a1.9,1.9,0,0,0-.57.43.16.16,0,0,0,.06.28c.27.16.69.06,1.27-.27s.74-.58.48-.73a.64.64,0,0,0-.5,0A3,3,0,0,0,130.32,114.55Zm2.45,3.41a3.12,3.12,0,0,1-1.27.44,1.66,1.66,0,0,1-1.06-.22c-.31-.17-.42-.37-.36-.6s.32-.48.76-.73a2.23,2.23,0,0,1,2.31-.23c.31.17.43.38.36.61S133.2,117.7,132.77,118Zm-1.34-.78a2.17,2.17,0,0,0-.58.43.19.19,0,0,0,.07.3c.26.15.68,0,1.27-.29s.74-.57.48-.72a.64.64,0,0,0-.5,0A2.57,2.57,0,0,0,131.43,117.18Z"/><path class="cls-9" d="M107.56,122a5.5,5.5,0,0,1-2.43.81,3.92,3.92,0,0,1-2.19-.54,2.4,2.4,0,0,1-.52-.36l.58-.33a2.42,2.42,0,0,0,.46.35,2.77,2.77,0,0,0,1.44.39,3.54,3.54,0,0,0,1.57-.47l0,0a2.32,2.32,0,0,1-1.51-.29c-.38-.22-.56-.47-.55-.73s.24-.52.66-.76a3,3,0,0,1,1.46-.4,2.76,2.76,0,0,1,1.44.37,1.25,1.25,0,0,1,.59.6.72.72,0,0,1-.12.68A2.46,2.46,0,0,1,107.56,122Zm-.19-1.64a1.36,1.36,0,0,0-.79-.18,1.77,1.77,0,0,0-.86.27c-.25.14-.38.28-.4.44s.09.29.33.43a1.82,1.82,0,0,0,.81.23,1.34,1.34,0,0,0,.73-.15,1,1,0,0,0,.39-.34.45.45,0,0,0,.08-.38A.59.59,0,0,0,107.37,120.4Z"/><path class="cls-9" d="M110.88,124.33a5.51,5.51,0,0,1-2,.76,2.65,2.65,0,0,1-1.67-.33c-.48-.28-.66-.6-.54-1a2.77,2.77,0,0,1,1.29-1.17,5.42,5.42,0,0,1,2-.76,2.63,2.63,0,0,1,1.66.33c.48.28.66.6.53,1A2.73,2.73,0,0,1,110.88,124.33Zm-2.25-1.3a3.29,3.29,0,0,0-1.08.84c-.13.21-.06.4.21.55a1.31,1.31,0,0,0,1,.12,5,5,0,0,0,1.45-.62,3.1,3.1,0,0,0,1.07-.83c.14-.23.07-.41-.2-.57a1.38,1.38,0,0,0-1-.12A5.34,5.34,0,0,0,108.63,123Z"/><path class="cls-9" d="M117.58,125.7l-6.74,1.1-.58-.33,6.75-1.11Zm-3.24-.38a3.21,3.21,0,0,1-1.26.45,1.76,1.76,0,0,1-1.07-.23c-.3-.17-.42-.37-.35-.6s.33-.48.76-.73a2.21,2.21,0,0,1,2.3-.23c.32.18.44.38.37.61S114.78,125.07,114.34,125.32Zm-1.34-.77a1.77,1.77,0,0,0-.57.43.16.16,0,0,0,.06.28c.27.16.69.06,1.27-.27s.74-.58.48-.73a.64.64,0,0,0-.5,0A3,3,0,0,0,113,124.55Zm2.45,3.41a3.12,3.12,0,0,1-1.27.44,1.65,1.65,0,0,1-1.06-.22c-.31-.17-.42-.37-.36-.6s.32-.48.76-.73a2.23,2.23,0,0,1,2.31-.23c.31.17.43.38.36.61S115.88,127.7,115.45,128Zm-1.34-.78a2.17,2.17,0,0,0-.58.43.19.19,0,0,0,.07.3c.26.15.68,0,1.27-.29s.73-.57.47-.72a.62.62,0,0,0-.49,0A2.57,2.57,0,0,0,114.11,127.18Z"/><path class="cls-9" d="M90.67,130.09a1.36,1.36,0,0,1,.7.73c0,.25-.08.47-.4.65a2.7,2.7,0,0,1-1.86.14,1.1,1.1,0,0,1,.19.74.75.75,0,0,1-.41.48,2.18,2.18,0,0,1-1.26.27,3.13,3.13,0,0,1-1.39-.43c-.47-.28-.74-.55-.8-.81s.1-.51.47-.72a2,2,0,0,1,.85-.26,4.24,4.24,0,0,1,1.18.09.83.83,0,0,1-.07-.62,1,1,0,0,1,.43-.44,1.92,1.92,0,0,1,1.12-.22A3.06,3.06,0,0,1,90.67,130.09Zm-4.07,1.42c-.21.12-.29.25-.26.4s.17.3.42.44a1.79,1.79,0,0,0,.77.25,1.22,1.22,0,0,0,.69-.16.41.41,0,0,0,.24-.37,1,1,0,0,0-.22-.55l0-.07a3.52,3.52,0,0,0-.94-.11A1.42,1.42,0,0,0,86.6,131.51Zm3.53-1.11a1.32,1.32,0,0,0-.63-.19,1,1,0,0,0-.58.12.58.58,0,0,0-.21.2.47.47,0,0,0,0,.24,1.44,1.44,0,0,0,.19.38,3.12,3.12,0,0,0,.83.1,1.15,1.15,0,0,0,.55-.15c.17-.1.24-.21.22-.33A.65.65,0,0,0,90.13,130.4Z"/><path class="cls-9" d="M93.56,134.33a5.49,5.49,0,0,1-2,.76,2.63,2.63,0,0,1-1.66-.33c-.48-.28-.66-.6-.54-1a2.77,2.77,0,0,1,1.29-1.17,5.42,5.42,0,0,1,2-.76,2.63,2.63,0,0,1,1.66.33c.48.28.66.6.53,1A2.78,2.78,0,0,1,93.56,134.33ZM91.31,133a3.29,3.29,0,0,0-1.08.84c-.13.21-.06.4.21.55a1.31,1.31,0,0,0,1,.12,5.1,5.1,0,0,0,1.45-.62,3.1,3.1,0,0,0,1.07-.83c.14-.23.07-.41-.2-.57a1.41,1.41,0,0,0-1-.12A5.44,5.44,0,0,0,91.31,133Z"/><path class="cls-9" d="M100.26,135.7l-6.74,1.1-.58-.33,6.75-1.11ZM97,135.32a3.21,3.21,0,0,1-1.26.45,1.76,1.76,0,0,1-1.07-.23c-.3-.17-.42-.37-.35-.6s.33-.48.76-.73a2.21,2.21,0,0,1,2.3-.23c.32.18.44.38.37.61S97.46,135.07,97,135.32Zm-1.34-.77a1.77,1.77,0,0,0-.57.43.16.16,0,0,0,.06.28c.27.16.69.06,1.27-.27s.74-.58.48-.73a.64.64,0,0,0-.5,0A3,3,0,0,0,95.68,134.55ZM98.12,138a3,3,0,0,1-1.26.44,1.69,1.69,0,0,1-1.07-.22c-.3-.17-.42-.37-.35-.6s.32-.48.76-.73a2.23,2.23,0,0,1,2.31-.23c.31.17.43.38.36.61S98.56,137.7,98.12,138Zm-1.34-.78a2.26,2.26,0,0,0-.57.43c-.09.12-.06.22.07.3s.68.05,1.27-.29.73-.57.47-.72a.62.62,0,0,0-.49,0A2.73,2.73,0,0,0,96.78,137.18Z"/><path class="cls-9" d="M69.35,140.72a4.37,4.37,0,0,1,4.62-.27,3.18,3.18,0,0,1,.5.35l-.58.34a1.7,1.7,0,0,0-.45-.34,2.73,2.73,0,0,0-1.43-.39,3.37,3.37,0,0,0-1.58.47l0,0a2.27,2.27,0,0,1,1.49.28c.4.22.58.47.56.74s-.23.52-.65.75a2.84,2.84,0,0,1-2.89,0,1.25,1.25,0,0,1-.59-.6.7.7,0,0,1,.12-.68A2.46,2.46,0,0,1,69.35,140.72Zm.19,1.64a1.43,1.43,0,0,0,.79.19,1.76,1.76,0,0,0,.85-.27c.25-.14.38-.29.4-.44s-.09-.3-.33-.44a1.6,1.6,0,0,0-.52-.19,2.12,2.12,0,0,0-.56,0,1.2,1.2,0,0,0-.45.13.87.87,0,0,0-.48.54A.47.47,0,0,0,69.54,142.36Z"/><path class="cls-9" d="M76.24,144.33a5.49,5.49,0,0,1-2,.76,2.62,2.62,0,0,1-1.66-.33c-.49-.28-.66-.6-.54-1a2.77,2.77,0,0,1,1.29-1.17,5.42,5.42,0,0,1,2-.76,2.63,2.63,0,0,1,1.66.33c.48.28.66.6.53,1A2.78,2.78,0,0,1,76.24,144.33ZM74,143a3.17,3.17,0,0,0-1.08.84c-.13.21-.06.4.21.55a1.31,1.31,0,0,0,1,.12,5.1,5.1,0,0,0,1.45-.62,3.1,3.1,0,0,0,1.07-.83c.14-.23.07-.41-.2-.57a1.41,1.41,0,0,0-1-.12A5.44,5.44,0,0,0,74,143Z"/><path class="cls-9" d="M82.94,145.7l-6.74,1.1-.58-.33,6.75-1.11Zm-3.24-.38a3.2,3.2,0,0,1-1.27.45,1.75,1.75,0,0,1-1.06-.23c-.3-.17-.42-.37-.35-.6s.32-.48.76-.73a2.21,2.21,0,0,1,2.3-.23c.32.18.44.38.37.61S80.14,145.07,79.7,145.32Zm-1.34-.77a1.77,1.77,0,0,0-.57.43.16.16,0,0,0,.06.28c.27.16.69.06,1.27-.27s.74-.58.48-.73a.64.64,0,0,0-.5,0A3,3,0,0,0,78.36,144.55ZM80.8,148a3,3,0,0,1-1.26.44,1.69,1.69,0,0,1-1.07-.22c-.3-.17-.42-.37-.35-.6s.32-.48.76-.73a2.23,2.23,0,0,1,2.31-.23c.3.17.43.38.36.61S81.24,147.7,80.8,148Zm-1.34-.78a2.26,2.26,0,0,0-.57.43c-.09.12-.06.22.07.3s.68.05,1.27-.29.73-.57.47-.72a.62.62,0,0,0-.49,0A2.73,2.73,0,0,0,79.46,147.18Z"/><path class="cls-9" d="M53.12,153.48l-2.95-1.71.53-.3h2.24q1,0,1.38,0a4.69,4.69,0,0,0,.64-.09,2.2,2.2,0,0,0,.47-.19c.2-.12.29-.24.29-.37s-.12-.26-.33-.38a2.12,2.12,0,0,0-.57-.23,6.52,6.52,0,0,0-.87-.12l.08-.48a5.13,5.13,0,0,1,1.14.16,3.77,3.77,0,0,1,.85.34q.61.36.66.75c0,.26-.13.49-.48.7a2.75,2.75,0,0,1-.66.26,6.2,6.2,0,0,1-.87.13c-.33,0-.83,0-1.49,0H51.67l2.07,1.2Z"/><path class="cls-9" d="M58.92,154.33a5.49,5.49,0,0,1-2,.76,2.62,2.62,0,0,1-1.66-.33c-.49-.28-.66-.6-.54-1A2.79,2.79,0,0,1,56,152.62a5.51,5.51,0,0,1,2.06-.76,2.63,2.63,0,0,1,1.66.33c.48.28.66.6.53,1A2.78,2.78,0,0,1,58.92,154.33ZM56.67,153a3.17,3.17,0,0,0-1.08.84c-.13.21-.06.4.21.55a1.31,1.31,0,0,0,1,.12,5.22,5.22,0,0,0,1.45-.62,3.21,3.21,0,0,0,1.07-.83c.14-.23.07-.41-.2-.57a1.41,1.41,0,0,0-1-.12A5.44,5.44,0,0,0,56.67,153Z"/><path class="cls-9" d="M65.62,155.7l-6.74,1.1-.58-.33,6.75-1.11Zm-3.24-.38a3.2,3.2,0,0,1-1.27.45,1.75,1.75,0,0,1-1.06-.23c-.3-.17-.42-.37-.35-.6s.32-.48.76-.73a2.21,2.21,0,0,1,2.3-.23c.32.18.44.38.37.61S62.82,155.07,62.38,155.32ZM61,154.55a1.77,1.77,0,0,0-.57.43.16.16,0,0,0,.06.28c.26.16.69.06,1.27-.27s.74-.58.48-.73a.64.64,0,0,0-.5,0A3,3,0,0,0,61,154.55ZM63.48,158a3,3,0,0,1-1.27.44,1.68,1.68,0,0,1-1.06-.22c-.3-.17-.42-.37-.35-.6s.32-.48.76-.73a2.23,2.23,0,0,1,2.31-.23c.3.17.42.38.36.61S63.92,157.7,63.48,158Zm-1.34-.78a2.26,2.26,0,0,0-.57.43c-.09.12-.07.22.07.3s.68.05,1.27-.29.73-.57.47-.72a.62.62,0,0,0-.49,0A2.73,2.73,0,0,0,62.14,157.18Z"/></g><path class="cls-9" d="M10.62,62.28a.5.5,0,0,1-.25-.93L115.94.07a.49.49,0,0,1,.68.18.49.49,0,0,1-.18.68L10.87,62.21A.45.45,0,0,1,10.62,62.28Z"/><path class="cls-9" d="M10.62,75.62a.5.5,0,0,1-.43-.25.51.51,0,0,1,.18-.69L115.94,13.4a.49.49,0,0,1,.68.18.51.51,0,0,1-.18.69L10.87,75.55A.55.55,0,0,1,10.62,75.62Z"/><path class="cls-9" d="M10.62,88.62a.5.5,0,0,1-.43-.25.51.51,0,0,1,.18-.69L115.94,26.4a.49.49,0,0,1,.68.18.51.51,0,0,1-.18.69L10.87,88.55A.55.55,0,0,1,10.62,88.62Z"/><path class="cls-9" d="M10.62,102a.5.5,0,0,1-.25-.93L115.94,39.73a.51.51,0,0,1,.68.19.49.49,0,0,1-.18.68L10.87,101.88A.45.45,0,0,1,10.62,102Z"/><path class="cls-9" d="M10.62,114.78a.5.5,0,0,1-.25-.93L115.94,52.57a.5.5,0,0,1,.5.86L10.87,114.71A.45.45,0,0,1,10.62,114.78Z"/><path class="cls-9" d="M10.62,128.12a.5.5,0,0,1-.43-.25.51.51,0,0,1,.18-.69L115.94,65.9a.49.49,0,0,1,.68.18.51.51,0,0,1-.18.69L10.87,128.05A.55.55,0,0,1,10.62,128.12Z"/><path class="cls-9" d="M10.62,141.28a.5.5,0,0,1-.25-.93L115.94,79.07a.5.5,0,0,1,.5.86L10.87,141.21A.45.45,0,0,1,10.62,141.28Z"/><g class="cls-8"><path class="cls-9" d="M.17,67.85a4.39,4.39,0,0,1,2.08-4.14,3.25,3.25,0,0,1,.55-.26v.67a2.25,2.25,0,0,0-.52.23,2.69,2.69,0,0,0-1,1A3.4,3.4,0,0,0,.84,67l0,0a2.21,2.21,0,0,1,.39-.66,2.19,2.19,0,0,1,.6-.49c.39-.23.7-.27.92-.12a1.07,1.07,0,0,1,.33.94,3,3,0,0,1-.38,1.46,2.72,2.72,0,0,1-1,1.06,1.27,1.27,0,0,1-.82.21.68.68,0,0,1-.53-.44A2.63,2.63,0,0,1,.17,67.85Zm1.51.66a1.45,1.45,0,0,0,.56-.59,1.86,1.86,0,0,0,.19-.87.73.73,0,0,0-.18-.58c-.12-.09-.3-.07-.55.07a1.75,1.75,0,0,0-.42.36,2.09,2.09,0,0,0-.3.47,1.32,1.32,0,0,0-.11.46.87.87,0,0,0,.23.68A.46.46,0,0,0,1.68,68.51Z"/><path class="cls-9" d="M6.74,63.69a5.3,5.3,0,0,1-.37,2.14,2.63,2.63,0,0,1-1.11,1.28c-.49.28-.85.27-1.1,0a2.73,2.73,0,0,1-.38-1.7,5.34,5.34,0,0,1,.37-2.16A2.61,2.61,0,0,1,5.26,62c.49-.28.85-.27,1.1,0A2.75,2.75,0,0,1,6.74,63.69ZM4.49,65a3.33,3.33,0,0,0,.18,1.36c.12.22.32.25.59.1a1.4,1.4,0,0,0,.59-.79A5.28,5.28,0,0,0,6,64.09a3.25,3.25,0,0,0-.18-1.34c-.13-.23-.32-.27-.59-.11a1.31,1.31,0,0,0-.59.77A5.31,5.31,0,0,0,4.49,65Z"/><path class="cls-9" d="M1.63,79.18a1.17,1.17,0,0,1,1-.2q.39.18.39.87a2.81,2.81,0,0,1-.44,1.5,3.42,3.42,0,0,1-1.24,1.17,2.24,2.24,0,0,1-1.15.39v-.73a1.48,1.48,0,0,0,.56-.08,2.31,2.31,0,0,0,.58-.25,2.17,2.17,0,0,0,.72-.65,1.63,1.63,0,0,0,.25-.86c0-.6-.34-.7-1-.32a2.92,2.92,0,0,0-.34.23l-.36.28-.32,0L.49,78l2.26-1.31v.71l-1.64.95L1,79.62l.25-.2Z"/><path class="cls-9" d="M6.74,76.86A5.3,5.3,0,0,1,6.37,79a2.63,2.63,0,0,1-1.11,1.28c-.49.28-.85.27-1.1,0a2.73,2.73,0,0,1-.38-1.7,5.34,5.34,0,0,1,.37-2.16,2.65,2.65,0,0,1,1.11-1.27c.49-.28.85-.27,1.1,0A2.75,2.75,0,0,1,6.74,76.86Zm-2.25,1.3a3.28,3.28,0,0,0,.18,1.35c.12.22.32.25.59.1a1.4,1.4,0,0,0,.59-.79A5.19,5.19,0,0,0,6,77.26a3.28,3.28,0,0,0-.18-1.34c-.13-.23-.32-.27-.59-.11a1.31,1.31,0,0,0-.59.78A5.22,5.22,0,0,0,4.49,78.16Z"/><path class="cls-9" d="M3.26,93.44l-.59.34v1.09l-.68.4V94.18L0,95.33v-.62l2-4.45.68-.4v3.26l.59-.34ZM2,93.51V92.26c0-.45,0-.82,0-1.12l0,0q-.09.27-.27.69L.65,94.28Z"/><path class="cls-9" d="M6.74,90a5.27,5.27,0,0,1-.37,2.14,2.63,2.63,0,0,1-1.11,1.28c-.49.28-.85.27-1.1,0a2.7,2.7,0,0,1-.38-1.69,5.36,5.36,0,0,1,.37-2.17A2.65,2.65,0,0,1,5.26,88.3c.49-.28.85-.27,1.1,0A2.77,2.77,0,0,1,6.74,90Zm-2.25,1.3a3.28,3.28,0,0,0,.18,1.35c.12.22.32.25.59.1A1.41,1.41,0,0,0,5.85,92,5.28,5.28,0,0,0,6,90.44a3.34,3.34,0,0,0-.18-1.35c-.13-.23-.32-.27-.59-.11a1.31,1.31,0,0,0-.59.78A5.27,5.27,0,0,0,4.49,91.33Z"/><path class="cls-9" d="M2.94,104a2,2,0,0,1-.24.93,2.64,2.64,0,0,1-.68.82v0a.92.92,0,0,1,.79-.08.68.68,0,0,1,.26.64,2.36,2.36,0,0,1-.45,1.37,3.65,3.65,0,0,1-1.26,1.12,2.88,2.88,0,0,1-1.22.44v-.72a1.83,1.83,0,0,0,.59-.1,2.75,2.75,0,0,0,.59-.25,2.4,2.4,0,0,0,.76-.66,1.36,1.36,0,0,0,.25-.81c0-.26-.09-.41-.28-.42a1.69,1.69,0,0,0-.87.31l-.38.22v-.65l.39-.23a1.7,1.7,0,0,0,1-1.43q0-.31-.18-.39a.72.72,0,0,0-.54.14,2.49,2.49,0,0,0-.47.35,4.19,4.19,0,0,0-.54.63l-.35-.36a4.41,4.41,0,0,1,1.39-1.31,1.41,1.41,0,0,1,1-.27C2.82,103.43,2.94,103.66,2.94,104Z"/><path class="cls-9" d="M6.74,103.2a5.27,5.27,0,0,1-.37,2.14,2.59,2.59,0,0,1-1.11,1.28c-.49.28-.85.28-1.1,0a2.75,2.75,0,0,1-.38-1.7,5.31,5.31,0,0,1,.37-2.16,2.57,2.57,0,0,1,1.11-1.27c.49-.28.85-.28,1.1,0A2.79,2.79,0,0,1,6.74,103.2Zm-2.25,1.3a3.28,3.28,0,0,0,.18,1.35c.12.22.32.26.59.1a1.38,1.38,0,0,0,.59-.78A5.28,5.28,0,0,0,6,103.61a3.34,3.34,0,0,0-.18-1.35c-.13-.23-.32-.26-.59-.11a1.34,1.34,0,0,0-.59.78A5.27,5.27,0,0,0,4.49,104.5Z"/><path class="cls-9" d="M3.1,121l-2.95,1.7v-.61l1.13-1.94c.33-.58.55-1,.66-1.21a4.24,4.24,0,0,0,.23-.6,1.8,1.8,0,0,0,.08-.5c0-.23-.06-.37-.18-.43a.53.53,0,0,0-.49.09,1.87,1.87,0,0,0-.48.38,4.88,4.88,0,0,0-.55.7l-.37-.31a5.24,5.24,0,0,1,.7-.91,3.52,3.52,0,0,1,.73-.57,1.17,1.17,0,0,1,1-.2c.24.1.36.36.36.77a2.47,2.47,0,0,1-.1.7,4.68,4.68,0,0,1-.33.82c-.14.3-.39.73-.73,1.29L1,121.42v0l2.06-1.19Z"/><path class="cls-9" d="M6.74,116.37a5.35,5.35,0,0,1-.37,2.15,2.61,2.61,0,0,1-1.11,1.27c-.49.28-.85.28-1.1,0a2.73,2.73,0,0,1-.38-1.7,5.34,5.34,0,0,1,.37-2.16,2.61,2.61,0,0,1,1.11-1.27c.49-.28.85-.28,1.1,0A2.73,2.73,0,0,1,6.74,116.37Zm-2.25,1.3A3.28,3.28,0,0,0,4.67,119c.12.22.32.26.59.1a1.34,1.34,0,0,0,.59-.78A5.28,5.28,0,0,0,6,116.78a3.34,3.34,0,0,0-.18-1.35c-.13-.23-.32-.26-.59-.11a1.37,1.37,0,0,0-.59.78A5.31,5.31,0,0,0,4.49,117.67Z"/><path class="cls-9" d="M2.21,134.66l-.7.4v-3.23c0-.38,0-.69,0-.93a2.33,2.33,0,0,1-.17.28c-.06.11-.29.45-.66,1l-.36-.31L1.62,130l.59-.34Z"/><path class="cls-9" d="M6.74,129.54a5.32,5.32,0,0,1-.37,2.15A2.61,2.61,0,0,1,5.26,133c-.49.28-.85.28-1.1,0a2.73,2.73,0,0,1-.38-1.7,5.34,5.34,0,0,1,.37-2.16,2.61,2.61,0,0,1,1.11-1.27c.49-.28.85-.28,1.1,0A2.73,2.73,0,0,1,6.74,129.54Zm-2.25,1.3a3.28,3.28,0,0,0,.18,1.35c.12.23.32.26.59.1a1.34,1.34,0,0,0,.59-.78A5.28,5.28,0,0,0,6,130a3.34,3.34,0,0,0-.18-1.35c-.13-.23-.32-.26-.59-.11a1.37,1.37,0,0,0-.59.78A5.31,5.31,0,0,0,4.49,130.84Z"/><path class="cls-9" d="M6.74,142.71a5.32,5.32,0,0,1-.37,2.15,2.63,2.63,0,0,1-1.11,1.28c-.49.27-.85.27-1.1,0a2.73,2.73,0,0,1-.38-1.7,5.34,5.34,0,0,1,.37-2.16A2.61,2.61,0,0,1,5.26,141c.49-.28.85-.27,1.1,0A2.73,2.73,0,0,1,6.74,142.71ZM4.49,144a3.37,3.37,0,0,0,.18,1.36c.13.22.32.25.59.1a1.4,1.4,0,0,0,.59-.79A5.28,5.28,0,0,0,6,143.12a3.34,3.34,0,0,0-.18-1.35c-.13-.22-.32-.26-.59-.11a1.41,1.41,0,0,0-.59.78A5.31,5.31,0,0,0,4.49,144Z"/></g><g class="cls-10"><polygon class="cls-11" points="121.01 92.13 24.45 147.88 24.45 103.82 31.96 95.18 39.75 94.98 57.07 72.73 66.31 72.03 77.57 54.6 85.94 58.05 95.46 49.22 107.01 46.55 116.82 37.87 121.01 39.12 121.01 92.13"/></g><g class="cls-12"><polygon class="cls-13" points="129.34 97 32.78 152.75 32.78 116.97 44.62 106.83 55.88 102.31 73.2 79.06 79.26 80.2 85.9 69.74 94.27 68.22 103.79 59.39 115.34 63.01 125.15 53.01 129.34 52.61 129.34 97"/></g><g class="cls-14"><polygon class="cls-15" points="112.34 87.72 15.78 143.47 15.78 85.17 23.29 76.53 31.08 76.34 42.4 56.75 53.66 56.87 66.88 37.09 74.39 39.4 83.91 30.57 98.34 37.17 108.15 28.5 112.34 29.75 112.34 87.72"/></g><polygon class="cls-16" points="16.12 86 23.62 77.36 31.42 77.17 42.73 57.58 53.99 57.7 67.21 37.92 74.72 40.23 84.25 31.4 98.68 38.01 108.48 29.33 112.35 30.49 112.35 29.75 108.15 28.5 98.34 37.17 83.91 30.57 74.39 39.4 66.88 37.09 53.66 56.87 42.4 56.75 31.08 76.34 23.29 76.53 15.78 85.17 15.78 143.47 16.12 143.28 16.12 86"/><polygon class="cls-17" points="24.78 104.65 32.29 96.01 40.08 95.82 57.4 73.56 66.64 72.87 77.9 55.44 86.27 58.88 95.79 50.05 107.34 47.38 117.15 38.7 121.01 39.86 121.01 39.12 116.82 37.87 107.01 46.55 95.46 49.22 85.94 58.05 77.57 54.6 66.31 72.03 57.07 72.73 39.75 94.98 31.96 95.18 24.45 103.82 24.45 147.88 24.78 147.68 24.78 104.65"/><polygon class="cls-18" points="33.12 117.81 44.95 107.66 56.21 103.15 73.53 79.9 79.59 81.03 86.23 70.58 94.61 69.06 104.13 60.23 115.68 63.85 125.48 53.84 129.35 53.48 129.35 52.61 125.15 53.01 115.34 63.01 103.79 59.39 94.27 68.22 85.9 69.74 79.26 80.2 73.2 79.06 55.88 102.31 44.62 106.83 32.78 116.97 32.78 152.75 33.12 152.56 33.12 117.81"/></g></g></g></svg>