<svg xmlns="http://www.w3.org/2000/svg" xmlns:xlink="http://www.w3.org/1999/xlink" viewBox="0 0 115.99 155.74"><defs><style>.cls-1{fill:url(#linear-gradient);}.cls-2{mask:url(#mask);filter:url(#luminosity-noclip-9);}.cls-11,.cls-13,.cls-15,.cls-17,.cls-3,.cls-5,.cls-7,.cls-9{mix-blend-mode:multiply;}.cls-3{fill:url(#linear-gradient-2);}.cls-4{mask:url(#mask-2);filter:url(#luminosity-noclip-14);}.cls-5{fill:url(#linear-gradient-3);}.cls-6,.cls-8{mask:url(#mask-3);}.cls-6{filter:url(#luminosity-noclip-15);}.cls-7{fill:url(#linear-gradient-4);}.cls-8{filter:url(#luminosity-noclip-16);}.cls-9{fill:url(#linear-gradient-5);}.cls-10,.cls-14{mask:url(#mask-5);}.cls-10{filter:url(#luminosity-noclip-10);}.cls-11{fill:url(#linear-gradient-6);}.cls-12{mask:url(#mask-6);filter:url(#luminosity-noclip-11);}.cls-13{fill:url(#linear-gradient-7);}.cls-14{filter:url(#luminosity-noclip-12);}.cls-15{fill:url(#linear-gradient-8);}.cls-16{mask:url(#mask-8);filter:url(#luminosity-noclip-13);}.cls-17{fill:url(#linear-gradient-9);}.cls-18{isolation:isolate;}.cls-19{mask:url(#mask-9);}.cls-20{mix-blend-mode:screen;}.cls-21{fill:#1e3480;}.cls-22{mask:url(#mask-10);}.cls-23{fill:url(#Degradado_sin_nombre_79);}.cls-24,.cls-29,.cls-36,.cls-43,.cls-50,.cls-57,.cls-64,.cls-71,.cls-78{mix-blend-mode:color-dodge;}.cls-25{fill:url(#linear-gradient-10);}.cls-26{fill:url(#Degradado_sin_nombre_72);}.cls-27{fill:url(#Degradado_sin_nombre_32);}.cls-28{fill:url(#Degradado_sin_nombre_95);}.cls-29{fill:url(#radial-gradient);}.cls-30{mask:url(#mask-11);}.cls-31{fill:url(#Degradado_sin_nombre_79-2);}.cls-32{fill:url(#linear-gradient-11);}.cls-33{fill:url(#Degradado_sin_nombre_72-2);}.cls-34{fill:url(#Degradado_sin_nombre_32-2);}.cls-35{fill:url(#Degradado_sin_nombre_95-2);}.cls-36{fill:url(#radial-gradient-2);}.cls-37{mask:url(#mask-12);}.cls-38{fill:url(#Degradado_sin_nombre_79-3);}.cls-39{fill:url(#linear-gradient-12);}.cls-40{fill:url(#Degradado_sin_nombre_72-3);}.cls-41{fill:url(#Degradado_sin_nombre_32-3);}.cls-42{fill:url(#Degradado_sin_nombre_95-3);}.cls-43{fill:url(#radial-gradient-3);}.cls-44{mask:url(#mask-13);}.cls-45{fill:url(#Degradado_sin_nombre_79-4);}.cls-46{fill:url(#linear-gradient-13);}.cls-47{fill:url(#Degradado_sin_nombre_72-4);}.cls-48{fill:url(#Degradado_sin_nombre_32-4);}.cls-49{fill:url(#Degradado_sin_nombre_95-4);}.cls-50{fill:url(#radial-gradient-4);}.cls-51{mask:url(#mask-14);}.cls-52{fill:url(#Degradado_sin_nombre_79-5);}.cls-53{fill:url(#linear-gradient-14);}.cls-54{fill:url(#Degradado_sin_nombre_72-5);}.cls-55{fill:url(#Degradado_sin_nombre_32-5);}.cls-56{fill:url(#Degradado_sin_nombre_95-5);}.cls-57{fill:url(#radial-gradient-5);}.cls-58{mask:url(#mask-15);}.cls-59{fill:url(#Degradado_sin_nombre_79-6);}.cls-60{fill:url(#linear-gradient-15);}.cls-61{fill:url(#Degradado_sin_nombre_72-6);}.cls-62{fill:url(#Degradado_sin_nombre_32-6);}.cls-63{fill:url(#Degradado_sin_nombre_95-6);}.cls-64{fill:url(#radial-gradient-6);}.cls-65{mask:url(#mask-16);}.cls-66{fill:url(#Degradado_sin_nombre_79-7);}.cls-67{fill:url(#linear-gradient-16);}.cls-68{fill:url(#Degradado_sin_nombre_72-7);}.cls-69{fill:url(#Degradado_sin_nombre_32-7);}.cls-70{fill:url(#Degradado_sin_nombre_95-7);}.cls-71{fill:url(#radial-gradient-7);}.cls-72{mask:url(#mask-17);}.cls-73{fill:url(#Degradado_sin_nombre_79-8);}.cls-74{fill:url(#linear-gradient-17);}.cls-75{fill:url(#Degradado_sin_nombre_72-8);}.cls-76{fill:url(#Degradado_sin_nombre_32-8);}.cls-77{fill:url(#Degradado_sin_nombre_95-8);}.cls-78{fill:url(#radial-gradient-8);}.cls-79{filter:url(#luminosity-noclip-8);}.cls-80{filter:url(#luminosity-noclip-6);}.cls-81{filter:url(#luminosity-noclip-5);}.cls-82{filter:url(#luminosity-noclip-3);}.cls-83{filter:url(#luminosity-noclip-2);}.cls-84{filter:url(#luminosity-noclip);}</style><linearGradient id="linear-gradient" x1="38.98" y1="8.98" x2="78.77" y2="131.82" gradientTransform="translate(122.84 156.53) rotate(-180)" gradientUnits="userSpaceOnUse"><stop offset="0.39" stop-color="#fff"/><stop offset="0.45" stop-color="#f5f4f5"/><stop offset="0.57" stop-color="#d8d8d9"/><stop offset="0.71" stop-color="#abaaab"/><stop offset="0.89" stop-color="#6c6c6d"/><stop offset="1" stop-color="#414042"/></linearGradient><filter id="luminosity-noclip" x="10.2" y="-8348.11" width="91.14" height="32766" filterUnits="userSpaceOnUse" color-interpolation-filters="sRGB"><feFlood flood-color="#fff" result="bg"/><feBlend in="SourceGraphic" in2="bg"/></filter><mask id="mask" x="10.2" y="-8348.11" width="91.14" height="32766" maskUnits="userSpaceOnUse"><g class="cls-84"/></mask><linearGradient id="linear-gradient-2" x1="7.82" y1="101.89" x2="101.67" y2="49.1" gradientUnits="userSpaceOnUse"><stop offset="0" stop-color="#333"/><stop offset="1" stop-color="#fff"/></linearGradient><filter id="luminosity-noclip-2" x="10.2" y="-8348.11" width="63.98" height="32766" filterUnits="userSpaceOnUse" color-interpolation-filters="sRGB"><feFlood flood-color="#fff" result="bg"/><feBlend in="SourceGraphic" in2="bg"/></filter><mask id="mask-2" x="10.2" y="-8348.11" width="63.98" height="32766" maskUnits="userSpaceOnUse"><g class="cls-83"/></mask><linearGradient id="linear-gradient-3" x1="8.18" y1="139.33" x2="74.74" y2="101.89" gradientUnits="userSpaceOnUse"><stop offset="0" stop-color="#333"/><stop offset="1" stop-color="#ccc"/></linearGradient><filter id="luminosity-noclip-3" x="10.2" y="-8348.11" width="78.5" height="32766" filterUnits="userSpaceOnUse" color-interpolation-filters="sRGB"><feFlood flood-color="#fff" result="bg"/><feBlend in="SourceGraphic" in2="bg"/></filter><mask id="mask-3" x="10.2" y="-8348.11" width="78.5" height="32766" maskUnits="userSpaceOnUse"><g class="cls-82"/></mask><linearGradient id="linear-gradient-4" x1="8" y1="126.88" x2="89.13" y2="81.24" xlink:href="#linear-gradient-3"/><linearGradient id="linear-gradient-5" x1="8" y1="114.38" x2="89.13" y2="68.74" xlink:href="#linear-gradient-3"/><filter id="luminosity-noclip-5" x="10.2" y="-8348.11" width="61.07" height="32766" filterUnits="userSpaceOnUse" color-interpolation-filters="sRGB"><feFlood flood-color="#fff" result="bg"/><feBlend in="SourceGraphic" in2="bg"/></filter><mask id="mask-5" x="10.2" y="-8348.11" width="61.07" height="32766" maskUnits="userSpaceOnUse"><g class="cls-81"/></mask><linearGradient id="linear-gradient-6" x1="8.23" y1="89.36" x2="71.85" y2="53.57" xlink:href="#linear-gradient-3"/><filter id="luminosity-noclip-6" x="10.2" y="-8348.11" width="50.23" height="32766" filterUnits="userSpaceOnUse" color-interpolation-filters="sRGB"><feFlood flood-color="#fff" result="bg"/><feBlend in="SourceGraphic" in2="bg"/></filter><mask id="mask-6" x="10.2" y="-8348.11" width="50.23" height="32766" maskUnits="userSpaceOnUse"><g class="cls-80"/></mask><linearGradient id="linear-gradient-7" x1="8.38" y1="76.84" x2="61.09" y2="47.19" xlink:href="#linear-gradient-3"/><linearGradient id="linear-gradient-8" x1="8.23" y1="64.36" x2="71.85" y2="28.57" xlink:href="#linear-gradient-3"/><filter id="luminosity-noclip-8" x="10.2" y="-8348.11" width="49.23" height="32766" filterUnits="userSpaceOnUse" color-interpolation-filters="sRGB"><feFlood flood-color="#fff" result="bg"/><feBlend in="SourceGraphic" in2="bg"/></filter><mask id="mask-8" x="10.2" y="-8348.11" width="49.23" height="32766" maskUnits="userSpaceOnUse"><g class="cls-79"/></mask><linearGradient id="linear-gradient-9" x1="8.4" y1="151.84" x2="60.1" y2="122.76" xlink:href="#linear-gradient-3"/><mask id="mask-9" x="-7.02" y="-8.78" width="136.88" height="174.08" maskUnits="userSpaceOnUse"><rect class="cls-1" x="-7.02" y="-8.78" width="136.88" height="174.08" transform="translate(122.84 156.53) rotate(180)"/></mask><filter id="luminosity-noclip-9" x="10.2" y="46.11" width="91.14" height="57.61" filterUnits="userSpaceOnUse" color-interpolation-filters="sRGB"><feFlood flood-color="#fff" result="bg"/><feBlend in="SourceGraphic" in2="bg"/></filter><mask id="mask-10" x="10.2" y="46.11" width="91.14" height="57.61" maskUnits="userSpaceOnUse"><g class="cls-2"><polygon class="cls-3" points="101.33 51.09 10.2 103.72 10.2 98.75 101.33 46.11 101.33 51.09"/></g></mask><linearGradient id="Degradado_sin_nombre_79" x1="7.82" y1="101.89" x2="101.67" y2="49.1" gradientUnits="userSpaceOnUse"><stop offset="0" stop-color="#1e3480"/><stop offset="1" stop-color="#1e34e7"/></linearGradient><linearGradient id="linear-gradient-10" x1="2622.21" y1="8835.01" x2="2511.54" y2="8896.32" gradientTransform="translate(-2391.64 -8838.59) rotate(0.45)" gradientUnits="userSpaceOnUse"><stop offset="0" stop-color="#271273"/><stop offset="0.14" stop-color="#1f0e5c"/><stop offset="0.4" stop-color="#120834"/><stop offset="0.64" stop-color="#080418"/><stop offset="0.85" stop-color="#020106"/><stop offset="1"/></linearGradient><linearGradient id="Degradado_sin_nombre_72" x1="2588.24" y1="8853.01" x2="2511.37" y2="8896.7" gradientTransform="translate(-2391.64 -8838.59) rotate(0.45)" gradientUnits="userSpaceOnUse"><stop offset="0" stop-color="#1e3480"/><stop offset="0.25" stop-color="#152459"/><stop offset="0.59" stop-color="#0a1129"/><stop offset="0.85" stop-color="#03050b"/><stop offset="1"/></linearGradient><linearGradient id="Degradado_sin_nombre_32" x1="2559.2" y1="8869.26" x2="2511.68" y2="8896.96" gradientTransform="translate(-2391.64 -8838.59) rotate(0.45)" gradientUnits="userSpaceOnUse"><stop offset="0" stop-color="#5de7e5"/><stop offset="0.28" stop-color="#42a3a1"/><stop offset="0.78" stop-color="#132f2e"/><stop offset="1"/></linearGradient><linearGradient id="Degradado_sin_nombre_95" x1="93.65" y1="54.43" x2="102.23" y2="47.93" gradientUnits="userSpaceOnUse"><stop offset="0.1" stop-color="#1e3480"/><stop offset="0.3" stop-color="#1e34a5"/><stop offset="0.54" stop-color="#1e34d6"/><stop offset="1" stop-color="#1e34ee"/></linearGradient><radialGradient id="radial-gradient" cx="101.41" cy="47.8" r="3.03" gradientUnits="userSpaceOnUse"><stop offset="0" stop-color="#fff"/><stop offset="1"/></radialGradient><filter id="luminosity-noclip-10" x="10.2" y="50.92" width="61.07" height="40.3" filterUnits="userSpaceOnUse" color-interpolation-filters="sRGB"><feFlood flood-color="#fff" result="bg"/><feBlend in="SourceGraphic" in2="bg"/></filter><mask id="mask-11" x="10.2" y="50.92" width="61.07" height="40.3" maskUnits="userSpaceOnUse"><g class="cls-10"><polygon class="cls-11" points="71.27 55.9 10.2 91.22 10.2 86.25 71.27 50.92 71.27 55.9"/></g></mask><linearGradient id="Degradado_sin_nombre_79-2" x1="8.23" y1="89.36" x2="71.85" y2="53.57" xlink:href="#Degradado_sin_nombre_79"/><linearGradient id="linear-gradient-11" x1="2575.67" y1="8848.95" x2="2495.36" y2="8893.44" xlink:href="#linear-gradient-10"/><linearGradient id="Degradado_sin_nombre_72-2" x1="2549.98" y1="8862.59" x2="2495.94" y2="8893.31" xlink:href="#Degradado_sin_nombre_72"/><linearGradient id="Degradado_sin_nombre_32-2" x1="2529.16" y1="8874.32" x2="2497" y2="8893.06" xlink:href="#Degradado_sin_nombre_32"/><linearGradient id="Degradado_sin_nombre_95-2" x1="63.58" y1="59.25" x2="72.17" y2="52.75" xlink:href="#Degradado_sin_nombre_95"/><radialGradient id="radial-gradient-2" cx="71.34" cy="52.61" r="3.03" xlink:href="#radial-gradient"/><filter id="luminosity-noclip-11" x="10.2" y="44.66" width="50.23" height="34.06" filterUnits="userSpaceOnUse" color-interpolation-filters="sRGB"><feFlood flood-color="#fff" result="bg"/><feBlend in="SourceGraphic" in2="bg"/></filter><mask id="mask-12" x="10.2" y="44.66" width="50.23" height="34.06" maskUnits="userSpaceOnUse"><g class="cls-12"><polygon class="cls-13" points="60.43 49.64 10.2 78.72 10.2 73.75 60.43 44.66 60.43 49.64"/></g></mask><linearGradient id="Degradado_sin_nombre_79-3" x1="8.38" y1="76.84" x2="61.09" y2="47.19" xlink:href="#Degradado_sin_nombre_79"/><linearGradient id="linear-gradient-12" x1="2564.38" y1="8842.92" x2="2484.06" y2="8887.4" xlink:href="#linear-gradient-10"/><linearGradient id="Degradado_sin_nombre_72-3" x1="2538.69" y1="8856.56" x2="2484.64" y2="8887.27" xlink:href="#Degradado_sin_nombre_72"/><linearGradient id="Degradado_sin_nombre_32-3" x1="2517.86" y1="8868.28" x2="2485.71" y2="8887.03" xlink:href="#Degradado_sin_nombre_32"/><linearGradient id="Degradado_sin_nombre_95-3" x1="52.33" y1="53.12" x2="60.92" y2="46.62" xlink:href="#Degradado_sin_nombre_95"/><radialGradient id="radial-gradient-3" cx="60.09" cy="46.48" r="3.03" xlink:href="#radial-gradient"/><filter id="luminosity-noclip-12" x="10.2" y="25.92" width="61.07" height="40.3" filterUnits="userSpaceOnUse" color-interpolation-filters="sRGB"><feFlood flood-color="#fff" result="bg"/><feBlend in="SourceGraphic" in2="bg"/></filter><mask id="mask-13" x="10.2" y="25.92" width="61.07" height="40.3" maskUnits="userSpaceOnUse"><g class="cls-14"><polygon class="cls-15" points="71.27 30.9 10.2 66.22 10.2 61.25 71.27 25.92 71.27 30.9"/></g></mask><linearGradient id="Degradado_sin_nombre_79-4" x1="8.23" y1="64.36" x2="71.85" y2="28.57" xlink:href="#Degradado_sin_nombre_79"/><linearGradient id="linear-gradient-13" x1="2575.48" y1="8823.95" x2="2495.17" y2="8868.44" xlink:href="#linear-gradient-10"/><linearGradient id="Degradado_sin_nombre_72-4" x1="2549.79" y1="8837.6" x2="2495.74" y2="8868.31" xlink:href="#Degradado_sin_nombre_72"/><linearGradient id="Degradado_sin_nombre_32-4" x1="2528.96" y1="8849.32" x2="2496.81" y2="8868.07" xlink:href="#Degradado_sin_nombre_32"/><linearGradient id="Degradado_sin_nombre_95-4" x1="63.58" y1="34.25" x2="72.17" y2="27.75" xlink:href="#Degradado_sin_nombre_95"/><radialGradient id="radial-gradient-4" cx="71.34" cy="27.61" r="3.03" xlink:href="#radial-gradient"/><filter id="luminosity-noclip-13" x="10.2" y="120.25" width="49.23" height="33.47" filterUnits="userSpaceOnUse" color-interpolation-filters="sRGB"><feFlood flood-color="#fff" result="bg"/><feBlend in="SourceGraphic" in2="bg"/></filter><mask id="mask-14" x="10.2" y="120.25" width="49.23" height="33.47" maskUnits="userSpaceOnUse"><g class="cls-16"><polygon class="cls-17" points="59.43 125.22 10.2 153.72 10.2 148.75 59.43 120.25 59.43 125.22"/></g></mask><linearGradient id="Degradado_sin_nombre_79-5" x1="8.4" y1="151.84" x2="60.1" y2="122.76" xlink:href="#Degradado_sin_nombre_79"/><linearGradient id="linear-gradient-14" x1="2566.85" y1="8916.83" x2="2480.75" y2="8964.52" xlink:href="#linear-gradient-10"/><linearGradient id="Degradado_sin_nombre_72-5" x1="2539.58" y1="8931.3" x2="2481.18" y2="8964.49" xlink:href="#Degradado_sin_nombre_72"/><linearGradient id="Degradado_sin_nombre_32-5" x1="2517.19" y1="8943.89" x2="2482.1" y2="8964.34" xlink:href="#Degradado_sin_nombre_32"/><linearGradient id="Degradado_sin_nombre_95-5" x1="51.07" y1="128.73" x2="59.65" y2="122.23" xlink:href="#Degradado_sin_nombre_95"/><radialGradient id="radial-gradient-5" cx="58.83" cy="122.09" r="3.03" xlink:href="#radial-gradient"/><filter id="luminosity-noclip-14" x="10.2" y="99.19" width="63.98" height="42.04" filterUnits="userSpaceOnUse" color-interpolation-filters="sRGB"><feFlood flood-color="#fff" result="bg"/><feBlend in="SourceGraphic" in2="bg"/></filter><mask id="mask-15" x="10.2" y="99.19" width="63.98" height="42.04" maskUnits="userSpaceOnUse"><g class="cls-4"><polygon class="cls-5" points="74.18 104.16 10.2 141.22 10.2 136.25 74.18 99.19 74.18 104.16"/></g></mask><linearGradient id="Degradado_sin_nombre_79-6" x1="8.18" y1="139.33" x2="74.74" y2="101.89" xlink:href="#Degradado_sin_nombre_79"/><linearGradient id="linear-gradient-15" x1="2582.12" y1="8895.39" x2="2496.02" y2="8943.09" xlink:href="#linear-gradient-10"/><linearGradient id="Degradado_sin_nombre_72-6" x1="2554.85" y1="8909.87" x2="2496.45" y2="8943.06" xlink:href="#Degradado_sin_nombre_72"/><linearGradient id="Degradado_sin_nombre_32-6" x1="2532.46" y1="8922.46" x2="2497.37" y2="8942.91" xlink:href="#Degradado_sin_nombre_32"/><linearGradient id="Degradado_sin_nombre_95-6" x1="66.5" y1="107.42" x2="75.09" y2="100.92" xlink:href="#Degradado_sin_nombre_95"/><radialGradient id="radial-gradient-6" cx="74.27" cy="100.78" r="3.03" xlink:href="#radial-gradient"/><filter id="luminosity-noclip-15" x="10.2" y="78.4" width="78.5" height="50.32" filterUnits="userSpaceOnUse" color-interpolation-filters="sRGB"><feFlood flood-color="#fff" result="bg"/><feBlend in="SourceGraphic" in2="bg"/></filter><mask id="mask-16" x="10.2" y="78.4" width="78.5" height="50.32" maskUnits="userSpaceOnUse"><g class="cls-6"><polygon class="cls-7" points="88.69 83.38 10.2 128.72 10.2 123.75 88.69 78.4 88.69 83.38"/></g></mask><linearGradient id="Degradado_sin_nombre_79-7" x1="8" y1="126.88" x2="89.13" y2="81.24" xlink:href="#Degradado_sin_nombre_79"/><linearGradient id="linear-gradient-16" x1="2596.46" y1="8874.59" x2="2510.35" y2="8922.29" xlink:href="#linear-gradient-10"/><linearGradient id="Degradado_sin_nombre_72-7" x1="2569.18" y1="8889.07" x2="2510.79" y2="8922.26" xlink:href="#Degradado_sin_nombre_72"/><linearGradient id="Degradado_sin_nombre_32-7" x1="2546.8" y1="8901.66" x2="2511.71" y2="8922.11" xlink:href="#Degradado_sin_nombre_32"/><linearGradient id="Degradado_sin_nombre_95-7" x1="81" y1="86.73" x2="89.59" y2="80.23" xlink:href="#Degradado_sin_nombre_95"/><radialGradient id="radial-gradient-7" cx="88.77" cy="80.09" r="3.03" xlink:href="#radial-gradient"/><filter id="luminosity-noclip-16" x="10.2" y="65.9" width="78.5" height="50.32" filterUnits="userSpaceOnUse" color-interpolation-filters="sRGB"><feFlood flood-color="#fff" result="bg"/><feBlend in="SourceGraphic" in2="bg"/></filter><mask id="mask-17" x="10.2" y="65.9" width="78.5" height="50.32" maskUnits="userSpaceOnUse"><g class="cls-8"><polygon class="cls-9" points="88.69 70.88 10.2 116.22 10.2 111.25 88.69 65.9 88.69 70.88"/></g></mask><linearGradient id="Degradado_sin_nombre_79-8" x1="8" y1="114.38" x2="89.13" y2="68.74" xlink:href="#Degradado_sin_nombre_79"/><linearGradient id="linear-gradient-17" x1="2596.36" y1="8862.1" x2="2510.26" y2="8909.79" xlink:href="#linear-gradient-10"/><linearGradient id="Degradado_sin_nombre_72-8" x1="2569.09" y1="8876.57" x2="2510.69" y2="8909.76" xlink:href="#Degradado_sin_nombre_72"/><linearGradient id="Degradado_sin_nombre_32-8" x1="2546.7" y1="8889.16" x2="2511.61" y2="8909.61" xlink:href="#Degradado_sin_nombre_32"/><linearGradient id="Degradado_sin_nombre_95-8" x1="81" y1="74.23" x2="89.59" y2="67.73" xlink:href="#Degradado_sin_nombre_95"/><radialGradient id="radial-gradient-8" cx="88.77" cy="67.59" r="3.03" xlink:href="#radial-gradient"/></defs><title>Recurso 2</title><g class="cls-18"><g id="Capa_2" data-name="Capa 2"><g id="Layer_1" data-name="Layer 1"><g class="cls-19"><g class="cls-20"><path class="cls-21" d="M.65,69.92l1.72-5.27L.11,66v-.7l3-1.74v.56L1.4,69.49Z"/><path class="cls-21" d="M6.74,63.91a5.27,5.27,0,0,1-.37,2.14,2.59,2.59,0,0,1-1.11,1.28c-.49.28-.85.27-1.1,0a2.7,2.7,0,0,1-.38-1.69,5.31,5.31,0,0,1,.37-2.16,2.57,2.57,0,0,1,1.11-1.27c.49-.28.85-.28,1.1,0A2.73,2.73,0,0,1,6.74,63.91Zm-2.25,1.3a3.28,3.28,0,0,0,.18,1.35c.12.22.32.26.59.1a1.38,1.38,0,0,0,.59-.78A5.28,5.28,0,0,0,6,64.32,3.34,3.34,0,0,0,5.85,63c-.13-.23-.32-.26-.59-.11a1.34,1.34,0,0,0-.59.78A5.27,5.27,0,0,0,4.49,65.21Z"/><path class="cls-21" d="M.17,80.67a4.37,4.37,0,0,1,2.08-4.13,2.62,2.62,0,0,1,.55-.26V77a1.83,1.83,0,0,0-.52.22,2.69,2.69,0,0,0-1,1,3.43,3.43,0,0,0-.39,1.6l0,0a2.16,2.16,0,0,1,.39-.65,2.22,2.22,0,0,1,.6-.5c.39-.23.7-.27.92-.12a1.1,1.1,0,0,1,.33.94,3,3,0,0,1-.38,1.47A2.86,2.86,0,0,1,1.7,82a1.27,1.27,0,0,1-.82.21.72.72,0,0,1-.53-.45A2.57,2.57,0,0,1,.17,80.67Zm1.51.66a1.39,1.39,0,0,0,.56-.59,1.86,1.86,0,0,0,.19-.87.69.69,0,0,0-.18-.57c-.12-.1-.3-.07-.55.07a1.7,1.7,0,0,0-.42.35,2.41,2.41,0,0,0-.3.48,1.23,1.23,0,0,0-.11.46.87.87,0,0,0,.23.68A.46.46,0,0,0,1.68,81.33Z"/><path class="cls-21" d="M6.74,76.51a5.27,5.27,0,0,1-.37,2.14,2.59,2.59,0,0,1-1.11,1.28c-.49.28-.85.27-1.1,0a2.7,2.7,0,0,1-.38-1.69,5.27,5.27,0,0,1,.37-2.16,2.57,2.57,0,0,1,1.11-1.27c.49-.28.85-.28,1.1,0A2.79,2.79,0,0,1,6.74,76.51Zm-2.25,1.3a3.28,3.28,0,0,0,.18,1.35c.12.22.32.26.59.1a1.38,1.38,0,0,0,.59-.78A5.28,5.28,0,0,0,6,76.92a3.34,3.34,0,0,0-.18-1.35c-.13-.23-.32-.26-.59-.11a1.31,1.31,0,0,0-.59.78A5.27,5.27,0,0,0,4.49,77.81Z"/><path class="cls-21" d="M1.63,91.44a1.18,1.18,0,0,1,1-.21q.39.18.39.87a2.76,2.76,0,0,1-.44,1.5,3.42,3.42,0,0,1-1.24,1.17,2.24,2.24,0,0,1-1.15.39v-.73a1.46,1.46,0,0,0,.56-.07,3.38,3.38,0,0,0,.58-.25,2.1,2.1,0,0,0,.72-.66,1.59,1.59,0,0,0,.25-.85c0-.6-.34-.71-1-.33L1,92.51a4.15,4.15,0,0,0-.36.28l-.32,0,.17-2.54,2.26-1.31v.72l-1.64,1L1,91.87l.25-.19A2.38,2.38,0,0,1,1.63,91.44Z"/><path class="cls-21" d="M6.74,89.11a5.27,5.27,0,0,1-.37,2.14,2.59,2.59,0,0,1-1.11,1.28c-.49.28-.85.28-1.1,0a2.75,2.75,0,0,1-.38-1.7,5.34,5.34,0,0,1,.37-2.16,2.57,2.57,0,0,1,1.11-1.27c.49-.28.85-.28,1.1,0A2.73,2.73,0,0,1,6.74,89.11Zm-2.25,1.3a3.28,3.28,0,0,0,.18,1.35c.12.22.32.26.59.1a1.38,1.38,0,0,0,.59-.78A5.28,5.28,0,0,0,6,89.52a3.34,3.34,0,0,0-.18-1.35c-.13-.23-.32-.26-.59-.11a1.34,1.34,0,0,0-.59.78A5.27,5.27,0,0,0,4.49,90.41Z"/><path class="cls-21" d="M3.26,105.13l-.59.34v1.09L2,107v-1.09L0,107v-.62l2-4.45.68-.4v3.26l.59-.34ZM2,105.19v-1.25c0-.45,0-.82,0-1.12l0,0c-.06.18-.15.41-.27.7L.65,106Z"/><path class="cls-21" d="M6.74,101.71a5.27,5.27,0,0,1-.37,2.14,2.59,2.59,0,0,1-1.11,1.28c-.49.28-.85.27-1.1,0a2.7,2.7,0,0,1-.38-1.69,5.27,5.27,0,0,1,.37-2.16A2.57,2.57,0,0,1,5.26,100c.49-.28.85-.28,1.1,0A2.79,2.79,0,0,1,6.74,101.71ZM4.49,103a3.28,3.28,0,0,0,.18,1.35c.12.22.32.26.59.1a1.38,1.38,0,0,0,.59-.78A5.28,5.28,0,0,0,6,102.12a3.34,3.34,0,0,0-.18-1.35c-.13-.23-.32-.26-.59-.11a1.31,1.31,0,0,0-.59.78A5.27,5.27,0,0,0,4.49,103Z"/><path class="cls-21" d="M2.94,115.15a2,2,0,0,1-.24.93,2.64,2.64,0,0,1-.68.82v0a.92.92,0,0,1,.79-.08.68.68,0,0,1,.26.64,2.36,2.36,0,0,1-.45,1.37A3.65,3.65,0,0,1,1.36,120a2.88,2.88,0,0,1-1.22.44v-.72a1.83,1.83,0,0,0,.59-.1,2.75,2.75,0,0,0,.59-.25,2.51,2.51,0,0,0,.76-.65,1.42,1.42,0,0,0,.25-.82c0-.26-.09-.41-.28-.42a1.69,1.69,0,0,0-.87.31L.8,118v-.65l.39-.23a1.7,1.7,0,0,0,1-1.42c0-.22-.06-.35-.18-.4a.72.72,0,0,0-.54.14,2.49,2.49,0,0,0-.47.35,4.76,4.76,0,0,0-.54.63l-.35-.36a4.41,4.41,0,0,1,1.39-1.31,1.46,1.46,0,0,1,1-.27C2.82,114.54,2.94,114.77,2.94,115.15Z"/><path class="cls-21" d="M6.74,114.31a5.27,5.27,0,0,1-.37,2.14,2.59,2.59,0,0,1-1.11,1.28c-.49.28-.85.28-1.1,0a2.75,2.75,0,0,1-.38-1.7,5.34,5.34,0,0,1,.37-2.16,2.61,2.61,0,0,1,1.11-1.27c.49-.28.85-.28,1.1,0A2.73,2.73,0,0,1,6.74,114.31Zm-2.25,1.3A3.28,3.28,0,0,0,4.67,117c.12.22.32.26.59.1a1.38,1.38,0,0,0,.59-.78A5.28,5.28,0,0,0,6,114.72a3.34,3.34,0,0,0-.18-1.35c-.13-.23-.32-.26-.59-.11a1.34,1.34,0,0,0-.59.78A5.27,5.27,0,0,0,4.49,115.61Z"/><path class="cls-21" d="M3.1,131.51l-2.95,1.7v-.61l1.13-1.94c.33-.58.55-1,.66-1.21a5.42,5.42,0,0,0,.23-.6,1.8,1.8,0,0,0,.08-.5c0-.23-.06-.37-.18-.43a.52.52,0,0,0-.49.08,2.16,2.16,0,0,0-.48.39,4.88,4.88,0,0,0-.55.7l-.37-.32a5.53,5.53,0,0,1,.7-.9,3.52,3.52,0,0,1,.73-.57,1.17,1.17,0,0,1,1-.2c.24.1.36.36.36.77a2.52,2.52,0,0,1-.1.7,4.68,4.68,0,0,1-.33.82c-.14.3-.39.73-.73,1.29L1,132v0L3.1,130.8Z"/><path class="cls-21" d="M6.74,126.91a5.27,5.27,0,0,1-.37,2.14,2.59,2.59,0,0,1-1.11,1.28c-.49.28-.85.27-1.1,0a2.7,2.7,0,0,1-.38-1.69,5.31,5.31,0,0,1,.37-2.16,2.57,2.57,0,0,1,1.11-1.27c.49-.28.85-.28,1.1,0A2.73,2.73,0,0,1,6.74,126.91Zm-2.25,1.3a3.28,3.28,0,0,0,.18,1.35c.12.22.32.26.59.1a1.38,1.38,0,0,0,.59-.78A5.28,5.28,0,0,0,6,127.32,3.34,3.34,0,0,0,5.85,126c-.13-.23-.32-.26-.59-.11a1.34,1.34,0,0,0-.59.78A5.27,5.27,0,0,0,4.49,128.21Z"/><path class="cls-21" d="M2.21,144.62l-.7.41V141.8c0-.38,0-.69,0-.93a2.33,2.33,0,0,1-.17.28l-.66,1-.36-.3L1.62,140l.59-.33Z"/><path class="cls-21" d="M6.74,139.51a5.27,5.27,0,0,1-.37,2.14,2.59,2.59,0,0,1-1.11,1.28c-.49.28-.85.27-1.1,0a2.7,2.7,0,0,1-.38-1.69,5.27,5.27,0,0,1,.37-2.16,2.57,2.57,0,0,1,1.11-1.27c.49-.28.85-.28,1.1,0A2.79,2.79,0,0,1,6.74,139.51Zm-2.25,1.3a3.28,3.28,0,0,0,.18,1.35c.12.22.32.26.59.1a1.38,1.38,0,0,0,.59-.78A5.28,5.28,0,0,0,6,139.92a3.34,3.34,0,0,0-.18-1.35c-.13-.23-.32-.26-.59-.11a1.31,1.31,0,0,0-.59.78A5.27,5.27,0,0,0,4.49,140.81Z"/><path class="cls-21" d="M6.74,152.11a5.27,5.27,0,0,1-.37,2.14,2.59,2.59,0,0,1-1.11,1.28c-.49.28-.85.27-1.1,0a2.7,2.7,0,0,1-.38-1.69,5.27,5.27,0,0,1,.37-2.16,2.57,2.57,0,0,1,1.11-1.27c.49-.28.85-.28,1.1,0A2.79,2.79,0,0,1,6.74,152.11Zm-2.25,1.3a3.28,3.28,0,0,0,.18,1.35c.13.22.32.26.59.1a1.38,1.38,0,0,0,.59-.78A5.28,5.28,0,0,0,6,152.52a3.34,3.34,0,0,0-.18-1.35c-.13-.23-.32-.26-.59-.11a1.34,1.34,0,0,0-.59.78A5.27,5.27,0,0,0,4.49,153.41Z"/></g><polygon class="cls-21" points="115.99 42.48 10.2 103.72 10.2 98.75 115.99 37.5 115.99 42.48"/><g class="cls-22"><polygon class="cls-23" points="101.33 51.09 10.2 103.72 10.2 98.75 101.33 46.11 101.33 51.09"/></g><g class="cls-24"><path class="cls-25" d="M43.28,79.86l1.94,3.33L66.55,71l34-19.49a1.92,1.92,0,0,0,.7-2.63h0a1.92,1.92,0,0,0-2.62-.71l-34,19.49Z"/><path class="cls-26" d="M46.7,79.27l19-11.15.66-.39,31-18.05a3,3,0,0,1,1.46-.42,1,1,0,0,1,.87.51h0a1,1,0,0,1,0,1.06c0,.27-.75.84-1,1L67.5,69.68l-.78.45L48.89,80.25Z"/><path class="cls-27" d="M50.11,78.69,67.47,68.22l30-17.77a.62.62,0,0,1,.84.22h0a.61.61,0,0,1-.23.84L67.77,68.75Z"/></g><polygon class="cls-28" points="101.41 52.2 98.23 50.39 101.41 44.91 104.58 46.72 101.41 52.2"/><polygon class="cls-29" points="101.7 45.58 104.36 47.1 104.58 46.72 101.41 44.91 98.23 50.39 98.74 50.68 101.7 45.58"/><polygon class="cls-21" points="115.99 29.98 10.2 91.22 10.2 86.25 115.99 25 115.99 29.98"/><g class="cls-30"><polygon class="cls-31" points="71.27 55.9 10.2 91.22 10.2 86.25 71.27 50.92 71.27 55.9"/></g><g class="cls-24"><path class="cls-32" d="M28.85,75.67,30.78,79,52.11,66.81,70.46,56.32a1.93,1.93,0,0,0,.7-2.63h0a1.93,1.93,0,0,0-2.63-.7L50.18,63.48Z"/><path class="cls-33" d="M32.26,75.09,51.31,63.93l.66-.39,15.39-9a3.08,3.08,0,0,1,1.47-.42,1,1,0,0,1,.87.52h0a1,1,0,0,1,0,1c0,.28-.75.84-1,1L53.06,65.49l-.78.45L34.46,76.06Z"/><path class="cls-34" d="M35.67,74.5,53,64,67.4,55.26a.62.62,0,0,1,.84.22h0a.62.62,0,0,1-.22.85L53.34,64.56Z"/></g><polygon class="cls-35" points="71.34 57.01 68.17 55.2 71.34 49.73 74.52 51.54 71.34 57.01"/><polygon class="cls-36" points="71.64 50.39 74.3 51.91 74.52 51.54 71.34 49.73 68.17 55.2 68.68 55.49 71.64 50.39"/><polygon class="cls-21" points="115.99 17.48 10.2 78.72 10.2 73.75 115.99 12.5 115.99 17.48"/><g class="cls-37"><polygon class="cls-38" points="60.43 49.64 10.2 78.72 10.2 73.75 60.43 44.66 60.43 49.64"/></g><g class="cls-24"><path class="cls-39" d="M17.6,69.55l1.93,3.33,21.33-12.2L59.21,50.2a1.94,1.94,0,0,0,.7-2.64h0a1.93,1.93,0,0,0-2.63-.7L38.93,57.35Z"/><path class="cls-40" d="M21,69,40.06,57.8l.66-.38,15.39-9.06c.28-.15,1.2-.53,1.47-.41a1,1,0,0,1,.87.51h0a1,1,0,0,1,0,1c-.05.28-.75.84-1,1L41.81,59.37l-.78.45L23.21,69.93Z"/><path class="cls-41" d="M24.42,68.38,41.78,57.9l14.37-8.76a.62.62,0,0,1,.84.22h0a.61.61,0,0,1-.22.84L42.09,58.44Z"/></g><polygon class="cls-42" points="60.09 50.89 56.92 49.08 60.09 43.6 63.27 45.41 60.09 50.89"/><polygon class="cls-43" points="60.39 44.27 63.05 45.79 63.27 45.41 60.09 43.6 56.92 49.08 57.43 49.37 60.39 44.27"/><polygon class="cls-21" points="115.99 4.97 10.2 66.22 10.2 61.25 115.99 0 115.99 4.97"/><g class="cls-44"><polygon class="cls-45" points="71.27 30.9 10.2 66.22 10.2 61.25 71.27 25.92 71.27 30.9"/></g><g class="cls-24"><path class="cls-46" d="M28.85,50.67,30.78,54,52.11,41.81,70.46,31.32a1.93,1.93,0,0,0,.7-2.63h0a1.93,1.93,0,0,0-2.63-.7L50.18,38.48Z"/><path class="cls-47" d="M32.26,50.09,51.31,38.93l.66-.39,15.39-9a3.08,3.08,0,0,1,1.47-.42,1,1,0,0,1,.87.52h0a1,1,0,0,1,0,1.05c0,.28-.75.84-1,1L53.06,40.49l-.78.45L34.46,51.06Z"/><path class="cls-48" d="M35.67,49.5,53,39,67.4,30.26a.62.62,0,0,1,.84.22h0a.62.62,0,0,1-.22.85L53.34,39.56Z"/></g><polygon class="cls-49" points="71.34 32.01 68.17 30.2 71.34 24.73 74.52 26.54 71.34 32.01"/><polygon class="cls-50" points="71.64 25.39 74.3 26.91 74.52 26.54 71.34 24.73 68.17 30.2 68.68 30.49 71.64 25.39"/><polygon class="cls-21" points="115.99 92.47 10.2 153.72 10.2 148.75 115.99 87.5 115.99 92.47"/><g class="cls-51"><polygon class="cls-52" points="59.43 125.22 10.2 153.72 10.2 148.75 59.43 120.25 59.43 125.22"/></g><g class="cls-24"><path class="cls-53" d="M13.35,146.86l1.93,3.33L36.61,138l21.33-12.2a1.92,1.92,0,0,0,.7-2.63h0a1.91,1.91,0,0,0-2.62-.7L34.68,134.66Z"/><path class="cls-54" d="M16.76,146.27l19.05-11.15.66-.39L54.85,124a3,3,0,0,1,1.46-.42,1,1,0,0,1,.88.52h0a1,1,0,0,1,0,1.05c0,.28-.75.84-1,1L37.56,136.68l-.78.45L19,147.25Z"/><path class="cls-55" d="M20.17,145.69l17.36-10.47,17.36-10.48a.61.61,0,0,1,.84.23h0a.61.61,0,0,1-.23.84l-17.66,9.94Z"/></g><polygon class="cls-56" points="58.83 126.49 55.65 124.68 58.83 119.21 62 121.02 58.83 126.49"/><polygon class="cls-57" points="59.12 119.87 61.79 121.39 62 121.02 58.83 119.21 55.65 124.68 56.16 124.97 59.12 119.87"/><polygon class="cls-21" points="115.99 79.97 10.2 141.22 10.2 136.25 115.99 75 115.99 79.97"/><g class="cls-58"><polygon class="cls-59" points="74.18 104.16 10.2 141.22 10.2 136.25 74.18 99.19 74.18 104.16"/></g><g class="cls-24"><path class="cls-60" d="M28.78,125.55l1.94,3.33,21.33-12.2,21.33-12.19a1.92,1.92,0,0,0,.7-2.63h0a1.93,1.93,0,0,0-2.63-.71l-21.33,12.2Z"/><path class="cls-61" d="M32.2,125l19-11.16.66-.38,18.37-10.76a3.08,3.08,0,0,1,1.47-.42,1,1,0,0,1,.87.51h0a1,1,0,0,1,0,1.06c0,.28-.75.84-1,1L53,115.37l-.78.45L34.39,125.93Z"/><path class="cls-62" d="M35.61,124.38,53,113.9l17.36-10.47a.62.62,0,0,1,.84.22h0a.61.61,0,0,1-.23.84l-17.67,10Z"/></g><polygon class="cls-63" points="74.27 105.18 71.09 103.37 74.27 97.89 77.44 99.7 74.27 105.18"/><polygon class="cls-64" points="74.56 98.56 77.22 100.08 77.44 99.7 74.27 97.89 71.09 103.37 71.6 103.66 74.56 98.56"/><polygon class="cls-21" points="115.99 67.47 10.2 128.72 10.2 123.75 115.99 62.5 115.99 67.47"/><g class="cls-65"><polygon class="cls-66" points="88.69 83.38 10.2 128.72 10.2 123.75 88.69 78.4 88.69 83.38"/></g><g class="cls-24"><path class="cls-67" d="M43.28,104.86l1.94,3.33L66.55,96,87.88,83.8a1.92,1.92,0,0,0,.7-2.63h0a1.93,1.93,0,0,0-2.63-.7L64.62,92.66Z"/><path class="cls-68" d="M46.7,104.27l19-11.15.66-.39L84.78,82a3.08,3.08,0,0,1,1.47-.42,1,1,0,0,1,.87.52h0a1,1,0,0,1,0,1.05c0,.28-.75.84-1,1L67.5,94.68l-.78.45L48.89,105.25Z"/><path class="cls-69" d="M50.11,103.69,67.47,93.22,84.83,82.74a.61.61,0,0,1,.84.23h0a.61.61,0,0,1-.23.84L67.77,93.75Z"/></g><polygon class="cls-70" points="88.77 84.49 85.59 82.68 88.77 77.21 91.94 79.02 88.77 84.49"/><polygon class="cls-71" points="89.06 77.87 91.72 79.39 91.94 79.02 88.77 77.21 85.59 82.68 86.1 82.97 89.06 77.87"/><polygon class="cls-21" points="115.99 54.98 10.2 116.22 10.2 111.25 115.99 50 115.99 54.98"/><g class="cls-72"><polygon class="cls-73" points="88.69 70.88 10.2 116.22 10.2 111.25 88.69 65.9 88.69 70.88"/></g><g class="cls-24"><path class="cls-74" d="M43.28,92.36l1.94,3.33L66.55,83.5,87.88,71.3a1.92,1.92,0,0,0,.7-2.63h0A1.93,1.93,0,0,0,86,68L64.62,80.16Z"/><path class="cls-75" d="M46.7,91.77l19-11.15.66-.39L84.78,69.47a3.08,3.08,0,0,1,1.47-.42,1,1,0,0,1,.87.52h0a1,1,0,0,1,0,1.05c0,.28-.75.84-1,1L67.5,82.18l-.78.45L48.89,92.75Z"/><path class="cls-76" d="M50.11,91.19,67.47,80.72,84.83,70.24a.61.61,0,0,1,.84.23h0a.61.61,0,0,1-.23.84L67.77,81.25Z"/></g><polygon class="cls-77" points="88.77 71.99 85.59 70.18 88.77 64.71 91.94 66.52 88.77 71.99"/><polygon class="cls-78" points="89.06 65.37 91.72 66.89 91.94 66.52 88.77 64.71 85.59 70.18 86.1 70.47 89.06 65.37"/></g></g></g></g></svg>