<svg xmlns="http://www.w3.org/2000/svg" xmlns:xlink="http://www.w3.org/1999/xlink" viewBox="0 0 127.81 149.61"><defs><style>.cls-1{fill:url(#linear-gradient);}.cls-2{isolation:isolate;}.cls-3{mask:url(#mask);}.cls-4,.cls-67{mix-blend-mode:color-dodge;}.cls-4{fill:url(#radial-gradient);}.cls-5{mix-blend-mode:screen;}.cls-6{fill:#33076b;}.cls-7{fill:#1e3480;}.cls-10,.cls-11,.cls-12,.cls-13,.cls-14,.cls-15,.cls-16,.cls-17,.cls-18,.cls-19,.cls-20,.cls-21,.cls-22,.cls-23,.cls-24,.cls-25,.cls-26,.cls-27,.cls-28,.cls-29,.cls-30,.cls-31,.cls-32,.cls-33,.cls-34,.cls-35,.cls-36,.cls-37,.cls-38,.cls-39,.cls-40,.cls-41,.cls-42,.cls-43,.cls-44,.cls-45,.cls-46,.cls-47,.cls-48,.cls-49,.cls-50,.cls-51,.cls-52,.cls-53,.cls-54,.cls-55,.cls-56,.cls-57,.cls-58,.cls-59,.cls-60,.cls-61,.cls-62,.cls-63,.cls-64,.cls-65,.cls-66,.cls-8,.cls-9{opacity:0.8;}.cls-8{fill:url(#Degradado_sin_nombre_23);}.cls-9{fill:url(#Degradado_sin_nombre_23-2);}.cls-10{fill:url(#Degradado_sin_nombre_23-3);}.cls-11{fill:url(#Degradado_sin_nombre_23-4);}.cls-12{fill:url(#Degradado_sin_nombre_23-5);}.cls-13{fill:url(#Degradado_sin_nombre_23-6);}.cls-14{fill:url(#Degradado_sin_nombre_23-7);}.cls-15{fill:url(#Degradado_sin_nombre_23-8);}.cls-16{fill:url(#Degradado_sin_nombre_23-9);}.cls-17{fill:url(#Degradado_sin_nombre_23-10);}.cls-18{fill:url(#Degradado_sin_nombre_23-11);}.cls-19{fill:url(#Degradado_sin_nombre_23-12);}.cls-20{fill:url(#Degradado_sin_nombre_23-13);}.cls-21{fill:url(#Degradado_sin_nombre_23-14);}.cls-22{fill:url(#Degradado_sin_nombre_23-15);}.cls-23{fill:url(#Degradado_sin_nombre_23-16);}.cls-24{fill:url(#Degradado_sin_nombre_23-17);}.cls-25{fill:url(#Degradado_sin_nombre_23-18);}.cls-26{fill:url(#Degradado_sin_nombre_23-19);}.cls-27{fill:url(#Degradado_sin_nombre_23-20);}.cls-28{fill:url(#Degradado_sin_nombre_23-21);}.cls-29{fill:url(#Degradado_sin_nombre_23-22);}.cls-30{fill:url(#Degradado_sin_nombre_23-23);}.cls-31{fill:url(#Degradado_sin_nombre_23-24);}.cls-32{fill:url(#Degradado_sin_nombre_23-25);}.cls-33{fill:url(#Degradado_sin_nombre_23-26);}.cls-34{fill:url(#Degradado_sin_nombre_23-27);}.cls-35{fill:url(#Degradado_sin_nombre_23-28);}.cls-36{fill:url(#Degradado_sin_nombre_23-29);}.cls-37{fill:url(#Degradado_sin_nombre_23-30);}.cls-38{fill:url(#Degradado_sin_nombre_23-31);}.cls-39{fill:url(#Degradado_sin_nombre_23-32);}.cls-40{fill:url(#Degradado_sin_nombre_23-33);}.cls-41{fill:url(#Degradado_sin_nombre_23-34);}.cls-42{fill:url(#Degradado_sin_nombre_23-35);}.cls-43{fill:url(#Degradado_sin_nombre_23-36);}.cls-44{fill:url(#Degradado_sin_nombre_23-37);}.cls-45{fill:url(#Degradado_sin_nombre_23-38);}.cls-46{fill:url(#Degradado_sin_nombre_23-39);}.cls-47{fill:url(#Degradado_sin_nombre_23-40);}.cls-48{fill:url(#Degradado_sin_nombre_23-41);}.cls-49{fill:url(#Degradado_sin_nombre_23-42);}.cls-50{fill:url(#Degradado_sin_nombre_23-43);}.cls-51{fill:url(#Degradado_sin_nombre_23-44);}.cls-52{fill:url(#Degradado_sin_nombre_23-45);}.cls-53{fill:url(#Degradado_sin_nombre_23-46);}.cls-54{fill:url(#Degradado_sin_nombre_23-47);}.cls-55{fill:url(#Degradado_sin_nombre_23-48);}.cls-56{fill:url(#Degradado_sin_nombre_23-49);}.cls-57{fill:url(#Degradado_sin_nombre_23-50);}.cls-58{fill:url(#Degradado_sin_nombre_23-51);}.cls-59{fill:url(#Degradado_sin_nombre_23-52);}.cls-60{fill:url(#Degradado_sin_nombre_23-53);}.cls-61{fill:url(#Degradado_sin_nombre_23-54);}.cls-62{fill:url(#Degradado_sin_nombre_23-55);}.cls-63{fill:url(#Degradado_sin_nombre_23-56);}.cls-64{fill:url(#Degradado_sin_nombre_23-57);}.cls-65{fill:url(#Degradado_sin_nombre_23-58);}.cls-66{fill:url(#Degradado_sin_nombre_23-59);}.cls-67{opacity:0.5;fill:url(#Degradado_sin_nombre_115);}</style><linearGradient id="linear-gradient" x1="59.99" y1="44.81" x2="98.34" y2="110.58" gradientUnits="userSpaceOnUse"><stop offset="0.56" stop-color="#fff"/><stop offset="0.61" stop-color="#f5f4f5"/><stop offset="0.69" stop-color="#d8d8d9"/><stop offset="0.8" stop-color="#abaaab"/><stop offset="0.92" stop-color="#6c6c6d"/><stop offset="1" stop-color="#414042"/></linearGradient><mask id="mask" x="-0.94" y="-5.69" width="155.25" height="158.25" maskUnits="userSpaceOnUse"><rect class="cls-1" x="-0.94" y="-5.69" width="155.25" height="158.25"/></mask><radialGradient id="radial-gradient" cx="46.76" cy="54.99" r="64.96" gradientUnits="userSpaceOnUse"><stop offset="0" stop-color="#fff"/><stop offset="1"/></radialGradient><linearGradient id="Degradado_sin_nombre_23" x1="32.31" y1="124.72" x2="28.95" y2="120.54" gradientUnits="userSpaceOnUse"><stop offset="0.04" stop-color="#1e3480"/><stop offset="0.16" stop-color="#234389"/><stop offset="0.4" stop-color="#326ca0"/><stop offset="0.73" stop-color="#48adc4"/><stop offset="1" stop-color="#5de7e5"/></linearGradient><linearGradient id="Degradado_sin_nombre_23-2" x1="47.97" y1="118.89" x2="44.62" y2="114.7" xlink:href="#Degradado_sin_nombre_23"/><linearGradient id="Degradado_sin_nombre_23-3" x1="38.18" y1="116.6" x2="34.82" y2="112.41" xlink:href="#Degradado_sin_nombre_23"/><linearGradient id="Degradado_sin_nombre_23-4" x1="46.06" y1="112.35" x2="42.7" y2="108.16" xlink:href="#Degradado_sin_nombre_23"/><linearGradient id="Degradado_sin_nombre_23-5" x1="97.81" y1="53.97" x2="94.45" y2="49.79" xlink:href="#Degradado_sin_nombre_23"/><linearGradient id="Degradado_sin_nombre_23-6" x1="83.06" y1="85.6" x2="79.7" y2="81.41" xlink:href="#Degradado_sin_nombre_23"/><linearGradient id="Degradado_sin_nombre_23-7" x1="39.6" y1="101.43" x2="36.24" y2="97.25" xlink:href="#Degradado_sin_nombre_23"/><linearGradient id="Degradado_sin_nombre_23-8" x1="64.68" y1="81.22" x2="61.32" y2="77.04" xlink:href="#Degradado_sin_nombre_23"/><linearGradient id="Degradado_sin_nombre_23-9" x1="62.02" y1="76.43" x2="58.66" y2="72.25" xlink:href="#Degradado_sin_nombre_23"/><linearGradient id="Degradado_sin_nombre_23-10" x1="27.18" y1="137.1" x2="23.82" y2="132.91" xlink:href="#Degradado_sin_nombre_23"/><linearGradient id="Degradado_sin_nombre_23-11" x1="54.93" y1="102.6" x2="51.57" y2="98.41" xlink:href="#Degradado_sin_nombre_23"/><linearGradient id="Degradado_sin_nombre_23-12" x1="63.43" y1="101.6" x2="60.07" y2="97.41" xlink:href="#Degradado_sin_nombre_23"/><linearGradient id="Degradado_sin_nombre_23-13" x1="65.06" y1="109.47" x2="61.7" y2="105.29" xlink:href="#Degradado_sin_nombre_23"/><linearGradient id="Degradado_sin_nombre_23-14" x1="62.43" y1="86.47" x2="59.07" y2="82.29" xlink:href="#Degradado_sin_nombre_23"/><linearGradient id="Degradado_sin_nombre_23-15" x1="75.68" y1="71.43" x2="72.32" y2="67.25" xlink:href="#Degradado_sin_nombre_23"/><linearGradient id="Degradado_sin_nombre_23-16" x1="77.85" y1="60.43" x2="74.49" y2="56.25" xlink:href="#Degradado_sin_nombre_23"/><linearGradient id="Degradado_sin_nombre_23-17" x1="75.35" y1="82.6" x2="71.99" y2="78.41" xlink:href="#Degradado_sin_nombre_23"/><linearGradient id="Degradado_sin_nombre_23-18" x1="76.18" y1="90.26" x2="72.82" y2="86.08" xlink:href="#Degradado_sin_nombre_23"/><linearGradient id="Degradado_sin_nombre_23-19" x1="70.81" y1="83.22" x2="67.45" y2="79.04" xlink:href="#Degradado_sin_nombre_23"/><linearGradient id="Degradado_sin_nombre_23-20" x1="103.93" y1="63.97" x2="100.57" y2="59.79" xlink:href="#Degradado_sin_nombre_23"/><linearGradient id="Degradado_sin_nombre_23-21" x1="59.18" y1="94.93" x2="55.82" y2="90.75" xlink:href="#Degradado_sin_nombre_23"/><linearGradient id="Degradado_sin_nombre_23-22" x1="53.52" y1="110.76" x2="50.16" y2="106.58" xlink:href="#Degradado_sin_nombre_23"/><linearGradient id="Degradado_sin_nombre_23-23" x1="46.85" y1="102.6" x2="43.49" y2="98.41" xlink:href="#Degradado_sin_nombre_23"/><linearGradient id="Degradado_sin_nombre_23-24" x1="47.52" y1="94.93" x2="44.16" y2="90.75" xlink:href="#Degradado_sin_nombre_23"/><linearGradient id="Degradado_sin_nombre_23-25" x1="39.18" y1="127.43" x2="35.82" y2="123.25" xlink:href="#Degradado_sin_nombre_23"/><linearGradient id="Degradado_sin_nombre_23-26" x1="56.06" y1="76.1" x2="52.7" y2="71.91" xlink:href="#Degradado_sin_nombre_23"/><linearGradient id="Degradado_sin_nombre_23-27" x1="85.02" y1="77.93" x2="81.66" y2="73.75" xlink:href="#Degradado_sin_nombre_23"/><linearGradient id="Degradado_sin_nombre_23-28" x1="90.93" y1="69.85" x2="87.57" y2="65.66" xlink:href="#Degradado_sin_nombre_23"/><linearGradient id="Degradado_sin_nombre_23-29" x1="96.6" y1="62.85" x2="93.24" y2="58.66" xlink:href="#Degradado_sin_nombre_23"/><linearGradient id="Degradado_sin_nombre_23-30" x1="70.02" y1="96.93" x2="66.66" y2="92.75" xlink:href="#Degradado_sin_nombre_23"/><linearGradient id="Degradado_sin_nombre_23-31" x1="87.18" y1="69.1" x2="83.82" y2="64.91" xlink:href="#Degradado_sin_nombre_23"/><linearGradient id="Degradado_sin_nombre_23-32" x1="86.43" y1="63.1" x2="83.07" y2="58.91" xlink:href="#Degradado_sin_nombre_23"/><linearGradient id="Degradado_sin_nombre_23-33" x1="86.68" y1="58.26" x2="83.32" y2="54.08" xlink:href="#Degradado_sin_nombre_23"/><linearGradient id="Degradado_sin_nombre_23-34" x1="67.35" y1="74.6" x2="63.99" y2="70.41" xlink:href="#Degradado_sin_nombre_23"/><linearGradient id="Degradado_sin_nombre_23-35" x1="81.06" y1="73.47" x2="77.7" y2="69.29" xlink:href="#Degradado_sin_nombre_23"/><linearGradient id="Degradado_sin_nombre_23-36" x1="71.43" y1="87.35" x2="68.07" y2="83.16" xlink:href="#Degradado_sin_nombre_23"/><linearGradient id="Degradado_sin_nombre_23-37" x1="76.6" y1="66.01" x2="73.24" y2="61.83" xlink:href="#Degradado_sin_nombre_23"/><linearGradient id="Degradado_sin_nombre_23-38" x1="78.52" y1="84.93" x2="75.16" y2="80.75" xlink:href="#Degradado_sin_nombre_23"/><linearGradient id="Degradado_sin_nombre_23-39" x1="54.68" y1="86.6" x2="51.32" y2="82.41" xlink:href="#Degradado_sin_nombre_23"/><linearGradient id="Degradado_sin_nombre_23-40" x1="65.35" y1="88.1" x2="61.99" y2="83.91" xlink:href="#Degradado_sin_nombre_23"/><linearGradient id="Degradado_sin_nombre_23-41" x1="50.68" y1="70.76" x2="47.32" y2="66.58" xlink:href="#Degradado_sin_nombre_23"/><linearGradient id="Degradado_sin_nombre_23-42" x1="86.81" y1="51.97" x2="83.45" y2="47.79" xlink:href="#Degradado_sin_nombre_23"/><linearGradient id="Degradado_sin_nombre_23-43" x1="82.56" y1="64.1" x2="79.2" y2="59.91" xlink:href="#Degradado_sin_nombre_23"/><linearGradient id="Degradado_sin_nombre_23-44" x1="114.35" y1="24.93" x2="110.99" y2="20.75" xlink:href="#Degradado_sin_nombre_23"/><linearGradient id="Degradado_sin_nombre_23-45" x1="76.56" y1="98.72" x2="73.2" y2="94.54" xlink:href="#Degradado_sin_nombre_23"/><linearGradient id="Degradado_sin_nombre_23-46" x1="54.68" y1="92.85" x2="51.32" y2="88.66" xlink:href="#Degradado_sin_nombre_23"/><linearGradient id="Degradado_sin_nombre_23-47" x1="41.18" y1="85.18" x2="37.82" y2="81" xlink:href="#Degradado_sin_nombre_23"/><linearGradient id="Degradado_sin_nombre_23-48" x1="71.56" y1="77.72" x2="68.2" y2="73.54" xlink:href="#Degradado_sin_nombre_23"/><linearGradient id="Degradado_sin_nombre_23-49" x1="76.43" y1="53.22" x2="73.07" y2="49.04" xlink:href="#Degradado_sin_nombre_23"/><linearGradient id="Degradado_sin_nombre_23-50" x1="93.31" y1="74.85" x2="89.95" y2="70.66" xlink:href="#Degradado_sin_nombre_23"/><linearGradient id="Degradado_sin_nombre_23-51" x1="111.81" y1="49.6" x2="108.45" y2="45.41" xlink:href="#Degradado_sin_nombre_23"/><linearGradient id="Degradado_sin_nombre_23-52" x1="95.93" y1="84.22" x2="92.57" y2="80.04" xlink:href="#Degradado_sin_nombre_23"/><linearGradient id="Degradado_sin_nombre_23-53" x1="52.68" y1="83.85" x2="49.32" y2="79.66" xlink:href="#Degradado_sin_nombre_23"/><linearGradient id="Degradado_sin_nombre_23-54" x1="63.81" y1="93.85" x2="60.45" y2="89.66" xlink:href="#Degradado_sin_nombre_23"/><linearGradient id="Degradado_sin_nombre_23-55" x1="62.56" y1="66.85" x2="59.2" y2="62.66" xlink:href="#Degradado_sin_nombre_23"/><linearGradient id="Degradado_sin_nombre_23-56" x1="71.68" y1="68.35" x2="68.32" y2="64.16" xlink:href="#Degradado_sin_nombre_23"/><linearGradient id="Degradado_sin_nombre_23-57" x1="90.81" y1="62.35" x2="87.45" y2="58.16" xlink:href="#Degradado_sin_nombre_23"/><linearGradient id="Degradado_sin_nombre_23-58" x1="107.52" y1="37.1" x2="104.16" y2="32.91" xlink:href="#Degradado_sin_nombre_23"/><linearGradient id="Degradado_sin_nombre_23-59" x1="96.18" y1="42.35" x2="92.82" y2="38.16" xlink:href="#Degradado_sin_nombre_23"/><radialGradient id="Degradado_sin_nombre_115" cx="638.08" cy="-2919.46" fx="663.0490500876156" fy="-2865.6013477113406" r="59.37" gradientTransform="matrix(1.3, 0, 0, 0.48, -758.06, 1472.09)" gradientUnits="userSpaceOnUse"><stop offset="0.02" stop-color="#1e3480"/><stop offset="0.06" stop-color="#1c3179"/><stop offset="0.27" stop-color="#12204e"/><stop offset="0.47" stop-color="#0a122c"/><stop offset="0.67" stop-color="#050814"/><stop offset="0.85" stop-color="#010205"/><stop offset="1"/></radialGradient></defs><title>Recurso 3</title><g class="cls-2"><g id="Capa_2" data-name="Capa 2"><g id="Layer_1" data-name="Layer 1"><g class="cls-3"><path class="cls-4" d="M15.92,144.81V67.3c0-2.69,1.63-5.8,3.64-7L122.74.77a2.78,2.78,0,0,1,1.53-.42,2.25,2.25,0,0,0-2.53.08L18.56,60c-2,1.16-3.64,4.28-3.64,7v77.5c0,1.95.87,3.12,2.11,3.18A3.37,3.37,0,0,1,15.92,144.81Z"/><g class="cls-5"><path class="cls-6" d="M19.05,149.61h0c-1.62,0-2.7-1.48-2.7-3.69V68.41c0-2.89,1.71-6.14,3.89-7.4L123.41,1.45a3.36,3.36,0,0,1,1.7-.51c1.62,0,2.7,1.49,2.7,3.7v77.5c0,2.89-1.71,6.14-3.9,7.4L20.74,149.11A3.44,3.44,0,0,1,19.05,149.61ZM125.11,1.94a2.51,2.51,0,0,0-1.2.37L20.74,61.88c-1.87,1.08-3.39,4-3.39,6.53v77.51c0,1.64.66,2.69,1.7,2.69a2.37,2.37,0,0,0,1.19-.37L123.41,88.68c1.88-1.08,3.4-4,3.4-6.54V4.64C126.81,3,126.14,1.94,125.11,1.94Z"/></g><path class="cls-7" d="M19.05,147.85a1.64,1.64,0,0,0,.81-.27L123,88a7.48,7.48,0,0,0,3-5.88V4.64c0-1-.29-1.93-.94-1.93a1.73,1.73,0,0,0-.81.26L21.12,62.54c-1.63.94-3,3.63-3,5.87v77.51C18.11,146.88,18.4,147.85,19.05,147.85Z"/><g class="cls-5"><path class="cls-7" d="M19.25,91.05a.5.5,0,0,1-.25-.93l1.73-1a.5.5,0,0,1,.5.86L19.5,91A.47.47,0,0,1,19.25,91.05Zm4.33-2.5a.52.52,0,0,1-.44-.25.5.5,0,0,1,.19-.68l1.73-1a.5.5,0,0,1,.5.86l-1.73,1A.47.47,0,0,1,23.58,88.55Zm4.33-2.5a.5.5,0,0,1-.25-.94l1.73-1a.5.5,0,0,1,.5.87l-1.73,1A.59.59,0,0,1,27.91,86.05Zm4.33-2.51a.51.51,0,0,1-.44-.25.5.5,0,0,1,.18-.68l1.74-1a.5.5,0,1,1,.5.86l-1.73,1A.57.57,0,0,1,32.24,83.54ZM36.56,81a.5.5,0,0,1-.25-.93l1.73-1a.51.51,0,0,1,.69.18.49.49,0,0,1-.19.68l-1.73,1A.45.45,0,0,1,36.56,81Zm4.33-2.5a.5.5,0,0,1-.25-.93l1.73-1a.5.5,0,1,1,.5.87l-1.73,1A.45.45,0,0,1,40.89,78.54ZM45.22,76a.5.5,0,0,1-.43-.25A.51.51,0,0,1,45,75.1l1.73-1a.5.5,0,0,1,.68.18.51.51,0,0,1-.18.69l-1.73,1A.55.55,0,0,1,45.22,76Zm4.33-2.51a.5.5,0,0,1-.25-.93l1.73-1a.5.5,0,0,1,.5.86l-1.73,1A.57.57,0,0,1,49.55,73.53ZM53.88,71a.52.52,0,0,1-.44-.25.5.5,0,0,1,.19-.68l1.73-1a.5.5,0,0,1,.5.86l-1.73,1A.47.47,0,0,1,53.88,71Zm4.33-2.5a.5.5,0,0,1-.25-.94l1.73-1a.5.5,0,0,1,.5.87l-1.73,1A.47.47,0,0,1,58.21,68.53ZM62.53,66a.5.5,0,0,1-.25-.93l1.74-1a.5.5,0,0,1,.68.18.51.51,0,0,1-.18.69l-1.74,1A.51.51,0,0,1,62.53,66Zm4.33-2.5a.5.5,0,0,1-.25-.93l1.73-1a.51.51,0,0,1,.69.18.49.49,0,0,1-.19.68l-1.73,1A.45.45,0,0,1,66.86,63.52ZM71.19,61a.5.5,0,0,1-.25-.93l1.73-1a.5.5,0,0,1,.69.18.51.51,0,0,1-.19.68l-1.73,1A.45.45,0,0,1,71.19,61Zm4.33-2.5a.5.5,0,0,1-.43-.25.51.51,0,0,1,.18-.69l1.73-1a.5.5,0,0,1,.68.18.51.51,0,0,1-.18.69l-1.73,1A.55.55,0,0,1,75.52,58.52ZM79.85,56a.5.5,0,0,1-.25-.93l1.73-1a.5.5,0,1,1,.5.86L80.1,56A.57.57,0,0,1,79.85,56Zm4.33-2.5a.51.51,0,0,1-.44-.25.51.51,0,0,1,.19-.68l1.73-1a.5.5,0,0,1,.5.86l-1.73,1A.47.47,0,0,1,84.18,53.51ZM88.51,51a.5.5,0,0,1-.26-.93l1.74-1a.5.5,0,0,1,.5.87l-1.73,1A.47.47,0,0,1,88.51,51Zm4.32-2.5a.5.5,0,0,1-.43-.25.51.51,0,0,1,.18-.69l1.73-1a.51.51,0,0,1,.69.18.51.51,0,0,1-.18.69l-1.74,1A.52.52,0,0,1,92.83,48.51ZM97.16,46a.5.5,0,0,1-.25-.93l1.73-1a.51.51,0,0,1,.69.18.49.49,0,0,1-.19.68l-1.73,1A.45.45,0,0,1,97.16,46Zm4.33-2.5a.5.5,0,0,1-.25-.93l1.73-1a.5.5,0,1,1,.5.86l-1.73,1A.45.45,0,0,1,101.49,43.5Zm4.33-2.5a.5.5,0,0,1-.43-.25.51.51,0,0,1,.18-.69l1.73-1a.5.5,0,0,1,.5.87l-1.73,1A.45.45,0,0,1,105.82,41Zm4.33-2.51a.5.5,0,0,1-.25-.93l1.73-1a.49.49,0,0,1,.68.18.51.51,0,0,1-.18.69l-1.73,1A.57.57,0,0,1,110.15,38.49Zm4.33-2.5a.51.51,0,0,1-.44-.25.51.51,0,0,1,.19-.68l1.73-1a.5.5,0,0,1,.5.86l-1.73,1A.47.47,0,0,1,114.48,36Zm4.33-2.5a.5.5,0,0,1-.26-.93l1.74-1a.51.51,0,0,1,.68.19.49.49,0,0,1-.18.68l-1.73,1A.47.47,0,0,1,118.81,33.49Zm4.32-2.5a.5.5,0,0,1-.43-.25.51.51,0,0,1,.18-.69l1.62-.93a.5.5,0,0,1,.5.86l-1.62.94A.52.52,0,0,1,123.13,31Z"/></g><g class="cls-5"><path class="cls-7" d="M19.25,123.22a.5.5,0,0,1-.25-.93l1.73-1a.5.5,0,0,1,.5.86l-1.73,1A.47.47,0,0,1,19.25,123.22Zm4.33-2.5a.52.52,0,0,1-.44-.25.52.52,0,0,1,.19-.69l1.73-1a.5.5,0,0,1,.5.87l-1.73,1A.59.59,0,0,1,23.58,120.72Zm4.33-2.51a.51.51,0,0,1-.44-.25.5.5,0,0,1,.19-.68l1.73-1a.5.5,0,0,1,.5.86l-1.73,1A.57.57,0,0,1,27.91,118.21Zm4.33-2.5a.51.51,0,0,1-.44-.25.5.5,0,0,1,.18-.68l1.74-1a.5.5,0,0,1,.5.86l-1.73,1A.47.47,0,0,1,32.24,115.71Zm4.32-2.5a.5.5,0,0,1-.25-.93l1.73-1a.51.51,0,0,1,.69.19.5.5,0,0,1-.19.68l-1.73,1A.45.45,0,0,1,36.56,113.21Zm4.33-2.5a.5.5,0,0,1-.43-.25.51.51,0,0,1,.18-.69l1.73-1a.5.5,0,1,1,.5.87l-1.73,1A.55.55,0,0,1,40.89,110.71Zm4.33-2.51a.5.5,0,0,1-.25-.93l1.73-1a.5.5,0,0,1,.5.86l-1.73,1A.54.54,0,0,1,45.22,108.2Zm4.33-2.5a.5.5,0,0,1-.25-.93l1.73-1a.5.5,0,0,1,.5.86l-1.73,1A.47.47,0,0,1,49.55,105.7Zm4.33-2.5a.52.52,0,0,1-.44-.25.52.52,0,0,1,.19-.69l1.73-1a.5.5,0,0,1,.5.87l-1.73,1A.47.47,0,0,1,53.88,103.2Zm4.33-2.51a.51.51,0,0,1-.44-.25.5.5,0,0,1,.19-.68l1.73-1a.49.49,0,0,1,.68.18.51.51,0,0,1-.18.69l-1.73,1A.57.57,0,0,1,58.21,100.69Zm4.32-2.5a.5.5,0,0,1-.25-.93l1.74-1a.5.5,0,0,1,.5.86l-1.74,1A.43.43,0,0,1,62.53,98.19Zm4.33-2.5a.5.5,0,0,1-.25-.93l1.73-1a.5.5,0,1,1,.5.86l-1.73,1A.45.45,0,0,1,66.86,95.69Zm4.33-2.5a.5.5,0,0,1-.43-.25.51.51,0,0,1,.18-.69l1.73-1a.5.5,0,1,1,.5.87l-1.73,1A.55.55,0,0,1,71.19,93.19Zm4.33-2.51a.5.5,0,0,1-.25-.93l1.73-1a.5.5,0,1,1,.5.86l-1.73,1A.54.54,0,0,1,75.52,90.68Zm4.33-2.5a.5.5,0,0,1-.25-.93l1.73-1a.5.5,0,1,1,.5.86l-1.73,1A.47.47,0,0,1,79.85,88.18Zm4.33-2.5a.51.51,0,0,1-.44-.25.5.5,0,0,1,.19-.68l1.73-1a.5.5,0,0,1,.5.87l-1.73,1A.47.47,0,0,1,84.18,85.68Zm4.33-2.5a.5.5,0,0,1-.44-.25.51.51,0,0,1,.18-.69l1.74-1a.49.49,0,0,1,.68.18.51.51,0,0,1-.18.69l-1.73,1A.59.59,0,0,1,88.51,83.18Zm4.32-2.51a.5.5,0,0,1-.25-.93l1.73-1a.51.51,0,0,1,.69.18.5.5,0,0,1-.18.68l-1.74,1A.43.43,0,0,1,92.83,80.67Zm4.33-2.5a.5.5,0,0,1-.25-.93l1.73-1a.5.5,0,1,1,.5.86l-1.73,1A.45.45,0,0,1,97.16,78.17Zm4.33-2.5a.5.5,0,0,1-.43-.25.51.51,0,0,1,.18-.69l1.73-1a.5.5,0,1,1,.5.87l-1.73,1A.55.55,0,0,1,101.49,75.67Zm4.33-2.51a.5.5,0,0,1-.25-.93l1.73-1a.5.5,0,0,1,.5.86l-1.73,1A.54.54,0,0,1,105.82,73.16Zm4.33-2.5a.5.5,0,0,1-.25-.93l1.73-1a.5.5,0,0,1,.5.86l-1.73,1A.47.47,0,0,1,110.15,70.66Zm4.33-2.5a.51.51,0,0,1-.44-.25.5.5,0,0,1,.19-.68l1.73-1a.51.51,0,0,1,.68.19.49.49,0,0,1-.18.68l-1.73,1A.47.47,0,0,1,114.48,68.16Zm4.33-2.5a.5.5,0,0,1-.44-.25.51.51,0,0,1,.18-.69l1.74-1a.49.49,0,0,1,.68.18.51.51,0,0,1-.18.69l-1.73,1A.59.59,0,0,1,118.81,65.66Zm4.32-2.51a.5.5,0,0,1-.25-.93l1.62-.93a.5.5,0,0,1,.5.86l-1.62.94A.51.51,0,0,1,123.13,63.15Z"/></g><g class="cls-5"><path class="cls-7" d="M44.92,132a.5.5,0,0,1-.5-.5v-2a.5.5,0,0,1,.5-.5.5.5,0,0,1,.5.5v2A.5.5,0,0,1,44.92,132Zm0-5a.5.5,0,0,1-.5-.5v-2a.5.5,0,0,1,.5-.5.5.5,0,0,1,.5.5v2A.5.5,0,0,1,44.92,127Zm0-5a.5.5,0,0,1-.5-.5v-2a.5.5,0,0,1,.5-.5.5.5,0,0,1,.5.5v2A.5.5,0,0,1,44.92,122Zm0-5a.5.5,0,0,1-.5-.5v-2a.5.5,0,0,1,.5-.5.5.5,0,0,1,.5.5v2A.5.5,0,0,1,44.92,117Zm0-5a.5.5,0,0,1-.5-.5v-2a.5.5,0,0,1,.5-.5.5.5,0,0,1,.5.5v2A.5.5,0,0,1,44.92,112Zm0-5a.5.5,0,0,1-.5-.5v-2a.5.5,0,0,1,.5-.5.5.5,0,0,1,.5.5v2A.5.5,0,0,1,44.92,107Zm0-5a.5.5,0,0,1-.5-.5v-2a.5.5,0,0,1,.5-.5.5.5,0,0,1,.5.5v2A.5.5,0,0,1,44.92,102Zm0-5a.5.5,0,0,1-.5-.5v-2a.5.5,0,0,1,.5-.5.5.5,0,0,1,.5.5v2A.5.5,0,0,1,44.92,97Zm0-5a.5.5,0,0,1-.5-.5v-2a.5.5,0,0,1,.5-.5.5.5,0,0,1,.5.5v2A.5.5,0,0,1,44.92,92Zm0-5a.5.5,0,0,1-.5-.5v-2a.5.5,0,0,1,.5-.5.5.5,0,0,1,.5.5v2A.5.5,0,0,1,44.92,87Zm0-5a.5.5,0,0,1-.5-.5v-2a.5.5,0,0,1,.5-.5.5.5,0,0,1,.5.5v2A.5.5,0,0,1,44.92,82Zm0-5a.5.5,0,0,1-.5-.5v-2a.5.5,0,0,1,.5-.5.5.5,0,0,1,.5.5v2A.5.5,0,0,1,44.92,77Zm0-5a.5.5,0,0,1-.5-.5v-2a.5.5,0,0,1,.5-.5.5.5,0,0,1,.5.5v2A.5.5,0,0,1,44.92,72Zm0-5a.5.5,0,0,1-.5-.5v-2a.5.5,0,0,1,.5-.5.5.5,0,0,1,.5.5v2A.5.5,0,0,1,44.92,67Zm0-5a.5.5,0,0,1-.5-.5v-2a.5.5,0,0,1,.5-.5.5.5,0,0,1,.5.5v2A.5.5,0,0,1,44.92,62Zm0-5a.5.5,0,0,1-.5-.5v-2a.5.5,0,0,1,.5-.5.5.5,0,0,1,.5.5v2A.5.5,0,0,1,44.92,57Zm0-5a.5.5,0,0,1-.5-.5v-2a.5.5,0,0,1,.5-.5.5.5,0,0,1,.5.5v2A.5.5,0,0,1,44.92,52Z"/></g><g class="cls-5"><path class="cls-7" d="M72.42,116.14a.5.5,0,0,1-.5-.5v-2a.5.5,0,0,1,.5-.5.5.5,0,0,1,.5.5v2A.51.51,0,0,1,72.42,116.14Zm0-5a.5.5,0,0,1-.5-.5v-2a.5.5,0,0,1,.5-.5.5.5,0,0,1,.5.5v2A.51.51,0,0,1,72.42,111.14Zm0-5a.5.5,0,0,1-.5-.5v-2a.5.5,0,0,1,.5-.5.5.5,0,0,1,.5.5v2A.51.51,0,0,1,72.42,106.14Zm0-5a.5.5,0,0,1-.5-.5v-2a.5.5,0,0,1,.5-.5.5.5,0,0,1,.5.5v2A.51.51,0,0,1,72.42,101.14Zm0-5a.5.5,0,0,1-.5-.5v-2a.5.5,0,0,1,.5-.5.5.5,0,0,1,.5.5v2A.51.51,0,0,1,72.42,96.14Zm0-5a.5.5,0,0,1-.5-.5v-2a.5.5,0,0,1,.5-.5.5.5,0,0,1,.5.5v2A.51.51,0,0,1,72.42,91.14Zm0-5a.5.5,0,0,1-.5-.5v-2a.5.5,0,0,1,.5-.5.5.5,0,0,1,.5.5v2A.51.51,0,0,1,72.42,86.14Zm0-5a.5.5,0,0,1-.5-.5v-2a.5.5,0,0,1,.5-.5.5.5,0,0,1,.5.5v2A.51.51,0,0,1,72.42,81.14Zm0-5a.5.5,0,0,1-.5-.5v-2a.5.5,0,0,1,.5-.5.5.5,0,0,1,.5.5v2A.51.51,0,0,1,72.42,76.14Zm0-5a.5.5,0,0,1-.5-.5v-2a.5.5,0,0,1,.5-.5.5.5,0,0,1,.5.5v2A.51.51,0,0,1,72.42,71.14Zm0-5a.5.5,0,0,1-.5-.5v-2a.5.5,0,0,1,.5-.5.5.5,0,0,1,.5.5v2A.51.51,0,0,1,72.42,66.14Zm0-5a.5.5,0,0,1-.5-.5v-2a.5.5,0,0,1,.5-.5.5.5,0,0,1,.5.5v2A.51.51,0,0,1,72.42,61.14Zm0-5a.5.5,0,0,1-.5-.5v-2a.5.5,0,0,1,.5-.5.5.5,0,0,1,.5.5v2A.51.51,0,0,1,72.42,56.14Zm0-5a.5.5,0,0,1-.5-.5v-2a.5.5,0,0,1,.5-.5.5.5,0,0,1,.5.5v2A.51.51,0,0,1,72.42,51.14Zm0-5a.5.5,0,0,1-.5-.5v-2a.5.5,0,0,1,.5-.5.5.5,0,0,1,.5.5v2A.51.51,0,0,1,72.42,46.14Zm0-5a.5.5,0,0,1-.5-.5v-2a.5.5,0,0,1,.5-.5.5.5,0,0,1,.5.5v2A.51.51,0,0,1,72.42,41.14Zm0-5a.5.5,0,0,1-.5-.5v-2a.5.5,0,0,1,.5-.5.5.5,0,0,1,.5.5v2A.51.51,0,0,1,72.42,36.14Z"/></g><g class="cls-5"><path class="cls-7" d="M99.67,100a.5.5,0,0,1-.5-.5v-2a.5.5,0,0,1,.5-.5.5.5,0,0,1,.5.5v2A.5.5,0,0,1,99.67,100Zm0-5a.5.5,0,0,1-.5-.5v-2a.5.5,0,0,1,.5-.5.5.5,0,0,1,.5.5v2A.5.5,0,0,1,99.67,95Zm0-5a.5.5,0,0,1-.5-.5v-2a.5.5,0,0,1,.5-.5.5.5,0,0,1,.5.5v2A.5.5,0,0,1,99.67,90Zm0-5a.5.5,0,0,1-.5-.5v-2a.5.5,0,0,1,.5-.5.5.5,0,0,1,.5.5v2A.5.5,0,0,1,99.67,85Zm0-5a.5.5,0,0,1-.5-.5v-2a.5.5,0,0,1,.5-.5.5.5,0,0,1,.5.5v2A.5.5,0,0,1,99.67,80Zm0-5a.5.5,0,0,1-.5-.5v-2a.5.5,0,0,1,.5-.5.5.5,0,0,1,.5.5v2A.5.5,0,0,1,99.67,75Zm0-5a.5.5,0,0,1-.5-.5v-2a.5.5,0,0,1,.5-.5.5.5,0,0,1,.5.5v2A.5.5,0,0,1,99.67,70Zm0-5a.5.5,0,0,1-.5-.5v-2a.5.5,0,0,1,.5-.5.5.5,0,0,1,.5.5v2A.5.5,0,0,1,99.67,65Zm0-5a.5.5,0,0,1-.5-.5v-2a.5.5,0,0,1,.5-.5.5.5,0,0,1,.5.5v2A.5.5,0,0,1,99.67,60Zm0-5a.5.5,0,0,1-.5-.5v-2a.5.5,0,0,1,.5-.5.5.5,0,0,1,.5.5v2A.5.5,0,0,1,99.67,55Zm0-5a.5.5,0,0,1-.5-.5v-2a.5.5,0,0,1,.5-.5.5.5,0,0,1,.5.5v2A.5.5,0,0,1,99.67,50Zm0-5a.5.5,0,0,1-.5-.5v-2a.5.5,0,0,1,.5-.5.5.5,0,0,1,.5.5v2A.5.5,0,0,1,99.67,45Zm0-5a.5.5,0,0,1-.5-.5v-2a.5.5,0,0,1,.5-.5.5.5,0,0,1,.5.5v2A.5.5,0,0,1,99.67,40Zm0-5a.5.5,0,0,1-.5-.5v-2a.5.5,0,0,1,.5-.5.5.5,0,0,1,.5.5v2A.5.5,0,0,1,99.67,35Zm0-5a.5.5,0,0,1-.5-.5v-2a.5.5,0,0,1,.5-.5.5.5,0,0,1,.5.5v2A.5.5,0,0,1,99.67,30Zm0-5a.5.5,0,0,1-.5-.5v-2a.5.5,0,0,1,.5-.5.5.5,0,0,1,.5.5v2A.5.5,0,0,1,99.67,25Zm0-5a.5.5,0,0,1-.5-.5v-2a.5.5,0,0,1,.5-.5.5.5,0,0,1,.5.5v2A.5.5,0,0,1,99.67,20Z"/></g><path class="cls-8" d="M32.78,122.08a3.88,3.88,0,0,1-1.77,3c-1,.57-1.78.12-1.78-1A3.89,3.89,0,0,1,31,121.07C32,120.5,32.78,121,32.78,122.08Z"/><path class="cls-9" d="M48.45,116.24a3.9,3.9,0,0,1-1.78,3.06c-1,.57-1.77.11-1.77-1a3.92,3.92,0,0,1,1.77-3.06C47.65,114.67,48.45,115.12,48.45,116.24Z"/><path class="cls-10" d="M38.65,114A3.9,3.9,0,0,1,36.88,117c-1,.57-1.77.11-1.77-1a3.92,3.92,0,0,1,1.77-3.06C37.86,112.38,38.65,112.83,38.65,114Z"/><path class="cls-11" d="M46.53,109.7a3.9,3.9,0,0,1-1.77,3.06c-1,.57-1.78.11-1.78-1a3.93,3.93,0,0,1,1.78-3.06C45.74,108.13,46.53,108.58,46.53,109.7Z"/><path class="cls-12" d="M98.28,51.33a3.88,3.88,0,0,1-1.77,3.05c-1,.57-1.78.12-1.78-1a3.89,3.89,0,0,1,1.78-3C97.49,49.75,98.28,50.2,98.28,51.33Z"/><path class="cls-13" d="M83.53,83A3.9,3.9,0,0,1,81.76,86c-1,.57-1.78.11-1.78-1a3.93,3.93,0,0,1,1.78-3.06C82.74,81.38,83.53,81.83,83.53,83Z"/><path class="cls-14" d="M40.07,98.79a3.88,3.88,0,0,1-1.77,3c-1,.57-1.77.12-1.77-1a3.92,3.92,0,0,1,1.77-3.06C39.28,97.21,40.07,97.66,40.07,98.79Z"/><path class="cls-15" d="M65.15,78.58a3.88,3.88,0,0,1-1.77,3c-1,.57-1.77.12-1.77-1a3.88,3.88,0,0,1,1.77-3.05C64.36,77,65.15,77.45,65.15,78.58Z"/><path class="cls-16" d="M62.49,73.79a3.91,3.91,0,0,1-1.77,3c-1,.57-1.78.12-1.78-1a3.93,3.93,0,0,1,1.78-3.06C61.69,72.21,62.49,72.66,62.49,73.79Z"/><path class="cls-17" d="M27.65,134.45a3.9,3.9,0,0,1-1.77,3.06c-1,.57-1.77.11-1.77-1a3.92,3.92,0,0,1,1.77-3.06C26.86,132.88,27.65,133.33,27.65,134.45Z"/><path class="cls-18" d="M55.4,100A3.9,3.9,0,0,1,53.63,103c-1,.57-1.77.11-1.77-1a3.92,3.92,0,0,1,1.77-3.06C54.61,98.38,55.4,98.83,55.4,100Z"/><path class="cls-19" d="M63.9,99A3.9,3.9,0,0,1,62.13,102c-1,.57-1.77.11-1.77-1a3.92,3.92,0,0,1,1.77-3.06C63.11,97.38,63.9,97.83,63.9,99Z"/><path class="cls-20" d="M65.53,106.83a3.88,3.88,0,0,1-1.77,3c-1,.57-1.78.12-1.78-1a3.89,3.89,0,0,1,1.78-3.05C64.74,105.25,65.53,105.7,65.53,106.83Z"/><path class="cls-21" d="M62.9,83.83a3.88,3.88,0,0,1-1.77,3c-1,.57-1.77.12-1.77-1a3.88,3.88,0,0,1,1.77-3.05C62.11,82.25,62.9,82.7,62.9,83.83Z"/><path class="cls-22" d="M76.15,68.79a3.88,3.88,0,0,1-1.77,3c-1,.57-1.77.12-1.77-1a3.92,3.92,0,0,1,1.77-3.06C75.36,67.21,76.15,67.66,76.15,68.79Z"/><path class="cls-23" d="M78.32,57.79a3.88,3.88,0,0,1-1.77,3.05c-1,.57-1.77.12-1.77-1a3.92,3.92,0,0,1,1.77-3.06C77.53,56.21,78.32,56.66,78.32,57.79Z"/><path class="cls-24" d="M75.82,80A3.9,3.9,0,0,1,74.05,83c-1,.57-1.77.11-1.77-1a3.92,3.92,0,0,1,1.77-3.06C75,78.38,75.82,78.83,75.82,80Z"/><path class="cls-25" d="M76.65,87.62a3.92,3.92,0,0,1-1.77,3.06c-1,.56-1.77.11-1.77-1a3.89,3.89,0,0,1,1.77-3.06C75.86,86,76.65,86.5,76.65,87.62Z"/><path class="cls-26" d="M71.28,80.58a3.88,3.88,0,0,1-1.77,3c-1,.57-1.78.12-1.78-1a3.89,3.89,0,0,1,1.78-3.05C70.49,79,71.28,79.45,71.28,80.58Z"/><path class="cls-27" d="M104.4,61.33a3.88,3.88,0,0,1-1.77,3c-1,.57-1.77.12-1.77-1a3.88,3.88,0,0,1,1.77-3C103.61,59.75,104.4,60.2,104.4,61.33Z"/><path class="cls-28" d="M59.65,92.29a3.88,3.88,0,0,1-1.77,3c-1,.57-1.77.12-1.77-1a3.92,3.92,0,0,1,1.77-3.06C58.86,90.71,59.65,91.16,59.65,92.29Z"/><path class="cls-29" d="M54,108.12a3.94,3.94,0,0,1-1.77,3.06c-1,.56-1.78.11-1.78-1a3.9,3.9,0,0,1,1.78-3.06C53.19,106.54,54,107,54,108.12Z"/><path class="cls-30" d="M47.32,100A3.9,3.9,0,0,1,45.55,103c-1,.57-1.77.11-1.77-1a3.92,3.92,0,0,1,1.77-3.06C46.53,98.38,47.32,98.83,47.32,100Z"/><path class="cls-31" d="M48,92.29a3.91,3.91,0,0,1-1.77,3c-1,.57-1.78.12-1.78-1a3.93,3.93,0,0,1,1.78-3.06C47.19,90.71,48,91.16,48,92.29Z"/><path class="cls-32" d="M39.65,124.79a3.88,3.88,0,0,1-1.77,3c-1,.57-1.77.12-1.77-1a3.92,3.92,0,0,1,1.77-3.06C38.86,123.21,39.65,123.66,39.65,124.79Z"/><path class="cls-33" d="M56.53,73.45a3.9,3.9,0,0,1-1.77,3.06c-1,.57-1.78.11-1.78-1a3.93,3.93,0,0,1,1.78-3.06C55.74,71.88,56.53,72.33,56.53,73.45Z"/><path class="cls-34" d="M85.49,75.29a3.91,3.91,0,0,1-1.77,3c-1,.57-1.78.12-1.78-1a3.93,3.93,0,0,1,1.78-3.06C84.69,73.71,85.49,74.16,85.49,75.29Z"/><path class="cls-35" d="M91.4,67.2a3.9,3.9,0,0,1-1.77,3.06c-1,.57-1.77.11-1.77-1a3.92,3.92,0,0,1,1.77-3.06C90.61,65.63,91.4,66.08,91.4,67.2Z"/><path class="cls-36" d="M97.07,60.2a3.9,3.9,0,0,1-1.77,3.06c-1,.57-1.77.11-1.77-1a3.92,3.92,0,0,1,1.77-3.06C96.28,58.63,97.07,59.08,97.07,60.2Z"/><path class="cls-37" d="M70.49,94.29a3.91,3.91,0,0,1-1.77,3c-1,.57-1.78.12-1.78-1a3.93,3.93,0,0,1,1.78-3.06C69.69,92.71,70.49,93.16,70.49,94.29Z"/><path class="cls-38" d="M87.65,66.45a3.9,3.9,0,0,1-1.77,3.06c-1,.57-1.77.11-1.77-1a3.92,3.92,0,0,1,1.77-3.06C86.86,64.88,87.65,65.33,87.65,66.45Z"/><path class="cls-39" d="M86.9,60.45a3.9,3.9,0,0,1-1.77,3.06c-1,.57-1.77.11-1.77-1a3.92,3.92,0,0,1,1.77-3.06C86.11,58.88,86.9,59.33,86.9,60.45Z"/><path class="cls-40" d="M87.15,55.62a3.92,3.92,0,0,1-1.77,3.06c-1,.56-1.77.11-1.77-1a3.89,3.89,0,0,1,1.77-3.06C86.36,54,87.15,54.5,87.15,55.62Z"/><path class="cls-41" d="M67.82,72A3.9,3.9,0,0,1,66.05,75c-1,.57-1.77.11-1.77-1a3.92,3.92,0,0,1,1.77-3.06C67,70.38,67.82,70.83,67.82,72Z"/><path class="cls-42" d="M81.53,70.83a3.88,3.88,0,0,1-1.77,3c-1,.57-1.78.12-1.78-1a3.89,3.89,0,0,1,1.78-3.05C80.74,69.25,81.53,69.7,81.53,70.83Z"/><path class="cls-43" d="M71.9,84.7a3.9,3.9,0,0,1-1.77,3.06c-1,.57-1.77.11-1.77-1a3.92,3.92,0,0,1,1.77-3.06C71.11,83.13,71.9,83.58,71.9,84.7Z"/><path class="cls-44" d="M77.07,63.37a3.92,3.92,0,0,1-1.77,3.06c-1,.56-1.77.11-1.77-1a3.89,3.89,0,0,1,1.77-3.06C76.28,61.79,77.07,62.25,77.07,63.37Z"/><path class="cls-45" d="M79,82.29a3.91,3.91,0,0,1-1.77,3c-1,.57-1.78.12-1.78-1a3.93,3.93,0,0,1,1.78-3.06C78.19,80.71,79,81.16,79,82.29Z"/><path class="cls-46" d="M55.15,84A3.9,3.9,0,0,1,53.38,87c-1,.57-1.77.11-1.77-1a3.92,3.92,0,0,1,1.77-3.06C54.36,82.38,55.15,82.83,55.15,84Z"/><path class="cls-47" d="M65.82,85.45a3.9,3.9,0,0,1-1.77,3.06c-1,.57-1.77.11-1.77-1a3.92,3.92,0,0,1,1.77-3.06C65,83.88,65.82,84.33,65.82,85.45Z"/><path class="cls-48" d="M51.15,68.12a3.92,3.92,0,0,1-1.77,3.06c-1,.56-1.77.11-1.77-1a3.89,3.89,0,0,1,1.77-3.06C50.36,66.54,51.15,67,51.15,68.12Z"/><path class="cls-49" d="M87.28,49.33a3.88,3.88,0,0,1-1.77,3.05c-1,.57-1.78.12-1.78-1a3.89,3.89,0,0,1,1.78-3C86.49,47.75,87.28,48.2,87.28,49.33Z"/><path class="cls-50" d="M83,61.45a3.9,3.9,0,0,1-1.77,3.06c-1,.57-1.78.11-1.78-1a3.93,3.93,0,0,1,1.78-3.06C82.24,59.88,83,60.33,83,61.45Z"/><path class="cls-51" d="M114.82,22.29a3.88,3.88,0,0,1-1.77,3.05c-1,.57-1.77.12-1.77-1a3.92,3.92,0,0,1,1.77-3.06C114,20.71,114.82,21.16,114.82,22.29Z"/><path class="cls-52" d="M77,96.08a3.88,3.88,0,0,1-1.77,3c-1,.57-1.78.12-1.78-1a3.89,3.89,0,0,1,1.78-3.05C76.24,94.5,77,95,77,96.08Z"/><path class="cls-53" d="M55.15,90.2a3.9,3.9,0,0,1-1.77,3.06c-1,.57-1.77.11-1.77-1a3.92,3.92,0,0,1,1.77-3.06C54.36,88.63,55.15,89.08,55.15,90.2Z"/><path class="cls-54" d="M41.65,82.54a3.88,3.88,0,0,1-1.77,3c-1,.57-1.77.12-1.77-1a3.92,3.92,0,0,1,1.77-3.06C40.86,81,41.65,81.41,41.65,82.54Z"/><path class="cls-55" d="M72,75.08a3.88,3.88,0,0,1-1.77,3c-1,.57-1.78.12-1.78-1a3.89,3.89,0,0,1,1.78-3.05C71.24,73.5,72,74,72,75.08Z"/><path class="cls-56" d="M76.9,50.58a3.88,3.88,0,0,1-1.77,3.05c-1,.57-1.77.12-1.77-1a3.88,3.88,0,0,1,1.77-3C76.11,49,76.9,49.45,76.9,50.58Z"/><path class="cls-57" d="M93.78,72.2A3.9,3.9,0,0,1,92,75.26c-1,.57-1.78.11-1.78-1A3.93,3.93,0,0,1,92,71.19C93,70.63,93.78,71.08,93.78,72.2Z"/><path class="cls-58" d="M112.28,47A3.9,3.9,0,0,1,110.51,50c-1,.57-1.78.11-1.78-1a3.93,3.93,0,0,1,1.78-3.06C111.49,45.38,112.28,45.83,112.28,47Z"/><path class="cls-59" d="M96.4,81.58a3.88,3.88,0,0,1-1.77,3c-1,.57-1.77.12-1.77-1a3.88,3.88,0,0,1,1.77-3.05C95.61,80,96.4,80.45,96.4,81.58Z"/><path class="cls-60" d="M53.15,81.2a3.9,3.9,0,0,1-1.77,3.06c-1,.57-1.77.11-1.77-1a3.92,3.92,0,0,1,1.77-3.06C52.36,79.63,53.15,80.08,53.15,81.2Z"/><path class="cls-61" d="M64.28,91.2a3.9,3.9,0,0,1-1.77,3.06c-1,.57-1.78.11-1.78-1a3.93,3.93,0,0,1,1.78-3.06C63.49,89.63,64.28,90.08,64.28,91.2Z"/><path class="cls-62" d="M63,64.2a3.9,3.9,0,0,1-1.77,3.06c-1,.57-1.78.11-1.78-1a3.93,3.93,0,0,1,1.78-3.06C62.24,62.63,63,63.08,63,64.2Z"/><path class="cls-63" d="M72.15,65.7a3.9,3.9,0,0,1-1.77,3.06c-1,.57-1.77.11-1.77-1a3.92,3.92,0,0,1,1.77-3.06C71.36,64.13,72.15,64.58,72.15,65.7Z"/><path class="cls-64" d="M91.28,59.7a3.9,3.9,0,0,1-1.77,3.06c-1,.57-1.78.11-1.78-1a3.93,3.93,0,0,1,1.78-3.06C90.49,58.13,91.28,58.58,91.28,59.7Z"/><path class="cls-65" d="M108,34.45a3.93,3.93,0,0,1-1.77,3.06c-1,.57-1.78.11-1.78-1a3.93,3.93,0,0,1,1.78-3.06C107.19,32.88,108,33.33,108,34.45Z"/><path class="cls-66" d="M96.65,39.7a3.9,3.9,0,0,1-1.77,3.06c-1,.57-1.77.11-1.77-1a3.92,3.92,0,0,1,1.77-3.06C95.86,38.13,96.65,38.58,96.65,39.7Z"/></g><ellipse class="cls-67" cx="69.95" cy="78.25" rx="77.03" ry="28.34" transform="translate(-35 78.9) rotate(-48.56)"/><g class="cls-5"><path class="cls-7" d="M101.47,105.75l5.43-1.14-2.26-1.31.61-.35,3,1.73-.49.28-5.55,1.23Z"/><path class="cls-7" d="M108.79,106.86c.44.25.67.52.69.8s-.16.54-.55.77a2.86,2.86,0,0,1-1.52.37,3.46,3.46,0,0,1-1.63-.49,2.29,2.29,0,0,1-.92-.8l.63-.36a1.64,1.64,0,0,0,.35.44,3.47,3.47,0,0,0,.5.38,2,2,0,0,0,.93.29,1.48,1.48,0,0,0,.87-.21c.52-.3.44-.64-.22-1a3.08,3.08,0,0,0-.37-.19l-.43-.17-.13-.28,2.28-1.13,2.27,1.31-.62.36-1.65-1-1.17.56.3.12A3.66,3.66,0,0,1,108.79,106.86Z"/><path class="cls-7" d="M116.42,109.39l-6.74,1.11-.58-.34,6.75-1.1Zm-3.24-.38a3.2,3.2,0,0,1-1.27.45,1.74,1.74,0,0,1-1.06-.22c-.3-.18-.42-.38-.35-.61a1.52,1.52,0,0,1,.76-.73,2.21,2.21,0,0,1,2.3-.23c.32.18.44.38.37.62S113.62,108.76,113.18,109Zm-1.34-.77a1.77,1.77,0,0,0-.57.43c-.09.12-.07.21.06.29s.69.06,1.27-.28.74-.58.48-.73a.64.64,0,0,0-.5,0A3,3,0,0,0,111.84,108.24Zm2.44,3.41a3.21,3.21,0,0,1-1.26.45,1.83,1.83,0,0,1-1.07-.22c-.3-.18-.41-.38-.35-.61a1.52,1.52,0,0,1,.76-.73,2.23,2.23,0,0,1,2.31-.23c.31.18.43.38.36.61S114.72,111.4,114.28,111.65Zm-1.34-.77a2,2,0,0,0-.57.43c-.09.12-.06.21.07.29s.68.05,1.27-.28.73-.58.47-.73a.62.62,0,0,0-.49,0A3.18,3.18,0,0,0,112.94,110.88Z"/><path class="cls-7" d="M77.44,120.76c.44.25.67.52.7.8s-.16.54-.56.77a2.75,2.75,0,0,1-1.52.37,3.49,3.49,0,0,1-1.63-.49,2.11,2.11,0,0,1-.91-.8l.63-.36a1.58,1.58,0,0,0,.34.44,2.6,2.6,0,0,0,.51.38,2,2,0,0,0,.93.29,1.47,1.47,0,0,0,.86-.21c.52-.3.44-.64-.22-1a3.24,3.24,0,0,0-.37-.18,4.21,4.21,0,0,0-.43-.17l-.13-.29,2.29-1.13,2.26,1.31-.62.36-1.65-1-1.17.56.3.12Z"/><path class="cls-7" d="M82,124a5.32,5.32,0,0,1-2,.76,2.62,2.62,0,0,1-1.66-.33q-.74-.42-.54-1a2.79,2.79,0,0,1,1.28-1.18,5.51,5.51,0,0,1,2.06-.76,2.6,2.6,0,0,1,1.65.33q.73.42.54,1A2.73,2.73,0,0,1,82,124Zm-2.25-1.3a3.17,3.17,0,0,0-1.08.84c-.13.21-.06.4.21.56a1.36,1.36,0,0,0,1,.11,4.93,4.93,0,0,0,1.45-.62,3.21,3.21,0,0,0,1.07-.83c.13-.22.07-.41-.2-.56a1.31,1.31,0,0,0-1-.12A5,5,0,0,0,79.76,122.72Z"/><path class="cls-7" d="M88.71,125.39,82,126.5l-.58-.34,6.74-1.1ZM85.47,125a3.25,3.25,0,0,1-1.27.45,1.79,1.79,0,0,1-1.07-.22c-.3-.18-.41-.38-.34-.61a1.52,1.52,0,0,1,.76-.73,2.21,2.21,0,0,1,2.3-.23c.31.18.44.38.37.62A1.52,1.52,0,0,1,85.47,125Zm-1.35-.77a2,2,0,0,0-.57.43.18.18,0,0,0,.07.29c.26.15.68.06,1.27-.28s.74-.58.48-.73a.65.65,0,0,0-.5,0A3.18,3.18,0,0,0,84.12,124.24Zm2.45,3.41a3.25,3.25,0,0,1-1.27.45,1.82,1.82,0,0,1-1.06-.22c-.3-.18-.42-.38-.35-.61a1.52,1.52,0,0,1,.76-.73,2.23,2.23,0,0,1,2.31-.23c.3.18.42.38.36.61S87,127.4,86.57,127.65Zm-1.34-.77a2,2,0,0,0-.57.43c-.09.12-.07.21.06.29s.69.05,1.27-.28.74-.58.48-.73a.64.64,0,0,0-.5,0A3.14,3.14,0,0,0,85.23,126.88Z"/><path class="cls-7" d="M48.5,139.17l-3-1.7.52-.31h2.25c.67,0,1.13,0,1.38,0a4.31,4.31,0,0,0,.63-.09,1.85,1.85,0,0,0,.48-.19c.19-.11.29-.24.28-.37s-.11-.26-.32-.38a2.33,2.33,0,0,0-.58-.22,4.76,4.76,0,0,0-.87-.13l.08-.48a5.57,5.57,0,0,1,1.14.16,3.45,3.45,0,0,1,.86.35c.4.23.62.48.66.74s-.13.5-.48.7a2.34,2.34,0,0,1-.67.26,4.73,4.73,0,0,1-.87.13c-.33,0-.82,0-1.48,0l-1.48,0,0,0,2.07,1.19Z"/><path class="cls-7" d="M53.36,138.86c.44.25.67.52.7.8s-.16.54-.56.77a2.84,2.84,0,0,1-1.52.37,3.49,3.49,0,0,1-1.63-.49,2.18,2.18,0,0,1-.91-.8l.63-.36a1.58,1.58,0,0,0,.34.44,3.07,3.07,0,0,0,.51.38,2,2,0,0,0,.93.29,1.47,1.47,0,0,0,.86-.21c.52-.3.45-.64-.22-1a3.08,3.08,0,0,0-.37-.19l-.42-.17-.13-.28,2.28-1.13,2.26,1.31-.62.36-1.64-1-1.18.56.3.12A2.42,2.42,0,0,1,53.36,138.86Z"/><path class="cls-7" d="M61,141.39l-6.74,1.11-.58-.34,6.74-1.1ZM57.76,141a3.3,3.3,0,0,1-1.27.45,1.78,1.78,0,0,1-1.07-.22c-.3-.18-.42-.38-.35-.61a1.55,1.55,0,0,1,.77-.73,2.21,2.21,0,0,1,2.3-.23c.31.18.43.38.37.62A1.52,1.52,0,0,1,57.76,141Zm-1.35-.77a2,2,0,0,0-.57.43c-.09.12-.06.21.07.29s.68.06,1.26-.28.75-.58.48-.73a.64.64,0,0,0-.5,0A3.14,3.14,0,0,0,56.41,140.24Zm2.45,3.41a3.3,3.3,0,0,1-1.27.45,1.8,1.8,0,0,1-1.06-.22c-.3-.18-.42-.38-.35-.61s.32-.48.76-.73a2.21,2.21,0,0,1,2.3-.23c.31.18.43.38.37.61S59.29,143.4,58.86,143.65Zm-1.34-.77a1.77,1.77,0,0,0-.57.43c-.09.12-.07.21.06.29s.68.05,1.27-.28.74-.58.48-.73a.64.64,0,0,0-.5,0A3,3,0,0,0,57.52,142.88Z"/></g><g class="cls-5"><path class="cls-7" d="M0,98.17A4.38,4.38,0,0,1,2.11,94a2.62,2.62,0,0,1,.55-.26v.67a1.89,1.89,0,0,0-.52.23,2.77,2.77,0,0,0-1.06,1A3.6,3.6,0,0,0,.7,97.3l0,0a2.29,2.29,0,0,1,.39-.65,2.22,2.22,0,0,1,.6-.5c.39-.23.7-.27.92-.11A1.07,1.07,0,0,1,3,97a3,3,0,0,1-.38,1.46,2.81,2.81,0,0,1-1,1.06,1.23,1.23,0,0,1-.81.21.72.72,0,0,1-.53-.44A2.61,2.61,0,0,1,0,98.17Zm1.52.65a1.42,1.42,0,0,0,.56-.58,1.93,1.93,0,0,0,.19-.88.69.69,0,0,0-.18-.57c-.12-.09-.31-.07-.55.07a1.7,1.7,0,0,0-.42.35,2.41,2.41,0,0,0-.3.48,1.23,1.23,0,0,0-.11.46.87.87,0,0,0,.23.68A.46.46,0,0,0,1.54,98.82Z"/><path class="cls-7" d="M6.6,94a5.27,5.27,0,0,1-.37,2.14,2.59,2.59,0,0,1-1.11,1.28c-.49.28-.85.28-1.1,0a2.75,2.75,0,0,1-.38-1.7A5.53,5.53,0,0,1,4,93.55a2.68,2.68,0,0,1,1.12-1.27c.48-.28.85-.28,1.1,0A2.73,2.73,0,0,1,6.6,94ZM4.35,95.3a3.28,3.28,0,0,0,.18,1.35c.12.22.32.26.59.1A1.34,1.34,0,0,0,5.71,96a5.28,5.28,0,0,0,.18-1.56,3.34,3.34,0,0,0-.18-1.35c-.13-.23-.32-.26-.59-.11a1.37,1.37,0,0,0-.59.78A5.27,5.27,0,0,0,4.35,95.3Z"/><path class="cls-7" d="M9.18,91.5a3.24,3.24,0,0,1-.24,1.32,1.83,1.83,0,0,1-.73.82c-.3.17-.53.17-.7,0a1.57,1.57,0,0,1-.25-1,2.23,2.23,0,0,1,1-2.11c.32-.18.55-.19.72,0A1.47,1.47,0,0,1,9.18,91.5Zm-1.34.78a1.92,1.92,0,0,0,.09.71c.06.13.15.16.28.08s.4-.56.4-1.23-.13-.93-.4-.78a.65.65,0,0,0-.28.41A2.92,2.92,0,0,0,7.84,92.28Zm3.29-3.4L8.72,95.27l-.58.34,2.42-6.39Zm.89,3a3.1,3.1,0,0,1-.25,1.33,1.78,1.78,0,0,1-.72.81c-.3.17-.53.17-.7,0a1.53,1.53,0,0,1-.25-1,2.24,2.24,0,0,1,1-2.11c.31-.18.55-.18.71,0A1.41,1.41,0,0,1,12,91.86Zm-1.34.78a1.92,1.92,0,0,0,.09.71.18.18,0,0,0,.28.09c.26-.15.39-.56.39-1.24s-.13-.93-.39-.78a.67.67,0,0,0-.28.41A2.92,2.92,0,0,0,10.68,92.64Z"/><path class="cls-7" d="M2.8,128.84a2,2,0,0,1-.24.93,2.64,2.64,0,0,1-.68.82v0a.92.92,0,0,1,.79-.08.68.68,0,0,1,.26.64,2.36,2.36,0,0,1-.45,1.37,3.65,3.65,0,0,1-1.26,1.12,2.88,2.88,0,0,1-1.22.44v-.72a2.17,2.17,0,0,0,.59-.09,3.42,3.42,0,0,0,.59-.26,2.38,2.38,0,0,0,.76-.65,1.39,1.39,0,0,0,.25-.82c0-.26-.09-.4-.28-.42a1.69,1.69,0,0,0-.87.31l-.38.22V131l.39-.23a1.7,1.7,0,0,0,1-1.42q0-.33-.18-.39a.66.66,0,0,0-.54.13,3,3,0,0,0-.47.35,5.59,5.59,0,0,0-.55.63L0,129.74a4.31,4.31,0,0,1,1.39-1.31,1.45,1.45,0,0,1,1-.27C2.68,128.24,2.8,128.46,2.8,128.84Z"/><path class="cls-7" d="M6.6,128a5.27,5.27,0,0,1-.37,2.14,2.59,2.59,0,0,1-1.11,1.28c-.49.28-.85.28-1.1,0a2.75,2.75,0,0,1-.38-1.7A5.53,5.53,0,0,1,4,127.55a2.68,2.68,0,0,1,1.12-1.27c.48-.28.85-.28,1.1,0A2.73,2.73,0,0,1,6.6,128Zm-2.25,1.3a3.28,3.28,0,0,0,.18,1.35c.12.22.32.26.59.1a1.34,1.34,0,0,0,.59-.78,5.28,5.28,0,0,0,.18-1.56,3.34,3.34,0,0,0-.18-1.35c-.13-.23-.32-.26-.59-.11a1.37,1.37,0,0,0-.59.78A5.27,5.27,0,0,0,4.35,129.3Z"/><path class="cls-7" d="M9.18,125.5a3.24,3.24,0,0,1-.24,1.32,1.83,1.83,0,0,1-.73.82c-.3.17-.53.17-.7,0a1.57,1.57,0,0,1-.25-1,2.23,2.23,0,0,1,1-2.11c.32-.18.55-.19.72,0A1.47,1.47,0,0,1,9.18,125.5Zm-1.34.78a1.92,1.92,0,0,0,.09.71c.06.13.15.16.28.08s.4-.56.4-1.23-.13-.93-.4-.78a.65.65,0,0,0-.28.41A2.92,2.92,0,0,0,7.84,126.28Zm3.29-3.4-2.41,6.39-.58.34,2.42-6.39Zm.89,3a3.1,3.1,0,0,1-.25,1.33,1.78,1.78,0,0,1-.72.81c-.3.17-.53.17-.7,0a1.53,1.53,0,0,1-.25-1,2.24,2.24,0,0,1,1-2.11c.31-.18.55-.18.71,0A1.41,1.41,0,0,1,12,125.86Zm-1.34.78a1.92,1.92,0,0,0,.09.71.18.18,0,0,0,.28.09c.26-.15.39-.56.39-1.24s-.13-.93-.39-.78a.67.67,0,0,0-.28.41A2.92,2.92,0,0,0,10.68,126.64Z"/></g></g></g></g></svg>