<svg xmlns="http://www.w3.org/2000/svg" viewBox="0 0 1920 1080"><defs><style>.cls-1,.cls-3,.cls-4{fill:none;}.cls-1{opacity:0.28;}.cls-2{opacity:0.2;}.cls-3,.cls-4{stroke:#000;stroke-miterlimit:10;stroke-width:6px;}.cls-4{stroke-dasharray:12.04 12.04;}.cls-5{fill:#fff;}</style></defs><title>bg-1</title><g id="Capa_2" data-name="Capa 2"><g id="_1" data-name="1"><rect class="cls-1" width="1920" height="1080"/><g class="cls-2"><path d="M314.57,159.77a2.1,2.1,0,0,0,2.1,2.09,2.1,2.1,0,0,0,0-4.19A2.11,2.11,0,0,0,314.57,159.77Z"/><path d="M314.57,171.24a2.11,2.11,0,0,0,2.1,2.1,2.1,2.1,0,0,0,0-4.19A2.11,2.11,0,0,0,314.57,171.24Z"/><path d="M314.57,182.62a2.11,2.11,0,0,0,2.1,2.1,2.1,2.1,0,0,0,0-4.2A2.11,2.11,0,0,0,314.57,182.62Z"/><path d="M314.57,194a2.11,2.11,0,0,0,2.1,2.09,2.1,2.1,0,0,0,0-4.19A2.11,2.11,0,0,0,314.57,194Z"/><path d="M314.57,205.37a2.11,2.11,0,0,0,2.1,2.1,2.1,2.1,0,1,0-2.1-2.1Z"/><path d="M303.2,159.77a2.1,2.1,0,0,0,2.09,2.09,2.1,2.1,0,1,0,0-4.19A2.1,2.1,0,0,0,303.2,159.77Z"/><path d="M303.2,171.24a2.1,2.1,0,0,0,2.09,2.1,2.1,2.1,0,1,0,0-4.19A2.1,2.1,0,0,0,303.2,171.24Z"/><path d="M303.2,182.62a2.1,2.1,0,0,0,2.09,2.1,2.1,2.1,0,0,0,0-4.2A2.1,2.1,0,0,0,303.2,182.62Z"/><path d="M303.2,194a2.1,2.1,0,0,0,2.09,2.09,2.1,2.1,0,1,0,0-4.19A2.1,2.1,0,0,0,303.2,194Z"/><path d="M303.2,205.37a2.1,2.1,0,0,0,2.09,2.1,2.1,2.1,0,1,0-2.09-2.1Z"/><path d="M291.82,159.77a2.1,2.1,0,0,0,2.1,2.09,2.1,2.1,0,0,0,0-4.19A2.11,2.11,0,0,0,291.82,159.77Z"/><path d="M291.82,171.24a2.11,2.11,0,0,0,2.1,2.1,2.1,2.1,0,0,0,0-4.19A2.11,2.11,0,0,0,291.82,171.24Z"/><path d="M291.82,182.62a2.11,2.11,0,0,0,2.1,2.1,2.1,2.1,0,0,0,0-4.2A2.11,2.11,0,0,0,291.82,182.62Z"/><path d="M291.82,194a2.11,2.11,0,0,0,2.1,2.09,2.1,2.1,0,0,0,0-4.19A2.11,2.11,0,0,0,291.82,194Z"/><path d="M291.82,205.37a2.11,2.11,0,0,0,2.1,2.1,2.1,2.1,0,1,0-2.1-2.1Z"/><path d="M280.34,159.77a2.1,2.1,0,0,0,2.1,2.09,2.1,2.1,0,1,0,0-4.19A2.11,2.11,0,0,0,280.34,159.77Z"/><path d="M280.34,171.24a2.11,2.11,0,0,0,2.1,2.1,2.1,2.1,0,1,0,0-4.19A2.11,2.11,0,0,0,280.34,171.24Z"/><path d="M280.34,182.62a2.11,2.11,0,0,0,2.1,2.1,2.1,2.1,0,1,0,0-4.2A2.11,2.11,0,0,0,280.34,182.62Z"/><path d="M280.34,194a2.11,2.11,0,0,0,2.1,2.09,2.1,2.1,0,1,0,0-4.19A2.11,2.11,0,0,0,280.34,194Z"/><path d="M280.34,205.37a2.11,2.11,0,0,0,2.1,2.1,2.1,2.1,0,1,0-2.1-2.1Z"/><path d="M269,159.77a2.1,2.1,0,0,0,2.09,2.09,2.1,2.1,0,1,0,0-4.19A2.11,2.11,0,0,0,269,159.77Z"/><path d="M269,171.24a2.11,2.11,0,0,0,2.09,2.1,2.1,2.1,0,1,0,0-4.19A2.11,2.11,0,0,0,269,171.24Z"/><path d="M269,182.62a2.11,2.11,0,0,0,2.09,2.1,2.1,2.1,0,1,0,0-4.2A2.11,2.11,0,0,0,269,182.62Z"/><path d="M269,194a2.11,2.11,0,0,0,2.09,2.09,2.1,2.1,0,1,0,0-4.19A2.11,2.11,0,0,0,269,194Z"/><path d="M269,205.37a2.11,2.11,0,0,0,2.09,2.1,2.1,2.1,0,1,0-2.09-2.1Z"/></g><g class="cls-2"><path d="M220.57,706.77a2.1,2.1,0,0,0,2.1,2.09,2.1,2.1,0,0,0,0-4.19A2.11,2.11,0,0,0,220.57,706.77Z"/><path d="M220.57,718.24a2.11,2.11,0,0,0,2.1,2.1,2.1,2.1,0,0,0,0-4.19A2.11,2.11,0,0,0,220.57,718.24Z"/><path d="M220.57,729.62a2.11,2.11,0,0,0,2.1,2.1,2.1,2.1,0,0,0,0-4.2A2.11,2.11,0,0,0,220.57,729.62Z"/><path d="M220.57,741a2.11,2.11,0,0,0,2.1,2.09,2.1,2.1,0,0,0,0-4.19A2.11,2.11,0,0,0,220.57,741Z"/><path d="M220.57,752.37a2.11,2.11,0,0,0,2.1,2.1,2.1,2.1,0,1,0-2.1-2.1Z"/><path d="M209.2,706.77a2.1,2.1,0,0,0,2.09,2.09,2.1,2.1,0,1,0,0-4.19A2.1,2.1,0,0,0,209.2,706.77Z"/><path d="M209.2,718.24a2.1,2.1,0,0,0,2.09,2.1,2.1,2.1,0,1,0,0-4.19A2.1,2.1,0,0,0,209.2,718.24Z"/><path d="M209.2,729.62a2.1,2.1,0,0,0,2.09,2.1,2.1,2.1,0,0,0,0-4.2A2.1,2.1,0,0,0,209.2,729.62Z"/><path d="M209.2,741a2.1,2.1,0,0,0,2.09,2.09,2.1,2.1,0,1,0,0-4.19A2.1,2.1,0,0,0,209.2,741Z"/><path d="M209.2,752.37a2.1,2.1,0,0,0,2.09,2.1,2.1,2.1,0,1,0-2.09-2.1Z"/><path d="M197.82,706.77a2.1,2.1,0,0,0,2.1,2.09,2.1,2.1,0,0,0,0-4.19A2.11,2.11,0,0,0,197.82,706.77Z"/><path d="M197.82,718.24a2.11,2.11,0,0,0,2.1,2.1,2.1,2.1,0,0,0,0-4.19A2.11,2.11,0,0,0,197.82,718.24Z"/><path d="M197.82,729.62a2.11,2.11,0,0,0,2.1,2.1,2.1,2.1,0,0,0,0-4.2A2.11,2.11,0,0,0,197.82,729.62Z"/><path d="M197.82,741a2.11,2.11,0,0,0,2.1,2.09,2.1,2.1,0,0,0,0-4.19A2.11,2.11,0,0,0,197.82,741Z"/><path d="M197.82,752.37a2.11,2.11,0,0,0,2.1,2.1,2.1,2.1,0,1,0-2.1-2.1Z"/><path d="M186.34,706.77a2.1,2.1,0,0,0,2.1,2.09,2.1,2.1,0,1,0,0-4.19A2.11,2.11,0,0,0,186.34,706.77Z"/><path d="M186.34,718.24a2.11,2.11,0,0,0,2.1,2.1,2.1,2.1,0,1,0,0-4.19A2.11,2.11,0,0,0,186.34,718.24Z"/><path d="M186.34,729.62a2.11,2.11,0,0,0,2.1,2.1,2.1,2.1,0,0,0,0-4.2A2.11,2.11,0,0,0,186.34,729.62Z"/><path d="M186.34,741a2.11,2.11,0,0,0,2.1,2.09,2.1,2.1,0,1,0,0-4.19A2.11,2.11,0,0,0,186.34,741Z"/><path d="M186.34,752.37a2.11,2.11,0,0,0,2.1,2.1,2.1,2.1,0,1,0-2.1-2.1Z"/><path d="M175,706.77a2.1,2.1,0,0,0,2.09,2.09,2.1,2.1,0,1,0,0-4.19A2.11,2.11,0,0,0,175,706.77Z"/><path d="M175,718.24a2.11,2.11,0,0,0,2.09,2.1,2.1,2.1,0,1,0,0-4.19A2.11,2.11,0,0,0,175,718.24Z"/><path d="M175,729.62a2.11,2.11,0,0,0,2.09,2.1,2.1,2.1,0,0,0,0-4.2A2.11,2.11,0,0,0,175,729.62Z"/><path d="M175,741a2.11,2.11,0,0,0,2.09,2.09,2.1,2.1,0,1,0,0-4.19A2.11,2.11,0,0,0,175,741Z"/><path d="M175,752.37a2.11,2.11,0,0,0,2.09,2.1,2.1,2.1,0,1,0-2.09-2.1Z"/></g><g class="cls-2"><path d="M1518.25,946.7c-1.4-1.89-3.19-4.19-6.79-4.19V946c1.8,0,2.6,1,4,2.8s3.19,4.19,6.78,4.19,5.39-2.3,6.79-4.19,2.29-2.8,4-2.8,2.59,1,4,2.8,3.19,4.19,6.78,4.19,5.39-2.3,6.79-4.19,2.3-2.8,4-2.8,2.6,1,4,2.8,3.2,4.19,6.79,4.19,5.29-2.3,6.79-4.19,2.29-2.8,4-2.8,2.59,1,4,2.8,3.19,4.19,6.79,4.19,5.38-2.3,6.78-4.19,2.3-2.8,4-2.8,2.6,1,4,2.8,3.19,4.19,6.78,4.19,5.29-2.3,6.79-4.19,2.29-2.8,4-2.8,2.59,1,4,2.8,3.19,4.19,6.79,4.19V949.6c-1.8,0-2.6-1-4-2.8s-3.19-4.19-6.78-4.19-5.29,2.3-6.79,4.19-2.29,2.8-4,2.8-2.59-1-4-2.8-3.19-4.19-6.79-4.19-5.39,2.3-6.78,4.19-2.3,2.8-4,2.8-2.6-1-4-2.8-3.19-4.19-6.78-4.19-5.39,2.3-6.79,4.19-2.29,2.8-4,2.8-2.59-1-4-2.8-3.19-4.19-6.79-4.19-5.39,2.3-6.78,4.19-2.3,2.8-4,2.8-2.59-1-4-2.8-3.19-4.19-6.78-4.19-5.39,2.3-6.79,4.19-2.29,2.8-4,2.8S1519.65,948.5,1518.25,946.7Z"/><path d="M1518.25,959.38c-1.4-1.9-3.19-4.19-6.79-4.19v3.49c1.8,0,2.6,1,4,2.79s3.19,4.19,6.78,4.19,5.39-2.29,6.79-4.19,2.29-2.79,4-2.79,2.59,1,4,2.79,3.19,4.19,6.78,4.19,5.39-2.29,6.79-4.19,2.3-2.79,4-2.79,2.6,1,4,2.79,3.2,4.19,6.79,4.19,5.29-2.29,6.79-4.19,2.29-2.79,4-2.79,2.59,1,4,2.79,3.19,4.19,6.79,4.19,5.38-2.29,6.78-4.19,2.3-2.79,4-2.79,2.6,1,4,2.79,3.19,4.19,6.78,4.19,5.29-2.29,6.79-4.19,2.29-2.79,4-2.79,2.59,1,4,2.79,3.19,4.19,6.79,4.19v-3.49c-1.8,0-2.6-1-4-2.79s-3.19-4.19-6.78-4.19-5.29,2.29-6.79,4.19-2.29,2.79-4,2.79-2.59-1-4-2.79-3.19-4.19-6.79-4.19-5.39,2.29-6.78,4.19-2.3,2.79-4,2.79-2.6-1-4-2.79-3.19-4.19-6.78-4.19-5.39,2.29-6.79,4.19-2.29,2.79-4,2.79-2.59-1-4-2.79-3.19-4.19-6.79-4.19-5.39,2.29-6.78,4.19-2.3,2.79-4,2.79-2.59-1-4-2.79-3.19-4.19-6.78-4.19-5.39,2.29-6.79,4.19-2.29,2.79-4,2.79S1519.65,961.17,1518.25,959.38Z"/><path d="M1518.25,972c-1.4-1.9-3.19-4.19-6.79-4.19v3.49c1.8,0,2.6,1,4,2.8s3.19,4.19,6.78,4.19,5.39-2.3,6.79-4.19,2.29-2.8,4-2.8,2.59,1,4,2.8,3.19,4.19,6.78,4.19,5.39-2.3,6.79-4.19,2.3-2.8,4-2.8,2.6,1,4,2.8,3.2,4.19,6.79,4.19,5.29-2.3,6.79-4.19,2.29-2.8,4-2.8,2.59,1,4,2.8,3.19,4.19,6.79,4.19,5.38-2.3,6.78-4.19,2.3-2.8,4-2.8,2.6,1,4,2.8,3.19,4.19,6.78,4.19,5.29-2.3,6.79-4.19,2.29-2.8,4-2.8,2.59,1,4,2.8,3.19,4.19,6.79,4.19v-3.5c-1.8,0-2.6-1-4-2.79s-3.19-4.19-6.78-4.19-5.29,2.29-6.79,4.19-2.29,2.79-4,2.79-2.59-1-4-2.79-3.19-4.19-6.79-4.19-5.39,2.29-6.78,4.19-2.3,2.79-4,2.79-2.6-1-4-2.79-3.19-4.19-6.78-4.19-5.39,2.29-6.79,4.19-2.29,2.79-4,2.79-2.59-1-4-2.79-3.19-4.19-6.79-4.19-5.39,2.29-6.78,4.19-2.3,2.79-4,2.79-2.59-1-4-2.79-3.19-4.19-6.78-4.19-5.39,2.29-6.79,4.19-2.29,2.79-4,2.79S1519.65,973.75,1518.25,972Z"/></g><g class="cls-2"><path d="M790.25,517.7c-1.4-1.89-3.19-4.19-6.79-4.19V517c1.8,0,2.6,1,4,2.8s3.19,4.19,6.78,4.19,5.39-2.3,6.79-4.19,2.29-2.8,4-2.8,2.59,1,4,2.8,3.19,4.19,6.78,4.19,5.39-2.3,6.79-4.19,2.3-2.8,4-2.8,2.6,1,4,2.8,3.2,4.19,6.79,4.19,5.29-2.3,6.79-4.19,2.29-2.8,4-2.8,2.59,1,4,2.8,3.19,4.19,6.79,4.19,5.38-2.3,6.78-4.19,2.3-2.8,4-2.8,2.6,1,4,2.8,3.19,4.19,6.78,4.19,5.29-2.3,6.79-4.19,2.29-2.8,4-2.8,2.59,1,4,2.8S898.42,524,902,524V520.6c-1.8,0-2.6-1-4-2.8s-3.19-4.19-6.78-4.19-5.29,2.3-6.79,4.19-2.29,2.8-4,2.8-2.59-1-4-2.8-3.19-4.19-6.79-4.19-5.39,2.3-6.78,4.19-2.3,2.8-4,2.8-2.6-1-4-2.8-3.19-4.19-6.78-4.19-5.39,2.3-6.79,4.19-2.29,2.8-4,2.8-2.59-1-4-2.8-3.19-4.19-6.79-4.19-5.39,2.3-6.78,4.19-2.3,2.8-4,2.8-2.59-1-4-2.8-3.19-4.19-6.78-4.19-5.39,2.3-6.79,4.19-2.29,2.8-4,2.8S791.65,519.5,790.25,517.7Z"/><path d="M790.25,530.38c-1.4-1.9-3.19-4.19-6.79-4.19v3.49c1.8,0,2.6,1,4,2.79s3.19,4.19,6.78,4.19,5.39-2.29,6.79-4.19,2.29-2.79,4-2.79,2.59,1,4,2.79,3.19,4.19,6.78,4.19,5.39-2.29,6.79-4.19,2.3-2.79,4-2.79,2.6,1,4,2.79,3.2,4.19,6.79,4.19,5.29-2.29,6.79-4.19,2.29-2.79,4-2.79,2.59,1,4,2.79,3.19,4.19,6.79,4.19,5.38-2.29,6.78-4.19,2.3-2.79,4-2.79,2.6,1,4,2.79,3.19,4.19,6.78,4.19,5.29-2.29,6.79-4.19,2.29-2.79,4-2.79,2.59,1,4,2.79,3.19,4.19,6.79,4.19v-3.49c-1.8,0-2.6-1-4-2.79s-3.19-4.19-6.78-4.19-5.29,2.29-6.79,4.19-2.29,2.79-4,2.79-2.59-1-4-2.79-3.19-4.19-6.79-4.19-5.39,2.29-6.78,4.19-2.3,2.79-4,2.79-2.6-1-4-2.79-3.19-4.19-6.78-4.19-5.39,2.29-6.79,4.19-2.29,2.79-4,2.79-2.59-1-4-2.79-3.19-4.19-6.79-4.19-5.39,2.29-6.78,4.19-2.3,2.79-4,2.79-2.59-1-4-2.79-3.19-4.19-6.78-4.19-5.39,2.29-6.79,4.19-2.29,2.79-4,2.79S791.65,532.17,790.25,530.38Z"/><path d="M790.25,543c-1.4-1.9-3.19-4.19-6.79-4.19v3.49c1.8,0,2.6,1,4,2.8s3.19,4.19,6.78,4.19,5.39-2.3,6.79-4.19,2.29-2.8,4-2.8,2.59,1,4,2.8,3.19,4.19,6.78,4.19,5.39-2.3,6.79-4.19,2.3-2.8,4-2.8,2.6,1,4,2.8,3.2,4.19,6.79,4.19,5.29-2.3,6.79-4.19,2.29-2.8,4-2.8,2.59,1,4,2.8,3.19,4.19,6.79,4.19,5.38-2.3,6.78-4.19,2.3-2.8,4-2.8,2.6,1,4,2.8,3.19,4.19,6.78,4.19,5.29-2.3,6.79-4.19,2.29-2.8,4-2.8,2.59,1,4,2.8,3.19,4.19,6.79,4.19v-3.5c-1.8,0-2.6-1-4-2.79s-3.19-4.19-6.78-4.19-5.29,2.29-6.79,4.19-2.29,2.79-4,2.79-2.59-1-4-2.79-3.19-4.19-6.79-4.19-5.39,2.29-6.78,4.19-2.3,2.79-4,2.79-2.6-1-4-2.79-3.19-4.19-6.78-4.19-5.39,2.29-6.79,4.19-2.29,2.79-4,2.79-2.59-1-4-2.79-3.19-4.19-6.79-4.19-5.39,2.29-6.78,4.19-2.3,2.79-4,2.79-2.59-1-4-2.79-3.19-4.19-6.78-4.19-5.39,2.29-6.79,4.19-2.29,2.79-4,2.79S791.65,544.75,790.25,543Z"/></g><g class="cls-2"><path d="M1675.25,191.7c-1.4-1.89-3.19-4.19-6.79-4.19V191c1.8,0,2.6,1,4,2.8s3.19,4.19,6.78,4.19,5.39-2.3,6.79-4.19,2.29-2.8,4-2.8,2.59,1,4,2.8,3.19,4.19,6.78,4.19,5.39-2.3,6.79-4.19,2.3-2.8,4-2.8,2.6,1,4,2.8,3.2,4.19,6.79,4.19,5.29-2.3,6.79-4.19,2.29-2.8,4-2.8,2.59,1,4,2.8,3.19,4.19,6.79,4.19,5.38-2.3,6.78-4.19,2.3-2.8,4-2.8,2.6,1,4,2.8,3.19,4.19,6.78,4.19,5.29-2.3,6.79-4.19,2.29-2.8,4-2.8,2.59,1,4,2.8,3.19,4.19,6.79,4.19V194.6c-1.8,0-2.6-1-4-2.8s-3.19-4.19-6.78-4.19-5.29,2.3-6.79,4.19-2.29,2.8-4,2.8-2.59-1-4-2.8-3.19-4.19-6.79-4.19-5.39,2.3-6.78,4.19-2.3,2.8-4,2.8-2.6-1-4-2.8-3.19-4.19-6.78-4.19-5.39,2.3-6.79,4.19-2.29,2.8-4,2.8-2.59-1-4-2.8-3.19-4.19-6.79-4.19-5.39,2.3-6.78,4.19-2.3,2.8-4,2.8-2.59-1-4-2.8-3.19-4.19-6.78-4.19-5.39,2.3-6.79,4.19-2.29,2.8-4,2.8S1676.65,193.5,1675.25,191.7Z"/><path d="M1675.25,204.38c-1.4-1.9-3.19-4.19-6.79-4.19v3.49c1.8,0,2.6,1,4,2.79s3.19,4.19,6.78,4.19,5.39-2.29,6.79-4.19,2.29-2.79,4-2.79,2.59,1,4,2.79,3.19,4.19,6.78,4.19,5.39-2.29,6.79-4.19,2.3-2.79,4-2.79,2.6,1,4,2.79,3.2,4.19,6.79,4.19,5.29-2.29,6.79-4.19,2.29-2.79,4-2.79,2.59,1,4,2.79,3.19,4.19,6.79,4.19,5.38-2.29,6.78-4.19,2.3-2.79,4-2.79,2.6,1,4,2.79,3.19,4.19,6.78,4.19,5.29-2.29,6.79-4.19,2.29-2.79,4-2.79,2.59,1,4,2.79,3.19,4.19,6.79,4.19v-3.49c-1.8,0-2.6-1-4-2.79s-3.19-4.19-6.78-4.19-5.29,2.29-6.79,4.19-2.29,2.79-4,2.79-2.59-1-4-2.79-3.19-4.19-6.79-4.19-5.39,2.29-6.78,4.19-2.3,2.79-4,2.79-2.6-1-4-2.79-3.19-4.19-6.78-4.19-5.39,2.29-6.79,4.19-2.29,2.79-4,2.79-2.59-1-4-2.79-3.19-4.19-6.79-4.19-5.39,2.29-6.78,4.19-2.3,2.79-4,2.79-2.59-1-4-2.79-3.19-4.19-6.78-4.19-5.39,2.29-6.79,4.19-2.29,2.79-4,2.79S1676.65,206.17,1675.25,204.38Z"/><path d="M1675.25,217c-1.4-1.9-3.19-4.19-6.79-4.19v3.49c1.8,0,2.6,1,4,2.8s3.19,4.19,6.78,4.19,5.39-2.3,6.79-4.19,2.29-2.8,4-2.8,2.59,1,4,2.8,3.19,4.19,6.78,4.19,5.39-2.3,6.79-4.19,2.3-2.8,4-2.8,2.6,1,4,2.8,3.2,4.19,6.79,4.19,5.29-2.3,6.79-4.19,2.29-2.8,4-2.8,2.59,1,4,2.8,3.19,4.19,6.79,4.19,5.38-2.3,6.78-4.19,2.3-2.8,4-2.8,2.6,1,4,2.8,3.19,4.19,6.78,4.19,5.29-2.3,6.79-4.19,2.29-2.8,4-2.8,2.59,1,4,2.8,3.19,4.19,6.79,4.19v-3.5c-1.8,0-2.6-1-4-2.79s-3.19-4.19-6.78-4.19-5.29,2.29-6.79,4.19-2.29,2.79-4,2.79-2.59-1-4-2.79-3.19-4.19-6.79-4.19-5.39,2.29-6.78,4.19-2.3,2.79-4,2.79-2.6-1-4-2.79-3.19-4.19-6.78-4.19-5.39,2.29-6.79,4.19-2.29,2.79-4,2.79-2.59-1-4-2.79-3.19-4.19-6.79-4.19-5.39,2.29-6.78,4.19-2.3,2.79-4,2.79-2.59-1-4-2.79-3.19-4.19-6.78-4.19-5.39,2.29-6.79,4.19-2.29,2.79-4,2.79S1676.65,218.75,1675.25,217Z"/></g><g class="cls-2"><path class="cls-3" d="M1075.57,150.53q-1.39,2.67-2.76,5.33"/><path class="cls-4" d="M1067.35,166.6c-31,61.64-51.43,115.16-35.81,127.16,31,23.78,182.54-131.84,203.53-113.58,24.25,21.11-161.5,243.7-134.29,269.8,31.41,30.14,317.21-229.82,345.13-203.08,30.79,29.5-288.12,373.56-252.3,410.5C1233.17,698.19,1672.77,331,1702.92,364c25.73,28.2-266.4,326.83-242.4,351.08,19.11,19.3,221.77-152.34,254.81-120.61,20.14,19.35-39.64,98.07-15.13,122.08,8.34,8.16,24.17,7.79,44.1,2.08"/><path class="cls-3" d="M1750.06,716.85c1.86-.6,3.76-1.25,5.68-1.93"/><path class="cls-5" d="M1061.42,144.17a15.56,15.56,0,1,1,6.63,21A15.56,15.56,0,0,1,1061.42,144.17Z"/><path d="M1059.58,143.21a17.64,17.64,0,1,0,23.78-7.51,17.68,17.68,0,0,0-23.78,7.51C1055.1,151.84,1064.07,134.59,1059.58,143.21Zm27.62,14.37a13.5,13.5,0,1,1-5.75-18.2,13.5,13.5,0,0,1,5.75,18.2Z"/><path d="M1760,727.51c1.55-.76,3.75-1.78,7.13-3.14,1.57-.63,1.65-1.43,1-4.36-.29-1.27.88-1,2-2,1-1-.07-3.82-.07-3.82-.26-.63.07-.79.31-.79,5.36-.1,8.84-5.11,9.16-4.66,1.85,1.91,4,.72,4.07,0a2.09,2.09,0,0,0,2.73.74c1.32-1.7,1.06-2.38,2.08-3.34,1.79-1.94.85-2.77,2.92-3.82,1.51-.77,1.91-1.26,2.13-1.75.9-2.28-1.42-3.76-2.7-4-.36-1.8-3.61-2.74-4.76-3.86a13,13,0,0,0,3.2-2.34c.76-.7.74-.16,2.23-1a11.53,11.53,0,0,0,3.26-2.3c.31-.35,2.36-1.22,3.26-2.05a3.32,3.32,0,0,0,1.06-5c-.08-.11-.11-.09-.74.19-.82.44-2.54.67-3.69,1.42a22.27,22.27,0,0,0-2.42,1.08c-1.59.4-2.49,1.27-4.47,1.42-.29,0-.13.26-.72.46-.32.1-.39-.16-1.23.35s-2.32,1-3.56,1.6-2.33.73-5.47,1.82c-1.28.44-2.51.31-3.21,1.17-1.07,1.3-4.94,5.54-9,10.37-.09.1-.42.56-1,0-1-.81-1.25-.35-3.25.62-1.47.58-.89-1-2.47-.26-2.43,1.14-3.3,1.77-6.91,3.29-1.47.62-1.89.74-1.46,1.78l9.7,21.79A.65.65,0,0,0,1760,727.51Z"/><path class="cls-5" d="M1798.48,680.94c.51.92-1.38,1.48-2.15,1.65-.46.11-1.08-.42-.72-.76l2.74-.93A.12.12,0,0,1,1798.48,680.94Z"/><path class="cls-5" d="M1789.29,698.49c-1,.62-.68,1-1.26,1.17-.78.22-.25-.34-2.72.83-.73.32-1.14.45-1.49,1-.33-.09-1-.11-1.27.42-1,.22-.71,0-2.09,1-1.86,1.4-2.65.73-3.82.69a1.41,1.41,0,0,0-1,.28c-3.61,2.16-2,1.41-7.4,3.45-2,.47-3.14-.2-4.16-2.72-1.11-2.88-.33-2.76.92-4.11,5-5.58,8.17-9.84,9.86-10.45,4.66-2,4.19-.77,10.22-3.68,1.83-1.1,2.22-.08,2.89-.52.41-.55-.17-.64,1.78-1.3,4-1.35,4.42-2.33,5-1.89.82.6,1,1.11,3.41-.19a3,3,0,0,0,.37-.22c.27-.2.36,0,.17.33a8.1,8.1,0,0,1-4.25,2.83c-1.43.38-.5.59-2.71,1.58-1,.36-1.6.63-1.93.7a9,9,0,0,1-3.35,1.79c-.82.14-1.28.06-1.78.72a8,8,0,0,1-4,2.52c-2.68.82-2.76.27-2.93.58-.4.71,1.18,1,.36,2.52-.43.78-2-.89-2.62-.58-.35.23-.27.61.1.94.17.16,1.42,1,1,1.69-.69,1.22-3.55-.23-4.56,1.34-.21.41.31.61.68.39a4.48,4.48,0,0,1,2.78,0,17,17,0,0,0,3.89.34c2.79-.08,3.26-1.16,3.95-.74s1-.72,1.77-1.23c1.47-1,5.69-1.28,5.7-.32,0,.32-.27.41-.62.49A2.55,2.55,0,0,0,1789.29,698.49Z"/><path class="cls-5" d="M1789.27,700.84c0-1,0-1.07.7-1.57s2.79-.74,2.9.19c-.09.35-.89.73-1.36,1.08S1789.42,701.85,1789.27,700.84Z"/><path class="cls-5" d="M1768.31,717.86c.76-.39.64-.9.54-1.46-.15-.81-2-3.6-3.8-7.38a56.82,56.82,0,0,1-2.85-7.08c-.19-.52-.06-1.34-.77-1.06-2.33.88-3.1,1-2.68,3,.51,2.28,4.07,10.42,6.51,14.44C1765.6,718.54,1765.43,719.41,1768.31,717.86Z"/></g></g></g></svg>