<svg xmlns="http://www.w3.org/2000/svg" viewBox="0 0 1165.52 716.32"><defs><style>.cls-1,.cls-2{fill:none;}.cls-1,.cls-2,.cls-4{stroke:#000;stroke-miterlimit:10;stroke-width:4px;}.cls-2{stroke-dasharray:12.97 9.98;}.cls-3,.cls-4{fill:#fff;}</style></defs><title>bg-l-1</title><g id="Capa_2" data-name="Capa 2"><g id="_1" data-name="1"><path class="cls-1" d="M1153.77,67.48c-1.48-1.59-3-3.15-4.51-4.67"/><path class="cls-2" d="M1142,55.93C1085.5,4.78,1009.23-5.63,991.72,6.71c-69.65,49.08,49.69,182.7-32.4,211.93-53,18.86-126.91-181.93-228.11-142.59C608.37,123.8,839.83,383.54,736.6,461.59,615.37,553.26,493.49,180.44,372.41,253.38c-111.86,67.4,55.69,276.58-67,347-75,43-117.65-143.32-210-115.24-108,32.84-27.68,175.3-74.75,213.68"/><path class="cls-1" d="M16.58,701.68a39,39,0,0,1-5.83,2.87"/><path class="cls-3" d="M1161.35,60.39a10.38,10.38,0,1,1-14.66-.49A10.37,10.37,0,0,1,1161.35,60.39Z"/><path d="M1162.36,59.45a11.76,11.76,0,1,0-.56,16.62,11.78,11.78,0,0,0,.56-16.62ZM1147.2,73.62a9,9,0,1,1,12.72.43,9,9,0,0,1-12.72-.43C1143.81,70,1150.59,77.25,1147.2,73.62Z"/><polygon points="17.34 716.32 7.5 691.47 0 708.81 17.34 716.32"/><circle class="cls-4" cx="966.95" cy="213.32" r="11.5"/><circle class="cls-4" cx="695.5" cy="151.03" r="10.5"/><circle class="cls-4" cx="689.06" cy="475.43" r="13.5"/><circle class="cls-4" cx="331" cy="329.57" r="10.5"/><circle class="cls-4" cx="132.71" cy="485.76" r="11.5"/></g></g></svg>