<svg xmlns="http://www.w3.org/2000/svg" viewBox="0 0 105.59 108.22"><defs><style>.cls-1{fill:none;stroke:#fff;stroke-miterlimit:10;stroke-width:0.5px;fill-rule:evenodd;}</style></defs><title>img-product-2</title><g id="Capa_2" data-name="Capa 2"><g id="doodle"><path class="cls-1" d="M14,104.77c3.05-.09,5.72.11,9,.09.22-.65-.36-1,.16-1.42.83.08.21.93.35,1.38,3.1-.15,6.13,0,9.17,0,.22-.39-.08-1.36.61-1.12.17.41-.16.76-.21,1.13,3.26,0,6.77.14,10.31.08,0-.31-.19-.44-.14-.8.14-.18.3-.11.12-.39.53.07.39.83.48,1.15,3.73.31,6.8.16,10.47.15.13-.43,0-1.13.39-1.3.15,0,.17.18.34.19,0,.34-.47.62-.33,1.12,3.38.31,7,.09,10.93.22.11-.45-.2-.68,0-1,.18,0,.27,0,.4,0a3.72,3.72,0,0,0,.07,1.14c3.16,0,6.45.36,10,.41.32-.34.05-1.32.46-1.58.36.07.16.66.54.71-.06.16-.34.1-.51.15.13.15,0,.59.08.74a57.22,57.22,0,0,1,10,.3c-.09-.63-.82-.66-1.16-1.06.54-.6,1.21,0,1.76.17.26.07.57,0,.85.09,1.34.31,2.69,1,4.23,1.23.8.13,1.62,0,2.27.37-.58.42-1.44.13-2.29.2-1.85.16-4.31.16-6.13.87a3,3,0,0,1-.68,0c.13-.8,1-.8,1.47-1.26-1.08-.5-2.76-.4-4.37-.55a45,45,0,0,0-6,0c-.25.48,0,.88.06,1.42-.21,0-.38.26-.52.15.11-.7,0-.91,0-1.48-3.3-.2-7.18-.44-10.06-.47-.25.42,0,.92,0,1.31a2.42,2.42,0,0,1-.46.27c-.14-.49.1-1,.05-1.6-3.89-.27-7,0-10.93-.22a2.61,2.61,0,0,0,.25,1.15c-.22,0-.34.16-.52.21-.09-.43,0-1-.12-1.43-3.89,0-7,.06-10.48,0,0,.43.54,1.11-.05,1.42-.62-.16-.14-.83-.41-1.44-3.26,0-6.78-.18-10.25-.08-.16.4-.3,1.13,0,1.43-.14.1-.39.29-.52.21a9.19,9.19,0,0,1,0-1.66c-2.49-.2-5.29.08-7.69-.21-.39.23-.93,0-1.42.17-.08.24-.14.58.08.69-.12.18-.38.21-.41.5-.25-.15-.17-.8-.08-1.09-1.67-.12-3.55-.07-5.46-.19-1.22-.08-2.45.07-3.59.1-.19.63-.08,1-.44,1.12-.36-.21,0-.82-.19-1.09a54.75,54.75,0,0,1-8.09-.06,1.38,1.38,0,0,1-.57.21c-.27.65.54,2.05-.21,2.55-.66-.63,0-1.73-.36-2.63a19,19,0,0,1-3.54.16c.89-.59,2.26-.35,3.55-.56.11-3.09-.14-5-.16-8.26-.63,0-1.18.35-1.71,0,.16-.73,1.16-.18,1.73-.45.27-1.06-.13-2.16.22-3.07-.27-1.66-.08-4.29-.18-6.22-.36-.27-1.07.32-1.18-.38.19-.35.81-.05,1.09-.19,0-3.51,0-6.42-.11-9.69-.23,0-.86.31-1-.14s.78-.12,1-.37c0-2.61,0-6.17,0-9.28-.26-.17-.88,0-1.13-.16,0-.68.6-.31,1.15-.36-.11-3.14.08-5.6.14-8.82-.17-.07-.48,0-.79,0-.09-.21,0-.27,0-.46.2.09.5,0,.79,0a52.33,52.33,0,0,0,0-7.29c-.17.24-.23.58-.59.61-.28-.93.33-2.39.47-3.69.12-1.07,0-2.89.28-4.54.81.12.34,1.34.32,2a9.22,9.22,0,0,1,.1,2.06,1,1,0,0,1,.22.35c0,1.13.32,1.74.41,2.8.08.27.31.4.43.64-.09.15-.24.22-.24.45-.46,0-.53-.46-.89-.6a24.65,24.65,0,0,0,0,2.85,9.17,9.17,0,0,1,0,1.48c-.12.68.12,1.67,0,2.84.29,0,1-.1,1.19.33-.37.3-.55.3-1.15.19-.22,2.58-.14,4.88-.33,7.62.21.28.1.84.13,1.14.37.31,1.08,0,1.3.39-.11.2-.42.18-.48.44a.75.75,0,0,0-.78-.2c-.18,1.68.06,4.11-.15,5.69a23.07,23.07,0,0,1,.1,3.6c.43,0,1.26-.19,1.36.27,0,.2-.39-.06-.3.33a1.21,1.21,0,0,0-1.08,0c.2,2.07-.08,4,.12,6.1.05.56.08,1.18.11,1.77s-.22,1.23,0,1.77c.36,0,1-.34,1.25,0-.09.21-.48.24-.42.44-.33-.11-.45,0-.85,0-.08,2.37,0,5.09,0,7.64a45,45,0,0,0,2-4.89c1.4-4,3.06-8.17,4.6-12.31.21-.57.48-1.12.69-1.68.54-1.45,1.08-3,1.64-4.5.38-.37.28-.9.73-1.29a48.89,48.89,0,0,1,3.1-7.06c.59-2.15,2-4.42,2.86-6.68.32-.42.46-1.36.79-1.57.21,0,.28.37.32.64a4.31,4.31,0,0,0,.26.92c0,.19-.06.22-.13.28a3.25,3.25,0,0,1,.52,1.5c.15.83.81,1.57.65,2.36a8.8,8.8,0,0,1,.84,2.2s-.1.18-.07.28c.09.29.3.45.37.7s0,.42,0,.57c.18.66.59,1.53.77,2.36a9.59,9.59,0,0,0,.24,1.32c.14.36.46.6.42,1a2.39,2.39,0,0,1,.22.23c.79,3.85,2.28,7.79,3.3,11.29a9.66,9.66,0,0,1,1.53-1.6c.92.52,1.28,1.56,2,2.24a12.29,12.29,0,0,0,1.18-1.1c1.4-1.66,3.31-3.38,4.86-5.24.44-.53.86-1,1.31-1.55,1.29-1.43,2.61-2.86,4-4.24a23.54,23.54,0,0,0,1.55-1.88,7.28,7.28,0,0,1,1.1-.47c1,1,2,1.93,3.09,2.84C51.19,66.16,52,62.88,53.84,60a1,1,0,0,1,.61.54c.46.11.7.54,1,.83s1,.74,1.15,1.35a3,3,0,0,1,1.49,1.53C59.2,65,59.94,66,61,66.8c1.18-.54,2.58-1.16,3.88-1.8a6.16,6.16,0,0,0,1.28-.58c.42-.39.5-1,.9-1.39.16-1.3,1.16-2,1.48-3.2A7.64,7.64,0,0,0,70,57c1.47-.09,3.42.27,5.06.18,2.51-.15,5.43.19,7.75,0a4.64,4.64,0,0,0,1.39-.46c1.45-.68,2.88-1.41,4.34-2-.19-.68-1.66-.17-1.68-1,.26-.22.77,0,1-.37a21.12,21.12,0,0,0,6.19-1.26c.32-.13.89-.49,1.09,0A7.89,7.89,0,0,1,93,53.3a1.69,1.69,0,0,1-.31.5,1,1,0,0,1-.4.22c-.58.83-1.49,1.31-2.13,2.08a.34.34,0,0,1-.28,0c-.06.39-.5.8-.72,1.06a41.57,41.57,0,0,0,5.12,0c.58,0,1.11-.1,1.53.23-.88.35-1.83,0-2.73,0-.47,0-.9.2-1.37,0-.15,0-.18.16-.35.16-.95,0-1.76,0-2.73-.1a17,17,0,0,0-2.05,0,7.28,7.28,0,0,0-3.21.62c-.4.47-1.33.53-1.74.68-.92.78-2.43.93-3.36,1.7A22,22,0,0,0,75,61.83c-.84.29-1.73.57-2.48.88-.45.19-.7.53-1.27.41-1.82,1-3.71,1.59-5.5,2.65,0,.38-.3.51-.26,1-.86.75-.84,2.7-2,3.35a12.63,12.63,0,0,0-2.08-2.24c-2.69,1.07-5.13,2.39-7.76,3.54a9.17,9.17,0,0,1-2.54.93,5.75,5.75,0,0,0-1.76-1.88,24.28,24.28,0,0,0-1.53,2.91c-.51,1-1,2-1.41,3-.09,0-.15.08-.24.11a11,11,0,0,1-1.42,3.08c-.83,2-1.74,3.56-2.64,5.49a20.22,20.22,0,0,0,1.92,2.12c.44.56.69,1.16,1.37,1.41a21.45,21.45,0,0,0,1.59,1.71c.22,0,0,0,0,.18a5.8,5.8,0,0,1,1.82,1.77c.56.15.65.75,1.16,1,0,.18,0,.11,0,.29.39.31,1,.62,1,1.17a39.89,39.89,0,0,1,5.5-2.42c.67-.24,1.29-.59,2-.9a7.33,7.33,0,0,1,1.5-.63c.39,0,.72.19,1.13.21s1.18,0,1.65,0c4.22,0,8.7,0,13.17-.15,1.12,0,2.26-.13,3.36,0s2.24-.14,3.26-.17c1.56,0,3,.1,4.38.1.29,0,.72-.23.9.2-.29.32-.65.1-1.08.08-2.46-.11-4.9,0-7.41.07-.94,0-2,.13-2.85.07-.06,0-.2-.12-.28-.12s-.35.14-.52.15c-.52,0-1.06-.11-1.59-.11-1.21,0-2.41.15-3.6.15l-8.48,0a10.28,10.28,0,0,0-3.84.66A79.38,79.38,0,0,0,51,95.21a8.47,8.47,0,0,0-2.14-2.47,44.26,44.26,0,0,0-3.46-3.54c-.55-.58-1-1.14-1.59-1.77A21.58,21.58,0,0,0,42,85.54c-2.39,4-3.9,8.27-6,12.67-.06.24.28.1.28.29s-.34.11-.36.33c-.39-.25-.93,0-1.42,0s-.92-.21-1.42-.22c-.86,0-1.78.24-2.68.19-2.67-.16-5.63.42-8.21.1-1.64.23-4,.11-5.59.2a1.9,1.9,0,0,1-.44-.3c-1,.73-2.62,0-3.78.43a11,11,0,0,0-2.28,1.74c-.42.4-1,.76-1.47,1.15s-1,1-1.58,1.37-1.1.88-1.7,1.25a45.11,45.11,0,0,0,8.08.11c.22-.45-.32-.82-.06-1.31.18-.14.4,0,.62,0,.08.25-.32.28-.18.4C14,103.77,13.74,104.61,14,104.77ZM92.24,53.45c.15,0,.3,0,.29-.17C92.39,53.29,92.24,53.28,92.24,53.45ZM89,55.72c-.07,0-.08-.08-.17-.06a1,1,0,0,1-.74.14c-.65.67-1.92.66-2.45,1.45a17.91,17.91,0,0,0,3.25,0C88.56,56.64,89.15,56.45,89,55.72ZM78.31,57.5c-1.29,0-3.34.09-4.44,0-.16,0,.13.16-.12.11-.07-.09-.28,0-.28-.19-1.15.24-2.23-.27-3.48.17,0,.13.09.17,0,.34-.76,1.19-1.35,2.56-2.18,3.68,0,.45-.32.52-.32,1-.07-.08-.21-.08-.23,0,.17.44-.37,1-.56,1.46.58-.11.91-.48,1.55-.52,4.43-2.3,9.34-3.88,13.78-6.06C80.93,57.5,79.63,57.48,78.31,57.5ZM27.07,75.78a56.17,56.17,0,0,1-2.19-7.25A27.49,27.49,0,0,1,23.5,64c-.4-1.35-.93-2.68-1.22-3.91-.1-.41-.22-.72-.36-1.16-.35-1.07-.57-2.26-.85-3.39H20.9c-.94,1.6-1.71,3.79-2.53,5.43-.16.31-.29.61-.43,1-.81,2-1.78,4-2.55,6A11.47,11.47,0,0,1,14,70.59c-.8,2.33-1.78,4.8-2.7,7a9.16,9.16,0,0,1-1,2.36C10,81.85,9,83.49,8.5,85.26a9.23,9.23,0,0,1-.44,1.18C7,89,6.29,91.31,5.4,94a4.28,4.28,0,0,0-.87,2.13c.45.12,1.2-.22,1.47.22-.29.14-.26.36-.47.5a1.91,1.91,0,0,0-1-.15c0,1.83,0,4.53.22,6.56,1.08-1.4,1.79-3.2,2.84-4.63-.09-.07.2-.26.13-.51,1-1.09,1.56-2.62,2.58-3.66,3.7-6.39,7.78-12.37,11.61-18.62.34-.06.31-.52.75-.48a17.75,17.75,0,0,1,1.06,2.2c.22.41.6.73.82,1.11s.31.89.52,1.33.59,1,.86,1.51.37,1.17.85,1.57c.62-.73,1.13-1.59,1.69-2.39C28.1,78.92,27.35,77.44,27.07,75.78ZM76.38,60.46c.18,0,.34,0,.35-.22C76.49,60.17,76.47,60.36,76.38,60.46Zm-.34.15c.1,0,.3,0,.29-.16C76.18,60.45,76,60.45,76,60.61ZM52.35,63.53c-.35.86-.48,1.59-.89,2.47-.14.31-.44.59-.6,1s-.18.55-.32.84-.8,1.27-.74,1.68.93.84,1.16,1.07.27.57.49.59c0,0,.51-.32.64-.38a4.54,4.54,0,0,1,.69-.2,24.33,24.33,0,0,0,2.67-1.39,40,40,0,0,1,5.09-2.09,9.59,9.59,0,0,0-1.87-1.84C57.14,63.8,56,61.94,54.15,60.8c-.07-.19-.07.19-.23.11,0-.17,0-.32-.16-.3C53.26,61.55,52.84,62.58,52.35,63.53Zm19.11-.74a.54.54,0,0,0,.4-.22C71.73,62.64,71.44,62.55,71.46,62.79Zm-9.58,4.89c.62.55,1.23,1.1,1.88,1.61a24.48,24.48,0,0,0,1.48-3.08c.09,0,0-.09,0-.12C64.2,66.74,62.85,67,61.88,67.68Zm-16.12,0c-1.1,1.14-2,2.43-3.09,3.59-.79.88-1.6,1.67-2.37,2.48-.48.52-.92,1-1.42,1.49-.33.34-.74.66-1,1s-.33.57-.54.83c-1,1.14-2.11,2.22-3.08,3.25C34,80.85,33.13,82,32.66,82a1,1,0,0,1-.39-.13c-.74-.34-1.27-1.72-2.09-2.12-.23.5-1.06,1-1.14,1.49a10.09,10.09,0,0,0,.71,2.37c.18.6.23,1.19.4,1.72a3.68,3.68,0,0,1,.4,1.55c.85,1.84,1.24,4.46,2.11,6.34,2-2,3.92-4.13,6.08-6a3.92,3.92,0,0,1,1-1.16c.26-.25.48-.59.82-.71a1.57,1.57,0,0,1,.89-1c.28,0,.13.35.45.3.66-1,1.17-2.23,1.71-3.3.19-.38.46-.68.66-1.06.41-.78.6-1.67,1-2.47.24-.48.47-.89.68-1.4a12.05,12.05,0,0,1,.68-1.4c.9-1.6,1.64-3.23,2.4-4.93C48,69.31,47.15,68.22,45.76,67.68ZM22.39,76.13c.15,0,.19-.07.18-.22S22.38,76,22.39,76.13Zm-1.17,2.41a28.81,28.81,0,0,1-3,5c0,.26-.2.62-.36.56a2.73,2.73,0,0,1-.79,1.33c-1.08,2.11-2.41,3.66-3.46,5.86a17,17,0,0,0-2.17,3.46c-.82.6-.87,2-1.74,2.56-.46,1.56-1.75,2.83-2.55,4.29-.41.75-.73,1.52-1.16,2.18,2.22-1.38,3.87-3.36,6.09-4.74.18-.21.11-.38.42-.5a8.41,8.41,0,0,0,3.87.09,4.18,4.18,0,0,0,2.22.08c1-.08,2.44.07,3.36-.06a8,8,0,0,1,.91.09c1.22,0,2.52-.18,3.77-.26,3.09-.19,5.74,0,8.72-.14a16.48,16.48,0,0,0,.92-1.68c.3-.77.74-1.35,1-2s.49-1.34.69-2c.68-.83.84-2.22,1.54-3A9.41,9.41,0,0,1,41,86.87c0-.74.92-1.3.53-1.91-.83.25-1,1.24-1.77,1.53,0,.38-.59.52-.71.94a10.77,10.77,0,0,0-1.48,1.37c-.55.54-1,1.06-1.47,1.49a11.22,11.22,0,0,0-2.5,2.87c-.47.25-.64.81-1.17,1C31.15,89.84,30,86,28.74,81.77a11.59,11.59,0,0,0-1.51,2.45c-.33-.11-.23.23-.47.21s-.34-.05-.56-.19c-1.12-2.36-2.54-4.89-3.84-7.26C21.77,77.28,21.74,78.16,21.22,78.54Zm-2.37,2.64c.19,0,.31-.36.24-.44C19,80.9,18.84,80.94,18.85,81.18Zm-.54.61c0,.25.3.21.23-.05C18.43,81.73,18.41,81.8,18.31,81.79Zm-1.87,2.84c0,.15.08.19.22.18s0-.25-.16-.23S16.49,84.64,16.44,84.63Zm-2.37,4.19a.62.62,0,0,0,.36-.44C14.15,88.35,14.23,88.71,14.07,88.82Zm-2.9,4.74c.18,0,.18-.08.23-.17s-.07-.07-.17-.06S11.15,93.44,11.17,93.56ZM9,97.18a.58.58,0,0,0,.31-.61A5.81,5.81,0,0,0,9,97.18Z"/><path class="cls-1" d="M82.05,44.6c-.28.14-.09.23-.33.34a1.67,1.67,0,0,1-1.14,1.21c-.78,1.05-2.48.44-3.4-.22-.11-.18-.08-.39-.29-.46A2.55,2.55,0,0,1,78,43.54,5.31,5.31,0,0,1,79.41,43,1.93,1.93,0,0,1,82.05,44.6Zm-.46,0a1.56,1.56,0,0,0-1.46-1.3c-.24,0-.6.31-1,.37-.16,0-.35-.08-.46,0a1.82,1.82,0,0,0-1.26,1.84C79.14,47,80.74,46.34,81.59,44.56Z"/><path class="cls-1" d="M83.45,50c-.38.78-1.26,1.31-1.93.84a.78.78,0,0,1,0-1.39A6.06,6.06,0,0,1,83,49.22C83.34,49.38,83.32,49.72,83.45,50Zm-.55,0c-.29-.45-.94,0-1.38,0C81.49,50.76,82.7,50.79,82.9,49.94Z"/><path class="cls-1" d="M95.13,9.06c-.08-.48.18-1.16-.31-1.58C93.92,6.7,93,5.63,92,4.71a8.78,8.78,0,0,0-3.89-2.34A38.25,38.25,0,0,0,80,.49l-.16.23c-.22,0,.14-.13,0-.24a31,31,0,0,0-7.48,0,15.5,15.5,0,0,0-4.73.93c-1.76.76-4.15,2.25-5,3.6a4,4,0,0,0-.6,2.83c-.06.14-.31.2-.18.42-1.47.11-2.68-.2-4.21.41a11.72,11.72,0,0,0-1.89,1,11.3,11.3,0,0,0-1.12,1.31,18.54,18.54,0,0,0-1.29,1.73,6,6,0,0,0-.35.6c-.05.1.11.18.08.28s-.22.35-.3.52a29.47,29.47,0,0,0-1,3.67,17.53,17.53,0,0,0,.63,3c.27.67.87,1.2,1.12,1.84s.22,1.4.65,2a17.56,17.56,0,0,0,2.24,1.83,19.67,19.67,0,0,0,2.81,2.22c.28.17.44.42.87.43a22.74,22.74,0,0,0,4.47,2c1.68.79,3.82.89,5.81,1.24.2-.05.44-.16.56-.11,2.23.52,4.26-.45,7-.34.6-.4,1.44-.26,1.9-.42A28.54,28.54,0,0,0,86,32.75c2.22-.36,4.58-.79,6.75-1.2a16.91,16.91,0,0,0,3.64-1.36c.34-.14.77-.2,1.09-.37a12.5,12.5,0,0,1,2.37-1.36c.11-.16.37-.24.4-.43a13.93,13.93,0,0,0,2.67-1.88c1.62-1.95,2.82-3.78,2.36-6.35C105,18.3,104,17,103.37,15.39a4.4,4.4,0,0,0-.18-.62,9.74,9.74,0,0,0-1.4-1.76A15.49,15.49,0,0,0,95.13,9.06Zm-.57-1c.11.58-.19,1,0,1.3.35.53,1.4.39,2.13.62a13.74,13.74,0,0,1,3,1.8c.25.19.59.32.82.51a12.89,12.89,0,0,1,1.69,2c.15.17.38.23.47.36a.24.24,0,0,0,0,.19,3.38,3.38,0,0,1,.49,1.15c.36.27.72,1.74,1.32,2.28,0,.21.08.16-.05.32a7.13,7.13,0,0,1,.43,1.24,7.63,7.63,0,0,1-.59,3.69c-.14.25-.54.55-.37.78-.55.33-.83,1-1.13,1.25-1,.74-1.94,1.68-3.18,2.46a24,24,0,0,1-2.44,1.38,20.53,20.53,0,0,1-4.16,1.63c-.76.16-1.56.18-2.38.31-1.54.26-3.22.87-4.65,1a26.31,26.31,0,0,1-6.21-1.61,7.47,7.47,0,0,1-2.53.55,25,25,0,0,0-2.57.42c-1.35.25-2.68,0-4,.11-1.54-.21-2.7-.42-4.17-.72a11.13,11.13,0,0,1-2.51-.7c-.25-.11-.43-.36-.67-.48-.67-.36-1.48-.51-2.18-.86a16.45,16.45,0,0,1-4.55-3.32c-.56-.17-.85-.64-1.25-1a3,3,0,0,1-.94-1.7,12.58,12.58,0,0,0-1.06-1.86,15.12,15.12,0,0,1-.93-3.25c.37-2,.87-4.65,2.44-6.57.14-.17.49-.33.73-.58s.24-.45.42-.61a6.57,6.57,0,0,1,4.12-1.5c0-.06-.12-.06,0-.11.13.3.89.05,1.37.1a2.53,2.53,0,0,1,2.12,1.12c.22-.25.47,0,.63.12.23-.86-1.08-1.09-1.64-1.56.23-.36.1-.45-.15-.76.18-.66.26-1.35.48-2a11.84,11.84,0,0,1,4.29-3.52A12,12,0,0,1,71,.88c.66-.06,1.53-.23,2.3-.29a54.2,54.2,0,0,1,8.81.49c1.11.24,2.63.73,3.83.87a8.92,8.92,0,0,0,2.1.82,18.07,18.07,0,0,0,2.07.7c.17.32.48.58.75.53.32.63,1.21,1.14,1.66,1.62s.68,1,1.44,1.37C94.09,7.46,94.46,7.59,94.56,8.11Zm-30.88,0a.1.1,0,0,1,.13,0c.08-.14-.06-.18-.15-.25A.24.24,0,0,0,63.68,8.15Z"/><path class="cls-1" d="M68.84,12.83c-.67,1.63-3-.29-1.56-1.47C68.13,10.66,68.82,12.05,68.84,12.83Zm-1,0c.18.12.53,0,.31-.22A1.26,1.26,0,0,0,67.82,12.81Z"/><path class="cls-1" d="M67,21.22c-.34-.21-.19-.22-.19-.44s-.18.12-.31-.09c.07-2.08,0-4.15.28-6.26.46-.24,1.07-.63,1.53,0a22.13,22.13,0,0,1-.47,5.45A1.72,1.72,0,0,1,67.69,21C67.47,21.23,67.18,21,67,21.22Zm.11-1.33c.09,0,.21.24.28.13s.12-.36,0-.51Z"/><path class="cls-1" d="M91.06,23.39c-.21-.19.21-.07.28-.17s-.33.11-.49-.14c0,.12.23.19.05.33a14.7,14.7,0,0,0-2.89,0c-.11-.13.13,0,.16-.11s0-.1-.11-.15c-.27.14-.2.18-.46,0,.18.3-1.06.27-1.37-.07-.19.19.19,0,0,.22-.46,0-1-.21-1.39.06-.21-.22-.36,0-.57-.13a.93.93,0,0,0-.45.11c-1.29-.17-2.55-.1-3.83-.15-.06,0-.11.06-.15.11-1.54-.38-3,.06-4.47-.1a23,23,0,0,0-3.7.47c-1.1-.21-2.09.4-3.19.19,0,.05-.06.09,0,.13-1.16.08-2,.16-3.23.23.15,0,.27-.08.42,0a.83.83,0,0,1,.25-.33c.05,0,.08,0,.12-.06,1.94.13,3.78-.45,5.7-.45a40.71,40.71,0,0,1,6.54-.49.39.39,0,0,0,.2.23c.1-.1-.24-.14,0-.25,2.15.1,4.28.07,6.41.08.17.08.12,0,.24.18.15,0,0-.06.14-.19.73.23,1.59-.1,2.18.16,2.62-.15,5.39.21,8.22-.33.31.15.58-.07.91.17-.18,0-.07.11.07.2a7.17,7.17,0,0,1-2.43.17c-.28,0-.67,0-.73,0a1.66,1.66,0,0,1-.57.16C92.28,23.4,91.58,23.33,91.06,23.39Zm-6.38-.22a.27.27,0,0,1-.15-.19c-.09.19-.24-.08-.33.13A.36.36,0,0,0,84.68,23.17ZM82.83,23c-.5,0-.59.06-1.09.07C82.09,23.16,82.68,23.31,82.83,23Zm7.57.22c.11.09.44.12.38,0A.45.45,0,0,0,90.4,23.18Zm-6.84-.11c0,.19.26.05.39.08,0,0,0,0,0-.09s-.09-.06-.13,0,0,.05,0,.08S83.64,23,83.56,23.07Zm-1.81.05c-.25-.1-.27-.16-.44-.11a.26.26,0,0,1,.11.15C81.5,23,81.65,23.21,81.75,23.12Z"/><path class="cls-1" d="M89.72,21a.4.4,0,0,1-.12-.53c-.76-.74-.71-1.6-1.26-2.37a11.81,11.81,0,0,0-2.21.27A10.42,10.42,0,0,0,85.81,20c-.4,0-.32.24-.73.27,0,.13.25.22.35.33-.06.5-1.22.54-1.54.26s-.07-.53-.16-.87a25.59,25.59,0,0,0,1.86-5.81c.31-.1,1-.54,1.43-.41.12.05.54.23.36.5.52.24.74.93,1,1.43a13.37,13.37,0,0,1,.75,1.17c0,.13.25.17.39.37a12.9,12.9,0,0,1,.74,1.67c.23.45.78.65.88,1.11-.05,0-.06.09,0,.13A3,3,0,0,1,89.72,21Zm-3.28-3.82a7.43,7.43,0,0,0,1.31-.27,3.77,3.77,0,0,0-.92-1.44A6.79,6.79,0,0,0,86.44,17.21Z"/><path class="cls-1" d="M71.72,24.68l-.08.09c.25.17.42,0,.4-.22.18.07,0,.19.08.28s0-.11,0-.21c1.36-.08,2.68-.36,4.05-.43,2.13-.12,4.26.09,6.42.16.33,0,.83-.09,1.26-.09a32.91,32.91,0,0,0,4.1,0,8.43,8.43,0,0,1,3.43,0c0,.36-.41.24-.64.56a.25.25,0,0,1-.13-.32c-1.62-.08-3.19.2-4.81.16-.89.32-1.88-.11-2.77.13a1.38,1.38,0,0,0-.36-.12c-2.73,0-5.27-.37-7.9.12a.38.38,0,0,1-.28-.13l-.14.19c-1-.09-1.87.33-2.87.06-.85.43-1.53.24-2.39.5a.28.28,0,0,0-.08.31,4.89,4.89,0,0,1-1.37-.07c-.06-.09,0-.2,0-.29a9.09,9.09,0,0,1,2.22-.48c.09,0,0,.1.11.15.3-.32,1.31-.19,1.9-.35C72,24.74,71.77,24.77,71.72,24.68Zm6.43-.34.14.1c.06-.19.07-.14.23-.2A.24.24,0,0,0,78.15,24.34Zm6.54.1c0,.23.3.18.43.11L85,24.48C84.84,24.61,84.85,24.31,84.69,24.44Zm-.64,0a2.52,2.52,0,0,1-.46.1,2.4,2.4,0,0,0,.86,0C84.26,24.42,84.15,24.66,84.05,24.41Zm-10.43.3c.12-.13.49.08.46-.11C74,24.66,73.58,24.46,73.62,24.71Z"/><path class="cls-1" d="M80.15,15.88c-.07.49.07.95,0,1.44.72,0,1.38-.4,2.16,0,.12.26,0,.54.07.8a11.57,11.57,0,0,1-2.5.64,5.42,5.42,0,0,0-.1,1.12c1,.2,1.78-.44,2.72-.25-.17.49.27,1-.26,1.43a1.34,1.34,0,0,1-.39-.07,16.74,16.74,0,0,1-3.27.58,3.7,3.7,0,0,1-.58-.51c-.18-.82.39-1.78.5-2.83,0-.12-.1-.22-.1-.36s.19-.45.21-.67a11.38,11.38,0,0,0,0-2c-.09-.3-.35-.33-.25-.56s.37-.33.66-.17a12.54,12.54,0,0,1,2.91-.11c.77-.34,1,.16,1.25.8-.06.07-.11.13-.06.18C82.22,16.15,81.13,15.63,80.15,15.88Z"/><path class="cls-1" d="M70.82,21.63c-.08-.37.54-.61,0-.93a21,21,0,0,0,.12-5.86c-1.51-.81.93-.79,1.41-.79a5.94,5.94,0,0,1,3.29,1.07,4.2,4.2,0,0,1,.68,1c.37.54.71.87.74,1.38a3.36,3.36,0,0,1-1.56,2.46c-.37.21-.85.41-1.27.6-.7.32-1.52.4-2.27.74C71.57,21.42,71.25,21.7,70.82,21.63Zm2.71-6.14c-.33-.06-1.3,0-1.5.21-.45.55.19,1.43.16,2.05a4.26,4.26,0,0,0,.17,1.54,6.57,6.57,0,0,0,3-1.39C75.66,16.86,74.63,15.7,73.53,15.49Z"/><path class="cls-1" d="M84,37.51a8.92,8.92,0,0,1-1,1.72,7.78,7.78,0,0,1-2.06,1c-.1,0-.13-.09-.25-.08s-.54.17-.88.2a8.68,8.68,0,0,1-4-.51,2.29,2.29,0,0,1-1.55-1.55,9.3,9.3,0,0,1,0-1,2.46,2.46,0,0,1,.51-.84c.48-.34,1.14-.87,1.55-1.13a5.51,5.51,0,0,1,2.23-.63,5.21,5.21,0,0,1,4.44.94c.22.08-.11.17,0,.25A3.54,3.54,0,0,1,84,37.51Zm-4.65-2.73a5.26,5.26,0,0,0-1.63.28c-.24.07-.56.06-.72.13a9.77,9.77,0,0,0-1.43,1c-.12.09-.28,0-.33.08s-.25.61-.47.63A1.9,1.9,0,0,0,75.17,39,7,7,0,0,0,79.07,40c1.65-.07,4.08-.71,4.45-2.42-.1-.87-1.2-1.58-1.8-2,.16-.07.64.15.55-.21A6.81,6.81,0,0,0,79.37,34.78Z"/></g></g></svg>