<svg xmlns="http://www.w3.org/2000/svg" viewBox="0 0 145.57 138.49"><defs><style>.cls-1{fill:none;stroke:#fff;stroke-miterlimit:10;stroke-width:0.5px;fill-rule:evenodd;}</style></defs><title>img-product-3</title><g id="Capa_2" data-name="Capa 2"><g id="doodle"><path class="cls-1" d="M111.48.28s.1,0,.11.11A9.84,9.84,0,0,1,109.77,2a9.2,9.2,0,0,1-2.11,1.75c-.17.52-.78.68-1.16,1s-.75.91-1.16,1.31c-.14.14-.32.18-.44.33s-.11.33-.22.43c-.23-.17-.34,0-.44,0,0-.32.18-.4.16-.71.2,0,.14-.15.33,0a38.88,38.88,0,0,1,3.21-2.79c0-.22.38-.13.33-.44C109.52,2.17,110.17.89,111.48.28Z"/><path class="cls-1" d="M108.77,1.48c-.23.44-.85.49-1.33.54-.16-.07-.16-.31-.5-.21C106.74.93,108.64.29,108.77,1.48Zm-.94.11c.11,0,.24,0,.22-.17a.19.19,0,0,1-.16,0C107.87,1.44,107.81,1.47,107.83,1.59Z"/><path class="cls-1" d="M103.9,3a2.73,2.73,0,0,1-.94,1.1,12.46,12.46,0,0,0-2.49,2c.81.31,2.44-.47,3.38,0-.12.13-.33.16-.39.33-1-.34-2.61.41-3.59.11,0-.8.85-1.15,1.43-1.53.5-.8,1.59-1,2.11-1.8a.93.93,0,0,0-1-.71c-.28.1-.08.28-.23.33-.32.07.06-.23-.27-.17C102.29,1.61,103.71,2.28,103.9,3Z"/><path class="cls-1" d="M108.22,6.62c-.12-.21-.37-.42-.28-.66-.2-.1-.16,0-.33,0,0-.52.45-.57.66-.87.44.14.79-.14,1.27,0C110.18,6,109.15,6.56,108.22,6.62Zm.22-.44a.81.81,0,0,0,.88-.49C108.92,5.37,108,5.54,108.44,6.18Z"/><path class="cls-1" d="M108.18,15a1.38,1.38,0,0,1-1.82.6c0-.76.54-1.2,1.55-.93C108,14.75,108.06,14.9,108.18,15Zm-1.21.33a.53.53,0,0,0,.6-.22C107.29,15.08,107.05,15.12,107,15.31Z"/><path class="cls-1" d="M104.64,17.06a30.41,30.41,0,0,1-2.43,2.78c-.17.12-.56-.06-.55.11-.18-.05-.24-.2-.45-.22,0-.17,0-.4.06-.49.88.76,1.5-.69,2.1-1.2-.48,0-1.43.74-1.82.05a3,3,0,0,1,1.32-2c.47-.36,1.76-.95,1.88.05C104.79,16.5,104.43,16.64,104.64,17.06Zm-2.6.49c0,.13-.13.28-.05.43.42.18.77-.14,1.11-.32.77-.42,1.4-.61,1.27-1.42C103.27,15.62,102.69,17,102,17.55Z"/><path class="cls-1" d="M101.21,15.91c.25-.06.26.11.39.16a17.65,17.65,0,0,1-1.88,2.08,1.22,1.22,0,0,1-.61.93c.25.28-.32.59-.11,1-.19.08-.3.24-.61.21.4-1.79,1.59-2.8,2.49-4.09h.28c-.15-.16.08-.06.11-.17S101.15,16,101.21,15.91Z"/><path class="cls-1" d="M108.18,19.3c.4-.24.61.09.83.32-.15.56-.63.64-1.16.71-.25.05-.24-.45-.44-.27-.07-.22.15-.62.22-.87C107.88,19.08,108.07,19.05,108.18,19.3Zm-.22.43c-.08.35.46.22.44,0A.81.81,0,0,0,108,19.73Z"/><path class="cls-1" d="M131.58,29a.29.29,0,0,1,.11.38A.44.44,0,0,1,131.58,29Z"/><path class="cls-1" d="M108.85,34.49a1.37,1.37,0,0,1-.78.55c-.17-.61.36-.93.67-1.26s.62-1,1.1-1.31c.54-1,1.54-1.66,2.21-2.57a2,2,0,0,0,.78-.6c.18.14.33-.08.55-.06.13.23-.12.43-.27.33-1.61,1.13-2.93,3-4.32,4.54C108.94,34.28,108.59,34.38,108.85,34.49Z"/><path class="cls-1" d="M112.94,32.36c1,.63-.68,1.89-1.27,1.09-.11.16-.16,0-.33.11.4-.42.29-1.55,1.16-1.09C112.7,32.48,112.76,32.37,112.94,32.36Zm-.78.87a.53.53,0,0,0,.72-.27C112.57,33,112.11,32.85,112.16,33.23Z"/><path class="cls-1" d="M118.47,32.47a.46.46,0,0,1-.44.32C118.08,32.57,118.2,32.31,118.47,32.47Z"/><path class="cls-1" d="M115.59,35c-.11.06-.28.08-.27.27-3.07,0-5.37.49-8.8.43a5.53,5.53,0,0,1-2,.28c-.67.07-1.34.42-1.77.27.46-.69,1.52-.43,2.49-.55,2.28-.26,4.71-.37,7.52-.6.7,0,1.94,0,2.38-.43A.38.38,0,0,1,115.59,35Z"/><path class="cls-1" d="M140.81,7.33c-.36-.31-.58-.74-1.05-.93,0,.23-.15.5,0,.71.3,0,.52,0,.55.27-.66.41-.33,1.64-.06,2.3.37-.21.29-.69.22-1C140.82,8.84,140.47,7.57,140.81,7.33ZM128.09,2.85c.07.11.11.26.22.32C128.39,3,128.31,2.71,128.09,2.85Zm-.88,1.58c.64-.22.56-1,.88-1.42-.28,0,0-.19-.22-.16C127.77,3.49,127.33,3.8,127.21,4.43ZM126.54,3a1.14,1.14,0,0,0-.44.65c-.06.28.09,1,.06,1.2,0,.05-.17.11-.17.17,0,.26.18.71.05,1,1-.51.75-1.94.72-3A.36.36,0,0,1,126.54,3Zm.67.43c-.06-.12.25-.42-.06-.43C127.22,3.18,127,3.36,127.21,3.39Zm3,.44c.22-.27.45-.54.66-.82a2.74,2.74,0,0,0-.72,0C130.23,3.29,130,3.62,130.25,3.83Zm-1.38.6c.07-.49.28-.85.33-1.36C128.57,3.05,128.62,4.16,128.87,4.43Zm2.49-.71a12.94,12.94,0,0,0,.16,1.75c.86-.41.68-1.39.5-2.35a.38.38,0,0,1-.17-.05C131.75,3.24,131.79,3.73,131.36,3.72Zm1-.49c.13.45-.06.54.11,1.15.62-.19.24-1.19,1-1-.13-.33-.72-.16-.88-.32C132.6,3.28,132.44,3.05,132.35,3.23Zm-3.48,2.08a1.62,1.62,0,0,0,.72-1.92A5.29,5.29,0,0,0,128.87,5.31Zm-4.54-1.59c.1.32-.15.76,0,1.26a1.41,1.41,0,0,0,.55-1.42A.68.68,0,0,0,124.33,3.72Zm10,1.26a1.41,1.41,0,0,0,.28-1.31l-.45-.11A5,5,0,0,1,134.34,5Zm-1.05-.82c.16.22.24,1-.06,1.2a1.77,1.77,0,0,1,.23.66c.29-.13.39-.45.66-.61-.2-.49,0-1.34-.39-1.69C133.55,3.83,133.35,3.92,133.29,4.16Zm-5.2.33c.34.54-.28,1.26.28,1.58a3.91,3.91,0,0,0-.06-2.29C128.11,4,128.29,4.39,128.09,4.49Zm2,0a8.15,8.15,0,0,0,.27,2.35,21.68,21.68,0,0,0,.61-3C130.61,3.76,130.4,4.28,130.14,4.49Zm5.25-.44c0-.14-.07-.18-.22-.17S135.25,4.06,135.39,4.05Zm-11.89.76c0-.31.16-.42.17-.71a.23.23,0,0,1-.17,0C123.34,4.22,123.2,4.8,123.5,4.81Zm1.61.93a8.64,8.64,0,0,0,.27-1.53h-.16A2.86,2.86,0,0,0,125.11,5.74Zm2-.71a8.22,8.22,0,0,0,.06,2.52,1.48,1.48,0,0,0,.66-1.43c0-.6.14-1.55-.11-1.85A1.77,1.77,0,0,1,127.15,5Zm9.13-.49c.07-.07.08-.27-.06-.27A.17.17,0,0,0,136.28,4.54ZM121.79,5a1,1,0,0,0,.33.49c.22-.34.85-.83.72-1.15A11,11,0,0,0,121.79,5Zm13.49.27c.2.33-.08.67.11,1.2.89-.16.5-1.49.44-2.13C135.22,4.21,135.54,5,135.28,5.25ZM123.5,6c.55-.07.46-1.28.33-1.58C123.74,4.92,123.62,5.44,123.5,6Zm1.55,1.53c.41,0,.68-.81.83-1.09a8.59,8.59,0,0,1-.06-2h-.16C125.39,5.44,125.34,6.55,125.05,7.49Zm11.28-2.08c.3,0,.47-.54.72-.76-.1-.05-.14-.15-.33-.11A2.78,2.78,0,0,1,136.33,5.41Zm-13.88.88c.1.21.36.57.61.6-.11-.88.17-1.52-.17-2.13C122.71,5.37,122.08,5.5,122.45,6.29Zm10.07-.82a2.55,2.55,0,0,0,.16-.66C132.4,4.78,132.33,5.39,132.52,5.47Zm-3.65,3.17A4.41,4.41,0,0,0,130,7.27c-.27-.62-.15-1.71-.44-2.29C128.47,6,128.92,6.92,128.87,8.64Zm8.68-2.08c.35-.24.36-1,.39-1.42-.18,0-.28-.16-.5-.16C137.65,5.49,137.38,6.06,137.55,6.56ZM124.28,5.47a11.34,11.34,0,0,0,0,2c-.07,0-.16,0-.17.06.17.18,0,.58.17.93.85-.75.32-2,.49-3.45h-.16A.32.32,0,0,1,124.28,5.47Zm6.52.82c.48-.07.54-.62.39-1-.07,0-.08-.07-.17,0C130.94,5.64,130.9,5.82,130.8,6.29Zm3.87,1a.77.77,0,0,0,.5-.6c0-.27-.22-1.49-.39-1.53A3.36,3.36,0,0,0,134.67,7.33Zm1.66-1.42A8.42,8.42,0,0,0,136.72,8a1.81,1.81,0,0,0,.72-1.47,1.19,1.19,0,0,1-.11-1.31C136.78,5.22,136.86,5.86,136.33,5.91Zm-3.81,1.14a1.06,1.06,0,0,0,.27-1.74C132.92,6,132.48,6.18,132.52,7.05ZM131.58,6a7.72,7.72,0,0,0,.33,1.86,5,5,0,0,0,.33-2.41c-.13,0-.12-.1-.28,0C132,5.68,131.69,5.74,131.58,6Zm6.58.27c.27,0,.34-.27.61-.32-.18-.06.12-.09.11-.17a1.17,1.17,0,0,0-.45-.33A2.06,2.06,0,0,0,138.16,6.23Zm-17,.44c0-.3-.3-.55-.5-.82A1.05,1.05,0,0,0,121.18,6.67Zm17.31-.16c-.11.55.22.93.22,1.64.39,0,.59-1.25.61-1.37.06-.44.11-1-.39-.82C139.13,6.27,138.72,6.44,138.49,6.51Zm-5.09.11a17.35,17.35,0,0,0,.28,1.8A12,12,0,0,0,134.23,6C133.81,6,133.75,6.47,133.4,6.62ZM120.07,6c-.27.15-.46.38-.72.54a17.63,17.63,0,0,0,1.22,2c0-.06.09-.06.17,0,0,.44.49.43.49,1,.28,0,.39.23.45.49.47.22.55.84,1,1.09-.11.29.41.3.33.71.23.15.53.31.39.55.42.22.26.69.77.77,0,.35.43.64.5.92,0-.14.1.08.22,0,.25.71,1,1,1,1.64a10.2,10.2,0,0,1,1.6,2.08c.34.23.63,0,.89-.16A101,101,0,0,0,120.07,6Zm6.14,1.69a7,7,0,0,0,.33-1.37A.92.92,0,0,0,126.21,7.71Zm-2.82-.44c.25.17.26.58.55.71-.1-.43.09-1.08-.16-1.58A1.53,1.53,0,0,0,123.39,7.27ZM130.64,7c.18.42-.29.77-.06,1.09-.37.21,0,1.13-.05,1.42.43-.3.66-.8,1.05-1.15-.18-.67.08-1.4-.34-1.91C131,6.54,130.9,6.82,130.64,7Zm-4.1,1a.44.44,0,0,0-.11.65c-.19.07-.1.16-.16.28.76-.23.64-1.45.49-2.3C126.75,7.07,126.32,7.47,126.54,7.93Zm9.18,1.15c.93-.5.74-1.7.34-2.46A8.81,8.81,0,0,0,135.72,9.08Zm-7.35-2.19a.3.3,0,0,1,0-.22h-.22C128.19,6.81,128.22,6.91,128.37,6.89Zm7.13.88c.21,0,.29-.76.11-.93A1.67,1.67,0,0,0,135.5,7.77Zm-17.31-.06c0,.62.69.88.61,1.42.78.58,1.19,1.53,1.88,2.19.31.6.85,1,1.16,1.58a2.59,2.59,0,0,1,.89,1.2,4,4,0,0,1,1.16,1.75c.56.43,1,1.39,1.66,1.92,0,.45.63.72.88,1.14a1.75,1.75,0,0,0,.89-.76A119.85,119.85,0,0,0,118.91,7,1.71,1.71,0,0,1,118.19,7.71Zm14.55,1.86c1-.39.67-1.65.33-2.62C132.32,7.41,132.44,8.78,132.74,9.57Zm5.31-2.52c-.57.43-.22,1.24-.06,1.92.23-.09.31-.31.5-.44C138.37,8,138.41,7.34,138.05,7.05Zm-16.65.17c.11.14.39.13.33.43H122C121.88,7.44,121.61,6.94,121.4,7.22Zm12.89.43c-.22-.06-.15.15-.23.22a.35.35,0,0,0,.28.06c.1-.25,0-.58.06-.77A.28.28,0,0,0,134.29,7.65Zm-9.35.88c.37.62-.06,1.1.33,1.53,1-.49.5-1.59.55-2.73-.07,0-.07-.07-.16-.06C125.59,7.69,125.14,8.07,124.94,8.53Zm10.18,1.26a3,3,0,0,0,0-2.46C134.47,7.67,134.88,9.06,135.12,9.79Zm-7.91-1.7c0,.81,0,1.64,0,2.57.36-.08.28-.58.38-.93a4,4,0,0,0,.34-2.24.34.34,0,0,1-.28,0C127.55,7.73,127.46,8,127.21,8.09Zm1,1.37c.58-.23.44-1.26.27-1.86A4.78,4.78,0,0,0,128.26,9.46ZM129,9a4.31,4.31,0,0,0,.06,2c.7-.62.89-2,1-3.06C129.48,8,129.61,8.85,129,9Zm12.06-.22a.9.9,0,0,0,.33-.49c-.12,0-.1-.24-.28-.22C141.1,8.22,140.94,8.57,141.09,8.75Zm-18,.44a2,2,0,0,0-.94-1.1A4.69,4.69,0,0,0,123.11,9.19Zm13.66-.71c.21.11.12.5.34.6,0-.39.19-.54.16-.93-.13,0-.12-.1-.27-.06C137.05,8.35,136.87,8.37,136.77,8.48ZM132,10.33c.86-.29.31-1.36.22-2.13A4.23,4.23,0,0,0,132,10.33Zm2.77-.76c.08,0,.09.09.16.11a.85.85,0,0,1-.11-.88c-.27-.11-.14-.29-.27-.54a.4.4,0,0,1-.34,0,3.59,3.59,0,0,0,0,2.73c.2-.34.7-.65.72-1C134.78,10.1,134.74,9.71,134.73,9.57Zm2.6.11c.54-.31.44-.89.22-1.42A3.56,3.56,0,0,0,137.33,9.68Zm1.93.76c.22.06.44-.31.61-.49-.26-.66-.05-1.14-.44-1.69C138.79,8.93,139.11,9.44,139.26,10.44ZM117,9.4c.43.88,1.16,1.45,1.6,2.3.16,0,.12-.09.23,0s.1.26.11.44a2.75,2.75,0,0,1,1.21,1.31A2,2,0,0,1,121,14.6a2.32,2.32,0,0,1,1,1.2c1.37,1,2,2.77,3.43,3.71.12-.19.4-.22.5-.43-1.69-2.21-3.13-4.68-4.92-6.78,0-.17-.1-.16-.06-.33-.15,0-.11.09-.22,0a26.78,26.78,0,0,0-3-3.66A7.11,7.11,0,0,0,117,9.4Zm18.8.06c-.17.51.1.92.23,1.58a1.5,1.5,0,0,0,.38-2.35C136.39,9.06,135.94,9.15,135.83,9.46Zm-5.25.44a8.06,8.06,0,0,0,.17,2.07c.54-.7.49-2,.94-2.84-.16,0,0-.37-.11-.38C131.21,9.09,131.12,9.62,130.58,9.9ZM141,9.4a14.78,14.78,0,0,0,.5,1.59,9.36,9.36,0,0,0,.38-2.24C141.42,8.82,141.27,9.18,141,9.4ZM126.54,9c.14.26-.3.43-.44.6.22.63-.13,1.4.28,2.13,1-.64.49-2,.5-2.95C126.87,9,126.63,8.92,126.54,9Zm11.89,1.59A2.89,2.89,0,0,0,138.65,9C137.73,9,138.17,10.11,138.43,10.61ZM123.06,9.3c.06.28.39.43.61.71s.13.56.49.54C123.85,10.11,123.56,9.37,123.06,9.3Zm6.91.87c.23-.16.5-.6.11-.82C130.1,9.66,129.82,9.89,130,10.17Zm3.54-.71s0-.07-.11-.06c-.36.07-.26.58-.66.61,0,.68.22,1.17.22,1.74A6.82,6.82,0,0,0,133.51,9.46Zm8.46.93c.33-.08.46-.35.72-.49-.2-.07-.18-.37-.44-.39A5.3,5.3,0,0,0,142,10.39ZM128.26,10a15.07,15.07,0,0,1,.16,2c.7-.4.34-1.67.17-2.24C128.61,9.9,128.29,9.78,128.26,10Zm9.51-.22c-.85.36-.29,1.77-.06,2.46a2.89,2.89,0,0,0,.61-.65c0-.42-.31-.75-.11-1-.27.08-.23-.58-.27-.71C137.88,10,137.92,9.63,137.77,9.73Zm2.93,2.13c.06-.27.4-.26.44-.54-.17-.45-.12-1.12-.44-1.42C140.48,10.44,140.23,11.34,140.7,11.86Zm-5-1.25a.73.73,0,0,1,0-.66c-.52.35-.44,1.28-.33,1.86.59-.13.36-1.05.33-1.37C135.65,10.54,135.75,10.58,135.67,10.61Zm-12.5,7a8.83,8.83,0,0,1-.72-.87s.15,0,.11-.06-.29-.17-.39-.27a16.63,16.63,0,0,1-1.27-1.53,17.36,17.36,0,0,0-1.16-1.64c-.24-.27-.88-.57-.77-.87a.21.21,0,0,1-.17-.06c-.64-.74-1.2-1.54-1.88-2.24-.07,0-.08-.07-.17-.05a2.53,2.53,0,0,0-.55,1,21.31,21.31,0,0,1,1.38,1.91c-.06,0-.15,0-.16.06.24,0,.53.29.44.49.76.53,1,1.36,1.77,1.91,0,.16.08.14.06.27h.22a43.12,43.12,0,0,0,4,4.92c.38-.23.81-.26,1-.71C124.41,19.28,123.76,18.31,123.17,17.6Zm15.54-6.45c.12-.08.21-.19.33-.27a4.33,4.33,0,0,1-.11-.66C138.54,10.36,138.81,10.91,138.71,11.15Zm-8.3.77c0-.46-.06-1,0-1.48-.61,0-.94,1-.83,1.48a2,2,0,0,0-.28,1.58C129.87,13,130.46,12.62,130.41,11.92Zm1.11-.93c.12-.16.28-.28.22-.6h-.16C131.6,10.57,131.44,10.82,131.52,11Zm-3.59-.55c-.48.22-.25.88-.56,1.31.41.28-.32,1,.17,1.32A2.26,2.26,0,0,0,127.93,10.44Zm4.14,1.2c.11,1.13.2,1.65.72.72a18.4,18.4,0,0,1-.27-1.92h-.17A1.4,1.4,0,0,0,132.07,11.64Zm7.8.77a3.31,3.31,0,0,0,.11-2C139.11,10.68,139.58,11.84,139.87,12.41Zm2.66-1.86c-.08.19-.32.2-.45.33a2.77,2.77,0,0,0,.28,1.42A1.21,1.21,0,0,0,142.53,10.55Zm-8.47,1c0,.54.11,1,.11,1.47.84-.36.81-1.35.72-2.35h-.16C134.55,11,134.26,11.22,134.06,11.54Zm-.71.16c.41-.07.39-.65.38-1h-.16A5.86,5.86,0,0,1,133.35,11.7ZM124.28,11a.36.36,0,0,1,.27.06c0-.15-.06-.31-.27-.27Zm11.83.55a1.58,1.58,0,0,0,.28,1.09c0-.56.51-1.23.22-1.75C136.54,11.21,136.18,11.23,136.11,11.59Zm.33,1.69c.73-.33,1.09-.9.83-1.53-.13-.32,0-.84-.27-.76C136.89,11.74,136.63,12.49,136.44,13.28Zm6.86-1.8a.29.29,0,0,1,.22.06c.06-.08,0-.38-.16-.39A.43.43,0,0,0,143.3,11.48ZM132,12c-.21-.19-.1-.36-.17-.55-.09.21,0-.21-.11-.16a1.27,1.27,0,0,0-.66,1.36c-.33.32-.11,1.15-.06,1.59.48-.38,1.09-.81.94-1.48.08,0,.1.09.17.11C132,12.61,131.7,11.83,132,12Zm6.63-.44c-.08.78.39,1.34.23,1.8.4.18.5-.31.72-.49-.29-.53-.16-1.26-.56-1.58C138.91,11.41,138.89,11.61,138.65,11.59Zm-23.11.93a6.84,6.84,0,0,0,.44.65c.2.29.56.45.55.71.21,0,.5.5.5.66,0,0,0-.06.06,0a2.19,2.19,0,0,1,.49.93.34.34,0,0,1,.28.05c.12.39.59.63.77,1.2a1.54,1.54,0,0,1,.72,1c1.41,1,2,2.77,3.38,3.77.25-.25.58-.41.77-.71-.06-.33-.48-.29-.44-.71-1.56-1.2-2.52-3-3.71-4.54-1.43-1-2-2.82-3.37-3.93C115.94,12,115.49,12.16,115.54,12.52Zm26.38.38c.37-.39-.15-.84-.11-1.31h-.17C141.7,11.93,141.58,12.6,141.92,12.9Zm1.32-.82c.19.53.11.8.28,1.37a1.15,1.15,0,0,0,.11-1.64C143.55,12,143.27,11.89,143.24,12.08Zm-2.32,1.37a2.68,2.68,0,0,0,.28-1.59C140.41,12.1,140.78,12.74,140.92,13.45Zm-14.21-1.26c.06.16.07.37.28.38s0-.44.05-.65A.29.29,0,0,0,126.71,12.19Zm6.64,1.8c.48-.1.48-.72.6-.92,0,0,.1.06.11,0a2,2,0,0,1-.22-1.2C132.88,12.16,133.26,13.28,133.35,14Zm2.54-1.63a.92.92,0,0,0-.06-.39c-.81.35-.27,1.41-.22,2.08.93-.18.1-1.37.5-1.86C135.93,12.14,136,12.37,135.89,12.36Zm-7.41.1a3.42,3.42,0,0,0,.11.88,1.2,1.2,0,0,0,.22-1.26A.51.51,0,0,1,128.48,12.46Zm9.46.88c.05-.25.32-.84.05-1A.83.83,0,0,0,137.94,13.34ZM126,13.23a1.71,1.71,0,0,0-.6-.87A2.67,2.67,0,0,0,126,13.23Zm12.73-.33c-.06-.16-.24-.21-.28-.38a4.25,4.25,0,0,0-.44,1.86,2.24,2.24,0,0,0,.77-.66C138.75,13.33,138.45,12.7,138.77,12.9Zm1.6,1.64c.69-.4.12-1.38-.06-2A2,2,0,0,0,140.37,14.54Zm-5.2-1.64c.09,0,.19,0,.17-.11s-.15-.18-.28-.22a9.33,9.33,0,0,0-.61,2.74c.42-.23.61-.67.94-1C135.34,13.82,135.27,13.63,135.17,12.9ZM143,14.05c.47-.25.19-1.18-.05-1.48C142.87,13.06,142.62,13.74,143,14.05Zm-13.71.11c0,.68.14,1.22.11,1.8.64-.07.45-1,.83-1.31a6.56,6.56,0,0,0,.22-1.75s-.05-.06-.11-.05C130.16,13.32,129.68,13.64,129.31,14.16Zm11.45-1c0-.12,0-.29-.17-.32C140.68,13,140.48,13.16,140.76,13.17Zm-3,1.48c.14-.55-.21-1.1-.22-1.69-.07,0-.07-.07-.16-.06a1.57,1.57,0,0,1-.78.6,4.21,4.21,0,0,0,.33,2.19C137.12,15.26,137.59,15.16,137.71,14.65Zm-10.12-.87a4.43,4.43,0,0,0,.72,1,2.84,2.84,0,0,0-.16-1.8A1.61,1.61,0,0,0,127.59,13.78Zm4.76.87c.27-.37.62-1.45.33-1.69C132,13.34,132.39,14,132.35,14.65Zm-17.48-.55A6.7,6.7,0,0,1,116,15.85c.23.19.58.38.55.66,1.51,1.27,2.45,3.12,3.87,4.48a2.48,2.48,0,0,0,1.22,1.15c.23-.12.43-.27.66-.39-2.45-2.8-4.42-6.08-7.08-8.68A3.22,3.22,0,0,0,114.87,14.1Zm26.44-.65c.22,0,.28-.31.11-.38A.4.4,0,0,0,141.31,13.45Zm1,1.26a1.65,1.65,0,0,0-.05-1.48.29.29,0,0,1-.22-.06C141.75,13.65,142.09,14.36,142.3,14.71Zm-8.07-1c.16,0-.08.4.17.32a.64.64,0,0,0,.11-.65A1.26,1.26,0,0,1,134.23,13.67Zm4.87.21a1.76,1.76,0,0,0,.33,1c.07-.59.37-1.05.22-1.58h-.17C139.46,13.63,139.2,13.68,139.1,13.88Zm5.42-.49a1,1,0,0,0-.45,1.48c.24-.2.49-.39.72-.6C144.88,13.8,144.6,13.7,144.52,13.39Zm-17.81.71c-.16-.22-.2-.57-.5-.65C126.36,13.69,126.45,14,126.71,14.1Zm15.21.17c-.21-.11-.2-.43-.33-.6-.68.3-.36,1.19-.23,2,.87-.08.4-1.09.45-1.47C141.77,14.25,141.92,14.4,141.92,14.27Zm-10.73,1.58c-.24-.09-.14-.51-.39-.6a2.51,2.51,0,0,0,.22,1.31c.13-.2-.1-.65,0-.82A.15.15,0,0,0,131.19,15.85Zm.17.22a2,2,0,0,0,.88-1c-.2-.09-.11-.14-.17-.32.19,0,.21-.1.22-.22s-.16.1-.22-.06c.09-.19,0-.43,0-.71-.29,0,0,.51-.5.49,0,.46-.36.48-.44.82C131.26,15.29,131.12,15.87,131.36,16.07Zm1.43-1.36c.13-.18.46-.52.17-.77A1.29,1.29,0,0,0,132.79,14.71Zm.94,1.47A2.72,2.72,0,0,0,134,14C133.16,14.08,133.46,15.47,133.73,16.18Zm4.32-.27s-.07,0-.06-.06,0-.24-.05-.49c.22,0,0,.23.22.22s-.17-.18,0-.22a3.93,3.93,0,0,1,.22,1c.47-.22,1-.66.72-1.26.05,0,.2.13.16-.05s-.18.11-.16-.06,0-.09.11-.16c-.13-.06-.17,0-.22-.16.15-.05.11.1.22.1,0-.36-.38-.3-.22-.54,0,.15-.09-.09-.11-.11a1.15,1.15,0,0,0-.78,1.15.32.32,0,0,0-.27-.06c-.09.7-.29,1.43-.39,2.13a1.45,1.45,0,0,0,.77-.87c-.37-.21.07-.67-.11-.77C138.09,15.81,138.11,15.9,138.05,15.91Zm5-1.2c.18.11,0,.44.34.49.08-.12.26-.9-.06-1C143.22,14.35,143,14.44,143,14.71Zm-7.3.21c.19,0,.28-.57.06-.6C135.65,14.51,135.69,14.66,135.72,14.92Zm3.93.22c.22,0,.3-.21.39-.38-.18,0,0-.44-.22-.44A4.68,4.68,0,0,0,139.65,15.14Zm-3.48-.6a4.89,4.89,0,0,0-.23,2C136.72,16.32,136.57,15.15,136.17,14.54Zm4.36,1.26a1.21,1.21,0,0,0,.17-1.26C140.25,14.93,140.45,15.18,140.53,15.8Zm-11.39-.17c0-.35.11-.82-.22-1C128.67,15,128.64,15.51,129.14,15.63Zm-14.65.55a3,3,0,0,1,.77,1.2c.41,0,.32.56.72.6-.18.18.15.13.11.33a37.45,37.45,0,0,1,3.1,3.44c.21.23.75.48.5.77.34-.09.38.41.66.55.28-.2.65-.31.77-.66-2.24-2.44-4.1-5.27-6.41-7.65C114.65,15.09,114.6,15.65,114.49,16.18Zm14.32,1a12.41,12.41,0,0,0-1.66-2.41A8.87,8.87,0,0,0,128.81,17.22Zm6.64-2.13c0-.1,0-.12.11-.06,0-.11-.19-.31-.28-.16s-.31.52-.5.49a.29.29,0,0,0,.06.17c-.66.42-.31,1.63-.11,2.18a2.19,2.19,0,0,0,.77-2.4h.17c0-.18,0-.23-.06-.28S135.45,15.22,135.45,15.09Zm7.13,1.36c.16-.23.39-.37.5-.65-.18-.28-.11-.8-.39-1C142.63,15.39,142.24,16,142.58,16.45Zm-10.06.88c.45-.12.56-.57.88-.82a3.92,3.92,0,0,1-.11-.88c.09.08.22.08.11-.05.16-.06-.09-.06-.11,0-.1-.27.05-.55-.22-.71C132.22,15.49,132.43,16.32,132.52,17.33ZM144,15.47c.18.41.11,1.06.39,1.37a3.23,3.23,0,0,0,.27-2A6.27,6.27,0,0,0,144,15.47Zm-7.36-.11c-.12-.19,0-.36-.16-.44C136.46,15.06,136.4,15.38,136.66,15.36Zm3.16,2a5.78,5.78,0,0,0,.6-.71c-.24-.54-.06-1.19-.44-1.42C139.29,15.64,139.53,16.66,139.82,17.33Zm5.08-1a.61.61,0,0,0,.28-.76C144.9,15.63,145,16.08,144.9,16.29Zm-14.32.6c-.26-.18.14-.5-.05-.87.07,0,.09.09.16.11,0-.23-.16-.32-.16-.55C130,16,129.84,17.78,130.58,16.89Zm6.64.27c0-.57.23-.94.27-1.53C136.78,15.5,136.8,16.68,137.22,17.16Zm4.59.06a1.43,1.43,0,0,0,.11-1.59C141.26,15.9,141.53,16.8,141.81,17.22Zm2,.27c.35-.41,0-1.41-.22-1.8A3.5,3.5,0,0,0,143.8,17.49Zm-2.71-1.42c-.05-.09,0-.27-.11-.33C141,15.89,140.78,16.11,141.09,16.07Zm-9.73.66a2.66,2.66,0,0,0,.22,1,7.41,7.41,0,0,0,.38-1.59c-.1,0-.12-.06-.22-.05C131.72,16.44,131.5,16.55,131.36,16.73Zm2.87-.44a2,2,0,0,0-.33.82,7.57,7.57,0,0,0,0,1.26C134.79,18.05,134.17,17.05,134.23,16.29Zm6.58.33a3.77,3.77,0,0,0,.28,1.47,1,1,0,0,0,.39-.54,1.94,1.94,0,0,1-.17-.66c.1.05.07.22.28.17.09-.3-.25-.16-.34-.28s0-.41-.16-.44C141.1,16.54,140.89,16.52,140.81,16.62Zm1.72.11c.1.48,0,.81.16,1.25a4.23,4.23,0,0,0,.44-1.58C142.84,16.22,142.83,16.74,142.53,16.73Zm-6-.33a.54.54,0,0,0-.28.44c-.07,0-.08-.07-.16-.06a7.84,7.84,0,0,0,.11,1.81C137.14,18.35,137,17.11,136.5,16.4Zm2.54.05c-.16-.08-.4.23-.55.33a4.84,4.84,0,0,0,.28,1.15C139,17.43,138.9,16.9,139,16.45Zm.5.22c0-.13,0-.26-.11-.27C139.44,16.58,139.3,16.66,139.54,16.67Zm5.09,1.92a1.82,1.82,0,0,0,.66-1.92C144.5,16.91,144.48,18,144.63,18.59Zm-12.45-1.37a.91.91,0,0,0-.33.76c.58-.14.52-.89.28-1.25A1.23,1.23,0,0,0,132.18,17.22Zm7,.76c0-.2.24-.2.33-.32.17-.37-.17-.5.06-.55,0-.19-.2-.14-.17-.33,0,0,.07,0,0-.05A2.41,2.41,0,0,0,139.15,18Zm-24.61,1.1a5.27,5.27,0,0,0,.67.65q.32.32.6.66c.41.48.92.94,1.33,1.42.07.08,0,.24.11.33s.51.45.72.71c.42.52.54.85,1,1,.35-.2.63-.25.83-.5a14,14,0,0,0-2.38-3.06c-.93-1.18-1.92-2.37-2.93-3.44-.07,0-.07-.07-.16-.05C114.41,17.5,114.19,18.49,114.54,19.08ZM131,18.86c.64-.24.26-1.36.06-1.86C130.65,17.32,131,18.45,131,18.86ZM143.24,17c0,.42-.25.94-.11,1.2.42-.1.29-.65.34-1,0,0,0,.06.05,0C143.31,17.26,143.45,17.06,143.24,17Zm-10.5,2.57a2.5,2.5,0,0,0,.72-2.46c-.07,0-.08-.07-.17-.05C132.48,17.52,132.51,18.59,132.74,19.57Zm4.59-1.48a5.26,5.26,0,0,0,.27,1.37c.47-.16.65-.6.94-.93a5.18,5.18,0,0,0-.33-1.42C138,17.49,137.41,17.6,137.33,18.09Zm-2.1.88c-.31.16-.16.5-.23.82a1.55,1.55,0,0,0,.83-1.92c.07,0,.16,0,.17-.05-.32,0-.06-.6-.39-.6C135.49,17.76,135,18.31,135.23,19Zm4.59-1.37a1.47,1.47,0,0,0,.16.88,5.68,5.68,0,0,0,.39-1.21C140,17.21,140.11,17.6,139.82,17.6Zm2.43,1.59c.48-.54.18-1.22-.06-1.81A2,2,0,0,0,142.25,19.19Zm-12.06.6c.8-.28.49-1.56.34-2.08A3.15,3.15,0,0,0,130.19,19.79Zm10.07-.71c.4-.36.71-.95.22-1.37C140.56,18.12,140,18.58,140.26,19.08Zm3.87-.6c-.15-.11,0-.52-.22-.55C144,18.11,143.92,18.64,144.13,18.48Zm-9.29.27A5.82,5.82,0,0,0,135,18C134.54,17.89,134.69,18.57,134.84,18.75Zm4.26,1.42c.55-.22.63-.9.77-1.53-.2.11-.17-.06-.22-.22.06,0,.07,0,.11.06-.14-.16-.06-.49-.22-.5C138.79,18.36,138.77,19.31,139.1,20.17Zm-6.58-1.64c-.29,0,0-.52-.39-.44,0,.26-.1.38-.33.39-.18.24.07.82-.17.82a2.61,2.61,0,0,1,.33.92c.76,0,.32-.94.61-1-.08,0,0-.12,0-.17s-.11.08-.17.11C132.48,18.89,132.34,18.76,132.52,18.53Zm8.84.87a3.89,3.89,0,0,0,.23-1.31C141,18.18,141.08,19,141.36,19.4Zm1.77.82a1.32,1.32,0,0,0,.34-2C142.77,18.74,142.91,19.57,143.13,20.22Zm-8.84-1.8a.46.46,0,0,1-.34.44c0,.8.08,1.05.11,1.75.88-.23.43-1.16.39-2,.11,0,.11.16.22.05C134.59,18,134.65,18.7,134.29,18.42Zm-5.42.22c-1.36,1.13-3.2,1.75-4.59,3.06-.83.35-1.43.92-2.22,1.31a.28.28,0,0,1-.11.38c-.17,0-.16-.09-.33-.05-1.08.86-2.27,1.62-3.43,2.4,0,.15,0,.33-.11.33-.36-.12-.62.14-.83.33,1.7,1.86,3,4.11,5.64,5,.33-.51.53-1.1.89-1.7.48-.79,1-1.77,1.44-2.57.17-.31.23-.67.38-1,.36-.69.92-1.14.94-2,.09-.1.22.08.34-.05.49-1.75,1.68-3.21,1.76-5,.08.08.25.06.39.06a1.18,1.18,0,0,0,.17-.5A.48.48,0,0,0,128.87,18.64Zm7.41.44c-.07.22.12,1.29.27,1.25-.07-.5.26-1.09.28-1.69A.6.6,0,0,0,136.28,19.08Zm8.4-.11c0,.2.08.21,0,.38a1,1,0,0,1,.17.77c.11,0,.07.15.22.1.05-.61,0-1,.06-1.47C144.89,18.74,144.89,19,144.68,19Zm-7.52.11c0-.07,0-.16,0-.17a12.78,12.78,0,0,0-.28,1.26c.31,0,.27-.24.5-.27a2.07,2.07,0,0,0-.11-.6c.07.07.2.07.22-.06-.14,0-.27,0-.28-.11s.13-.09.06-.11S137.21,19.09,137.16,19.08Zm3.26,2.13c.25-.39.9-.73.56-1.37.07-.05.2-.05.22-.16s-.12.06-.22.05c-.12-.35,0-.6-.22-.82a1.66,1.66,0,0,0-.72,1.31l-.17-.16c-.23.65-.16,1.41-.44,2.24.65-.2.7-1.1.72-1.36-.21-.08-.15-.18-.17-.5.29.07.06-.16.17-.16C140.4,20.55,140.05,21,140.42,21.21Zm-7-1.2h-.17c0,.14.12.11.12.21-.29.38-.26.83-.5,1.32.92-.08,1.07-1,.83-1.81.07.07.2.07.22-.05-.29,0-.1-.45-.33-.49C133.43,19.5,133.26,19.71,133.4,20Zm2.71.16a1.09,1.09,0,0,0-.11-.71s-.05-.06-.11-.06a3,3,0,0,1-.83.66,4.58,4.58,0,0,0,.06,1.8c.53-.35,1.22-.63,1-1.53.06,0,.12.1.16,0S136.13,20.28,136.11,20.17Zm.11-.49c0-.17.06-.43-.11-.44A.33.33,0,0,0,136.22,19.68Zm1.38.38c.26.24.07.74.34.88a3.46,3.46,0,0,0,.49-1.7A1.93,1.93,0,0,0,137.6,20.06Zm4-.38c.17.05.17-.09.27-.11s0-.33-.16-.33C141.69,19.41,141.57,19.48,141.59,19.68Zm.82.44c0-.13.3-.61,0-.77C142.27,19.51,142.12,20,142.41,20.12ZM129.64,20h.22v-.38h-.16C129.74,19.76,129.61,19.78,129.64,20Zm1.72,0s.1,0,.11.06c-.3.19-.26.67-.11,1a.87.87,0,0,0,.11-1.37A.92.92,0,0,0,131.36,20Zm-16.65-.11c.11,2.29,1.59,3.42,2.87,4.92.28-.22.71-.28.89-.6a23.44,23.44,0,0,0-3.93-4.43C114.62,19.75,114.64,19.82,114.71,19.84ZM138.27,21c.35-.16.82-.81.38-1.25C138.61,20.26,138.24,20.69,138.27,21Zm6-.32c.26,0,.07-.82-.12-.93C144.27,20.2,144.21,20.25,144.3,20.72Zm-.56-.66c-.5,0-.75,1.14-.33,1.64a3.07,3.07,0,0,0,.39-1.8C143.8,20,143.73,20,143.74,20.06Zm-13.88.6s-.05.06-.11.06A2.73,2.73,0,0,0,130,22.3c.48-.21,0-.9.11-1.26a3.93,3.93,0,0,0,.22.66c0-.08-.07-.28,0-.27s0,.24.17.21a2.43,2.43,0,0,0,.11-1.69c-.22.11-.44.22-.5.49a1.29,1.29,0,0,1,.17.93A1.1,1.1,0,0,0,129.86,20.66Zm11.62-.27c0,.49.06,1,.11,1.42.74-.26.65-1.28.27-1.86C141.79,20.15,141.57,20.21,141.48,20.39Zm-8.58-.06s.15-.37-.05-.32C132.82,20.13,132.72,20.3,132.9,20.33Zm3.6,1.26c.26.14-.07.86.27.93a7.28,7.28,0,0,0,.89-.93c0-.3-.28-.79-.06-1.09-.28.09-.07-.29-.27-.28A2.07,2.07,0,0,0,136.5,21.59Zm-4.43-.76c.25.36.1.92.45,1.09a2.05,2.05,0,0,0-.12-1.64C132.32,20.49,132.15,20.61,132.07,20.83Zm7-.22c.09.28.1.66.22.93a3.08,3.08,0,0,0,.11-1.15s-.05-.06-.11-.06C139.36,20.54,139.11,20.45,139.1,20.61Zm-5,.71c.2.12,0,.35.17.54a4.43,4.43,0,0,0,.28-1C134.16,20.85,134.18,21.19,134.06,21.32Zm5.15,1.2a8.47,8.47,0,0,1-.17-1s0,.06.06.05-.08-.11-.11-.16.15,0,.16-.11c-.22.05-.15-.26-.27-.44-.35.17-.53.5-.83.71.06.92-.09,1.4.33,2C138.62,23.22,139,23,139.21,22.52Zm-7.8-.44c-.08-.06-.14-.06-.17.06.41.06,0,.6.39.76.25-.26.72-.41.55-.93.06,0,.07.05.11.06-.08-.38-.33-.49-.16-.88C131.44,20.73,131.24,21.59,131.41,22.08Zm11.23.33c.12.12.18-.09.33-.11.05-.6-.13-.86-.11-1.31h-.17C142.48,21.44,142.69,22,142.64,22.41Zm-2,0c.1-.45.38-1,.22-1.37C140.71,21.41,140.07,22,140.65,22.41Zm4-1c-.09,0,0-.17-.22-.11-.09.34-.12.6.11.82a1.76,1.76,0,0,0,.27-.93c-.06,0-.15,0-.16.06S144.7,21.36,144.63,21.37Zm-15.27-.16c-.26.16-.36.47-.55.71.27-.22.36.43.11.27.23.22.22.34.28.71.43,0,.46-.36.5-.6,0,.1.05.13.16.11a2.55,2.55,0,0,0-.16-.66c-.11.14.12.44,0,.5C129.58,21.91,129.59,21.43,129.36,21.21Zm5.42.43c0-.11.09-.37-.11-.32C134.67,21.46,134.64,21.64,134.78,21.64ZM133,22a5.31,5.31,0,0,0,.22,1.75A9.18,9.18,0,0,0,134,23a8.45,8.45,0,0,1-.17-1.53C133.4,21.48,133.33,21.9,133,22Zm2.6,0c-.63.18-.25,1.39-.06,1.86a10.09,10.09,0,0,0,.67-2.35A.73.73,0,0,0,135.56,22.08Zm5.86-.16a.22.22,0,0,0-.06-.33C141.33,21.73,141.31,21.82,141.42,21.92Zm2.1,1.31c.26-.11.38-.35.66-.44,0-.44,0-.92-.22-1.15A2.52,2.52,0,0,0,143.52,23.23Zm-8.9-.76c.26-.1.41-.66,0-.77h-.11C134.54,22,134.47,22.24,134.62,22.47Zm6.3.1a.49.49,0,0,0,.22-.82C141.14,22.1,140.84,22.14,140.92,22.57Zm-9.84.77c.47-.2.08-1.18,0-1.53A6,6,0,0,0,131.08,23.34ZM141.81,23c.13-.29.34-1,.22-1.09A.75.75,0,0,0,141.81,23Zm-1.5-1c-.73,0-1,1.13-.66,1.86.74-.28.8-1.12.61-1.81C140.26,22.14,140.33,22.13,140.31,22Zm-12.5,2.29c.36-.27.74-.55.56-1.2.28,0-.07-.32.39-.33.13.17-.11.44.11.55.23-.37,0-.93-.23-1.31A9.56,9.56,0,0,0,127.81,24.32Zm8.52-1.8c.08,0,.09-.07.17,0-.05-.16.08-.14.05-.27S136.3,22.53,136.33,22.52Zm.44.27a4.83,4.83,0,0,0,.17,2c.28-.85.35-1.58.61-2.46,0,0-.05-.06-.11-.05C137.16,22.38,137.2,22.81,136.77,22.79Zm5.31.28a.32.32,0,0,0,.17-.55A4.42,4.42,0,0,1,142.08,23.07Zm-11.83.54a6.48,6.48,0,0,0,.16-1C129.89,22.62,130,23.33,130.25,23.61Zm5.81-.38c.33-.07.31-.46.44-.6C136.14,22.45,136.15,23,136.06,23.23Zm-1.77-.05c0,.62-.12,1.41.22,1.91a6.27,6.27,0,0,1,.66-.6c0-.55-.17-1,0-1.2-.24.16-.15-.48-.22-.66C134.54,22.62,134.58,23.07,134.29,23.18Zm8.62.71a2.54,2.54,0,0,0,.28-1.26C142.51,22.63,142.74,23.55,142.91,23.89Zm-1.55-1.15c-.53,0-.88,1-.49,1.58C141.48,24.19,141.58,23.4,141.36,22.74Zm-24.72,2.62c.16-.1.39-.13.5-.27-.27-.76-1.08-1.26-1.27-1.91-.2,0-.29-.41-.44-.28C115.81,23.8,115.78,24.77,116.64,25.36Zm15-2a2,2,0,0,0,.28,1.1,8.51,8.51,0,0,0,.33-1.64C131.9,22.89,131.94,23.32,131.63,23.39Zm6.31.11a1.16,1.16,0,0,0-.06-.54h-.22c-.06.48-.21.88-.28,1.36C137.82,24.33,138.24,23.55,137.94,23.5Zm-8.35,1.26c.66,0,.29-.79.33-1.15.08.07.07.5.22.33,0-.33-.26-.5-.44-.82-.08.16-.27.21-.39.33s.2.38-.06.38c0-.1.07-.12.06-.22-.26.12-.54.2-.61.49.25.31.08.87.39,1.21.08-.07.13-.16.27-.17.07-.25-.29-.59,0-.71,0,.17-.14.28.06.33a.56.56,0,0,0,0-.44c-.07-.13-.21.06-.22-.05s-.17-.42,0-.49c0,.25.21.07.22.16C129.45,24.24,129.55,24.47,129.59,24.76Zm14.15-.38c.12-.4.4-.63.5-1C143.85,23.26,143.35,24,143.74,24.38Zm-11.39-.17c-.08,0-.09-.06-.17,0v.33c.32,0,.32-.27.56-.33-.06-.32-.05-.72-.34-.82C132.54,23.8,132.22,23.85,132.35,24.21Zm3.54-.32a3.28,3.28,0,0,0-.17,2.07c.42-.4,1.23-.77.83-1.64.09,0,.19,0,.17-.11-.33,0-.22-.46-.06-.54-.13,0-.12-.15,0-.22C136.14,23.24,136.22,23.92,135.89,23.89Zm3.1.49c.44.18.55-.7.38-1,0,.21,0,0-.16.06-.07.2.29.25.11.38C139.07,23.46,139.1,24.26,139,24.38Zm3,.54c.63-.22.59-.7.5-1.47C141.74,23.45,141.73,24.33,142,24.92Zm-3.37,0c.05-.5.26-.83.28-1.36C138.31,23.44,138.16,24.56,138.6,24.92Zm-8.19-1c.22.06.3-.25.12-.27C130.53,23.8,130.44,23.84,130.41,23.94Zm.89,1.42c.69-.18.16-1.19,0-1.64C130.84,24,131.18,25,131.3,25.36Zm2.1.44c.45-.34.33-1.53.39-2.08C132.87,24,133.31,25.08,133.4,25.8Zm6.42-.44c.34-.28.32-.91.44-1.42C139.66,23.89,139.67,24.74,139.82,25.36Zm-1.88-1.15a2.21,2.21,0,0,0-.89,2.14,3.69,3.69,0,0,0,1.22-1.1c-.05-.29-.23-.68-.06-.87C138.08,24.36,138.11,24.19,137.94,24.21Zm5.19,1c.31-.19.23-.75.06-1A2.2,2.2,0,0,0,143.13,25.25ZM128.76,25c-.1.14-.34-.36-.12-.49-.18,0-.07-.22-.27-.17a1.2,1.2,0,0,0-.11,1.64c.26,0,.35-.23.5-.38A.62.62,0,0,1,128.76,25Zm1.54.05c-.16.18.09.28.06.5.26,0,0-.25.11-.22.1.23.05.6.28.71a.27.27,0,0,1,.16-.17,6,6,0,0,0-.16-1.53c-.38,0-.36.41-.5.66.11,0,.11-.07.16-.11-.07.16.16.28,0,.33A.15.15,0,0,0,130.3,25Zm10.62-.27a7,7,0,0,0,.11.93,1.57,1.57,0,0,0,.33-1.37A1.42,1.42,0,0,1,140.92,24.76Zm-.55.11c.21,0,.32-.33.11-.38C140.47,24.64,140.38,24.72,140.37,24.87ZM117.92,25c.15,0,.71-.3.66-.49A4.51,4.51,0,0,1,117.92,25Zm14.15.22a2.06,2.06,0,0,0,.39,1.53c.72-.23.62-1.56.28-2.18C132.57,24.87,132.19,24.92,132.07,25.25Zm6.75-.16c0,.48-.28,1.25-.11,1.47.38-.18.49-.64.89-.82.07-.32-.2-.64.11-.71a.39.39,0,0,1-.23-.38c-.22,0-.34.17-.44.17C139.11,24.83,139,25.15,138.82,25.09Zm3.1.38c0,.24.14.52.05.66.48-.12,1-.82.56-1.31C142.43,25.14,142.1,25.23,141.92,25.47Zm-7.52.06c.07.38.1.95.22,1.42a3.82,3.82,0,0,0,.66-2c-.07,0-.07-.07-.16-.05C135,25.17,134.63,25.3,134.4,25.53Zm-6.69-.33a1.7,1.7,0,0,0-.56,1.75,1.19,1.19,0,0,0,.72-1.59C127.75,25.37,127.69,25.32,127.71,25.2Zm12.88-.06c-.58.33-.38,1-.5,1.59.32-.09.43-.38.72-.49,0-.38,0-.56-.11-.77h.17A.31.31,0,0,0,140.59,25.14ZM130,25.47c0,.19.12.54-.11.71a1.35,1.35,0,0,0,.11.55c.57-.27.21-.88.22-1.37h-.17S130.08,25.47,130,25.47Zm-1.11,1c0-.09-.16-.22,0-.27.11.15,0,.19.17.22,0-.24-.08-.27,0-.44a.93.93,0,0,0-.72.6,5.53,5.53,0,0,1,.33,1.21c.23,0,.26-.22.44-.28a1,1,0,0,0,0-.43c.15.15,0-.08.16-.11-.09-.18-.08-.12-.05-.39C129.09,26.46,129,26.51,128.92,26.45Zm.55.28a1.57,1.57,0,0,0,0-1.15c-.15,0-.23.13-.38.16C129.28,26,129,26.7,129.47,26.73Zm6.47.71c.68-.29.73-.87.78-1.75C135.78,25.73,135.68,26.73,135.94,27.44Zm1.33-1c-.08.19.19,0,.17.16-.56.2-.37.88-.28,1.37a2,2,0,0,0,1.16-2.19C137.87,25.84,137.77,26.53,137.27,26.4Zm-3.54.66c-.26.09,0,.63-.33.82.28.13.85-.28.94-.66A2.35,2.35,0,0,0,134,25.8C134,26.33,133.51,26.68,133.73,27.06Zm-3.15-.93c0-.16,0-.3-.17-.28C130.42,26,130.43,26.14,130.58,26.13Zm10.67.71c.44,0,.49-.47.45-1h-.17A2.56,2.56,0,0,0,141.25,26.84Zm-10.06-.44h.17c0-.08-.08-.39-.17-.22C131.25,26.23,131.23,26.3,131.19,26.4Zm7.58.44c.16.38,0,.81.33,1a1.83,1.83,0,0,0,.61-1.69h-.17C139.38,26.46,139,26.62,138.77,26.84ZM126,27.27c.06.22.25.31.39.44.19-.36.62-1.2.17-1.53A6.21,6.21,0,0,1,126,27.27Zm5.92-.92c-.27.2-.29.66-.33,1.09.22,0,.3-.21.5-.28C132.14,26.77,131.94,26.62,132,26.35Zm-1.05.43c.06-.14.09-.35-.16-.33A.23.23,0,0,0,130.91,26.78Zm11.23.06c0-.15.23-.14.22-.33h-.22C142.22,26.67,142,26.79,142.14,26.84Zm-7,.43c-.18-.06,0,.18-.22.11,0,.16.17.13.17.28s-.18.08-.17.22c.27,0,0,.31.05.49a1.16,1.16,0,0,0,.45-1.75C135.3,26.76,134.88,27.05,135.17,27.27Zm-7.85.17c.1.43.22.83.33,1.26.44-.05.42-.54.83-.61-.07-.38-.19-.69-.06-.93-.09,0-.14.09-.16,0s0-.34-.06-.49C127.8,26.82,127.65,27.22,127.32,27.44Zm3.76.11c.29-.16.18-.64.16-.88-.06,0-.15,0-.16.06S131.05,27.39,131.08,27.55Zm9-.33c0,.39,0,.39.06.76.36-.33.79-.6.77-1.31C140.54,26.75,140.36,27,140.09,27.22Zm-10,.82c-.19-.06-.09.17-.11.27C130.19,28.32,130.2,28.09,130.14,28Zm.55-1.31c-.13,0-.1.26-.39.11,0,.14-.07.18-.22.16a4.49,4.49,0,0,0,.06.66c-.07,0-.08-.07-.17-.06.1.21-.09.36.17.38,0-.13-.08-.19.05-.27a3.92,3.92,0,0,0,.11.88h.23c-.05-.21.14-.19.22-.28,0-.38-.06-.35-.06-.71.07,0,.08.07.17.06,0-.27-.17,0-.22-.17s0-.15.05-.16,0,.15.06.16C130.88,27.16,130.66,27,130.69,26.73Zm1.77.6c.22.34.15,1,.44,1.26.31-.48.07-1.17.17-1.81-.07,0-.08-.07-.17-.05C132.92,27.09,132.55,27.07,132.46,27.33Zm8.79-.11c.06.25-.15.54.06.82a1.42,1.42,0,0,0,.55-1c-.1,0-.1-.16-.27-.11A.32.32,0,0,1,141.25,27.22Zm-3.15,1.31c.54-.2.83-.66.5-1.2C138.19,27.49,138.32,28.08,138.1,28.53Zm-8.63-.93c0,.43.18,1,.23,1.53.7-.18.06-1,.16-1.69A.54.54,0,0,0,129.47,27.6Zm2.16.49c-.53.25-.34,1.21-.5,1.81.16.31.69-.06.5-.38.18.06.15,0,.28-.06,0-.17-.17-.2-.11-.44-.1-.11-.17,0-.22-.11s-.16-.56-.06-.71a5.22,5.22,0,0,1,.11.66C132,28.71,131.59,28.41,131.63,28.09ZM132,29.4c.66-.12.53-.71.67-1.14,0-.13-.1-.16-.06-.33-.28,0,.09.23-.11.27a2.56,2.56,0,0,1-.17-.76c-.32,0-.27.42-.6.44C131.75,28.25,131.86,28.9,132,29.4Zm-6.25-1.58c.05.22,0,.19,0,.44.26,0,.3-.18.39-.33-.13,0,0-.26-.22-.22A.15.15,0,0,1,125.71,27.82Zm1.17,1.64c.69-.12.52-1,.55-1.42a.34.34,0,0,0-.22.05c0-.21-.06-.34-.22-.38C126.39,28.12,126.62,28.81,126.88,29.46Zm9.29-.93c0-.26.34-.65.05-.82A.6.6,0,0,0,136.17,28.53Zm-2.71,0c0,.07.34.3,0,.33.23.36,0,.56.16.87a1.34,1.34,0,0,0,.72-2C134.08,28,133.53,28.17,133.46,28.53Zm3.26,0c.2-.17.34-.6.05-.71C136.75,28,136.52,28.45,136.72,28.53Zm.66.6c.42-.11.64-.95.45-1.31A.91.91,0,0,0,137.38,29.13ZM139.65,28c0,.21.07.27.06.44.28,0,.28-.45.11-.54A.15.15,0,0,1,139.65,28Zm.94-.05a1,1,0,0,0-.33,1.15C140.66,29.05,140.73,28.13,140.59,27.93Zm-11.72.44c.19,0,.16-.16.16-.33h-.16A.26.26,0,0,0,128.87,28.37Zm10.23-.28c.08.2-.11.35.16.39a2.57,2.57,0,0,0,.06-.44A.34.34,0,0,0,139.1,28.09Zm-3.82,1.81a6.85,6.85,0,0,0,.66-.66c-.09-.38-.06-.55-.16-.93A1,1,0,0,0,135.28,29.9Zm-10.06-1.26c.15,0,.26-.12.16-.22S125.2,28.5,125.22,28.64ZM137.88,30c.43,0,.79-.6,1.11-.93,0-.26-.05-.54-.22-.66A1.7,1.7,0,0,0,137.88,30Zm-12.11-1.15a.71.71,0,0,0,.39.66c-.09-.43.24-.69.11-1C126.11,28.43,125.91,28.76,125.77,28.86Zm2,.33a4.85,4.85,0,0,0,.34,1.36,1.64,1.64,0,0,0,.44-2c.06,0,.16,0,.17-.06C128.41,28.38,128.1,28.94,127.81,29.19Zm8.58.87a4.18,4.18,0,0,0,.77-.6c-.08-.28,0-.72-.28-.82C136.56,29.08,136.21,29.37,136.39,30.06Zm3.09-.33c.45-.06.57-.45.5-1C139.54,28.77,139.51,29.25,139.48,29.73Zm-10.34-.6c.05.28,0,.33.06.55.17.05.17-.09.27-.11.07-.22-.16-.41,0-.55,0,.06.05.42.12.28s0-.64-.23-.44c.07,0,.14,0,.11.11a.24.24,0,0,0-.38.11C129.26,29.05,129.29,29.27,129.14,29.13Zm1.39.88a1.36,1.36,0,0,0,.22-1.2.25.25,0,0,1-.28.16s0-.06-.06,0C130.35,29.21,130.57,29.79,130.53,30Zm-5.37-.39a1,1,0,0,1,.22.93c.18,0,.15.15.28.17,0-.15.17-.16.22-.28-.1-.47-.18-1.24-.44-1.36C125.56,29.26,125.15,29.37,125.16,29.62Zm5.2.06c0-.25-.05-.21,0-.44-.07,0-.13-.1-.17,0S130.14,29.61,130.36,29.68ZM132,30a2.66,2.66,0,0,0,.27,1.2,1.65,1.65,0,0,0,.28-1.8C132.42,29.66,132.09,29.57,132,30Zm-4.31-.43c0-.18-.1,0-.28-.12-.55.58-.17,1.27,0,1.81.93-.27,0-1.32.11-1.75C127.61,29.5,127.64,29.52,127.71,29.52Zm-1.28.27c.19.08.27-.37.06-.33C126.53,29.63,126.39,29.62,126.43,29.79Zm3.76,1.26c.33-.26,0-1.08-.05-1.59h-.28A2.67,2.67,0,0,0,130.19,31.05Zm7.58.05c.66-.19,1.42-.85,1.16-1.58C138.64,30.09,137.52,30.21,137.77,31.1Zm-4.59-.87c.12-.16.18-.5-.06-.61C133,29.75,133,30.16,133.18,30.23Zm2.16.82a1.25,1.25,0,0,0,.6-1.26s0-.07-.11-.06C135.54,30.13,135,30.32,135.34,31.05Zm-1.72-.5c.18.08.34.18.33.44.36-.18.19-.87.39-1.2C133.68,29.86,133.91,30.13,133.62,30.55Zm1-.11c.31,0,.27-.64.11-.6A5.78,5.78,0,0,0,134.62,30.44Zm1.82.82c.34-.18.58-.45.89-.65-.11-.23,0-.64-.22-.77C136.81,30.29,136,30.57,136.44,31.26Zm-12-.27c.22-.09.16.38.44.38.66-.24.26-1.17-.11-1.47C124.62,30.22,124.67,30.91,124.44,31Zm15.27-.49c.14-.18.63-.32.55-.55A2.17,2.17,0,0,0,139.71,30.5Zm-9.9.76c-.11-.44-.07-1-.39-1.25h-.11C129.45,30.42,129.4,31,129.81,31.26Zm1.43-.27c0-.09,0-.19.12-.16a1.52,1.52,0,0,0,.11.93c.53-.07.41-.5.49-.93,0,.12,0,.2.11.22,0-.41,0-.74-.16-.93-.1.18.08.33-.06.49-.12,0,0-.31,0-.44s-.08-.07-.17-.05C131.57,30.42,130.92,30.65,131.24,31Zm-4.53-.82c-.16.19-.46.24-.5.55s.35.43.17.71c.23.06.22.27.16.49.07.07.24,0,.39,0,.45-.45.53-.83.06-1.31.06,0,.13,0,.11-.11-.32,0,0-.28-.17-.32C126.88,30.39,126.85,30.1,126.71,30.17Zm2,2.24a2.08,2.08,0,0,0,.77-.76c-.18-.41-.17-1-.49-1.26C128.66,30.89,128.26,32,128.7,32.41Zm4.48-.6c.39-.1.25-.83,0-1.09C133,31,133.18,31.35,133.18,31.81Zm1.11.22c.4-.05,1.07-.79.55-1.31C134.42,30.93,134.36,31.48,134.29,32Zm-3.43-.49c0-.12.13-.41-.06-.44C130.81,31.26,130.64,31.49,130.86,31.54Zm5.64.38c.32-.13.89-.27.66-.77C136.79,31.26,136.49,31.44,136.5,31.92Zm-12.34,0a.37.37,0,0,0,.39-.32c-.12-.12-.08-.4-.27-.44C124.11,31.54,124.18,31.63,124.16,32Zm2.16.55c.23-.32-.12-.86-.28-1.15C126.06,31.79,125.68,32.55,126.32,32.52Zm1.27-.87a3.15,3.15,0,0,0,.22.49c.35-.1.32-.51.12-.77A.6.6,0,0,1,127.59,31.65Zm7.75.16c.22.08.32-.43.11-.44C135.42,31.53,135.24,31.7,135.34,31.81Zm-10,.71c.24-.08.26-.63.16-.87C125,31.52,125,32.29,125.33,32.52Zm5.53-.11c.21,0,.26-.18.38-.27-.12,0,0-.2-.05-.28-.25.16-.27-.1-.39-.21C130.71,32,130.83,32.08,130.86,32.41Zm-4-.11c-.2.34.38.8.88.6-.17-.38-.15-.66-.39-.93.19,0,.22-.2.06-.21A.79.79,0,0,1,126.88,32.3Zm1.93.55a1.32,1.32,0,0,0,1.05.27,1.33,1.33,0,0,0,.06-1.2A4.36,4.36,0,0,0,128.81,32.85Zm6.86-.55a.53.53,0,0,0,.55-.38C136,32,135.88,32.2,135.67,32.3ZM131.91,32c-.44.14-.28.61-.5.88-.06-.07,0-.2-.17-.22-.07.16-.27.21-.27.44.25.08.58-.12,1-.06C132.06,32.7,132.24,32.19,131.91,32Zm2.6.55c.45,0,.61.16.77-.16-.12-.08-.26-.15-.22-.39C134.65,31.93,134.71,32.36,134.51,32.52Zm-1.22.38c.39,0,.25-.48.28-.82C133.2,32.2,133.33,32.73,133.29,32.9Zm-5.09,0c.14,0,.22-.08.22-.22s0-.1-.11-.11A1.42,1.42,0,0,0,128.2,32.85Z"/><path class="cls-1" d="M111.94,28.75c-.17.07,0,.18-.11.38a3,3,0,0,1-.77.27c-.39-.14-.37-.92.16-.7.19,0,.2-.21.34-.28s.31.2.44.33S111.94,28.78,111.94,28.75Z"/><path class="cls-1" d="M101,2.52a15.91,15.91,0,0,1-2,3.11c0,.31-.16.46-.17.77-.23-.06-.47.15-.55,0a8.06,8.06,0,0,1,1.66-2.62,9.54,9.54,0,0,0,.44-1.09,8.13,8.13,0,0,0-3.1.1c-.16,0,.37-.27.44-.43C98.36,2.58,100.06,2,101,2.52Z"/><path class="cls-1" d="M109.12,16a1.79,1.79,0,0,1-.77.49c-.24.22-.38.53-.72.65,0,.11-.12.14-.11.28A26.91,26.91,0,0,0,105,19.68a8.49,8.49,0,0,0-.94,1c-.16.23-.28.92-.77.54a9.07,9.07,0,0,1,2-2.24,21.11,21.11,0,0,1,2.21-2.24C108,16.37,108.43,15.81,109.12,16Z"/><path class="cls-1" d="M108.63,29c-.12.22-.35.47-.67.33-.33.7-1.22,1.15-1.33,2.24a9.64,9.64,0,0,0,1.72-1c.19-.28.38-.66.72-.65.23.46-.29.89-.61,1.2-.16.15,0,.13-.17.44s-.33.31-.44.49,0,.23-.06.33c-.25.49-.79,1-.93,1.25s-.07.74-.61.71c-.11-.19,0-.31,0-.54a14.28,14.28,0,0,0,1.66-2.41c-.5-.05-1.06,1-1.72.44a3.75,3.75,0,0,1,2.32-2.9A.1.1,0,0,1,108.63,29Z"/><path class="cls-1" d="M72.93,31.43a1.65,1.65,0,0,1,.53.17c.39,1.55,1.64,2.23,1.76,4-.08,0-.16.08-.17.18-.88-.1-.6-.85-1.06-1.41a6.56,6.56,0,0,1-1.5-.18c-.24,0-.11.42-.44.36,0,.18.22.25.18.52-.48.12-.46.65-.7.8-.6-1,.73-2.36.88-3.7C72.71,32.08,72.75,31.68,72.93,31.43Zm-.35,2.11a3.41,3.41,0,0,0,1.06.17,1.26,1.26,0,0,0-.71-1C72.71,32.9,72.74,33.31,72.58,33.54Z"/><path class="cls-1" d="M76.1,31.43c.79.24.91,1.14,1.5,1.58.41-.69,1.06-.93,1.32-1.58a.47.47,0,0,0,.26.09c.2.78-1.1,1.23-1.14,2,0,.63,1.73,1.13.53,1.76-.53-.21-.76-.71-1.15-1.06a3.14,3.14,0,0,1-1.23,1.59c-.28,0-.23-.24-.44-.27.42-.73,1-1.26,1.41-2C76.8,32.91,75.61,32.33,76.1,31.43Z"/><path class="cls-1" d="M70.38,35c-.24.6-.34,1.23-1.06,1.14.31-1.33.46-3.27-1.14-3.26a9.35,9.35,0,0,0,.09,2.91c-.33-.13-.17.24-.44.18-.69-.32-.19-2.18-.62-3a3.8,3.8,0,0,0-1.58.18c-.64.73.74,2.6-.09,3.43-.64,0-.61-1.78-.53-2.64,0-.19,0-.44.27-.44-.08-.22-.39-.2-.36-.53.8-1,2.65-1.13,4.14-.79a4.64,4.64,0,0,0,.88.62,2.76,2.76,0,0,1,.18,2A.25.25,0,0,0,70.38,35Z"/><path class="cls-1" d="M49.7,39.88c-.29.38-.65.15-1.06.08-1.24-.21-2.81.68-3.87,0-.06-.23.18-.17.27-.26C46.35,39.75,48.2,39.38,49.7,39.88Z"/><path class="cls-1" d="M57.71,40.14c-1.47.32-3.11-.14-4.58.17,0-.23-.34-.06-.26-.35C54,39.48,55.91,39.71,57.71,40.14Z"/><path class="cls-1" d="M65,40.23c-1.24.05-2.83.05-3.87.08-.09-.73.65-.4,1.06-.43.68-.06,1.64-.27,2,.26A1.76,1.76,0,0,1,65,40.23Z"/><path class="cls-1" d="M41.6,40c-1,.33-3,.16-4.31.53C37.3,39.25,40.4,39.9,41.6,40Z"/><path class="cls-1" d="M34.21,40.4a33,33,0,0,0-4.84.27c0-.21.15-.26.09-.53C31.07,40.2,33,39.6,34.21,40.4Z"/><path class="cls-1" d="M24.18,40.67c-.73.44-3,.19-4.05.35.05-.77,1.09-.59,1.58-.62A5.84,5.84,0,0,1,24.18,40.67Z"/><path class="cls-1" d="M14.93,41c-1.86.28-3.24.29-5.36.44-.13-.71.78-.71,1.23-.71.87,0,1.82.06,2.73,0C14,40.73,14.65,40.6,14.93,41Z"/><path class="cls-1" d="M5.52,41.37c.26.33,1.09-.3,1.32.35a7.52,7.52,0,0,0-1.32.18Z"/><path class="cls-1" d="M71.17,50.08c.08.09.25.77-.08.71a8.11,8.11,0,0,1,.52,3.34c-.44.08-.37-.28-.7-.08.45-1.26-.64-2.63-.09-4Z"/><path class="cls-1" d="M71.26,58c.76.11.25,1.07.27,1.49s.63.65,0,.7c.26.4,1,1.89-.09,1.85C71.39,61.08,70.8,59.2,71.26,58Z"/><path class="cls-1" d="M88.77,68c-.92.26-4.17.13-5,.35.15-.88,1.69-.61,2.37-.7a11.67,11.67,0,0,1,2.12-.18C88.62,67.49,88.83,67.56,88.77,68Z"/><path class="cls-1" d="M29.9,68.83c-1.29-.17-2.53.28-4.14.27.09-1,2.16-.43,2.73-.62.11-.1.18-.08.17.09C29.11,68.47,29.82,68.1,29.9,68.83Z"/><path class="cls-1" d="M46,68.48c0,.12,0,.25.09.26-.21.48-.54-.07-.88.18-.1,0-.07-.16-.09-.27-.29-.05-.81.12-1-.08-.15,0-.2.15-.17.35-.67-.21-1.12.32-1.94.18-.06-.28.09-.33.09-.53.91.07,2-.31,2.82,0C45.26,68.29,45.41,68.52,46,68.48Z"/><path class="cls-1" d="M54.1,68.65c.31.48-.54.53-.79.27-1.26-.13-2.12.49-3.52.26.06-.29.34-.21.17-.53A17.88,17.88,0,0,1,54.1,68.65Z"/><path class="cls-1" d="M14.85,68.92c-.27.66-1.89-.34-2.38.35-.66-.17-1.13.16-1.85,0,0-.27-.27-.25-.17-.62C11.68,68.92,13.81,68.37,14.85,68.92Z"/><path class="cls-1" d="M22.41,69c-.35.39-1,0-1.31.35-1.24-.51-2.65.47-3.44-.26,0-.15.09-.16.09-.27A29.07,29.07,0,0,1,22.41,69Z"/><path class="cls-1" d="M98.54,73.85c.17,0,.22.18.44.17-.11,1.12.58,3.21.18,4.14-.4.14-.16-.37-.44-.35C98.75,76.49,98.27,75.39,98.54,73.85Z"/><path class="cls-1" d="M72.41,74.73c.67,1,.47,2.11.52,3.25-1.14,0-.41-2-.88-2.81C72.28,74.93,72.22,74.93,72.41,74.73Z"/><path class="cls-1" d="M7.19,82.65c0,.12-.26,0-.26.17-.91-.57-1.92,0-2.82-.26C4.47,81.32,6.6,82.23,7.19,82.65Z"/><path class="cls-1" d="M102.15,82c.62.48,1.91,0,2.55.53-.36.88-1.34.12-2.2.09-.58,0-1,.35-1.4,0C101.3,82.3,102.14,82.58,102.15,82Z"/><path class="cls-1" d="M72.41,82.12c.34-.08.06.46.26.53.93-.2,2.34,0,3.43-.18-.08.28.23.18.27.35,0,.33-.44.21-.53.44a2.61,2.61,0,0,0-.53-.52c-.82-.08-1.15.61-1.67,0-.39.13-.66.39-1.06.52.16.54.3,1.8,0,2.12a.94.94,0,0,1,0,1.23c-.32,0-.4-.66-.26-.88-.43-.87,0-1.6-.35-2.56-.59-.07-.93.12-1.15-.26C71.1,82.4,72.19,82.69,72.41,82.12Z"/><path class="cls-1" d="M97.66,82.56c.12.35-.29.18-.17.53-1.28-.37-2.08.08-3.26-.27.53-.75,1.85-.34,2.64-.17C97.14,82.62,97.4,82.32,97.66,82.56Z"/><path class="cls-1" d="M11.24,82.47c.65.36,1.21-.14,1.58.35a1.29,1.29,0,0,1,1.5.18c-.86-.1-2,.32-3.17.09C11,83,11.17,82.66,11.24,82.47Z"/><path class="cls-1" d="M21.45,82.82c-.31,1-1.62.06-2.47.44,0-.2-.25-.09-.26-.26.24-.61,1.15,0,1.32-.44C20.38,82.77,21.05,82.67,21.45,82.82Z"/><path class="cls-1" d="M90.89,82.82c0,.15-.15.23,0,.27a12.92,12.92,0,0,1-3.7.17c-.06-.38.15-.49.26-.7C88.18,83.22,90.09,82.4,90.89,82.82Z"/><path class="cls-1" d="M99.16,82.56h.35c.17,1.33.12,2.33.18,3.52-.76,0-.39-1-.44-1.58S98.76,83.31,99.16,82.56Z"/><path class="cls-1" d="M64.57,82.82h.18c1.24.34,2.54-.15,3.69.44-.23.52-.62.11-1,.09a13.15,13.15,0,0,1-2.91.09C64.41,83.14,64.62,83.1,64.57,82.82Z"/><path class="cls-1" d="M24.35,82.91c.74.21,2.36-.21,3.17.18,0,.51-.58.23-.88.26a8.66,8.66,0,0,1-2.38.09C24.2,83.17,24.35,83.12,24.35,82.91Z"/><path class="cls-1" d="M29.72,83c1.27.14,2.06-.14,3.08.17v.36c-1.18.13-1.91,0-3,.09C29.56,83.54,29.71,83.16,29.72,83Z"/><path class="cls-1" d="M55.51,83.26c0,.1,0,.16.09.18-.07.25-.33.32-.45.53-1.16-.57-2.34-.06-3.43-.53-.11-.37.3-.24.36-.44A12.82,12.82,0,0,0,55.51,83.26Z"/><path class="cls-1" d="M48.47,83.53c0,.3-.27.26-.35.44-.15-.35-.74-.27-1.24-.27C47,83.23,48.26,83.06,48.47,83.53Z"/><path class="cls-1" d="M46.71,83.44c-.35.75-1.8.53-2.56.62-.07-.25.13-.23.09-.44C45.2,83.43,45.83,83.69,46.71,83.44Z"/><path class="cls-1" d="M99.51,90.3c.67.9.46,2.78.44,3.7-.58,0-.49-.83-.53-1.23A7.18,7.18,0,0,1,99.51,90.3Z"/><path class="cls-1" d="M108.31,90.74c.85.74.72,3.14.44,4.4A12.31,12.31,0,0,1,108.31,90.74Z"/><path class="cls-1" d="M72.58,91.8c.13,1,.21,2,.27,3.08-1,.28-1-3.17-.53-3.17A.41.41,0,0,0,72.58,91.8Z"/><path class="cls-1" d="M78.13,96c-1.79.09-2.94.13-4.49.09-.14-.57.73-.68,1-.35C75.6,95.89,77.72,94.75,78.13,96Z"/><path class="cls-1" d="M70.47,96.46c-1.1.19-3.29.07-4,.18-.07-.68.53-.51.88-.44C68.21,96.13,70.19,95.35,70.47,96.46Z"/><path class="cls-1" d="M55.15,97.34c-.49.7-1.58.21-2.46.27-.6,0-1,.45-1.5.26-.07-.93,1.41-.7,1.94-.7S55,96.64,55.15,97.34Z"/><path class="cls-1" d="M31.13,97.61c-1.12,1.08-3.18-.22-4.31.53v-.53a15,15,0,0,1,3.61-.35C30.76,97.29,31,97.28,31.13,97.61Z"/><path class="cls-1" d="M39.05,97.34c-.76.92-3.42.39-4.49.71,0-.21.16-.19.09-.44A27,27,0,0,1,39.05,97.34Z"/><path class="cls-1" d="M23.56,97.52a8.5,8.5,0,0,1-4.4.53C20.17,97.79,22.29,97.16,23.56,97.52Z"/><path class="cls-1" d="M10.36,97.87c-.62.67-1.31.32-2.29.35-.4,0-.51.39-.88.18a.62.62,0,0,0,0-.53A6.41,6.41,0,0,1,10.36,97.87Z"/><path class="cls-1" d="M16.52,98.05c-.43.46-1.58.25-1.94.09-.49.11-1.23.45-1.58.17,0-.83,1.42-.52,2.2-.53C15.71,97.78,16.4,97.47,16.52,98.05Z"/><path class="cls-1" d="M108.84,98c.77.89.48,2.38.71,3.7C108.47,101.77,108.94,99.05,108.84,98Z"/><path class="cls-1" d="M40.37,98.66c.06-.26.19.09.35,0,0,1.71.05,3.29-.09,4.76A10.65,10.65,0,0,1,40.37,98.66Z"/><path class="cls-1" d="M72.23,99h.26a34.68,34.68,0,0,1,.36,4.22c-.9.16-.65-1.31-.71-2.2A3.82,3.82,0,0,1,72.23,99Z"/><path class="cls-1" d="M90.18,103.51h.18a10.26,10.26,0,0,1,.53,4.31c-.22,0-.19-.16-.45-.09A15.64,15.64,0,0,1,90.18,103.51Z"/><path class="cls-1" d="M100.65,104.91h.27c.28,1.09.75,3.25.18,4.14A9.64,9.64,0,0,1,100.65,104.91Z"/><path class="cls-1" d="M109.28,105.18a.48.48,0,0,0,.27.09,13.72,13.72,0,0,1,0,2.72h-.36A10.26,10.26,0,0,1,109.28,105.18Z"/><path class="cls-1" d="M11.86,105.88c0,.28.26.2.17.53-1,.1-2,.08-3.08.09,0-.91,1.33-.5,1.85-.53A4.37,4.37,0,0,1,11.86,105.88Z"/><path class="cls-1" d="M72.67,106.67c.48.43.44,1.37.53,2.12a9.52,9.52,0,0,1,.08,2.55c-.83,0-.51-1.29-.61-2-.13-1-.54-2-.18-2.64Z"/><path class="cls-1" d="M40.81,107.82h.26c.38.72-.08,2.27.36,3.17-.55.16-.46-.31-.71-.45C40.89,109.19,40.54,108.78,40.81,107.82Z"/><path class="cls-1" d="M23.21,108.7c-.52.28-2.49.92-2.73.09C21.16,108.61,22.71,108.22,23.21,108.7Z"/><path class="cls-1" d="M90.8,110.72c.16,0,.18.11.35.09,0,.55.14,1.12.18,1.67a5.7,5.7,0,0,1,0,2.47c-.46-.27-.56-.94-.62-1.41A6.93,6.93,0,0,1,90.8,110.72Z"/><path class="cls-1" d="M109.63,111.43c.12.21.64.72.27,1.14.32.69.61,1.79,0,2.38A16.11,16.11,0,0,1,109.63,111.43Z"/><path class="cls-1" d="M101.45,112.31c.14,0,.15.08.26.09.19,1.18.13,2,.35,3.16-.23-.06-.17.18-.26.27C101.07,115.08,101.16,113.38,101.45,112.31Z"/><path class="cls-1" d="M18.54,113.45c.12,0,.14.16.27.18.09.67-.14,1.63,0,2.28.07.35.37.94-.35.88-.12-.6,0-1-.18-1.58h.26c-.35-.17-.12-.75.09-.88-.12-.26-.46-.3-.35-.79C18.41,113.55,18.53,113.55,18.54,113.45Z"/><path class="cls-1" d="M72.76,115.12h.35c.35,1.22-.24,2.23.35,3.08a3.87,3.87,0,0,1-.09,1.23c-.51.06-.19-.19-.52-.35C72.86,117.66,72.4,116.32,72.76,115.12Z"/><path class="cls-1" d="M41.07,115.74h.27c.12.85.15,1.3.26,2.38.91.44,2.78.08,3.61.35-.73.41-2.64.84-3.43.08-.25.56.2,1.28-.18,1.68A8.93,8.93,0,0,1,41.07,115.74Z"/><path class="cls-1" d="M28,115.91h.26a6,6,0,0,1,.18,2.64c.13.27.39-.07.62,0,0,.71-.88.53-1.06,1.06-.21-1.18-2.23,0-2.9-.44,0-.67,1.68-.75,1.49-.35.51-.29.78,0,1.41-.18C28.15,117.81,27.72,117.05,28,115.91Z"/><path class="cls-1" d="M110.25,117.24c.52.82.87,2.35.18,3.08A13.14,13.14,0,0,1,110.25,117.24Z"/><path class="cls-1" d="M37.2,119c-1.28-.36-2.85.35-4.05.18-.06-.27.09-.32.09-.53.64-.08,1.37,0,2.11,0S37.12,118.1,37.2,119Z"/><path class="cls-1" d="M21,118.64c-.67.36-2.54,1.18-3.79.62C17.82,118.25,20.13,119.07,21,118.64Z"/><path class="cls-1" d="M91.33,118.55a6.77,6.77,0,0,1,.53,2.56c0,.34,0,.92-.45,1A5.3,5.3,0,0,1,91.33,118.55Z"/><path class="cls-1" d="M14.32,119.08c-.42.31-1.17,0-2,.09s-1.71.59-2.2-.09v-.26C11.27,119,13.18,118.36,14.32,119.08Z"/><path class="cls-1" d="M102,118.73c.25.74,1.21,2.87.08,3.17C102.27,120.92,101.54,119.73,102,118.73Z"/><path class="cls-1" d="M18.63,120.32c.18.14.11,0,.35,0a10.94,10.94,0,0,1,.18,2.9c-.07-.06-.24-.14-.27,0A8.48,8.48,0,0,1,18.63,120.32Z"/><path class="cls-1" d="M73.46,122.6c-.09,1.15.27,3.17.27,4.4-1.2.25-.7-1.87-.71-2.9,0-.33-.38-.76-.17-1.06C73.09,122.94,73.05,122.55,73.46,122.6Z"/><path class="cls-1" d="M28.14,123a3.67,3.67,0,0,1,.08,3.35A8.51,8.51,0,0,1,28.14,123Z"/><path class="cls-1" d="M110.69,123.57c.35.22,0,.53.44.71-.37.48.34,1.08-.35,1.31A4.25,4.25,0,0,1,110.69,123.57Z"/><path class="cls-1" d="M41.52,124a6.59,6.59,0,0,1,.26,2.91c.37.07.37,1-.09,1C41.35,126.55,40.88,125.35,41.52,124Z"/><path class="cls-1" d="M53.48,128.23c-.67-.76,0-2.45-.26-3.51.08-.19.28-.25.44-.36s.16,0,.17.09C53.77,125.75,54.33,127.67,53.48,128.23Z"/><path class="cls-1" d="M18.89,125.51c.17,0,.16.25.45.17,0,.8.45,2.12-.45,2.55C18.71,127.4,19.09,126.27,18.89,125.51Z"/><path class="cls-1" d="M91.77,125.86c.1,0,.15,0,.17.09.58.55.23,1.77.53,2.73C91.4,128.81,91.62,126.48,91.77,125.86Z"/><path class="cls-1" d="M74.08,129.55c-.08.25.12.23.09.45a.38.38,0,0,1-.62-.36C73.76,129.65,73.81,129.49,74.08,129.55Z"/><path class="cls-1" d="M19.25,130c0,.27-.08.39-.36.35A.25.25,0,1,1,19.25,130Z"/><path class="cls-1" d="M55.6,131.23c0,.41-.25.52-.45.7-.17,0-.17-.24-.35-.26,0-.31.24-.22.09-.53C55.15,131.21,55.22,131,55.6,131.23Z"/><path class="cls-1" d="M59.91,137.21c-.77-.86.07-2.59-.35-3.61a1.38,1.38,0,0,0-2.12-.35c0,1.8.76,2.95.18,4.4q-.15,0-.18.09c-.49-.23-.43-1-.44-1.5a19.3,19.3,0,0,1,.09-3.69c1.3-.55,2.74-.28,3.17.79s-.09,2.56.17,3.34C60.16,136.76,60.22,137.17,59.91,137.21Z"/><path class="cls-1" d="M53.31,138c-1.35-.77.37-3.8-1.85-4-.4,1.11.17,2.14-.27,2.81.32.13.23.65.36,1-.32,0-.46.13-.44.44-.71-.15-.47-.69-.35-1.06.27-.85-.36-2.1-.27-3.34-.66-.09-1.3-.27-1.85.18.34.93.18,2.23.44,3.34-.07.3-.37.39-.53.62-.58-.65-.15-2.65-.26-3.79,0-.47-.18-.85.18-1.14a14.58,14.58,0,0,1,2.81,0c2.35.46,2.29,2.65,2.29,4.66C53.39,137.68,53.4,137.89,53.31,138Z"/><path class="cls-1" d="M55,133.25c.81.89.4,2.86.79,4-.4-.13-.19.34-.35.44-.33,0-.31-.27-.53-.35a17,17,0,0,0-.26-3.79C54.86,133.54,55.07,133.55,55,133.25Z"/><path class="cls-1" d="M3.93,115.74c.1,0,.06.17.18.17.43-4-.31-9.51-.35-13,0-.11.16-.07.26-.09s-.26,0-.26-.18c.13-1.39-.13-2.24,0-3.6,0-.25-.48.07-.44-.18-.11-.49.23-.53.35-.79-.51-9.68-1-19.13-.7-28.52-.05-.18.12-.16.26-.17.14-.32-.3-.06-.26-.26-.19-3.84-.33-7.39-.44-10.57,0-1.31-.23-2.63-.18-3.87.09-2.18-.13-4.38-.09-7.39.4-.63,0-2.55,0-3.26,0-1.48.18-2.58,0-4.22-.53-.24-1,.3-1.49.17-.45-1.54.51-3.19.61-5,.06-1.09-.17-2.2-.17-3.35.14-.12.09-.43.26-.53a1.41,1.41,0,0,1-.26-1c.27,0,.29-.29.61-.27,0,.09.11.07.18.09a78.13,78.13,0,0,0,1.85,7.92c.14.54.57,1,.26,1.85-.66-.25-.86-.06-1.41.18.22,2.49-.08,4.56.27,6.95-.46.52-.15.93-.09,1.76.07,1-.27,2.16-.18,3.17.32,3.62.26,7.32.53,10.73.16,2-.08,4,.35,6.08,1.16.24,2.79,0,3.79.26-.29.52-.87.23-1.24.27a6.78,6.78,0,0,1-2.46.08c-.62,1,.14,2.47-.53,3.79.57.78,0,1.76.09,2.55a37.3,37.3,0,0,1,.09,4.58c0,.12.26,0,.26.17a7.26,7.26,0,0,0,0,1.76,10.71,10.71,0,0,0,0,1.5,4,4,0,0,1-.08,1,7.63,7.63,0,0,1,.17,1.59,6.24,6.24,0,0,1-.17,1.67c.23.56.31,1,0,1.32.32.45,0,1,.26,1.23,0,.23-.07.11-.18.09a11.12,11.12,0,0,1,.18,3.34c.29.32.53,1.46.17,1.85.16.27.54,1.11,0,1.5.18.38.34.39.18.79a15.8,15.8,0,0,1,2,.18,1.35,1.35,0,0,1-1.76.44,9.13,9.13,0,0,0,0,4.13c0,.21-.25.1-.26.27a11.58,11.58,0,0,1,.35,2.73c.53.42,1.61-.22,2.11.26-.4.53-1.21.5-1.93.44a6.89,6.89,0,0,0,.09,2.82c.82-.09,1.61-.22,2,.17-.33.52-1.63.07-2,.53a30,30,0,0,0,.17,5c2.07-1.87,4.31-3.56,6.52-5.28-.77-.42-1.57.27-2.29-.27.26-.94,1.75-.2,3-.44.76-.22,1-.83,1.67-1.49s1-.52.79-1.5c.61-.2.76.12,1.15,0,.88-.28,1.05-1.73,1.93-1.85.55-.07.83.37,1.5.44.63,1.21,2.92.82,4.58,1.32.84.25,1.45,1,2.55.7-.05.31.65.06.35.36.53-.44.82-1.12,1.58-1.32,3.65-7.08,6.68-14,9.86-21.3-.09-.44-.48-.57-.7-.88-.22.21-.54.11-.79-.09a1.81,1.81,0,0,1-2,.09c.33-.73,2.2-.48,3-.27.57-.58.49-1.79,1.5-1.93,1.39.1,2.62,1.21,1.76,2.64.41,1.37,1.59,2.44,1.59,3.69.32.27.42.75.79,1,.89,3.53,2.16,5.65,3.08,8.72.81.1,2.18-.39,2.11.35-.2.48-1.24.11-1.67.35a32.67,32.67,0,0,0,2.55,6.34,29.26,29.26,0,0,0,1.58,4.31c0,.81.12,1.15.53,1.5.14,1.78,1.22,3,1.76,4.84a45.63,45.63,0,0,0,1.14-5c.44-1.91.9-3.73,1.24-5.9.37-2.36,1.39-4.6,1.85-7C58.2,92.73,59,88.3,59.64,83.7c-.39-.4-.91.09-1.4-.17v-.44c.39-.36.8.14,1.49,0a4.91,4.91,0,0,0,.62-1.5c1-4.38,1.58-9.06,2.9-13.55A18.38,18.38,0,0,1,59,68.3c.87-.88,3.17-.29,4.31-.61,1-4.18,2-8.26,3-12.5C67.19,51.45,68,47,68.8,43.39c.16-.72.34-1.36-.18-1.93.06-.33.21-.55.26-.88-.35,0-1.33.13-1.75.09,0-.28.44-.2.43-.53,2-.11,3.68-1.17,4.93.35a1.6,1.6,0,0,1-.35,1.15,14.66,14.66,0,0,0,1.59,5.28c.23,2.95,2.35,5.12,2.64,7.83.75.84.64,2.16,1.32,3.17-.26.93.84,2.18.7,3.25A20.62,20.62,0,0,1,80,66a8.27,8.27,0,0,1,.7,1.59,4.73,4.73,0,0,1,.79.61c0,.24-.2.43-.35.27,1.13,3.11,2.07,6.52,3,9.5.42,1.36,1.16,2.68,1.67,4.32a2.34,2.34,0,0,1,.09,1.14,1.28,1.28,0,0,0,.35.26c0,.13-.13.22-.17.36.31.15.32.61.61.79-.17,1.1.33,1.24.53,2.28.07.33.31,0,.44.18a25.89,25.89,0,0,0,2.11,5.37c2.23-7.52,4.23-14.81,6.78-22,0-.21-.14-.33-.09-.62.44-.59.45-1.6,1-2.11-.84-.72-.89-2.54.18-2.82a3.28,3.28,0,0,1,2.37.8c.4.59,0,1.29-.26,1.84,0,.67,1,1.06.61,1.59.11.13.34.14.44.26,1.87,2.78,3.59,6.16,5.2,8.89a3.84,3.84,0,0,1,1,1.85c.46.16.22.48.62.7,2.77-2.12,5.13-4.66,7.83-6.86,1.13-1.47,3.1-2.73,4.75-4,.87-.69,1.61-1.49,2.47-2.2,1.43-1.2,3-2.21,4.31-3.52.65-.66,1.33-1.32,2-1.94A5.11,5.11,0,0,1,131.2,61c.38-.67,1.27-.85,1.67-1.5.31.23.64,0,.61.26,1.2-.15,1.51-2.3,2.73-1.58-.32.2-.56.51-.44.7-.78.07-.9.88-1.41,1.32-.22.21-.63.28-.88.45-.95.64-1.75,1.52-2.81,2.2a36.51,36.51,0,0,0-2.73,2.46,12.93,12.93,0,0,0-2.29,2.2,12.81,12.81,0,0,0-3.61,2.9c-1,.32-1.54,1.28-2.29,1.94-3.5,3.09-7.38,6.14-10.56,9.59a2.05,2.05,0,0,1-.88,1.94c-.21,1.28.55,2.5-.26,3.34-.11-.93-.13-1.86-.27-2.9-1.25,0-2.47-1.19-1.58-2.29-2.46-4.35-4.73-8.88-7.39-13-.25.58,0,1.16-.27,1.67-.39-.19-.1-.93-.26-1.15-1.23,1.08-1.08,3.81-1.94,4.76.06.09.21.09.18.26-.6,1-.5,2.72-1.32,3.52.11.12.26.17.09.35s-.28.53-.62.71c0,.26.33.3.09.53-.84,1.57-.83,3.73-1.67,5.8-.26.16-.06.08-.44.18l.26.53c-.61,2.64-1.38,5.13-2.2,7.57.86.83.26,2.36-.53,2.81a12.81,12.81,0,0,1,.26,4.14c-.91-.75-.49-2.78-.7-3.87-.3-.11-.67-.16-1-.27a2.79,2.79,0,0,1-.61-1.76c0-.47.48-.76.26-1.23-.31-.68-.88-1.23-.79-2.2-.1,0-.07.16-.09.26A48.93,48.93,0,0,0,84.46,83c-.52.07-.73.08-1-.18-.39.12-.22.33-.62.09a4.52,4.52,0,0,1-2.91.26c0-.23,0-.5.1-.61a10.64,10.64,0,0,0,4.39,0c-1.64-5.07-3.31-9.57-5.1-14.26a9.83,9.83,0,0,0-3.43.18c-.11-.06,0-.61.17-.71,1.06,0,1.84,0,2.91-.08a12.75,12.75,0,0,0-1-3.26c0-1.55-1-2.63-1.41-4.05-.74-2.86-1.76-6-2.55-8.62-.21-.72-.73-1.38-1-2.12-.46-1.43-.55-3.13-1.58-4.31-.24.22.15.55-.18.7-1-.34-.47-1.8-1-2.55-.73.07-.21,1.36-.79,1.76a30.74,30.74,0,0,1-1.23,5.37A6.5,6.5,0,0,1,67.65,54c-.05.2.17.13.18.27-.21.44-.29,1.53-.53,2-.16.33-.13.18-.17.8a22.08,22.08,0,0,1-.8,3.25c-.17.82-.09,1.71-.26,2.56-.21,1-.43,2-.62,3-.25,1.3-.65,2.57-1,3.87-.44,1.83-.48,3.72-.88,5.54-.29,1.34-.45,2.76-.79,4a11.31,11.31,0,0,0-.61,4A7.28,7.28,0,0,0,61.4,86c.05.19-.12.17-.26.18,0,1-.18.9-.18,1.93,0,.27-.32.15-.35.36,0,.41.23.29.09.7-.34.45-.4,1.82-.79,2.46a.75.75,0,0,0,.17.53c-.06.16-.16,0-.26,0,.15,1-.74,1.8-.44,2.55-.27,0-.54.75-.35,1.24-.81,1.1-.37,2.8-1.15,3.78.06.19.24.39.09.53.06.23-.18.17-.26.26s.15.26.08.53c-.62,1-.46,2-.61,3s-.83,1.74-.62,2.82c-1,2.75-1.21,6.13-2,9.06.07.43.55.46.79.71a2.8,2.8,0,0,1-1.32,2.9,6.3,6.3,0,0,1-.26,2.56c-.77-.32-.3-1.75-.44-2.56-.33-.41-1.17-.3-1.23-1a19.38,19.38,0,0,1-3.88.09c-.09-1,1.46-.2,1.76-.62.68.31,1.11,0,1.94-.08a2.89,2.89,0,0,0,.26-1.85c-.42-1.89-1.81-3.85-2.46-5.81-.41-1.23-.66-2.49-1.06-3.7-.34-1-.71-2-1-3-.69-2-1.94-4-2.47-5.81-.65-.06-1.58.13-2.2.09.08-.3,0-.33.18-.61a4.66,4.66,0,0,0,1.67,0c-.26-.65-.32-1.5-.88-1.85-1.4-3.39-2.27-6.88-4-9.86-.14-.35.21-.38-.09-.7-.35.52.37,1.77-.08,1.85s-.39-.73-.36-1.06a62.12,62.12,0,0,0-3.52,6.51c-.08.15-.07.37-.17.53a3.88,3.88,0,0,0-.79,1.67c-1.1,1.21-1.57,3.77-2.56,5.63a1.6,1.6,0,0,1-.7.71c.18.28,0,1-.26.79a32.75,32.75,0,0,1-1.68,4.58,2.11,2.11,0,0,1-1.58,3.43,18.82,18.82,0,0,1,.09,3.34c-.54-.29-.25-2.66-.44-3.43s-2.05-.38-1.76-1.23c-1.74-.25-4.26-.88-6-1.32a2.84,2.84,0,0,1-1.49,1.5c.17.69,0,1.23.17,2.19-.44-.17-.39-.83-.44-1.4-.45.31-1.36-.07-1.93-.18a2.05,2.05,0,0,1-1.85.53c.22-1,3-.77,3.78-.53-.28-.72-1.2-.79-1.41-1.58-2.53,1-3.8,3.17-6.16,4.31-.47.58-1.53,1-1.41,1.41a20.39,20.39,0,0,0-4.39,4.31c-.05.54.15.84.08,1.41.59.26,2.18-.11,2.29.88a6.18,6.18,0,0,0-2.2.09c0,3,.28,6.22.35,8.8,1.13.12,2.92-.07,4.05.09a20.47,20.47,0,0,0,2.47-.09c.66,0,1.26.29,1.93.35a16,16,0,0,0,3.26-.26c3.43-.49,7.1.25,10.91-.36a5.85,5.85,0,0,0,.18-1.32c.41.47.21.82.35,1.23,6-.56,12.14.85,18.57.8,2.14,0,4.19-.35,6.33-.27,1.72.07,3.48,0,5.2-.08,1.23,0,2.46.07,3.69.08,3.73.05,7.47-.06,11,0,2.61.05,4.65.32,7.75.35,1,0,2.11-.24,3.17-.26a99.1,99.1,0,0,1,12.32.26,52.13,52.13,0,0,1,6.25,0c.17-1-1-3,0-3.69.15,1.39.51,2.17.61,3.69a60.9,60.9,0,0,1,7.31.36c.34-.27.32-1.24.26-1.41.53-.12.55.89.62,1.32,1.8.63,4.76-.08,7,.17,4.2-.1,8.32-.08,12-.17,0-.36-.29-.36-.18-.79,1-.49,3.28.08,4.32.52a11.92,11.92,0,0,1,3.08.09c.73.13,1.76-.2,2,.44-.14.33-.65.29-.88.53-2.36-.1-4,1.25-6.16,1.23a3.38,3.38,0,0,1-2.29.36,6.75,6.75,0,0,0,0-1.68,36.82,36.82,0,0,0-4.49-.08c-1.71,0-3.63.26-5.45.17a31.42,31.42,0,0,0-4-.17,16.25,16.25,0,0,1-4,.17c-.12,0-.34-.26-.44-.26-.33,0-.57.2-.88.17s-.25-.22-.44-.26c-.88-.18-2,.3-2.91-.18-1,.22-2.85,0-4.13.09a21.5,21.5,0,0,1-2.82-.09c-5.56-.23-11.78-.37-16.72-.17-2.6.1-4.54.2-7.22.08-1.85-.07-3.78,0-5.36-.08-1.06-.06-2-.31-3.09-.27a11.18,11.18,0,0,1-3.43,0c-.28-.1-.06.29-.35.18-1.6-.25-3,.41-4.67-.27a12.71,12.71,0,0,1-2.63,0c-5,.06-10,.76-14.79.44-1.28-.08-2.56-.36-3.87-.44a40.92,40.92,0,0,1-6.87-.79c-.86.58-2.78.09-3.43.88-.31-.35-.77-.22-1.41-.26-.22,0-.44,0-.61-.18a2.76,2.76,0,0,1-2.2.18c-1.66.38-3.35.07-4.84.17-1,.08-2,.1-3,.18-1.86.15-3.63-.09-5.45,0-1.43.07-2.84-.28-4.32-.18a49.12,49.12,0,0,1-6,.27c.87-.84,2.79-.41,4.14-.62-.39-2.53,0-5.71-.44-8.44,0-.11.08,0,.08,0C4.22,119.14,4.43,117.06,3.93,115.74Zm112.57-42c.06-.2.33-.19.35-.44C116.6,73.29,116.28,73.62,116.5,73.76ZM60.17,84.41c.28,0,.48-1,.18-1.06C60.39,83.81,60.07,83.89,60.17,84.41Zm-.09,1.23c.12-.33,0-.43.18-.71C59.94,84.9,59.8,85.6,60.08,85.64Zm-5.72,27.81c.12-.31,0-.32.09-.62C54.16,112.88,54.3,113.31,54.36,113.45Z"/><path class="cls-1" d="M40,95.76c.18-1.27-.48-3.24-.18-4.84.26.12.3-.07.53.09a5.16,5.16,0,0,0,.18,2.73C39.93,94.08,40.88,95.45,40,95.76Z"/><path class="cls-1" d="M95.55,67c.28,0,.28.19.26.44a11.62,11.62,0,0,1-3.87,0c.5-.56,1.55-.06,2.56-.35C94.7,67.29,95.52,67.58,95.55,67Z"/><path class="cls-1" d="M72,66.37c.35.35.28,1.12.44,1.67.52,0,1.16-.11,1.14.44a2.56,2.56,0,0,1-1.06.17c-.25.32.09.79-.08,1.06-.22,0-.2.16-.44.09-.19-.43-.15-1.1-.53-1.32a4.91,4.91,0,0,1-2.29-.18c-.43,0-.57.48-1,.27.22-1.15,2.19-.21,3.52-.44a10.46,10.46,0,0,1,0-1.68C71.82,66.46,72,66.47,72,66.37Z"/><path class="cls-1" d="M39.31,68.92c-.07.4-.48.45-.79.61.18-.2.18-.23,0-.43-.22.29-.49,0-.79.17.1-.11,0-.14,0-.26a.49.49,0,0,0-.62.35c-1.41-.35-1.86,0-3.6.09-.13-.12-.09-.39-.09-.62.1,0,.15,0,.17-.09,1.24.54,2.92-.28,4.4.27C38.27,68.81,39.17,68.33,39.31,68.92Z"/><path class="cls-1" d="M86,95.41c-.6.52-2.23.07-3.26.17,0-.14.08-.15.09-.26A8.5,8.5,0,0,1,86,95.41Z"/><path class="cls-1" d="M62.81,96.82c-.78.75-2.47,0-3.78.52-.08-.19-.33-.19-.35-.44A10.33,10.33,0,0,1,62.81,96.82Z"/><path class="cls-1" d="M100,97.34a4.06,4.06,0,0,1,.44,3.44C99.88,100.25,99.89,98.28,100,97.34Z"/><path class="cls-1" d="M104.93,57.76c.11,1.34-1.58.7-1-.18A.74.74,0,0,1,104.93,57.76Z"/><path class="cls-1" d="M116.09,42.52c.18,0,.23.14.47.08.26-.23.59-.4.7-.78a3.67,3.67,0,0,1,3.67.08,3.74,3.74,0,0,0,.93,1,7.61,7.61,0,0,0,.78,2c-.09,1.16-.74,2.77-1.87,2.89-.14,0,0,.26-.15.31a4.66,4.66,0,0,1-4.06-1.09c-.64-.58-.62-1.32-1.1-2.18C115.4,43.82,116.14,43.31,116.09,42.52Zm3.9,4.76c.11-.33.28,0,.31.16a2,2,0,0,0,.78-.47,43.87,43.87,0,0,1-3.66-4.37c-.07.4-.63.31-.55.86a13.79,13.79,0,0,1,2.81,3.43c.18.19.46.13.31.32C120,47.21,119.9,47.27,120,47.28Zm.7-3.19c.17.21.19.49.32.62.26.29.73.4.78.78-.23-.24-.17.16-.47.08-.65-1.18-1.95-2.3-2.81-3.51-.54.09-.55.6-.31,1,.48.84,2,2.19,2.34,3,.38.13.47.56.93.62,1.28-1.88-.45-4.2-2.18-4.68C119.05,42.85,120.13,43.39,120.69,44.09Zm-4.44.15c.53,1.08,2,1.78,2,2.89-.82-.5-1.14-1.51-2-2,0,1.62,2.13,2.76,3.52,2.34-1-1.08-2-2.86-3.36-3.82C116.47,43.89,116.26,44,116.25,44.24Z"/><path class="cls-1" d="M112.63,51.14a2.57,2.57,0,0,1,.34,2.74c-1.16,1-3.55.47-3.34-1.2C110.28,51.77,111,50.33,112.63,51.14Zm-.26,2.23c.77-.84-.32-2-1.28-1.63-.71.46-1.07,2.08.17,1.88-.07-.32-.44-.79-.09-1,.21.37,0,1.11.6,1.12.07-.61-.84-1.12-.42-1.8A3.22,3.22,0,0,0,112.37,53.37Z"/></g></g></svg>