<svg xmlns="http://www.w3.org/2000/svg" viewBox="0 0 86.99 91.56"><defs><style>.cls-1{fill:none;stroke:#fff;stroke-miterlimit:10;stroke-width:0.5px;fill-rule:evenodd;}</style></defs><title>img-product-1_1</title><g id="Capa_2" data-name="Capa 2"><g id="doodle"><path class="cls-1" d="M61.35,88.77a5.06,5.06,0,0,1-2.4.13A23.17,23.17,0,0,1,61.35,88.77Z"/><path class="cls-1" d="M61.42,88.92c.23-.28,1.06-.09.35-.06C61.62,88.87,61.65,88.94,61.42,88.92Z"/><path class="cls-1" d="M83.65,89.45c1.18-.12,1.89.51,3.08.59.14.73-.77.34-.74,1-1.14-.36-2.51-.12-3.65-.4a32.08,32.08,0,0,1-5.48-.32c-2.11,0-5.18.38-7.11-.1a4.35,4.35,0,0,1-2.67,0,8.49,8.49,0,0,1-2.68,0c-.2,0-.35.17-.57.2-.49,0-1-.23-1.61-.2-.94,0-1.94.33-2.68-.09-1,.31-2.63,0-3.52.1-.29-.07-.28.18-.43.26s-.24-.23-.41-.29a41.79,41.79,0,0,1-4.43-.08c-1.15,0-2.54.27-3.52-.12-.54.32-2.26,0-2.83.33a.55.55,0,0,1-.41-.15,5.34,5.34,0,0,1-1.77.29c-2.1.14-3.87,0-6.06.08-1.31,0-2.6.31-3.81.29-.7,0-1.4-.1-2-.06a13.4,13.4,0,0,1-1.84.15c-2.85-.3-6,.27-8.88.26a57.54,57.54,0,0,1-6.19-.06c-.21-1.41-.11-3.65-.19-4.94a3,3,0,0,0-.11,1.27,137.51,137.51,0,0,1,.05-14.36c.13-3,.23-5.49.08-8.52-.45-.5-1.28-.76-1.43-1.6a4.49,4.49,0,0,1,.66-2.79c.27-.16.45,0,.71-.12A39.25,39.25,0,0,0,13,54.28c-.06-1.25.3-2.52.27-3.72,0-.69-.2-1.39-.22-2.12,0-.57.16-1.18.13-1.75s-.26-1.21-.29-1.84c-.05-1.22.17-2.48.12-3.66a13,13,0,0,1-.1-3.31c.47-.07.45-.68.6-.9.35,0,.14.55.4.65s0-.39.29-.27c1,2.93.44,6.23.39,9.3a1.8,1.8,0,0,0,1.32.61c3.53.26,8.08-.49,11.9-.17.19-2.93-.1-5.38-.13-8.8.2-.09.38-.48.58-.33-.3,2.68.2,5.85.05,9.08,1.75.14,3.42.07,5.34.18.93.05,1.87-.27,2.83-.26,1.69,0,3.38.19,5.06.1.34-2.34-.17-4.64-.18-7.19,0-.69-.16-1.66.42-2,0,.06,0,.07.06.08.34.12,0,.65,0,1-.22,1.84.3,4.14.09,5.78A5.49,5.49,0,0,1,42.12,47c4.42.44,8.27-.11,12.81,0,0-3.21-.37-7.2-.24-9.79.68.31.36,1.21.36,1.84,0,2.53.29,5.59.23,7.89,2.1.38,3.66-.1,5.49.19,0,0,.32-.07.14.14,2.13-.17,3.62-.3,5.5-.38a2.34,2.34,0,0,1,1.32-1.64c-.21-1.78.23-4.06,0-5.85,0-.43-.44-1.42.06-1.76.72.08-.08,1.05.39,1.21-.23.2,0,.67-.24.7.43,1.78,0,3.92.16,5.71.57.47,1.41.38,2,.84.29.24.32.71.74.8,2-.11,5.08-.14,7.12-.12.64,0,1.42-.29,1.89.21,0,.23-.39.16-.43.4a2.84,2.84,0,0,0-1.9-.2c-2,.08-5-.05-6.76.2.15.91,1.26,1.07,2,1.4,1.16.52,2.21,1.19,3.39,1.8,1.58.59,3,1.29,4.58,1.92a9.43,9.43,0,0,1,1.29-.59c-.06-4.11-.81-7.84-1-11.23,0-.2.1-.44.09-.63,0-.71-.47-1.52.21-2,.22.18-.08.4-.09.56A21.05,21.05,0,0,1,81.47,43c.07,1.13.46,2.27.59,3.4,0,.51,0,1,0,1.55a21,21,0,0,1,.25,3,1.71,1.71,0,0,0,.11.85c.3.52,1,.62,1.37,1,1,1.26-.11,2.92-1.31,3.41-.12,2.44.11,6.16.19,9,0,.2-.14.23-.22.34a6.57,6.57,0,0,1,0,2.68c-.07.27.17.25.2.43-.28.38,0,.88.1,1.27a26.82,26.82,0,0,1,0,2.81c0,3,.52,6,.15,8.24a4,4,0,0,1,0,2.12A6.8,6.8,0,0,1,83.06,86c0,.1.21,0,.21.14C83.48,87.39,83.38,88.39,83.65,89.45ZM55.55,53.87c0,.18-.15.27-.16.49-.11,2.35.28,4.67.19,6.91,1.94.13,3.11-.13,4.79,0,1.37-2.58,2.61-5.19,3.92-7.68-.05-.34.12-.45.09-.77A11.19,11.19,0,0,0,66,50.28c.81-1.21,1.06-1.78.31-3-3.85.44-7.35.08-10.92.2C55.31,49.5,55.58,51.81,55.55,53.87Zm-6.34-6.4c-1.85.37-5.25-.09-7,.11-.05.62,0,1-.19,1.33a24.26,24.26,0,0,1,.18,3c0,.47.11,1.1.08,1.83s-.15,1.39-.2,2c-.1,1.18.15,2.36.16,3.6,0,.86-.21,1.15.08,1.69,4.49-.15,8.77.39,12.95.22-.16-4.62-.06-8.86-.18-13.73C53.57,47.25,51.07,47.66,49.21,47.47ZM37.56,56.93c0,1.22,1.4,2.89,2,4.22a16.18,16.18,0,0,0,2.26-.2c-.26-3,.07-5.62,0-8.17-.05-1.68-.07-3.62-.1-5.28a26.93,26.93,0,0,0-4,0c-.44,0-.89-.12-1.33-.11-1.14,0-2.29.47-3.31,0,0,.11,0,.24-.15.2a38.75,38.75,0,0,0-4.57,0,11.39,11.39,0,0,0,0,1.69c.07,1-.22,2.29-.26,3.51-.05,2,.32,4.36-.19,5.7.26.86.07,2.29.4,2.9.39.12.78-.11,1.34,0a41.34,41.34,0,0,0,4-5.64c-1.13-1.06,0-3,1-3.62.8.2.81-.44,1.35-.52a5.26,5.26,0,0,1,3,1.72,4.46,4.46,0,0,1-1.59,3.18C37.38,56.65,37.69,56.88,37.56,56.93Zm-23.43-.5c.31.4,0,.41.19.64a.47.47,0,0,0,0,.71c-.38,0-.08.9-.17,1-.08.35.13.76,0,1.34,1.31.4,1.59,1.68,3.47,1.59,3.25-.15,7.42.05,10.15-.36-.44-4.9.17-8.83-.1-13.81-4.21-.29-8.9.34-13,.06C14.28,50.44,14.61,53,14.13,56.43Zm54.55,8.79c-.1,0,0,.09.08,0a27.69,27.69,0,0,0,.18,4.87c0,.2-.18-.18-.14.14a16.7,16.7,0,0,1-.15,4.35c.53.52,1.3.29,2,.28a38.86,38.86,0,0,0,4.15-.07c1.45-.17,3.49.19,5.14,0a6.94,6.94,0,0,1,2.46.08c-.25-1.71,0-3,0-4.65-.08-1.14-.33-2.29-.31-3.46,0-.31.16-.65.17-1,.06-1.39,0-2.9-.06-4.3-.06-1.78-.19-3.56-.25-5.29-1.67-.09-1.9-1.13-2.17-2.47-.2-.08-.5-.08-.7-.16a99.7,99.7,0,0,0-9.15-4.25,3.57,3.57,0,0,1-1.43.59,4.33,4.33,0,0,0,0,1.83,6.77,6.77,0,0,0,.08,1.69c.11,3.07-.19,5.69.45,7.69,4.38.1,8.57-.08,11.89.19,0,.2.16.22.13.42-.32-.07-.36.16-.57.19a6,6,0,0,0-2.73-.37c-2.82.11-6.18-.14-8.88.13A16,16,0,0,1,68.68,65.22Zm-3-11.15a55.28,55.28,0,0,0-3.55,7.2c2.16-.1,4.27-.07,6.34-.14a31.72,31.72,0,0,0-.29-3.88c0-.44.1-.81.11-1.26,0-1.92-.33-4.47-.3-5.93A35.78,35.78,0,0,0,65.68,54.07Zm-1-.53a.43.43,0,0,0,.23-.63C64.63,53.1,64.75,53.23,64.64,53.54Zm-26.58,1c.3-.31,0-1.12-.39-.93C37.89,53.85,37.82,54.35,38.06,54.56ZM34.9,56.49c-.71,1.72-2.13,3.06-2.69,4.7,1.93-.06,4.15.14,6.06-.08a17.26,17.26,0,0,0-2-3.16,3.39,3.39,0,0,0-.38-1.35C35.41,56.73,35.28,56.49,34.9,56.49Zm26.93,5.26a39.88,39.88,0,0,0-2.43,5.34c-.4.89-.86,1.76-1.28,2.64-.85,1.74-2.25,3.26-2.58,5.33,4.26.41,8.61-.15,12.83-.27a80.36,80.36,0,0,0-.07-8.67c.11,0,.25,0,.22-.13s-.21.17-.21-.08a20.75,20.75,0,0,0,.21-4.28A56.19,56.19,0,0,0,61.83,61.75Zm-6.27.08a3,3,0,0,1,0,1.34c.2.16.36.77,0,.84.35.07.07.28.12.57s.1.68.18,1.06c-.1,1-.53,3.07-.15,4.43.57-1.13,1.34-2.14,1.87-3.31.13-.3.12-.68.24-1,.42-1,1.42-2,1.8-3,.15-.45.12-.76.38-1A19.61,19.61,0,0,0,55.56,61.83Zm-5.41-.18c-2.52.18-5.32-.55-7.95-.2-.22,1.53.29,2.64,0,4.23,2,2.92,3.22,6.6,5.17,9.74a38.64,38.64,0,0,0,5.7-.16,14.87,14.87,0,0,0,1.13-2.14,10,10,0,0,0,1.06-2.22,8.12,8.12,0,0,0,0-1.2c.06-2.57.53-5.69,0-8C53.51,61.8,51.33,61.56,50.15,61.65Zm-10.21-.13a10.54,10.54,0,0,0,1.87,3.3c0-1.25,0-2.18-.1-3.38C41,61.46,40.53,61.51,39.94,61.52Zm2,6.61c-1.14-2.19-2.37-4.28-3.38-6.59-.09,0-.09-.09-.2-.08-1.73.4-4.62-.07-6.48.14a32.19,32.19,0,0,0-3.54,4.67c-.11,2.64.36,5.43.08,8,.2.39.08,1,.31,1.49,4.69,0,8.47-.36,13.24-.27C42,73.07,41.85,70.89,41.91,68.13Zm-13.66-6.3a7.37,7.37,0,0,1,0,1.2,4.22,4.22,0,0,0,1-1.23C29,61.65,28.69,62,28.25,61.83Zm12.18,2a4,4,0,0,0-1.14-1.8A9.47,9.47,0,0,0,40.43,63.86ZM25.57,62A25.11,25.11,0,0,0,21.9,62c-1.4.08-2.94-.67-3.94,0a8.8,8.8,0,0,1-1.69,0c-.07.38-.32.57-.38,1,2.11,2.29,3.9,4.89,6,7.17.47-.39,1.54-.14,1.85-.5-.17,0-.34,0-.35-.15,1.52-1.86,3-3.68,4.41-5.49a10.59,10.59,0,0,0,0-2.18A11.44,11.44,0,0,0,25.57,62Zm-10,.52c0-.12.25-.57,0-.57C15.44,62,15.43,62.48,15.62,62.47ZM28.3,64.3c0-.25.26-.17.23-.42C28.31,63.83,28.19,64.24,28.3,64.3Zm-13.22-.37c-1,.37-.6,1.38-.64,2.37,0,.19-.15.37-.16.56,0,.34.16.75.17,1.13a24.32,24.32,0,0,1,0,3.8c.23,1.11,0,2.68.14,4.3,1.7.08,3.49-.21,5.21-.11.28,0,.56.16.84.17.78,0,1.54-.32,2.26-.35,1.88-.06,3.59.23,5.28,0-.14-1.55.09-3.42,0-5.14,0-.8-.27-1.55-.27-2.33,0-.52.19-1-.09-1.48-1.18,1-2,2.5-3.08,3.62,1.47,1.6-.53,5.49-3.09,4-.36-.33-.35-.89-.52-1.43S20.53,72,21,71.23C19,68.85,17.32,66.11,15.08,63.93Zm25.79,1.49c.17,0,.22.14.28-.06s-.13-.19-.27-.22S40.87,65.33,40.87,65.42Zm-13.54.82c0,.11,0,.23,0,.35A.9.9,0,0,0,27.9,66c-.09,0-.1-.09-.21-.07A.32.32,0,0,1,27.33,66.24Zm15,9.3a15.58,15.58,0,0,0,3.39-.1c-1-2.17-2.32-4.06-3.24-6.31h-.22C42.32,71,42.32,73.66,42.29,75.54Zm-17.7-5.31c0-.39.38-.46.45-.83C24.75,69.49,24.16,70.06,24.59,70.23Zm55.1,5c-3.74.11-7.46-.11-10.85.21,0,4.83.22,8.47.25,13.38.22,0,.13.32.2.5a30,30,0,0,0,5.28,0c.36,0,.7.18,1.05.18a73.14,73.14,0,0,1,7.4,0c-.47-4.23-.37-10-.52-14A11.48,11.48,0,0,0,79.69,75.23Zm-11,5.62c-.4-1.64-.08-3.59-.19-4.79,0,0,0,.08.13.07.17-.45-.26-.44-.32-.85-4.56.1-8.59.45-12.75.35a107.54,107.54,0,0,0,.26,13.24c.73.21,2.38-.22,3.09.1-.41.06-1,.12-1.55.16S56,89,55.91,89.44c.27.18,0-.08.14-.14,4.44-.11,8.18-.22,12.54,0C68.82,86.49,68.32,83,68.66,80.85ZM53.83,78a10.34,10.34,0,0,0-1.23,3.06c-.14,1.43-.37,2.75-1.6,3.47-1.49.12-2.26-.9-3.11-1.59a4.16,4.16,0,0,1,.31-3c-.64-1.45-1.66-2.54-2.26-4-1.28-.06-2.59.17-3.66.09,0,.87.42,2,0,2.68.1.06.27.06.2.28-.14.6.17,1-.19,1.55.86,2.67,0,5.89.34,8.74,3.56-.2,7.11-.49,10-.37.2,0-.18.18.13.14a17.91,17.91,0,0,1,2.4-.13A8.64,8.64,0,0,0,55,86.31c-.17-2,.21-4.14-.16-5.71a22.46,22.46,0,0,0,.16-5C54.6,76.33,54.23,77.18,53.83,78Zm-6.2-2.18a16.13,16.13,0,0,0,2.21,3.46c.42-.15.9.11,1.2,0a9.16,9.16,0,0,0,.9-1.73,17.1,17.1,0,0,0,.91-1.87A49.43,49.43,0,0,1,47.63,75.85ZM32.52,89.92a95.23,95.23,0,0,0,9.67-.66c-.25-2.53.22-4.55.15-6.82,0-.74-.28-1.41-.28-2.12a19.93,19.93,0,0,0-.14-4.3c-3.22-.33-7.07.16-10.77.2a6.72,6.72,0,0,0-2.54.13c.19,2.94.07,4.91.44,7.76-.41,2.11.45,4.23.09,5.84A32.56,32.56,0,0,1,32.52,89.92ZM14.41,79.75c0-.11-.08,0,0,.07-.18.22.11.13.13.21,0,1.75.22,3.2.13,4.72a25.1,25.1,0,0,0,0,5.35c2.78-.44,5.67-.08,8.31,0,2.11.06,3.88-.44,5.85-.23-.29-4.26-.4-9.21-.6-13.61a16.84,16.84,0,0,1-3.1,0c-.45,0-.89.19-1.34.17a10.7,10.7,0,0,0-1.27-.12c-.54,0-1.1.19-1.69.23-.41,0-.74-.1-1.13-.11-1.2,0-2.49.4-3.65-.05-.41.32-1,0-1.49.23C14.36,77.68,14.6,78.74,14.41,79.75ZM82.57,90a4.36,4.36,0,0,0-2.18.07,8.88,8.88,0,0,0,2.74,0C83,89.81,82.79,90.06,82.57,90Zm.84.24c.24-.06.75,0,1,0-.25-.14-.73,0-.91-.24C83.5,90.14,83.4,90.16,83.41,90.28Zm1.34,0c.09.1.3.08.49.08C85.33,90.06,84.76,90.05,84.75,90.26Zm-42-.77c-.12.19.17.32.21.15-.22-.08.16-.11.15-.21A.45.45,0,0,0,42.74,89.49Z"/><path class="cls-1" d="M4.3,58.71C-3.38,51.21,1.08,36.05,7.63,26c3.78-4.22,7.87-6.65,12.26-9.37-.14-.69-1.24-.36-1.47-.68.13-2.61,2.94-1.95,5.52-2.5a16.13,16.13,0,0,1,3.24-.58c.61,0,1.12.31,1.6.32,1,0,1.84-.58,2.71.05.06.52-.85.72-.87,1.19-3.4.9-6.81,1.76-9.15,4.87-.51-.2-.66.35-1.11.27-.75-.47-.13-.92-.25-1.61a22.63,22.63,0,0,0-3.82,1.75A44.75,44.75,0,0,0,12,23.07C7.6,26.7,3.92,32.68,2.11,40.36c-.2.82-.06,1.7-.23,2.54-.1.49-.45.94-.54,1.45a23.32,23.32,0,0,0,.13,6.95c.08.37.08.85.61,1.06-.64.61,1,3.72,2,4.73-.34.15-.37.6.19.63C4.36,56.7,5.58,58.72,4.3,58.71Z"/><path class="cls-1" d="M43.42,3.33c.2.14.06.41.12.59s.36.42.48.65.13.87.59.95a1,1,0,0,0,.59.89,1.15,1.15,0,0,0,.66.83,9.35,9.35,0,0,0,1.36,1.9.45.45,0,0,0,0,.36c-.2.1-.2,0-.41-.06-1.12-2.13-2.88-3.62-3.74-6,0-.06,0-.1.06-.11S43.32,3.48,43.42,3.33Z"/><path class="cls-1" d="M53,1.37a4.53,4.53,0,0,1-2-.48c-.11.33.45.75.35,1.07.31.12.66.41.6.71.15,0,.21.15.35.18a1.16,1.16,0,0,0,.72.83c1.54,2.16,2.64,4.3,4.45,5.88a6,6,0,0,1,1,2.13c-.13-.12-.12,0-.18.12a1.13,1.13,0,0,1-.54-1.13c-.53-1.09-1.55-1.79-2.25-2.79a21.78,21.78,0,0,0-3-4.09,19.89,19.89,0,0,0-2-2.49c0-.27-.16-.39-.23-.6-.37.14-.82-.06-1.07,0,.15.66.89,1.12,1.24,1.79a3.22,3.22,0,0,0,1,1.24c0,.11.08.13.06.24,1.42,1.34,2,2.48,3.33,3.8.09.11,0,.07,0,.23s.19.09.29.12c0,.2.27.26.12.42a2.41,2.41,0,0,1,.89.95c.76,1.16,2.17,2.25,2.32,3.73-.56,0-.65-.62-.84-.94A9.57,9.57,0,0,1,57,11.22a13.81,13.81,0,0,1-1.42-2,18.35,18.35,0,0,1-2.2-2.73c-.41-.57-1-1-1.48-1.54-.69-.8-1.3-1.69-1.9-2.49A14.72,14.72,0,0,0,48.7,1.13a2.27,2.27,0,0,0-.29-.47c-.15,0-.21.1-.3.17,0-.1-.09-.14-.35-.12a1.17,1.17,0,0,0,.23.66c.19.29.71.62.48.83.88.64,1.42,2,2.37,2.79,0,.3.35.61.3.83.12.2.56.23.41.53a.8.8,0,0,1,.6.77c.19,0,.58.34.41.6a19.74,19.74,0,0,1,2.32,2.79c0,.14-.11.12-.06.29.07,0,.1,0,.11-.06a30.31,30.31,0,0,0,3.45,4.33,16.53,16.53,0,0,0,1.12-4.45,3.35,3.35,0,0,0-.12-1.3c-.1-.25-.41-.39-.59-.65s-.39-.85-.59-1.19a35.41,35.41,0,0,0-3.44-4.57c0-.19.15-.12.17-.24-.32-.45-1-.31-1.54-.77.07-.11.23-.12.3-.24a8.65,8.65,0,0,1,3.86,2V3.8a2.52,2.52,0,0,0,.59.42c.44,1.06,1.24,1.84,1.48,3a14,14,0,0,1-2.07,10.39c.06.3-.14.33-.12.59-.4.21-.37.61-.89.77v.3c-.34.23-.76.39-.95.77a18.92,18.92,0,0,0-2,1,3.13,3.13,0,0,1-.71.41c-.49.11-1.05-.05-1.55.3a1.77,1.77,0,0,1-.59-.12,8.6,8.6,0,0,1-4.27-.83,5.24,5.24,0,0,1-3.44-1.78,8.36,8.36,0,0,1-3.86-4.87,22,22,0,0,1-.36-3.67,8.79,8.79,0,0,1,1.31-4.87,2.28,2.28,0,0,0-.06-.53h.3a3.47,3.47,0,0,1,1-1,7.89,7.89,0,0,1,2.84-2.26,7.84,7.84,0,0,1,3-1.36c.17,0,.4,0,.59,0s.27-.16.42-.18a10.28,10.28,0,0,1,5.22,1c-.08.19-.17.31.12.35C53.42,1.78,53,1.63,53,1.37ZM47.76,2a.36.36,0,0,1,.05-.24c-.45-.2-.43-.95-1-.71.21.3.56,1,.47,1.25a9.25,9.25,0,0,1,.89,1.78c.36.3,1.08.22,1.6.35A6.21,6.21,0,0,0,47.76,2Zm-2.68-.3a11.68,11.68,0,0,0-2.84,2c.21,0,0,.24.06.36.15.44.87,1.21,1.06,1.6s1,1,.84,1.3c1.49,1.28,1.83,3.2,3.38,4.28a8.19,8.19,0,0,1-.18-1.61c-.12-.95-.56-1.83-.65-2.67-.13-1-.85-1.26-1-2.07a10.65,10.65,0,0,1-1.43-2.14c.08-.12,0-.36.24-.35.32.41.39,1.07.77,1.42,0,0-.11,0-.12.06a15.44,15.44,0,0,1,1.55,2.19c.17-.39,0-.81.23-1.18A24.22,24.22,0,0,0,45.08,1.72ZM46.75,3.8c0,.37.41.5.29.71.31.15.47-.31.89-.24-.44-1.08-.92-2-1.42-3.14-.46.15-1.11.12-1.13.71.22.09.35.09.18.3.47,0,.43.48.59.77.2.08.56.64.3.95A.39.39,0,0,0,46.75,3.8Zm9-.12A3.81,3.81,0,0,1,57,5.28a.72.72,0,0,1,.48.72.47.47,0,0,1,.35.29c0,.4.37.57.54.83a4.15,4.15,0,0,0,.89,1.37C59.41,7,58.5,6,58.08,4.87c-.22,0-.36-.39-.53-.3a12.33,12.33,0,0,1,1,1.9,4.64,4.64,0,0,1-1.48-2.61c-.65-.29-1-.85-1.78-1.07C55.29,3.24,56,3.24,55.77,3.68ZM52.5,21A6.6,6.6,0,0,0,55,19.64c-1.27-1.75-2.65-3.39-3.91-5.16-.56.27-.55.91-1.43.71l-.77-.29c-.63-.38-.72-1.49-1.07-1.9,0-.19.09-.23.12-.36-.61-1.28-1.83-2-2.31-3.38a10.16,10.16,0,0,1-1.25-1.78,5.86,5.86,0,0,1-1.24-1.66A3.71,3.71,0,0,1,42,4.1c-.31,0-.38.25-.53.41a2.06,2.06,0,0,1,.35,1.07c.37.08.42.49.65.71-.22,0,0,0-.06.18.15.3.45.46.66.71A12.92,12.92,0,0,0,44.2,8.79c0,.48.54.59.77.88,0,0,0,.22,0,.24.21.44.78.67.71,1.13.09.13.14-.08.18.06a2.27,2.27,0,0,0,.41.71,17.81,17.81,0,0,1,1.25,1.42,9.25,9.25,0,0,0,1.72,2.26c.31,0,.41-.14.65-.18,1.11.32,1.42,1.07,2.08,1.84-.27.66-.27,1.39-.77,1.9C51.47,20.15,52.15,20,52.5,21Zm-3.91-7.78c0,.19-.17.12-.12.3.38.52.89,1.23,1.72,1A6.22,6.22,0,0,0,50.72,11c0-1.13.13-2.15.06-3.15,0-.38-.19-.72-.18-1.06C50.67,5.49,50,4.76,48.76,5a.9.9,0,0,0-1.24.12c-.05.32.4.4.24.65-.3,0-.23-.25-.48-.24-.49,1.78.67,2.82.48,4.33a6.44,6.44,0,0,1,.29,1.31.16.16,0,0,1,.18.12c0,.29.14.45.06.71a1.91,1.91,0,0,1,.3.89c-.06,0-.22-.14-.18.06S48.41,13.12,48.59,13.23Zm-1.25.42c-1.27-1-1.89-3-3-4.09a15.12,15.12,0,0,1-1.36-2,14.91,14.91,0,0,1-1.72-2.61c-1.08.59.27,1.34.24,2.13.72.49,1,1.39,1.54,2-.07,0-.14,0-.12.12.36.42,1.32,1.46,1.36,2,.09,0,.22,0,.24.06a6.14,6.14,0,0,1,.89,1.54c1.2,1,1.69,2.62,2.85,3.62.09-.25.34-.33.42-.59C48.31,15,47.59,14.55,47.34,13.65ZM41,8.31c.19.08.36.25.24.48,1,1,1.2,2.09,2.13,3,0,.08-.07.08,0,.18s.36.23.47.41c.18.72,1.18,1.42,1.3,2.2.36.16.56.66.66.89.09,0,.41.35.29.53.16,0,.26,0,.24.18s-.23,0-.12.06c.27-.06.6.45.54.71.73.4,1,1.27,1.54,1.66-.27-.43-.15-.78-.18-1.18-.06-.85-.94-1.18-1.13-2.08-.78-1.21-2-2.38-2.43-3.56a16.57,16.57,0,0,1-2.25-3.38,9.18,9.18,0,0,1-1.66-2.49c-.33.06-.29.5-.48.71A3.9,3.9,0,0,1,41,8.31Zm11.87,2.61c.23,0,.23.21.41.24,0,.54,1,.83.95,1.36.68.54.87,1.12,1.55,1.78,0,.3.58.93.89,1.31.2.67.43.63,1,.95.1-.32.32-.52.42-.83-2-2.83-4.07-5.58-6-8.49-.43-.18-.54-.69-.89-1,0,.9.1,1.39.11,2.43,0,.12.34,0,.36.12C51.78,9.83,52.6,10.1,52.86,10.92ZM39.63,8c.47.85,1.43,1.48,1.54,2.5a.56.56,0,0,1,.41.71,1,1,0,0,1,.6.77c.26.1.32.28.41.65.59.35.61.82,1.13,1.37,0,.08-.08.11-.06.23.24-.08.19.13.36.12,0,.17.11.25.12.42a27.73,27.73,0,0,1,3.08,4.69c.2,0,.26.1.36.17.06.34.34.45.53.66,0,.19.1.29.06.53a4.77,4.77,0,0,0,1.07.18c-.58-1.36-1.67-2.21-2.32-3.5-1.75-2-3.12-4.66-4.62-6.77-.08-.06-.22-.05-.24-.18-.53-1.2-1.52-2.21-2-3.26,0-.07-.06-.09-.12-.12A8.15,8.15,0,0,0,39.63,8Zm-.3,1.43a1.58,1.58,0,0,1,.83,1.24c.35.14.27.39.42.77.47.29.58.76,1,1.19,0,0-.11,0-.11.06A1.68,1.68,0,0,1,42.24,14a2.38,2.38,0,0,1,.89,1.36c.09,0,.22,0,.23.06-.13.3.51.51.36.83a5.79,5.79,0,0,1,1.13,1.07c.14.15.13.34.23.53.49.9,1.44,1.52,1.84,2.38-.16.05.09.18,0,.35a2.86,2.86,0,0,1,.78.18,2.72,2.72,0,0,1-.42-.77,2.58,2.58,0,0,1-.83-1,12.07,12.07,0,0,0-1.19-1.84c-.15-.28-.14-.63-.29-.89-.25-.42-.7-.75-1-1.19-1.52-2.12-2.74-4.51-4.45-6.46A3.8,3.8,0,0,0,39.33,9.44Zm12,1.48c.13.13.17,0,.36,0a12.36,12.36,0,0,0,1.54,2.2v.23c.32.05.61.29.54.54a2.44,2.44,0,0,0,.53.35c.53,1,1.42,1.67,2,2.61.17,0,.15.09.3.06.11.26.22.53.65.48a.27.27,0,0,1,.12-.24c-1.9-2.71-4-5.25-6.06-7.77C51.37,9.88,51.12,10.29,51.31,10.92Zm-11.92.59c.15,0,.25,0,.3.12,0,.35.39.36.35.77a41.47,41.47,0,0,1,2.85,4.16c.21.29.29.65.47,1,.38.58,1.2.95,1.25,1.78a1.38,1.38,0,0,1,.53.59c.47.05.69.34,1.19.36-.46-1-1.42-1.55-1.72-2.73-.26-.16-.38-.46-.65-.6-1.6-2.35-2.92-4.7-4.69-6.94C39.34,10.49,39.27,11,39.39,11.51Zm11.87.89A3.2,3.2,0,0,1,52.2,14a8.2,8.2,0,0,1,2,2.49,1.27,1.27,0,0,1,.36.12,1.67,1.67,0,0,0,.41.83c.39.5.8,1.13,1.43,1.12a1.12,1.12,0,0,0,.47-.59c-1.79-2.36-4.06-4.55-5.63-6.94A2.33,2.33,0,0,1,51.26,12.4ZM40.87,15.19c1,.76,1.4,2.12,2.26,3,0,.14,0,.19.06.41a4.21,4.21,0,0,0,.89.48c-.32-.73-1-1.08-1.19-2-1.27-1.5-2.08-3.46-3.44-4.86C39.81,13.37,40.46,14.16,40.87,15.19Zm11.45.42s-.09.07,0,.12c.5.33.64,1,1.18,1.3a11.25,11.25,0,0,0,1.9,2.32A.62.62,0,0,0,56,19c-1.68-1.88-3-4.07-4.8-5.87C51,14.22,51.84,15,52.32,15.61Zm-10.26,1.9c-.47-.92-1-1.46-1.42-2.44-.46-.21-.6-1.06-1-1.18A7.17,7.17,0,0,0,42.06,17.51Zm6.47.29a1.61,1.61,0,0,0,2.25.83,2.7,2.7,0,0,0,.65-1.48,2.37,2.37,0,0,1-.23-.3c-.2.1-.19.23-.48.12,0-.28,0-.41-.06-.77C49.32,15.34,48.29,16.58,48.53,17.8Zm1.18,2.79a1.28,1.28,0,0,1,.06.54,2.62,2.62,0,0,1,.77.06c-.08-.67-1-1.23-1.06-1.9-.61,0-.83-.4-1.19-.66A6.57,6.57,0,0,0,49.71,20.59Zm1.13-1.36a6.67,6.67,0,0,1-1,.18,19.11,19.11,0,0,0,1,1.72c.63-.18,1.26.17,1.36-.36A7.7,7.7,0,0,1,50.84,19.23Z"/><path class="cls-1" d="M52.68,1.6c.7.71.94,1.59,1.72,2.26-.12.2.2.26.06.3s.22.09.3.17-.08,0-.12.06c.27.12.34.48.47.66s.24.09.3.17,0,.15,0,.18.12,0,.18.06c.3.3.43.88.71,1.19.05.06.65.28.36.35a13.65,13.65,0,0,1,.89,1.19c.1.21.34.34.41.48s0,.34.12.47c.29.56.88.74,1,1.42-.56.34-.91-.8-1-1.12-1.75-2.67-3.88-4.94-5.58-7.66C52.42,1.63,52.57,1.63,52.68,1.6Z"/><path class="cls-1" d="M52,18c.35,0,.63.56.89.83-.12.66.7.81.71,1.37C52.8,19.68,52.49,18.73,52,18Z"/></g></g></svg>