<svg xmlns="http://www.w3.org/2000/svg" viewBox="0 0 140.92 61.46"><title>logo-text-2</title><g id="Capa_2" data-name="Capa 2"><g id="Capa_1-2" data-name="Capa 1"><path d="M37.52,37.47a21.3,21.3,0,0,1-15.61,6.35A21.13,21.13,0,0,1,6.35,37.47,21.17,21.17,0,0,1,0,21.91,21.17,21.17,0,0,1,6.35,6.35,21.17,21.17,0,0,1,21.91,0,21.34,21.34,0,0,1,37.52,6.35a21.09,21.09,0,0,1,6.39,15.56A21.09,21.09,0,0,1,37.52,37.47ZM13.9,30.13a10.79,10.79,0,0,0,8,3.24A10.92,10.92,0,0,0,30,30.13a11.14,11.14,0,0,0,3.24-8.22A11.1,11.1,0,0,0,30,13.7a10.92,10.92,0,0,0-8-3.24,10.79,10.79,0,0,0-8,3.24,11.18,11.18,0,0,0-3.19,8.21A11.22,11.22,0,0,0,13.9,30.13Z" fill="#000"/><path d="M130.14,1.16h10.71v41.5H130.14v-4.9q-4.8,6.06-13.52,6.06a18.79,18.79,0,0,1-14.24-6.35,21.91,21.91,0,0,1-5.93-15.56,21.91,21.91,0,0,1,5.93-15.56A18.82,18.82,0,0,1,116.62,0q8.72,0,13.52,6.06ZM110.39,30.34a11.09,11.09,0,0,0,8.22,3.28,11.23,11.23,0,0,0,8.26-3.28,11.44,11.44,0,0,0,3.27-8.43,11.4,11.4,0,0,0-3.27-8.42,11.19,11.19,0,0,0-8.26-3.28,11.05,11.05,0,0,0-8.22,3.28,11.46,11.46,0,0,0-3.24,8.42A11.5,11.5,0,0,0,110.39,30.34Z" fill="#000"/><g id="Capa_2-2" data-name="Capa 2"><g id="Capa_2-2-2" data-name="Capa 2-2"><path d="M89.85,11.71a6.83,6.83,0,0,0-4.82-2l-2.85,0-2.07,2.06L48.16,43.9H67.58L89.89,21.42A6.89,6.89,0,0,0,89.85,11.71Z" fill="#000"/><path d="M73.4,0H63.89a14.69,14.69,0,0,0-11.5,24.86h0l3.24,3.27L83.55,0Z" fill="#000"/><circle cx="86.48" cy="38.39" r="5.51" fill="#000"/></g></g><path d="M4.84,59.06a4.27,4.27,0,0,1-4.4-4.35,4.22,4.22,0,0,1,1.24-3.08,4.27,4.27,0,0,1,3.16-1.26A4.09,4.09,0,0,1,7,50.93a3.86,3.86,0,0,1,1.5,1.5l-.74.43a2.89,2.89,0,0,0-1.18-1.22,3.34,3.34,0,0,0-1.71-.46,3.43,3.43,0,0,0-2.57,1,3.68,3.68,0,0,0,0,5,3.43,3.43,0,0,0,2.57,1,3.25,3.25,0,0,0,1.71-.46,2.89,2.89,0,0,0,1.18-1.22l.74.42A3.79,3.79,0,0,1,7,58.49,4.16,4.16,0,0,1,4.84,59.06Z" fill="#000"/><path d="M16.63,58.15a3.21,3.21,0,0,1-4.48,0,3.21,3.21,0,0,1,0-4.48,3.24,3.24,0,0,1,4.48,0,3.19,3.19,0,0,1,0,4.48Zm-3.92-.55A2.43,2.43,0,1,0,12,55.91,2.29,2.29,0,0,0,12.71,57.6Z" fill="#000"/><path d="M23.6,52.77a2.28,2.28,0,0,1,1.72.66,2.53,2.53,0,0,1,.63,1.8v3.68h-.79V55.23A1.75,1.75,0,0,0,24.73,54a1.58,1.58,0,0,0-1.21-.44,1.9,1.9,0,0,0-1.4.54,2.33,2.33,0,0,0-.54,1.69v3.14h-.79v-6h.79v.94A2.22,2.22,0,0,1,23.6,52.77Z" fill="#000"/><path d="M30,54.47a.73.73,0,0,0,.36.64,3.58,3.58,0,0,0,.88.38l1,.29a1.79,1.79,0,0,1,.87.54,1.4,1.4,0,0,1,.36,1,1.51,1.51,0,0,1-.61,1.25,2.42,2.42,0,0,1-1.56.48,2.64,2.64,0,0,1-1.47-.39,2,2,0,0,1-.85-1l.67-.4a1.47,1.47,0,0,0,.61.74,1.94,1.94,0,0,0,1,.27,1.85,1.85,0,0,0,1-.24.76.76,0,0,0,.4-.72.75.75,0,0,0-.36-.65,3.11,3.11,0,0,0-.88-.39l-1-.29a1.9,1.9,0,0,1-.88-.53,1.37,1.37,0,0,1-.36-1,1.55,1.55,0,0,1,.59-1.22,2.16,2.16,0,0,1,1.47-.49,2.46,2.46,0,0,1,1.28.33,2.07,2.07,0,0,1,.82.89l-.66.39a1.41,1.41,0,0,0-1.44-.84,1.6,1.6,0,0,0-.89.24A.77.77,0,0,0,30,54.47Z" fill="#000"/><path d="M40.94,52.91h.79v6h-.79V58a2.22,2.22,0,0,1-2,1.08,2.27,2.27,0,0,1-1.72-.67,2.49,2.49,0,0,1-.63-1.79V52.91h.79V56.6a1.69,1.69,0,0,0,.43,1.24,1.56,1.56,0,0,0,1.2.45,1.88,1.88,0,0,0,1.41-.55,2.34,2.34,0,0,0,.54-1.68Z" fill="#000"/><path d="M45.33,58.91V50.15h.79v8.76Z" fill="#000"/><path d="M52.9,53.68H51.17v3.64a1,1,0,0,0,.19.7.75.75,0,0,0,.58.21c.26,0,.57,0,1,0v.69A2.89,2.89,0,0,1,51,58.73a1.5,1.5,0,0,1-.63-1.41V53.68H49.12v-.77h1.26V51.47l.79-.24v1.68H52.9Z" fill="#000"/><path d="M56.94,51.47a.56.56,0,0,1-.4.17.57.57,0,0,1-.41-.17.53.53,0,0,1-.17-.41.51.51,0,0,1,.17-.4.53.53,0,0,1,.41-.17.52.52,0,0,1,.4.17.54.54,0,0,1,.17.4A.57.57,0,0,1,56.94,51.47Zm-.8,7.44v-6h.79v6Z" fill="#000"/><path d="M63.34,52.77a2.26,2.26,0,0,1,1.72.66,2.53,2.53,0,0,1,.63,1.8v3.68H64.9V55.23A1.71,1.71,0,0,0,64.47,54a1.56,1.56,0,0,0-1.2-.44,1.91,1.91,0,0,0-1.41.54,2.33,2.33,0,0,0-.54,1.69v3.14h-.79v-6h.79v.94A2.22,2.22,0,0,1,63.34,52.77Z" fill="#000"/><path d="M74.31,52.91h.79v5.76a2.51,2.51,0,0,1-.89,2,3.18,3.18,0,0,1-2.12.75A2.88,2.88,0,0,1,69.24,60l.7-.39a2.17,2.17,0,0,0,2.15,1.09,2.27,2.27,0,0,0,1.62-.55,1.88,1.88,0,0,0,.6-1.47v-.93a2.7,2.7,0,0,1-2.43,1.32,3,3,0,0,1-2.19-.92,3.21,3.21,0,0,1,0-4.46,3,3,0,0,1,2.19-.91,2.7,2.7,0,0,1,2.43,1.32Zm-4,4.69a2.29,2.29,0,0,0,1.68.69,2.25,2.25,0,0,0,1.68-.69,2.4,2.4,0,0,0,0-3.37,2.25,2.25,0,0,0-1.68-.69,2.29,2.29,0,0,0-1.68.69,2.43,2.43,0,0,0,0,3.37Z" fill="#000"/><path d="M86.38,59.06a3.54,3.54,0,0,1-2-.55A2.84,2.84,0,0,1,83.26,57l.72-.42a2.19,2.19,0,0,0,.84,1.22,2.65,2.65,0,0,0,1.57.44,2.35,2.35,0,0,0,1.46-.41,1.34,1.34,0,0,0,.52-1.1,1.15,1.15,0,0,0-.48-1A6.64,6.64,0,0,0,86.31,55a8.91,8.91,0,0,1-1.73-.7,1.83,1.83,0,0,1-1-1.67A2.08,2.08,0,0,1,84.36,51a2.75,2.75,0,0,1,1.84-.62,2.87,2.87,0,0,1,1.7.51A3.07,3.07,0,0,1,89,52.18l-.71.4a2.07,2.07,0,0,0-2.06-1.4,1.94,1.94,0,0,0-1.26.39,1.28,1.28,0,0,0-.48,1.07,1.07,1.07,0,0,0,.43.93,5.47,5.47,0,0,0,1.43.64l.65.22.58.22a3.4,3.4,0,0,1,.56.26l.43.31a1.4,1.4,0,0,1,.38.4,2.78,2.78,0,0,1,.2.48,2,2,0,0,1,.09.6,2.08,2.08,0,0,1-.78,1.71A3.11,3.11,0,0,1,86.38,59.06Z" fill="#000"/><path d="M95.34,52.77a2.73,2.73,0,0,1,2.16.94,3.24,3.24,0,0,1,.79,2.6H93a2.1,2.1,0,0,0,.77,1.44,2.45,2.45,0,0,0,1.61.54A2.49,2.49,0,0,0,96.6,58a2,2,0,0,0,.75-.74l.69.41a2.74,2.74,0,0,1-1.08,1,3.16,3.16,0,0,1-1.56.38,3.12,3.12,0,0,1-2.3-.89,3.3,3.3,0,0,1,0-4.5A3,3,0,0,1,95.34,52.77Zm0,.77a2.27,2.27,0,0,0-1.56.55A2.3,2.3,0,0,0,93,55.54H97.5a2.26,2.26,0,0,0-.73-1.48A2.12,2.12,0,0,0,95.34,53.54Z" fill="#000"/><path d="M102.29,53.91a2,2,0,0,1,1.9-1.09v.76a2,2,0,0,0-1.36.48,1.94,1.94,0,0,0-.54,1.52v3.33h-.79v-6h.79Z" fill="#000"/><path d="M111.51,52.91h.84l-2.46,6h-1l-2.46-6h.84l2.1,5.16Z" fill="#000"/><path d="M116,51.47a.57.57,0,0,1-.41.17.58.58,0,0,1-.41-.17.56.56,0,0,1-.16-.41.54.54,0,0,1,.16-.4.54.54,0,0,1,.41-.17.53.53,0,0,1,.41.17.54.54,0,0,1,.17.4A.57.57,0,0,1,116,51.47Zm-.8,7.44v-6H116v6Z" fill="#000"/><path d="M122.41,59.06a3.15,3.15,0,1,1,1.6-5.87,2.54,2.54,0,0,1,1,1.15l-.65.37a1.88,1.88,0,0,0-.77-.86,2.34,2.34,0,0,0-1.21-.31,2.29,2.29,0,0,0-1.68.69,2.43,2.43,0,0,0,0,3.37,2.4,2.4,0,0,0,2.88.37,2.21,2.21,0,0,0,.83-.86l.66.39A2.78,2.78,0,0,1,124,58.64,3.11,3.11,0,0,1,122.41,59.06Z" fill="#000"/><path d="M130.88,52.77a2.72,2.72,0,0,1,2.15.94,3.27,3.27,0,0,1,.82,2.23c0,.08,0,.21,0,.37h-5.27a2.14,2.14,0,0,0,.77,1.44,2.47,2.47,0,0,0,1.62.54,2.45,2.45,0,0,0,1.18-.28,2,2,0,0,0,.75-.74l.69.41a2.79,2.79,0,0,1-1.07,1,3.23,3.23,0,0,1-1.57.38,3.12,3.12,0,0,1-2.3-.89,3.3,3.3,0,0,1,0-4.5A3,3,0,0,1,130.88,52.77Zm0,.77a2.28,2.28,0,0,0-1.57.55,2.3,2.3,0,0,0-.75,1.45H133a2.27,2.27,0,0,0-.74-1.48A2.11,2.11,0,0,0,130.88,53.54Z" fill="#000"/><path d="M137.41,54.47a.74.74,0,0,0,.37.64,3.58,3.58,0,0,0,.88.38l1,.29a1.79,1.79,0,0,1,.87.54,1.4,1.4,0,0,1,.36,1,1.51,1.51,0,0,1-.61,1.25,2.42,2.42,0,0,1-1.56.48,2.64,2.64,0,0,1-1.47-.39,2,2,0,0,1-.85-1l.67-.4a1.42,1.42,0,0,0,.61.74,1.94,1.94,0,0,0,1,.27,1.85,1.85,0,0,0,1-.24.78.78,0,0,0,.4-.72.75.75,0,0,0-.36-.65,3.25,3.25,0,0,0-.88-.39l-1-.29a1.85,1.85,0,0,1-.88-.53,1.37,1.37,0,0,1-.36-1,1.57,1.57,0,0,1,.58-1.22,2.19,2.19,0,0,1,1.47-.49,2.48,2.48,0,0,1,1.29.33,2,2,0,0,1,.81.89l-.66.39a1.39,1.39,0,0,0-1.44-.84,1.57,1.57,0,0,0-.88.24A.78.78,0,0,0,137.41,54.47Z" fill="#000"/></g></g></svg>