<svg xmlns="http://www.w3.org/2000/svg" viewBox="0 0 196.6 96.46"><title>logo-text-1</title><g id="Capa_2" data-name="Capa 2"><g id="Capa_1-2" data-name="Capa 1"><g id="Capa_2-2" data-name="Capa 2"><g id="Capa_2-2-2" data-name="Capa 2-2"><path d="M131.22,18.87a10.29,10.29,0,0,0-7.23-3c-1.24,0-4.29,0-4.29,0l-3.1,3.1L68.65,67.18H97.79l33.49-33.74A10.35,10.35,0,0,0,131.22,18.87Z"/><path d="M106.52,1.35H92.26A22,22,0,0,0,75,38.66h0l4.86,4.91L121.77,1.35Z"/><circle cx="126.16" cy="58.92" r="8.27"/></g></g><path d="M57.75,57.89a32.73,32.73,0,0,1-24,9.81A32.58,32.58,0,0,1,9.81,57.89,32.69,32.69,0,0,1,0,33.85a32.7,32.7,0,0,1,9.81-24A32.58,32.58,0,0,1,33.76,0a32.73,32.73,0,0,1,24,9.81,32.63,32.63,0,0,1,9.86,24A32.61,32.61,0,0,1,57.75,57.89Zm-39-8.74a20.41,20.41,0,0,0,15,6,20.41,20.41,0,0,0,15-6,20.64,20.64,0,0,0,6.05-15.3,20.78,20.78,0,0,0-6.05-15.34,20.34,20.34,0,0,0-15-6.05,20.34,20.34,0,0,0-15,6.05,20.74,20.74,0,0,0-6,15.34A20.61,20.61,0,0,0,18.79,49.15Z"/><path d="M183.59,66.4l-4.14-11.72H152.71l-3.9,11.72H135L157.73,1.3h15.91l23,65.1Zm-26.7-23.71h18.32l-9.39-26.6Z"/><path d="M9.88,92.06A7.78,7.78,0,0,1,4.1,89.75a8.11,8.11,0,0,1,0-11.3,7.78,7.78,0,0,1,5.78-2.31,7.75,7.75,0,0,1,3.92,1,7.08,7.08,0,0,1,2.75,2.76l-1.36.79A5.54,5.54,0,0,0,13,78.47a6.09,6.09,0,0,0-3.15-.84,6.47,6.47,0,1,0,0,12.94A6.09,6.09,0,0,0,13,89.73a5.48,5.48,0,0,0,2.16-2.24l1.36.77A7,7,0,0,1,13.81,91,7.69,7.69,0,0,1,9.88,92.06Z"/><path d="M28,90.4a5.91,5.91,0,0,1-8.21,0,5.84,5.84,0,0,1,0-8.2,5.91,5.91,0,0,1,8.21,0,5.84,5.84,0,0,1,0,8.2Zm-7.18-1a4.37,4.37,0,0,0,6.16,0,4.36,4.36,0,0,0-3.08-7.45,4.38,4.38,0,0,0-3.08,7.45Z"/><path d="M37.23,80.54a4.11,4.11,0,0,1,3.16,1.22,4.58,4.58,0,0,1,1.15,3.29V91.8H40.09V85.05a3.16,3.16,0,0,0-.78-2.29,2.93,2.93,0,0,0-2.21-.82,3.43,3.43,0,0,0-2.57,1,4.22,4.22,0,0,0-1,3.09V91.8H32.08v-11h1.46v1.72A4.06,4.06,0,0,1,37.23,80.54Z"/><path d="M45.5,83.65a1.35,1.35,0,0,0,.67,1.17,6.38,6.38,0,0,0,1.62.71c.63.18,1.26.35,1.89.54a3.43,3.43,0,0,1,1.6,1,2.67,2.67,0,0,1,.65,1.86,2.76,2.76,0,0,1-1.11,2.28,4.47,4.47,0,0,1-2.87.88,4.93,4.93,0,0,1-2.7-.7,3.77,3.77,0,0,1-1.55-1.82l1.23-.73A2.62,2.62,0,0,0,46,90.16a3.94,3.94,0,0,0,3.71.07,1.45,1.45,0,0,0,.73-1.33,1.38,1.38,0,0,0-.66-1.19A5.84,5.84,0,0,0,48.21,87l-1.89-.54a3.53,3.53,0,0,1-1.61-1,2.53,2.53,0,0,1-.66-1.82,2.83,2.83,0,0,1,1.07-2.24,4,4,0,0,1,2.69-.9,4.55,4.55,0,0,1,2.36.6,3.69,3.69,0,0,1,1.49,1.64l-1.21.7a2.56,2.56,0,0,0-2.64-1.54,2.85,2.85,0,0,0-1.62.45A1.41,1.41,0,0,0,45.5,83.65Z"/><path d="M62,80.8h1.45v11H62V90.08a4.06,4.06,0,0,1-3.69,2,4.11,4.11,0,0,1-3.16-1.22A4.59,4.59,0,0,1,54,87.55V80.8h1.45v6.75a3.17,3.17,0,0,0,.79,2.29,2.88,2.88,0,0,0,2.21.82,3.49,3.49,0,0,0,2.57-1,4.26,4.26,0,0,0,1-3.1Z"/><path d="M66.51,91.8V75.74H68V91.8Z"/><path d="M76.88,82.21H73.71v6.67a1.88,1.88,0,0,0,.35,1.28,1.39,1.39,0,0,0,1.06.4c.46,0,1,0,1.76,0V91.8a5.36,5.36,0,0,1-3.47-.33,2.75,2.75,0,0,1-1.15-2.59V82.21H70V80.8h2.31V78.16l1.45-.44V80.8h3.17Z"/><path d="M80.77,78.16a1,1,0,0,1-.75.31,1.06,1.06,0,1,1,0-2.11,1,1,0,0,1,.75.31,1.05,1.05,0,0,1,0,1.49ZM79.3,91.8v-11h1.45v11Z"/><path d="M89,80.54a4.11,4.11,0,0,1,3.15,1.22,4.59,4.59,0,0,1,1.16,3.29V91.8H91.84V85.05a3.12,3.12,0,0,0-.79-2.29,2.92,2.92,0,0,0-2.21-.82,3.46,3.46,0,0,0-2.57,1,4.22,4.22,0,0,0-1,3.09V91.8H83.83v-11h1.45v1.72A4.06,4.06,0,0,1,89,80.54Z"/><path d="M105.56,80.8H107V91.36a4.64,4.64,0,0,1-1.63,3.74,5.89,5.89,0,0,1-3.9,1.36q-3.87,0-5.21-2.68l1.28-.73q1,2,3.93,2a4.29,4.29,0,0,0,3-1,3.51,3.51,0,0,0,1.08-2.7V89.64a4.9,4.9,0,0,1-4.44,2.42,5.41,5.41,0,0,1-4-1.67,5.84,5.84,0,0,1,0-8.18,5.41,5.41,0,0,1,4-1.67A4.9,4.9,0,0,1,105.56,83Zm-7.41,8.59a4.37,4.37,0,0,0,6.16,0,4.33,4.33,0,1,0-6.16,0Z"/><path d="M120.66,92.06a6.36,6.36,0,0,1-3.62-1,5.11,5.11,0,0,1-2.1-2.76l1.32-.77a4.05,4.05,0,0,0,1.54,2.24,4.83,4.83,0,0,0,2.88.8,4.18,4.18,0,0,0,2.67-.76,2.45,2.45,0,0,0,1-2,2.1,2.1,0,0,0-.88-1.83,11.81,11.81,0,0,0-2.91-1.28,16.85,16.85,0,0,1-3.16-1.27,3.36,3.36,0,0,1-1.76-3.06A3.81,3.81,0,0,1,117,77.27a5.07,5.07,0,0,1,3.37-1.13,5.28,5.28,0,0,1,3.12.93,5.76,5.76,0,0,1,2,2.39l-1.3.72a3.79,3.79,0,0,0-3.78-2.55,3.56,3.56,0,0,0-2.31.71,2.35,2.35,0,0,0-.88,2,2,2,0,0,0,.79,1.72,10.19,10.19,0,0,0,2.62,1.17l1.2.4,1,.4a6.28,6.28,0,0,1,1,.48c.22.14.49.33.81.58a2.65,2.65,0,0,1,.68.72,4.57,4.57,0,0,1,.37.88,3.68,3.68,0,0,1,.17,1.11,3.88,3.88,0,0,1-1.43,3.14A5.77,5.77,0,0,1,120.66,92.06Z"/><path d="M133.57,80.54a5,5,0,0,1,4,1.72A6.06,6.06,0,0,1,139,86.34c0,.17,0,.39-.05.69h-9.66a4,4,0,0,0,1.42,2.65,4.55,4.55,0,0,0,3,1,4.38,4.38,0,0,0,2.17-.52,3.49,3.49,0,0,0,1.37-1.35l1.28.75a5.17,5.17,0,0,1-2,1.84,5.84,5.84,0,0,1-2.86.68,5.71,5.71,0,0,1-4.22-1.62,6.08,6.08,0,0,1,0-8.25A5.52,5.52,0,0,1,133.57,80.54Zm0,1.4a4.14,4.14,0,0,0-4.25,3.68h8.21a4.12,4.12,0,0,0-1.34-2.71A3.92,3.92,0,0,0,133.57,81.94Z"/><path d="M142.79,82.63a3.56,3.56,0,0,1,3.47-2V82a3.63,3.63,0,0,0-2.48.88,3.53,3.53,0,0,0-1,2.77V91.8h-1.45v-11h1.45Z"/><path d="M156.16,80.8h1.54l-4.51,11h-1.76l-4.51-11h1.54l3.85,9.45Z"/><path d="M160.94,78.16a1.05,1.05,0,1,1,.31-.75A1,1,0,0,1,160.94,78.16ZM159.46,91.8v-11h1.46v11Z"/><path d="M169.12,92.06a5.76,5.76,0,1,1,2.93-10.74,4.67,4.67,0,0,1,1.89,2.1l-1.19.68a3.36,3.36,0,0,0-1.42-1.57A4.37,4.37,0,0,0,166,89.39a4.38,4.38,0,0,0,5.28.68,4.09,4.09,0,0,0,1.52-1.57l1.21.71a5.07,5.07,0,0,1-2,2.08A5.65,5.65,0,0,1,169.12,92.06Z"/><path d="M181.11,80.54a5,5,0,0,1,3.95,1.72,6,6,0,0,1,1.51,4.08c0,.17,0,.39,0,.69h-9.65a3.92,3.92,0,0,0,1.42,2.65,4.5,4.5,0,0,0,3,1,4.38,4.38,0,0,0,2.17-.52,3.59,3.59,0,0,0,1.38-1.35l1.27.75a5.17,5.17,0,0,1-2,1.84,5.82,5.82,0,0,1-2.86.68A5.71,5.71,0,0,1,177,90.44a5.61,5.61,0,0,1-1.63-4.14A5.66,5.66,0,0,1,177,82.19,5.51,5.51,0,0,1,181.11,80.54Zm0,1.4a4.19,4.19,0,0,0-2.87,1,4.11,4.11,0,0,0-1.37,2.65h8.2a4.08,4.08,0,0,0-1.34-2.71A3.92,3.92,0,0,0,181.11,81.94Z"/><path d="M189.58,83.65a1.35,1.35,0,0,0,.67,1.17,6.38,6.38,0,0,0,1.62.71c.63.18,1.26.35,1.89.54a3.43,3.43,0,0,1,1.6,1A2.67,2.67,0,0,1,196,88.9a2.76,2.76,0,0,1-1.11,2.28,4.5,4.5,0,0,1-2.88.88,4.92,4.92,0,0,1-2.69-.7,3.77,3.77,0,0,1-1.55-1.82l1.23-.73a2.62,2.62,0,0,0,1.11,1.35,3.94,3.94,0,0,0,3.71.07,1.44,1.44,0,0,0,.72-1.33,1.36,1.36,0,0,0-.66-1.19,5.77,5.77,0,0,0-1.6-.71l-1.89-.54a3.53,3.53,0,0,1-1.61-1,2.53,2.53,0,0,1-.66-1.82,2.83,2.83,0,0,1,1.07-2.24,4,4,0,0,1,2.69-.9,4.55,4.55,0,0,1,2.36.6,3.69,3.69,0,0,1,1.49,1.64l-1.21.7a2.56,2.56,0,0,0-2.64-1.54,2.91,2.91,0,0,0-1.63.45A1.42,1.42,0,0,0,189.58,83.65Z"/></g></g></svg>