<svg xmlns="http://www.w3.org/2000/svg" viewBox="0 0 306.94 147.13"><title>logo-h</title><g id="Capa_2" data-name="Capa 2"><g id="TEXTS"><path d="M15,139.73a13.43,13.43,0,1,1,0-26.86,13,13,0,0,1,6.53,1.7,12.39,12.39,0,0,1,4.64,4.59l-3,1.74a8.33,8.33,0,0,0-3.32-3.42A9.51,9.51,0,0,0,15,116.2a9.77,9.77,0,0,0-7.31,2.89A10.09,10.09,0,0,0,15,136.37a9.51,9.51,0,0,0,4.86-1.28,8.39,8.39,0,0,0,3.32-3.39l3,1.71A12.08,12.08,0,0,1,21.5,138,12.9,12.9,0,0,1,15,139.73Z"/><path d="M43.88,136.92A9.45,9.45,0,0,1,37,139.73a9.73,9.73,0,1,1,6.92-16.65,9.83,9.83,0,0,1,0,13.84ZM37,136.59A6.44,6.44,0,0,0,43.51,130,6.42,6.42,0,0,0,37,123.42a6.31,6.31,0,0,0-4.62,1.88,6.79,6.79,0,0,0,0,9.4A6.28,6.28,0,0,0,37,136.59Z"/><path d="M58.42,120.27a6.92,6.92,0,0,1,5.22,2,7.73,7.73,0,0,1,2,5.57v11.36H62.38V128.08a4.75,4.75,0,0,0-1.22-3.5,4.54,4.54,0,0,0-3.37-1.24,5.21,5.21,0,0,0-3.88,1.5,6.32,6.32,0,0,0-1.48,4.61v9.8H49.21v-18.5h3.22v2.67A6.57,6.57,0,0,1,58.42,120.27Z"/><path d="M71.52,125.69a1.91,1.91,0,0,0,1.09,1.69,11.63,11.63,0,0,0,2.6,1.07l3,.89A5.29,5.29,0,0,1,80.82,131a4.66,4.66,0,0,1,1.06,3.16,4.88,4.88,0,0,1-1.94,4,7.88,7.88,0,0,1-5,1.51,8.62,8.62,0,0,1-4.62-1.18,6.57,6.57,0,0,1-2.74-3.15l2.77-1.59A4,4,0,0,0,72,135.92a5.31,5.31,0,0,0,2.92.78,5.09,5.09,0,0,0,2.63-.61,2,2,0,0,0,1-1.9,1.93,1.93,0,0,0-1.07-1.72,11.44,11.44,0,0,0-2.58-1.1l-3-.91a5.54,5.54,0,0,1-2.6-1.64,4.33,4.33,0,0,1-1.08-3,4.92,4.92,0,0,1,1.87-4,7.07,7.07,0,0,1,4.68-1.56,7.85,7.85,0,0,1,4,1,6.5,6.5,0,0,1,2.64,2.83l-2.7,1.52a3.86,3.86,0,0,0-4-2.37,4.16,4.16,0,0,0-2.33.63A2,2,0,0,0,71.52,125.69Z"/><path d="M96.94,120.75h3.22v18.5H96.94v-2.66a6.59,6.59,0,0,1-6,3.14,6.87,6.87,0,0,1-5.22-2,7.71,7.71,0,0,1-2-5.57V120.75H87v11.18a4.73,4.73,0,0,0,1.22,3.49,4.48,4.48,0,0,0,3.36,1.24,5.22,5.22,0,0,0,3.89-1.5,6.28,6.28,0,0,0,1.48-4.6Z"/><path d="M103.71,139.25v-27h3.22v27Z"/><path d="M120.58,123.86h-4.92v10a2.79,2.79,0,0,0,.54,1.94,2.19,2.19,0,0,0,1.64.59c.74,0,1.66,0,2.74,0v2.88q-4.22.56-6.18-.68c-1.3-.83-2-2.39-2-4.68v-10h-3.66v-3.11h3.66v-4.22l3.22-1v5.18h4.92Z"/><path d="M124.69,117.39a2.15,2.15,0,0,1-2.18-2.15,2.15,2.15,0,0,1,.63-1.54,2.16,2.16,0,0,1,3.07,0,2.14,2.14,0,0,1,.62,1.54,2.13,2.13,0,0,1-2.14,2.15Zm-1.63,21.86v-18.5h3.22v18.5Z"/><path d="M139.08,120.27a6.92,6.92,0,0,1,5.22,2,7.73,7.73,0,0,1,2,5.57v11.36H143V128.08a4.79,4.79,0,0,0-1.22-3.5,4.54,4.54,0,0,0-3.37-1.24,5.2,5.2,0,0,0-3.88,1.5,6.32,6.32,0,0,0-1.48,4.61v9.8h-3.22v-18.5h3.22v2.67A6.57,6.57,0,0,1,139.08,120.27Z"/><path d="M164.76,120.75h3.18v17.73a7.8,7.8,0,0,1-2.77,6.38,10.15,10.15,0,0,1-6.66,2.27,11.53,11.53,0,0,1-5.37-1.16,7.81,7.81,0,0,1-3.4-3.35l2.81-1.59q1.51,3.1,6,3.11a6.43,6.43,0,0,0,4.53-1.52,5.34,5.34,0,0,0,1.65-4.14v-2.63a7.85,7.85,0,0,1-7,3.7,9,9,0,0,1-6.69-2.81,9.91,9.91,0,0,1,0-13.68,9,9,0,0,1,6.69-2.79,7.81,7.81,0,0,1,7,3.66Zm-11.28,13.84a6.74,6.74,0,1,0-1.89-4.7A6.35,6.35,0,0,0,153.48,134.59Z"/><path d="M188.11,139.73a10.92,10.92,0,0,1-6.2-1.7,9,9,0,0,1-3.61-4.66l3-1.7q1.52,4.7,6.92,4.7a6.51,6.51,0,0,0,4.07-1.1,3.47,3.47,0,0,0,1.41-2.9,3.11,3.11,0,0,0-1.41-2.78,20.46,20.46,0,0,0-4.7-2l-2.47-.85a17.44,17.44,0,0,1-2.14-.94,6.59,6.59,0,0,1-1.9-1.33,6.7,6.7,0,0,1-1.13-1.8,6.08,6.08,0,0,1-.5-2.51,6.6,6.6,0,0,1,2.37-5.35,8.69,8.69,0,0,1,5.77-2,9.23,9.23,0,0,1,5.35,1.56,9.64,9.64,0,0,1,3.42,4.1l-2.89,1.67a5.92,5.92,0,0,0-5.88-4,5.28,5.28,0,0,0-3.4,1,3.38,3.38,0,0,0-1.3,2.81,3,3,0,0,0,1.22,2.59,16.14,16.14,0,0,0,4.22,1.84l1.51.54,1.4.49a14.82,14.82,0,0,1,1.39.56l1.2.63a5,5,0,0,1,1.13.78c.24.25.53.55.86.91a3.53,3.53,0,0,1,.73,1.09,9.88,9.88,0,0,1,.38,1.28,6.85,6.85,0,0,1,.17,1.54,6.64,6.64,0,0,1-2.48,5.42A10,10,0,0,1,188.11,139.73Z"/><path d="M202.17,131.48a6.05,6.05,0,0,0,2.27,3.85,7.1,7.1,0,0,0,4.42,1.37,5.8,5.8,0,0,0,5.33-2.7l2.74,1.55a9,9,0,0,1-8.14,4.18,9.71,9.71,0,0,1-7.16-2.75,9.47,9.47,0,0,1-2.76-7,9.57,9.57,0,0,1,2.7-7,9.33,9.33,0,0,1,7-2.78,8.53,8.53,0,0,1,6.64,2.87,10,10,0,0,1,2.57,6.9,10.19,10.19,0,0,1-.11,1.44Zm6.4-8.17a6.13,6.13,0,0,0-6.4,5.36h12.35a6.19,6.19,0,0,0-2.07-4A5.93,5.93,0,0,0,208.57,123.31Z"/><path d="M223.37,123.86a5.8,5.8,0,0,1,5.77-3.44v3.37a5.8,5.8,0,0,0-4.07,1.25,5.33,5.33,0,0,0-1.7,4.41v9.8h-3.22v-18.5h3.22Z"/><path d="M243.9,120.75h3.48l-7.4,18.5h-3.77l-7.4-18.5h3.47l5.81,15Z"/><path d="M250.41,117.39a2.11,2.11,0,0,1-1.55-.63,2.08,2.08,0,0,1-.63-1.52,2.15,2.15,0,0,1,.63-1.54,2.08,2.08,0,0,1,1.55-.64,2,2,0,0,1,1.52.64,2.15,2.15,0,0,1,.63,1.54,2.15,2.15,0,0,1-2.15,2.15Zm-1.63,21.86v-18.5H252v18.5Z"/><path d="M264.29,139.73a9.73,9.73,0,1,1,4.92-18.14,8.19,8.19,0,0,1,3.25,3.53l-2.7,1.55a5.6,5.6,0,0,0-2.16-2.37,6.68,6.68,0,0,0-8,1,6.45,6.45,0,0,0-1.87,4.7,6.37,6.37,0,0,0,1.87,4.66,6.29,6.29,0,0,0,4.65,1.89,6.46,6.46,0,0,0,3.33-.87,5.78,5.78,0,0,0,2.25-2.35l2.74,1.59a9,9,0,0,1-3.4,3.5A9.44,9.44,0,0,1,264.29,139.73Z"/><path d="M276.46,131.48a6.07,6.07,0,0,0,2.28,3.85,7.08,7.08,0,0,0,4.42,1.37,5.77,5.77,0,0,0,5.32-2.7l2.74,1.55a9,9,0,0,1-8.14,4.18,9.72,9.72,0,0,1-7.16-2.75,10.26,10.26,0,0,1-.05-13.93,9.32,9.32,0,0,1,7-2.78,8.51,8.51,0,0,1,6.64,2.87,9.94,9.94,0,0,1,2.57,6.9,8.9,8.9,0,0,1-.11,1.44Zm6.4-8.17a6.14,6.14,0,0,0-6.4,5.36h12.36a6.19,6.19,0,0,0-2.07-4A6,6,0,0,0,282.86,123.31Z"/><path d="M296.48,125.69a1.91,1.91,0,0,0,1.09,1.69,11.54,11.54,0,0,0,2.59,1.07l3,.89a5.38,5.38,0,0,1,2.58,1.68,4.71,4.71,0,0,1,1.06,3.16,4.88,4.88,0,0,1-1.94,4,7.88,7.88,0,0,1-5,1.51,8.69,8.69,0,0,1-4.63-1.18,6.6,6.6,0,0,1-2.73-3.15l2.77-1.59a3.91,3.91,0,0,0,1.67,2.11,5.28,5.28,0,0,0,2.92.78,5.12,5.12,0,0,0,2.63-.61,2,2,0,0,0,1-1.9,2,2,0,0,0-1.07-1.72,11.44,11.44,0,0,0-2.58-1.1l-3-.91a5.64,5.64,0,0,1-2.6-1.64,4.37,4.37,0,0,1-1.07-3,4.89,4.89,0,0,1,1.87-4,7.07,7.07,0,0,1,4.68-1.56,7.84,7.84,0,0,1,4,1,6.47,6.47,0,0,1,2.65,2.83l-2.7,1.52a3.88,3.88,0,0,0-4-2.37,4.16,4.16,0,0,0-2.33.63A2,2,0,0,0,296.48,125.69Z"/><path d="M199.3,26.28a15.4,15.4,0,0,0-10.83-4.49c-1.88,0-6.38-.11-6.38-.11l-4.64,4.64L105.64,98.65h43.61l50.13-50.49A15.48,15.48,0,0,0,199.3,26.28Z"/><path d="M162.34.08H141A33,33,0,0,0,115.16,56h0l7.23,7.31L185.15.06Z"/><path d="M191.74,73.89a12.38,12.38,0,1,1-12.38,12.38A12.37,12.37,0,0,1,191.74,73.89Z"/><path d="M0,49.32A48.9,48.9,0,0,1,49.32,0,48.89,48.89,0,0,1,98.64,49.32,48.9,48.9,0,0,1,49.32,98.65,48.9,48.9,0,0,1,0,49.32Zm77,0c0-16.93-12.2-28.18-27.65-28.18S21.68,32.39,21.68,49.32s12.2,28.19,27.64,28.19S77,66.26,77,49.32Z"/><path d="M277.35,83.14H240.71l-4.93,15.51H211.11L244.65,0H273.4l33.54,98.65H282.28ZM270.58,62,259,25.79,247.47,62Z"/></g></g></svg>