<svg xmlns="http://www.w3.org/2000/svg" viewBox="0 0 358.5 127.5"><title>logo-text</title><g id="Capa_2" data-name="Capa 2"><g id="Capa_1-2" data-name="Capa 1"><g id="Capa_2-2" data-name="Capa 2"><g id="Capa_2-2-2" data-name="Capa 2-2"><path d="M121.1,34a19.92,19.92,0,0,0-14-5.8c-2.4,0-8.3-.1-8.3-.1l-6,6L0,127.5H56.4l64.8-65.3A20,20,0,0,0,121.1,34Z"/><path d="M73.3.1H45.7A42.64,42.64,0,0,0,12.3,72.3h0l9.4,9.5L102.8.1Z"/><circle cx="111.3" cy="111.5" r="16"/></g></g><path d="M223.65,72.71a33.78,33.78,0,0,1-57.75-24,32.69,32.69,0,0,1,9.81-24,34.19,34.19,0,0,1,47.94,0,32.61,32.61,0,0,1,9.86,24A32.61,32.61,0,0,1,223.65,72.71Zm-39-8.74a21.68,21.68,0,0,0,29.94,0,20.64,20.64,0,0,0,6.05-15.3,20.78,20.78,0,0,0-6.05-15.34,21.55,21.55,0,0,0-29.94,0,20.78,20.78,0,0,0-6.05,15.34A20.64,20.64,0,0,0,184.69,64Z"/><path d="M267.08,82.52q-9.66,0-16.27-4.32a23.19,23.19,0,0,1-9.3-11.77l11-6.41q3.83,9.95,15,9.95c3.59,0,6.23-.65,7.9-2a6.14,6.14,0,0,0-.56-10.27q-3.06-1.91-11-4.14A67.16,67.16,0,0,1,256.44,51a31.29,31.29,0,0,1-6.05-3.48,14.21,14.21,0,0,1-4.6-5.54,18,18,0,0,1-1.58-7.81q0-8.83,6.27-14.09a22.81,22.81,0,0,1,15.12-5.25,25.14,25.14,0,0,1,13.9,3.86,26,26,0,0,1,9.35,10.74l-10.79,6.23q-3.92-8.37-12.46-8.37a9.82,9.82,0,0,0-6.28,1.81,5.74,5.74,0,0,0-2.28,4.7,5.92,5.92,0,0,0,2.56,5q2.55,1.9,9.81,4.13c2,.62,3.49,1.11,4.51,1.45s2.42.86,4.19,1.58a25.19,25.19,0,0,1,4.09,2,31.5,31.5,0,0,1,3.3,2.51,12.83,12.83,0,0,1,2.83,3.25,18.61,18.61,0,0,1,2.38,9.21q0,9-6.56,14.32T267.08,82.52Z"/><path d="M345.49,81.22,341.35,69.5H314.61l-3.9,11.72H296.85l22.78-65.1h15.91l23,65.1Zm-26.7-23.71h18.33l-9.4-26.6Z"/><path d="M171.79,107.88a7.79,7.79,0,0,1-5.79-2.31,8.11,8.11,0,0,1,0-11.3A8.21,8.21,0,0,1,175.7,93a7.08,7.08,0,0,1,2.75,2.76l-1.36.79a5.48,5.48,0,0,0-2.16-2.24,6.08,6.08,0,0,0-3.14-.84,6.26,6.26,0,0,0-4.71,1.87,6.47,6.47,0,0,0,4.71,11.07,6.08,6.08,0,0,0,3.14-.84,5.54,5.54,0,0,0,2.16-2.24l1.36.77a7,7,0,0,1-2.74,2.77A7.68,7.68,0,0,1,171.79,107.88Z"/><path d="M189.88,106.22a5.91,5.91,0,0,1-8.21,0,5.84,5.84,0,0,1,0-8.2,5.91,5.91,0,0,1,8.21,0,5.84,5.84,0,0,1,0,8.2Zm-7.18-1a4.37,4.37,0,0,0,6.16,0,4.44,4.44,0,0,0,0-6.18,4.36,4.36,0,0,0-6.16,6.18Z"/><path d="M199.13,96.36a4.11,4.11,0,0,1,3.16,1.22,4.58,4.58,0,0,1,1.15,3.29v6.75H202v-6.75a3.16,3.16,0,0,0-.78-2.29,2.9,2.9,0,0,0-2.21-.82,3.46,3.46,0,0,0-2.57,1,4.26,4.26,0,0,0-1,3.1v5.76H194v-11h1.46v1.71A4.07,4.07,0,0,1,199.13,96.36Z"/><path d="M207.4,99.47a1.35,1.35,0,0,0,.67,1.17,6,6,0,0,0,1.62.7l1.89.54a3.45,3.45,0,0,1,1.6,1,2.64,2.64,0,0,1,.65,1.85,2.78,2.78,0,0,1-1.11,2.29,4.47,4.47,0,0,1-2.87.88,4.93,4.93,0,0,1-2.7-.7,3.75,3.75,0,0,1-1.55-1.83l1.23-.72a2.62,2.62,0,0,0,1.11,1.35,3.94,3.94,0,0,0,3.71.07,1.45,1.45,0,0,0,.73-1.33,1.36,1.36,0,0,0-.66-1.19,5.84,5.84,0,0,0-1.61-.71l-1.89-.54a3.53,3.53,0,0,1-1.61-1A2.55,2.55,0,0,1,206,99.5,2.83,2.83,0,0,1,207,97.26a4,4,0,0,1,2.69-.9,4.55,4.55,0,0,1,2.36.6,3.69,3.69,0,0,1,1.49,1.64l-1.21.7a2.56,2.56,0,0,0-2.64-1.54,2.85,2.85,0,0,0-1.62.45A1.4,1.4,0,0,0,207.4,99.47Z"/><path d="M223.88,96.62h1.45v11h-1.45V105.9a4.06,4.06,0,0,1-3.69,2,4.11,4.11,0,0,1-3.16-1.22,4.59,4.59,0,0,1-1.16-3.29V96.62h1.46v6.75a3.16,3.16,0,0,0,.78,2.29,2.92,2.92,0,0,0,2.21.82,3.46,3.46,0,0,0,2.57-1,4.22,4.22,0,0,0,1-3.09Z"/><path d="M228.41,107.62V91.56h1.46v16.06Z"/><path d="M238.78,98h-3.17v6.66A1.93,1.93,0,0,0,236,106a1.39,1.39,0,0,0,1.06.4c.47,0,1,0,1.76,0v1.28a5.42,5.42,0,0,1-3.47-.33,2.77,2.77,0,0,1-1.15-2.6V98h-2.31V96.62h2.31V94l1.45-.44v3.08h3.17Z"/><path d="M242.67,94a1,1,0,0,1-.75.31,1.06,1.06,0,1,1,0-2.12,1,1,0,0,1,.75.31,1.06,1.06,0,0,1,0,1.5Zm-1.47,13.64v-11h1.45v11Z"/><path d="M250.88,96.36A4.11,4.11,0,0,1,254,97.58a4.59,4.59,0,0,1,1.16,3.29v6.75h-1.45v-6.75a3.16,3.16,0,0,0-.78-2.29,2.92,2.92,0,0,0-2.22-.82,3.49,3.49,0,0,0-2.57,1,4.26,4.26,0,0,0-1,3.1v5.76h-1.45v-11h1.45v1.71A4.08,4.08,0,0,1,250.88,96.36Z"/><path d="M267.46,96.62h1.46v10.56a4.64,4.64,0,0,1-1.63,3.74,5.87,5.87,0,0,1-3.9,1.36c-2.58,0-4.31-.89-5.21-2.68l1.28-.73c.66,1.34,2,2,3.93,2a4.24,4.24,0,0,0,3-1,3.47,3.47,0,0,0,1.08-2.69v-1.72a4.9,4.9,0,0,1-4.44,2.42,5.41,5.41,0,0,1-4-1.67A5.84,5.84,0,0,1,259,98a5.41,5.41,0,0,1,4-1.67,4.9,4.9,0,0,1,4.44,2.42Zm-7.41,8.59A4.36,4.36,0,0,0,266.21,99a4.37,4.37,0,0,0-6.16,0,4.44,4.44,0,0,0,0,6.18Z"/><path d="M282.56,107.88a6.36,6.36,0,0,1-3.62-1,5.18,5.18,0,0,1-2.1-2.76l1.32-.77a4,4,0,0,0,1.54,2.23,4.81,4.81,0,0,0,2.88.81,4.24,4.24,0,0,0,2.67-.76,2.45,2.45,0,0,0,1-2,2.08,2.08,0,0,0-.88-1.83,11.81,11.81,0,0,0-2.91-1.28,16.85,16.85,0,0,1-3.16-1.27,3.37,3.37,0,0,1-1.76-3.06,3.78,3.78,0,0,1,1.36-3.09A5.07,5.07,0,0,1,282.23,92a5.28,5.28,0,0,1,3.12.94,5.69,5.69,0,0,1,2,2.39L286,96a3.79,3.79,0,0,0-3.78-2.55,3.56,3.56,0,0,0-2.31.71,2.34,2.34,0,0,0-.88,2,2,2,0,0,0,.79,1.72A9.9,9.9,0,0,0,282.45,99c.55.2.95.33,1.2.41s.59.22,1.05.4a6.28,6.28,0,0,1,1,.48c.23.14.49.33.81.57a2.82,2.82,0,0,1,.68.73,4.57,4.57,0,0,1,.37.88,3.59,3.59,0,0,1,.17,1.11,3.88,3.88,0,0,1-1.43,3.14A5.75,5.75,0,0,1,282.56,107.88Z"/><path d="M295.47,96.36a5,5,0,0,1,3.95,1.72,6,6,0,0,1,1.51,4.08c0,.16,0,.39-.05.68h-9.66a4,4,0,0,0,1.42,2.66,4.55,4.55,0,0,0,3,1,4.38,4.38,0,0,0,2.17-.52,3.49,3.49,0,0,0,1.37-1.35l1.28.74a5.12,5.12,0,0,1-2,1.85,5.84,5.84,0,0,1-2.86.68,5.68,5.68,0,0,1-4.22-1.63,5.57,5.57,0,0,1-1.63-4.13,5.7,5.7,0,0,1,1.6-4.12A5.57,5.57,0,0,1,295.47,96.36Zm0,1.4a4.14,4.14,0,0,0-4.25,3.68h8.21a4.12,4.12,0,0,0-1.34-2.71A3.92,3.92,0,0,0,295.47,97.76Z"/><path d="M304.69,98.45a3.56,3.56,0,0,1,3.47-2v1.41a3.59,3.59,0,0,0-2.48.88,3.53,3.53,0,0,0-1,2.77v6.12h-1.45v-11h1.45Z"/><path d="M318.06,96.62h1.54l-4.51,11h-1.76l-4.51-11h1.54l3.85,9.45Z"/><path d="M322.84,94a1.06,1.06,0,1,1,.31-.75A1.06,1.06,0,0,1,322.84,94Zm-1.48,13.64v-11h1.46v11Z"/><path d="M331,107.88A5.76,5.76,0,1,1,334,97.14a4.67,4.67,0,0,1,1.89,2.1l-1.19.68a3.36,3.36,0,0,0-1.42-1.57,4.22,4.22,0,0,0-2.21-.59A4.15,4.15,0,0,0,327.94,99a4.44,4.44,0,0,0,0,6.18,4.28,4.28,0,0,0,6.8-.89l1.21.7a5,5,0,0,1-2,2.09A5.65,5.65,0,0,1,331,107.88Z"/><path d="M343,96.36A5,5,0,0,1,347,98.08a6,6,0,0,1,1.51,4.08c0,.16,0,.39-.05.68h-9.65a3.94,3.94,0,0,0,1.42,2.66,4.5,4.5,0,0,0,2.95,1,4.38,4.38,0,0,0,2.17-.52,3.59,3.59,0,0,0,1.38-1.35l1.27.74a5.12,5.12,0,0,1-2,1.85,5.82,5.82,0,0,1-2.86.68,5.68,5.68,0,0,1-4.22-1.63,5.57,5.57,0,0,1-1.63-4.13A5.7,5.7,0,0,1,338.88,98,5.54,5.54,0,0,1,343,96.36Zm0,1.4a4.12,4.12,0,0,0-4.24,3.68H347a4.08,4.08,0,0,0-1.34-2.71A3.92,3.92,0,0,0,343,97.76Z"/><path d="M351.48,99.47a1.35,1.35,0,0,0,.67,1.17,6,6,0,0,0,1.62.7l1.89.54a3.45,3.45,0,0,1,1.6,1,2.64,2.64,0,0,1,.65,1.85A2.78,2.78,0,0,1,356.8,107a4.5,4.5,0,0,1-2.88.88,4.92,4.92,0,0,1-2.69-.7,3.75,3.75,0,0,1-1.55-1.83l1.23-.72A2.62,2.62,0,0,0,352,106a3.94,3.94,0,0,0,3.71.07,1.45,1.45,0,0,0,.73-1.33,1.37,1.37,0,0,0-.67-1.19,5.77,5.77,0,0,0-1.6-.71l-1.89-.54a3.53,3.53,0,0,1-1.61-1A2.55,2.55,0,0,1,350,99.5a2.83,2.83,0,0,1,1.07-2.24,4,4,0,0,1,2.69-.9,4.55,4.55,0,0,1,2.36.6,3.69,3.69,0,0,1,1.49,1.64l-1.21.7a2.56,2.56,0,0,0-2.64-1.54,2.85,2.85,0,0,0-1.62.45A1.4,1.4,0,0,0,351.48,99.47Z"/></g></g></svg>