<?xml version="1.0" encoding="utf-8"?>
<!-- Generator: Adobe Illustrator 24.0.2, SVG Export Plug-In . SVG Version: 6.00 Build 0)  -->
<svg version="1.1" id="Capa_1" xmlns="http://www.w3.org/2000/svg" xmlns:xlink="http://www.w3.org/1999/xlink" x="0px" y="0px"
	 viewBox="0 0 210 210" style="enable-background:new 0 0 210 210;" xml:space="preserve">
<style type="text/css">
	.st0{fill:#0D2B3F;}
	.st1{fill:#FFFFFF;}
</style>
<title>osa-logo_1</title>
<g id="Capa_2_1_">
	<g id="Capa_2-2">
		<rect x="-13.5" y="-13.5" class="st0" width="237" height="237"/>
		<path class="st1" d="M160.8,76.4c-3.7-3.7-8.8-5.8-14-5.8c-2.4,0-8.3-0.1-8.3-0.1l-6,6L39.7,170h56.4l64.8-65.3
			C168.7,96.9,168.6,84.2,160.8,76.4z"/>
		<path class="st1" d="M113,42.6H85.4C61.9,41,41.6,58.8,40.1,82.3c-0.8,12.1,3.5,23.9,11.9,32.5l0,0l9.3,9.5l81.1-81.7L113,42.6z"
			/>
		<circle class="st1" cx="151" cy="154" r="16"/>
	</g>
</g>
<rect x="-332.7" y="-314.5" width="237" height="237"/>
<g>
	<path class="st1" d="M-158.4-224.6c-3.7-3.7-8.8-5.8-14-5.8c-2.4,0-8.3-0.1-8.3-0.1l-6,6l-92.8,93.5h56.4l64.8-65.3
		C-150.6-204.1-150.6-216.8-158.4-224.6z"/>
	<path class="st1" d="M-206.2-258.4h-27.6c-23.5-1.6-43.8,16.2-45.4,39.7c-0.8,12.1,3.5,23.9,11.9,32.5l0,0l9.4,9.5l81.1-81.7
		L-206.2-258.4z"/>
	<circle class="st1" cx="-168.2" cy="-147" r="16"/>
</g>
<rect x="1251.7" y="-509.7" width="469.5" height="237"/>
<g>
	<path class="st1" d="M1426-419.7c-3.7-3.7-8.8-5.8-14-5.8c-2.4,0-8.3-0.1-8.3-0.1l-6,6l-92.8,93.5h56.4l64.8-65.3
		C1433.9-399.3,1433.8-412,1426-419.7z"/>
	<path class="st1" d="M1378.2-453.6h-27.6c-23.5-1.6-43.8,16.2-45.4,39.7c-0.8,12.1,3.5,23.9,11.9,32.5l0,0l9.3,9.5l81.1-81.7
		L1378.2-453.6z"/>
	<circle class="st1" cx="1416.2" cy="-342.2" r="16"/>
</g>
<rect x="-13.5" y="-314.5" class="st1" width="237" height="237"/>
<g>
	<path d="M160.8-224.6c-3.7-3.7-8.8-5.8-14-5.8c-2.4,0-8.3-0.1-8.3-0.1l-6,6L39.7-131h56.4l64.8-65.3
		C168.7-204.1,168.6-216.8,160.8-224.6z"/>
	<path d="M113-258.4H85.4c-23.5-1.6-43.8,16.2-45.4,39.7c-0.8,12.1,3.5,23.9,11.9,32.5l0,0l9.3,9.5l81.1-81.7L113-258.4z"/>
	<circle cx="151" cy="-147" r="16"/>
</g>
<text transform="matrix(1 0 0 1 1458.7712 -344.747)" class="st1" style="font-family:'Gilroy-ExtraBold'; font-size:117px; letter-spacing:-3;">OSA</text>
<rect x="1269.9" y="-1018.8" width="433.8" height="452.8"/>
<g>
	<g>
		<path class="st1" d="M1583.9-905.7c-6.3-6.3-14.8-9.8-23.7-9.8c-4.1,0-14-0.2-14-0.2l-10.1,10.1l-157,158.1h95.3l109.6-110.4
			C1597.3-871.2,1597.2-892.6,1583.9-905.7z"/>
		<path class="st1" d="M1503.1-963h-46.6c-39.7-2.7-74.1,27.4-76.8,67.1c-1.4,20.4,6,40.4,20.2,55l0,0l15.8,16L1553-963.1
			L1503.1-963z"/>
		<circle class="st1" cx="1567.4" cy="-774.6" r="27.1"/>
	</g>
	
		<text transform="matrix(1 0 0 1 1372.3976 -631.1973)" class="st1" style="font-family:'Gilroy-ExtraBold'; font-size:117px; letter-spacing:-3;">OSA</text>
</g>
<rect x="1845.1" y="-993.6" width="481.4" height="465.6"/>
<text transform="matrix(1 0 0 1 297.6377 420.9449)" style="font-family:'MyriadPro-Regular'; font-size:12px;">https://www.freepik.com/free-vector/horizontal-digital-marketing-agency-web-template-design_13785116.htm#fromView=search&amp;page=1&amp;position=14&amp;uuid=49208aff-7e77-4d96-9a5b-ffd275b2e603&amp;query=portada+web+page</text>
<g>
	<path class="st1" d="M2194.7-846.4c-7.1-7-16.6-11-26.5-11c-4.6,0-15.6-0.3-15.6-0.3l-11.4,11.4l-176,177.3H2072l122.9-123.8
		C2209.6-807.6,2209.5-831.6,2194.7-846.4z"/>
	<path class="st1" d="M2104.1-910.6h-52.3c-44.5-3-83.1,30.7-86.1,75.2c-1.5,22.9,6.7,45.3,22.7,61.7l0,0l17.7,17.9L2160-910.7
		L2104.1-910.6z"/>
	<circle class="st1" cx="2176.1" cy="-699.3" r="30.3"/>
</g>
<text transform="matrix(1 0 0 1 1964.6975 -620.4599)"><tspan x="0" y="0" class="st1" style="font-family:'Gilroy-ExtraBold'; font-size:36px; letter-spacing:-1;">OSA </tspan><tspan x="78.4" y="0" class="st1" style="font-family:'Gilroy-Regular'; font-size:36px; letter-spacing:-1;">Consulting</tspan></text>
</svg>
