<svg xmlns="http://www.w3.org/2000/svg" viewBox="0 0 162.79 148.42"><defs><style>.cls-1,.cls-4,.cls-5{fill:#fff;}.cls-2{fill:#150035;}.cls-3{fill:#39a1ff;}.cls-4,.cls-5{stroke:#000;}.cls-4{stroke-linejoin:round;}.cls-5,.cls-6,.cls-7{stroke-miterlimit:10;}.cls-6,.cls-7{fill:none;stroke:#fff;stroke-width:0.5px;}.cls-7{stroke-dasharray:3.04 3.04;}</style></defs><title>plan_1_1</title><g id="Capa_2" data-name="Capa 2"><g id="Layer_1" data-name="Layer 1"><path class="cls-1" d="M161.66,135l-10.61-6.13a.37.37,0,0,0-.4,0l-4.47,2.78a.19.19,0,0,0-.06.25l4.31,4.61a.16.16,0,0,1,0,.09V138a1.39,1.39,0,0,0,.59,1.13l1.48-1.76s.05,0,.06.07l4.74,5.34a.18.18,0,0,0,.25.06l4.48-2.79a.91.91,0,0,0,.19-.47v-3.52A1.39,1.39,0,0,0,161.66,135Z"/><path class="cls-2" d="M157.49,143.41l-.16,0a.74.74,0,0,1-.4-.27l-4.39-5-1.38,1.64-.37-.21A1.92,1.92,0,0,1,150,138v-1.35l-4.26-4.59a.69.69,0,0,1,.22-.93l4.47-2.78a.87.87,0,0,1,.92,0l10.61,6.13a1.93,1.93,0,0,1,.85,1.57v3.52a1.38,1.38,0,0,1-.31.79l-.13.11-4.47,2.79A.69.69,0,0,1,157.49,143.41Zm-4.5-6.26,4.56,5.14,4.15-2.58.05-.1v-3.52a1,1,0,0,0-.33-.7l-10.57-6.1-4.05,2.52,4.07,4.38a.64.64,0,0,1,.1.35V138a.85.85,0,0,0,.08.35l1.38-1.63.36.22A.61.61,0,0,1,153,137.15Z"/><path class="cls-2" d="M154.21,139.78s0,.11,0,.29l3.13,2.64a.31.31,0,0,0,.41.1l4.38-2.73a.91.91,0,0,0,.19-.47V136.3a.12.12,0,0,0-.18-.1L157.68,139a.08.08,0,0,0,0,0Z"/><path class="cls-2" d="M157.56,143.36l-.19,0a.9.9,0,0,1-.45-.29l-3.28-2.76.1-.93,3.67-.83,4.42-2.76a.61.61,0,0,1,.64,0,.64.64,0,0,1,.32.54v3.31a1.38,1.38,0,0,1-.31.79l-.13.11L158,143.24A.79.79,0,0,1,157.56,143.36ZM155,140.11l2.58,2.18,4.14-2.58.05-.1V137L158,139.33l-.06.11Z"/><path class="cls-1" d="M157,143l-10.61-6.13a1.42,1.42,0,0,1-.59-1.13v-3.53c0-.43.26-.63.59-.45L157,137.84a1.42,1.42,0,0,1,.59,1.13v3.53C157.62,142.93,157.36,143.13,157,143Z"/><path class="cls-2" d="M157.27,143.52a.89.89,0,0,1-.49-.14l-10.62-6.12a1.93,1.93,0,0,1-.84-1.57v-3.53a1,1,0,0,1,.46-.91.84.84,0,0,1,.89,0l10.61,6.12a1.94,1.94,0,0,1,.85,1.57v3.53a1,1,0,0,1-.46.91A.73.73,0,0,1,157.27,143.52Zm-10.94-11.27v3.44a1,1,0,0,0,.34.69l10.44,6V139a1,1,0,0,0-.33-.69Z"/><rect class="cls-2" x="148.66" y="131.14" width="5.26" height="1.01" transform="translate(-46.73 99.92) rotate(-31.93)"/><path class="cls-1" d="M161.2,80.8,117.37,55.57a.62.62,0,0,0-.68,0h0l0,0-4.38,2.6a.23.23,0,0,0-.08.31l4.14,7.25a.2.2,0,0,1,0,.11v38.29a2.35,2.35,0,0,0,1,1.9L153,126.5a.2.2,0,0,1,.08.08l4.12,7.22a.24.24,0,0,0,.31.08l4.4-2.61a.88.88,0,0,0,.32-.78V82.7A2.39,2.39,0,0,0,161.2,80.8Z"/><path class="cls-2" d="M157.37,134.41a.58.58,0,0,1-.19,0,.72.72,0,0,1-.45-.35l-4.08-7.14-35.54-20.44a2.87,2.87,0,0,1-1.25-2.34V65.9l-4.1-7.18a.73.73,0,0,1,.26-1l4.38-2.6a1.12,1.12,0,0,1,1.22,0l43.83,25.22a2.84,2.84,0,0,1,1.25,2.34v47.79a1.39,1.39,0,0,1-.53,1.2l-4.43,2.62A.69.69,0,0,1,157.37,134.41ZM112.78,58.46l4,7a.74.74,0,0,1,.09.36v38.29a1.9,1.9,0,0,0,.75,1.47l35.6,20.47a.64.64,0,0,1,.27.27l4,7,4.16-2.46h0a1,1,0,0,0,.06-.35V82.7a1.89,1.89,0,0,0-.74-1.46L117.11,56a.33.33,0,0,0-.14,0Z"/><path class="cls-2" d="M131.27,86.8c.12.61,1.65,21.39,3.16,29.05a.1.1,0,0,0,0,.05L153,126.49l.11.1,4.08,7.15a.28.28,0,0,0,.4.1l4.34-2.57a.88.88,0,0,0,.32-.78V82.82a.08.08,0,0,0-.11-.06l-4.54,2.7h0L131.3,86.74A.09.09,0,0,0,131.27,86.8Z"/><path class="cls-2" d="M157.39,134.39a.69.69,0,0,1-.2,0,.8.8,0,0,1-.49-.37l-4.06-7.1L134,116.22l-.08-.27c-1.19-6-2.39-20.1-2.9-26.12-.13-1.55-.24-2.78-.26-2.93l.49-.1-.49.1-.06-.31.4-.35L157.4,85l4.69-2.79.32.14a.59.59,0,0,1,.29.5v47.67a1.39,1.39,0,0,1-.53,1.2l-4.37,2.59A.87.87,0,0,1,157.39,134.39Zm-22.5-18.83,18.42,10.57.19.21,4,7,4.16-2.46h0a1,1,0,0,0,.06-.35V83.59l-4,2.37h-.13l-25.74,1.25c0,.45.11,1.24.22,2.52C132.55,95.68,133.73,109.5,134.89,115.56Z"/><path class="cls-1" d="M156.55,134l-43.83-25.23a2.38,2.38,0,0,1-1-1.9V59.09c0-.74.45-1.07,1-.76l43.83,25.23a2.39,2.39,0,0,1,1,1.9v47.79C157.55,134,157.1,134.32,156.55,134Z"/><path class="cls-2" d="M157,134.63a1.25,1.25,0,0,1-.65-.19l-43.84-25.22a2.87,2.87,0,0,1-1.25-2.34V59.09a1.38,1.38,0,0,1,.6-1.25,1.16,1.16,0,0,1,1.16.06L156.8,83.12a2.84,2.84,0,0,1,1.25,2.34v47.79a1.38,1.38,0,0,1-.59,1.25A1,1,0,0,1,157,134.63ZM112.32,58.72h0s-.09.11-.09.37v47.79a1.89,1.89,0,0,0,.74,1.47l43.83,25.22a.31.31,0,0,0,.15.05s.09-.11.09-.37V85.46A1.89,1.89,0,0,0,156.3,84L112.46,58.77A.33.33,0,0,0,112.32,58.72Z"/><rect class="cls-2" x="115.56" y="58.22" width="5.26" height="1.01" transform="translate(-13.18 71.38) rotate(-31.93)"/><rect class="cls-3" x="157.63" y="126.66" width="4.59" height="0.78" transform="translate(-42.62 100.68) rotate(-31.05)"/><path class="cls-2" d="M94.49,134.83a8.19,8.19,0,0,0,.73-3.6V41c0-4.88-3-10.56-6.63-12.67L54.34,8.51A4.36,4.36,0,0,0,50.25,8h0a11.92,11.92,0,0,0-3.71,2.38l1.25,1.91h0a11.2,11.2,0,0,0-.07,1.19V103.8c0,4.89,3,10.56,6.63,12.68l34.25,19.77,1.18,2.32a7.28,7.28,0,0,0,4.59-3.48s0,0,0,0l.1-.2Z"/><path class="cls-2" d="M89.5,139.11l-1.28-2.51L54.1,116.9c-3.79-2.19-6.87-8.06-6.87-13.1V13.52a9.86,9.86,0,0,1,.05-1.06L45.9,10.35l.29-.28a12.33,12.33,0,0,1,3.89-2.49h0a4.9,4.9,0,0,1,4.48.52L88.83,27.86c3.79,2.19,6.88,8.06,6.88,13.09v90.28a8.47,8.47,0,0,1-.78,3.8l0,0-.1.21a7.8,7.8,0,0,1-5,3.77ZM48.33,11.71l-.06.67a9.4,9.4,0,0,0-.07,1.14V103.8c0,4.73,2.87,10.22,6.39,12.26L89,135.9,90,138a6.89,6.89,0,0,0,3.91-3.15l.11-.23a7.7,7.7,0,0,0,.68-3.39V41c0-4.72-2.86-10.22-6.39-12.25L54.1,8.93a3.89,3.89,0,0,0-3.65-.45l-.23.11,0,0a11.86,11.86,0,0,0-3,1.93L48,11.78Z"/><path class="cls-1" d="M85.68,138.09,51.44,118.32c-3.66-2.12-6.63-7.79-6.63-12.67V15.36c0-4.88,3-7.12,6.63-5L85.68,30.12c3.67,2.11,6.64,7.79,6.64,12.67v90.28C92.32,138,89.35,140.2,85.68,138.09Z"/><path class="cls-2" d="M88.32,139.37a5.83,5.83,0,0,1-2.88-.86L51.2,118.74c-3.79-2.19-6.88-8.06-6.88-13.09V15.36c0-2.74.93-4.85,2.54-5.78a4.73,4.73,0,0,1,4.83.35L85.93,29.7c3.79,2.19,6.87,8.06,6.87,13.09v90.28c0,2.75-.92,4.86-2.53,5.79A3.86,3.86,0,0,1,88.32,139.37ZM48.81,10a2.89,2.89,0,0,0-1.46.38C46,11.17,45.3,13,45.3,15.36v90.29c0,4.72,2.86,10.21,6.39,12.25l34.24,19.77a3.82,3.82,0,0,0,3.85.35c1.3-.75,2-2.56,2-5V42.79c0-4.72-2.87-10.22-6.39-12.25L51.2,10.77A4.9,4.9,0,0,0,48.81,10Z"/><path class="cls-3" d="M83.61,31.78,71.52,24.87a.24.24,0,0,0-.36.21v.77a1.63,1.63,0,0,1-2.46,1.4L68,26.82A4,4,0,0,1,66,23.39V22.1a.85.85,0,0,0-.43-.75l-14.9-8.57c-1.84-1.06-3.35-.19-3.35,1.94V106a13.67,13.67,0,0,0,6.16,10.67l32.9,19c1.84,1.06,3.35.19,3.35-1.94V42.45A13.64,13.64,0,0,0,83.61,31.78Z"/><path class="cls-2" d="M87.91,136.6a3.61,3.61,0,0,1-1.74-.52l-32.9-19A14.17,14.17,0,0,1,46.87,106V14.72a2.82,2.82,0,0,1,1.23-2.59,2.81,2.81,0,0,1,2.85.23l14.9,8.56a1.38,1.38,0,0,1,.68,1.18v1.29a3.52,3.52,0,0,0,1.71,3l.71.43a1.13,1.13,0,0,0,1.15,0,1.11,1.11,0,0,0,.57-1v-.77a.72.72,0,0,1,.37-.63.73.73,0,0,1,.73,0l12.09,6.91a14.2,14.2,0,0,1,6.4,11.09v91.27A2.82,2.82,0,0,1,89,136.31,2.28,2.28,0,0,1,87.91,136.6ZM49.22,12.81a1.31,1.31,0,0,0-.63.16,1.91,1.91,0,0,0-.75,1.75V106a13.1,13.1,0,0,0,5.92,10.25l32.9,19a1.58,1.58,0,0,0,2.62-1.52V42.45A13.09,13.09,0,0,0,83.37,32.2L71.64,25.5v.35a2.09,2.09,0,0,1-1.07,1.84,2.07,2.07,0,0,1-2.12,0l-.71-.43a4.49,4.49,0,0,1-2.18-3.84V22.1a.38.38,0,0,0-.2-.33L50.47,13.2A2.68,2.68,0,0,0,49.22,12.81Z"/><path class="cls-2" d="M69.41,25.32c0,.54-.38.76-.85.49a1.87,1.87,0,0,1-.84-1.46c0-.54.38-.76.84-.49A1.86,1.86,0,0,1,69.41,25.32Z"/><path class="cls-3" d="M51.38,10.33l-.54-.5a6.36,6.36,0,0,1,2.94-1.68l.16.71A5.6,5.6,0,0,0,51.38,10.33Z"/><rect class="cls-3" x="91.92" y="38.05" width="2.97" height="0.73" transform="translate(-7.34 45.58) rotate(-26.42)"/><rect class="cls-3" x="90.67" y="91.03" width="9.06" height="0.97" transform="translate(3.3 186.36) rotate(-89.77)"/><path class="cls-3" d="M92.72,134.85l-.34-.65A14.55,14.55,0,0,0,95,132.47l.5.53A15.22,15.22,0,0,1,92.72,134.85Z"/><path class="cls-3" d="M93.43,81.12a.69.69,0,0,1-.37-.1,1,1,0,0,1-.44-.91V74a2.08,2.08,0,0,1,.92-1.72l.11-.07a.86.86,0,0,1,.85,0,1,1,0,0,1,.43.92V79.2A2.12,2.12,0,0,1,94,80.92L93.9,81A.93.93,0,0,1,93.43,81.12Zm.69-8.33-.11,0-.11.07A1.42,1.42,0,0,0,93.35,74v6.12c0,.2.06.28.07.28a.16.16,0,0,0,.12,0l.11-.06a1.4,1.4,0,0,0,.56-1.09V73.08c0-.2-.06-.28-.08-.29Z"/><path class="cls-3" d="M93.43,71.3a.69.69,0,0,1-.37-.1,1,1,0,0,1-.44-.91V64.17a2.11,2.11,0,0,1,.92-1.72l.11-.07a.84.84,0,0,1,.85,0,1,1,0,0,1,.43.92v6.12A2.12,2.12,0,0,1,94,71.1l-.11.07A.93.93,0,0,1,93.43,71.3ZM94.12,63,94,63l-.11.07a1.42,1.42,0,0,0-.55,1.09v6.12c0,.2.06.28.07.28a.16.16,0,0,0,.12,0l.11-.06a1.4,1.4,0,0,0,.56-1.09V63.26a.39.39,0,0,0-.08-.29Z"/><path class="cls-3" d="M93.43,60.1a.69.69,0,0,1-.37-.1,1,1,0,0,1-.44-.91V55.65a2.1,2.1,0,0,1,.92-1.73l.11-.06a.84.84,0,0,1,.85,0,1,1,0,0,1,.43.91v3.44A2.14,2.14,0,0,1,94,59.9L93.9,60A.94.94,0,0,1,93.43,60.1Zm.69-5.65-.11,0-.11.06a1.44,1.44,0,0,0-.55,1.1v3.44c0,.19.05.27.07.28a.24.24,0,0,0,.12,0l.11-.06a1.4,1.4,0,0,0,.56-1.1V54.73c0-.19-.06-.27-.08-.28Z"/><path class="cls-3" d="M93.83,56.91l-.11.06c-.41.23-.74,0-.74-.56v-.76a1.74,1.74,0,0,1,.74-1.41l.11-.07c.41-.23.74,0,.74.56v.77A1.77,1.77,0,0,1,93.83,56.91Z"/><path class="cls-3" d="M93.43,57.42a.69.69,0,0,1-.37-.1,1,1,0,0,1-.44-.91v-.76a2.1,2.1,0,0,1,.92-1.73l.11-.06a.84.84,0,0,1,.85,0,1,1,0,0,1,.43.91v.76A2.09,2.09,0,0,1,94,57.22l-.11.07A.93.93,0,0,1,93.43,57.42Zm.69-3-.11,0-.11.06a1.44,1.44,0,0,0-.55,1.1v.76c0,.2.06.28.07.28a.16.16,0,0,0,.12,0l.11-.06a1.4,1.4,0,0,0,.56-1.1v-.76c0-.19-.06-.27-.08-.28Z"/><rect class="cls-3" x="89.8" y="33.1" width="3.07" height="0.73" transform="translate(-4.28 51.35) rotate(-30.72)"/><path class="cls-3" d="M86.5,49.19,50.63,28.48A.54.54,0,0,1,50.4,28V23.68c0-.17.1-.25.23-.18L86.5,44.21a.56.56,0,0,1,.23.45V49C86.73,49.18,86.63,49.26,86.5,49.19Z"/><path class="cls-1" d="M86.59,49.58a.6.6,0,0,1-.28-.08L50.45,28.8A.93.93,0,0,1,50,28V23.68a.55.55,0,0,1,.27-.5.49.49,0,0,1,.52,0l35.86,20.7a.94.94,0,0,1,.41.77V49a.57.57,0,0,1-.26.51A.5.5,0,0,1,86.59,49.58ZM50.76,24v4a.26.26,0,0,0,.06.14L86.37,48.69v-4a.26.26,0,0,0-.06-.14Z"/><path class="cls-3" d="M82.27,95.18l-30-16.66a5,5,0,0,1-2.19-4h0c0-1.55,1-2.26,2.19-1.59l30,16.65a5,5,0,0,1,2.19,4h0C84.46,95.13,83.48,95.85,82.27,95.18Z"/><path class="cls-2" d="M83.14,96.09a2.47,2.47,0,0,1-1.21-.34L52,79.1a5.64,5.64,0,0,1-2.53-4.6,2.47,2.47,0,0,1,1.1-2.28,2.16,2.16,0,0,1,2.12.11L82.62,89a5.64,5.64,0,0,1,2.53,4.6,2.47,2.47,0,0,1-1.1,2.28A1.79,1.79,0,0,1,83.14,96.09Zm-.52-1.49a.83.83,0,0,0,.74.11c.2-.11.41-.46.41-1.13a4.35,4.35,0,0,0-1.84-3.45L52,73.48a.83.83,0,0,0-.74-.11c-.2.11-.41.47-.41,1.13A4.35,4.35,0,0,0,52.64,78Z"/><path class="cls-1" d="M82.27,104.74l-30-16.65a5,5,0,0,1-2.19-4h0c0-1.55,1-2.26,2.19-1.59l30,16.65a5,5,0,0,1,2.19,4h0C84.46,104.7,83.48,105.41,82.27,104.74Z"/><path class="cls-2" d="M83.14,105.66a2.49,2.49,0,0,1-1.21-.35L52,88.66a5.64,5.64,0,0,1-2.53-4.6,2.45,2.45,0,0,1,1.1-2.27,2.11,2.11,0,0,1,2.12.11l30,16.65a5.64,5.64,0,0,1,2.53,4.6,2.47,2.47,0,0,1-1.1,2.28A1.89,1.89,0,0,1,83.14,105.66ZM51.43,82.88a.43.43,0,0,0-.22.06c-.2.11-.41.46-.41,1.12a4.32,4.32,0,0,0,1.84,3.45l30,16.65a.84.84,0,0,0,.74.12c.2-.11.41-.47.41-1.13a4.32,4.32,0,0,0-1.84-3.45L52,83.05A1.14,1.14,0,0,0,51.43,82.88Z"/><path class="cls-1" d="M82.27,114.3l-30-16.65a5,5,0,0,1-2.19-4h0c0-1.55,1-2.27,2.19-1.59l30,16.65a5,5,0,0,1,2.19,4h0C84.46,114.26,83.48,115,82.27,114.3Z"/><path class="cls-2" d="M83.14,115.22a2.47,2.47,0,0,1-1.21-.34L52,98.23a5.64,5.64,0,0,1-2.53-4.6,2.47,2.47,0,0,1,1.1-2.28,2.11,2.11,0,0,1,2.12.11l30,16.65a5.64,5.64,0,0,1,2.53,4.6,2.47,2.47,0,0,1-1.1,2.28A1.89,1.89,0,0,1,83.14,115.22Zm-.52-1.49a.83.83,0,0,0,.74.11c.2-.11.41-.46.41-1.13a4.35,4.35,0,0,0-1.84-3.45L52,92.61a.83.83,0,0,0-.74-.11c-.2.11-.41.46-.41,1.13a4.35,4.35,0,0,0,1.84,3.45Z"/><path class="cls-1" d="M82.27,123.87l-30-16.65a5,5,0,0,1-2.19-4h0c0-1.55,1-2.26,2.19-1.59l30,16.65a5,5,0,0,1,2.19,4h0C84.46,123.83,83.48,124.54,82.27,123.87Z"/><path class="cls-2" d="M83.14,124.79a2.49,2.49,0,0,1-1.21-.35L52,107.79a5.64,5.64,0,0,1-2.53-4.6,2.47,2.47,0,0,1,1.1-2.28,2.16,2.16,0,0,1,2.12.11l30,16.66a5.64,5.64,0,0,1,2.53,4.6,2.45,2.45,0,0,1-1.1,2.27A1.79,1.79,0,0,1,83.14,124.79Zm-.52-1.5c.17.1.51.25.74.11s.41-.46.41-1.12a4.32,4.32,0,0,0-1.84-3.45L52,102.17a.86.86,0,0,0-.74-.11c-.2.11-.41.47-.41,1.13a4.32,4.32,0,0,0,1.84,3.45Z"/><path class="cls-3" d="M82.27,85.55,52.3,68.9a5,5,0,0,1-2.19-4h0c0-1.55,1-2.27,2.19-1.59l30,16.65a5,5,0,0,1,2.19,4h0C84.46,85.51,83.48,86.23,82.27,85.55Z"/><path class="cls-2" d="M83.14,86.47a2.47,2.47,0,0,1-1.21-.34L52,69.48a5.64,5.64,0,0,1-2.53-4.6,2.47,2.47,0,0,1,1.1-2.28,2.13,2.13,0,0,1,2.12.11l30,16.65A5.64,5.64,0,0,1,85.15,84a2.47,2.47,0,0,1-1.1,2.28A1.79,1.79,0,0,1,83.14,86.47ZM82.62,85a.83.83,0,0,0,.74.11c.2-.11.41-.46.41-1.13a4.35,4.35,0,0,0-1.84-3.45L52,63.86a.83.83,0,0,0-.74-.11c-.2.11-.41.46-.41,1.13a4.35,4.35,0,0,0,1.84,3.45Z"/><path class="cls-1" d="M65.27,69.56,44,57.27a.78.78,0,0,0-.76-.06h0l-.09.06-5.47,3.24a0,0,0,0,0,0,.06l5.14,8.62s0,0,0,0V81A2.83,2.83,0,0,0,44,83.23l11,6.33,0,0,5.51,9.24a0,0,0,0,0,.07,0l5.54-3.28a1.11,1.11,0,0,0,.36-.93V71.82A2.81,2.81,0,0,0,65.27,69.56Z"/><path class="cls-2" d="M60.35,99.69,60,99.15,54.51,90,43.69,83.78A3.42,3.42,0,0,1,42.18,81V69.38l-5.38-9,.57-.39,5.56-3.3a1.37,1.37,0,0,1,1.39.07L65.59,69h0a3.41,3.41,0,0,1,1.5,2.81v22.8a1.69,1.69,0,0,1-.63,1.44ZM38.51,60.75,43.44,69V81a2.2,2.2,0,0,0,.87,1.72l11.12,6.42.1.19L60.74,98l5-3a1,1,0,0,0,.06-.38V71.82A2.23,2.23,0,0,0,65,70.1h0L43.69,57.82a.31.31,0,0,0-.15,0Z"/><path class="cls-2" d="M54,86.53s0,0,0,0l.15,2.51.86.49,0,0,5.48,9.19.15,0,5.49-3.25a1.11,1.11,0,0,0,.36-.93V71.92a.06.06,0,0,0-.09,0L61,75.09s0,0,0,0Z"/><path class="cls-2" d="M60.71,99.48l-.51-.13-.28-.26L54.51,90l-1-.59-.18-3.06.11-.18,7-11.54.14-.09,5.76-3.43.38.18a.7.7,0,0,1,.35.6v22.7a1.69,1.69,0,0,1-.63,1.44Zm-6-10.79.73.42.1.19L60.74,98l5-3a1,1,0,0,0,.06-.38V72.93l-4.44,2.63-6.8,11.15Z"/><path class="cls-1" d="M59.75,98.8,38.48,86.51a2.81,2.81,0,0,1-1.19-2.26V61.45c0-.87.53-1.28,1.19-.9L59.75,72.83a2.85,2.85,0,0,1,1.19,2.27V97.9C60.94,98.77,60.41,99.17,59.75,98.8Z"/><path class="cls-2" d="M60.23,99.57a1.59,1.59,0,0,1-.79-.23L38.16,87.06a3.44,3.44,0,0,1-1.5-2.81V61.45a1.67,1.67,0,0,1,.73-1.51A1.38,1.38,0,0,1,38.8,60L60.07,72.29a3.44,3.44,0,0,1,1.5,2.81V97.9a1.67,1.67,0,0,1-.73,1.51A1.32,1.32,0,0,1,60.23,99.57ZM38,61h0a.75.75,0,0,0-.08.41v22.8A2.2,2.2,0,0,0,38.8,86L60.07,98.25a.52.52,0,0,0,.16.06,1,1,0,0,0,.07-.41V75.1a2.22,2.22,0,0,0-.86-1.72L38.16,61.1A.43.43,0,0,0,38,61Z"/><rect class="cls-2" x="41.17" y="60.35" width="6.25" height="1.26" transform="matrix(0.85, -0.53, 0.53, 0.85, -25.54, 32.64)"/><rect class="cls-3" x="61.04" y="92.53" width="5.45" height="0.97" transform="translate(-38.82 46.17) rotate(-31.03)"/><path class="cls-1" d="M23.85,56.1,20,53.73a.55.55,0,0,0-.6,0h0l-3.91,2.33a.19.19,0,0,0-.07.27l3.69,6.47a.19.19,0,0,1,0,.1v6.94A2.16,2.16,0,0,0,20,71.54L16.5,69.65a.27.27,0,0,1,.07.08l3.68,6.45a.2.2,0,0,0,.27.07l3.94-2.33a.81.81,0,0,0,.28-.7V57.8A2.12,2.12,0,0,0,23.85,56.1Z"/><path class="cls-2" d="M20.43,76.78a.58.58,0,0,1-.19,0,.75.75,0,0,1-.43-.33L16.13,70a.34.34,0,0,0,.12.12l.49-.89,1.88,1a2.58,2.58,0,0,1,0-.39V63l-3.65-6.4a.71.71,0,0,1,.25-1l3.91-2.32a1,1,0,0,1,1.14,0l3.88,2.36a2.64,2.64,0,0,1,1.13,2.14V73.22a1.3,1.3,0,0,1-.49,1.12l-4,2.34A.64.64,0,0,1,20.43,76.78ZM17.86,71l2.68,4.69,3.66-2.16h0a1.87,1.87,0,0,0,0-.27V57.8a1.65,1.65,0,0,0-.64-1.26h0l-3.86-2.36a.17.17,0,0,0-.09,0h0L16,56.33l3.55,6.21a.74.74,0,0,1,.1.35v6.94a1.66,1.66,0,0,0,.63,1.27l-.49.88Z"/><path class="cls-2" d="M16.34,68.3s1.43-8.39,2.84-1.25l-2.7,2.6.1.09,3.64,6.38a.26.26,0,0,0,.36.1l3.88-2.3a.81.81,0,0,0,.28-.7V57.91a.06.06,0,0,0-.09-.06l-4.06,2.41h0Z"/><path class="cls-2" d="M20.45,76.76a.64.64,0,0,1-.2,0,.74.74,0,0,1-.47-.36l-3.61-6.32-.11-.12-.75,1.41.53-3.12c.52-3,1.22-4.54,2.1-4.55a1.15,1.15,0,0,1,.26,0l2-3.77.09-.07,4.36-2.59.32.14a.58.58,0,0,1,.28.5V73.22a1.3,1.3,0,0,1-.49,1.12l-3.92,2.31A.76.76,0,0,1,20.45,76.76Zm-3.31-7.05,3.4,5.94,3.66-2.16h0a1.87,1.87,0,0,0,0-.27V58.69L21,60.63l-2,3.83A10.36,10.36,0,0,1,19.68,67l.05.27Zm1.18-4.07-1.64,3.12,1.95-1.88C18.52,66.35,18.41,66,18.32,65.64Z"/><path class="cls-1" d="M19.69,76.36,15.83,74a2.14,2.14,0,0,1-.89-1.7V56.87c0-.65.4-.95.89-.67l3.86,2.36a2.14,2.14,0,0,1,.9,1.71V75.69C20.59,76.35,20.19,76.65,19.69,76.36Z"/><path class="cls-2" d="M20.05,77a1.19,1.19,0,0,1-.61-.18h0l-3.86-2.36a2.59,2.59,0,0,1-1.14-2.13V56.87A1.3,1.3,0,0,1,15,55.71a1.1,1.1,0,0,1,1.09,0L20,58.13a2.62,2.62,0,0,1,1.13,2.14V75.69a1.27,1.27,0,0,1-.56,1.16A1,1,0,0,1,20.05,77Zm-.1-1a.19.19,0,0,0,.1,0h0s0-.09,0-.27V60.27A1.65,1.65,0,0,0,19.44,59l-3.87-2.37-.09,0h0s0,.09,0,.27V72.3a1.65,1.65,0,0,0,.64,1.26Z"/><rect class="cls-2" x="18.36" y="56.04" width="4.7" height="1.01" transform="translate(-26.77 19.5) rotate(-31.92)"/><path class="cls-1" d="M105.47,112.33,101.61,110a.59.59,0,0,0-.61,0h0l0,0-3.91,2.33a.2.2,0,0,0-.08.27l3.7,6.47a.19.19,0,0,1,0,.1v6.94a2.12,2.12,0,0,0,.89,1.7l-3.49-1.88a.2.2,0,0,1,.08.08l3.68,6.45a.21.21,0,0,0,.27.07l3.94-2.33a.82.82,0,0,0,.28-.7V114A2.1,2.1,0,0,0,105.47,112.33Z"/><path class="cls-2" d="M102.05,133l-.18,0a.75.75,0,0,1-.43-.33l-3.68-6.45a.35.35,0,0,0,.1.11l.5-.88,1.89,1a1.72,1.72,0,0,1,0-.39V119.2l-3.66-6.4a.73.73,0,0,1,.25-1l4-2.35a1,1,0,0,1,1.1,0l3.87,2.36a2.63,2.63,0,0,1,1.14,2.14v15.42a1.3,1.3,0,0,1-.5,1.12l-4,2.34A.65.65,0,0,1,102.05,133Zm-2.56-5.82,2.67,4.69,3.67-2.16h0a1.87,1.87,0,0,0,0-.27V114a1.69,1.69,0,0,0-.64-1.27h0l-3.86-2.36s-.09,0-.09,0l-3.68,2.2,3.55,6.21a.7.7,0,0,1,.09.35v6.94a1.69,1.69,0,0,0,.64,1.27l-.49.88Z"/><path class="cls-2" d="M98,124.53s1.43-8.39,2.84-1.25l-2.7,2.6.1.09,3.64,6.38a.26.26,0,0,0,.36.1l3.88-2.3a.82.82,0,0,0,.28-.7V114.14a.07.07,0,0,0-.1-.06l-4,2.41h0Z"/><path class="cls-2" d="M102.08,133a.64.64,0,0,1-.2,0,.74.74,0,0,1-.47-.36l-3.73-6.44-.74,1.41.53-3.12c.52-3,1.22-4.54,2.1-4.55a.58.58,0,0,1,.26,0l2-3.81L102,116h0l4.28-2.55.31.14a.57.57,0,0,1,.29.5v15.31a1.3,1.3,0,0,1-.5,1.12l-3.91,2.31A.76.76,0,0,1,102.08,133Zm-3.31-7.05,3.39,5.94,3.67-2.16a.86.86,0,0,0,0-.27V114.92l-3.27,1.94-2,3.83a9.85,9.85,0,0,1,.73,2.49l.06.27Zm1.18-4.07L98.31,125l2-1.88C100.15,122.58,100,122.18,100,121.87Z"/><path class="cls-1" d="M101.32,132.59l-3.86-2.36a2.14,2.14,0,0,1-.89-1.7V113.1c0-.65.4-.95.89-.67l3.86,2.36a2.15,2.15,0,0,1,.89,1.7v15.43C102.21,132.58,101.81,132.88,101.32,132.59Z"/><path class="cls-2" d="M101.68,133.21a1.19,1.19,0,0,1-.61-.18h0l-3.87-2.36a2.61,2.61,0,0,1-1.13-2.13V113.1a1.3,1.3,0,0,1,.56-1.16,1.1,1.1,0,0,1,1.09,0l3.88,2.37a2.61,2.61,0,0,1,1.13,2.13v15.43a1.3,1.3,0,0,1-.56,1.16A1,1,0,0,1,101.68,133.21Zm-.1-1.05a.19.19,0,0,0,.1,0h0s0-.09,0-.27V116.49a1.65,1.65,0,0,0-.64-1.26l-3.88-2.37-.09,0h0s0,.09,0,.27v15.43a1.65,1.65,0,0,0,.64,1.26Z"/><rect class="cls-2" x="99.99" y="112.27" width="4.7" height="1.01" transform="translate(-44.16 71.17) rotate(-31.92)"/><rect class="cls-3" x="102.29" y="125.99" width="4.1" height="0.78" transform="translate(-50.21 71.85) rotate(-31.02)"/><path class="cls-2" d="M58,148.42a6.17,6.17,0,0,0,3-.78l-.36-.64a5.47,5.47,0,0,1-5.41-.05L39.5,137.77l-.36.63,15.74,9.18A6.19,6.19,0,0,0,58,148.42Z"/><path class="cls-2" d="M62.16,147a2.75,2.75,0,0,0,.57-3.57l-.61.39a2,2,0,0,1-.43,2.63Z"/><path class="cls-2" d="M39.31,121.79h0v-3.14l-.78.15A12.07,12.07,0,0,0,33.61,114c-3.92-2.26-8.63-6.09-13.77-6-4.83.07-10.09,3.9-13.77,6a12.12,12.12,0,0,0-4.93,4.8l-.77-.16V122h0c0,2.88,1.9,5.75,5.71,7.95,7.6,4.39,19.94,4.39,27.54,0C37.49,127.68,39.39,124.73,39.31,121.79Zm-9.25,6.08c-2.82,1.63-6.75-.47-10.45-.47s-7.17,2.1-10,.47c-5.65-3.26-5.65-8.55,0-11.8s14.8-3.26,20.44,0S35.71,124.61,30.06,127.87Z"/><path class="cls-2" d="M5.89,130.23C2.09,128,0,125.11,0,122v-3.75l.94.19a12.78,12.78,0,0,1,4.94-4.7l2-1.23c3.49-2.13,7.82-4.78,11.91-4.84H20c4.15,0,8,2.41,11.34,4.55.86.55,1.68,1.06,2.47,1.52a12.78,12.78,0,0,1,4.94,4.7l.94-.18v3.65c0,3.18-2,6.14-5.88,8.36a28.52,28.52,0,0,1-13.95,3.33A28.52,28.52,0,0,1,5.89,130.23ZM39,119.09l-.62.12-.12-.24a11.82,11.82,0,0,0-4.78-4.64c-.8-.47-1.63-1-2.5-1.54-3.29-2.08-7-4.44-10.95-4.44h-.13c-3.89.06-8.13,2.65-11.54,4.74-.73.44-1.42.87-2.06,1.24A11.82,11.82,0,0,0,1.47,119l-.13.25-.61-.13V122c0,2.87,2,5.58,5.53,7.63,7.49,4.33,19.69,4.33,27.18,0h0c3.64-2.09,5.6-4.87,5.52-7.8v-.29h0Zm-15.28,9.23a20.34,20.34,0,0,0-4.06-.56,18.82,18.82,0,0,0-4,.57c-2.22.48-4.33.94-6.21-.15C6.59,126.54,5,124.33,5,122s1.57-4.57,4.42-6.22c5.73-3.31,15.07-3.31,20.8,0,2.85,1.65,4.42,3.85,4.42,6.22s-1.57,4.57-4.42,6.21a5.34,5.34,0,0,1-2.77.67A19.59,19.59,0,0,1,23.67,128.32Zm.14-.71c2.27.46,4.41.9,6.07-.06,2.61-1.51,4.05-3.49,4.05-5.58s-1.44-4.08-4.05-5.59c-5.54-3.2-14.54-3.2-20.08,0-2.61,1.51-4.05,3.49-4.05,5.59S7.19,126,9.8,127.55c1.64,1,3.52.54,5.7.07a19.13,19.13,0,0,1,4.11-.58A21.23,21.23,0,0,1,23.81,127.61Z"/><path class="cls-3" d="M33.61,110.51c-7.6-4.39-19.94-4.39-27.54,0s-7.61,11.51,0,15.9,19.94,4.39,27.54,0S41.22,114.9,33.61,110.51Zm-3.55,13.85c-5.64,3.26-14.8,3.26-20.44,0s-5.65-8.54,0-11.8,14.8-3.26,20.44,0S35.71,121.1,30.06,124.36Z"/><path class="cls-2" d="M5.89,126.73C2.09,124.54,0,121.6,0,118.46s2.09-6.07,5.89-8.26c7.69-4.45,20.21-4.45,27.9,0,3.8,2.19,5.89,5.12,5.89,8.26s-2.09,6.08-5.89,8.27h0a28.52,28.52,0,0,1-13.95,3.33A28.52,28.52,0,0,1,5.89,126.73Zm.36-15.91c-3.56,2.06-5.53,4.77-5.53,7.64s2,5.58,5.53,7.64c7.49,4.33,19.69,4.33,27.18,0h0C37,124,39,121.33,39,118.46s-2-5.58-5.53-7.64a27.84,27.84,0,0,0-13.59-3.24A27.84,27.84,0,0,0,6.25,110.82Zm3.19,13.86C6.59,123,5,120.83,5,118.46s1.57-4.57,4.42-6.21c5.73-3.32,15.07-3.31,20.8,0h0c2.85,1.64,4.42,3.85,4.42,6.21s-1.57,4.57-4.42,6.22a21.32,21.32,0,0,1-10.4,2.48A21.32,21.32,0,0,1,9.44,124.68Zm20.44-11.81c-5.53-3.19-14.54-3.19-20.08,0-2.61,1.51-4.05,3.5-4.05,5.59s1.44,4.08,4.05,5.59c5.54,3.2,14.54,3.2,20.08,0,2.61-1.51,4.05-3.49,4.05-5.59s-1.44-4.08-4.05-5.59Z"/><rect class="cls-3" x="27.5" y="128.76" width="0.56" height="3.45"/><rect class="cls-3" x="3.59" y="125.04" width="0.56" height="3.45"/><rect class="cls-3" x="8.33" y="127.63" width="0.56" height="3.45"/><rect class="cls-3" x="27.5" y="111.5" width="0.56" height="3.45"/><rect class="cls-3" x="12.29" y="111.2" width="0.56" height="3.45"/><path class="cls-1" d="M23.06,114.14a13.83,13.83,0,0,0-12.53,0c-3.46,2-3.46,5.24,0,7.23a13.83,13.83,0,0,0,12.53,0C26.52,119.38,26.52,116.14,23.06,114.14Z"/><path class="cls-1" d="M60.24,140.89a.23.23,0,0,0-.09-.31L34.61,126a.43.43,0,0,0-.24,0l-2.23,1.29a.92.92,0,0,0-.38.73v2.43a.41.41,0,0,0,.09.27L57.4,145.31a.23.23,0,0,0,.31-.08Z"/><path class="cls-2" d="M57.22,145.62,31.67,131l-.08-.06a.72.72,0,0,1-.19-.52V128a1.26,1.26,0,0,1,.56-1l2.23-1.29a.77.77,0,0,1,.49-.06h.06l25.59,14.65a.57.57,0,0,1,.28.35.58.58,0,0,1-.06.45L58,145.41a.59.59,0,0,1-.51.29A.51.51,0,0,1,57.22,145.62Zm-22.71-19.3-2.19,1.26a.58.58,0,0,0-.2.42v2.43l25.35,14.5,2.39-4.1Z"/><path class="cls-3" d="M60.12,144.16l-2.23,1.29c-.21.12-.38,0-.38-.29v-2.43a.92.92,0,0,1,.38-.73l2.23-1.29c.21-.12.38,0,.38.29v2.44A.9.9,0,0,1,60.12,144.16Z"/><path class="cls-2" d="M57.46,145.78a.67.67,0,0,1-.31-.62v-2.43a1.26,1.26,0,0,1,.56-1l2.22-1.29a.58.58,0,0,1,.61,0,.69.69,0,0,1,.32.62v2.44a1.28,1.28,0,0,1-.56,1l-2.23,1.28a.6.6,0,0,1-.33.1A.54.54,0,0,1,57.46,145.78Zm2.47-1.93a.57.57,0,0,0,.2-.41v-2.31l-2.06,1.18a.58.58,0,0,0-.2.42V145l2.06-1.19Z"/><polygon class="cls-2" points="31.76 128.78 31.76 130.43 57.51 145.16 57.51 143.54 31.76 128.78"/><rect class="cls-2" x="40.38" y="124.56" width="0.56" height="15.3" transform="translate(-94.29 101.84) rotate(-60.22)"/><rect class="cls-2" x="51.75" y="136.25" width="0.56" height="5.07" transform="translate(-94.28 115.02) rotate(-60.23)"/><path class="cls-1" d="M20.13,125c7.12,0,10.56-3.85,10.6-3.89l-.42-.37s-4.37,4.87-13.47,3.43l-.09.55A21.77,21.77,0,0,0,20.13,125Z"/><path class="cls-1" d="M25.76,122.78a7.54,7.54,0,0,0,4.55-4.24l-.53-.16a7.17,7.17,0,0,1-4.23,3.89Z"/><path class="cls-3" d="M7.42,120.5a7.61,7.61,0,0,1,2.81-2.86l-.29-.48a8.26,8.26,0,0,0-3,3.07Z"/><rect class="cls-3" x="31.48" y="129.71" width="0.56" height="1.04"/><path class="cls-2" d="M17.47,118.65c-.53.43-.09,1,0,1.14s0,0,0,0a3.6,3.6,0,0,0-2,0s0,0,0,0c.53-.43.08-1,0-1.15s0,0,0,0a3.58,3.58,0,0,0,2,0S17.48,118.64,17.47,118.65Z"/><path class="cls-2" d="M14.6,117c-.53.43-.09,1,0,1.15a0,0,0,0,1,0,0,3.66,3.66,0,0,0-2,0s0,0,0,0c.53-.43.08-1,0-1.15h0a3.57,3.57,0,0,0,2,0Z"/><path class="cls-2" d="M20.35,117c-.53.43-.09,1,0,1.15s0,0,0,0a3.64,3.64,0,0,0-2,0s0,0,0,0c.53-.43.08-1,0-1.15a0,0,0,0,1,0,0,3.61,3.61,0,0,0,2,0S20.36,117,20.35,117Z"/><path class="cls-2" d="M17.48,115.33c-.53.43-.09,1,0,1.14s0,0,0,0a3.68,3.68,0,0,0-2,0s0,0,0,0c.53-.43.08-1,0-1.14s0,0,0,0a3.71,3.71,0,0,0,2,0S17.49,115.32,17.48,115.33Z"/><path class="cls-2" d="M123.55,138.08l3.94-2.74a.08.08,0,0,0,0-.11l-5-6.55c0-.05-.11,0-.13,0l-.79,4h0l-.19,2.73a0,0,0,0,0,0,.05l2,2.57A.07.07,0,0,0,123.55,138.08Z"/><path class="cls-2" d="M123.51,138.55a.49.49,0,0,1-.37-.18L121,135.65v-.25l.19-2.73.86-4.33.31-.13a.47.47,0,0,1,.5.18l5.12,6.7v.26a.51.51,0,0,1-.22.37l-3.94,2.74A.44.44,0,0,1,123.51,138.55Zm-1.68-3.24,1.75,2.2,3.34-2.33-4.28-5.59-.64,3.2Z"/><path class="cls-1" d="M138.45,118.31l-18.77-11.7a1.3,1.3,0,0,0-1.23-.18h0l-3.67,2.37a.12.12,0,0,0,0,.17l4.39,5a.09.09,0,0,1,0,.07v8.27a4.72,4.72,0,0,0,1.92,3.6l2.8,1.74.2.3a11.32,11.32,0,0,0,4.35,7.06c.14.1.23-.05.14-.23a8.68,8.68,0,0,1-1-4.53l.3-.14,5.8,3.61a.09.09,0,0,1,0,.06l2.42,7a.11.11,0,0,0,.15.06l3.63-2.36h0a1.51,1.51,0,0,0,.5-1.27V121.9A4.69,4.69,0,0,0,138.45,118.31Z"/><path class="cls-2" d="M136.19,141.28a.39.39,0,0,1-.18,0l-.18-.07-.13-.26-2.38-6.85-5.4-3.36a8.89,8.89,0,0,0,1,3.88.67.67,0,0,1-.1.79.49.49,0,0,1-.66,0,11.67,11.67,0,0,1-4.51-7.26l-.09-.13-2.72-1.7a5.1,5.1,0,0,1-2.14-4v-8.13l-4.3-4.9a.58.58,0,0,1-.13-.48.54.54,0,0,1,.26-.41l3.66-2.37a1.68,1.68,0,0,1,1.66.19l18.78,11.69a5.14,5.14,0,0,1,2.13,4v15.28a2,2,0,0,1-.68,1.65l-3.65,2.37A.57.57,0,0,1,136.19,141.28Zm-8.32-11.67,6.12,3.81.1.22,2.27,6.55,3.3-2.14a1.09,1.09,0,0,0,.29-.87V121.9a4.21,4.21,0,0,0-1.71-3.19L119.46,107a.92.92,0,0,0-.84-.16L115.34,109l4.23,4.82,0,.26v8.27a4.22,4.22,0,0,0,1.71,3.2l2.93,1.87.27.49a11,11,0,0,0,3.17,5.91,7.3,7.3,0,0,1-.56-3.61l0-.24Z"/><path class="cls-1" d="M134.77,120.76,115.94,109c-1-.65-1.87-.13-1.87,1.16v15.34a4.52,4.52,0,0,0,1.87,3.5l2.9,1.8a.37.37,0,0,1,.14.24,11.31,11.31,0,0,0,4.36,7.09c.13.1.22,0,.13-.22-.46-1-1.36-3.09-1-4.69a.1.1,0,0,1,.16-.06l12.15,7.57c1,.64,1.87.12,1.87-1.17V124.26A4.58,4.58,0,0,0,134.77,120.76Z"/><path class="cls-2" d="M135.6,141.51a2,2,0,0,1-1-.35l-11.74-7.31a9.11,9.11,0,0,0,1,3.88.7.7,0,0,1-.09.8.5.5,0,0,1-.66,0,11.8,11.8,0,0,1-4.53-7.34l-2.84-1.77a5,5,0,0,1-2.09-3.9V110.2a1.89,1.89,0,0,1,.76-1.7,1.6,1.6,0,0,1,1.75.14L135,120.37a5,5,0,0,1,2.09,3.89V139.6a1.92,1.92,0,0,1-.76,1.71A1.36,1.36,0,0,1,135.6,141.51Zm-13-8.79a.6.6,0,0,1,.28.08L135,140.37a.9.9,0,0,0,.9.14,1,1,0,0,0,.33-.91V124.26a4.09,4.09,0,0,0-1.66-3.1l-18.82-11.73a.9.9,0,0,0-.9-.14,1,1,0,0,0-.34.91v15.34a4.09,4.09,0,0,0,1.66,3.1l2.9,1.81a.81.81,0,0,1,.35.56,11,11,0,0,0,3.17,5.94,7.09,7.09,0,0,1-.52-3.8l0-.23.25-.16A.45.45,0,0,1,122.55,132.72Z"/><polygon class="cls-2" points="135.84 121.39 135.4 120.6 138.68 118.45 139.12 119.23 135.84 121.39"/><polygon class="cls-2" points="118.28 110.52 117.84 109.73 121.12 107.58 121.56 108.36 118.28 110.52"/><polygon class="cls-2" points="136.87 125.55 136.41 124.77 140.03 122.3 140.48 123.08 136.87 125.55"/><polygon class="cls-2" points="140.38 124.81 136.64 127.25 136.64 140.55 140.26 138.41 140.38 137.46 140.38 124.81"/><polygon class="cls-2" points="120.33 102.64 119.48 102.56 119.82 98.13 120.67 98.21 120.33 102.64"/><polygon class="cls-2" points="116.78 103.16 114.88 98.48 115.66 98.11 117.56 102.8 116.78 103.16"/><polygon class="cls-2" points="114.56 104.94 111.13 102.84 111.54 102.04 114.98 104.14 114.56 104.94"/><path class="cls-3" d="M126.69,132.35a1.63,1.63,0,0,1-.82-.29,3,3,0,0,1-1.05-1.08,2.82,2.82,0,0,1-.39-1.45c0-.58.15-.95.45-1.12s.69-.08,1.2.24a2.93,2.93,0,0,1,1,1.08,3,3,0,0,1,.37,1.44c0,.58-.16,1-.48,1.1A.73.73,0,0,1,126.69,132.35Zm-1.47-3.56a.21.21,0,0,0-.14,0c-.19.09-.22.43-.22.7a2.33,2.33,0,0,0,.32,1.21,2.64,2.64,0,0,0,.9.92c.34.21.6.28.76.2s.23-.31.23-.69a2.36,2.36,0,0,0-.31-1.2,2.55,2.55,0,0,0-.89-.93A1.45,1.45,0,0,0,125.22,128.79Zm1.85-.24-2.37-1.48v-.81A2.35,2.35,0,0,1,125,125a1.5,1.5,0,0,1,1-.57,1.31,1.31,0,0,0,.64-.22s.14-.11.14-.41a1,1,0,0,0-.19-.54,2,2,0,0,0-.57-.52,3.77,3.77,0,0,0-2.11-.52h-.16l-1-3.13.27,0a5.49,5.49,0,0,1,3.41,1,7,7,0,0,1,2.28,2.22,5.09,5.09,0,0,1,.84,2.73,2.61,2.61,0,0,1-.4,1.58,1.93,1.93,0,0,1-1.27.69,1.69,1.69,0,0,0-.74.22.41.41,0,0,0-.08.3Zm-1.94-1.74,1.51.94h0a.8.8,0,0,1,.25-.66,1.88,1.88,0,0,1,.93-.32,1.51,1.51,0,0,0,1-.52,2.23,2.23,0,0,0,.31-1.29,4.61,4.61,0,0,0-.77-2.47,6.66,6.66,0,0,0-2.14-2.08,5.28,5.28,0,0,0-2.88-.91l.73,2.24a3.8,3.8,0,0,1,2.19.58,2.32,2.32,0,0,1,.68.64,1.41,1.41,0,0,1,.29.82,1,1,0,0,1-.31.78,1.7,1.7,0,0,1-.83.31,1.1,1.1,0,0,0-.76.38,1.88,1.88,0,0,0-.21,1Z"/><path class="cls-2" d="M123.83,125.87v-.68a2.07,2.07,0,0,1,.25-1.15,1.23,1.23,0,0,1,.9-.47,1.69,1.69,0,0,0,.74-.27.72.72,0,0,0,.22-.6,1.17,1.17,0,0,0-.24-.67,2.19,2.19,0,0,0-.62-.59,3.93,3.93,0,0,0-2.24-.54l-.87-2.69a5.32,5.32,0,0,1,3.28.93,6.7,6.7,0,0,1,2.21,2.15,4.76,4.76,0,0,1,.81,2.6,2.37,2.37,0,0,1-.36,1.43,1.71,1.71,0,0,1-1.14.6,2.14,2.14,0,0,0-.83.27.62.62,0,0,0-.17.48v.4Zm-.27,2.58c0-.48.11-.78.34-.91s.55,0,1,.23a2.73,2.73,0,0,1,1,1,2.66,2.66,0,0,1,.34,1.33c0,.47-.12.77-.35.89s-.55,0-1-.2a2.93,2.93,0,0,1-1-1A2.71,2.71,0,0,1,123.56,128.45Z"/><path class="cls-2" d="M38.27,40l3.93-2.74a.08.08,0,0,0,0-.11l-5-6.55a.07.07,0,0,0-.12,0l-.8,4h0l-.19,2.73s0,0,0,.05l2,2.57A.07.07,0,0,0,38.27,40Z"/><path class="cls-2" d="M38.23,40.44a.47.47,0,0,1-.38-.19l-2.16-2.71v-.25l.19-2.73.86-4.33.31-.13a.47.47,0,0,1,.5.18L42.67,37l0,.26a.53.53,0,0,1-.22.37L38.5,40.35A.46.46,0,0,1,38.23,40.44ZM36.55,37.2l1.75,2.2,3.33-2.32-4.27-5.6-.64,3.2Z"/><path class="cls-1" d="M53.17,20.2,34.39,8.5a1.3,1.3,0,0,0-1.23-.18h0l-3.67,2.37a.12.12,0,0,0,0,.17l4.39,5a.14.14,0,0,1,0,.07v8.27a4.7,4.7,0,0,0,1.93,3.6l2.8,1.74.19.3a11.35,11.35,0,0,0,4.36,7.06c.13.1.22,0,.13-.23a8.68,8.68,0,0,1-1-4.53l.31-.14,5.79,3.61a.1.1,0,0,1,0,.06l2.42,7a.1.1,0,0,0,.14.06l3.63-2.36h0a1.51,1.51,0,0,0,.5-1.27V23.79A4.68,4.68,0,0,0,53.17,20.2Z"/><path class="cls-2" d="M51,43.2l-.28-.06a.53.53,0,0,1-.31-.34L48,36l-5.41-3.36a9.17,9.17,0,0,0,1,3.88.69.69,0,0,1-.09.79.51.51,0,0,1-.66,0A11.72,11.72,0,0,1,38.4,30l-.09-.13L35.6,28.2a5.1,5.1,0,0,1-2.14-4V16.08l-4.3-4.9A.63.63,0,0,1,29,10.7a.57.57,0,0,1,.26-.41L33,7.92a1.66,1.66,0,0,1,1.65.19L53.38,19.8a5.12,5.12,0,0,1,2.14,4V39.07a2,2,0,0,1-.69,1.65ZM42.59,31.5l6.11,3.8.1.22,2.28,6.56,3.29-2.14a1.05,1.05,0,0,0,.3-.87V23.79A4.24,4.24,0,0,0,53,20.6L34.18,8.9a.94.94,0,0,0-.85-.16l-3.27,2.12,4.22,4.82,0,.26v8.27A4.22,4.22,0,0,0,36,27.41L39,29.28l.27.49a11.05,11.05,0,0,0,3.17,5.92,7.59,7.59,0,0,1-.56-3.62l0-.24Z"/><path class="cls-1" d="M49.48,22.65,30.65,10.93c-1-.65-1.87-.13-1.87,1.16V27.43a4.55,4.55,0,0,0,1.87,3.5l2.9,1.8a.43.43,0,0,1,.15.24,11.23,11.23,0,0,0,4.35,7.09c.14.1.23,0,.14-.22-.47-1-1.36-3.09-1-4.69,0-.08.08-.1.15-.06l12.15,7.57c1,.64,1.88.12,1.88-1.17V26.15A4.56,4.56,0,0,0,49.48,22.65Z"/><path class="cls-2" d="M50.32,43.39a2,2,0,0,1-1-.33L37.53,35.74a8.93,8.93,0,0,0,1,3.88.68.68,0,0,1-.1.8.5.5,0,0,1-.66,0,11.9,11.9,0,0,1-4.53-7.34l-2.84-1.77a5,5,0,0,1-2.09-3.9V12.09a1.87,1.87,0,0,1,.77-1.7,1.6,1.6,0,0,1,1.75.14L49.7,22.26a5,5,0,0,1,2.08,3.89V41.49A1.91,1.91,0,0,1,51,43.2,1.32,1.32,0,0,1,50.32,43.39ZM37.26,34.61a.6.6,0,0,1,.29.08L49.7,42.26a.88.88,0,0,0,.89.14,1,1,0,0,0,.34-.91V26.15a4.09,4.09,0,0,0-1.66-3.1L30.44,11.32a.9.9,0,0,0-.9-.14,1.07,1.07,0,0,0-.33.91V27.43a4.09,4.09,0,0,0,1.66,3.1l2.89,1.81a.82.82,0,0,1,.36.56,10.89,10.89,0,0,0,3.17,5.94,7.2,7.2,0,0,1-.53-3.8l.05-.22.25-.17A.45.45,0,0,1,37.26,34.61Z"/><polygon class="cls-2" points="50.55 23.27 50.11 22.49 53.39 20.34 53.84 21.12 50.55 23.27"/><polygon class="cls-2" points="32.99 12.41 32.55 11.62 35.83 9.47 36.27 10.26 32.99 12.41"/><polygon class="cls-2" points="51.58 27.43 51.13 26.66 54.74 24.19 55.2 24.97 51.58 27.43"/><polygon class="cls-2" points="55.09 26.7 51.35 29.14 51.35 42.44 54.97 40.3 55.09 39.35 55.09 26.7"/><polygon class="cls-2" points="35.05 4.53 34.2 4.45 34.54 0.02 35.39 0.1 35.05 4.53"/><polygon class="cls-2" points="31.5 5.05 29.59 0.37 30.37 0 32.28 4.69 31.5 5.05"/><polygon class="cls-2" points="29.28 6.83 25.84 4.73 26.26 3.93 29.7 6.03 29.28 6.83"/><path class="cls-3" d="M42.12,34.74l-2.38-1.49V32A9.41,9.41,0,0,1,38,29.69l-.89.09L36,26.68l.92-.09a6.83,6.83,0,0,1-.1-1.13A4.53,4.53,0,0,1,37,24.31l-.91-1.22,1.26-1.93,1,1.28a2.18,2.18,0,0,1,1.46-.17V20.88l2.38,1.48v1.27a9.61,9.61,0,0,1,1.72,2.29l.89-.08,1.11,3.1-.92.09a6.74,6.74,0,0,1,.1,1.13,4.53,4.53,0,0,1-.14,1.15l.91,1.21-1.25,1.93-1-1.28a2.24,2.24,0,0,1-1.46.18Zm-1.74-1.89,1.1.69V32.45l.42.13a1.74,1.74,0,0,0,1.59-.14l.24-.16.77,1,.49-.76-.81-1.09,0-.18a4.31,4.31,0,0,0,.15-1.12,6.87,6.87,0,0,0-.16-1.37l-.08-.38.8-.08-.63-1.76-.82.08-.1-.2a8.9,8.9,0,0,0-1.79-2.4l-.12-.1V22.76l-1.1-.69v1.1L40,23a1.77,1.77,0,0,0-1.59.14l-.24.17-.77-1-.49.75.81,1.1,0,.17a4.06,4.06,0,0,0-.16,1.13,6.78,6.78,0,0,0,.16,1.36l.08.39-.8.07L37.55,29l.82-.08.11.2a8.67,8.67,0,0,0,1.78,2.4l.12.1Zm1.25-2.52a1.16,1.16,0,0,1-.4-.07h0a3.83,3.83,0,0,1-2.12-4,1.32,1.32,0,0,1,.56-.86,1.14,1.14,0,0,1,1-.09,3.83,3.83,0,0,1,2.12,4,1.29,1.29,0,0,1-.55.86A1,1,0,0,1,41.63,30.33Zm-.22-.73a.54.54,0,0,0,.47,0,.61.61,0,0,0,.25-.42A3.19,3.19,0,0,0,40.45,26,.52.52,0,0,0,40,26a.6.6,0,0,0-.26.42A3.19,3.19,0,0,0,41.41,29.6Z"/><path class="cls-2" d="M43.48,28.64a6.52,6.52,0,0,0-.18-1.44l.86-.09-.87-2.43-.85.09a9.32,9.32,0,0,0-1.86-2.5V21L38.83,20v1.23a2,2,0,0,0-1.86.18l-.85-1.15-.88,1.35.86,1.15a4.51,4.51,0,0,0-.17,1.23,7.33,7.33,0,0,0,.17,1.44l-.86.08.88,2.43.85-.08a8.91,8.91,0,0,0,1.86,2.49v1.23l1.75,1.09V31.39a2,2,0,0,0,1.86-.18l.85,1.15L44.16,31l-.86-1.16A4.12,4.12,0,0,0,43.48,28.64Zm-3.39-.23a3.51,3.51,0,0,1-1.9-3.55.84.84,0,0,1,1.13-.7,3.53,3.53,0,0,1,1.9,3.55A.83.83,0,0,1,40.09,28.41Z"/><path class="cls-3" d="M50,87.53a1.79,1.79,0,0,1-.9-.32A3.41,3.41,0,0,1,48,86a3.22,3.22,0,0,1-.43-1.62c0-.63.17-1.05.51-1.23s.76-.09,1.32.26a3.24,3.24,0,0,1,1.57,2.8c0,.63-.18,1-.53,1.21A.78.78,0,0,1,50,87.53ZM48.4,83.59a.25.25,0,0,0-.16,0c-.2.11-.25.48-.25.77a2.62,2.62,0,0,0,.36,1.35,3,3,0,0,0,1,1c.37.23.66.3.85.21s.25-.34.25-.75a2.81,2.81,0,0,0-.34-1.34,2.84,2.84,0,0,0-1-1A1.62,1.62,0,0,0,48.4,83.59Zm2-.27-2.62-1.63v-.9a2.53,2.53,0,0,1,.33-1.42,1.63,1.63,0,0,1,1.15-.63,1.44,1.44,0,0,0,.7-.24s.16-.13.16-.46a1,1,0,0,0-.22-.6,2.27,2.27,0,0,0-.62-.57A4.1,4.1,0,0,0,47,76.29H46.8l-1.13-3.46.31,0a6.16,6.16,0,0,1,3.77,1.06,7.84,7.84,0,0,1,2.53,2.46,5.68,5.68,0,0,1,.93,3,2.91,2.91,0,0,1-.45,1.74,2.15,2.15,0,0,1-1.41.77,1.93,1.93,0,0,0-.81.24.41.41,0,0,0-.1.33Zm-2.15-1.93,1.68,1h0a.92.92,0,0,1,.27-.73,2.23,2.23,0,0,1,1-.35,1.64,1.64,0,0,0,1.12-.58,2.36,2.36,0,0,0,.34-1.42,5.09,5.09,0,0,0-.84-2.73,7.38,7.38,0,0,0-2.37-2.31,6,6,0,0,0-3.2-1l.81,2.48a4.15,4.15,0,0,1,2.42.65,2.51,2.51,0,0,1,.77.71,1.53,1.53,0,0,1,.31.9,1,1,0,0,1-.34.86,1.88,1.88,0,0,1-.92.35,1.16,1.16,0,0,0-.84.42,2,2,0,0,0-.24,1.12Z"/><path class="cls-2" d="M46.86,80.35V79.6a2.28,2.28,0,0,1,.28-1.27,1.42,1.42,0,0,1,1-.53,1.72,1.72,0,0,0,.82-.29.82.82,0,0,0,.25-.66,1.28,1.28,0,0,0-.27-.75,2.35,2.35,0,0,0-.69-.64,4.31,4.31,0,0,0-2.47-.61l-1-3a5.87,5.87,0,0,1,3.64,1,7.55,7.55,0,0,1,2.45,2.38,5.37,5.37,0,0,1,.89,2.88,2.55,2.55,0,0,1-.4,1.58,1.89,1.89,0,0,1-1.26.68,2.3,2.3,0,0,0-.92.29.68.68,0,0,0-.18.53v.45Zm-.3,2.86c0-.53.12-.87.37-1s.62,0,1.1.25a3,3,0,0,1,1.08,1.11A3,3,0,0,1,49.48,85q0,.8-.39,1c-.26.13-.61.06-1.06-.22A3.18,3.18,0,0,1,47,84.69,2.9,2.9,0,0,1,46.56,83.21Z"/><path class="cls-2" d="M137.25,85.37a17.59,17.59,0,0,0-2.62-1.88h0V96.43h0l2.61-11.06Z"/><path class="cls-2" d="M134.94,96.88l-.7-.11V83.27l.37-.23.2.1a17.61,17.61,0,0,1,2.69,1.93l.14.12v.24ZM135,84.19V93.1l1.79-7.58A15.63,15.63,0,0,0,135,84.19Z"/><path class="cls-3" d="M134.64,96.45l7.93-4.34h0a24.3,24.3,0,0,0-5.32-6.73h0l-2.62,11.07Z"/><path class="cls-2" d="M134.64,96.92l-.44-.29.05-.27,2.61-11V85.1l.48-.2.19.19a24.8,24.8,0,0,1,5.39,6.82l.07.14-.08.33-.16.08Zm2.84-10.82-2.27,9.58L142,92A24,24,0,0,0,137.48,86.1Z"/><path class="cls-1" d="M134.64,96.46l10.75,6h0a21.48,21.48,0,0,0-2.81-10.32h0l-7.93,4.34Z"/><path class="cls-2" d="M145.38,102.88l-.19-.1-11-6.15.07-.48.23-.07,8-4.41.34.14L143,92a21.6,21.6,0,0,1,2.83,10.46v.24Zm-9.94-6.42,9.56,5.31a21.3,21.3,0,0,0-2.59-9.13Z"/><path class="cls-3" d="M134.65,96.48l-5.55,6.9h0a20,20,0,0,0,5.55,5c5.85,3.38,10.6.73,10.75-5.9h0l-10.75-6Z"/><path class="cls-2" d="M139.45,110.23a10.23,10.23,0,0,1-5-1.53,20.51,20.51,0,0,1-5.66-5.07l-.21-.28.24-.25,5.75-7.1.25.13,11,6.1v.23c-.08,3.34-1.29,5.83-3.4,7A5.91,5.91,0,0,1,139.45,110.23Zm-9.85-6.85a19.5,19.5,0,0,0,5.24,4.64c2.72,1.57,5.27,1.85,7.17.78s2.88-3.19,3-6.12L134.75,97Z"/><path class="cls-1" d="M129.08,103.37l5.55-6.9h0v-13h0c-5.95-3.43-10.77-.65-10.77,6.21,0,4.52,2.09,9.69,5.22,13.66Z"/><path class="cls-2" d="M128.88,103.77l-.13-.19c-3.3-4.2-5.28-9.4-5.28-13.88,0-3.46,1.19-6.06,3.35-7.3s5-1,8,.75l.2.11V96.6l-.08.11-5.66,7Zm1-21.36a5.16,5.16,0,0,0-2.62.67c-1.9,1.1-2.95,3.45-2.95,6.62,0,4.11,1.84,9.06,4.83,13l5.15-6.4V83.72A9.21,9.21,0,0,0,129.83,82.41Z"/><rect class="cls-2" x="67.35" y="47.17" width="0.56" height="2.01"/><rect class="cls-2" x="68.13" y="48.82" width="1.9" height="0.56" transform="translate(13.62 113.18) rotate(-84.53)"/><rect class="cls-2" x="69.62" y="49.91" width="1.79" height="0.56" transform="translate(7.16 109.16) rotate(-78.38)"/><rect class="cls-2" x="71.08" y="51.16" width="1.69" height="0.56" transform="matrix(0.32, -0.95, 0.95, 0.32, 0.26, 103.23)"/><rect class="cls-2" x="72.49" y="52.54" width="1.59" height="0.56" transform="translate(-6.62 94.97) rotate(-63.59)"/><rect class="cls-2" x="73.83" y="54.06" width="1.51" height="0.56" transform="translate(-12.74 84.17) rotate(-54.94)"/><rect class="cls-2" x="75.07" y="55.68" width="1.45" height="0.56" transform="translate(-17.29 70.48) rotate(-45.31)"/><rect class="cls-2" x="76.22" y="57.39" width="1.42" height="0.56" transform="translate(-19.17 54.92) rotate(-35.22)"/><rect class="cls-2" x="77.25" y="59.17" width="1.42" height="0.56" transform="translate(-17.74 38.17) rotate(-24.79)"/><rect class="cls-2" x="78.15" y="61" width="1.45" height="0.56" transform="translate(-12.92 21.9) rotate(-14.62)"/><rect class="cls-2" x="78.91" y="62.87" width="1.51" height="0.56" transform="translate(-5.28 7.3) rotate(-5.08)"/><rect class="cls-2" x="80.05" y="64.23" width="0.56" height="1.59" transform="translate(10.36 141.09) rotate(-86.38)"/><rect class="cls-2" x="80.57" y="66.06" width="0.56" height="1.69" transform="translate(-0.74 132.89) rotate(-78.57)"/><rect class="cls-2" x="80.95" y="67.84" width="0.56" height="1.79" transform="translate(-9.6 124.18) rotate(-71.64)"/><rect class="cls-2" x="81.18" y="69.58" width="0.56" height="1.9" transform="translate(-16.52 115.38) rotate(-65.48)"/><rect class="cls-2" x="81.25" y="71.25" width="0.56" height="2.01" transform="translate(-21.81 106.74) rotate(-60)"/><rect class="cls-2" x="81.18" y="72.83" width="0.56" height="2.11" transform="translate(-25.77 98.33) rotate(-55.05)"/><rect class="cls-2" x="53.52" y="56.97" width="0.56" height="1.9" transform="translate(-21.22 82.84) rotate(-65.49)"/><rect class="cls-2" x="53.45" y="55.2" width="0.56" height="2.01" transform="translate(-21.81 74.62) rotate(-59.99)"/><rect class="cls-2" x="53.52" y="53.51" width="0.56" height="2.11" transform="translate(-21.74 67.43) rotate(-55.06)"/><rect class="cls-2" x="53.75" y="51.94" width="0.56" height="2.2" transform="matrix(0.64, -0.77, 0.77, 0.64, -21.25, 61.06)"/><rect class="cls-2" x="54.13" y="50.49" width="0.56" height="2.28" transform="translate(-20.5 55.42) rotate(-46.4)"/><rect class="cls-2" x="54.65" y="49.19" width="0.56" height="2.35" transform="translate(-19.59 50.34) rotate(-42.5)"/><rect class="cls-2" x="55.31" y="48.05" width="0.56" height="2.4" transform="translate(-18.59 45.7) rotate(-38.8)"/><rect class="cls-2" x="56.1" y="47.08" width="0.56" height="2.44" transform="translate(-17.53 41.36) rotate(-35.23)"/><rect class="cls-2" x="57.02" y="46.29" width="0.56" height="2.46" transform="translate(-16.43 37.24) rotate(-31.73)"/><rect class="cls-2" x="58.05" y="45.7" width="0.56" height="2.46" transform="translate(-15.27 33.22) rotate(-28.27)"/><rect class="cls-2" x="59.18" y="45.3" width="0.56" height="2.44" transform="translate(-14.02 29.2) rotate(-24.77)"/><rect class="cls-2" x="60.4" y="45.11" width="0.56" height="2.4" transform="translate(-12.64 25.08) rotate(-21.2)"/><rect class="cls-2" x="61.69" y="45.12" width="0.56" height="2.35" transform="translate(-11.06 20.78) rotate(-17.51)"/><rect class="cls-2" x="63.05" y="45.34" width="0.56" height="2.28" transform="translate(-9.16 16.21) rotate(-13.61)"/><rect class="cls-2" x="64.46" y="45.75" width="0.56" height="2.2" transform="translate(-6.81 11.26) rotate(-9.45)"/><rect class="cls-2" x="65.9" y="46.37" width="0.56" height="2.11" transform="translate(-3.84 5.88) rotate(-4.94)"/><rect class="cls-2" x="67.35" y="47.17" width="0.56" height="2.01"/><rect class="cls-1" x="67.35" y="43.98" width="0.56" height="2.38"/><rect class="cls-1" x="68.23" y="45.99" width="2.25" height="0.56" transform="translate(16.68 110.9) rotate(-84.53)"/><rect class="cls-1" x="70" y="47.29" width="2.13" height="0.56" transform="translate(10.16 107.6) rotate(-78.39)"/><rect class="cls-1" x="71.73" y="48.77" width="2" height="0.56" transform="translate(3.07 102.37) rotate(-71.43)"/><rect class="cls-1" x="73.4" y="50.42" width="1.89" height="0.56" transform="translate(-4.1 94.78) rotate(-63.63)"/><rect class="cls-1" x="74.98" y="52.21" width="1.79" height="0.56" transform="matrix(0.57, -0.82, 0.82, 0.57, -10.69, 84.39)"/><rect class="cls-1" x="76.47" y="54.13" width="1.72" height="0.56" transform="translate(-15.74 71.11) rotate(-45.31)"/><rect class="cls-1" x="77.83" y="56.16" width="1.69" height="0.56" transform="translate(-18.15 55.69) rotate(-35.21)"/><rect class="cls-1" x="79.05" y="58.28" width="1.69" height="0.56" transform="translate(-17.19 38.9) rotate(-24.79)"/><rect class="cls-1" x="80.12" y="60.45" width="1.72" height="0.56" transform="translate(-12.71 22.41) rotate(-14.62)"/><rect class="cls-1" x="81.02" y="62.67" width="1.79" height="0.56" transform="translate(-5.26 7.51) rotate(-5.09)"/><rect class="cls-1" x="82.42" y="64.24" width="0.56" height="1.89" transform="translate(12.43 143.6) rotate(-86.38)"/><rect class="cls-1" x="83.04" y="66.4" width="0.56" height="2" transform="matrix(0.2, -0.98, 0.98, 0.2, 0.76, 135.72)"/><rect class="cls-1" x="83.49" y="68.52" width="0.56" height="2.13" transform="translate(-8.66 127.17) rotate(-71.64)"/><rect class="cls-1" x="83.76" y="70.58" width="0.56" height="2.25" transform="translate(-16.08 118.42) rotate(-65.49)"/><rect class="cls-1" x="83.85" y="72.56" width="0.56" height="2.38" transform="translate(-21.81 109.74) rotate(-60)"/><rect class="cls-1" x="83.76" y="74.44" width="0.56" height="2.5" transform="translate(-26.14 101.23) rotate(-55.06)"/><rect class="cls-1" x="50.94" y="55.62" width="0.56" height="2.25" transform="translate(-21.66 79.8) rotate(-65.49)"/><rect class="cls-1" x="50.85" y="53.51" width="0.56" height="2.38" transform="translate(-21.81 71.63) rotate(-60)"/><rect class="cls-1" x="50.94" y="51.51" width="0.56" height="2.5" transform="translate(-21.37 64.53) rotate(-55.06)"/><rect class="cls-1" x="51.21" y="49.64" width="0.56" height="2.61" transform="translate(-20.57 58.34) rotate(-50.55)"/><rect class="cls-1" x="51.66" y="47.92" width="0.56" height="2.71" transform="translate(-19.57 52.9) rotate(-46.39)"/><rect class="cls-1" x="52.28" y="46.38" width="0.56" height="2.79" transform="translate(-18.47 48.05) rotate(-42.5)"/><rect class="cls-1" x="53.06" y="45.03" width="0.56" height="2.85" transform="translate(-17.34 43.67) rotate(-38.8)"/><rect class="cls-1" x="54" y="43.87" width="0.56" height="2.89" transform="matrix(0.82, -0.58, 0.58, 0.82, -16.2, 39.62)"/><rect class="cls-1" x="55.09" y="42.94" width="0.56" height="2.91" transform="translate(-15.07 35.76) rotate(-31.73)"/><rect class="cls-1" x="56.31" y="42.24" width="0.56" height="2.91" transform="translate(-13.94 32.01) rotate(-28.26)"/><rect class="cls-1" x="57.65" y="41.77" width="0.56" height="2.89" transform="translate(-12.78 28.25) rotate(-24.77)"/><rect class="cls-1" x="59.1" y="41.54" width="0.56" height="2.85" transform="translate(-11.52 24.38) rotate(-21.2)"/><rect class="cls-1" x="60.64" y="41.55" width="0.56" height="2.79" transform="translate(-10.1 20.31) rotate(-17.5)"/><rect class="cls-1" x="62.25" y="41.81" width="0.56" height="2.71" transform="translate(-8.4 15.92) rotate(-13.6)"/><rect class="cls-1" x="63.92" y="42.3" width="0.56" height="2.61" transform="translate(-6.29 11.13) rotate(-9.45)"/><rect class="cls-1" x="65.62" y="43.03" width="0.56" height="2.5" transform="translate(-3.57 5.85) rotate(-4.95)"/><rect class="cls-1" x="67.35" y="43.98" width="0.56" height="2.38"/><path class="cls-2" d="M68.37,66.54c-.87.18-2.07-.77-2.67-2.12s-.38-2.62.5-2.81,2.07.76,2.67,2.12S69.25,66.35,68.37,66.54Z"/><path class="cls-2" d="M68.15,66.84a3.51,3.51,0,0,1-2.71-2.31A3.06,3.06,0,0,1,65.28,62a1.24,1.24,0,0,1,.86-.67c1-.22,2.33.78,3,2.28a3.06,3.06,0,0,1,.16,2.52,1.24,1.24,0,0,1-.86.67h0A1.33,1.33,0,0,1,68.15,66.84Zm-1.72-5a.47.47,0,0,0-.17,0,.68.68,0,0,0-.48.38,2.57,2.57,0,0,0,.17,2c.54,1.22,1.63,2.12,2.37,2h0a.68.68,0,0,0,.47-.38,2.57,2.57,0,0,0-.17-2C68.12,62.72,67.16,61.87,66.43,61.87Z"/><path class="cls-3" d="M75.67,62.19,66.85,63s0,0,0,.09l.91,2s.06.07.09.06l7.91-2.82C75.8,62.32,75.74,62.18,75.67,62.19Z"/><path class="cls-2" d="M67.81,65.45a.38.38,0,0,1-.33-.24l-.9-2a.33.33,0,0,1,0-.32l.07-.13.17,0,8.82-.77a.37.37,0,0,1,.38.31.32.32,0,0,1-.2.39l-7.91,2.82Zm-.6-2.24.72,1.62,6.25-2.23Z"/><path class="cls-1" d="M67.88,65.42c-.48.1-1.13-.42-1.46-1.16s-.21-1.43.27-1.53,1.13.41,1.46,1.16S68.36,65.32,67.88,65.42Z"/><path class="cls-2" d="M67.76,65.71a2,2,0,0,1-1.6-1.34,1.81,1.81,0,0,1-.08-1.48.81.81,0,0,1,.55-.44c.61-.13,1.39.45,1.78,1.32a1.79,1.79,0,0,1,.08,1.49.81.81,0,0,1-.55.44ZM66.82,63h-.07a.24.24,0,0,0-.17.14,1.24,1.24,0,0,0,.09,1c.3.67.85,1.06,1.15,1A.24.24,0,0,0,68,65a1.24,1.24,0,0,0-.09-1C67.62,63.38,67.13,63,66.82,63Z"/><polygon class="cls-4" points="130.28 40.79 125.76 37.42 108.69 44.2 130.28 40.79"/><polygon class="cls-4" points="120.91 33.46 124.84 36.5 108.69 44.2 120.91 33.46"/><line class="cls-5" x1="124.87" y1="36.54" x2="124.56" y2="38.02"/><polyline class="cls-4" points="124.78 41.73 124.39 43.54 108.69 44.2"/><path class="cls-6" d="M130.28,38.41c.48-.09,1-.18,1.48-.24"/><path class="cls-7" d="M134.79,38c9-.08,19.47,4.3,21.89,11.84,2.79,8.7-1.52,18.48-10,22.63"/><path class="cls-6" d="M145.34,73.05c-.46.18-.93.35-1.41.5"/></g></g></svg>