<svg xmlns="http://www.w3.org/2000/svg" viewBox="0 0 319.95 32.01"><title>underline1</title><g id="Capa_2" data-name="Capa 2" fill="#00ff88"><g id="Capa_1-2" data-name="Capa 1"><path d="M1.88,5A200,200,0,0,1,36.36,3.07c13.28.32,26.53,1.45,39.77,2.5,17.55,1.4,35.1,2.71,52.69,3.56,24.41,1.17,48.85,1.55,73.28,1.28,33.89-.38,67.75-2,101.56-4.32q7.41-.51,14.82-1.08l-.75-2.8c-10,5.72-20.47,11.47-32.25,11.77-10.82.27-21.62-.34-32.43.25-5.64.31-12.14.46-17.32,3-1.51.74-.54,2.63.75,2.8,15.24,2,30.43,5.11,45.85,5.3,5.05.06,10.11-.09,15.15-.3l-.75-2.8a17.94,17.94,0,0,1-5.57,2.26c-3.11.91-6.27,1.61-9.45,2.22A109.26,109.26,0,0,1,261.48,29a1.5,1.5,0,0,0,0,3,114.5,114.5,0,0,0,21-2.43c3.28-.63,6.56-1.36,9.77-2.31a19.89,19.89,0,0,0,6-2.47c1.11-.8.86-2.86-.76-2.79a208.35,208.35,0,0,1-24-.06c-6.84-.5-13.61-1.56-20.39-2.57q-8.31-1.24-16.64-2.37l.76,2.79a22.94,22.94,0,0,1,6.32-1.66,87.24,87.24,0,0,1,8.69-.86c6.38-.39,12.78-.41,19.17-.37,8.62.07,17.47.8,25.84-1.75,7.74-2.35,15-6.37,22-10.36,1.24-.7.76-2.91-.76-2.79-35.28,2.68-70.63,4.59-106,5.25-25.46.46-50.94.26-76.38-.81-18.29-.76-36.55-2-54.8-3.47C67.62,1.9,54,.69,40.25.19A213,213,0,0,0,5.54,1.44c-1.49.19-3,.4-4.45.62C-.82,2.35,0,5.24,1.88,5Z"/></g></g></svg>