<svg xmlns="http://www.w3.org/2000/svg" viewBox="0 0 21.7 17.23"><defs><style>.cls-1{fill:#fff;}</style></defs><title>footer-mail</title><g id="Capa_2" data-name="Capa 2"><g id="Capa_1-2" data-name="Capa 1"><path class="cls-1" d="M18.22,0H3.48A3.48,3.48,0,0,0,0,3.48v8.61a5.14,5.14,0,0,0,5.14,5.14H16.56a5.15,5.15,0,0,0,5.14-5.14V3.48A3.49,3.49,0,0,0,18.22,0Zm-.58,2.3L12,8.79a1.51,1.51,0,0,1-2.26,0L4.05,2.3ZM16.56,14.93H5.14A2.84,2.84,0,0,1,2.3,12.09V3.79L8,10.3a3.81,3.81,0,0,0,5.73,0l5.68-6.51v8.3A2.84,2.84,0,0,1,16.56,14.93Z"/></g></g></svg>