<svg xmlns="http://www.w3.org/2000/svg" viewBox="0 0 16.94 20.65"><defs><style>.cls-1{fill:#fff;}</style></defs><title>footer-address</title><g id="Capa_2" data-name="Capa 2"><g id="Capa_1-2" data-name="Capa 1"><path class="cls-1" d="M8.47,0A8.48,8.48,0,0,0,0,8.47c0,3.11,3.41,7.79,6.28,11.17a2.88,2.88,0,0,0,4.38,0c2.86-3.38,6.28-8.06,6.28-11.17A8.48,8.48,0,0,0,8.47,0ZM8.9,18.15a.53.53,0,0,1-.43.2.55.55,0,0,1-.44-.2C4.44,13.92,2.3,10.3,2.3,8.47a6.17,6.17,0,1,1,12.34,0C14.64,10.3,12.49,13.92,8.9,18.15Z"/><circle class="cls-1" cx="8.47" cy="8.12" r="1.75"/></g></g></svg>