<svg xmlns="http://www.w3.org/2000/svg" xmlns:xlink="http://www.w3.org/1999/xlink" viewBox="0 0 251.46 234.76"><defs><style>.cls-1{fill:#0c0f38;}.cls-1,.cls-11{opacity:0.6;}.cls-2{fill:url(#Degradado_sin_nombre_8);}.cls-3{fill:#0077fc;}.cls-10,.cls-11,.cls-12,.cls-13,.cls-14,.cls-4{fill:#6ee8fc;}.cls-5{fill:url(#Degradado_sin_nombre_6);}.cls-6{fill:#6de0f6;}.cls-7{fill:#18d0f7;}.cls-8{fill:#25bfec;}.cls-9{fill:#267fe5;}.cls-10{opacity:0.8;}.cls-12{opacity:0.4;}.cls-13{opacity:0.2;}.cls-14{opacity:0.1;}.cls-15{fill:url(#Degradado_sin_nombre_4);}.cls-16{fill:#3be1fa;}</style><linearGradient id="Degradado_sin_nombre_8" x1="-1206.95" y1="546.29" x2="-1073.38" y2="546.29" gradientTransform="matrix(0.75, 0.67, -0.67, 0.75, 1326.43, 453.38)" gradientUnits="userSpaceOnUse"><stop offset="0" stop-color="#0077fc"/><stop offset="0.06" stop-color="#1a56dc"/><stop offset="0.13" stop-color="#3039c0"/><stop offset="0.2" stop-color="#4222aa"/><stop offset="0.27" stop-color="#4e129a"/><stop offset="0.36" stop-color="#560991"/><stop offset="0.48" stop-color="#58068e"/><stop offset="0.63" stop-color="#4d22a3"/><stop offset="0.94" stop-color="#3168da"/><stop offset="1" stop-color="#2c75e4"/></linearGradient><linearGradient id="Degradado_sin_nombre_6" x1="6.98" y1="1943.01" x2="116.04" y2="1943.01" gradientTransform="matrix(-0.5, 0.87, -0.5, -0.87, 1128.34, 1716.03)" gradientUnits="userSpaceOnUse"><stop offset="0" stop-color="#6ee8fc"/><stop offset="0.16" stop-color="#69e0fa"/><stop offset="0.4" stop-color="#5ac8f5"/><stop offset="0.71" stop-color="#43a3ed"/><stop offset="1" stop-color="#2979e4"/></linearGradient><linearGradient id="Degradado_sin_nombre_4" x1="-1233.42" y1="2083.63" x2="-1154.95" y2="2115.15" gradientTransform="matrix(-0.44, 0.9, -0.9, -0.44, 1534.9, 2034.95)" gradientUnits="userSpaceOnUse"><stop offset="0" stop-color="#0077fc"/><stop offset="0.06" stop-color="#1a56dc"/><stop offset="0.13" stop-color="#3039c0"/><stop offset="0.2" stop-color="#4222aa"/><stop offset="0.27" stop-color="#4e129a"/><stop offset="0.36" stop-color="#560991"/><stop offset="0.48" stop-color="#58068e"/><stop offset="0.56" stop-color="#54229c"/><stop offset="0.73" stop-color="#4b69bf"/><stop offset="0.98" stop-color="#3cd9f6"/><stop offset="1" stop-color="#3be1fa"/></linearGradient></defs><title>iso1</title><g id="Capa_2" data-name="Capa 2"><g id="Ñëîé_1" data-name="Ñëîé 1"><ellipse class="cls-1" cx="35.85" cy="182.82" rx="24.64" ry="42.68" transform="translate(-124.52 88) rotate(-48.31)"/><path class="cls-2" d="M161.51,147.42,176,131.12l-8.82-7.86a55,55,0,0,0-2.19-9.18c-9.46-28.6-41-56.72-70.53-62.82a53.66,53.66,0,0,0-9.38-1.11l-8.83-7.87L61.74,58.61h0C55.17,66,53.48,77.68,58.21,92c9.46,28.59,41,56.72,70.54,62.82C143.51,157.85,155,154.81,161.51,147.42Z"/><path class="cls-3" d="M62.57,58.59l14.16-15.9-.46-.41L61.74,58.61c-5.88,6.6-7.81,16.69-4.77,29C54.41,75.35,56.6,65.29,62.57,58.59Z"/><path class="cls-4" d="M175.24,130.42l-14.05,15.77c-6.56,7.39-18,10.44-32.76,7.39-29.5-6.11-61.08-34.23-70.54-62.82-.48-1.46-.85-2.87-1.2-4.27.4,1.79.9,3.61,1.52,5.49,9.46,28.59,41,56.72,70.54,62.82,14.76,3,26.2,0,32.76-7.38L176,131.12Z"/><ellipse class="cls-5" cx="126.15" cy="86.7" rx="38.56" ry="66.79" transform="translate(-22.5 123.24) rotate(-48.31)"/><path class="cls-3" d="M110.1,36.43c15,3.1,30.47,11.72,43.51,23.19C140.49,47.41,124.48,38.13,109,34.93c-23-4.75-38.19,5.31-38.85,23.48C72.25,41.06,87.35,31.72,110.1,36.43Z"/><path class="cls-4" d="M179.55,97.75a82.52,82.52,0,0,0-11.8-22.27,80.85,80.85,0,0,1,10.4,20.32c9.47,28.59-6.77,46.82-36.26,40.72C120.23,132,97.48,115.67,83.15,96c14.21,20.57,37.76,37.88,60.13,42.5C172.78,144.58,189,126.34,179.55,97.75Z"/><ellipse class="cls-6" cx="125.91" cy="86.49" rx="24.64" ry="42.68" transform="translate(-22.42 122.99) rotate(-48.31)"/><path class="cls-7" d="M106.18,63.27c18.84,3.89,39,21.87,45.07,40.14,2,5.91,2.17,11.12,1,15.34,8.47-3.53,11.92-12.84,7.83-25.2C154,75.28,133.81,57.3,115,53.4c-12.75-2.63-21.6,1.86-24.13,10.69C94.88,62.39,100.08,62,106.18,63.27Z"/><path class="cls-8" d="M109.28,59.78c18.85,3.9,39,21.87,45.07,40.15,2.34,7.06,2.2,13.12.09,17.69,6.81-4.17,9.31-12.86,5.6-24.07C154,75.28,133.81,57.3,115,53.4,103.4,51,95.05,54.49,91.7,61.74,96,59.11,102,58.27,109.28,59.78Z"/><path class="cls-9" d="M112,56.68c18.85,3.9,39,21.87,45.08,40.14,2.67,8.08,2.12,14.85-.93,19.57,5.47-4.52,7.22-12.64,3.85-22.84C154,75.28,133.81,57.3,115,53.4c-10.52-2.17-18.39.5-22.25,6.46C97.05,56.28,103.71,55,112,56.68Z"/><path class="cls-4" d="M171.77,87.45a4.26,4.26,0,0,0-3.31-2.22c-1.13,0-1.5,1.07-.81,2.33a4.25,4.25,0,0,0,3.3,2.21C172.09,89.74,172.45,88.7,171.77,87.45Z"/><path class="cls-10" d="M175.76,97.14a4.4,4.4,0,0,0-3-2.59c-1.23-.21-1.87.6-1.42,1.82a4.38,4.38,0,0,0,3,2.58C175.57,99.16,176.21,98.35,175.76,97.14Z"/><path class="cls-11" d="M177.86,106.41a4.29,4.29,0,0,0-2.69-2.89c-1.29-.44-2.18.13-2,1.28a4.27,4.27,0,0,0,2.69,2.88C177.17,108.13,178.06,107.56,177.86,106.41Z"/><path class="cls-12" d="M178,114.91a3.88,3.88,0,0,0-2.26-3.08c-1.3-.66-2.41-.35-2.47.69a3.88,3.88,0,0,0,2.26,3.08C176.78,116.26,177.89,116,178,114.91Z"/><path class="cls-13" d="M176,122.32c.32-.9-.46-2.31-1.73-3.16s-2.55-.82-2.86.07.46,2.31,1.73,3.16S175.7,123.21,176,122.32Z"/><ellipse class="cls-14" cx="170" cy="126.51" rx="1.63" ry="2.82" transform="translate(-37.54 169.32) rotate(-48.31)"/><circle class="cls-15" cx="170" cy="42.28" r="42.27"/><path class="cls-3" d="M171.39,1.33a42.23,42.23,0,0,1,32,66.82,42.25,42.25,0,1,0-67.75-50.48A42.23,42.23,0,0,1,171.39,1.33Z"/><path class="cls-4" d="M203.83,67.62a42.25,42.25,0,0,1-66.29-52.35,42.25,42.25,0,1,0,66.29,52.35Z"/><ellipse class="cls-6" cx="186.15" cy="25.11" rx="14.15" ry="18.22" transform="translate(45.4 149.5) rotate(-49.15)"/><path class="cls-8" d="M191.44,20.72c5.75,5,8.3,12,7,17.63A10.91,10.91,0,0,0,199.93,37c5.12-5.92,3.09-16-4.52-22.63s-17.94-7.13-23-1.21a11.44,11.44,0,0,0-2.48,5C175.32,13.8,184.48,14.7,191.44,20.72Z"/><path class="cls-9" d="M193.56,17.28c6.54,5.65,8.92,13.91,6.23,19.87a1.49,1.49,0,0,0,.14-.12c5.12-5.92,3.09-16-4.52-22.63s-17.94-7.13-23-1.21a11,11,0,0,0-1.7,2.74C175.81,10.18,186,10.75,193.56,17.28Z"/><circle class="cls-4" cx="176.7" cy="128.05" r="7.43"/><path class="cls-4" d="M205.92,160.32a3.74,3.74,0,1,1,3.73-3.73A3.74,3.74,0,0,1,205.92,160.32Z"/><path class="cls-4" d="M243.75,118.88a7.72,7.72,0,1,1,7.71-7.72A7.72,7.72,0,0,1,243.75,118.88Z"/><path class="cls-4" d="M226.52,104.82a3.29,3.29,0,1,1,3.28-3.29A3.28,3.28,0,0,1,226.52,104.82Z"/><path class="cls-4" d="M225.51,124.69a5.82,5.82,0,1,1,5.81-5.81A5.82,5.82,0,0,1,225.51,124.69Z"/><circle class="cls-4" cx="138.61" cy="187.43" r="47.33"/><ellipse class="cls-16" cx="153.24" cy="171.19" rx="23.56" ry="30.2" transform="translate(-76.17 158.5) rotate(-45)"/><ellipse class="cls-7" cx="153.24" cy="171.19" rx="13.11" ry="16.81" transform="translate(-76.17 158.49) rotate(-45)"/><path class="cls-9" d="M162.51,161.92c-6.56-6.56-16-7.73-21.16-2.61-.09.1-.17.21-.27.31,5.18-4.79,14.41-3.55,20.85,2.88s7.67,15.66,2.88,20.85c.1-.1.21-.18.31-.27C170.24,178,169.07,168.48,162.51,161.92Z"/><path class="cls-9" d="M149.86,174.57c-2.39-2.39-2.82-5.84-1-7.71s5.31-1.44,7.71.95,2.82,5.85.95,7.71S152.25,177,149.86,174.57Z"/><circle class="cls-4" cx="64.76" cy="187.43" r="20.62"/><path class="cls-4" d="M89.92,144.6a8.12,8.12,0,1,1,0-11.49A8.12,8.12,0,0,1,89.92,144.6Z"/><path class="cls-16" d="M68.22,184c-3.32-3.31-3.91-8.09-1.32-10.67s7.36-2,10.67,1.31,3.91,8.1,1.32,10.68S71.53,187.28,68.22,184Z"/><path class="cls-4" d="M91.33,20.36a3.74,3.74,0,1,1-5,1.61A3.73,3.73,0,0,1,91.33,20.36Z"/><path class="cls-4" d="M38.7,39.83a7.72,7.72,0,1,1-10.39,3.32A7.72,7.72,0,0,1,38.7,39.83Z"/><path class="cls-4" d="M47.56,60.23a3.28,3.28,0,1,1-4.42,1.41A3.28,3.28,0,0,1,47.56,60.23Z"/><path class="cls-4" d="M57.58,43a5.81,5.81,0,1,1-7.84,2.5A5.83,5.83,0,0,1,57.58,43Z"/></g></g></svg>