<svg xmlns="http://www.w3.org/2000/svg" viewBox="0 0 47.43 47.43"><defs><style>.cls-1{fill:#fff;}</style></defs><title>linkedin_1</title><g id="Capa_2" data-name="Capa 2"><g id="Capa_1-2" data-name="Capa 1"><path class="cls-1" d="M39,0H8.47A8.47,8.47,0,0,0,0,8.47V39a8.47,8.47,0,0,0,8.47,8.47H39A8.47,8.47,0,0,0,47.43,39V8.47A8.47,8.47,0,0,0,39,0ZM17.87,34.28H13V18.43h4.91ZM15.39,16.35a2.93,2.93,0,1,1,2.9-2.93A2.92,2.92,0,0,1,15.39,16.35ZM36.26,34.28H31.38V26c0-2.28-.87-3.56-2.68-3.56s-3,1.33-3,3.56v8.32H21V18.43h4.7v2.13a5.54,5.54,0,0,1,4.78-2.62c3.36,0,5.77,2.06,5.77,6.3Z"/></g></g></svg>