<?xml version="1.0" encoding="utf-8"?>
<!-- Generator: Adobe Illustrator 24.0.2, SVG Export Plug-In . SVG Version: 6.00 Build 0)  -->
<svg version="1.1" id="Capa_1" xmlns="http://www.w3.org/2000/svg" xmlns:xlink="http://www.w3.org/1999/xlink" x="0px" y="0px"
	 viewBox="0 0 284 284" style="enable-background:new 0 0 284 284;" xml:space="preserve">
<style type="text/css">
	.st0{fill:#FFFFFF;}
</style>
<title>Recurso 37</title>
<g id="Capa_2_1_">
	<g id="Capa_2-2">
		<circle cx="142" cy="142" r="142"/>
		<path class="st0" d="M149.6,153.8c-3.6-1.6-7.3-2.8-11.2-3.7c-4.5-1.1-8.8-2.5-13.1-4.1c-0.5-0.2-1-0.4-1.5-0.6
			c-3.7-1.6-7-4.1-9.7-7.2c-3.1-3.8-4.8-8.5-4.6-13.4c-0.1-4.1,0.9-8.2,2.8-11.8c-0.6-0.6-1.2-1.2-1.8-1.8
			c-8.9-8.4-19.7-12.6-32.5-12.6s-23.6,4.2-32.4,12.6c-8.6,7.9-13.4,19.2-13.2,30.9C32.2,153.8,37,165,45.6,173
			c8.8,8.4,19.6,12.6,32.4,12.6s23.6-4.1,32.4-12.5l0.1-0.1c4.1-3.7,7.4-8.1,9.7-13c7,4.8,13.6,6.4,21.9,6.4c8,0,11.9-2.4,11.9-7.1
			C154.2,156.9,152.7,155.1,149.6,153.8z M93.3,156.7c-4.1,3.9-9.5,6-15.2,5.8c-5.6,0.2-11-1.9-15.1-5.8c-8-8.2-8-21.3,0-29.4
			c4-3.9,9.5-6,15.1-5.8c5.6-0.2,11.1,1.9,15.2,5.8C101.4,135.4,101.4,148.6,93.3,156.7L93.3,156.7z"/>
		<path d="M177,159.1c0.3,7.8-3.4,15.2-9.9,19.5c-6.6,4.6-14.9,6.8-24.8,6.8c-14.2,0-24.8-4.2-31.8-12.5l0.1-0.1
			c5-4.7,7.7-8.3,9.7-13c7,4.8,13.6,6.4,21.9,6.4c8,0,11.9-2.4,11.9-7.1c0-2.2-1.5-4-4.6-5.4c-3.6-1.6-7.3-2.8-11.2-3.7
			c-4.4-1.1-8.8-2.5-13.1-4.1c-0.5-0.2-1-0.4-1.5-0.6c-3.7-1.6-7-4.1-9.7-7.2c-3.1-3.8-4.8-8.5-4.6-13.4c-0.1-4.1,0.9-8.2,2.8-11.8
			c1.6-2.9,3.9-5.4,6.6-7.4c6.3-4.7,14.1-7,23.5-7c6.7-0.1,13.3,1.5,19.2,4.5c3.8,2,7.2,4.6,10,7.8c-0.1,0.1-0.2,0.1-0.2,0.2
			c-3.9,3.9-6.9,8.5-9.1,13.5c-5.5-4.8-12.6-7.3-19.9-7.2c-2.5-0.1-5,0.5-7.2,1.8c-1.8,1-2.9,2.9-2.9,4.9c0,2.2,1.5,4,4.6,5.4
			c3.6,1.6,7.3,2.8,11.2,3.6c3.7,0.9,7.5,2,11.2,3.3c0.7,0.2,1.3,0.4,2,0.7c4.4,1.6,8.2,4.4,11.1,8C175.5,148.9,177,153.5,177,159.1
			z"/>
		<path class="st0" d="M229.3,100.8v9.7c-6.7-8-16.1-12-28.2-12c-11.1-0.1-21.8,4.3-29.4,12.4c-0.1,0.1-0.2,0.1-0.2,0.2
			c-3.9,3.9-6.9,8.5-9.1,13.5c-5.5-4.8-12.6-7.3-19.9-7.2c-2.5-0.1-5,0.5-7.2,1.8c-1.8,1-2.9,2.9-2.9,4.9c0,2.2,1.5,4,4.6,5.4
			c3.6,1.6,7.3,2.8,11.2,3.6c3.7,0.9,7.5,2,11.2,3.3c0.7,0.2,1.3,0.4,2,0.7c4.4,1.6,8.2,4.4,11.1,8c3.1,3.7,4.6,8.4,4.6,14
			c0.2,5.3-1.5,10.5-4.7,14.7c7.6,7.6,18,11.8,28.7,11.7c12.1,0,21.5-4,28.2-12v9.7h22.3v-82.4C251.6,100.8,229.3,100.8,229.3,100.8
			z M221.1,157.4c-4.2,4-9.5,6-15.8,6s-11.6-2-15.8-6c-4.1-4-6.2-9.1-6.2-15.4c0-6.2,2.1-11.4,6.2-15.4c4.1-4,9.4-6,15.8-6
			c6.4,0,11.6,2,15.8,6C229.4,135.2,229.4,148.8,221.1,157.4z"/>
	</g>
</g>
</svg>
