<svg xmlns="http://www.w3.org/2000/svg" xmlns:xlink="http://www.w3.org/1999/xlink" viewBox="0 0 467.88 467.88"><defs><style>.cls-1,.cls-7{fill:#fff;}.cls-1{fill-rule:evenodd;}.cls-2{fill:#1e3480;}.cls-3{fill:#5de7e5;}.cls-4{fill:#2f3341;}.cls-5{fill:#d6dae5;}.cls-10,.cls-6,.cls-9{fill:none;}.cls-6{stroke:#ebecf2;stroke-width:10.77px;}.cls-8{fill:#aeb4c3;}.cls-10,.cls-9{stroke:#fff;stroke-width:1.96px;}.cls-10{stroke-linecap:round;}.cls-11{mask:url(#mask);}</style><mask id="mask" x="42.13" y="203.04" width="30.27" height="34.81" maskUnits="userSpaceOnUse"><g id="path-35-inside-1_10584_71010" data-name="path-35-inside-1 10584 71010"><path class="cls-1" d="M68.71,223.42,57.26,206.53,45.82,223.42h6.06V233a2.93,2.93,0,0,0,2.94,2.93h4.89A2.94,2.94,0,0,0,62.65,233v-9.54Z"/></g></mask></defs><title>sales-process</title><g id="Capa_2" data-name="Capa 2"><g id="Capa_1-2" data-name="Capa 1"><circle cx="233.94" cy="233.94" r="144.66"/><path class="cls-2" d="M233.94,89.28a144.66,144.66,0,0,0-125.28,217l125.28-72.33Z"/><path class="cls-3" d="M233.94,89.28a144.66,144.66,0,0,1,125.27,217L233.94,233.94Z"/><circle class="cls-4" cx="233.94" cy="233.94" r="73.39"/><path class="cls-5" d="M383.78,169.27a1,1,0,0,0,1.27-.55l3.22-8.2a1,1,0,0,0-1.82-.72l-2.87,7.29-7.28-2.86a1,1,0,1,0-.72,1.82ZM295.68,385a1,1,0,0,0,.53,1.28l8.13,3.38a1,1,0,0,0,.76-1.81l-7.24-3,3-7.23a1,1,0,1,0-1.81-.75ZM84.1,298.62a1,1,0,0,0-1.26.56l-3.23,8.19a1,1,0,0,0,1.83.72l2.86-7.29,7.29,2.87a1,1,0,0,0,.71-1.83ZM172.17,82.89a1,1,0,0,0-.53-1.28l-8.13-3.38a1,1,0,0,0-1.28.53,1,1,0,0,0,.53,1.27L170,83l-3,7.23a1,1,0,0,0,1.81.75Zm124,.5a164,164,0,0,1,19.18,9.48l1-1.7A167.17,167.17,0,0,0,297,81.58Zm19.18,9.48a162.11,162.11,0,0,1,67.85,75.88L385,168a164.1,164.1,0,0,0-68.66-76.8Zm67.85,206.27A165.06,165.06,0,0,1,375,315.39l1.69,1A166.77,166.77,0,0,0,385,299.93ZM375,315.39a162.23,162.23,0,0,1-78.81,69.09l.75,1.81a164.17,164.17,0,0,0,79.75-69.92ZM171.64,384.48A165.07,165.07,0,0,1,152.49,375l-1,1.69a165.89,165.89,0,0,0,19.38,9.58ZM152.49,375a162.16,162.16,0,0,1-67.85-75.88l-1.79.78a164,164,0,0,0,68.66,76.79ZM84.64,168.73a166,166,0,0,1,8.22-16.24l-1.69-1A166.77,166.77,0,0,0,82.85,168Zm8.22-16.24a162.22,162.22,0,0,1,78.78-69.07l-.75-1.81a164.1,164.1,0,0,0-79.72,69.9Z"/><circle class="cls-6" cx="233.94" cy="233.94" r="190.11"/><circle class="cls-7" cx="233.94" cy="56.77" r="56.77"/><circle class="cls-7" cx="233.94" cy="411.11" r="56.77"/><circle class="cls-7" cx="411.11" cy="233.94" r="56.77"/><circle class="cls-7" cx="56.77" cy="233.94" r="56.77"/><circle class="cls-8" cx="411.11" cy="233.94" r="46.98"/><circle class="cls-8" cx="233.94" cy="56.77" r="46.98"/><circle class="cls-8" cx="233.94" cy="411.11" r="46.98"/><circle class="cls-8" cx="56.77" cy="233.94" r="46.98"/><path class="cls-7" d="M178.55,243.32h4.95v-8.48h2.15l5.25,8.48h5.29L190.38,234c2.58-.77,4.52-2.52,4.52-5.84V228c0-4.55-3.29-6.66-8.48-6.66h-7.87Zm4.95-11.86v-6.3h2.8c2.39,0,3.74.77,3.74,3v.12c0,2.12-1.26,3.16-3.74,3.16Zm22.1,12.2c4.39,0,7.16-1.94,7.68-5.41h-4.21c-.28,1.35-1.29,2.24-3.35,2.24-2.42,0-3.87-1.53-4-4.2h11.58v-1.23c0-5.75-3.69-8.18-7.83-8.18a8,8,0,0,0-8.27,8.36v.25C197.21,240.62,200.75,243.66,205.6,243.66Zm-3.81-10.11c.34-2.27,1.69-3.59,3.69-3.59s3.34,1.16,3.5,3.59Zm18.32,9.77h5L231,227.25h-4.3l-3.81,11.49L219,227.25h-4.76ZM244,239.7c-3.59,0-6.17-2.77-6.17-7.25v-.25c0-4.42,2.3-7.22,6.11-7.22s6.12,2.92,6.12,7.19v.24C250,236.84,247.7,239.7,244,239.7Zm-.09,4c6.85,0,11.34-4.76,11.34-11.31v-.24c0-6.61-4.7-11.06-11.31-11.06s-11.3,4.64-11.3,11.18v.25C232.62,238.9,237,243.66,243.89,243.66Zm14.55,5.13h4.45v-7.93a5.61,5.61,0,0,0,5.13,2.8c4,0,7-3,7-8.3v-.24c0-5.32-3.07-8.24-7-8.24a6,6,0,0,0-5.13,2.89v-2.52h-4.45Zm8.26-8.6c-2.43,0-4-1.57-4-4.8v-.24c0-3.23,1.59-4.86,3.93-4.86s3.84,1.6,3.84,4.86v.24C270.51,238.53,269.16,240.19,266.7,240.19Zm17.13,3.47c4.24,0,6.76-1.81,6.76-5.29s-2.21-4.45-6.24-5c-2.33-.34-3.1-.74-3.1-1.76s.83-1.65,2.28-1.65,2.27.61,2.51,1.93h4.09c-.4-3.68-3.07-5-6.64-5-3.28,0-6.35,1.66-6.35,5,0,3.14,1.65,4.36,5.92,5,2.31.34,3.26.8,3.26,1.9s-.8,1.76-2.52,1.76c-1.93,0-2.64-.83-2.82-2.28h-4.15C277,241.75,279.5,243.66,283.83,243.66Z"/><path class="cls-7" d="M274.59,144.42l1.1,1.09,8.24-8.24L279,148.86l.37.37,11.48-5-8.24,8.23,1.19,1.2,9.79-9.79L292,142.24l-10.54,4.69L286,136.29l-1.65-1.66ZM287.9,158a3.64,3.64,0,0,0,3.26,1.2l-.91.9,1.14,1.14,4.72-4.72c2-2,1.31-3.8-.06-5.17s-3.28-2.08-5.06-.6l1.14,1.13c1-.76,1.94-.63,2.93.36s1.05,2-.09,3.14l-.52.52-1-1c-1.84-1.84-4.15-3-5.8-1.37C286.16,154.94,286.57,156.64,287.9,158Zm1-.8c-1-1-.89-1.82-.15-2.55,1.06-1.06,2.46-.36,3.9,1.08l1,1-.89.89C291.65,158.68,290.12,158.38,288.91,157.17Zm4.71,6.27,1.14,1.14,3.92-3.93c1.77-1.77,3.14-1.3,4.64.07l1.07-1.07a3.54,3.54,0,0,0-3.77-.94l1.29-1.29-1.13-1.13Zm5.14,5.15,1.14,1.13,3.71-3.71-.54,6.89,1.39,1.38.5-7.16,6.39-.26L310,165.53l-6.26.33,6.72-6.72L309.34,158Zm9.6,9.83c1.61,1.62,3.55,2.06,5.24.87l-1.14-1.14c-1,.68-2,.45-3.15-.66-1.46-1.46-1.34-3.14.24-4.83l5.39,5.39.37-.36c2.56-2.56,2-5.12.34-6.78-2-2-4.86-1.84-7,.32l-.11.11A4.75,4.75,0,0,0,308.36,178.42Zm2.14-6.63c1.47-1.08,3-1.1,4.2.07s1.36,2.53,0,4.11Zm4.91,13.63a3.6,3.6,0,0,0,1.12.82l1-1a3.46,3.46,0,0,1-1-.72c-.57-.58-.55-1.23.15-1.93l4.3-4.3,1.67,1.67.95-1-1.66-1.66,1.62-1.63-1.13-1.14-1.63,1.63-1-1-.95,1,1,1-4.4,4.4A2.46,2.46,0,0,0,315.41,185.42Zm2.81,2.62,1.13,1.14,7.16-7.16-1.14-1.14Zm9.19-8.1a1.08,1.08,0,0,0,1.51,0,1.06,1.06,0,1,0-1.51,0Zm-5.73,11.56,1.13,1.14,4.34-4.34a2.67,2.67,0,0,1,4,0c1.15,1.15,1.12,2.24-.14,3.5l-4.48,4.48,1.14,1.13,4.39-4.39c2.08-2.08,1.85-3.93.37-5.4a3.45,3.45,0,0,0-3.56-1l1.14-1.14-1.14-1.14Zm8.42,13.65c2,2,4.42,2.39,6.52.33l6.67-6.68-1.13-1.13L341,198.82a3.66,3.66,0,0,0-1.07-3.62,4.8,4.8,0,0,0-6.9.22l-.09.1a4.56,4.56,0,0,0-.14,6.65,4.19,4.19,0,0,0,3.78,1.06l-1,1c-1.53,1.54-3.09,1.32-4.5-.09-1.22-1.22-1.48-2.33-.82-3.31l-1.17-1.17C328.05,201.1,328,203,330.1,205.15Zm3.78-3.8c-1.21-1.21-1.27-3.14.29-4.7l.11-.11c1.5-1.5,3.4-1.71,4.83-.28s1.34,3.2-.26,4.8l-.1.1A3.26,3.26,0,0,1,333.88,201.35Z"/><path class="cls-7" d="M204.91,338.23c2.75,0,4.78-1.76,4.78-4.08,0-2.62-1.62-3.55-4.7-4-2.82-.42-3.33-1.12-3.33-2.48s1-2.24,2.89-2.24,2.92.72,3.25,2.46h1.51c-.28-2.46-2-3.81-4.76-3.81s-4.45,1.62-4.45,3.75c0,2.46,1.72,3.37,4.62,3.81,2.63.43,3.35,1.08,3.35,2.65s-1.38,2.61-3.16,2.61c-2.78,0-3.44-1.39-3.65-3h-1.63C199.88,336.2,201.22,338.23,204.91,338.23Zm11.69,0c2.28,0,4-1.07,4.31-3.1h-1.6c-.21,1.18-1.12,1.76-2.69,1.76-2.07,0-3.17-1.27-3.25-3.58H221v-.52c0-3.62-2.2-5-4.55-5-2.78,0-4.74,2.13-4.74,5.19v.15A4.76,4.76,0,0,0,216.6,338.23ZM213.43,332a3,3,0,0,1,3-2.92c1.67,0,2.75.83,2.91,2.92Zm10,6h1.6V332.5c0-2.5,1.3-3.13,3.33-3.23v-1.51a3.54,3.54,0,0,0-3.33,2v-1.82h-1.6Zm9.9,0h2l3.64-10.12h-1.66l-3,8.5-3-8.5h-1.75Zm7.84,0h1.61V327.93H241.2Zm.77-12.22a1.07,1.07,0,1,0-1.06-1.07A1.08,1.08,0,0,0,242,325.83Zm8.32,12.4a4.22,4.22,0,0,0,4.41-3.81h-1.49a2.73,2.73,0,0,1-2.9,2.47c-1.95,0-3.31-1.31-3.31-3.79V333c0-2.38,1.42-3.85,3.25-3.85a2.53,2.53,0,0,1,2.81,2.2h1.59c-.31-2.57-2.29-3.54-4.4-3.54a4.92,4.92,0,0,0-4.91,5.19v.15A4.81,4.81,0,0,0,250.29,338.23Zm11,0c2.28,0,4-1.07,4.32-3.1H264c-.21,1.18-1.12,1.76-2.69,1.76-2.07,0-3.17-1.27-3.25-3.58h7.62v-.52c0-3.62-2.2-5-4.54-5-2.79,0-4.75,2.13-4.75,5.19v.15A4.76,4.76,0,0,0,261.27,338.23ZM258.1,332a3,3,0,0,1,3-2.92c1.66,0,2.74.83,2.9,2.92Z"/><path class="cls-7" d="M378.05,253c2,0,3.23-.86,3.23-2.52s-1.06-2.13-3-2.41c-1.12-.16-1.49-.35-1.49-.84s.4-.79,1.09-.79,1.09.29,1.2.93h2c-.19-1.77-1.47-2.38-3.17-2.38s-3,.79-3,2.39.79,2.09,2.83,2.39c1.1.17,1.56.39,1.56.91s-.39.84-1.21.84-1.26-.4-1.35-1.09h-2C374.77,252.06,376,253,378.05,253Zm7.38,0a3.66,3.66,0,0,0,1.29-.21v-1.64a2,2,0,0,1-.8.15c-.55,0-.86-.3-.86-.91v-3.7h1.62v-1.52h-1.62v-1.66H383v1.66h-1v1.52h1v3.89A2.19,2.19,0,0,0,385.43,253Zm2.73-.15h2.13V249c0-1.47.91-2,2.48-2v-2a2.5,2.5,0,0,0-2.48,1.58v-1.47h-2.13Zm9.4.16c2.1,0,3.43-.92,3.67-2.58h-2c-.13.65-.61,1.07-1.6,1.07a1.84,1.84,0,0,1-1.91-2h5.54v-.59a3.54,3.54,0,0,0-3.74-3.9,3.81,3.81,0,0,0-3.95,4v.12A3.72,3.72,0,0,0,397.56,253Zm-1.82-4.83a1.77,1.77,0,0,1,1.77-1.71c1,0,1.6.55,1.67,1.71Zm9,4.83a2.61,2.61,0,0,0,2.32-1.08v.92h2.07v-5c0-2.09-1.33-2.85-3.21-2.85s-3.32.8-3.45,2.63h2a1.16,1.16,0,0,1,1.31-1.09c1,0,1.25.5,1.25,1.41v.31h-.87c-2.35,0-4,.67-4,2.46C402.22,252.3,403.39,253,404.78,253Zm.64-1.48c-.78,0-1.12-.37-1.12-.92,0-.83.72-1.09,1.95-1.09h.83v.65C407.08,251,406.36,251.49,405.42,251.49Zm5.58,1.32h2.13v-4.53a1.43,1.43,0,0,1,1.48-1.58c.75,0,1.21.44,1.21,1.43v4.68h2.11v-4.53a1.43,1.43,0,0,1,1.49-1.58c.76,0,1.2.44,1.2,1.43v4.68h2.11v-4.92c0-2-1.1-2.93-2.52-2.93a3.07,3.07,0,0,0-2.59,1.33,2.1,2.1,0,0,0-2.14-1.33,2.61,2.61,0,0,0-2.35,1.35v-1.18H411Zm13.61,0h2.11V241.65h-2.11Zm4.12,0h2.11v-7.68h-2.11Zm1-8.72a1.16,1.16,0,1,0-1.21-1.16A1.17,1.17,0,0,0,429.77,244.09Zm3,8.72h2.13v-4.43a1.52,1.52,0,0,1,1.6-1.69c.94,0,1.35.5,1.35,1.54v4.58H440v-4.89c0-2-1.08-3-2.59-3a2.64,2.64,0,0,0-2.49,1.39v-1.22H432.8Zm12.57.16c2.1,0,3.42-.92,3.67-2.58h-2c-.14.65-.62,1.07-1.6,1.07a1.84,1.84,0,0,1-1.91-2h5.53v-.59a3.54,3.54,0,0,0-3.74-3.9,3.81,3.81,0,0,0-3.95,4v.12A3.72,3.72,0,0,0,445.37,253Zm-1.82-4.83a1.75,1.75,0,0,1,1.76-1.71c1,0,1.6.55,1.67,1.71Z"/><path class="cls-7" d="M219.38,75.81a2.6,2.6,0,0,0,2.32-1.09v.92h2.07v-5c0-2.09-1.33-2.85-3.21-2.85s-3.32.81-3.45,2.63h2a1.16,1.16,0,0,1,1.3-1.09c1,0,1.25.5,1.25,1.41v.31h-.86c-2.35,0-4,.67-4,2.47C216.81,75.13,218,75.81,219.38,75.81Zm.63-1.49c-.78,0-1.11-.36-1.11-.92,0-.82.72-1.09,1.95-1.09h.82V73C221.67,73.81,221,74.32,220,74.32Zm5.65,1.32h2.11V64.49h-2.11Zm4.11,0h2.12V68h-2.12Zm1-8.72a1.16,1.16,0,1,0-1.21-1.16A1.16,1.16,0,0,0,230.82,66.92Zm6.43,11.56c2.53,0,4-1.16,4.05-3.44V68h-2.11v1.14a2.58,2.58,0,0,0-2.44-1.32,3.47,3.47,0,0,0-3.38,3.74v.11a3.37,3.37,0,0,0,3.35,3.67,2.89,2.89,0,0,0,2.47-1.43V75a1.71,1.71,0,0,1-1.94,1.88c-1.09,0-1.57-.44-1.7-1.11h-2.12C233.64,77.39,234.77,78.48,237.25,78.48Zm.1-4.77a1.84,1.84,0,0,1-1.8-2.07v-.12c0-1.26.66-2.12,1.85-2.12s1.85.8,1.85,2.1v.11A1.89,1.89,0,0,1,237.35,73.71Zm5.83,1.93h2.13V71.21a1.52,1.52,0,0,1,1.6-1.69c.94,0,1.35.5,1.35,1.54v4.58h2.13V70.76c0-2.06-1.08-3-2.59-3a2.65,2.65,0,0,0-2.49,1.39V68h-2.13Z"/><path class="cls-7" d="M205.92,430H208V422.3h-2.12Zm1.05-8.72a1.16,1.16,0,1,0-1.21-1.16A1.17,1.17,0,0,0,207,421.26Zm3,8.72h2.13v-4.54a1.43,1.43,0,0,1,1.49-1.57c.75,0,1.2.44,1.2,1.43V430h2.11v-4.54a1.43,1.43,0,0,1,1.49-1.57c.76,0,1.2.44,1.2,1.43V430h2.12v-4.92c0-2-1.11-2.93-2.53-2.93a3,3,0,0,0-2.58,1.33,2.12,2.12,0,0,0-2.15-1.33,2.63,2.63,0,0,0-2.35,1.35V422.3H210Zm13.55,2.61h2.13v-3.78a2.71,2.71,0,0,0,2.46,1.33c1.9,0,3.34-1.42,3.34-4v-.12c0-2.54-1.47-3.93-3.34-3.93a2.85,2.85,0,0,0-2.46,1.38V422.3h-2.13Zm4-4.11c-1.16,0-1.89-.75-1.89-2.29v-.12c0-1.54.76-2.32,1.88-2.32s1.83.77,1.83,2.32v.12C229.31,427.69,228.67,428.48,227.49,428.48Zm5.4,1.5H235v-3.85c0-1.46.91-2,2.48-2v-2a2.54,2.54,0,0,0-2.48,1.59V422.3h-2.13Zm9.45-1.45c-1.2,0-1.88-.88-1.88-2.35v-.12c0-1.47.71-2.32,1.88-2.32s1.88.88,1.88,2.35v.1C244.22,427.65,243.53,428.53,242.34,428.53Zm0,1.61a3.83,3.83,0,0,0,4-4v-.12a4,4,0,0,0-8.09,0v.12A3.81,3.81,0,0,0,242.33,430.14Zm7.26-.16H252l2.79-7.68h-2.05l-1.83,5.49-1.83-5.49h-2.28Zm9.5.16c2.1,0,3.42-.92,3.67-2.58h-2c-.13.64-.61,1.07-1.6,1.07a1.83,1.83,0,0,1-1.9-2h5.53V426a3.53,3.53,0,0,0-3.74-3.9,3.81,3.81,0,0,0-3.95,4v.12A3.72,3.72,0,0,0,259.09,430.14Zm-1.82-4.83a1.76,1.76,0,0,1,1.76-1.72c1,0,1.6.56,1.67,1.72Z"/><path class="cls-7" d="M43.92,255.65c2.52,0,4-1.16,4-3.44v-7.08H45.86v1.15A2.58,2.58,0,0,0,43.42,245,3.47,3.47,0,0,0,40,248.7v.1a3.37,3.37,0,0,0,3.35,3.67,2.89,2.89,0,0,0,2.47-1.42v1.16a1.71,1.71,0,0,1-1.94,1.88c-1.09,0-1.57-.44-1.7-1.12H40.1C40.31,254.56,41.44,255.65,43.92,255.65Zm.1-4.78a1.83,1.83,0,0,1-1.8-2.07v-.11c0-1.27.66-2.12,1.85-2.12s1.85.8,1.85,2.1v.1A1.88,1.88,0,0,1,44,250.87Zm5.83,1.94H52V249c0-1.47.91-2,2.48-2v-2A2.5,2.5,0,0,0,52,246.6v-1.47H49.85Zm9.44-1.45c-1.2,0-1.88-.88-1.88-2.35v-.12c0-1.47.71-2.32,1.88-2.32s1.88.88,1.88,2.35v.1C61.17,250.48,60.48,251.36,59.29,251.36Zm0,1.61a3.83,3.83,0,0,0,4-4v-.12a3.81,3.81,0,0,0-4-3.93,3.85,3.85,0,0,0-4,4v.11A3.81,3.81,0,0,0,59.28,253Zm6.89-.16h2.12L69.7,248l1.3,4.81h2.09l2.42-7.68h-2L72,250.3l-1.35-5.17H68.92l-1.48,5.17-1.37-5.17H63.84Z"/><path class="cls-7" d="M150.64,185c1.94-1.94,2.13-4.62.49-6.26-1.85-1.85-3.65-1.36-6.17.47-2.3,1.7-3.15,1.56-4.11.61s-.89-2.29.45-3.63,2.58-1.56,4-.56l1.07-1.07c-1.93-1.54-4.11-1.28-6.06.67s-2,4.3-.5,5.8c1.74,1.74,3.6,1.17,6-.57,2.16-1.56,3.13-1.6,4.24-.49s.88,2.82-.38,4.07c-2,2-3.42,1.45-4.74.44l-1.15,1.15C145.64,187.1,148,187.6,150.64,185Zm7.12-7.13A3.64,3.64,0,0,0,159,174.6l.9.9,1.14-1.13-4.72-4.73c-2-2-3.81-1.31-5.18.06s-2.08,3.28-.6,5.06l1.14-1.13c-.77-1-.63-1.95.35-2.93s2-1.06,3.15.08l.52.52-1,1c-1.83,1.83-3,4.14-1.36,5.8C154.74,179.59,156.44,179.18,157.76,177.85Zm-.79-1c-1,1-1.82.89-2.56.15-1-1.05-.35-2.46,1.08-3.9l1-1,.89.89C158.47,174.11,158.17,175.64,157,176.84Zm6.29-4.73,1.15-1.15-10.57-10.58-1.15,1.15Zm6.53-6.28c1.61-1.62,2.05-3.56.86-5.24l-1.13,1.13c.68,1,.45,2-.66,3.15-1.47,1.47-3.15,1.34-4.83-.23l5.39-5.39-.37-.37c-2.56-2.56-5.12-2-6.77-.34-2,2-1.85,4.85.31,7l.11.1A4.76,4.76,0,0,0,169.79,165.83Zm-6.64-2.15a3,3,0,0,1,.07-4.2c1.18-1.18,2.53-1.35,4.12,0Zm13.77-5c1.74-1.74,1.75-3.51.45-4.81-1.52-1.51-2.88-.8-4.64.4-1.54,1.08-2.16,1.18-2.8.54s-.49-1.56.33-2.39a1.84,1.84,0,0,1,2.62-.38L174,151c-1.74-1.36-3.37-.77-4.65.52-1.13,1.12-1.74,3.1-.41,4.43s2.39,1.14,4.59-.38c1.32-.91,2.12-1.22,2.88-.47s.65,1.62-.43,2.7-2.13,1.06-3.06.3l-1.11,1.11C173.32,160.57,175.21,160.41,176.92,158.7Z"/><rect class="cls-9" x="397.4" y="207.51" width="11.75" height="11.75" rx="1.96"/><rect class="cls-9" x="413.06" y="207.51" width="11.75" height="11.75" rx="1.96"/><rect class="cls-9" x="413.06" y="223.17" width="11.75" height="11.75" rx="1.96"/><rect class="cls-9" x="397.4" y="223.17" width="11.75" height="11.75" rx="1.96"/><rect class="cls-9" x="222.19" y="46.99" width="24.14" height="7.83" rx="1.96"/><rect class="cls-9" x="226.11" y="34.26" width="15.99" height="7.83" rx="1.96"/><path class="cls-10" d="M233.94,42.09V47"/><path class="cls-10" d="M233.94,30.34v3.92"/><path class="cls-10" d="M233.94,54.82v3.91"/><rect class="cls-9" x="217.3" y="403.21" width="7.83" height="8.88" rx="1.96"/><rect class="cls-9" x="230.02" y="393.46" width="7.83" height="18.63" rx="1.96"/><rect class="cls-9" x="242.75" y="383.7" width="7.83" height="28.39" rx="1.96"/><g class="cls-11"><path class="cls-7" d="M57.26,206.53l1.62-1.1L57.26,203l-1.62,2.39Zm11.45,16.89v2H72.4l-2.07-3.05Zm-22.89,0-1.62-1.1-2.07,3.05h3.69Zm6.06,0h2v-2h-2Zm10.77,0v-2h-2v2Zm-7-15.79,11.45,16.88,3.24-2.19L58.88,205.43Zm-8.2,16.88,11.44-16.88-3.24-2.2L44.2,222.32Zm4.44-3H45.82v3.91h6.06Zm2,11.5v-9.54H49.92V233Zm1,1a1,1,0,0,1-1-1H49.92a4.89,4.89,0,0,0,4.9,4.89Zm4.89,0H54.82v3.91h4.89Zm1-1a1,1,0,0,1-1,1v3.91A4.89,4.89,0,0,0,64.6,233Zm0-9.54V233H64.6v-9.54Zm8-2H62.65v3.91h6.06Z"/></g></g></g></svg>