<svg xmlns="http://www.w3.org/2000/svg" xmlns:xlink="http://www.w3.org/1999/xlink" viewBox="0 0 208.02 85.17"><defs><style>.cls-1{opacity:0.2;fill:url(#linear-gradient);}.cls-11,.cls-16,.cls-2,.cls-3,.cls-4{fill:none;stroke-miterlimit:10;}.cls-2{stroke:#fff;stroke-width:0.27px;opacity:0.5;}.cls-11,.cls-16,.cls-3,.cls-4{stroke-linecap:round;}.cls-11,.cls-16,.cls-3{stroke-width:0.97px;}.cls-3{stroke:url(#Degradado_sin_nombre_2);}.cls-4{stroke-width:0.97px;stroke:url(#Degradado_sin_nombre_15);}.cls-5,.cls-6,.cls-8{fill:#ff15c5;}.cls-13,.cls-18,.cls-6{font-size:6px;font-family:InterTight-Medium, Inter Tight;font-weight:500;}.cls-7{letter-spacing:-0.03em;}.cls-15,.cls-20,.cls-8{font-size:3px;font-family:InterTight-LightItalic, Inter Tight;font-weight:300;font-style:italic;}.cls-9{letter-spacing:-0.02em;}.cls-10{letter-spacing:0em;}.cls-11{stroke:url(#Degradado_sin_nombre_22);}.cls-12,.cls-13,.cls-15{fill:#ff9e00;}.cls-14{letter-spacing:-0.01em;}.cls-16{stroke:url(#Degradado_sin_nombre_9);}.cls-17,.cls-18,.cls-20{fill:#00d1fa;}.cls-19{letter-spacing:-0.09em;}</style><linearGradient id="linear-gradient" x1="0.48" y1="52.57" x2="207.53" y2="52.57" gradientUnits="userSpaceOnUse"><stop offset="0" stop-color="#ffd000"/><stop offset="0.09" stop-color="#ffb51d"/><stop offset="0.29" stop-color="#ff7066"/><stop offset="0.52" stop-color="#ff15c5"/><stop offset="0.7" stop-color="#a359d8"/><stop offset="1" stop-color="#00d1fa"/></linearGradient><linearGradient id="Degradado_sin_nombre_2" x1="108.62" y1="31.96" x2="119.01" y2="31.96" gradientUnits="userSpaceOnUse"><stop offset="0" stop-color="#ff0bff" stop-opacity="0"/><stop offset="1" stop-color="#ff0bff"/></linearGradient><linearGradient id="Degradado_sin_nombre_15" x1="0" y1="45.81" x2="208.02" y2="45.81" xlink:href="#linear-gradient"/><linearGradient id="Degradado_sin_nombre_22" x1="50.09" y1="45.74" x2="59.7" y2="45.74" gradientUnits="userSpaceOnUse"><stop offset="0" stop-color="#ff9e00" stop-opacity="0"/><stop offset="1" stop-color="#ff9e00"/></linearGradient><linearGradient id="Degradado_sin_nombre_9" x1="167.84" y1="14.84" x2="178.31" y2="14.84" gradientUnits="userSpaceOnUse"><stop offset="0" stop-color="#39a7ee" stop-opacity="0"/><stop offset="1" stop-color="#39a7ee"/></linearGradient></defs><title>Chart</title><g id="Capa_2" data-name="Capa 2"><g id="OBJECTS"><path class="cls-1" d="M207.53,32c-9.2-1.45-14.65-13.33-26.27-11.87s-17,29.54-30.88,29.54c-12.06,0-18.25-10.39-31.12-10.39-16.5,0-23.25,35.45-38.41,21.43C65.08,46.07,51.79,48.88,39.21,58.9,21.74,72.82.48,71.86.48,71.86V85.17H207.53Z"/><line class="cls-2" x1="0.48" y1="71.86" x2="0.48" y2="85.17"/><line class="cls-2" x1="29.52" y1="64.75" x2="29.52" y2="85.17"/><line class="cls-2" x1="59.19" y1="50.19" x2="59.19" y2="85.17"/><line class="cls-2" x1="88.86" y1="64.13" x2="88.86" y2="85.17"/><line class="cls-2" x1="118.53" y1="39.41" x2="118.53" y2="85.17"/><line class="cls-2" x1="148.2" y1="49.5" x2="148.2" y2="85.17"/><line class="cls-2" x1="177.86" y1="21.84" x2="177.86" y2="85.17"/><line class="cls-2" x1="207.53" y1="31.96" x2="207.53" y2="85.17"/><polyline class="cls-3" points="118.53 38.99 118.53 26.87 109.1 24.93"/><path class="cls-4" d="M.48,71.86s20.75.29,38.73-13C54.07,48,66.19,47.14,80.11,60c16.63,15.38,22.72-20.59,39.15-20.77,12.55-.14,19.19,10.33,31.12,10.39,13.84.07,19.25-28.3,30.88-29.75S198.33,30.51,207.53,32"/><path class="cls-5" d="M121.14,39a2.62,2.62,0,1,1-2.61-2.62A2.62,2.62,0,0,1,121.14,39Z"/><text class="cls-6" transform="translate(91.19 22.68)">1<tspan class="cls-7" x="2.22" y="0">,</tspan><tspan x="3.71" y="0">345</tspan></text><text class="cls-8" transform="translate(88.55 25.91)">Lo<tspan class="cls-9" x="3.27" y="0">r</tspan><tspan class="cls-10" x="4.2" y="0">em Ipsum</tspan></text><polyline class="cls-11" points="59.21 49.87 59.21 43.09 50.57 41.6"/><path class="cls-12" d="M61.83,49.87a2.62,2.62,0,1,1-2.62-2.61A2.62,2.62,0,0,1,61.83,49.87Z"/><text class="cls-13" transform="translate(35.98 38.77)"><tspan class="cls-14">7</tspan><tspan x="3.11" y="0">57</tspan></text><text class="cls-15" transform="translate(28.3 41.6)">Lo<tspan class="cls-9" x="3.27" y="0">r</tspan><tspan class="cls-10" x="4.2" y="0">em Ipsum</tspan></text><polyline class="cls-16" points="177.82 21.49 177.82 10.82 168.32 8.19"/><path class="cls-17" d="M180.44,21.49a2.62,2.62,0,1,1-2.62-2.62A2.62,2.62,0,0,1,180.44,21.49Z"/><text class="cls-18" transform="translate(150.31 5.18)">2<tspan class="cls-19" x="3.43" y="0">,</tspan><tspan x="4.54" y="0">180</tspan></text><text class="cls-20" transform="translate(146.91 8.19)">Lo<tspan class="cls-9" x="3.27" y="0">r</tspan><tspan class="cls-10" x="4.2" y="0">em Ipsum</tspan></text></g></g></svg>