<svg xmlns="http://www.w3.org/2000/svg" viewBox="0 0 389.59 100.63"><defs><style>.cls-1{fill:#fff;}.cls-2{fill:#5cb44d;}.cls-3{fill:#e83874;stroke:#e83874;stroke-miterlimit:10;}.cls-4{fill:#ede859;}</style></defs><title>client-mads_1</title><g id="Capa_2" data-name="Capa 2"><g id="Capa_1-2" data-name="Capa 1"><path class="cls-1" d="M185.77,27c-.42-.23-.62-.11-.77.23q-1.17,2.61-2.36,5.22-2.43,5.41-4.64,10.94c-.72,1.81-1.32,3.68-2.12,5.46-1,2.33-1.76,4.8-2.84,7.12-.44.94-.67,2-1,3-.95,2.54-1.94,5.07-2.89,7.61-.66,1.78-1.28,3.58-2,5.37-.77,2.06-1.48,4.15-2.31,6.19-.71,1.76-1.29,3.58-1.95,5.36s-1.34,3.36-1.92,5.07-1.3,3.58-2.06,5.33a7.55,7.55,0,0,1-1.94,3,1.24,1.24,0,0,1-1.86.05,4.25,4.25,0,0,1-1.42-1.72c-.33-.78-.74-1.53-1.08-2.31q-2-4.47-3.91-9l-3-6.92c-1.19-2.71-2.41-5.41-3.57-8.13s-2.32-5.56-3.5-8.34c-1.54-3.65-3.15-7.27-4.66-10.94-1.44-3.52-2.92-7-4.39-10.55q-1.82-4.38-3.66-8.74a9.56,9.56,0,0,0-.45-.85c-.35,0-.43.15-.45.35s0,.6,0,.9q0,29.61,0,59.21c0,1.1.14,2.21.23,3.31a2.3,2.3,0,0,0,1.34,1.71A7.64,7.64,0,0,0,130.13,96c1.46.1,2.92.12,4.38.18.91,0,1.82,0,2.72.13a10.85,10.85,0,0,1,1.48.32.89.89,0,0,1,.63.59.61.61,0,0,1-.32.87,7.83,7.83,0,0,1-1.78.27c-1.46,0-2.92-.1-4.38-.15s-2.83-.1-4.24-.12c-3.28-.06-6.56-.16-9.84-.11-2.87,0-5.74.28-8.61.38a14.66,14.66,0,0,1-5-.36l-.45-.61c.11-.41.22-.76.64-.82a14.33,14.33,0,0,1,1.94-.26c1.62,0,3.23,0,4.85,0a19.66,19.66,0,0,0,4.65-.5,8.92,8.92,0,0,0,1.24-.5,3.12,3.12,0,0,0,2-2.94c.08-1.3.18-2.61.18-3.92q0-28.62,0-57.24c0-1.71-.11-3.43-.28-5.13a8.17,8.17,0,0,0-.87-3.19,1.53,1.53,0,0,0-1-.87,25,25,0,0,0-2.77-.7c-1.3-.17-2.62-.19-3.92-.26s-2.62-.12-3.93-.21a4.31,4.31,0,0,1-1.17-.26.78.78,0,0,1-.5-.85.91.91,0,0,1,.6-.81,4.38,4.38,0,0,1,.89-.17c.35,0,.7,0,1,0H140c.51,0,1,0,1.51.07a1.16,1.16,0,0,1,1.12.84q1.13,3,2.31,5.89c.94,2.32,1.92,4.64,2.87,7,.7,1.72,1.38,3.45,2.08,5.18L152,43c.68,1.68,1.34,3.36,2,5s1.29,3,1.93,4.55,1.3,3.17,2,4.76,1.42,3.42,2.12,5.13l2.09,5c.46,1.1.93,2.19,1.37,3.24.5.08.64-.19.75-.48.65-1.73,1.3-3.48,2-5.21s1.37-3.55,2.05-5.33c1-2.54,1.91-5.08,2.89-7.61.7-1.81,1.46-3.61,2.16-5.42.3-.75.51-1.53.8-2.28q1.33-3.52,2.7-7c1.54-4,3.09-8,4.62-11.94.72-1.87,1.4-3.77,2.08-5.65.31-.84.44-.95,1.29-1,.25,0,.51,0,.76,0h34.54c.7,0,1.41.06,2.11.11a2,2,0,0,1,.59.12,1,1,0,0,1,.58,1,.86.86,0,0,1-.69.72,4.1,4.1,0,0,1-1,.08c-2.17,0-4.34,0-6.51,0a17.59,17.59,0,0,0-4.34.58,4.06,4.06,0,0,0-3.15,3.78c0,.4,0,.81,0,1.21q0,32.27,0,64.51a6.94,6.94,0,0,0,.48,2.81,3.32,3.32,0,0,0,2.74,2.07,34.47,34.47,0,0,0,5.28.39c1.61,0,3.23,0,4.84,0a7.36,7.36,0,0,1,2.82.46c.33.14.54.37.48.67a1,1,0,0,1-.43.72,9.49,9.49,0,0,1-1.75.42,6.26,6.26,0,0,1-1.06,0H172.53a6.23,6.23,0,0,1-2.23-.3.88.88,0,0,1-.52-.83.78.78,0,0,1,.53-.68,12,12,0,0,1,1.33-.27,6.74,6.74,0,0,1,.9,0c2,0,4,0,6.06,0a21.32,21.32,0,0,0,4.36-.47,5.29,5.29,0,0,0,1.75-.81,1.77,1.77,0,0,0,.86-1.51c.06-1.41.25-2.81.25-4.22q0-30.51,0-61C185.83,27.85,185.79,27.4,185.77,27Z"/><path class="cls-1" d="M307.81,81.81a4.31,4.31,0,0,0-.84.43c-.73.61-1.48,1.19-2.27,1.73A17.07,17.07,0,0,1,300,86a12.57,12.57,0,0,1-3.28.54,23.68,23.68,0,0,1-5.57-.25,36,36,0,0,1-4.24-1.06,19.66,19.66,0,0,1-6.43-3.51,24.86,24.86,0,0,1-4.55-4.78,32.2,32.2,0,0,1-2.47-4.11,29,29,0,0,1-2.56-8,31.26,31.26,0,0,1-.34-3.61c-.08-1.11-.2-2.22-.18-3.32s.28-2.3.33-3.45a22.52,22.52,0,0,1,1-5.48,26.2,26.2,0,0,1,3.15-6.79,26.55,26.55,0,0,1,4.91-5.46A21.28,21.28,0,0,1,286.3,33a24.68,24.68,0,0,1,8.57-1.56,22,22,0,0,1,5.12.39,14.23,14.23,0,0,1,4.69,1.95,16.58,16.58,0,0,1,2.71,2.14,3.11,3.11,0,0,0,.87.4v-1c0-6.26,0-12.51,0-18.77,0-2.22-.2-4.44-.38-6.65a8.32,8.32,0,0,0-.52-2.19,2.44,2.44,0,0,0-1.16-1.32,7.66,7.66,0,0,0-3.51-.78l-3.48-.09a1.66,1.66,0,0,1-1.1-.4c-.45-.38-.46-.76,0-1.07a2.1,2.1,0,0,1,1.28-.38c.95,0,1.92,0,2.87,0,2.22-.14,4.43-.32,6.64-.5a9.29,9.29,0,0,0,1-.22c.39-.09.78-.21,1.17-.26a36.91,36.91,0,0,0,6.49-1.37c1.21-.36,2.42-.69,3.63-1a4.94,4.94,0,0,1,.75-.14c1.17-.15,1.72.25,1.83,1.41a18.35,18.35,0,0,1,.08,2q0,32.4,0,64.81c0,3.18,0,6.36,0,9.54a7,7,0,0,0,.4,2.21,1.77,1.77,0,0,0,1.5,1.31,11.27,11.27,0,0,0,3.42.48,3.21,3.21,0,0,1,.75.06c.32,0,.61.23.59.58a1.28,1.28,0,0,1-.33.78,1.59,1.59,0,0,1-.83.32,8.16,8.16,0,0,1-1.21,0c-2.52,0-5.05,0-7.57.09a21.49,21.49,0,0,0-5.78,1,48,48,0,0,0-4.66,1.69c-1.07.44-1.62.13-1.83-1-.09-.45-.11-.9-.16-1.35A15.65,15.65,0,0,0,307.81,81.81Zm.45-23.21c0-4.24,0-8.48,0-12.72a23.7,23.7,0,0,0-.33-4.37,9.49,9.49,0,0,0-2.25-4.85,6.53,6.53,0,0,0-5-2.44h-1.51a7.11,7.11,0,0,0-4.07,1.37,11,11,0,0,0-3.78,4.78,32.18,32.18,0,0,0-2.28,7.95,79.88,79.88,0,0,0-.72,10.25c-.07,1.51.1,3,.15,4.53a41,41,0,0,0,1,8.54,27.13,27.13,0,0,0,2.59,7,9.77,9.77,0,0,0,4.31,4.22,6.92,6.92,0,0,0,5.71.28,8.85,8.85,0,0,0,4.78-4.39,14.29,14.29,0,0,0,1.4-6.43C308.27,67.79,308.26,63.19,308.26,58.6Z"/><path class="cls-1" d="M383.25,41.68l-.95.56a2.26,2.26,0,0,1-1.62-1.81,38.42,38.42,0,0,0-1.87-5.1,22.8,22.8,0,0,0-3.88-6.22,18.25,18.25,0,0,0-14.09-6.4c-.65,0-1.31,0-2,0a12.28,12.28,0,0,0-5.31,1.06,11.21,11.21,0,0,0-6.52,6.68,9.66,9.66,0,0,0,1.32,9.19,7.51,7.51,0,0,0,1.83,1.77,27.17,27.17,0,0,0,5.36,3c1.74.67,3.43,1.44,5.15,2.15.6.25,1.21.49,1.83.69,2.63.81,5.15,1.95,7.72,2.92,1.35.51,2.59,1.29,3.91,1.87s2.41,1.24,3.6,1.89a28.18,28.18,0,0,1,6.17,4.49,16.92,16.92,0,0,1,3.44,4.91,24.65,24.65,0,0,1,2,7.69,30.7,30.7,0,0,1-.16,7.84,25.11,25.11,0,0,1-6.06,13.55,23.85,23.85,0,0,1-9.4,6.53,24.76,24.76,0,0,1-8.08,1.69,40.27,40.27,0,0,1-4.53,0A36.5,36.5,0,0,1,355,99.37c-2.58-.68-5-1.68-7.58-2.5a17.93,17.93,0,0,0-4.68-1.16c-.7,0-1.41,0-2.11,0a3.49,3.49,0,0,0-3,2.18c-.33.67-.6,1.37-1,2-.22.36-.5.81-1.07.69a1.32,1.32,0,0,1-.83-1.16,4.53,4.53,0,0,1,.05-.9A105,105,0,0,0,335.37,86c0-3.43,0-6.86,0-10.29a6.92,6.92,0,0,1,.05-1.21,1.07,1.07,0,0,1,.75-.86,1,1,0,0,1,1.15.53,8.16,8.16,0,0,1,.83,2.73,24.76,24.76,0,0,0,5.37,11.43,29.88,29.88,0,0,0,7.29,6.2,27.13,27.13,0,0,0,4.9,2.24c2.35.91,4.84.91,7.26,1.31a2.42,2.42,0,0,0,.76,0,33.3,33.3,0,0,0,3.88-.59,10.89,10.89,0,0,0,5.05-2.87,12.23,12.23,0,0,0,3.71-7.85,14.54,14.54,0,0,0-.32-4.79,9.77,9.77,0,0,0-2.31-4,10.27,10.27,0,0,0-3.94-2.69c-2.41-1-4.83-2-7.27-2.91-1.21-.47-2.49-.78-3.71-1.24-1.88-.7-3.78-1.36-5.62-2.19s-3.43-1.62-5.11-2.52a31.87,31.87,0,0,1-6.9-5,20.68,20.68,0,0,1-3.56-4.64,19.3,19.3,0,0,1-2.09-5,36.9,36.9,0,0,1-.76-4.93,25.11,25.11,0,0,1,.64-8.55A19.53,19.53,0,0,1,337,33.81a25.06,25.06,0,0,1,4.13-6.09,24.38,24.38,0,0,1,6.2-4.94,22.46,22.46,0,0,1,5.42-2.18,23.28,23.28,0,0,1,9.9-.42c1,.19,2,.27,3,.47,1.77.38,3.53.8,5.29,1.22,1,.24,2,.56,3.08.75a4.69,4.69,0,0,0,2.22-.17c2-.58,3-2.05,3.95-3.7.2-.35.33-.74.52-1.09s.46-.7.95-.6a1.09,1.09,0,0,1,1,.83,9,9,0,0,1,.21,1.79c0,.9-.16,1.81-.18,2.71,0,2.37-.1,4.74-.07,7.11,0,3.43.46,6.84.73,10.26A15.34,15.34,0,0,1,383.25,41.68Z"/><path class="cls-1" d="M247.58,77.19l-2,2.64a16.28,16.28,0,0,1-5.63,4.9,11.35,11.35,0,0,1-4.41,1.44c-.75.06-1.5.26-2.25.3a13.2,13.2,0,0,1-6.42-1.38,9.72,9.72,0,0,1-3.49-3,12.27,12.27,0,0,1-2.21-9.15,14,14,0,0,1,1.34-4.62,14.92,14.92,0,0,1,5.15-5.74,28.54,28.54,0,0,1,6.73-3.28c1.63-.55,3.28-1,4.94-1.35,2.41-.57,4.86-.85,7.31-1.2a1.53,1.53,0,0,0,.37-.16,4.15,4.15,0,0,0,.15-.78c0-4-.05-8-.14-12a18.64,18.64,0,0,0-.95-5.64,7.3,7.3,0,0,0-4.91-4.88,10.4,10.4,0,0,0-6.66,0,7.54,7.54,0,0,0-3.19,1.92,6.47,6.47,0,0,0-1.71,2.24c-.15.43-.36.83-.47,1.26a1.21,1.21,0,0,0,.81,1.69,17.6,17.6,0,0,0,2.2.51,8.1,8.1,0,0,1,1.32.25,4.16,4.16,0,0,1,2.65,3.4,13.55,13.55,0,0,1,.06,2.55,6,6,0,0,1-5.6,5.31,13.5,13.5,0,0,1-2.11,0,7.38,7.38,0,0,1-6.34-5.26,8.33,8.33,0,0,1,.15-5.22,12.89,12.89,0,0,1,3.19-5,19.17,19.17,0,0,1,5-3.58,19.84,19.84,0,0,1,6.94-1.91,45.33,45.33,0,0,1,10.41.24c.15,0,.3.07.45.08a19.59,19.59,0,0,1,5.13,1.16A12.56,12.56,0,0,1,258.69,36a9.45,9.45,0,0,1,2.06,3.1A16.56,16.56,0,0,1,262,43.41a51.45,51.45,0,0,1,.52,6.32q0,12.27,0,24.53c0,.8.08,1.61.09,2.41a6.89,6.89,0,0,0,.76,2.75c.89,1.91,2.2,2.12,3.82,1.68a5.66,5.66,0,0,0,2-1.09c.74-.59,1.48-1.2,2.23-1.79.43-.33.69-.35.92-.11a.83.83,0,0,1,.23,1.09,9.89,9.89,0,0,1-1.29,1.65,17.06,17.06,0,0,1-6.3,4A19.58,19.58,0,0,1,255.71,86a12.6,12.6,0,0,1-3.49-.94,6.49,6.49,0,0,1-3.43-3.83c-.33-.9-.54-1.84-.81-2.76C247.89,78.14,247.78,77.82,247.58,77.19Zm-.49-18.83a31.82,31.82,0,0,0-3.86,1.25c-4.6,1.87-6.92,5.4-7.53,10.18a14.6,14.6,0,0,0,.53,6.12,5,5,0,0,0,4.12,3.9,4.64,4.64,0,0,0,5.29-2.75,17.9,17.9,0,0,0,1.44-6.73c.1-3.62.1-7.24.14-10.87C247.22,59.17,247.15,58.88,247.09,58.36Z"/><path class="cls-2" d="M1.92,50.17c.12,1,.25,1.83.32,2.68a12.45,12.45,0,0,0,1.91,5.48,17.69,17.69,0,0,0,8.92,7.31,45.36,45.36,0,0,0,6.06,1.8,56.22,56.22,0,0,0,8.35,1.13,92.72,92.72,0,0,0,10.14.13c2.2,0,4.4-.47,6.61-.64a34.67,34.67,0,0,0,4.86-1,23.16,23.16,0,0,0,7.48-3.1,19.47,19.47,0,0,0,6-5.86,14.14,14.14,0,0,0,2.21-6.65,8.65,8.65,0,0,1,.11-.89c0-.09.09-.18.2-.36l1.28-.06a3.64,3.64,0,0,1,.19.78q0,3,0,6.06a53.73,53.73,0,0,1-1,10.21A38,38,0,0,1,59,82.44a26,26,0,0,1-5.78,5.68,27.4,27.4,0,0,1-8.21,4.07A23.37,23.37,0,0,1,39.3,93.4c-1.51.07-3,.36-4.52.38s-3.22-.13-4.83-.23c-.45,0-.9-.14-1.35-.14a22.37,22.37,0,0,1-5.92-1.17,30.17,30.17,0,0,1-9.29-4.58,26.31,26.31,0,0,1-5.86-5.82,36.07,36.07,0,0,1-3.64-6.4A45.13,45.13,0,0,1,.69,64.18C.46,62.64.38,61.07.21,59.52-.07,56.9,0,54.28,0,51.66a6.43,6.43,0,0,1,0-.76c0-.53.23-.75.73-.78C1.09,50.1,1.44,50.15,1.92,50.17Z"/><path class="cls-3" d="M17.42,43.41a9.93,9.93,0,0,1-8.29-4.15,8.43,8.43,0,0,1-2-5.58c0-.45,0-.91,0-1.36a9.77,9.77,0,0,1,4.31-7.89,10.51,10.51,0,0,1,7.87-1.75,9.64,9.64,0,0,1,5.78,2.92,11.28,11.28,0,0,1,2.46,4.09c.68,1.74.44,3.46.43,5.21a11.11,11.11,0,0,1-4.22,6.57,10.57,10.57,0,0,1-3.64,1.71A17.26,17.26,0,0,1,17.42,43.41Z"/><path class="cls-4" d="M33.31,40.79a7.61,7.61,0,0,1,.09-1,24,24,0,0,1,.77-2.91c.65-1.75.83-3.61,1.45-5.37a7.3,7.3,0,0,1,3.62-4.25,6.48,6.48,0,0,1,2.48-.57c2.25-.17,4.53-.17,6.78-.34,3-.23,6-.23,9.06-.34,1.14,0,2.29-.27,3.44-.39a10.16,10.16,0,0,1,1.35-.05,4.75,4.75,0,0,1,.77.11,5.07,5.07,0,0,1,0,1.24,51.74,51.74,0,0,1-1.54,5.2,8.63,8.63,0,0,1-4.12,4.43c-1.29.22-2.57.54-3.87.64-1.55.12-3.12,0-4.69.09s-3.31.16-5,.23c-.85,0-1.71.09-2.57.05a12.36,12.36,0,0,0-4,.64A8.21,8.21,0,0,0,33.31,40.79Z"/></g></g></svg>