<svg xmlns="http://www.w3.org/2000/svg" xmlns:xlink="http://www.w3.org/1999/xlink" viewBox="0 0 754.59 866.61"><defs><style>.cls-1{isolation:isolate;}.cls-2{fill-opacity:0.2;fill:url(#linear-gradient);}.cls-2,.cls-4{opacity:0.5;}.cls-10,.cls-11,.cls-3,.cls-4,.cls-5,.cls-9{mix-blend-mode:screen;}.cls-4{fill:url(#linear-gradient-2);}.cls-5,.cls-6{fill:url(#linear-gradient-3);}.cls-7{fill:url(#linear-gradient-5);}.cls-8{fill:url(#linear-gradient-6);}.cls-9{fill:url(#radial-gradient);}.cls-10{fill:url(#radial-gradient-2);}.cls-11{fill:url(#radial-gradient-3);}.cls-12,.cls-13,.cls-14,.cls-15{mix-blend-mode:color-dodge;}.cls-12{fill:url(#radial-gradient-4);}.cls-13{fill:url(#radial-gradient-5);}.cls-14{fill:url(#radial-gradient-6);}.cls-15{fill:url(#radial-gradient-7);}.cls-16{fill:url(#linear-gradient-7);}</style><linearGradient id="linear-gradient" x1="-1215.28" y1="700.92" x2="-718.81" y2="1117.3" gradientTransform="translate(965.81 -800.69) rotate(-22.28)" gradientUnits="userSpaceOnUse"><stop offset="0" stop-color="#37b8f9" stop-opacity="0.2"/><stop offset="0.07" stop-color="#37b8f9" stop-opacity="0.28"/><stop offset="0.2" stop-color="#37b8f9" stop-opacity="0.49"/><stop offset="0.4" stop-color="#37b8f9" stop-opacity="0.83"/><stop offset="0.49" stop-color="#37b8f9"/><stop offset="0.76" stop-color="#37b8f9"/><stop offset="0.76" stop-color="#37b8f9" stop-opacity="0.99"/><stop offset="0.82" stop-color="#37b8f9" stop-opacity="0.81"/><stop offset="0.87" stop-color="#37b8f9" stop-opacity="0.68"/><stop offset="0.92" stop-color="#37b8f9" stop-opacity="0.58"/><stop offset="0.96" stop-color="#37b8f9" stop-opacity="0.52"/><stop offset="1" stop-color="#37b8f9" stop-opacity="0.5"/></linearGradient><linearGradient id="linear-gradient-2" x1="-1315.49" y1="616.88" x2="-665.14" y2="1162.3" gradientTransform="translate(965.81 -800.69) rotate(-22.28)" gradientUnits="userSpaceOnUse"><stop offset="0" stop-color="#30cfff"/><stop offset="0.23" stop-color="#65aef8"/><stop offset="0.6" stop-color="#b77bed"/><stop offset="0.87" stop-color="#eb5ae7"/><stop offset="1" stop-color="#ff4ee4"/></linearGradient><linearGradient id="linear-gradient-3" x1="-1251.93" y1="292.25" x2="-664.45" y2="1309.81" gradientTransform="translate(965.81 -800.69) rotate(-22.28)" gradientUnits="userSpaceOnUse"><stop offset="0" stop-color="#30cfff"/><stop offset="0.13" stop-color="#34ccfe"/><stop offset="0.27" stop-color="#41c4fd"/><stop offset="0.41" stop-color="#57b7fa"/><stop offset="0.56" stop-color="#75a4f6"/><stop offset="0.71" stop-color="#9b8cf1"/><stop offset="0.85" stop-color="#ca6feb"/><stop offset="1" stop-color="#ff4ee4"/></linearGradient><linearGradient id="linear-gradient-5" x1="-967.07" y1="295.33" x2="-504.05" y2="1097.3" xlink:href="#linear-gradient-3"/><linearGradient id="linear-gradient-6" x1="-1274.62" y1="604.97" x2="-748.31" y2="1516.57" gradientTransform="translate(965.81 -800.69) rotate(-22.28)" gradientUnits="userSpaceOnUse"><stop offset="0" stop-color="#30cfff"/><stop offset="0.04" stop-color="#47c0fc"/><stop offset="0.11" stop-color="#72a6f6"/><stop offset="0.2" stop-color="#988ef1"/><stop offset="0.29" stop-color="#b87aed"/><stop offset="0.38" stop-color="#d26aea"/><stop offset="0.49" stop-color="#e65ee7"/><stop offset="0.6" stop-color="#f455e5"/><stop offset="0.75" stop-color="#fd50e4"/><stop offset="1" stop-color="#ff4ee4"/></linearGradient><radialGradient id="radial-gradient" cx="4181.25" cy="-6425.29" r="312.73" gradientTransform="matrix(0.13, 0.74, -0.24, 0.39, -1831.28, 96.86)" gradientUnits="userSpaceOnUse"><stop offset="0" stop-color="#9272ff"/><stop offset="0.03" stop-color="#8a5bf7"/><stop offset="0.09" stop-color="#7e38eb"/><stop offset="0.14" stop-color="#7622e3"/><stop offset="0.17" stop-color="#731ae0"/><stop offset="0.21" stop-color="#731ae0" stop-opacity="0.89"/><stop offset="0.29" stop-color="#731ae0" stop-opacity="0.66"/><stop offset="0.38" stop-color="#731ae0" stop-opacity="0.45"/><stop offset="0.46" stop-color="#731ae0" stop-opacity="0.29"/><stop offset="0.55" stop-color="#731ae0" stop-opacity="0.16"/><stop offset="0.64" stop-color="#731ae0" stop-opacity="0.07"/><stop offset="0.72" stop-color="#731ae0" stop-opacity="0.02"/><stop offset="0.8" stop-color="#731ae0" stop-opacity="0"/></radialGradient><radialGradient id="radial-gradient-2" cx="3784.43" cy="-4929.21" r="312.74" gradientTransform="matrix(0.13, 0.79, -0.24, 0.41, -1421.45, -248.03)" gradientUnits="userSpaceOnUse"><stop offset="0" stop-color="#fff"/><stop offset="0.17" stop-color="#fff"/><stop offset="0.24" stop-color="#fff" stop-opacity="0.78"/><stop offset="0.32" stop-color="#fff" stop-opacity="0.58"/><stop offset="0.41" stop-color="#fff" stop-opacity="0.4"/><stop offset="0.49" stop-color="#fff" stop-opacity="0.26"/><stop offset="0.57" stop-color="#fff" stop-opacity="0.14"/><stop offset="0.65" stop-color="#fff" stop-opacity="0.06"/><stop offset="0.73" stop-color="#fff" stop-opacity="0.02"/><stop offset="0.8" stop-color="#fff" stop-opacity="0"/></radialGradient><radialGradient id="radial-gradient-3" cx="3798.42" cy="-5598.08" r="140.38" gradientTransform="matrix(0.77, 0.19, 0.29, 0.38, -752.68, 1540.19)" gradientUnits="userSpaceOnUse"><stop offset="0" stop-color="#fff"/><stop offset="0.17" stop-color="#fff"/><stop offset="0.24" stop-color="#fffacb" stop-opacity="0.78"/><stop offset="0.32" stop-color="#fff49a" stop-opacity="0.58"/><stop offset="0.41" stop-color="#fff06f" stop-opacity="0.4"/><stop offset="0.49" stop-color="#ffec4d" stop-opacity="0.26"/><stop offset="0.57" stop-color="#ffea32" stop-opacity="0.14"/><stop offset="0.65" stop-color="#ffe81f" stop-opacity="0.06"/><stop offset="0.73" stop-color="#ffe614" stop-opacity="0.02"/><stop offset="0.8" stop-color="#ffe610" stop-opacity="0"/></radialGradient><radialGradient id="radial-gradient-4" cx="4219.81" cy="-4582.71" r="201.57" gradientTransform="matrix(0.76, 0.26, 0.19, 0.49, -1792.91, 1297.14)" gradientUnits="userSpaceOnUse"><stop offset="0" stop-color="#fff"/><stop offset="0.04" stop-color="#fce8fb" stop-opacity="0.9"/><stop offset="0.12" stop-color="#f5b9f2" stop-opacity="0.69"/><stop offset="0.21" stop-color="#f090ea" stop-opacity="0.51"/><stop offset="0.3" stop-color="#eb6de3" stop-opacity="0.35"/><stop offset="0.39" stop-color="#e751de" stop-opacity="0.22"/><stop offset="0.48" stop-color="#e43bd9" stop-opacity="0.12"/><stop offset="0.58" stop-color="#e22bd6" stop-opacity="0.05"/><stop offset="0.68" stop-color="#e022d5" stop-opacity="0.01"/><stop offset="0.8" stop-color="#e01fd4" stop-opacity="0"/></radialGradient><radialGradient id="radial-gradient-5" cx="4258" cy="-4764.43" r="201.55" gradientTransform="matrix(0.24, 0.79, -0.45, 0.42, -2848.57, -906.15)" xlink:href="#radial-gradient-4"/><radialGradient id="radial-gradient-6" cx="4547.23" cy="-4776.37" r="201.55" gradientTransform="matrix(0.24, 0.79, -0.45, 0.42, -2693.64, -1077.95)" xlink:href="#radial-gradient-4"/><radialGradient id="radial-gradient-7" cx="4598.8" cy="-4996.75" r="201.55" gradientTransform="matrix(0.24, 0.43, -0.45, 0.23, -2920.58, -536.9)" xlink:href="#radial-gradient-4"/><linearGradient id="linear-gradient-7" x1="240.35" y1="388.02" x2="554.38" y2="388.02" gradientUnits="userSpaceOnUse"><stop offset="0" stop-color="#fff" stop-opacity="0.2"/><stop offset="0" stop-color="#fff" stop-opacity="0.28"/><stop offset="0" stop-color="#fff" stop-opacity="0.48"/><stop offset="0" stop-color="#fff" stop-opacity="0.5"/><stop offset="1" stop-color="#fff"/></linearGradient></defs><title>Inte</title><g class="cls-1"><g id="Capa_2" data-name="Capa 2"><g id="Graphic_Element" data-name="Graphic Element"><path class="cls-2" d="M715.52,284.35A323.54,323.54,0,1,1,645.71,179,324.13,324.13,0,0,1,715.52,284.35Z"/><g class="cls-3"><g class="cls-3"><path class="cls-4" d="M649.21,175.49a329.35,329.35,0,1,0,70.87,107A329.52,329.52,0,0,0,649.21,175.49Zm90.54,232.93a324.42,324.42,0,1,1-24.23-124.07A324.65,324.65,0,0,1,739.75,408.42Z"/><path class="cls-5" d="M723.15,549.44A337.27,337.27,0,0,1,584.53,700.9l-11.94-21.59A312.81,312.81,0,0,0,700.76,539.07c27.33-59.07,35.77-125.8,24-188.5l24.19-4.88C761.76,413.5,752.68,485.65,723.15,549.44Z"/><path class="cls-6" d="M748.9,345.69c12.86,67.81,3.78,140-25.75,203.75A337.27,337.27,0,0,1,584.53,700.9l-11.94-21.59A312.81,312.81,0,0,0,700.76,539.07c27.33-59.07,35.77-125.8,24-188.5Z"/><path class="cls-7" d="M726.81,273.08,704,282.5a313.33,313.33,0,0,0-172.11-167l8.76-23.07a342.32,342.32,0,0,1,111.1,71.77A338.41,338.41,0,0,1,726.81,273.08Z"/><path class="cls-8" d="M361.32,716.6,357.42,741a342,342,0,0,1-175.64-88.75C132.67,605.61,98,543,84,475.91A338.73,338.73,0,0,1,229.71,124.12L242.92,145A314,314,0,0,0,108.19,470.89c12.93,62.25,45.12,120.32,90.63,163.48A316.94,316.94,0,0,0,361.32,716.6Z"/></g></g><ellipse class="cls-9" cx="242.67" cy="682.09" rx="84.96" ry="261.94" transform="translate(-429.54 413.27) rotate(-48.62)"/><ellipse class="cls-10" cx="242.67" cy="682.09" rx="84.95" ry="278.03" transform="translate(-467.31 540.48) rotate(-59.14)"/><path class="cls-11" d="M672.9,138.21c22.48,29.59-7.95,41.86-68,27.39S478.05,115.42,455.57,85.82s7.95-41.87,68-27.4S650.42,108.61,672.9,138.21Z"/><path class="cls-12" d="M718.1,163.44c21,54.94-30.91,76.46-115.89,48.05s-170.87-96-191.84-150.91,30.91-76.45,115.89-48S697.13,108.5,718.1,163.44Z"/><ellipse class="cls-13" cx="302.28" cy="464.12" rx="102.42" ry="179.18" transform="translate(-251.18 485.5) rotate(-59.14)"/><ellipse class="cls-14" cx="531.16" cy="514.76" rx="102.42" ry="179.18" transform="translate(-183.19 706.63) rotate(-59.14)"/><ellipse class="cls-15" cx="415.74" cy="316.15" rx="102.42" ry="99.13" transform="matrix(0.51, -0.86, 0.86, 0.51, -68.92, 510.83)"/><path class="cls-16" d="M567.54,486.92a36.7,36.7,0,0,0-73.3-1.71l-167.73-2.32A36.51,36.51,0,0,0,319.32,466l89.42-145.85a36.45,36.45,0,0,0,17.06,4.25,38.12,38.12,0,0,0,4.63-.29,36.76,36.76,0,1,0-32.31-12.37l-89,145.19a36.7,36.7,0,1,0-19,68.18,38.68,38.68,0,0,0,4.68-.29,36.79,36.79,0,0,0,31.25-28.45l169.7,2.35a36.72,36.72,0,0,0,35,25.85l.93,0a36.7,36.7,0,0,0,35.79-37.6ZM422.91,264.59a24.25,24.25,0,0,1,2.93-.18,23.29,23.29,0,0,1,23.06,20.34h0a23.25,23.25,0,1,1-26-20.16ZM293.15,511.44a23.25,23.25,0,1,1-5.84-46.14,24.42,24.42,0,0,1,2.94-.18,23.25,23.25,0,0,1,2.9,46.32Zm254.54-7.58a23.25,23.25,0,1,1-17.42-39.28h.59a23.25,23.25,0,0,1,23.23,22.68h0A23.07,23.07,0,0,1,547.69,503.86Z"/></g></g></g></svg>