<svg xmlns="http://www.w3.org/2000/svg" xmlns:xlink="http://www.w3.org/1999/xlink" viewBox="0 0 500.03 545.39"><defs><style>.cls-1{fill:url(#Degradado_sin_nombre_16);}.cls-2{fill:url(#Degradado_sin_nombre_16-2);}.cls-3{fill:url(#Degradado_sin_nombre_13);}.cls-4{fill:url(#Degradado_sin_nombre_9);}.cls-5{fill:url(#Degradado_sin_nombre_9-2);}.cls-6{fill:url(#Degradado_sin_nombre_9-3);}.cls-7{fill:url(#Degradado_sin_nombre_9-4);}.cls-8{fill:url(#Degradado_sin_nombre_32);}.cls-9{fill:#e6e7e8;}.cls-10{fill:#dedddd;}.cls-11{fill:#d3d3d3;}.cls-12{fill:url(#Degradado_sin_nombre_32-2);}.cls-13{fill:url(#Degradado_sin_nombre_32-3);}.cls-14{fill:url(#Degradado_sin_nombre_32-4);}</style><linearGradient id="Degradado_sin_nombre_16" x1="91.91" y1="218.39" x2="91.91" y2="463.78" gradientUnits="userSpaceOnUse"><stop offset="0" stop-color="#fff" stop-opacity="0.7"/><stop offset="0.01" stop-color="#fff" stop-opacity="0.69"/><stop offset="0.13" stop-color="#fff" stop-opacity="0.51"/><stop offset="0.26" stop-color="#fff" stop-opacity="0.35"/><stop offset="0.4" stop-color="#fff" stop-opacity="0.22"/><stop offset="0.53" stop-color="#fff" stop-opacity="0.13"/><stop offset="0.68" stop-color="#fff" stop-opacity="0.06"/><stop offset="0.83" stop-color="#fff" stop-opacity="0.01"/><stop offset="1" stop-color="#fff" stop-opacity="0"/></linearGradient><linearGradient id="Degradado_sin_nombre_16-2" x1="409.31" y1="218.39" x2="409.31" y2="463.78" xlink:href="#Degradado_sin_nombre_16"/><linearGradient id="Degradado_sin_nombre_13" x1="250.6" y1="300" x2="250.6" y2="545.39" gradientUnits="userSpaceOnUse"><stop offset="0" stop-color="#fff" stop-opacity="0.7"/><stop offset="0.19" stop-color="#fff" stop-opacity="0.49"/><stop offset="0.38" stop-color="#fff" stop-opacity="0.32"/><stop offset="0.56" stop-color="#fff" stop-opacity="0.18"/><stop offset="0.72" stop-color="#fff" stop-opacity="0.08"/><stop offset="0.88" stop-color="#fff" stop-opacity="0.02"/><stop offset="1" stop-color="#fff" stop-opacity="0"/></linearGradient><linearGradient id="Degradado_sin_nombre_9" x1="175.08" y1="212.21" x2="175.08" y2="457.59" gradientUnits="userSpaceOnUse"><stop offset="0" stop-color="#fff"/><stop offset="0.02" stop-color="#fff" stop-opacity="0.96"/><stop offset="0.18" stop-color="#fff" stop-opacity="0.71"/><stop offset="0.34" stop-color="#fff" stop-opacity="0.5"/><stop offset="0.49" stop-color="#fff" stop-opacity="0.32"/><stop offset="0.64" stop-color="#fff" stop-opacity="0.18"/><stop offset="0.78" stop-color="#fff" stop-opacity="0.08"/><stop offset="0.9" stop-color="#fff" stop-opacity="0.02"/><stop offset="1" stop-color="#fff" stop-opacity="0"/></linearGradient><linearGradient id="Degradado_sin_nombre_9-2" x1="326.09" y1="213.43" x2="326.09" y2="458.81" xlink:href="#Degradado_sin_nombre_9"/><linearGradient id="Degradado_sin_nombre_9-3" x1="21.7" y1="134.96" x2="21.7" y2="380.35" xlink:href="#Degradado_sin_nombre_9"/><linearGradient id="Degradado_sin_nombre_9-4" x1="479.54" y1="134" x2="479.54" y2="379.39" xlink:href="#Degradado_sin_nombre_9"/><linearGradient id="Degradado_sin_nombre_32" y1="135.94" x2="191.84" y2="135.94" gradientUnits="userSpaceOnUse"><stop offset="0" stop-color="#fff"/><stop offset="0.22" stop-color="#edeeee"/><stop offset="0.73" stop-color="#cacbcd"/><stop offset="1" stop-color="#bcbec0"/></linearGradient><linearGradient id="Degradado_sin_nombre_32-2" x1="158.12" y1="64.27" x2="342.57" y2="64.27" xlink:href="#Degradado_sin_nombre_32"/><linearGradient id="Degradado_sin_nombre_32-3" x1="151.09" y1="213.43" x2="350.03" y2="213.43" xlink:href="#Degradado_sin_nombre_32"/><linearGradient id="Degradado_sin_nombre_32-4" x1="308.58" y1="135.94" x2="500" y2="135.94" xlink:href="#Degradado_sin_nombre_32"/></defs><title>Inte</title><g id="Capa_2" data-name="Capa 2"><g id="Objects"><polygon class="cls-1" points="140.4 463.78 43.52 463.78 43.36 218.39 140.47 218.76 140.4 463.78"/><polygon class="cls-2" points="458.97 463.78 359.74 463.78 359.57 218.39 459.04 218.76 458.97 463.78"/><polygon class="cls-3" points="302.06 545.39 199.24 545.39 199.07 300 302.13 300.36 302.06 545.39"/><polygon class="cls-4" points="199.04 457.59 151.17 457.59 151.09 212.21 199.07 212.57 199.04 457.59"/><polygon class="cls-5" points="350.01 458.81 302.21 458.81 302.13 213.43 350.04 213.79 350.01 458.81"/><polygon class="cls-6" points="43.38 380.35 0.07 380.35 0 134.96 43.41 135.32 43.38 380.35"/><polygon class="cls-7" points="500 379.39 459.12 379.39 459.05 134 500.04 134.36 500 379.39"/><polygon class="cls-8" points="40.54 205.5 140.43 205.5 191.84 134.04 147.95 66.39 55.17 66.39 0 134.04 40.54 205.5"/><polygon class="cls-9" points="0 134.04 2.72 147.99 43.05 218.39 40.54 205.5 0 134.04"/><polygon class="cls-9" points="158.12 62.3 158.12 74.42 202.42 141.23 202.42 128.54 158.12 62.3"/><polygon class="cls-10" points="202.42 128.54 298.55 128.54 298.55 139.96 202.42 141.23 202.42 128.54"/><polygon class="cls-11" points="298.55 128.54 342.57 62.3 342.57 74.42 298.55 139.96 298.55 128.54"/><polygon class="cls-12" points="158.12 62.3 205.77 0 295.21 0 342.57 62.3 298.55 128.54 202.42 128.54 158.12 62.3"/><polygon class="cls-10" points="140.43 205.5 140.43 218.39 43.05 218.39 40.54 205.5 140.43 205.5"/><polygon class="cls-11" points="140.43 218.39 191.84 147.78 191.84 134.04 140.43 205.5 140.43 218.39"/><polygon class="cls-10" points="199.15 300 199.15 288.37 302.17 288.37 302.13 300.36 199.15 300"/><polygon class="cls-9" points="199.15 288.37 151.09 211.21 151.09 222.62 199.15 300 199.15 288.37"/><polygon class="cls-11" points="302.17 288.37 350.03 211.21 350.03 221.78 302.17 300 302.17 288.37"/><polygon class="cls-13" points="151.09 211.21 202.7 138.48 298.41 138.48 350.03 211.21 302.17 288.37 199.15 288.37 151.09 211.21"/><polygon class="cls-9" points="308.58 134.88 308.58 148.56 359.57 218.39 359.57 205.5 308.58 134.88"/><rect class="cls-10" x="359.57" y="205.5" width="99.47" height="12.9"/><polygon class="cls-11" points="459.04 205.5 500 133.19 500 145.17 459.04 218.39 459.04 205.5"/><polygon class="cls-14" points="500 133.19 445.94 66.39 352.88 66.39 308.58 134.88 359.57 205.5 459.04 205.5 500 133.19"/></g></g></svg>