<svg xmlns="http://www.w3.org/2000/svg" viewBox="0 0 284 284"><defs><style>.cls-1{fill:#fff;}.cls-2{fill:#282828;}.cls-3{fill:none;}</style></defs><title>Recurso 37</title><g id="Capa_2" data-name="Capa 2"><g id="Capa_2-2" data-name="Capa 2"><circle class="cls-1" cx="142" cy="142" r="142"/><path class="cls-2" d="M149.61,153.77a67.4,67.4,0,0,0-11.16-3.7A118.54,118.54,0,0,1,125.3,146c-.51-.19-1-.39-1.49-.61a26.89,26.89,0,0,1-9.66-7.21,19.85,19.85,0,0,1-4.59-13.42,23.7,23.7,0,0,1,2.85-11.78c-.58-.61-1.19-1.21-1.81-1.8Q97.28,98.54,78.08,98.54T45.65,111.13A41,41,0,0,0,32.42,142a41,41,0,0,0,13.23,30.87q13.23,12.58,32.43,12.59T110.51,173l.09-.08a41.58,41.58,0,0,0,9.74-13c7,4.76,13.62,6.36,21.92,6.36q11.93,0,11.93-7.08C154.19,156.93,152.67,155.14,149.61,153.77Zm-56.36,2.95a21.12,21.12,0,0,1-15.16,5.8A20.81,20.81,0,0,1,63,156.72a21,21,0,0,1,0-29.44,20.81,20.81,0,0,1,15.07-5.8,21.12,21.12,0,0,1,15.16,5.8,20.83,20.83,0,0,1,0,29.44Z"/><path class="cls-3" d="M177,159.12a22.24,22.24,0,0,1-9.95,19.51q-9.95,6.84-24.82,6.83-21.3,0-31.75-12.51l.09-.08c5-4.68,7.74-8.27,9.74-13,7,4.76,13.62,6.36,21.92,6.36q11.93,0,11.93-7.08c0-2.19-1.52-4-4.58-5.35a67.4,67.4,0,0,0-11.16-3.7A118.54,118.54,0,0,1,125.3,146c-.51-.19-1-.39-1.49-.61a26.89,26.89,0,0,1-9.66-7.21,19.85,19.85,0,0,1-4.59-13.42,23.7,23.7,0,0,1,2.85-11.78,22.79,22.79,0,0,1,6.58-7.4q9.42-7,23.45-7a40.82,40.82,0,0,1,19.2,4.53,34.16,34.16,0,0,1,10,7.84,1.52,1.52,0,0,0-.22.22,42.57,42.57,0,0,0-9.07,13.5,29.5,29.5,0,0,0-19.9-7.16,13.18,13.18,0,0,0-7.19,1.82,5.57,5.57,0,0,0-2.85,4.93c0,2.19,1.53,4,4.58,5.35a62.72,62.72,0,0,0,11.17,3.62q5.59,1.34,11.18,3.27c.66.22,1.32.45,2,.69a25.28,25.28,0,0,1,11.15,8Q177,150.73,177,159.12Z"/><path class="cls-2" d="M229.27,100.84v9.72q-10-12-28.2-12a40,40,0,0,0-29.44,12.37,1.52,1.52,0,0,0-.22.22,42.57,42.57,0,0,0-9.07,13.5,29.5,29.5,0,0,0-19.9-7.16,13.18,13.18,0,0,0-7.19,1.82,5.57,5.57,0,0,0-2.85,4.93c0,2.19,1.53,4,4.58,5.35a62.72,62.72,0,0,0,11.17,3.62q5.59,1.34,11.18,3.27c.66.22,1.32.45,2,.69a25.28,25.28,0,0,1,11.15,8q4.59,5.6,4.59,14a22.92,22.92,0,0,1-4.7,14.66,39.9,39.9,0,0,0,28.74,11.68q18.18,0,28.2-12v9.72h22.31V100.84Zm-8.21,56.52q-6.28,6-15.83,6t-15.75-6q-6.21-6-6.2-15.36t6.2-15.36q6.21-6,15.75-6t15.83,6a21.92,21.92,0,0,1,0,30.72Z"/></g></g></svg>