<svg xmlns="http://www.w3.org/2000/svg" xmlns:xlink="http://www.w3.org/1999/xlink" viewBox="0 0 509.49 339.99"><defs><style>.cls-1{isolation:isolate;}.cls-13,.cls-2,.cls-41,.cls-42{opacity:0.5;}.cls-16,.cls-17,.cls-18,.cls-19,.cls-2,.cls-20,.cls-21,.cls-22,.cls-25,.cls-35,.cls-36,.cls-37,.cls-38,.cls-39,.cls-40,.cls-57,.cls-64,.cls-67,.cls-68{mix-blend-mode:color-dodge;}.cls-2{fill:url(#Degradado_sin_nombre_4);}.cls-10,.cls-11,.cls-12,.cls-13,.cls-15,.cls-3,.cls-4,.cls-6,.cls-7,.cls-8,.cls-9{fill:#27043d;}.cls-3,.cls-7{opacity:0.6;}.cls-10,.cls-11,.cls-12,.cls-13,.cls-14,.cls-3,.cls-4,.cls-41,.cls-43,.cls-44,.cls-45,.cls-46,.cls-47,.cls-48,.cls-49,.cls-5,.cls-50,.cls-51,.cls-52,.cls-53,.cls-54,.cls-9{mix-blend-mode:screen;}.cls-19,.cls-21,.cls-4{opacity:0.3;}.cls-10,.cls-6{opacity:0.8;}.cls-8,.cls-9{opacity:0.4;}.cls-12,.cls-14{opacity:0.2;}.cls-16{opacity:0.7;fill:url(#Degradado_sin_nombre_18);}.cls-17,.cls-22{opacity:0.15;}.cls-17{fill:url(#Degradado_sin_nombre_18-2);}.cls-18,.cls-20{opacity:0.1;}.cls-18{fill:url(#Degradado_sin_nombre_18-3);}.cls-19{fill:url(#New_Gradient_Swatch_copy_10);}.cls-20{fill:url(#Degradado_sin_nombre_18-4);}.cls-21{fill:url(#Degradado_sin_nombre_18-5);}.cls-22{fill:url(#Degradado_sin_nombre_18-6);}.cls-23,.cls-33{mix-blend-mode:multiply;}.cls-23{fill:url(#radial-gradient);}.cls-24{fill:url(#linear-gradient);}.cls-25{fill:url(#radial-gradient-2);}.cls-26{fill:url(#linear-gradient-2);}.cls-27{fill:url(#radial-gradient-3);}.cls-28{fill:url(#linear-gradient-3);}.cls-29{fill:url(#radial-gradient-4);}.cls-30{fill:url(#linear-gradient-4);}.cls-31{fill:url(#radial-gradient-5);}.cls-32{fill:url(#linear-gradient-5);}.cls-33{fill:#d1d3d4;}.cls-34{fill:url(#New_Gradient_Swatch_copy_9);}.cls-35{fill:url(#radial-gradient-6);}.cls-36{fill:url(#radial-gradient-7);}.cls-37{fill:url(#radial-gradient-8);}.cls-38{fill:url(#radial-gradient-9);}.cls-39{fill:url(#Degradado_sin_nombre_51);}.cls-40{fill:url(#Degradado_sin_nombre_49);}.cls-43{fill:url(#Degradado_sin_nombre_45);}.cls-44{fill:url(#Degradado_sin_nombre_52);}.cls-45{fill:url(#Degradado_sin_nombre_45-2);}.cls-46{fill:url(#Degradado_sin_nombre_45-3);}.cls-47{fill:url(#Degradado_sin_nombre_45-4);}.cls-48{fill:url(#Degradado_sin_nombre_45-5);}.cls-49{fill:url(#Degradado_sin_nombre_45-6);}.cls-50{fill:url(#Degradado_sin_nombre_45-7);}.cls-51{fill:url(#Degradado_sin_nombre_45-8);}.cls-52{fill:url(#Degradado_sin_nombre_45-9);}.cls-53{fill:url(#Degradado_sin_nombre_45-10);}.cls-54{fill:url(#Degradado_sin_nombre_45-11);}.cls-55{fill:url(#New_Gradient_Swatch_copy_17);}.cls-56{fill:url(#New_Gradient_Swatch_copy_8);}.cls-57{fill:url(#radial-gradient-10);}.cls-58{fill:url(#linear-gradient-6);}.cls-59{fill:url(#New_Gradient_Swatch_copy_8-2);}.cls-60{fill:url(#linear-gradient-7);}.cls-61{fill:url(#linear-gradient-8);}.cls-62{fill:url(#New_Gradient_Swatch_copy_8-3);}.cls-63{fill:url(#New_Gradient_Swatch_copy_8-4);}.cls-64{fill:url(#radial-gradient-11);}.cls-65{fill:url(#New_Gradient_Swatch_copy_8-5);}.cls-66{fill:url(#New_Gradient_Swatch_copy_8-6);}.cls-67{fill:url(#radial-gradient-12);}.cls-68{fill:url(#New_Gradient_Swatch_copy_6);}</style><radialGradient id="Degradado_sin_nombre_4" cx="-1136.53" cy="33" r="172.04" gradientTransform="translate(1151.01 133.87) scale(0.7 0.96)" gradientUnits="userSpaceOnUse"><stop offset="0" stop-color="#fa45c1"/><stop offset="0.21" stop-color="#cb389d" stop-opacity="0.81"/><stop offset="0.67" stop-color="#571843" stop-opacity="0.35"/><stop offset="1" stop-opacity="0"/></radialGradient><radialGradient id="Degradado_sin_nombre_18" cx="3602.93" cy="-603.97" r="28.19" gradientTransform="matrix(2.75, -0.23, 0.07, 0.9, -9608.62, 1630.18)" gradientUnits="userSpaceOnUse"><stop offset="0" stop-color="#dc3daa"/><stop offset="0.11" stop-color="#b5328c" stop-opacity="0.82"/><stop offset="0.28" stop-color="#7f2362" stop-opacity="0.58"/><stop offset="0.45" stop-color="#51173f" stop-opacity="0.37"/><stop offset="0.61" stop-color="#2e0d23" stop-opacity="0.21"/><stop offset="0.76" stop-color="#150610" stop-opacity="0.09"/><stop offset="0.89" stop-color="#050104" stop-opacity="0.02"/><stop offset="1" stop-opacity="0"/></radialGradient><radialGradient id="Degradado_sin_nombre_18-2" cx="6080.7" cy="-6361.24" r="28.19" gradientTransform="matrix(0.72, -1.5, 0.53, 0.26, -654.97, 11019.73)" xlink:href="#Degradado_sin_nombre_18"/><radialGradient id="Degradado_sin_nombre_18-3" cx="8213.49" cy="11681.18" r="28.19" gradientTransform="matrix(-1.65, 0.17, -0.06, -0.59, 14721.64, 5692.07)" xlink:href="#Degradado_sin_nombre_18"/><radialGradient id="New_Gradient_Swatch_copy_10" cx="3635.09" cy="13938.21" r="28.19" gradientTransform="matrix(-0.24, 1.64, -0.58, -0.09, 9379.68, -4585.77)" gradientUnits="userSpaceOnUse"><stop offset="0" stop-color="#dc3daa"/><stop offset="0.11" stop-color="#b5328c"/><stop offset="0.28" stop-color="#7f2362"/><stop offset="0.45" stop-color="#51173f"/><stop offset="0.61" stop-color="#2e0d23"/><stop offset="0.76" stop-color="#150610"/><stop offset="0.89" stop-color="#050104"/><stop offset="1"/></radialGradient><radialGradient id="Degradado_sin_nombre_18-4" cx="3300.57" cy="-1349.69" r="28.19" gradientTransform="matrix(1.92, -0.43, 0.2, 0.88, -5643.86, 2808.64)" xlink:href="#Degradado_sin_nombre_18"/><radialGradient id="Degradado_sin_nombre_18-5" cx="2199.88" cy="3421.34" r="28.19" gradientTransform="matrix(1.67, 1.04, -0.47, 0.76, -1623.07, -4615.34)" xlink:href="#Degradado_sin_nombre_18"/><radialGradient id="Degradado_sin_nombre_18-6" cx="2082.03" cy="4039.02" r="28.19" gradientTransform="matrix(1.58, 1.17, -0.53, 0.72, -835.97, -5153.75)" xlink:href="#Degradado_sin_nombre_18"/><radialGradient id="radial-gradient" cx="1149.16" cy="-4163.92" r="49.53" gradientTransform="translate(-975.48 2305.47) scale(1.18 0.49)" gradientUnits="userSpaceOnUse"><stop offset="0.19" stop-color="#5f5c5d"/><stop offset="1" stop-color="#fff"/></radialGradient><linearGradient id="linear-gradient" x1="-6528.49" y1="4993.7" x2="-6670.66" y2="4803.19" gradientTransform="translate(8529.65 1360.77) rotate(45)" gradientUnits="userSpaceOnUse"><stop offset="0.06" stop-color="#200041"/><stop offset="0.23" stop-color="#210243"/><stop offset="0.32" stop-color="#25084b"/><stop offset="0.39" stop-color="#2c1358"/><stop offset="0.42" stop-color="#311b61"/><stop offset="0.47" stop-color="#351f65"/><stop offset="0.53" stop-color="#422c73"/><stop offset="0.6" stop-color="#584188"/><stop offset="0.66" stop-color="#765fa7"/><stop offset="0.69" stop-color="#8770b8"/><stop offset="0.7" stop-color="#7e67ae"/><stop offset="0.73" stop-color="#5c468d"/><stop offset="0.76" stop-color="#442e75"/><stop offset="0.79" stop-color="#362066"/><stop offset="0.81" stop-color="#311b61"/><stop offset="0.86" stop-color="#2a1155"/><stop offset="0.94" stop-color="#230446"/><stop offset="1" stop-color="#200041"/></linearGradient><radialGradient id="radial-gradient-2" cx="-6603.48" cy="4857.98" r="89.54" gradientTransform="translate(8529.65 1360.77) rotate(45)" gradientUnits="userSpaceOnUse"><stop offset="0" stop-color="#fff"/><stop offset="0.07" stop-color="#d8d8d8"/><stop offset="0.16" stop-color="#a6a6a6"/><stop offset="0.26" stop-color="#797979"/><stop offset="0.37" stop-color="#545454"/><stop offset="0.47" stop-color="#353535"/><stop offset="0.59" stop-color="#1e1e1e"/><stop offset="0.7" stop-color="#0d0d0d"/><stop offset="0.84" stop-color="#030303"/><stop offset="1"/></radialGradient><linearGradient id="linear-gradient-2" x1="-1124.04" y1="4903.5" x2="-1305.51" y2="4928.7" gradientTransform="translate(4687.28 -2481.6) rotate(45)" gradientUnits="userSpaceOnUse"><stop offset="0" stop-color="#311b61"/><stop offset="0.2" stop-color="#290f52"/><stop offset="0.49" stop-color="#200041"/><stop offset="1" stop-color="#0f001f"/></linearGradient><radialGradient id="radial-gradient-3" cx="-1184.26" cy="598.82" r="91.37" gradientTransform="translate(1849.27 356.41) rotate(45) scale(1 1.5)" gradientUnits="userSpaceOnUse"><stop offset="0" stop-color="#ff63ce"/><stop offset="0.41" stop-color="#9f19ab"/><stop offset="0.62" stop-color="#901bb8"/><stop offset="0.82" stop-color="#7c1dc9"/><stop offset="0.99" stop-color="#6d23d5"/><stop offset="1" stop-color="#6b24d6"/></radialGradient><linearGradient id="linear-gradient-3" x1="-1372.71" y1="4954.11" x2="-987.45" y2="4867.75" gradientTransform="translate(4687.28 -2481.6) rotate(45)" gradientUnits="userSpaceOnUse"><stop offset="0" stop-color="#d4d1d8"/><stop offset="1" stop-color="#eeebf2"/></linearGradient><radialGradient id="radial-gradient-4" cx="-1184.26" cy="598.82" r="65.26" xlink:href="#radial-gradient-3"/><linearGradient id="linear-gradient-4" x1="-1309.89" y1="4940.03" x2="-1053.06" y2="4882.45" xlink:href="#linear-gradient-3"/><radialGradient id="radial-gradient-5" cx="-1184.26" cy="598.82" r="39.16" xlink:href="#radial-gradient-3"/><linearGradient id="linear-gradient-5" x1="-1247.08" y1="4925.95" x2="-1118.66" y2="4897.16" xlink:href="#linear-gradient-3"/><linearGradient id="New_Gradient_Swatch_copy_9" x1="332.57" y1="155.12" x2="413.12" y2="153.42" gradientUnits="userSpaceOnUse"><stop offset="0.04" stop-color="#9f19ab"/><stop offset="0.24" stop-color="#ae25b1"/><stop offset="0.65" stop-color="#d744bf"/><stop offset="1" stop-color="#ff63ce"/></linearGradient><radialGradient id="radial-gradient-6" cx="-1166.04" cy="4911.68" r="83.97" gradientTransform="translate(4687.28 -2481.6) rotate(45)" xlink:href="#radial-gradient-2"/><radialGradient id="radial-gradient-7" cx="-1171.21" cy="4911.77" r="59.97" gradientTransform="translate(4687.28 -2481.6) rotate(45)" xlink:href="#radial-gradient-2"/><radialGradient id="radial-gradient-8" cx="-1176.67" cy="4911.81" r="36.08" gradientTransform="translate(4687.28 -2481.6) rotate(45)" xlink:href="#radial-gradient-2"/><radialGradient id="radial-gradient-9" cx="-1181.95" cy="4911.86" r="12.11" gradientTransform="translate(4687.28 -2481.6) rotate(45)" xlink:href="#radial-gradient-2"/><radialGradient id="Degradado_sin_nombre_51" cx="-4375.17" cy="13960.04" r="36.77" gradientTransform="matrix(0.09, 0.51, -0.65, 0.11, 9968.15, 769.68)" gradientUnits="userSpaceOnUse"><stop offset="0" stop-color="#972a74"/><stop offset="0.04" stop-color="#8a266a" stop-opacity="0.92"/><stop offset="0.19" stop-color="#601b4a" stop-opacity="0.64"/><stop offset="0.35" stop-color="#3d112f" stop-opacity="0.41"/><stop offset="0.51" stop-color="#230a1b" stop-opacity="0.23"/><stop offset="0.67" stop-color="#0f040c" stop-opacity="0.1"/><stop offset="0.83" stop-color="#040103" stop-opacity="0.03"/><stop offset="1" stop-opacity="0"/></radialGradient><radialGradient id="Degradado_sin_nombre_49" cx="-7773.25" cy="2863.48" r="36.77" gradientTransform="matrix(0.43, 0.18, -0.18, 0.42, 4239.74, 446.87)" gradientUnits="userSpaceOnUse"><stop offset="0" stop-color="#9c2b77"/><stop offset="0.06" stop-color="#8a2669" stop-opacity="0.89"/><stop offset="0.21" stop-color="#601b49" stop-opacity="0.62"/><stop offset="0.36" stop-color="#3d112f" stop-opacity="0.39"/><stop offset="0.52" stop-color="#230a1a" stop-opacity="0.22"/><stop offset="0.67" stop-color="#0f040c" stop-opacity="0.1"/><stop offset="0.83" stop-color="#040103" stop-opacity="0.02"/><stop offset="1" stop-opacity="0"/></radialGradient><linearGradient id="Degradado_sin_nombre_45" x1="900.31" y1="-932.03" x2="815.54" y2="-948.98" gradientTransform="matrix(1, 0.01, -0.01, 1, -787.48, 999.95)" gradientUnits="userSpaceOnUse"><stop offset="0" stop-color="#fdd65b"/><stop offset="0.01" stop-color="#f7d159" stop-opacity="0.98"/><stop offset="0.13" stop-color="#bea144" stop-opacity="0.75"/><stop offset="0.25" stop-color="#8b7632" stop-opacity="0.55"/><stop offset="0.37" stop-color="#605223" stop-opacity="0.38"/><stop offset="0.49" stop-color="#3e3416" stop-opacity="0.24"/><stop offset="0.62" stop-color="#231d0c" stop-opacity="0.14"/><stop offset="0.74" stop-color="#0f0d05" stop-opacity="0.06"/><stop offset="0.87" stop-color="#040301" stop-opacity="0.01"/><stop offset="1" stop-opacity="0"/></linearGradient><linearGradient id="Degradado_sin_nombre_52" x1="895.14" y1="-933.13" x2="812.34" y2="-949.69" xlink:href="#Degradado_sin_nombre_45"/><linearGradient id="Degradado_sin_nombre_45-2" x1="890.21" y1="-934.18" x2="809.56" y2="-950.31" xlink:href="#Degradado_sin_nombre_45"/><linearGradient id="Degradado_sin_nombre_45-3" x1="885.5" y1="-935.19" x2="807.19" y2="-950.85" xlink:href="#Degradado_sin_nombre_45"/><linearGradient id="Degradado_sin_nombre_45-4" x1="881.02" y1="-936.15" x2="805.23" y2="-951.31" xlink:href="#Degradado_sin_nombre_45"/><linearGradient id="Degradado_sin_nombre_45-5" x1="876.76" y1="-937.07" x2="803.69" y2="-951.69" xlink:href="#Degradado_sin_nombre_45"/><linearGradient id="Degradado_sin_nombre_45-6" x1="872.74" y1="-937.94" x2="802.56" y2="-951.98" xlink:href="#Degradado_sin_nombre_45"/><linearGradient id="Degradado_sin_nombre_45-7" x1="868.94" y1="-938.77" x2="801.85" y2="-952.19" xlink:href="#Degradado_sin_nombre_45"/><linearGradient id="Degradado_sin_nombre_45-8" x1="865.36" y1="-939.55" x2="801.54" y2="-952.32" xlink:href="#Degradado_sin_nombre_45"/><linearGradient id="Degradado_sin_nombre_45-9" x1="862.02" y1="-940.29" x2="801.66" y2="-952.36" xlink:href="#Degradado_sin_nombre_45"/><linearGradient id="Degradado_sin_nombre_45-10" x1="858.9" y1="-940.98" x2="802.18" y2="-952.32" xlink:href="#Degradado_sin_nombre_45"/><linearGradient id="Degradado_sin_nombre_45-11" x1="856.01" y1="-941.62" x2="803.12" y2="-952.2" xlink:href="#Degradado_sin_nombre_45"/><linearGradient id="New_Gradient_Swatch_copy_17" x1="-1509.6" y1="3736.08" x2="-1510.3" y2="3734.86" gradientTransform="translate(3924.26 -1434.34) rotate(45.57)" gradientUnits="userSpaceOnUse"><stop offset="0.04" stop-color="#f7aa90"/><stop offset="0.23" stop-color="#f9b996"/><stop offset="0.61" stop-color="#ffe2a6"/><stop offset="0.63" stop-color="#ffe4a7"/><stop offset="0.87" stop-color="#f7aa90"/></linearGradient><linearGradient id="New_Gradient_Swatch_copy_8" x1="858.87" y1="-926" x2="858.03" y2="-957.26" gradientTransform="matrix(1, 0.01, -0.01, 1, -787.48, 999.95)" gradientUnits="userSpaceOnUse"><stop offset="0.04" stop-color="#ffa98c"/><stop offset="0.32" stop-color="#ffb892"/><stop offset="0.86" stop-color="#fee1a3"/><stop offset="1" stop-color="#feeca8"/></linearGradient><radialGradient id="radial-gradient-10" cx="847.06" cy="-947.95" r="17.74" gradientTransform="matrix(1, 0.01, -0.01, 1, -787.48, 999.95)" xlink:href="#radial-gradient-2"/><linearGradient id="linear-gradient-6" x1="-1530.39" y1="3751.58" x2="-1534.12" y2="3745.13" gradientTransform="translate(3924.26 -1434.34) rotate(45.57)" gradientUnits="userSpaceOnUse"><stop offset="0.01" stop-color="#f9b595"/><stop offset="0.13" stop-color="#fbc59c"/><stop offset="0.18" stop-color="#f9ba97"/><stop offset="0.25" stop-color="#f8ae92"/><stop offset="0.33" stop-color="#f7aa90"/><stop offset="0.43" stop-color="#f8b394"/><stop offset="0.59" stop-color="#fccb9d"/><stop offset="0.73" stop-color="#ffe4a7"/><stop offset="0.97" stop-color="#f7aa90"/></linearGradient><linearGradient id="New_Gradient_Swatch_copy_8-2" x1="-1550.63" y1="3757.71" x2="-1546.33" y2="3757.71" gradientTransform="translate(3924.26 -1434.34) rotate(45.57)" xlink:href="#New_Gradient_Swatch_copy_8"/><linearGradient id="linear-gradient-7" x1="-1589.67" y1="3784.78" x2="-1592.64" y2="3779.63" gradientTransform="translate(3924.26 -1434.34) rotate(45.57)" gradientUnits="userSpaceOnUse"><stop offset="0.04" stop-color="#1e1f21"/><stop offset="0.12" stop-color="#2d2e30"/><stop offset="0.14" stop-color="#323336"/><stop offset="0.27" stop-color="#0e0e0f"/><stop offset="0.35" stop-color="#131415"/><stop offset="0.46" stop-color="#232326"/><stop offset="0.59" stop-color="#3c3d41"/><stop offset="0.73" stop-color="#5e6167"/><stop offset="0.77" stop-color="#696c73"/><stop offset="1" stop-color="#37383c"/></linearGradient><linearGradient id="linear-gradient-8" x1="835.69" y1="-941.43" x2="841.67" y2="-946.76" gradientTransform="matrix(1, 0.01, -0.01, 1, -787.48, 999.95)" gradientUnits="userSpaceOnUse"><stop offset="0.04" stop-color="#1e1f21"/><stop offset="0.31" stop-color="#2c2e30"/><stop offset="0.84" stop-color="#515359"/><stop offset="1" stop-color="#5d6066"/></linearGradient><linearGradient id="New_Gradient_Swatch_copy_8-3" x1="857.05" y1="-950.66" x2="851.12" y2="-960.91" xlink:href="#New_Gradient_Swatch_copy_8"/><linearGradient id="New_Gradient_Swatch_copy_8-4" x1="-1629.08" y1="3791.97" x2="-1550.82" y2="3768.53" gradientTransform="translate(3924.26 -1434.34) rotate(45.57)" xlink:href="#New_Gradient_Swatch_copy_8"/><radialGradient id="radial-gradient-11" cx="851.7" cy="-955.24" r="12.79" gradientTransform="matrix(1, 0.01, -0.01, 1, -787.48, 999.95)" xlink:href="#radial-gradient-2"/><linearGradient id="New_Gradient_Swatch_copy_8-5" x1="851.41" y1="-922.3" x2="856.61" y2="-929.84" xlink:href="#New_Gradient_Swatch_copy_8"/><linearGradient id="New_Gradient_Swatch_copy_8-6" x1="863.62" y1="-942.42" x2="854.91" y2="-917.99" xlink:href="#New_Gradient_Swatch_copy_8"/><radialGradient id="radial-gradient-12" cx="837.08" cy="-931.43" r="11.15" gradientTransform="matrix(1, 0.01, -0.01, 1, -787.48, 999.95)" xlink:href="#radial-gradient-2"/><radialGradient id="New_Gradient_Swatch_copy_6" cx="1203.43" cy="-13809.73" r="16.06" gradientTransform="matrix(1.59, 0.43, -0.05, 0.17, -2401.69, 1970.21)" gradientUnits="userSpaceOnUse"><stop offset="0" stop-color="#972a74"/><stop offset="0.04" stop-color="#8a266a"/><stop offset="0.19" stop-color="#601b4a"/><stop offset="0.35" stop-color="#3d112f"/><stop offset="0.51" stop-color="#230a1b"/><stop offset="0.67" stop-color="#0f040c"/><stop offset="0.83" stop-color="#040103"/><stop offset="1"/></radialGradient></defs><title>Mision</title><g class="cls-1"><g id="Capa_2" data-name="Capa 2"><g id="Layer_1" data-name="Layer 1"><ellipse class="cls-2" cx="351.12" cy="165.64" rx="121.08" ry="165.64"/><path class="cls-3" d="M364.33,320.45c-33.42,0-64.89-7.55-88.61-21.24s-36.89-32-36.89-51.39c0-19.23,12.91-37.27,36.34-50.8s54.47-20.92,87.6-20.92c33.43,0,64.9,7.54,88.62,21.24s36.88,32,36.88,51.38c0,19.24-12.9,37.28-36.33,50.81S397.46,320.45,364.33,320.45Zm-1.56-143.56c-33,0-64,7.39-87.21,20.81s-35.94,31.18-35.94,50.12c0,19.11,13,37.12,36.5,50.71s54.92,21.13,88.21,21.13c33,0,64-7.39,87.21-20.81s35.95-31.18,35.95-50.13c0-19.11-13-37.12-36.5-50.7S396.06,176.89,362.77,176.89Z"/><path class="cls-4" d="M364.3,317.87c-32.11,0-62.35-7.25-85.15-20.41s-35.56-30.86-35.56-49.62c0-18.59,12.44-36,35-49.06s52.36-20.1,84.18-20.1c32.12,0,62.36,7.25,85.16,20.41s35.56,30.86,35.56,49.62c0,18.59-12.44,36-35,49S396.13,317.87,364.3,317.87Zm-1.5-137.62c-31.55,0-61.17,7.07-83.39,19.9s-34.25,29.69-34.25,47.69c0,18.17,12.35,35.31,34.78,48.25s52.52,20.21,84.36,20.21c31.56,0,61.17-7.07,83.4-19.9S482,266.71,482,248.71c0-18.17-12.35-35.31-34.78-48.26S394.65,180.25,362.8,180.25Z"/><g class="cls-5"><path class="cls-6" d="M318.22,274.44c-25.19-14.54-25.31-38.05-.28-52.5a67.72,67.72,0,0,1,7.83-3.84l-2.42-2a73.2,73.2,0,0,0-8.38,4.11c-26.62,15.37-26.48,40.46.31,55.92a80.76,80.76,0,0,0,18.66,7.67l1.75-2.18A76.29,76.29,0,0,1,318.22,274.44Z"/><path class="cls-7" d="M427.5,244.59l4.15-.2c-1.55-8.6-8-17-19.2-23.63l-3,1.71C420,228.72,426,236.55,427.5,244.59Z"/><path class="cls-6" d="M408.18,221.72l3-1.71c-23.7-13.31-59.94-14.83-86.27-4.51l2.41,2C352,207.81,385.9,209.23,408.18,221.72Z"/><path class="cls-8" d="M431.8,245.46l-4.15.2c1.38,10.39-4.77,21-18.48,29A82.55,82.55,0,0,1,381.28,284l1.09,2.32c10.92-1.75,21.22-5.08,29.78-10C426.75,267.89,433.28,256.54,431.8,245.46Z"/><path class="cls-7" d="M337.37,282.09l-1.75,2.18a116.48,116.48,0,0,0,45,2.35l-1.09-2.32A109,109,0,0,1,337.37,282.09Z"/></g><path class="cls-9" d="M362.35,202.67c-38.13.19-69.75,16.07-76.46,37l7.24.75c6.11-19,34.73-33.32,69.24-33.52Zm-69.77,36.91L287,239c7.29-20.32,38.34-35.14,74.62-35.54v2.67C328,206.54,299.24,220.51,292.58,239.58Z"/><path class="cls-3" d="M364.19,202.67l0,4.24c16.83.15,32.3,3.66,44.47,9.41l4.71-3.24C399.93,206.7,382.81,202.82,364.19,202.67Zm44.42,12.75c-12.54-5.84-27.59-9-43.62-9.29v-2.66c16.95.23,33.48,3.68,46.82,9.74Z"/><path class="cls-10" d="M414.78,213.77l-4.7,3.24c15.31,7.62,25.07,18.87,25.13,31.39,0,7.34-3.26,14.23-9.06,20.2l6.37,2.13c6.42-6.59,10.09-14.21,10-22.32C442.49,234.59,431.7,222.17,414.78,213.77Zm17.52,56.06-4.74-1.58c5.57-6.08,8.48-12.92,8.44-19.86-.06-12-8.93-23.45-24.38-31.48l3.23-2.23c17,8.59,26.86,20.87,26.93,33.74C441.81,255.88,438.54,263.28,432.3,269.83Z"/><path class="cls-11" d="M387.37,287.36A118.88,118.88,0,0,1,364,289.64h-.23c-39.51-.07-71.75-18.69-71.87-41.5a24.1,24.1,0,0,1,.9-6.66l-7.24-.75a26.75,26.75,0,0,0-1,7.4c.13,25.15,35.68,45.67,79.25,45.75h.25a131.33,131.33,0,0,0,25.85-2.52Zm-23.56,5.73c-43.13-.07-78.33-20.25-78.47-45a26.28,26.28,0,0,1,.82-6.54l5.66.59a25,25,0,0,0-.7,6c.12,23.25,32.72,42.21,72.66,42.28H364a120.12,120.12,0,0,0,23-2.19l1.63,2.56a130.79,130.79,0,0,1-24.57,2.29Z"/><path class="cls-3" d="M425.24,269.52c-8.21,8-20.93,14.18-36.14,17.48l2.54,4c16.83-3.65,30.91-10.54,40-19.35Zm-34.87,18c14.51-3.32,26.91-9.36,35.07-17.11l4.67,1.56c-8.92,8.24-22.38,14.65-38.11,18.13Z"/><path class="cls-12" d="M394.63,197.88l6.77-12.36c-1.7-.35-3.37-.74-5.08-1l-7,12.34C391.1,197.13,392.86,197.51,394.63,197.88Zm-83.6,6-13.38-10.48c-1.47.58-2.9,1.2-4.32,1.83l13.17,10.57C308,205.12,309.49,204.47,311,203.86Zm92.58-3.8,9-11.88c-1.63-.44-3.23-.91-4.88-1.31l-9.21,11.81C400.23,199.1,401.91,199.59,403.61,200.06ZM436.8,215.6c1.16.86,2.29,1.73,3.35,2.62l18.07-7.66c-1-.84-2.1-1.67-3.19-2.5Zm-6.37-4.26c1.31.79,2.58,1.59,3.79,2.42L450.79,205c-1.16-.78-2.37-1.55-3.61-2.3Zm8-13.43-15.09,9.57c1.43.69,2.82,1.43,4.19,2.18l14.9-9.67C441.12,199.28,439.78,198.58,438.43,197.91Zm-101.18-1.18-7.15-12.37c-1.71.3-3.38.68-5.07,1l6.9,12.39C333.7,197.41,335.46,197,337.25,196.73ZM464.62,216.5c-.86-.91-1.81-1.79-2.75-2.67l-19.51,6.39c1,.92,2,1.85,2.88,2.8ZM328.08,198.56l-9.34-11.85c-1.64.39-3.24.85-4.86,1.29l9.1,11.92C324.67,199.45,326.35,199,328.08,198.56Zm57.24-2.31,4.48-12.71c-1.75-.24-3.48-.52-5.24-.71l-4.75,12.71C381.66,195.73,383.49,196,385.32,196.25Zm-66,4.7-11.43-11.23c-1.55.49-3.08,1-4.61,1.57l11.2,11.3C316.07,202,317.66,201.46,319.31,201Zm56.46-5.76,2.15-12.93c-1.78-.13-3.55-.27-5.34-.36l-2.42,12.93C372,194.91,373.9,195,375.77,195.19Zm-19.41-.39-2.55-12.93c-1.79.08-3.56.21-5.34.34l2.3,12.94C352.63,195,354.49,194.88,356.36,194.8Zm-9.64.68-4.88-12.73c-1.76.19-3.49.46-5.23.69l4.62,12.73C343.05,195.92,344.88,195.67,346.72,195.48Zm82.15-1.86L415.6,204.05c1.55.61,3,1.27,4.55,1.94l13.05-10.53C431.77,194.83,430.34,194.21,428.87,193.62Zm27.48,56.45,22.52,0c0-1,0-2.06,0-3.1l-22.52-.11A32,32,0,0,1,456.35,250.07Zm-9,21.63L468,277c.76-.93,1.56-1.86,2.24-2.81l-20.52-5.38C449,269.75,448.12,270.72,447.31,271.7Zm-4.64,4.91,19.58,6.47c.93-.89,1.87-1.77,2.72-2.67l-19.45-6.59C444.64,274.77,443.65,275.69,442.67,276.61Zm-5.52,4.6,18.32,7.61c1.08-.82,2.15-1.65,3.16-2.49l-18.16-7.73C439.43,279.49,438.3,280.36,437.15,281.21ZM361,301.84l.2,13c1.79,0,3.58,0,5.37,0l.06-13C364.78,301.88,362.91,301.87,361,301.84Zm-90.27-55.36-22.52,0c0,1,0,2.07,0,3.1l22.52.12A32,32,0,0,1,270.76,246.48Zm95.32-51.77-.2-13c-1.79,0-3.58,0-5.37,0l-.06,13C362.33,194.67,364.2,194.67,366.08,194.71Zm88.81,44.18,22-2.75c-.33-1-.8-2-1.22-3l-22,2.59C454.1,236.76,454.55,237.82,454.89,238.89Zm1.23,5.57,22.39-1.4c-.15-1-.39-2.05-.63-3.08l-22.39,1.24A30.36,30.36,0,0,1,456.12,244.46Zm-6.67-16.36,20.46-5.31c-.69-1-1.5-1.88-2.27-2.82l-20.58,5.18C447.88,226.13,448.73,227.1,449.45,228.1Zm3.22,5.31,21.37-4c-.51-1-1.19-2-1.79-2.93l-21.42,3.9C451.47,231.35,452.14,232.37,452.67,233.41Zm1.12,27.75,22.06,2.67c.4-1,.86-2,1.19-3L455,258A32.12,32.12,0,0,1,453.79,261.16Zm1.78-5.5L478,257c.22-1,.45-2.05.59-3.08l-22.41-1.48A32.88,32.88,0,0,1,455.57,255.66ZM451,266.53l21.46,4c.59-1,1.26-1.93,1.76-2.92l-21.42-4.13C452.32,264.5,451.66,265.51,451,266.53Zm-32.44-76.61-11.3,11.19c1.65.52,3.25,1.09,4.86,1.66l11.07-11.26C421.68,191,420.15,190.42,418.59,189.92Zm-119,97-14.9,9.68c1.31.71,2.64,1.41,4,2.08l15.09-9.57C302.34,288.37,301,287.64,299.58,286.88Zm71.16,14.86,2.56,12.94c1.78-.08,3.56-.22,5.33-.34l-2.29-12.94C374.48,301.54,372.62,301.67,370.74,301.74Zm-38.27-3.08L325.71,311c1.7.35,3.37.74,5.08,1l7-12.34C336,299.42,334.25,299,332.47,298.66Zm18.87,2.69-2.15,12.93c1.78.14,3.55.28,5.34.36l2.41-12.92C355.07,301.63,353.21,301.5,351.34,301.35ZM307,290.56,293.9,301.09c1.43.63,2.87,1.25,4.34,1.84l13.27-10.44C310,291.88,308.45,291.23,307,290.56Zm8,3.21L303.89,305c1.53.54,3.06,1.09,4.63,1.59l11.3-11.19C318.17,294.92,316.57,294.35,315,293.77Zm8.54,2.71-9,11.89c1.62.44,3.23.91,4.88,1.31l9.21-11.82C326.88,297.45,325.2,297,323.5,296.48Zm18.29,3.81L337.31,313c1.74.24,3.48.51,5.24.71L347.29,301C345.45,300.81,343.62,300.55,341.79,300.29Zm82-11,15.2,9.62c1.34-.66,2.67-1.36,4-2.07l-15-9.72Q425.91,288.25,423.78,289.29Zm-7.7,3.39,13.38,10.49c1.46-.59,2.9-1.21,4.32-1.83l-13.17-10.57C419.12,291.43,417.62,292.08,416.08,292.68Zm-35.69,8.39,4.88,12.72c1.76-.18,3.49-.45,5.23-.69l-4.62-12.73C384.06,300.62,382.23,300.88,380.39,301.07Zm50.44-15.62,16.85,8.66c1.23-.75,2.43-1.51,3.58-2.29L434.59,283C433.39,283.86,432.13,284.67,430.83,285.45Zm-23,10.15,11.42,11.22c1.56-.49,3.09-1,4.62-1.57L412.64,294C411,294.52,409.44,295.09,407.8,295.6Zm-17.95,4.22L397,312.18c1.71-.29,3.38-.67,5.07-1l-6.9-12.39C393.41,299.14,391.65,299.52,389.85,299.82ZM399,298l9.33,11.85c1.65-.39,3.25-.86,4.87-1.3l-9.1-11.91C402.44,297.1,400.76,297.58,399,298ZM272.21,257.66l-22,2.74c.34,1,.81,2,1.23,3l22-2.58C273,259.78,272.55,258.73,272.21,257.66ZM276.08,230l-21.46-4c-.59,1-1.26,1.94-1.76,2.93l21.42,4.13C274.79,232.05,275.45,231,276.08,230Zm-2.76,5.37-22.06-2.66c-.41,1-.87,2-1.19,3l22,2.83C272.44,237.49,272.88,236.44,273.32,235.38Zm6.48-10.53-20.64-5.26c-.76.94-1.56,1.86-2.25,2.81l20.53,5.39C278.15,226.79,279,225.82,279.8,224.85ZM290,215.33l-18.31-7.6c-1.08.82-2.16,1.65-3.17,2.49L286.63,218C287.68,217.06,288.8,216.19,290,215.33Zm-5.51,4.6-19.58-6.46c-.93.88-1.87,1.76-2.72,2.66l19.45,6.6C282.47,221.78,283.45,220.86,284.44,219.93Zm-8.13,71.57c1.17.79,2.38,1.55,3.62,2.31l16.75-8.6c-1.31-.79-2.58-1.6-3.79-2.42Zm-4.77-50.61-22.41-1.32c-.22,1-.45,2.05-.59,3.08l22.4,1.47C271.08,243,271.29,242,271.54,240.89Zm24.74-29.8-16.85-8.66c-1.23.76-2.43,1.52-3.59,2.3l16.67,8.77C293.72,212.68,295,211.88,296.28,211.09Zm-25.29,41-22.39,1.39c.15,1,.39,2.06.62,3.09l22.4-1.25A30.18,30.18,0,0,1,271,252.09Zm-8.5,28c.86.9,1.8,1.78,2.74,2.67l19.52-6.39c-1-.93-2-1.86-2.88-2.81Zm6.39,5.93c1,.85,2.1,1.68,3.2,2.51L290.31,281c-1.16-.87-2.29-1.74-3.35-2.63Zm8.78-17.53-20.46,5.31c.69.95,1.5,1.88,2.27,2.82l20.58-5.18C279.23,270.42,278.38,269.45,277.66,268.45Zm-3.22-5.32-21.38,4.06c.52,1,1.2,1.95,1.79,2.93l21.42-3.9C275.64,265.19,275,264.17,274.44,263.13Zm28.89-55.87-15.2-9.63q-2,1-4,2.07l15,9.73C300.52,208.68,301.91,208,303.33,207.26Z"/><path class="cls-13" d="M436.8,215.6c1.16.86,2.29,1.73,3.35,2.62l18.07-7.66c-1-.84-2.1-1.67-3.19-2.5ZM319.31,201l-11.43-11.23c-1.55.49-3.08,1-4.61,1.57l11.2,11.3C316.07,202,317.66,201.46,319.31,201Zm56.46-5.76,2.15-12.93c-1.78-.13-3.55-.27-5.34-.36l-2.42,12.93C372,194.91,373.9,195,375.77,195.19Zm-19.41-.39-2.55-12.93c-1.79.08-3.56.21-5.34.34l2.3,12.94C352.63,195,354.49,194.88,356.36,194.8Zm72.51-1.18L415.6,204.05c1.55.61,3,1.27,4.55,1.94l13.05-10.53C431.77,194.83,430.34,194.21,428.87,193.62Zm8.28,87.59,18.32,7.61c1.08-.82,2.15-1.65,3.16-2.49l-18.16-7.73C439.43,279.49,438.3,280.36,437.15,281.21ZM361,301.84l.2,13c1.79,0,3.58,0,5.37,0l.06-13C364.78,301.88,362.91,301.87,361,301.84Zm-90.27-55.36-22.52,0c0,1,0,2.07,0,3.1l22.52.12A32,32,0,0,1,270.76,246.48Zm184.13-7.59,22-2.75c-.33-1-.8-2-1.22-3l-22,2.59C454.1,236.76,454.55,237.82,454.89,238.89Zm-1.1,22.27,22.06,2.67c.4-1,.86-2,1.19-3L455,258A32.12,32.12,0,0,1,453.79,261.16ZM323.5,296.48l-9,11.89c1.62.44,3.23.91,4.88,1.31l9.21-11.82C326.88,297.45,325.2,297,323.5,296.48Zm84.3-.88,11.42,11.22c1.56-.49,3.09-1,4.62-1.57L412.64,294C411,294.52,409.44,295.09,407.8,295.6ZM272.21,257.66l-22,2.74c.34,1,.81,2,1.23,3l22-2.58C273,259.78,272.55,258.73,272.21,257.66ZM290,215.33l-18.31-7.6c-1.08.82-2.16,1.65-3.17,2.49L286.63,218C287.68,217.06,288.8,216.19,290,215.33ZM268.88,286c1,.85,2.1,1.68,3.2,2.51L290.31,281c-1.16-.87-2.29-1.74-3.35-2.63Z"/><path class="cls-4" d="M311,203.86l-13.38-10.48c-1.47.58-2.9,1.2-4.32,1.83l13.17,10.57C308,205.12,309.49,204.47,311,203.86Zm92.58-3.8,9-11.88c-1.63-.44-3.23-.91-4.88-1.31l-9.21,11.81C400.23,199.1,401.91,199.59,403.61,200.06Zm34.82-2.15-15.09,9.57c1.43.69,2.82,1.43,4.19,2.18l14.9-9.67C441.12,199.28,439.78,198.58,438.43,197.91Zm-110.35.65-9.34-11.85c-1.64.39-3.24.85-4.86,1.29l9.1,11.92C324.67,199.45,326.35,199,328.08,198.56Zm57.24-2.31,4.48-12.71c-1.75-.24-3.48-.52-5.24-.71l-4.75,12.71C381.66,195.73,383.49,196,385.32,196.25Zm57.35,80.36,19.58,6.47c.93-.89,1.87-1.77,2.72-2.67l-19.45-6.59C444.64,274.77,443.65,275.69,442.67,276.61Zm13.45-32.15,22.39-1.4c-.15-1-.39-2.05-.63-3.08l-22.39,1.24A30.36,30.36,0,0,1,456.12,244.46Zm-6.67-16.36,20.46-5.31c-.69-1-1.5-1.88-2.27-2.82l-20.58,5.18C447.88,226.13,448.73,227.1,449.45,228.1Zm3.22,5.31,21.37-4c-.51-1-1.19-2-1.79-2.93l-21.42,3.9C451.47,231.35,452.14,232.37,452.67,233.41ZM451,266.53l21.46,4c.59-1,1.26-1.93,1.76-2.92l-21.42-4.13C452.32,264.5,451.66,265.51,451,266.53Zm-99.69,34.82-2.15,12.93c1.78.14,3.55.28,5.34.36l2.41-12.92C355.07,301.63,353.21,301.5,351.34,301.35ZM307,290.56,293.9,301.09c1.43.63,2.87,1.25,4.34,1.84l13.27-10.44C310,291.88,308.45,291.23,307,290.56Zm34.83,9.73L337.31,313c1.74.24,3.48.51,5.24.71L347.29,301C345.45,300.81,343.62,300.55,341.79,300.29Zm74.29-7.61,13.38,10.49c1.46-.59,2.9-1.21,4.32-1.83l-13.17-10.57C419.12,291.43,417.62,292.08,416.08,292.68Zm-26.23,7.14L397,312.18c1.71-.29,3.38-.67,5.07-1l-6.9-12.39C393.41,299.14,391.65,299.52,389.85,299.82ZM272.21,257.66l-22,2.74c.34,1,.81,2,1.23,3l22-2.58C273,259.78,272.55,258.73,272.21,257.66Zm1.11-22.28-22.06-2.66c-.41,1-.87,2-1.19,3l22,2.83C272.44,237.49,272.88,236.44,273.32,235.38Zm16.63-20-18.31-7.6c-1.08.82-2.16,1.65-3.17,2.49L286.63,218C287.68,217.06,288.8,216.19,290,215.33Zm-12.29,53.12-20.46,5.31c.69.95,1.5,1.88,2.27,2.82l20.58-5.18C279.23,270.42,278.38,269.45,277.66,268.45Z"/><path class="cls-12" d="M395.74,166.24c-1.53-.21-3-.48-4.58-.66l-3.41,9.12c1.61.18,3.2.39,4.8.6Zm-6.9,7.8,2.84-7.6c.69.09,1.38.19,2.06.3l.94.14L392,174.44Zm21.6-5.36c-1.49-.29-2.95-.64-4.45-.9l-5,8.83c1.56.28,3.12.57,4.66.88ZM402.19,176l4.2-7.38c.73.14,1.47.3,2.18.45l.67.14-4,7.36Zm39.33,12.58,9.3-7.5c-1.26-.55-2.52-1.1-3.8-1.62l-9.46,7.44Q439.55,187.74,441.52,188.61Zm5.62-8.22c.74.3,1.47.61,2.18.92l-7.92,6.38-2.3-1Zm-66.45-15.71c-1.56-.11-3.11-.25-4.68-.34l-1.73,9.27c1.63.08,3.25.18,4.88.3Zm-5.47,8.19,1.44-7.7,2.36.17.76.06-1.28,7.67Zm62.92,3.29c-1.36-.47-2.7-.95-4.07-1.39l-8.07,8c1.43.45,2.85.93,4.25,1.42Zm-10.67,6.25,6.81-6.75c.82.27,1.63.55,2.42.83L430,183.27C429.16,183,428.31,182.68,427.47,182.41ZM424.62,172c-1.42-.38-2.83-.79-4.28-1.15l-6.58,8.45c1.5.37,3,.76,4.48,1.16Zm-9.5,6.83,5.53-7.09c.78.2,1.56.41,2.33.63l.31.08-5.36,7.11ZM352,173.57l-1.84-9.27c-1.56.08-3.11.21-4.67.32l1.63,9.23C348.77,173.74,350.39,173.64,352,173.57Zm-4.89-8.28,2.41-.17,1.53,7.71c-1.14,0-2.22.12-3.27.19l-1.36-7.68Zm-46.74,17.24-8.15-8c-1.37.44-2.7.91-4.05,1.37l8,8.06Q298.26,183.21,300.39,182.53ZM292,175.4l6.89,6.78-2.55.85-6.74-6.81Zm20.57,3.72-6.68-8.48c-1.44.35-2.84.76-4.26,1.14l6.47,8.48Q310.35,179.66,312.6,179.12Zm-9.37-7c.78-.22,1.59-.44,2.39-.64l5.61,7.12c-1,.24-1.89.47-2.79.71L303,172.23Zm-14.35,14.49-9.54-7.48c-1.28.52-2.53,1.07-3.79,1.61l9.39,7.53C286.24,187.75,287.55,187.2,288.88,186.66Zm-9.66-6.57,8.11,6.36-2.27,1-8-6.42Zm46.15-3.62-5.12-8.85c-1.5.26-3,.6-4.45.89l4.92,8.83C322.26,177,323.81,176.75,325.37,176.47Zm-7.65-7.55,2.12-.43,4.29,7.4-3,.56L317,169.07Zm134.22,24.76,10.61-6.89c-1.15-.62-2.32-1.23-3.5-1.83l-10.76,6.82C449.52,192.4,450.74,193,451.94,193.68Zm7.15-7.81,1.92,1-9.11,5.91c-.67-.36-1.35-.72-2-1.06ZM338.56,174.61l-3.51-9.13c-1.54.17-3,.44-4.57.64l3.29,9.08C335.36,175,337,174.79,338.56,174.61Zm-6.08-8c.67-.1,1.36-.21,2-.3l2.92,7.62c-1,.11-2,.24-3.16.38l-2.74-7.57Zm33.12,6.7-.15-9.3h-4.71l0,9.29h2.05Zm-4.07-8.52h3.15l.12,7.72h-3.31ZM278.2,191.47l-10.83-6.86c-1.18.6-2.34,1.2-3.49,1.82l10.7,6.93C275.77,192.72,277,192.09,278.2,191.47Zm-10.87-5.95,9.28,5.88-2,1-9.18-5.95Zm214,94.75L496.05,284c.66-.82,1.36-1.63,2-2.46l-14.69-3.86C482.7,278.55,482,279.42,481.36,280.27ZM496.67,282c-.2.25-.39.49-.59.72l-.33.4-13-3.31c.31-.4.62-.8.93-1.22Zm-10.25-9,15.29,2.84c.5-.86,1.08-1.7,1.54-2.56l-15.34-3C487.44,271.22,487,272.11,486.42,273Zm15.6.84c-.12.2-.25.39-.38.6l-.33.53-13.65-2.54c.23-.4.46-.81.68-1.23Zm-11.89-8.37,15.72,1.9c.35-.88.81-1.75,1.1-2.64l-15.82-2C490.83,263.63,490.49,264.55,490.13,265.47Zm1.54-1.9,14.19,1.81c-.09.19-.17.38-.26.58s-.16.37-.25.56l-14.12-1.71C491.39,264.38,491.53,264,491.67,263.57ZM475,287.18l13.94,4.6c.81-.77,1.63-1.54,2.39-2.33l-13.89-4.71C476.64,285.56,475.83,286.37,475,287.18Zm14.88,2.61-1,1-.13.12-12.27-4.05c.42-.41.81-.8,1.19-1.2Zm2.59-32,16,.94c.18-.9.42-1.8.55-2.7L493,254.93C492.81,255.87,492.65,256.81,492.46,257.75Zm1.16-2,14.45,1c-.06.29-.12.59-.19.9l-.06.25L493.4,257C493.48,256.61,493.55,256.19,493.62,255.77Zm-35,43.87,12,6.18c1.07-.67,2.12-1.34,3.15-2l-11.89-6.25C460.87,298.26,459.78,299,458.66,299.64Zm13.6,4.24c-.52.33-1.06.68-1.63,1l-10.37-5.33,1.72-1.11Zm-4.87-10.22,13.05,5.42c.94-.72,1.88-1.45,2.78-2.19l-13-5.51Q468.88,292.53,467.39,293.66Zm14.31,3.44-1.38,1.08L469,293.46c.51-.4,1-.79,1.45-1.17Zm-20.3-97.75,11.81-6.21c-1-.68-2.09-1.36-3.17-2l-11.93,6.12C459.23,197.94,460.33,198.64,461.4,199.35Zm10.26-6.28-10.21,5.37c-.57-.38-1.16-.75-1.75-1.13L470,192Zm21.72,56.85,16.1,0c0-.91,0-1.82,0-2.72l-16.1-.09C493.4,248,493.4,249,493.38,249.92Zm15.31-2c0,.39,0,.77,0,1.15l-14.52,0c0-.41,0-.83,0-1.25ZM477,212.22l13.84-4.66c-.76-.79-1.59-1.57-2.41-2.35l-13.9,4.56C475.42,210.58,476.24,211.39,477,212.22Zm11.23-6.11.18.17c.33.31.66.62,1,.94l-12.17,4.09q-.57-.59-1.2-1.2Zm-18.46-.56,12.89-5.47c-.9-.74-1.85-1.47-2.8-2.19l-13,5.37C467.89,204,468.87,204.78,469.8,205.55Zm11.37-5.68-11.24,4.77q-.69-.57-1.47-1.17l11.31-4.68ZM483,219.29l14.65-3.8c-.62-.84-1.33-1.65-2-2.48L481,216.7C481.71,217.56,482.37,218.42,483,219.29Zm12.69-5,.6.73-13,3.36c-.32-.42-.63-.83-.94-1.22l13-3.27Zm-2.82,27.78,16-1c-.14-.9-.39-1.8-.58-2.7l-16,.88C492.56,240.2,492.73,241.14,492.88,242.08Zm14.84-2.88.06.29c.08.29.14.58.2.86l-14.44.9c-.07-.43-.15-.84-.23-1.25Zm-20-12.52,15.3-2.91c-.46-.86-1.06-1.71-1.57-2.57L486.15,224C486.69,224.88,487.2,225.78,487.68,226.68Zm13.68-4.07c.13.2.26.4.38.6L488.1,225.8c-.23-.42-.46-.84-.7-1.24L501,222.08ZM491,234.3l15.8-2c-.3-.88-.78-1.76-1.13-2.64l-15.71,1.85C490.32,232.45,490.67,233.38,491,234.3Zm14.17-3.76c.09.19.18.39.26.58l.26.56-14.15,1.76c-.15-.4-.3-.82-.47-1.24ZM331.37,330.31c1.53.2,3,.48,4.58.66l3.4-9.13c-1.6-.18-3.2-.38-4.79-.59Zm6.9-7.8-2.84,7.6c-.69-.09-1.38-.2-2.05-.3l-.95-.14,2.66-7.56C336.2,322.26,337.25,322.39,338.27,322.51Zm23.24.71.15,9.29,2.83,0h1.88l0-9.29h-2Zm4.07,8.52h-3.15l-.12-7.72h3.31Zm-19.16.12c1.56.12,3.11.26,4.67.34l1.74-9.26c-1.63-.08-3.26-.18-4.88-.3Zm5.47-8.18-1.44,7.7c-.81-.05-1.62-.12-2.4-.18l-.72-.06,1.28-7.66Zm-35.22,4.19c1.49.29,2.95.63,4.45.9l5-8.83c-1.56-.28-3.12-.57-4.67-.88Zm8.25-7.36-4.2,7.39-2.19-.45-.66-.14,4-7.37C322.88,320.14,323.89,320.33,324.92,320.51Zm-39.33-12.57-9.31,7.5c1.26.55,2.52,1.1,3.81,1.62l9.46-7.44C288.21,309.08,286.89,308.51,285.59,307.94ZM280,316.16l-2.17-.92,7.92-6.39c.79.35,1.55.67,2.29,1Zm9,4.23c1.35.47,2.7.95,4.07,1.39l8.07-8c-1.43-.46-2.85-.93-4.25-1.42Zm10.66-6.25-6.81,6.74c-.81-.26-1.62-.55-2.41-.82l6.66-6.79C298,313.58,298.8,313.87,299.63,314.14Zm2.85,10.41c1.43.38,2.84.79,4.29,1.15l6.58-8.46c-1.5-.37-3-.75-4.48-1.15Zm9.51-6.84-5.53,7.1c-.79-.2-1.58-.42-2.35-.63l-.3-.09,5.37-7.1C310.08,317.23,311,317.47,312,317.71Zm102.51-.28,6.68,8.48c1.44-.35,2.85-.76,4.27-1.14L419,316.29Q416.75,316.88,414.5,317.43Zm9.38,6.95c-.78.21-1.59.44-2.39.64l-5.61-7.12c1-.24,1.89-.48,2.79-.72l5.45,7.14ZM426.71,314l8.16,8c1.37-.44,2.7-.91,4.05-1.38l-8-8.05C429.54,313.09,428.14,313.57,426.71,314Zm8.37,7.12-6.89-6.77c.83-.27,1.67-.55,2.54-.86l6.75,6.82C436.69,320.6,435.89,320.88,435.08,321.14Zm3.14-11.25,9.55,7.47c1.27-.52,2.53-1.06,3.78-1.6l-9.38-7.54C440.87,308.79,439.55,309.35,438.22,309.89Zm9.67,6.57-8.11-6.36,2.27-1,8,6.41C449.31,315.87,448.6,316.17,447.89,316.46Zm1-11.39,10.83,6.86c1.17-.59,2.33-1.2,3.48-1.82l-10.69-6.93C451.34,303.83,450.13,304.46,448.91,305.07Zm10.87,6-9.28-5.88,2-1,9.18,5.95Zm-184.61-8.17-10.62,6.89q1.74.94,3.51,1.83l10.75-6.82C277.58,304.15,276.37,303.51,275.17,302.86ZM268,310.68l-1.92-1,9.1-5.91,2,1.06Zm120.53,11.25,3.51,9.14c1.54-.17,3-.44,4.57-.64l-3.29-9.08C391.75,321.56,390.15,321.76,388.55,321.93Zm6.08,8-2.06.29-2.92-7.61c1-.11,2.05-.24,3.16-.39l2.75,7.57Zm-126.18-133-12-6.17q-1.6,1-3.15,2L265.17,199C266.24,198.29,267.33,197.59,268.45,196.9Zm-13.61-4.23c.52-.34,1.07-.68,1.64-1L266.85,197c-.59.37-1.16.74-1.72,1.11ZM375.09,323l1.83,9.27c1.57-.08,3.12-.22,4.68-.32L380,322.7C378.34,322.81,376.72,322.9,375.09,323Zm4.83,8.28-2.36.17L376,323.72l3.27-.19,1.36,7.68Zm21.82-11.19,5.12,8.86c1.5-.27,3-.6,4.44-.9l-4.91-8.82C404.85,319.51,403.3,319.8,401.74,320.07Zm7.7,7.54c-.72.15-1.45.31-2.18.44l-4.28-7.4c1-.18,2-.37,3-.56l4.11,7.39ZM237,231.08l-15.72-1.9c-.35.88-.81,1.75-1.11,2.64l15.82,2C236.28,232.92,236.62,232,237,231.08Zm-1.55,1.9-14.18-1.82.26-.57.24-.56,14.13,1.71C235.72,232.17,235.57,232.58,235.43,233Zm5.26-9.44L225.4,220.7c-.5.86-1.09,1.71-1.54,2.57l15.33,3C239.66,225.33,240.16,224.43,240.69,223.54Zm-15.6-.83.37-.59.33-.54,13.66,2.53c-.23.41-.46.82-.68,1.23Zm9.56,16.09-16-1c-.18.9-.42,1.8-.56,2.7l16.06,1.06C234.29,240.67,234.45,239.73,234.65,238.8Zm-1.16,2L219,239.83c.06-.29.13-.59.2-.89l.06-.26,14.41.85C233.63,239.94,233.55,240.35,233.49,240.78Zm18.63-31.41-14-4.61c-.8.78-1.62,1.55-2.38,2.34l13.89,4.71C250.46,211,251.28,210.17,252.12,209.37Zm-14.88-2.61.91-.88.23-.22,12.26,4.05c-.41.4-.8.8-1.18,1.19Zm22.48-3.88-13.05-5.41c-.95.72-1.88,1.45-2.78,2.18l12.95,5.51C257.77,204.39,258.73,203.64,259.72,202.88Zm-14.32-3.44,1.38-1.07,11.38,4.72-1.45,1.16Zm-11.67,47.18-16.1,0c0,.91,0,1.81,0,2.72l16.1.08C233.71,248.51,233.71,247.57,233.73,246.62Zm-15.31,2c0-.38,0-.76,0-1.14l14.52,0c0,.42,0,.84,0,1.25Zm27.33-32.3-14.69-3.74c-.66.82-1.36,1.63-2,2.46l14.69,3.86C244.41,218,245.06,217.13,245.75,216.28Zm-15.31-1.74.59-.72.32-.4,13,3.32-.92,1.22Zm35.27,82.66-11.82,6.21c1,.68,2.1,1.35,3.17,2L269,299.3C267.88,298.61,266.78,297.91,265.71,297.2Zm-10.26,6.28,10.21-5.37,1.75,1.13-10.31,5.29Zm-5.38-19.15L236.23,289c.77.79,1.6,1.56,2.41,2.34l13.9-4.55C251.69,286,250.87,285.15,250.07,284.33Zm-11.22,6.11-.11-.1-1.05-1,12.16-4.1,1.21,1.21Zm5.25-13.18-14.65,3.8c.61.83,1.33,1.65,2,2.47l14.65-3.68C245.4,279,244.73,278.12,244.1,277.26Zm-12.73,4.94c-.19-.23-.38-.45-.56-.68l13-3.37c.32.43.63.83.94,1.23l-13,3.27ZM257.3,291l-12.89,5.46c.91.74,1.86,1.47,2.81,2.2l13-5.37C259.21,292.53,258.24,291.77,257.3,291Zm-11.37,5.67,11.24-4.76c.47.38,1,.77,1.48,1.17l-11.31,4.68Zm-6.5-26.8-15.3,2.9c.46.87,1.05,1.71,1.57,2.57L241,272.56C240.42,271.67,239.91,270.77,239.43,269.87ZM225.76,274l-.39-.62L239,270.75l.69,1.24-13.61,2.48Zm10.37-11.71-15.8,2c.3.89.78,1.76,1.13,2.65l15.7-1.85C236.79,264.09,236.44,263.17,236.13,262.25ZM222,266c-.08-.2-.17-.39-.25-.57l-.26-.57,14.15-1.77.46,1.25Zm12.28-11.54-16,1c.15.9.4,1.8.59,2.7l16-.89C234.54,256.35,234.37,255.41,234.23,254.47Zm-14.84,2.87c0-.09,0-.19-.07-.29-.07-.29-.14-.57-.2-.85l14.44-.9c.08.42.15.84.23,1.25Z"/><path class="cls-12" d="M380.69,164.68c-1.56-.11-3.11-.25-4.68-.34l-1.73,9.27c1.63.08,3.25.18,4.88.3Zm-5.47,8.19,1.44-7.7,2.36.17.76.06-1.28,7.67Zm62.92,3.29c-1.36-.47-2.7-.95-4.07-1.39l-8.07,8c1.43.45,2.85.93,4.25,1.42Zm-10.67,6.25,6.81-6.75c.82.27,1.63.55,2.42.83L430,183.27C429.16,183,428.31,182.68,427.47,182.41ZM424.62,172c-1.42-.38-2.83-.79-4.28-1.15l-6.58,8.45c1.5.37,3,.76,4.48,1.16Zm-9.5,6.83,5.53-7.09c.78.2,1.56.41,2.33.63l.31.08-5.36,7.11Zm-114.73,3.7-8.15-8c-1.37.44-2.7.91-4.05,1.37l8,8.06Q298.26,183.21,300.39,182.53ZM292,175.4l6.89,6.78-2.55.85-6.74-6.81Zm46.53-.79-3.51-9.13c-1.54.17-3,.44-4.57.64l3.29,9.08C335.36,175,337,174.79,338.56,174.61Zm-6.08-8c.67-.1,1.36-.21,2-.3l2.92,7.62c-1,.11-2,.24-3.16.38l-2.74-7.57ZM278.2,191.47l-10.83-6.86c-1.18.6-2.34,1.2-3.49,1.82l10.7,6.93C275.77,192.72,277,192.09,278.2,191.47Zm-10.87-5.95,9.28,5.88-2,1-9.18-5.95ZM486.42,273l15.29,2.84c.5-.86,1.08-1.7,1.54-2.56l-15.34-3C487.44,271.22,487,272.11,486.42,273Zm15.6.84c-.12.2-.25.39-.38.6l-.33.53-13.65-2.54c.23-.4.46-.81.68-1.23Zm-9.56-16.09,16,.94c.18-.9.42-1.8.55-2.7L493,254.93C492.81,255.87,492.65,256.81,492.46,257.75Zm1.16-2,14.45,1c-.06.29-.12.59-.19.9l-.06.25L493.4,257C493.48,256.61,493.55,256.19,493.62,255.77Zm-35,43.87,12,6.18c1.07-.67,2.12-1.34,3.15-2l-11.89-6.25C460.87,298.26,459.78,299,458.66,299.64Zm13.6,4.24c-.52.33-1.06.68-1.63,1l-10.37-5.33,1.72-1.11Zm-4.87-10.22,13.05,5.42c.94-.72,1.88-1.45,2.78-2.19l-13-5.51Q468.88,292.53,467.39,293.66Zm14.31,3.44-1.38,1.08L469,293.46c.51-.4,1-.79,1.45-1.17ZM477,212.22l13.84-4.66c-.76-.79-1.59-1.57-2.41-2.35l-13.9,4.56C475.42,210.58,476.24,211.39,477,212.22Zm11.23-6.11.18.17c.33.31.66.62,1,.94l-12.17,4.09q-.57-.59-1.2-1.2ZM491,234.3l15.8-2c-.3-.88-.78-1.76-1.13-2.64l-15.71,1.85C490.32,232.45,490.67,233.38,491,234.3Zm14.17-3.76c.09.19.18.39.26.58l.26.56-14.15,1.76c-.15-.4-.3-.82-.47-1.24ZM331.37,330.31c1.53.2,3,.48,4.58.66l3.4-9.13c-1.6-.18-3.2-.38-4.79-.59Zm6.9-7.8-2.84,7.6c-.69-.09-1.38-.2-2.05-.3l-.95-.14,2.66-7.56C336.2,322.26,337.25,322.39,338.27,322.51Zm-35.79,2c1.43.38,2.84.79,4.29,1.15l6.58-8.46c-1.5-.37-3-.75-4.48-1.15Zm9.51-6.84-5.53,7.1c-.79-.2-1.58-.42-2.35-.63l-.3-.09,5.37-7.1C310.08,317.23,311,317.47,312,317.71ZM426.71,314l8.16,8c1.37-.44,2.7-.91,4.05-1.38l-8-8.05C429.54,313.09,428.14,313.57,426.71,314Zm8.37,7.12-6.89-6.77c.83-.27,1.67-.55,2.54-.86l6.75,6.82C436.69,320.6,435.89,320.88,435.08,321.14ZM275.17,302.86l-10.62,6.89q1.74.94,3.51,1.83l10.75-6.82C277.58,304.15,276.37,303.51,275.17,302.86ZM268,310.68l-1.92-1,9.1-5.91,2,1.06Zm120.53,11.25,3.51,9.14c1.54-.17,3-.44,4.57-.64l-3.29-9.08C391.75,321.56,390.15,321.76,388.55,321.93Zm6.08,8-2.06.29-2.92-7.61c1-.11,2.05-.24,3.16-.39l2.75,7.57ZM375.09,323l1.83,9.27c1.57-.08,3.12-.22,4.68-.32L380,322.7C378.34,322.81,376.72,322.9,375.09,323Zm4.83,8.28-2.36.17L376,323.72l3.27-.19,1.36,7.68ZM234.65,238.8l-16-1c-.18.9-.42,1.8-.56,2.7l16.06,1.06C234.29,240.67,234.45,239.73,234.65,238.8Zm-1.16,2L219,239.83c.06-.29.13-.59.2-.89l.06-.26,14.41.85C233.63,239.94,233.55,240.35,233.49,240.78Zm18.63-31.41-14-4.61c-.8.78-1.62,1.55-2.38,2.34l13.89,4.71C250.46,211,251.28,210.17,252.12,209.37Zm-14.88-2.61.91-.88.23-.22,12.26,4.05c-.41.4-.8.8-1.18,1.19Zm8.51,9.52-14.69-3.74c-.66.82-1.36,1.63-2,2.46l14.69,3.86C244.41,218,245.06,217.13,245.75,216.28Zm-15.31-1.74.59-.72.32-.4,13,3.32-.92,1.22Zm19.63,69.79L236.23,289c.77.79,1.6,1.56,2.41,2.34l13.9-4.55C251.69,286,250.87,285.15,250.07,284.33Zm-11.22,6.11-.11-.1-1.05-1,12.16-4.1,1.21,1.21Zm.58-20.57-15.3,2.9c.46.87,1.05,1.71,1.57,2.57L241,272.56C240.42,271.67,239.91,270.77,239.43,269.87ZM225.76,274l-.39-.62L239,270.75l.69,1.24-13.61,2.48Zm10.37-11.71-15.8,2c.3.89.78,1.76,1.13,2.65l15.7-1.85C236.79,264.09,236.44,263.17,236.13,262.25ZM222,266c-.08-.2-.17-.39-.25-.57l-.26-.57,14.15-1.77.46,1.25Z"/><g class="cls-14"><path class="cls-15" d="M445.55,248.93c-.14,11.19-7,21.45-18.46,29.49l4.72,2.29c13.26-9.29,19.77-19.7,19.88-31.77Z"/></g><path class="cls-3" d="M379.15,298.55c19.91-2,38.18-8,51.52-17.05L426,279.21c-15,10.1-37.3,16.49-62.17,16.45a131.32,131.32,0,0,1-40.28-6.18l-3,3A146,146,0,0,0,379.15,298.55Z"/><path class="cls-4" d="M281.48,248.14c-.14-26.11,36.55-47.3,81.78-47.21,4.55,0,9,.23,13.38.65l1.05-3.5a143.36,143.36,0,0,0-44.57,2.3c-34.67,7.23-57.89,26.41-57.78,47.73A32.34,32.34,0,0,0,280.48,265l5.72-1.19A30.16,30.16,0,0,1,281.48,248.14Z"/><path class="cls-12" d="M286.82,264.82,281.09,266c7.39,11.32,19.77,19.84,37.83,26l3-3.05C306,283.47,293.49,275,286.82,264.82Z"/><path class="cls-13" d="M445.54,247.9h6.15c-.27-11.89-7.58-23.35-20.63-32.32s-31.36-15.11-51.61-17.33l-1.06,3.5C416.15,205.91,445,225,445.54,247.9Z"/><path class="cls-16" d="M349.07,252.05c1.17,14-32.65,28.18-75.53,31.77S194.94,279,193.77,265s32.65-28.18,75.54-31.77S347.91,238.09,349.07,252.05Z"/><path class="cls-17" d="M358.86,255c8.27,4,5.9,26.08-5.29,49.38s-27,39-35.24,35-5.9-26.08,5.3-49.37S350.59,251,358.86,255Z"/><path class="cls-18" d="M405.79,248.12c-.94-9.12,19.14-18.67,44.85-21.32s47.31,2.6,48.25,11.72S479.75,257.19,454,259.84,406.73,257.25,405.79,248.12Z"/><path class="cls-19" d="M372,241.21c-9.08-1.33-13.4-23.14-9.65-48.71s14.14-45.22,23.21-43.89,13.4,23.14,9.65,48.71S381,242.54,372,241.21Z"/><path class="cls-20" d="M492.74,196.3c3.05,13.67-18.75,30.16-48.69,36.84s-56.67,1-59.72-12.67S403.08,190.3,433,183.63,489.69,182.63,492.74,196.3Z"/><path class="cls-21" d="M483.29,315c-7.39,11.9-34.5,8.44-60.56-7.74s-41.2-38.93-33.81-50.83,34.5-8.44,60.56,7.74S490.68,303.12,483.29,315Z"/><path class="cls-22" d="M350.26,239.26c-8.32,11.27-35.06,5.64-59.74-12.58s-37.93-42.11-29.61-53.38,35.07-5.64,59.74,12.58S358.58,228,350.26,239.26Z"/><ellipse class="cls-23" cx="381.68" cy="259.32" rx="58.5" ry="24.34"/><path class="cls-24" d="M410.2,249.64c-18.15,18.14-37.26,24.73-53.66,20.78-.49-.12-7.68-1.83-8.16-2-16.51-4.66,3.69-11.33-3.1-36.7C331.6,180.7,350.62,109.2,387.76,72.07c18.36-18.37,1.53-35.5,18.06-31.23.46.12,10,3.54,10.47,3.68C432.57,49.36,446,64.85,452.67,90,466.35,141,447.34,212.5,410.2,249.64Z"/><path class="cls-25" d="M446.78,88.39c-6.56-24.47-19.45-39.78-35.17-45,12.51,7,22.59,21.21,28.14,41.93,13.68,51.05-5.34,122.55-42.48,159.69-19.33,19.33-39.76,25.52-56.84,19.83,18.3,10.3,41.8,5.33,63.87-16.74C441.44,210.94,460.46,139.45,446.78,88.39Z"/><path class="cls-26" d="M401.56,246.93c-37.26,37.26-78.59,25.94-92.32-25.28s5.36-122.94,42.62-160.2,78.59-25.95,92.32,25.27S438.82,209.67,401.56,246.93Z"/><path class="cls-27" d="M400.43,242.71c-35.57,35.57-75,24.77-88.12-24.12S317.42,101.23,353,65.67s75-24.77,88.12,24.12S436,207.14,400.43,242.71Z"/><path class="cls-28" d="M397,230.06c-30.48,30.49-64.3,21.23-75.53-20.67s4.38-100.59,34.87-131.08S420.68,57.08,431.91,99,427.53,199.58,397,230.06Z"/><path class="cls-29" d="M393.65,217.42c-25.4,25.4-53.58,17.69-62.94-17.23S334.36,116.36,359.77,91s53.58-17.69,62.94,17.23S419.06,192,393.65,217.42Z"/><path class="cls-30" d="M390.26,204.77C369.94,225.1,347.4,218.92,339.91,191s2.92-67.06,23.25-87.39S406,89.45,413.51,117.39,410.59,184.45,390.26,204.77Z"/><path class="cls-31" d="M386.88,192.13c-15.25,15.24-32.16,10.61-37.77-10.34s2.19-50.3,17.43-65.54,32.16-10.61,37.77,10.34S402.12,176.88,386.88,192.13Z"/><path class="cls-32" d="M383.49,179.48c-10.16,10.16-21.44,7.08-25.18-6.89s1.46-33.53,11.62-43.69,21.44-7.08,25.18,6.89S393.65,169.32,383.49,179.48Z"/><path class="cls-33" d="M322.87,208.63c-11.23-41.9,4.38-100.59,34.87-131.07a71.92,71.92,0,0,1,15.07-11.77,71,71,0,0,0-16.43,12.52c-30.49,30.49-46.1,89.17-34.87,131.08,9.4,35.07,34.61,47.26,60.46,32.45C356.6,255.46,332.1,243.09,322.87,208.63Z"/><path class="cls-33" d="M341.27,190.23c-7.49-27.93,2.92-67.06,23.24-87.38a48.63,48.63,0,0,1,9.57-7.56,47.13,47.13,0,0,0-10.92,8.31c-20.33,20.33-30.73,59.45-23.25,87.39,6.33,23.6,23.39,31.66,40.79,21.35C363.78,221.45,347.43,213.22,341.27,190.23Z"/><path class="cls-33" d="M359.67,171.83c-3.74-14,1.46-33.53,11.62-43.69a25.07,25.07,0,0,1,4.58-3.66,23.37,23.37,0,0,0-5.94,4.42c-10.16,10.16-15.36,29.72-11.62,43.69,3.19,11.89,11.83,15.89,20.59,10.55C370.62,187.29,362.69,183.11,359.67,171.83Z"/><path class="cls-34" d="M380.1,166.83c-5.08,5.09-10.72,3.54-12.59-3.44s.73-16.77,5.81-21.85S384,138,385.91,145,385.18,161.75,380.1,166.83Z"/><path class="cls-35" d="M441.11,89.79c-4.73-17.64-12.89-30.32-23.06-37.65,9.61,7.44,17.31,19.81,21.85,36.74,13.1,48.89-5.11,117.36-40.68,152.93-22.73,22.73-47.05,26.52-65.06,13.52,18.12,14.06,43,10.63,66.27-12.62C436,207.14,454.21,138.68,441.11,89.79Z"/><path class="cls-36" d="M422.71,108.19c-3.37-12.57-9.18-21.59-16.42-26.84,6.68,5.35,12,14.07,15.21,25.93,9.36,34.93-3.65,83.83-29.05,109.23-16.26,16.26-33.66,18.93-46.53,9.61,13,10.4,31,8.07,47.73-8.7C419.06,192,432.07,143.11,422.71,108.19Z"/><path class="cls-37" d="M404.31,126.59c-2.08-7.77-5.72-13.29-10.24-16.39,4,3.22,7.14,8.42,9,15.48,5.62,21-2.19,50.3-17.43,65.54-9.59,9.59-19.84,11.31-27.53,6.05,7.8,6.32,18.63,5,28.74-5.14C402.12,176.88,409.92,147.54,404.31,126.59Z"/><path class="cls-38" d="M385.91,145c-.75-2.81-2.12-4.72-3.81-5.69a10.1,10.1,0,0,1,2.6,4.78c1.87,7-.73,16.77-5.81,21.85-3,3-6.27,3.69-8.78,2.24,2.62,2.52,6.44,2.21,10-1.34C385.18,161.75,387.78,152,385.91,145Z"/><path class="cls-39" d="M452.94,135.3c-13.29,2.3-25.51-4.25-27.31-14.62s7.52-20.65,20.8-23,25.51,4.25,27.31,14.62S466.22,133,452.94,135.3Z"/><path class="cls-40" d="M415,262.38a17.11,17.11,0,1,1-9.34-22A16.93,16.93,0,0,1,415,262.38Z"/><g class="cls-5"><path class="cls-6" d="M408.18,221.72l3-1.71c-23.7-13.31-59.94-14.83-86.27-4.51l2.41,2C352,207.81,385.9,209.23,408.18,221.72Z"/></g><path class="cls-3" d="M364.19,202.67l0,4.24c16.83.15,32.3,3.66,44.47,9.41l4.71-3.24C399.93,206.7,382.81,202.82,364.19,202.67Zm44.42,12.75c-12.54-5.84-27.59-9-43.62-9.29v-2.66c16.95.23,33.48,3.68,46.82,9.74Z"/><path class="cls-12" d="M394.63,197.88l6.77-12.36c-1.7-.35-3.37-.74-5.08-1l-7,12.34C391.1,197.13,392.86,197.51,394.63,197.88Zm9,2.18,9-11.88c-1.63-.44-3.23-.91-4.88-1.31l-9.21,11.81C400.23,199.1,401.91,199.59,403.61,200.06Zm-66.36-3.33-7.15-12.37c-1.71.3-3.38.68-5.07,1l6.9,12.39C333.7,197.41,335.46,197,337.25,196.73Zm-9.17,1.83-9.34-11.85c-1.64.39-3.24.85-4.86,1.29l9.1,11.92C324.67,199.45,326.35,199,328.08,198.56Zm57.24-2.31,4.48-12.71c-1.75-.24-3.48-.52-5.24-.71l-4.75,12.71C381.66,195.73,383.49,196,385.32,196.25Zm-9.55-1.06,2.15-12.93c-1.78-.13-3.55-.27-5.34-.36l-2.42,12.93C372,194.91,373.9,195,375.77,195.19Zm-19.41-.39-2.55-12.93c-1.79.08-3.56.21-5.34.34l2.3,12.94C352.63,195,354.49,194.88,356.36,194.8Zm-9.64.68-4.88-12.73c-1.76.19-3.49.46-5.23.69l4.62,12.73C343.05,195.92,344.88,195.67,346.72,195.48Zm82.15-1.86L415.6,204.05c1.55.61,3,1.27,4.55,1.94l13.05-10.53C431.77,194.83,430.34,194.21,428.87,193.62Zm-62.79,1.09-.2-13c-1.79,0-3.58,0-5.37,0l-.06,13C362.33,194.67,364.2,194.67,366.08,194.71Zm52.51-4.79-11.3,11.19c1.65.52,3.25,1.09,4.86,1.66l11.07-11.26C421.68,191,420.15,190.42,418.59,189.92Z"/><path class="cls-13" d="M375.77,195.19l2.15-12.93c-1.78-.13-3.55-.27-5.34-.36l-2.42,12.93C372,194.91,373.9,195,375.77,195.19Zm-19.41-.39-2.55-12.93c-1.79.08-3.56.21-5.34.34l2.3,12.94C352.63,195,354.49,194.88,356.36,194.8Zm72.51-1.18L415.6,204.05c1.55.61,3,1.27,4.55,1.94l13.05-10.53C431.77,194.83,430.34,194.21,428.87,193.62Z"/><path class="cls-4" d="M403.61,200.06l9-11.88c-1.63-.44-3.23-.91-4.88-1.31l-9.21,11.81C400.23,199.1,401.91,199.59,403.61,200.06Zm-75.53-1.5-9.34-11.85c-1.64.39-3.24.85-4.86,1.29l9.1,11.92C324.67,199.45,326.35,199,328.08,198.56Zm57.24-2.31,4.48-12.71c-1.75-.24-3.48-.52-5.24-.71l-4.75,12.71C381.66,195.73,383.49,196,385.32,196.25Z"/><path class="cls-12" d="M395.74,166.24c-1.53-.21-3-.48-4.58-.66l-3.41,9.12c1.61.18,3.2.39,4.8.6Zm-6.9,7.8,2.84-7.6c.69.09,1.38.19,2.06.3l.94.14L392,174.44Zm21.6-5.36c-1.49-.29-2.95-.64-4.45-.9l-5,8.83c1.56.28,3.12.57,4.66.88ZM402.19,176l4.2-7.38c.73.14,1.47.3,2.18.45l.67.14-4,7.36Zm-21.5-11.35c-1.56-.11-3.11-.25-4.68-.34l-1.73,9.27c1.63.08,3.25.18,4.88.3Zm-5.47,8.19,1.44-7.7,2.36.17.76.06-1.28,7.67Zm62.92,3.29c-1.36-.47-2.7-.95-4.07-1.39l-8.07,8c1.43.45,2.85.93,4.25,1.42Zm-10.67,6.25,6.81-6.75c.82.27,1.63.55,2.42.83L430,183.27C429.16,183,428.31,182.68,427.47,182.41ZM424.62,172c-1.42-.38-2.83-.79-4.28-1.15l-6.58,8.45c1.5.37,3,.76,4.48,1.16Zm-9.5,6.83,5.53-7.09c.78.2,1.56.41,2.33.63l.31.08-5.36,7.11ZM352,173.57l-1.84-9.27c-1.56.08-3.11.21-4.67.32l1.63,9.23C348.77,173.74,350.39,173.64,352,173.57Zm-4.89-8.28,2.41-.17,1.53,7.71c-1.14,0-2.22.12-3.27.19l-1.36-7.68Zm-21.76,11.18-5.12-8.85c-1.5.26-3,.6-4.45.89l4.92,8.83C322.26,177,323.81,176.75,325.37,176.47Zm-7.65-7.55,2.12-.43,4.29,7.4-3,.56L317,169.07Zm20.84,5.69-3.51-9.13c-1.54.17-3,.44-4.57.64l3.29,9.08C335.36,175,337,174.79,338.56,174.61Zm-6.08-8c.67-.1,1.36-.21,2-.3l2.92,7.62c-1,.11-2,.24-3.16.38l-2.74-7.57Zm33.12,6.7-.15-9.3h-4.71l0,9.29h2.05Zm-4.07-8.52h3.15l.12,7.72h-3.31Z"/><path class="cls-12" d="M380.69,164.68c-1.56-.11-3.11-.25-4.68-.34l-1.73,9.27c1.63.08,3.25.18,4.88.3Zm-5.47,8.19,1.44-7.7,2.36.17.76.06-1.28,7.67Zm62.92,3.29c-1.36-.47-2.7-.95-4.07-1.39l-8.07,8c1.43.45,2.85.93,4.25,1.42Zm-10.67,6.25,6.81-6.75c.82.27,1.63.55,2.42.83L430,183.27C429.16,183,428.31,182.68,427.47,182.41ZM424.62,172c-1.42-.38-2.83-.79-4.28-1.15l-6.58,8.45c1.5.37,3,.76,4.48,1.16Zm-9.5,6.83,5.53-7.09c.78.2,1.56.41,2.33.63l.31.08-5.36,7.11Zm-76.56-4.22-3.51-9.13c-1.54.17-3,.44-4.57.64l3.29,9.08C335.36,175,337,174.79,338.56,174.61Zm-6.08-8c.67-.1,1.36-.21,2-.3l2.92,7.62c-1,.11-2,.24-3.16.38l-2.74-7.57Z"/><path class="cls-13" d="M425.43,212.08c-12.46-7.06-28.49-11.91-46-13.82l-1.06,3.5c17.46,1.92,33,7,44.72,14.24C423.9,214.71,424.67,213.41,425.43,212.08Z"/><g class="cls-41"><path class="cls-15" d="M308,186.35c0,.54.06,1.07.09,1.61a190.51,190.51,0,0,1,54.69-7.71c26.15,0,51,4.84,71.57,13.79.2-.49.41-1,.61-1.46-20.75-9-45.83-13.9-72.18-13.9A192.15,192.15,0,0,0,308,186.35Z"/><path class="cls-15" d="M308,183.44c0,.28,0,.55,0,.82a200.44,200.44,0,0,1,54.8-7.37c26.58,0,51.89,4.79,73,13.66.09-.25.19-.49.29-.73-21.24-8.9-46.65-13.72-73.33-13.72A201.45,201.45,0,0,0,308,183.44Z"/></g><path class="cls-13" d="M310.35,207.5c.26,1.4.53,2.78.84,4.15,14.15-6.73,32.29-10.76,52.07-10.72,4.55,0,9,.23,13.38.65l1.05-3.5a143.36,143.36,0,0,0-44.57,2.3A117.39,117.39,0,0,0,310.35,207.5Z"/><path class="cls-13" d="M313,218.8c12.69-7.26,30.09-11.78,49.33-11.89l0-4.24c-19.37.1-37.05,4.25-50.65,11.05.06.26.13.52.19.78,13.42-6.73,30.84-10.83,49.68-11v2.67c-18.75.23-36,4.7-48.76,11.92C312.89,218.3,313,218.55,313,218.8Z"/><g class="cls-42"><path class="cls-43" d="M86.73,66.26l-1.49,5.55A18,18,0,0,1,65.78,85L0,77.18l8.17-50,65.73,17A18,18,0,0,1,86.73,66.26Z"/><path class="cls-44" d="M85.53,66.23l-1.36,5A17.28,17.28,0,0,1,65.45,84L2.81,76.52l7.8-47.72L73.18,45A17.29,17.29,0,0,1,85.53,66.23Z"/><path class="cls-45" d="M84.32,66.21,83.1,70.75a16.6,16.6,0,0,1-18,12.17L5.62,75.85,13,30.43,72.46,45.84A16.59,16.59,0,0,1,84.32,66.21Z"/><path class="cls-46" d="M83.11,66.18l-1.08,4A15.91,15.91,0,0,1,64.79,81.88L8.44,75.19l7-43.12L71.75,46.65A15.91,15.91,0,0,1,83.11,66.18Z"/><path class="cls-47" d="M81.91,66.15l-1,3.54A15.23,15.23,0,0,1,64.47,80.84L11.25,74.53,17.92,33.7,71,47.47A15.22,15.22,0,0,1,81.91,66.15Z"/><path class="cls-48" d="M80.7,66.13l-.82,3A14.52,14.52,0,0,1,64.14,79.81l-50.08-6,6.3-38.52,50,12.95A14.53,14.53,0,0,1,80.7,66.13Z"/><path class="cls-49" d="M79.49,66.1l-.68,2.52a13.84,13.84,0,0,1-15,10.15L16.87,73.2,22.79,37,69.6,49.1A13.84,13.84,0,0,1,79.49,66.1Z"/><path class="cls-50" d="M78.29,66.07l-.55,2a13.15,13.15,0,0,1-14.25,9.65l-43.8-5.2L25.23,38.6,68.88,49.92A13.16,13.16,0,0,1,78.29,66.07Z"/><path class="cls-51" d="M77.08,66l-.41,1.52A12.47,12.47,0,0,1,63.16,76.7L22.5,71.88l5.17-31.64,40.5,10.49A12.48,12.48,0,0,1,77.08,66Z"/><path class="cls-52" d="M75.87,66l-.27,1a11.79,11.79,0,0,1-12.77,8.64L25.31,71.21,30.1,41.87l37.35,9.68A11.79,11.79,0,0,1,75.87,66Z"/><path class="cls-53" d="M74.66,66l-.13.5a11.09,11.09,0,0,1-12,8.14L28.12,70.55l4.42-27,34.2,8.87A11.09,11.09,0,0,1,74.66,66Z"/><path class="cls-54" d="M73.46,66h0a10.4,10.4,0,0,1-11.28,7.63l-31.25-3.7,4-24.75,31,8A10.42,10.42,0,0,1,73.46,66Z"/></g><polygon class="cls-55" points="191.97 99.31 207.82 104.4 191.31 100.56 191.97 99.31"/><path class="cls-56" d="M63.4,64.92l-4.66-6.24A3.91,3.91,0,0,1,63.84,53l38.71,22.6Z"/><path class="cls-57" d="M64.15,64.6l-4.66-6.23a3.88,3.88,0,0,1,1.28-5.78,3.9,3.9,0,0,0-2,6.09l4.66,6.24,39.15,10.65-1.66-1Z"/><path class="cls-58" d="M193.31,101a.36.36,0,0,1-.35.13s-7,1-18.47-2.17c-16.36-4.53-18.41-5.81-18.42-5.81-.43-.13.1-.29-.07-1a4.75,4.75,0,0,1,1.15-4.14c.48-.47,0-.92.47-.8,0,0,2.38,0,18.75,4.59,11.48,3.19,17,7.82,17,7.82a.36.36,0,0,1,.23.3A1.17,1.17,0,0,1,193.31,101Z"/><path class="cls-59" d="M157.42,92.63c-1,1-2,.65-2.38-.68a4.74,4.74,0,0,1,1.14-4.13c1-1,2-.65,2.38.67A4.74,4.74,0,0,1,157.42,92.63Z"/><path class="cls-60" d="M157.08,92.36a1.45,1.45,0,0,1-1.33.5l-95-26.54c-.4-.12.1-.28-.06-.91a4.53,4.53,0,0,1,1.09-3.95c.46-.45,0-.88.45-.76l95.06,26.57a1.48,1.48,0,0,1,.9,1.14A4.56,4.56,0,0,1,157.08,92.36Z"/><path class="cls-61" d="M62,65.79c-.93.92-2,.63-2.27-.64a4.52,4.52,0,0,1,1.09-4c.93-.91,1.95-.62,2.27.65A4.5,4.5,0,0,1,62,65.79Z"/><path class="cls-62" d="M64.52,62l39.74,11.11L86.36,51.6a12.07,12.07,0,0,0-21.24,6.06Z"/><path class="cls-63" d="M65,62.34l39.74,11.11L86.84,51.93A12.07,12.07,0,0,0,65.6,58Z"/><path class="cls-64" d="M65.81,58.53a12.07,12.07,0,0,1,21.24-6.07l17.38,20.91.31.08L86.84,51.93A12.07,12.07,0,0,0,65.6,58L65,62.34l.27.08Z"/><path class="cls-65" d="M63.11,66.57l-1.64,2.84A10.09,10.09,0,0,0,72.3,84.33l30.32-6.42Z"/><path class="cls-66" d="M63.82,66.65l-1.64,2.83A10.1,10.1,0,0,0,73,84.41L103.33,78Z"/><path class="cls-67" d="M73.6,84.26A10.1,10.1,0,0,1,62.77,69.33l1.48-2.56-.43-.12-1.64,2.83A10.1,10.1,0,0,0,73,84.41L103.33,78l-.06,0Z"/><path class="cls-68" d="M185.33,96.72c-.42,1.53-12.21-.29-26.35-4.09S133.71,84.52,134.12,83s12.21.28,26.35,4.08S185.74,95.18,185.33,96.72Z"/></g></g></g></svg>