<?xml version="1.0" encoding="utf-8"?>
<!-- Generator: Adobe Illustrator 24.0.2, SVG Export Plug-In . SVG Version: 6.00 Build 0)  -->
<svg version="1.1" id="Capa_1" xmlns="http://www.w3.org/2000/svg" xmlns:xlink="http://www.w3.org/1999/xlink" x="0px" y="0px"
	 viewBox="0 0 500 500" style="enable-background:new 0 0 500 500;" xml:space="preserve">
<style type="text/css">
	.st0{fill:#042E61;}
	.st1{fill:#01A0DF;}
	.st2{fill:#F8F9FA;}
</style>
<g>
	<path class="st0" d="M80.6,456.8c-2,0-3.9-0.6-5.7-1.5c-3.6-1.9-6.7-4.4-9-8c-1-1.6-1.9-3.2-2.6-4.9c-0.3-0.8-0.6-1.7-0.8-2.5
		c-0.6-2.3-0.9-4.7-0.9-7.1c0,0,0,0,0,0c0-119.7,0-239.5,0-359.2c0-1.5,0.1-2.8,0.3-4.4c0.1-0.6,0.2-1.2,0.3-2
		c0.7-3.1,2.2-5.6,3.8-8.1c3.2-4.9,7.8-8.1,13.4-9.6c1.8-0.5,3.7-0.6,5.5-0.8c0.6-0.1,1.6-0.1,2.1-0.1c111.7,0,223.4,0,335.1,0
		c2.9,0,5.8,0.4,8.6,1.3c6.7,2.3,11.7,6.6,14.5,13.3c0.5,1.1,0.8,2.3,1.3,3.4c0.2,1,0.6,1.9,0.7,2.9c0.1,1,0.1,2.1,0.1,3.1
		c0,121,0,241.9,0,362.9l0,0c0,1.6-0.3,3.2-0.8,4.8c-0.4,1.3-0.9,2.5-1.4,3.7c-2.7,5.5-6.6,9.9-12.6,12.2c-1.2,0.4-1.4,0.4-2.1,0.6
		c-0.9,0.1-1.9,0.2-2.8,0.2C312,456.8,196.3,456.8,80.6,456.8C80.7,456.8,80.7,456.8,80.6,456.8z M124.7,220.4c0.1,0,0.2,0,0.3,0
		c0,0.5,0,1,0,1.4c-0.4,5.2,0.7,10.2,2.6,14.9c1.8,4.5,4.3,8.7,7.4,12.6c5.1,6.2,11.3,10.7,18.8,13.5c3.6,1.4,7.3,2.4,11.1,2.7
		c3.9,0.3,7.9,0.6,11.9-0.4c1.1-0.3,2.1,0,2.5,1.2c0.2,0.6,0.6,1.2,0.9,1.8c1.9,4.9,5,9,8.5,12.9c3.4,3.7,7.4,6.6,11.8,9.1
		c7.1,4.2,14.8,5.8,22.8,6.2c2,0.1,4.1-0.4,6.2-0.4c3.5,0,6.9-1,10.1-2.1c8.9-3.1,16.6-8.2,22.3-15.8c2.1-2.9,4-5.9,5.8-9
		c1.1-1.9,0.7-1.8,3.5-0.9c0.4,0.1,0.7,0.2,1,0.4c4.5,1.9,9.3,2.5,14.2,2.8c1.9,0.1,3.7-0.5,5.6-0.4c3.3,0,6.3-1.1,9.3-2.1
		c6.3-2.2,11.8-5.8,16.4-10.6c1.9-2,3.4-4.3,5-6.5c1.5-2.1,1.4-2,3.9-1.6c2.3,0.4,4.6,0.7,7,0.8c6.3,0.2,12.5-0.9,18.6-2.6
		c6.2-1.7,11.7-4.7,16.9-8.3c4.1-2.8,7.9-6.2,10.9-10.2c1.6-2.1,3.3-4.2,4.6-6.4c2.4-3.9,4.3-8,5.8-12.4c1.6-5,2.7-10.1,3-15.4
		c0.2-3.6,0.3-7.2-0.5-10.7c-0.7-3.4-1-6.9-2.1-10.2c-2.1-6.6-5.4-12.6-9.5-18.2c-4.4-5.9-9.9-10.6-16.2-14.4
		c-5.2-3.1-10.7-5.2-16.6-6.6c-6.3-1.6-12.8-1.9-19.1-1.3c-5.4,0.5-10.7,1.8-15.7,4.1c-1.1,0.5-1.7,0.3-2.4-0.7
		c-1.2-1.9-2.6-3.7-3.9-5.5c-3.6-5-8.4-8.7-13.7-11.6c-5-2.8-10.4-4.7-16.2-5.4c-5.6-0.7-11.2-0.7-16.6,0.4
		c-8.5,1.8-16.1,5.8-22.5,11.8c-1.7,1.6-1.9,1.5-3.6-0.3c-2.2-2.3-4.4-4.6-6.8-6.7c-4.1-3.6-8.9-6.2-14-8.2
		c-5.4-2.1-11.2-3.2-17-3.5c-3.5-0.2-7,0.1-10.4,0.7c-3.1,0.5-6.1,1.6-9.2,2.6c-7.7,2.5-14.2,6.9-19.8,12.6c-2.9,3-5.4,6.4-7.6,10.1
		c-4.4,7.4-6.5,15.4-7,23.8c-0.2,3,0.2,6,0.4,9c0.3,4.1,1.4,7.9,2.9,11.7c0.8,2.1,0.8,2.2-1,3.5c-2,1.5-4.2,2.9-6.1,4.6
		c-4.3,3.9-7.6,8.6-10,13.8c-1.4,3.1-2.6,6.3-3.3,9.5C125,213.6,125,217,124.7,220.4z M273.5,351.1c0,0.9,0,1.7,0,2.6
		c0,5.9,0,11.8,0,17.7c0,1.3,0.4,1.8,2,1.7c2.4-0.2,4.8-0.2,7.2,0c1.1,0.1,1.8-0.2,1.7-1.3c0-0.6,0-1.1,0-1.7
		c-0.1-6.5-0.2-13.1-0.3-19.6c0-0.7,0-1.3,0.1-2c0-0.1,0.5-0.2,0.5-0.2c0.3,0.4,0.5,0.8,0.8,1.2c4.7,7.4,9.4,14.9,14,22.4
		c0.7,1.2,1.5,1.5,3.1,1.2c1.8-0.3,3.6-0.2,5.4,0c1.7,0.2,2.3-0.2,2.3-1.6c-0.1-2.3,0-4.6,0-6.8c0-11,0-22.1,0-33.1
		c0-2.5-0.2-2.1-3.8-2.2c-1.1,0-2.2,0-3.3,0c-3.6,0.1-3.7-0.3-3.7,2.3c0,5.1,0.1,10.3,0.2,15.4c0,2.2,0.1,4.4,0,6.6
		c0,0.5-0.2,1-0.4,1.6c-0.5-0.6-1-1.1-1.3-1.8c-0.8-1.9-1.6-3.7-2.8-5.3c-3.7-4.8-7.2-9.9-9.8-15.4c-1.1-2.3-2.3-3.7-4.7-3.4
		c-1.6,0.2-3.2,0-4.8,0c-2.3,0-2.3,0-2.3,2.4C273.5,338.2,273.5,344.6,273.5,351.1z M349.3,351.1c0,2,0,4,0,6c0,4.7,0,9.3,0,14
		c0,1.8,0,1.9,1.9,1.9c2.3,0,4.6,0,6.9,0c2.3,0,2.3,0,2.3-2.1c0-3.2,0-6.5,0-9.7c0-0.3,0.2-0.5,0.3-0.8c0.2,0.2,0.5,0.3,0.6,0.5
		c1.5,1.9,2.9,4,4.1,6c0.8,1.4,1.9,2.6,2.9,3.9c1,1.2,1.5,3.3,5.2,1.4c2.5-1.3,5.4-0.7,7.9,0.6c0.4,0.2,0.8-0.1,1.3-0.3
		c-0.2-0.3-0.3-0.7-0.5-1c-3.2-4-6.4-8-9.6-12c-0.9-1.2-1-1.3,0.3-1.6c5.8-1.7,9.3-8.1,9.3-13.5c0-7-4.8-14.7-13.9-14.9
		c-5.6-0.1-11.2-0.2-16.8-0.3c-2.3,0-2.3,0-2.3,2.5C349.3,338.2,349.3,344.7,349.3,351.1z M207.1,351c0,2.8,0,5.7,0,8.5
		c0,4,0,8,0,12c0,1,0,1.8,1.9,1.5c2.2-0.5,4.5-0.6,6.7-0.1c2.4,0.6,2.9-0.7,2.2-3.1c-0.6-1.7-0.4-3.6,0-5.3c0.3-1.1-0.6-2.6,0.6-3.6
		c0.8,0.8,1.7,1.4,2.3,2.3c2.1,2.8,4.1,5.7,6.1,8.6c1.1,1.7,2.6,1.5,5.7,0.8c2.1-0.5,4.1-0.2,6.2,0.4c0.6,0.2,1.2-0.1,1.7-0.2
		c-0.2-0.5-0.4-1.1-0.8-1.4c-2.1-1.7-4.1-3.6-5.5-6c-3.9-6.8-5.8-6.4-3.2-7.3c3.4-1.2,5.8-3.4,7.5-6.6c4.7-9.2-1.3-24.6-16.9-21.4
		c-4,0.8-8.1,0.2-12-0.7c-1.3-0.3-2.5,0.7-2.5,2C207.1,337.8,207.1,344.4,207.1,351z M196.7,373C196.7,373,196.7,373,196.7,373
		c1.1,0,2.3,0.1,3.4,0c0.9-0.1,1.8-0.3,2.7-0.4c-0.3-0.7-0.5-1.4-0.8-2.1c-0.2-0.5-0.4-1.1-0.6-1.6c-3.2-7.9-6.3-15.8-9.5-23.7
		c-1.9-4.7-3.7-9.5-5.5-14.2c-0.5-1.4-1.4-2-3.2-1.7c-1.5,0.2-3,0.2-4.5,0c-1.6-0.2-2.4,0.3-2.9,1.6c-1.8,4.7-3.7,9.3-5.6,13.9
		c-3.5,8.8-7,17.5-10.5,26.3c-0.6,1.6-0.5,1.9,1.1,1.9c3,0,6.1,0,9.1,0c1.2,0,1.7-0.5,2-1.5c0.6-1.6,0.9-3.7,2.1-4.5
		c1.2-0.8,3.3-0.3,5-0.3c0.7,0,1.4,0,2,0c1.6,0,3.2,0,4.8,0c2.5,0.1,2.4-0.1,3.1,1.9c0.3,1,0.8,1.9,1,3c0.2,1,0.8,1.4,1.8,1.3
		C193.5,373,195.1,373,196.7,373z M130.1,351.2c0,2,0,4,0,6c0,4.7,0,9.3,0,14c0,2.3,0.1,1.7,3.7,1.9c1.2,0.1,2.3,0.1,3.5,0
		c3.5-0.2,3.6,0.3,3.6-1.8c0-2.8,0-5.5,0-8.3c0-3.4,0-3.3,3.2-3.4c2.4-0.1,4.7-0.1,7-0.5c3.7-0.6,6.9-2.3,9.3-5.5
		c2.2-3.1,2.7-6.5,2.7-10.2c-0.1-6.4-4.2-12.3-11.4-13.6c-1.9-0.3-3.8-0.5-5.6-0.5c-4.6-0.1-9.1,0-13.7,0c-2.3,0-2.4,0-2.4,2.3
		C130.1,338.1,130.1,344.7,130.1,351.2z M318,351.2c0,3.9,0,7.8,0,11.7c0,2.9,0,5.7,0,8.6c0,1.1,0.4,1.6,1.5,1.5c0.3,0,0.6,0,0.9,0
		c6.7,0,13.5,0,20.2,0c0.4,0,0.8,0.1,1.1-0.1c0.4-0.2,1-0.7,1-1c0.1-2.6,0.1-5.1,0-7.7c0-0.3-0.7-0.8-1.1-1c-0.6-0.2-1.3-0.1-2-0.1
		c-2.9,0-5.7,0-8.6,0c-1.8,0-1.9-0.1-2-2c0-1,0-1.9,0-2.9c0.1-2.9-0.1-1.8,5.1-2.2c1.7-0.1,3.5-0.1,5.2,0.1c1.8,0.2,2.9,0.1,2.8-1.6
		c-0.1-2.4-0.3-4.8,0-7.2c0.1-1.1-0.2-1.6-1.2-1.6c-1.2,0-2.4,0.1-3.6,0.1c-8.7-0.3-8.7,1-8.4-4.8c0.1-1.2,0.4-1.8,1.7-1.7
		c0.6,0,1.3,0,1.9,0c2,0,4.1,0.1,6.1,0c3.8-0.1,3.9,0.3,4-2c0-1.7,0-3.4,0-5.1c0-3.9,0.2-2.7-5.7-3.1c-4.4-0.3-8.9-0.4-13.3,0
		c-5.7,0.4-5.8-0.7-5.8,2.4C318,338.1,318,344.7,318,351.2z M249.4,356.4c0,4.9,0,9.9,0,14.8c0,1.8,0.1,1.7,2,1.8c2.4,0,4.8,0,7.2,0
		c2.2,0,2.2,0.1,2.2-1.8c0-1.2-0.1-2.4,0.2-3.5c0-7.5,0.1-14.4,0.1-21.9c-0.5-1.7-0.3-3.4-0.3-5c0-1.2,0.6-1.5,1.8-1.5
		c1.1,0.1,2.1,0.1,3.2,0.1c3.4-0.2,3.5,0.3,3.5-1.7c0-1.5,0-3.9,0-5.4c0-3.1,0.2-3-2.8-3c-5.4,0-10.8,0-16.2,0c-2.5,0-5.1,0-7.6,0
		c-1.9,0-1.8,0.2-1.9,2.6c0,2,0,4.1,0,6.1c0,1.3,0.2,1.3,1.8,1.3c1.4,0,2.8,0,4.3,0c2.5,0,2.5,0,2.5,2.6
		C249.4,346.7,249.4,351.6,249.4,356.4z"/>
	<path class="st1" d="M124.7,220.4c0.3-3.4,0.3-6.8,1-10.1c0.7-3.3,1.9-6.5,3.3-9.5c2.4-5.3,5.7-10,10-13.8c1.9-1.7,4-3.1,6.1-4.6
		c1.7-1.3,1.7-1.4,1-3.5c-1.4-3.8-2.6-7.6-2.9-11.7c-0.2-3-0.6-6-0.4-9c0.5-8.4,2.6-16.4,7-23.8c2.2-3.7,4.7-7.1,7.6-10.1
		c5.6-5.7,12.1-10.2,19.8-12.6c3-1,6.1-2.1,9.2-2.6c3.4-0.6,7-0.9,10.4-0.7c5.8,0.3,11.6,1.4,17,3.5c5.1,2,9.9,4.6,14,8.2
		c2.4,2.1,4.6,4.4,6.8,6.7c1.7,1.8,1.9,1.9,3.6,0.3c6.4-6,13.9-10,22.5-11.8c5.4-1.1,11-1.1,16.6-0.4c5.8,0.8,11.2,2.6,16.2,5.4
		c5.3,3,10.1,6.7,13.7,11.6c1.3,1.8,2.6,3.7,3.9,5.5c0.6,1,1.3,1.1,2.4,0.7c5-2.3,10.3-3.5,15.7-4.1c6.4-0.6,12.8-0.3,19.1,1.3
		c5.9,1.5,11.4,3.6,16.6,6.6c6.3,3.8,11.8,8.5,16.2,14.4c4.2,5.5,7.4,11.6,9.5,18.2c1,3.3,1.3,6.8,2.1,10.2
		c0.8,3.6,0.7,7.2,0.5,10.7c-0.3,5.3-1.3,10.4-3,15.4c-1.4,4.4-3.4,8.5-5.8,12.4c-1.4,2.3-3,4.3-4.6,6.4c-3,4-6.8,7.4-10.9,10.2
		c-5.2,3.6-10.7,6.6-16.9,8.3c-6.1,1.7-12.3,2.8-18.6,2.6c-2.3-0.1-4.7-0.4-7-0.8c-2.4-0.4-2.4-0.5-3.9,1.6c-1.6,2.2-3.1,4.5-5,6.5
		c-4.6,4.9-10.1,8.5-16.4,10.6c-3,1-6,2.1-9.3,2.1c-1.9,0-3.7,0.5-5.6,0.4c-5-0.2-9.9-0.9-14.5-2.9c-0.5-0.2-1.1-0.4-1.6-0.5
		c-1.8-0.6-1.6-0.5-2.6,1.2c-1.8,3.1-3.6,6.1-5.8,9c-5.7,7.7-13.4,12.7-22.3,15.8c-3.2,1.1-6.6,2.1-10.1,2.1c-2.1,0-4.1,0.5-6.2,0.4
		c-8.1-0.4-15.7-2.1-22.8-6.2c-4.3-2.6-8.4-5.4-11.8-9.1c-3.5-3.8-6.6-8-8.5-12.9c-0.2-0.6-0.7-1.2-0.9-1.8
		c-0.4-1.3-1.4-1.5-2.5-1.2c-3.9,1-7.9,0.7-11.9,0.4c-3.8-0.3-7.5-1.3-11.1-2.7c-7.5-2.8-13.7-7.4-18.8-13.5
		c-3.2-3.8-5.6-8-7.4-12.6c-1.9-4.7-3-9.7-2.6-14.9c0-0.5,0-1,0-1.4C124.8,220.4,124.7,220.4,124.7,220.4z M261.8,219.9
		c3.8,0.3,6.5-1.2,8.1-4.4c1-2.1,1.7-4.4,2.1-6.7c1.1-5.6,1.9-11.3,3-17c0.6-3.2,0.7-3.2,4-3.3c0.3,0,0.6,0,0.9,0
		c1.3-0.1,1.9-1.2,1.9-2.9c0-1.3-0.8-1.6-1.9-1.6c-0.7,0-1.3,0-2,0c-1.2-0.1-1.5-0.4-1.2-1.6c0.5-2.5,2.2-3.9,4.8-3.7
		c1.6,0.1,2.6-0.3,3-1.9c0.1-0.3,0.2-0.5,0.3-0.8c0.5-1.3,0.4-1.8-0.9-2c-2.6-0.5-5.3-0.7-7.7,0.7c-3,1.7-4.5,4.5-5,7.8
		c-0.2,1.2-0.5,1.7-1.7,1.6c-0.5,0-1,0-1.4,0c-0.9,0.1-2.3,3.3-1.9,4c0.1,0.2,0.5,0.3,0.7,0.4c0.9,0.2,2.3,0.1,2.6,0.6
		c0.4,0.7,0,1.9-0.1,2.9c0,0.6,0,1.1-0.1,1.7c-1.1,5.5-2.2,11.1-3.3,16.6c-0.7,3.7-1.8,4.7-5.4,4.7c-1.7,0-2.8,1.1-3,3
		c-0.1,1.1,0.8,1.7,2.7,1.8C260.8,219.9,261.4,219.9,261.8,219.9z M233,198.2c1.5,0,3,0,4.6,0c3.5,0,3.9,0.9,3.7-4
		c-0.3-5.4-3-9.7-9.2-10.4c-5.3-0.6-9.9,2.3-11.8,6.9c-1,2.6-1.2,5.2-1,7.8c0.3,4.9,3.7,9.4,8.3,10.3c3.7,0.7,7.6,0.7,11.3-0.5
		c1.2-0.4,1.6-1.3,1.2-2.7c-0.5-1.6-1.2-2.3-2.5-1.9c-2,0.5-4,1-6.1,0.9c-2.8-0.2-5.4-2-6-4.4c-0.4-1.5-0.1-2.1,1.6-2.1
		C229,198.2,231,198.2,233,198.2z M205.4,198.9C205.3,198.9,205.3,198.9,205.4,198.9c0-2.5,0-4.9-0.1-7.4c-0.2-3.4-2.4-6.4-5.4-7.2
		c-3.9-1.1-7.9-0.8-11.7,0.6c-2.3,0.9-2.6,1.3-1.4,3.9c0.7,1.5,0.8,1.6,2.3,0.9c2.3-1,4.7-1.4,7.2-1.2c1.9,0.2,3,1.2,3.5,2.8
		c0.4,1.4-0.1,2-1.5,1.7c-2.9-0.7-5.7-0.2-8.3,0.9c-3,1.2-4.9,3.5-5.4,6.7c-0.5,3.4,2.4,8,7,8.4c4,0.4,7.9,0.1,11.9-0.7
		c1.3-0.2,1.9-1,1.9-2.4C205.4,203.7,205.4,201.3,205.4,198.9z M357.1,209.5c2-0.3,4.1-0.6,6.1-1c1.4-0.3,1.7-1.2,1.4-2.6
		c-0.5-1.8-1-2.2-2.6-1.9c-2,0.3-4.1,0.7-6.2,0.7c-2.5,0-5.4-1.7-5.7-4.8c-0.2-1.5-0.3-1.6,1.3-1.6c3.4,0,6.8,0,10.2,0
		c4.7,0,3.9,0.3,4.2-4.1c0.3-4.4-3.9-9.7-8.7-10.2c-6.2-0.6-11.1,3.1-12.4,7.5c-0.8,3-0.8,6-0.4,9c0.4,3.1,2.1,5.5,4.9,7.2
		C351.6,209.2,354.3,209.3,357.1,209.5z M293.1,209.2c5.4,0.5,9.4-2.7,10.7-7c1.2-3.9,1.3-7.8-0.2-11.7c-0.8-2.1-2.1-3.6-3.9-5
		c-1.8-1.4-3.9-1.6-5.9-1.7c-3.9-0.3-7.3,0.9-9.6,4.3c-2.5,3.8-3,7.9-2.1,12.4C283.4,206.3,288.2,209.7,293.1,209.2z M253.9,209.2
		c0.6,0,1.4,0,2.3,0c2.9-0.2,5.7-2.3,6.3-4.8c0.9-3.3,0.8-5.9-2.6-8.2c-1.2-0.8-2.5-1.2-3.8-1.8c-1.6-0.7-3.4-1.2-5-2
		c-1.5-0.8-1.5-2.5-0.2-3.5c0.4-0.3,1-0.4,1.6-0.5c2.4-0.2,4.7,0.1,6.9,1.3c0.9,0.5,1.4,0.2,1.9-0.5c1.5-2.1,1.1-3.6-1.4-4.5
		c-2.3-0.9-4.7-1.3-7.2-1.1c-1.9,0.2-3.8,0.4-5.3,1.7c-3.8,3.4-4.6,9,0.9,11.9c1.2,0.6,2.6,1,3.9,1.5c1.2,0.4,2.5,0.8,3.7,1.3
		c1,0.5,1.7,1.3,1.4,2.5c-0.2,1.2-1,1.7-2.1,2c-0.4,0.1-0.8,0.1-1.1,0.1c-2.5,0.1-4.9-0.4-7-1.8c-1.2-0.8-2.1-0.5-2.7,0.8
		c-0.7,1.6-0.3,2.8,1.2,3.8C248.1,209.1,250.8,209.3,253.9,209.2z M173.1,209.2c0.6,0,1.7,0.1,2.7,0c3.4-0.3,5.9-2.6,6.4-6.1
		c0.5-3.7-0.9-5.9-3.6-7.2c-1.3-0.6-2.6-1.1-3.9-1.6c-1.4-0.6-2.9-1-4.1-1.8c-0.6-0.4-1.2-1.5-1.1-2c0.2-0.7,1.2-1.3,1.9-1.8
		c0.3-0.2,0.7,0,1.1-0.1c2.2-0.2,4.3,0.4,6.3,1.2c0.4,0.2,1.1,0.2,1.5,0c1.7-1.3,1.4-3.7-0.4-4.6c-3.3-1.6-6.7-1.7-10.2-1.1
		c-2.4,0.4-5.1,2.6-5.8,6c-0.6,3,0.6,5.6,3.5,7.1c1.3,0.7,2.8,1.1,4.2,1.7c1.3,0.5,2.7,0.8,4,1.4c1.8,0.9,1.8,3.1,0,4.1
		c-0.5,0.3-1.1,0.3-1.6,0.4c-2.6,0.2-5.1-0.4-7.3-1.7c-0.5-0.3-1.6-0.7-1.8-0.5c-0.6,0.9-1.2,1.9-1.5,2.9c-0.1,0.4,0.4,1.2,0.9,1.6
		C166.8,208.9,169.7,209.4,173.1,209.2z M336.5,209.4c1.4-0.2,3.3-0.5,5.1-0.9c0.4-0.1,1.1-0.6,1.1-1c0.3-2.4-1.2-3.7-3.6-3.2
		c-0.3,0.1-0.5,0.2-0.8,0.3c-4,0.9-7.4-0.8-8.7-4.7c-0.4-1-0.4-2.2-0.4-3.3c0-4.4,2.5-8.7,8.7-7.8c0.5,0.1,0.9,0.2,1.4,0.4
		c1.8,0.4,2.6-0.3,3-2.3c0.3-1.5-0.2-2.2-2-2.4c-2.5-0.3-5-0.7-7.6-0.2c-4.3,0.9-7.1,3.5-8.4,7.5c-0.7,2.2-0.7,4.7-0.6,7
		c0.2,5.2,3.8,9.5,8.1,10.3C333.2,209.2,334.6,209.2,336.5,209.4z M215.1,191.8c0-4.4,0-8.7,0-13.1c0-1,0.1-2.1,0-3.1
		c0-0.4-0.4-1.1-0.6-1.1c-1.3-0.1-2.7-0.1-4,0c-0.3,0-0.7,0.6-0.8,1c-0.1,0.5,0,1.1,0,1.7c0,9.5,0.1,19,0,28.5
		c0,2.7,0.9,3.5,3.3,3.3c2.2-0.1,2.3,0,2.3-2.4C215.1,201.7,215.1,196.8,215.1,191.8z M308.3,196.7c0,3.4,0,6.8,0,10.2
		c0,0.9,0,1.7,1.1,2.1c3,0.9,4.4-0.1,4.4-3.3c0-0.4,0-0.8,0-1.1c0-3.1-0.1-6.3,0.1-9.4c0.2-3.6,2-6.1,5.6-6.1c2.5,0,2.8-0.3,3.4-2.8
		c0.3-1.3-0.1-2-1.5-2.2c-2.2-0.2-4.4-0.3-6.3,1c-0.3,0.2-1.1,0.3-1.2,0.3c-0.6-1.8-2.1-1.3-3.4-1.3c-2.1,0-2.3,0.2-2.3,2.3
		C308.3,189.9,308.3,193.3,308.3,196.7z"/>
	<path class="st2" d="M273.5,351.1c0-6.5,0-12.9,0-19.4c0-2.4,0-2.4,2.3-2.4c1.6,0,3.3,0.2,4.8,0c2-0.3,3.2,0.6,4.1,2.2
		c3.5,5.8,7,11.5,10.5,17.2c1,1.7,2,3.4,3.1,5.1c0.3,0.5,0.7,0.9,1,1.3c0.1-0.5,0.4-1,0.4-1.6c0-2.2,0-4.4,0-6.6
		c-0.1-5.1-0.1-10.3-0.2-15.4c0-2.2,0-2.3,2.2-2.3c2.2,0,4.4,0,6.6,0c1.9,0,2,0.1,2,2.2c0,11,0,22.1,0,33.1c0,2.3-0.1,4.6,0,6.8
		c0,1.2-0.4,1.7-1.6,1.7c-2.3-0.1-4.6,0-6.8,0c-1.1,0-1.7-0.4-2.3-1.3c-4.6-7.5-9.3-14.9-14-22.4c-0.3-0.4-0.5-0.8-0.8-1.2
		c0-0.1-0.5,0.1-0.5,0.2c-0.1,0.7-0.1,1.3-0.1,2c0.1,6.5,0.2,13.1,0.3,19.6c0,0.6,0,1.1,0,1.7c0.1,1-0.5,1.3-1.4,1.3
		c-2.7,0-5.3-0.1-8,0c-1.3,0-1.6-0.5-1.6-1.7c0-5.9,0-11.8,0-17.7C273.5,352.8,273.5,351.9,273.5,351.1z"/>
	<path class="st2" d="M349.3,351.1c0-6.5,0-12.9,0-19.4c0-2.4,0-2.5,2.3-2.5c5.6,0.1,11.2,0.2,16.8,0.3c9.1,0.2,13.8,7.9,13.9,14.9
		c0,5.5-3.5,11.9-9.3,13.5c-1.3,0.4-1.3,0.5-0.3,1.6c3.2,4,6.4,8,9.6,12c0.2,0.3,0.3,0.6,0.5,1c-0.3,0.1-0.6,0.4-1,0.4
		c-3.5,0-7,0-10.5,0c-1.4,0-2-1.1-2.6-1.9c-1.9-2.6-3.7-5.3-5.6-7.9c-0.5-0.8-1.1-1.5-1.7-2.3c-0.2-0.2-0.4-0.3-0.6-0.5
		c-0.1,0.3-0.3,0.5-0.3,0.8c0,3.2,0,6.5,0,9.7c0,2,0,2-2.1,2.1c-2.4,0-4.8,0-7.1,0c-1.9,0-1.9-0.1-1.9-1.9c0-4.7,0-9.3,0-14
		C349.3,355.1,349.3,353.1,349.3,351.1z M360.2,345C360.2,345,360.2,345,360.2,345c0,1.7-0.1,3.4,0,5.1c0,0.4,0.6,1,0.9,1.1
		c1.8,0.1,3.6,0.2,5.4-0.1c2.7-0.4,4.7-2.9,4.7-5.6c0-2.5-1.3-5-4.2-5.6c-1.9-0.4-3.9-0.4-5.9-0.5c-0.3,0-0.9,0.7-0.9,1.1
		C360.2,341.9,360.2,343.5,360.2,345z"/>
	<path class="st2" d="M207.1,351c0-6.6,0-13.1,0-19.7c0-2,0-2,2-2c5.6,0.1,11.2,0.2,16.8,0.3c12.4,0.2,16.8,13.5,12.6,21.8
		c-1.6,3.2-4.1,5.4-7.5,6.6c-1.5,0.5-1.5,0.6-0.5,1.8c3.1,3.9,6.3,7.8,9.4,11.7c0.3,0.3,0.4,0.8,0.6,1.2c-0.4,0.1-0.9,0.3-1.3,0.3
		c-3.2,0-6.5,0-9.7,0c-1.2,0-1.9-0.3-2.6-1.3c-2-2.9-4-5.7-6.1-8.6c-0.6-0.9-1.5-1.5-2.3-2.3c-1,0.9-0.5,2.1-0.5,3.1
		c0,2.5,0.2,4.9,0.3,7.4c0,1-0.4,1.6-1.5,1.7c-2.8,0-5.7,0-8.5,0c-1.1,0-1.1-0.7-1.1-1.5c0-4,0-8,0-12
		C207.1,356.6,207.1,353.8,207.1,351z M221.5,351.1c0.9,0,1.7,0.1,2.6,0c2.7-0.3,4.6-2.3,4.8-4.8c0.3-3.7-0.7-5.6-3.7-6.4
		c-1.9-0.5-3.9-0.5-5.9-0.7c-1-0.1-1.3,0.5-1.3,1.4c0,2.4,0,4.7,0,7.1C218,351.6,217.3,351.2,221.5,351.1z"/>
	<path class="st2" d="M196.7,373c-1.6,0-3.2,0-4.8,0c-1,0-1.6-0.3-1.8-1.3c-0.2-1-0.7-2-1-3c-0.6-1.9-0.6-1.9-2.5-1.9
		c-1.9,0-3.8,0-5.7,0c-0.6,0-1.1,0-1.7,0c-1.7,0-3.8-0.5-5,0.3c-1.2,0.8-1.5,2.9-2.1,4.5c-0.4,1-0.9,1.5-2,1.5c-3-0.1-6.1,0-9.1,0
		c-1.6,0-1.7-0.3-1.1-1.9c3.5-8.8,7-17.5,10.5-26.3c1.9-4.6,3.8-9.3,5.6-13.9c0.4-1.1,1.1-1.7,2.3-1.6c1.9,0,3.8,0.1,5.7,0
		c1.4-0.1,2.1,0.5,2.5,1.8c1.8,4.8,3.7,9.5,5.5,14.2c3.1,7.9,6.3,15.8,9.5,23.7c0.2,0.5,0.4,1.1,0.6,1.6c0.3,0.7,0.5,1.4,0.8,2.1
		c-0.9,0.1-1.8,0.4-2.7,0.4C199,373.1,197.8,373,196.7,373C196.7,373,196.7,373,196.7,373z M180.8,357.9c0.9,0,1.9,0,2.8,0
		c1.6-0.1,1.8-0.4,1.4-1.9c-0.5-1.8-1-3.6-1.6-5.4c-0.6-2-1.2-4-1.9-5.9c-0.1-0.2-0.4-0.4-0.6-0.5c-0.1,0-0.4,0.3-0.5,0.5
		c-0.9,3.1-2,6.1-2.7,9.2C176.8,358.1,175.6,357.9,180.8,357.9z"/>
	<path class="st2" d="M130.1,351.2c0-6.6,0-13.1,0-19.7c0-2.3,0-2.3,2.4-2.3c4.6,0,9.1,0,13.7,0c1.9,0,3.8,0.1,5.6,0.5
		c7.1,1.3,11.3,7.2,11.4,13.6c0,3.7-0.5,7.1-2.7,10.2c-2.3,3.2-5.5,4.8-9.3,5.5c-2.3,0.4-4.7,0.5-7,0.5c-3.2,0.1-3.2,0-3.2,3.4
		c0,2.8,0,5.5,0,8.3c0,1.7-0.1,1.7-1.8,1.8c-2.4,0-4.7,0-7.1,0c-1.9,0-1.9,0-1.9-1.8c0-4.7,0-9.3,0-14
		C130.1,355.2,130.1,353.2,130.1,351.2z M144.6,349.4c1.1,0,2.3,0.1,3.4,0c2.5-0.4,4.1-2.2,4.3-4.6c0.2-2.6-1-4.4-3.6-5
		c-2.1-0.4-4.3-0.4-6.5-0.5c-0.8-0.1-1.2,0.4-1.2,1.2c0,1.8,0,3.6,0,5.4C141,349.9,140.2,349.5,144.6,349.4z"/>
	<path class="st2" d="M318,351.2c0-6.6,0-13.1,0-19.7c0-2.2,0-2.3,2.2-2.3c6.7,0,13.5,0,20.2,0c2.3,0,2.3,0,2.3,2.4
		c0,1.8,0,3.6,0,5.4c0,2.1,0,2.1-2.3,2.1c-2.7,0-5.3,0-8,0c-0.6,0-1.1,0-1.7,0c-1.3-0.1-1.6,0.6-1.7,1.7c-0.3,4.8-0.3,4.8,4.5,4.8
		c2.5,0,4.9,0,7.4,0c0.8,0,1.2,0.3,1.2,1.2c0,2.6,0,5.1,0,7.7c0,1.3-0.7,1.6-1.8,1.6c-3.1,0-6.3,0-9.4,0c-1.9,0-1.9,0-1.9,1.9
		c0,1,0,2.1,0,3.1c0.1,1.8,0.1,1.9,2,2c2.9,0,5.7,0,8.6,0c0.7,0,1.4-0.1,2,0.1c0.4,0.1,1.1,0.6,1.1,1c0.1,2.6,0.1,5.1,0,7.7
		c0,0.4-0.6,0.8-1,1c-0.3,0.2-0.7,0.1-1.1,0.1c-6.7,0-13.5,0-20.2,0c-0.3,0-0.6,0-0.9,0c-1.1,0.1-1.5-0.4-1.5-1.5
		c0.1-2.9,0-5.7,0-8.6C318,359,318,355.1,318,351.2z"/>
	<path class="st2" d="M249.4,356.4c0-4.8,0-9.7,0-14.5c0-2.6,0-2.6-2.5-2.6c-1.4,0-2.8,0-4.3,0c-1.8,0-1.8-0.1-1.8-1.7
		c0-2.2,0-4.4,0-6.6c0-1.6,0.2-1.7,1.9-1.8c2.5,0,4.9,0,7.4,0c5.7,0,11.4,0,17.1,0c2.1,0,2.2,0.1,2.2,2.3c0,2,0,4,0,6
		c0,1.7-0.1,1.7-1.8,1.7c-1.7,0-3.4,0-5.1,0c-1.1,0-1.6,0.4-1.6,1.5c0,0.7,0,1.3,0,2c0,9,0,18,0,27.1c0,0.5,0,0.9,0,1.4
		c-0.1,1.7-0.1,1.8-1.7,1.8c-2.7,0-5.3,0-8,0c-1.7,0-1.7-0.1-1.8-1.8C249.4,366.3,249.4,361.3,249.4,356.4z"/>
	<path class="st2" d="M261.8,219.9c-0.4,0-1,0-1.5,0c-1.9-0.1-2.8-0.8-2.7-1.8c0.2-1.9,1.3-3,3-3c3.6,0,4.7-1,5.4-4.7
		c1.1-5.5,2.2-11.1,3.3-16.6c0.1-0.6,0.1-1.1,0.1-1.7c0.1-1,0.5-2.2,0.1-2.9c-0.3-0.5-1.7-0.4-2.6-0.6c-0.3-0.1-0.6-0.2-0.7-0.4
		c-0.5-0.7,1-3.9,1.9-4c0.5-0.1,1-0.1,1.4,0c1.2,0.1,1.5-0.4,1.7-1.6c0.5-3.3,1.9-6.1,5-7.8c2.5-1.4,5.1-1.1,7.7-0.7
		c1.3,0.2,1.5,0.8,0.9,2c-0.1,0.3-0.3,0.5-0.3,0.8c-0.4,1.6-1.4,1.9-3,1.9c-2.6-0.1-4.3,1.3-4.8,3.7c-0.2,1.2,0,1.5,1.2,1.6
		c0.7,0,1.3,0,2,0c1.1,0,1.8,0.3,1.9,1.6c0,1.7-0.6,2.8-1.9,2.9c-0.3,0-0.6,0-0.9,0c-3.3,0.1-3.4,0.1-4,3.3c-1,5.7-1.9,11.3-3,17
		c-0.4,2.3-1.1,4.6-2.1,6.7C268.3,218.7,265.6,220.2,261.8,219.9z"/>
	<path class="st2" d="M233,198.2c-2,0-4,0-6,0c-1.6,0-2,0.6-1.6,2.1c0.6,2.4,3.2,4.2,6,4.4c2.1,0.1,4.1-0.3,6.1-0.9
		c1.3-0.3,2,0.3,2.5,1.9c0.4,1.4,0,2.4-1.2,2.7c-3.7,1.1-7.5,1.2-11.3,0.5c-4.6-0.9-8-5.4-8.3-10.3c-0.1-2.7,0-5.3,1-7.8
		c1.8-4.7,6.5-7.5,11.8-6.9c6.2,0.7,8.9,4.9,9.2,10.4c0.2,4.8-0.2,4-3.7,4C236,198.2,234.5,198.2,233,198.2z M230.4,193.8
		c1.4,0,2.8,0,4.3,0c0.9,0,1.1-0.6,1-1.3c-0.3-2.2-2.5-4.2-5-4.3c-2.4-0.1-5,2-5.3,4.3c-0.1,0.8,0.1,1.3,1,1.3
		C227.7,193.8,229.1,193.8,230.4,193.8z"/>
	<path class="st2" d="M205.4,198.9c0,2.4,0,4.7,0,7.1c0,1.4-0.6,2.1-1.9,2.4c-3.9,0.7-7.9,1-11.9,0.7c-4.7-0.4-7.6-5-7-8.4
		c0.5-3.3,2.4-5.6,5.4-6.7c2.6-1,5.4-1.6,8.3-0.9c1.4,0.4,1.9-0.3,1.5-1.7c-0.4-1.7-1.6-2.7-3.5-2.8c-2.5-0.2-4.9,0.1-7.2,1.2
		c-1.5,0.7-1.6,0.6-2.3-0.9c-1.2-2.6-0.9-3,1.4-3.9c3.7-1.5,7.7-1.7,11.7-0.6c3,0.8,5.3,3.9,5.4,7.2
		C205.4,194,205.3,196.5,205.4,198.9C205.3,198.9,205.3,198.9,205.4,198.9z M200.2,201c0-0.6-0.1-1.1,0-1.7c0.2-1.1-0.4-1.7-1.3-1.8
		c-2.2-0.3-4.5-0.5-6.7,0.5c-2.8,1.3-2.9,4.7-0.3,6.4c1.4,0.9,2.9,0.8,4.4,0.8C200,204.9,200.2,204.8,200.2,201z"/>
	<path class="st2" d="M357.1,209.5c-2.8-0.2-5.5-0.3-8-1.8c-2.8-1.7-4.4-4.2-4.9-7.2c-0.4-3-0.4-6,0.4-9c1.2-4.4,6.2-8.2,12.4-7.5
		c4.8,0.5,9,5.8,8.7,10.2c-0.3,4.4,0.5,4.1-4.2,4.1c-3.4,0-6.8,0-10.2,0c-1.6,0-1.5,0.1-1.3,1.6c0.3,3.1,3.2,4.9,5.7,4.8
		c2.1,0,4.1-0.4,6.2-0.7c1.6-0.2,2.1,0.1,2.6,1.9c0.4,1.4,0.1,2.2-1.4,2.6C361.2,208.9,359.1,209.2,357.1,209.5z M355.2,193.8
		C355.2,193.8,355.2,193.8,355.2,193.8c1.4,0,2.8,0,4.2,0c0.6,0,1.1-0.2,0.9-1c-0.5-2.4-2.7-4.5-5-4.6c-2.5-0.1-5,1.9-5.5,4.4
		c-0.1,0.7,0.1,1.1,0.8,1.2C352.2,193.8,353.7,193.8,355.2,193.8z"/>
	<path class="st2" d="M293.1,209.2c-4.8,0.5-9.7-3-10.9-8.7c-1-4.5-0.4-8.6,2.1-12.4c2.2-3.4,5.7-4.6,9.6-4.3c2,0.1,4.1,0.4,5.9,1.7
		c1.8,1.4,3.1,2.9,3.9,5c1.5,3.9,1.4,7.8,0.2,11.7C302.5,206.5,298.5,209.7,293.1,209.2z M287.6,196.1c0,3.8,0.2,4.8,1.2,6.4
		c1,1.6,2.5,2.5,4.2,2.5c2.1-0.1,4.1-0.7,5-3c1.4-3.7,1.5-7.3-0.3-10.9c-0.9-1.8-2.4-2.5-4.4-2.5c-2.1,0-3.6,0.7-4.7,2.5
		C287.6,192.7,287.5,194.6,287.6,196.1z"/>
	<path class="st2" d="M253.9,209.2c-3,0.1-5.7-0.1-8.2-1.6c-1.5-1-1.9-2.2-1.2-3.8c0.6-1.3,1.4-1.6,2.7-0.8c2.1,1.4,4.5,2,7,1.8
		c0.4,0,0.8,0,1.1-0.1c1.1-0.3,1.9-0.9,2.1-2c0.3-1.2-0.4-2.1-1.4-2.5c-1.2-0.6-2.5-0.9-3.7-1.3c-1.3-0.5-2.7-0.8-3.9-1.5
		c-5.5-2.9-4.8-8.5-0.9-11.9c1.5-1.3,3.4-1.6,5.3-1.7c2.5-0.2,4.9,0.2,7.2,1.1c2.5,0.9,2.9,2.5,1.4,4.5c-0.5,0.7-1,1-1.9,0.5
		c-2.1-1.2-4.5-1.5-6.9-1.3c-0.5,0.1-1.2,0.2-1.6,0.5c-1.3,1-1.3,2.7,0.2,3.5c1.6,0.8,3.3,1.3,5,2c1.3,0.5,2.7,1,3.8,1.8
		c3.4,2.2,3.5,4.9,2.6,8.2c-0.7,2.5-3.4,4.6-6.3,4.8C255.3,209.3,254.4,209.2,253.9,209.2z"/>
	<path class="st2" d="M173.1,209.2c-3.4,0.2-6.3-0.3-8.7-2.1c-0.5-0.3-1-1.1-0.9-1.6c0.3-1,0.8-2.1,1.5-2.9c0.1-0.2,1.2,0.2,1.8,0.5
		c2.3,1.3,4.7,1.9,7.3,1.7c0.6,0,1.2-0.1,1.6-0.4c1.7-1,1.8-3.2,0-4.1c-1.2-0.6-2.6-1-4-1.4c-1.4-0.5-2.9-1-4.2-1.7
		c-2.9-1.5-4.1-4.1-3.5-7.1c0.7-3.4,3.4-5.6,5.8-6c3.5-0.7,6.9-0.6,10.2,1.1c1.9,0.9,2.1,3.3,0.4,4.6c-0.3,0.2-1,0.2-1.5,0
		c-2-0.9-4.1-1.4-6.3-1.2c-0.4,0-0.9-0.1-1.1,0.1c-0.7,0.5-1.7,1.1-1.9,1.8c-0.2,0.5,0.5,1.7,1.1,2c1.3,0.8,2.7,1.2,4.1,1.8
		c1.3,0.5,2.6,1,3.9,1.6c2.6,1.3,4.1,3.5,3.6,7.2c-0.5,3.5-3,5.8-6.4,6.1C174.8,209.3,173.7,209.2,173.1,209.2z"/>
	<path class="st2" d="M336.5,209.4c-1.9-0.2-3.3-0.2-4.7-0.5c-4.2-0.9-7.9-5.1-8.1-10.3c-0.1-2.3-0.1-4.8,0.6-7
		c1.3-4,4.1-6.6,8.4-7.5c2.6-0.6,5.1-0.1,7.6,0.2c1.8,0.2,2.3,0.9,2,2.4c-0.4,2.1-1.3,2.7-3,2.3c-0.5-0.1-0.9-0.3-1.4-0.4
		c-6.2-0.9-8.7,3.4-8.7,7.8c0,1.1,0,2.3,0.4,3.3c1.3,3.9,4.6,5.7,8.7,4.7c0.3-0.1,0.5-0.2,0.8-0.3c2.4-0.5,3.9,0.8,3.6,3.2
		c0,0.4-0.7,0.9-1.1,1C339.8,208.9,337.9,209.1,336.5,209.4z"/>
	<path class="st2" d="M215.1,191.8c0,4.9,0,9.9,0,14.8c0,2.4,0,2.3-2.3,2.4c-2.4,0.2-3.3-0.7-3.3-3.3c0.1-9.5,0-19,0-28.5
		c0-0.6-0.1-1.2,0-1.7c0.1-0.4,0.5-1,0.8-1c1.3-0.1,2.6-0.1,4,0c0.2,0,0.6,0.7,0.6,1.1c0.1,1,0,2.1,0,3.1
		C215.1,183.1,215.1,187.5,215.1,191.8z"/>
	<path class="st2" d="M308.3,196.7c0-3.4,0-6.8,0-10.2c0-2.1,0.2-2.3,2.3-2.3c1.2,0,2.8-0.5,3.4,1.3c0,0,0.8-0.1,1.2-0.3
		c2-1.3,4.1-1.2,6.3-1c1.3,0.1,1.8,0.8,1.5,2.2c-0.6,2.4-0.9,2.7-3.4,2.8c-3.7,0.1-5.4,2.5-5.6,6.1c-0.2,3.1-0.1,6.3-0.1,9.4
		c0,0.4,0,0.8,0,1.1c0,3.2-1.4,4.2-4.4,3.3c-1.1-0.3-1.1-1.2-1.1-2.1C308.3,203.5,308.3,200.1,308.3,196.7z"/>
	<path class="st0" d="M360.2,345c0-1.5-0.1-3,0-4.6c0-0.4,0.6-1.1,0.9-1.1c2,0.1,4,0.1,5.9,0.5c2.9,0.6,4.3,3.1,4.2,5.6
		c0,2.7-2.1,5.2-4.7,5.6c-1.8,0.3-3.6,0.2-5.4,0.1c-0.3,0-0.9-0.7-0.9-1.1C360.1,348.4,360.2,346.7,360.2,345
		C360.2,345,360.2,345,360.2,345z"/>
	<path class="st0" d="M221.5,351.1c-4.2,0.1-3.4,0.4-3.5-3.4c0-2.4,0-4.7,0-7.1c0-0.9,0.3-1.5,1.3-1.4c2,0.2,4,0.1,5.9,0.7
		c3,0.8,4,2.7,3.7,6.4c-0.2,2.5-2.2,4.4-4.8,4.8C223.2,351.2,222.3,351.1,221.5,351.1z"/>
	<path class="st0" d="M180.8,357.9c-5.2,0-4,0.2-3-4c0.7-3.1,1.8-6.1,2.7-9.2c0.1-0.2,0.4-0.5,0.5-0.5c0.2,0,0.6,0.3,0.6,0.5
		c0.6,2,1.3,3.9,1.9,5.9c0.5,1.8,1.1,3.6,1.6,5.4c0.4,1.5,0.2,1.8-1.4,1.9C182.7,357.9,181.8,357.9,180.8,357.9z"/>
	<path class="st0" d="M144.6,349.4c-4.4,0.1-3.6,0.5-3.6-3.5c0-1.8,0-3.6,0-5.4c0-0.8,0.4-1.3,1.2-1.2c2.2,0.1,4.4,0.1,6.5,0.5
		c2.6,0.6,3.8,2.4,3.6,5c-0.1,2.4-1.8,4.2-4.3,4.6C146.8,349.5,145.7,349.4,144.6,349.4z"/>
	<path class="st1" d="M230.4,193.8c-1.3,0-2.7,0-4,0c-0.9,0-1.1-0.5-1-1.3c0.3-2.3,3-4.4,5.3-4.3c2.4,0.1,4.7,2,5,4.3
		c0.1,0.8-0.1,1.3-1,1.3C233.2,193.8,231.8,193.8,230.4,193.8z"/>
	<path class="st1" d="M200.2,201c0,3.8-0.2,4-3.9,4.1c-1.5,0.1-3,0.2-4.4-0.8c-2.6-1.7-2.4-5.1,0.3-6.4c2.1-1,4.4-0.8,6.7-0.5
		c0.9,0.1,1.5,0.8,1.3,1.8C200.1,199.8,200.2,200.4,200.2,201z"/>
	<path class="st1" d="M355.2,193.8c-1.5,0-3,0-4.5,0c-0.7,0-1-0.5-0.8-1.2c0.5-2.5,3-4.5,5.5-4.4c2.3,0.1,4.6,2.2,5,4.6
		c0.1,0.8-0.3,1-0.9,1C358.1,193.8,356.7,193.8,355.2,193.8C355.2,193.8,355.2,193.8,355.2,193.8z"/>
	<path class="st1" d="M287.6,196.1c-0.1-1.5,0.1-3.4,1.1-5.1c1.1-1.8,2.7-2.5,4.7-2.5c2,0,3.5,0.7,4.4,2.5c1.8,3.6,1.7,7.3,0.3,10.9
		c-0.9,2.3-3,2.9-5,3c-1.7,0.1-3.2-0.9-4.2-2.5C287.8,200.9,287.6,199.9,287.6,196.1z"/>
</g>
</svg>
