<svg xmlns="http://www.w3.org/2000/svg" xmlns:xlink="http://www.w3.org/1999/xlink" viewBox="0 0 1200 1253.93"><defs><style>.cls-1{isolation:isolate;}.cls-2{fill:url(#linear-gradient);}.cls-3{fill:url(#linear-gradient-2);}.cls-4{fill:url(#linear-gradient-3);}.cls-5{fill:url(#linear-gradient-4);}.cls-6{fill:url(#radial-gradient);}.cls-7{mix-blend-mode:multiply;}.cls-8{fill:#fff;opacity:0;}.cls-9{fill:#fbf7fb;opacity:0.03;}.cls-10{fill:#f7eff8;opacity:0.06;}.cls-11{fill:#f3e6f4;opacity:0.1;}.cls-12{fill:#efdef1;opacity:0.13;}.cls-13{fill:#ebd6ed;opacity:0.16;}.cls-14{fill:#e8ceea;opacity:0.19;}.cls-15{fill:#e4c5e6;opacity:0.23;}.cls-16{fill:#e0bde3;opacity:0.26;}.cls-17{fill:#dcb5df;opacity:0.29;}.cls-18{fill:#d8addc;opacity:0.32;}.cls-19{fill:#d4a5d8;opacity:0.35;}.cls-20{fill:#d09cd5;opacity:0.39;}.cls-21{fill:#cc94d1;opacity:0.42;}.cls-22{fill:#c88cce;opacity:0.45;}.cls-23{fill:#c484ca;opacity:0.48;}.cls-24{fill:#c17bc7;opacity:0.52;}.cls-25{fill:#bd73c3;opacity:0.55;}.cls-26{fill:#b96bc0;opacity:0.58;}.cls-27{fill:#b563bc;opacity:0.61;}.cls-28{fill:#b15ab9;opacity:0.65;}.cls-29{fill:#ad52b5;opacity:0.68;}.cls-30{fill:#a94ab2;opacity:0.71;}.cls-31{fill:#a542ae;opacity:0.74;}.cls-32{fill:#a13aab;opacity:0.77;}.cls-33{fill:#9d31a7;opacity:0.81;}.cls-34{fill:#9a29a4;opacity:0.84;}.cls-35{fill:#9621a0;opacity:0.87;}.cls-36{fill:#92199d;opacity:0.9;}.cls-37{fill:#8e1099;opacity:0.94;}.cls-38{fill:#8a0896;opacity:0.97;}.cls-39{fill:#860092;}.cls-40{fill:url(#linear-gradient-5);}.cls-41{fill:url(#radial-gradient-2);}.cls-42{fill:url(#linear-gradient-6);}.cls-43{fill:url(#radial-gradient-3);}.cls-44{fill:url(#radial-gradient-4);}.cls-45{fill:url(#linear-gradient-7);}.cls-46{fill:url(#linear-gradient-8);}.cls-47{fill:url(#linear-gradient-9);}.cls-48{fill:url(#linear-gradient-10);}.cls-49{fill:url(#radial-gradient-5);}</style><linearGradient id="linear-gradient" x1="178.05" y1="741.56" x2="157.51" y2="965.68" gradientTransform="matrix(-1, 0, 0, 1, 1178.93, 0)" gradientUnits="userSpaceOnUse"><stop offset="0" stop-color="#e84500"/><stop offset="0.18" stop-color="#da3e03"/><stop offset="0.53" stop-color="#b62c0b"/><stop offset="1" stop-color="#7b0f17"/></linearGradient><linearGradient id="linear-gradient-2" x1="99.21" y1="527.07" x2="-63.99" y2="1031.35" gradientTransform="matrix(-1, 0, 0, 1, 1178.93, 0)" gradientUnits="userSpaceOnUse"><stop offset="0" stop-color="#e84500"/><stop offset="1" stop-color="#8c000d"/></linearGradient><linearGradient id="linear-gradient-3" x1="482.27" y1="1080.89" x2="247.27" y2="1048.28" xlink:href="#linear-gradient"/><linearGradient id="linear-gradient-4" x1="478.54" y1="1003" x2="442.07" y2="1242.21" xlink:href="#linear-gradient"/><radialGradient id="radial-gradient" cx="150.04" cy="1034.73" r="590.42" gradientTransform="matrix(-1, 0, 0, 1, 1178.93, 0)" gradientUnits="userSpaceOnUse"><stop offset="0" stop-color="#ff0"/><stop offset="0.01" stop-color="#fefa00"/><stop offset="0.12" stop-color="#f6c400"/><stop offset="0.23" stop-color="#ee9500"/><stop offset="0.35" stop-color="#e86d00"/><stop offset="0.47" stop-color="#e24c00"/><stop offset="0.59" stop-color="#de3200"/><stop offset="0.72" stop-color="#db2000"/><stop offset="0.85" stop-color="#da1500"/><stop offset="1" stop-color="#d91200"/></radialGradient><linearGradient id="linear-gradient-5" x1="362.22" y1="550.36" x2="344.63" y2="732.75" gradientTransform="matrix(-1, 0, 0, 1, 1178.93, 0)" gradientUnits="userSpaceOnUse"><stop offset="0" stop-color="#e87400"/><stop offset="1" stop-color="#971e00"/></linearGradient><radialGradient id="radial-gradient-2" cx="135.86" cy="339.11" r="380.55" gradientTransform="matrix(-1, 0, 0, 1, 1178.93, 0)" gradientUnits="userSpaceOnUse"><stop offset="0" stop-color="#e87400"/><stop offset="1" stop-color="#971d0b"/></radialGradient><linearGradient id="linear-gradient-6" x1="659.57" y1="867.37" x2="442.91" y2="818.96" xlink:href="#linear-gradient-5"/><radialGradient id="radial-gradient-3" cx="784.02" cy="837.64" r="429.32" gradientTransform="matrix(-1, 0, 0, 1, 1178.93, 0)" xlink:href="#linear-gradient-5"/><radialGradient id="radial-gradient-4" cx="338.67" cy="844.74" r="915.35" gradientTransform="matrix(-1, 0, 0, 1, 1178.93, 0)" gradientUnits="userSpaceOnUse"><stop offset="0" stop-color="#ff0"/><stop offset="0.11" stop-color="#f7db00"/><stop offset="0.25" stop-color="#edaf00"/><stop offset="0.4" stop-color="#e58b00"/><stop offset="0.55" stop-color="#de6f00"/><stop offset="0.7" stop-color="#da5b00"/><stop offset="0.85" stop-color="#d74f00"/><stop offset="1" stop-color="#d64b00"/></radialGradient><linearGradient id="linear-gradient-7" x1="586.99" y1="298.41" x2="559.96" y2="490.64" gradientTransform="matrix(-1, 0, 0, 1, 1178.93, 0)" gradientUnits="userSpaceOnUse"><stop offset="0" stop-color="#d58000"/><stop offset="1" stop-color="#af340f"/></linearGradient><linearGradient id="linear-gradient-8" x1="365.43" y1="89.4" x2="390.96" y2="431.92" xlink:href="#linear-gradient-7"/><linearGradient id="linear-gradient-9" x1="820.38" y1="607.48" x2="703.51" y2="598.89" xlink:href="#linear-gradient-7"/><linearGradient id="linear-gradient-10" x1="972.76" y1="657.54" x2="957.87" y2="849.02" xlink:href="#linear-gradient-7"/><radialGradient id="radial-gradient-5" cx="1144.87" cy="64.07" r="860.9" gradientTransform="matrix(-1, 0, 0, 1, 1178.93, 0)" gradientUnits="userSpaceOnUse"><stop offset="0" stop-color="#ff0"/><stop offset="1" stop-color="#ffc000"/></radialGradient></defs><title>Recurso 1</title><g class="cls-1"><g id="Capa_2" data-name="Capa 2"><g id="Layer_1" data-name="Layer 1"><g class="cls-1"><polygon class="cls-2" points="849.36 882.54 912.99 973.93 1184.45 950.18 1120.82 858.79 849.36 882.54"/><polygon class="cls-3" points="1120.82 858.79 1184.45 950.18 1200 693.97 1136.37 602.57 1120.82 858.79"/><polygon class="cls-4" points="833.81 1138.8 897.44 1230.18 912.99 973.93 849.36 882.54 833.81 1138.8"/><polygon class="cls-5" points="562.32 1162.55 625.94 1253.93 897.44 1230.18 833.81 1138.8 562.32 1162.55"/><polygon class="cls-6" points="593.42 650.08 562.32 1162.55 833.81 1138.8 849.36 882.54 1120.82 858.79 1136.37 602.57 593.42 650.08"/></g><g class="cls-7"><path class="cls-8" d="M329.91,359.31l658.77-57.64,175.49,263.1s-17.71,108-16.83,185.39-59.11,87.74-69.78,88.78-73.25,15-163.64,22.75S833.71,919.88,833,929.55s-5.06,66.73-5.42,105.5,1.89,132.24-79.55,141.71-297.33,21.88-297.33,21.88L292.17,981.1Z"/><path class="cls-9" d="M331.52,361.39l658.64-57.54s169.62,258.45,169.49,261.31c-.07,1.45-11.44,71.67-15.23,138-.87,15.71-1.64,30.91-1.71,45-.38,74.87-59,85.08-71.24,86.26s-74.61,14.84-163.29,22.45a178.67,178.67,0,0,0-32.42,5.49c-14.58,4-24.37,10-31.34,16.18C825,895.82,828.68,918.14,828.19,925c-.73,10.24-5,66.6-5.43,105.25-.37,30.44.74,91.62-33.7,122.62-10.74,10.21-25,17.11-44.4,19.32-79.36,9.2-297.52,21.78-297.52,21.78l-153-216.64Z"/><path class="cls-10" d="M333.12,363.48,991.63,306s163.76,253.8,163.49,259.53c-.14,2.89-11.18,72-14.84,136.51-.85,15.67-1.9,30.48-2.21,44.18-1.62,72.38-59,82.43-72.7,83.74-13.47,1.28-76,14.68-162.92,22.16a184.55,184.55,0,0,0-32.36,5.4c-14.69,4-24.12,10.29-30.91,16.41-18.69,16.82-15.27,38.92-15.79,46.4-.77,10.81-5,66.48-5.44,105-.47,31.31.5,92.23-32.81,122.58-10.44,10.59-24.33,17.41-43.86,19.6-77.28,8.93-297.69,21.68-297.69,21.68L296.05,973.47Z"/><path class="cls-11" d="M334.73,365.56,993.1,308.19S1151,557.34,1150.59,565.94c-.2,4.33-11.06,72.34-14.45,135-.85,15.64-2.15,30-2.7,43.36-2.86,69.87-58.88,79.77-74.17,81.21C1044.39,826.9,982,840,896.71,847.36a190.74,190.74,0,0,0-32.29,5.32,69.48,69.48,0,0,0-30.49,16.64c-17.95,16.39-14.79,38.27-15.35,46.43-.79,11.38-4.92,66.36-5.44,104.74-.57,32.16.26,92.84-31.93,122.53-10.14,11-23.67,17.67-43.3,19.88-75.23,8.48-297.88,21.58-297.88,21.58L298,969.65Z"/><path class="cls-12" d="M336.33,367.65l658.25-57.29s152,244.51,151.49,256c-.28,5.78-10.84,72.68-14.08,133.45-.83,15.6-2.4,29.59-3.18,42.54-4.07,67.34-58.81,77.12-75.64,78.69-16.28,1.53-78.65,14.38-162.19,21.58a195.63,195.63,0,0,0-32.23,5.23c-14.92,3.87-23.61,10.88-30.07,16.87-17.21,16-14.31,37.63-14.9,46.46-.83,11.94-4.79,66.23-5.46,104.48-.58,33,0,93.46-31,122.49-9.84,11.35-23,18-42.76,20.16-73.15,8.16-298,21.48-298,21.48L299.93,965.83Z"/><path class="cls-13" d="M337.94,369.73l658.11-57.19s146.17,239.85,145.49,254.18c-.34,7.22-10.62,73-13.69,131.93-.81,15.56-2.65,29.12-3.68,41.71-5.26,64.78-58.72,74.46-77.1,76.17-17.69,1.66-80,14.23-161.83,21.28A202.71,202.71,0,0,0,853.09,843c-15.05,3.83-23.37,11.18-29.66,17.11C807,875.59,809.61,897,809,906.55c-.85,12.51-4.72,66.11-5.46,104.23-.66,33.89-.21,94.07-30.15,122.44-9.53,11.73-22.36,18.26-42.2,20.44C660.07,1161.5,432.92,1175,432.92,1175l-131-213Z"/><path class="cls-14" d="M339.54,371.82l658-57.11S1137.83,549.91,1137,567.1c-.41,8.67-10.39,73.36-13.3,130.41-.8,15.53-2.91,28.65-4.17,40.89-6.42,62.2-58.65,71.81-78.56,73.65-19.1,1.78-81.36,14.07-161.47,21a209.8,209.8,0,0,0-32.09,5.05c-15.17,3.78-23.11,11.47-29.24,17.33-15.75,15.11-13.34,36.35-14,46.53-.89,13.08-4.67,66-5.48,104-.73,34.75-.44,94.68-29.25,122.4-9.23,12.11-21.7,18.55-41.66,20.72-69,7.53-298.41,21.28-298.41,21.28L303.81,958.2Z"/><path class="cls-15" d="M341.15,373.91l657.85-57s134.44,230.55,133.49,250.61c-.48,10.11-10.17,73.7-12.93,128.88-.77,15.5-3.15,28.16-4.65,40.07-7.54,59.59-58.58,69.15-80,71.13-20.51,1.9-82.71,13.92-161.11,20.69a217.28,217.28,0,0,0-32,5C826.46,837,818.89,845,812.94,850.79c-15,14.66-12.87,35.7-13.58,46.56-.91,13.64-4.61,65.87-5.48,103.72-.82,35.61-.67,95.29-28.36,122.36-8.93,12.47-21,18.83-41.11,21-66.94,7.22-298.6,21.18-298.6,21.18L305.75,954.38Z"/><path class="cls-16" d="M342.75,376l657.72-56.94S1129.05,545,1128,567.88c-.55,11.56-9.94,74-12.54,127.36-.76,15.45-3.39,27.65-5.15,39.24-8.6,56.95-58.49,66.5-81.49,68.61-21.91,2-84.06,13.76-160.74,20.4a224.42,224.42,0,0,0-32,4.88c-15.41,3.67-22.6,12-28.39,17.79-14.31,14.21-12.39,35.06-13.13,46.59-.94,14.21-4.56,65.74-5.49,103.46-.91,36.48-.91,95.91-27.48,122.32-8.62,12.85-20.38,19.12-40.56,21.27-64.86,6.92-298.78,21.08-298.78,21.08L307.69,950.56Z"/><path class="cls-17" d="M344.36,378.08l657.58-56.85s122.72,221.25,121.49,247c-.61,13-9.7,74.38-12.16,125.83-.73,15.42-3.63,27.13-5.63,38.42-9.62,54.29-58.42,63.84-83,66.09-23.32,2.14-85.4,13.61-160.38,20.1a233,233,0,0,0-31.88,4.8c-15.54,3.61-22.36,12.33-28,18-13.59,13.76-11.91,34.41-12.69,46.61-1,14.79-4.5,65.63-5.5,103.22-1,37.33-1.14,96.52-26.58,122.27-8.32,13.23-19.73,19.42-40,21.55-62.79,6.62-299,21-299,21L309.63,946.74Z"/><path class="cls-18" d="M346,380.16l657.45-56.76S1120.27,540,1118.91,568.66c-.69,14.44-9.47,74.72-11.78,124.3-.72,15.39-2,27.17-6.12,37.6-1.28,52.66-58.35,61.19-84.42,63.57-24.74,2.27-86.76,13.46-160,19.81a240,240,0,0,0-31.82,4.71c-15.66,3.56-22.1,12.61-27.56,18.25-12.88,13.3-11.43,33.77-12.25,46.64-1,15.35-4.45,65.51-5.5,103-1.07,38.2-1.38,97.13-25.7,122.23-8,13.61-19.07,19.71-39.46,21.83-60.71,6.33-299.14,20.88-299.14,20.88L311.57,942.93Z"/><path class="cls-19" d="M347.57,382.25l657.32-56.68s111,212,109.49,243.47c-.76,15.9-9.23,75.07-11.39,122.79-.7,15.35-2,26.75-6.62,36.77-1.49,50.19-58.26,58.53-85.88,61C984.35,792,922.38,803,850.83,809.17a251.13,251.13,0,0,0-31.75,4.61c-15.78,3.51-21.84,12.9-27.14,18.49-12.17,12.83-11,33.13-11.8,46.67-1,15.92-4.4,65.39-5.51,102.71-1.16,39.06-1.62,97.74-24.81,122.18-7.72,14-18.41,20-38.91,22.11-58.64,6-299.32,20.78-299.32,20.78L313.51,939.11Z"/><path class="cls-20" d="M349.18,384.33l657.18-56.59s105.12,207.31,103.49,241.69c-.82,17.34-9,75.41-11,121.26-.67,15.31-2.07,26.33-7.1,35.95-1.71,47.73-58.19,55.88-87.35,58.53-27.55,2.51-89.46,13.15-159.29,19.22a261.55,261.55,0,0,0-31.69,4.53c-15.9,3.44-21.58,13.18-26.71,18.71-11.48,12.36-10.47,32.49-11.37,46.71-1.05,16.49-4.35,65.26-5.52,102.45-1.25,39.92-1.85,98.36-23.92,122.14-7.41,14.37-17.75,20.3-38.36,22.39C651,1127.07,408,1142,408,1142L315.45,935.29Z"/><path class="cls-21" d="M350.78,386.42l657.05-56.5s99.26,202.65,97.5,239.9c-.9,18.78-8.74,75.75-10.63,119.73-.66,15.28-2.13,25.92-7.59,35.13-1.93,45.26-58.11,53.22-88.82,56-28.95,2.63-90.8,13-158.93,18.93a275.29,275.29,0,0,0-31.61,4.44c-16,3.38-21.33,13.46-26.3,18.94-10.78,11.88-10,31.85-10.92,46.74-1.09,17.06-4.31,65.14-5.53,102.2-1.34,40.78-2.09,99-23,122.09-7.11,14.74-17.09,20.59-37.82,22.67-54.48,5.47-299.67,20.59-299.67,20.59L317.39,931.48Z"/><path class="cls-22" d="M352.39,388.5l656.92-56.41s93.39,198,91.49,238.12c-1,20.22-8.49,76.09-10.24,118.2-.64,15.25-2.19,25.51-8.09,34.31-2.14,42.79-58,50.57-90.28,53.49C961.83,779,900,789.05,833.63,794.84a288.2,288.2,0,0,0-31.55,4.36c-16.15,3.32-21.07,13.74-25.88,19.17-10.08,11.38-9.51,31.2-10.48,46.77-1.11,17.62-4.26,65-5.53,101.94-1.44,41.65-2.33,99.59-22.15,122.05-6.8,15.12-16.43,20.89-37.26,22.95-52.41,5.19-299.86,20.49-299.86,20.49L319.33,927.66Z"/><path class="cls-23" d="M354,390.59l656.79-56.33s87.53,193.36,85.49,236.34c-1,21.67-8.23,76.43-9.86,116.68-.61,15.21-2.24,25.08-8.57,33.48-2.36,40.32-58,47.91-91.74,51-31.77,2.87-93.51,12.68-158.2,18.34a300.5,300.5,0,0,0-31.49,4.27c-16.28,3.25-20.81,14-25.46,19.4-9.4,10.88-9,30.56-10,46.8-1.15,18.19-4.23,64.89-5.55,101.69-1.52,42.5-2.55,100.19-21.25,122-6.5,15.5-15.77,21.19-36.72,23.23-50.33,4.92-300,20.39-300,20.39l-76.1-204Z"/><path class="cls-24" d="M355.6,392.67l656.65-56.23s81.67,188.7,79.5,234.55c-1.1,23.11-8,76.77-9.48,115.15-.59,15.17-2.3,24.67-9.06,32.67-2.58,37.85-57.88,45.25-93.21,48.44-33.18,3-94.86,12.53-157.84,18a316.93,316.93,0,0,0-31.42,4.19c-16.4,3.18-20.55,14.29-25,19.63-8.72,10.37-8.55,29.91-9.59,46.83-1.17,18.76-4.18,64.77-5.55,101.43-1.62,43.37-2.79,100.81-20.36,122-6.2,15.88-15.12,21.48-36.17,23.51-48.26,4.65-300.22,20.29-300.22,20.29L323.21,920Z"/><path class="cls-25" d="M357.2,394.76l656.53-56.15s75.8,184,73.49,232.76c-1.17,24.56-7.72,77.12-9.09,113.63-.57,15.14-2.36,24.26-9.56,31.85-2.79,35.38-57.8,42.59-94.67,45.92-34.58,3.12-96.21,12.37-157.47,17.75-13.4,1.19-24.07,2.72-31.35,4.1-16.53,3.11-20.29,14.56-24.62,19.85-8.06,9.86-8.08,29.28-9.15,46.87-1.21,19.32-4.15,64.65-5.57,101.18-1.71,44.22-3,101.42-19.47,121.91-5.89,16.26-14.45,21.78-35.62,23.79-46.17,4.39-300.39,20.19-300.39,20.19l-65.11-202.2Z"/><path class="cls-26" d="M358.81,396.84l656.39-56.06s69.94,179.4,67.49,231c-1.23,26-7.45,77.46-8.71,112.11-.54,15.1-2.41,23.84-10,31-3,32.91-57.72,39.94-96.14,43.4-36,3.24-97.55,12.22-157.11,17.45-13.44,1.2-24.11,2.7-31.28,4-16.66,3-20,14.84-24.2,20.09-7.4,9.33-7.59,28.63-8.71,46.9-1.23,19.89-4.1,64.52-5.57,100.92-1.81,45.09-3.26,102-18.58,121.87-5.6,16.64-13.8,22.08-35.07,24.07-44.1,4.13-300.58,20.09-300.58,20.09l-59.61-201.3Z"/><path class="cls-27" d="M360.41,398.93l656.26-56s64.08,174.76,61.49,229.2c-1.3,27.45-7.18,77.8-8.32,110.58-.52,15.07-2.47,23.42-10.53,30.2-3.23,30.44-57.65,37.28-97.6,40.87C924.3,757.17,862.8,765.87,805,771c-13.48,1.2-24.15,2.67-31.22,3.92C757,777.87,754,790,750,795.21c-6.75,8.79-7.11,28-8.26,46.93-1.27,20.46-4.07,64.4-5.58,100.67-1.92,46-3.5,102.64-17.7,121.83-5.29,17-13.13,22.37-34.52,24.34-42,3.87-300.76,20-300.76,20L329,908.57Z"/><path class="cls-28" d="M362,401l656.13-55.89s58.21,170.1,55.49,227.41c-1.37,28.89-6.92,78.14-7.94,109.05-.5,15-2.53,23-11,29.38-3.44,28-57.57,34.62-99.06,38.35-38.81,3.49-100.26,11.92-156.39,16.87-13.52,1.22-24.19,2.65-31.14,3.84-16.92,2.9-19.52,15.36-23.37,20.55-6.11,8.24-6.63,27.35-7.82,46.95-1.29,21-4,64.29-5.59,100.42-2,46.81-3.73,103.26-16.8,121.79-5,17.38-12.48,22.68-34,24.62-39.94,3.62-300.94,19.89-300.94,19.89L331,904.75Z"/><path class="cls-29" d="M363.62,403.1l656-55.8s52.35,165.45,49.49,225.63c-1.44,30.33-6.64,78.48-7.56,107.53-.47,15-2.58,22.59-11.51,28.55-3.66,25.51-57.49,32-100.53,35.83-40.22,3.62-101.61,11.76-156,16.58-13.56,1.22-24.23,2.61-31.08,3.75-17,2.82-19.26,15.62-22.94,20.78-5.49,7.67-6.16,26.7-7.39,47-1.32,21.6-4,64.16-5.59,100.17-2.12,47.67-4,103.87-15.92,121.74-4.68,17.76-11.81,23-33.42,24.9-37.86,3.37-301.12,19.79-301.12,19.79L332.91,900.94Z"/><path class="cls-30" d="M365.23,405.19l655.86-55.72s46.49,160.8,43.49,223.84c-1.5,31.79-6.36,78.83-7.17,106-.44,15-2.64,22.17-12,27.73-3.88,23-57.42,29.31-102,33.31-41.62,3.74-103,11.61-155.66,16.28-13.6,1.23-24.26,2.59-31,3.67-17.17,2.74-19,15.87-22.52,21-4.88,7.09-5.68,26.06-6.94,47-1.35,22.17-4,64-5.6,99.91-2.23,48.53-4.21,104.49-15,121.7-4.38,18.14-11.16,23.29-32.87,25.18-35.78,3.12-301.3,19.69-301.3,19.69L334.85,897.12Z"/><path class="cls-31" d="M366.84,407.27l655.73-55.63s40.62,156.16,37.49,222.06c-1.58,33.23-6.09,79.17-6.79,104.48-.42,14.93-2.7,21.76-12.5,26.91-4.09,20.57-57.33,26.66-103.46,30.79-43,3.86-104.3,11.45-155.29,16-13.64,1.23-24.31,2.55-30.95,3.58-17.29,2.66-19.7,15.6-22.1,21.23-5.36,5.66-5.2,25.42-6.5,47.05-1.37,22.73-3.92,63.92-5.61,99.66-2.33,49.39-4.43,105.09-14.14,121.65-4.07,18.52-10.49,23.6-32.32,25.46-33.7,2.88-301.48,19.59-301.48,19.59L336.79,893.3Z"/><path class="cls-32" d="M368.44,409.36,1024,353.82s34.76,151.5,31.49,220.27c-1.65,34.67-5.81,79.51-6.41,102.95-.38,14.9-2.75,21.35-13,26.09-4.31,18.11-57.26,24-104.92,28.27-44.44,4-105.66,11.3-154.94,15.7-13.68,1.23-24.34,2.52-30.87,3.49-17.43,2.57-19.49,15.86-21.69,21.46-4.71,5.13-4.71,24.78-6.05,47.08-1.41,23.3-3.89,63.79-5.62,99.4-2.44,50.25-4.67,105.71-13.25,121.61C695,1059,689,1064.05,667,1065.88c-31.62,2.64-301.66,19.49-301.66,19.49L338.73,889.48Z"/><path class="cls-33" d="M370.05,411.44,1025.51,356S1054.4,502.84,1051,574.48c-1.71,36.12-5.52,79.85-6,101.43-.35,14.85-2.81,20.93-13.47,25.26-4.53,15.64-57.19,21.35-106.39,25.75-45.85,4.1-107,11.14-154.57,15.4-13.72,1.24-24.39,2.49-30.81,3.4-17.55,2.49-19.27,16.12-21.27,21.7-4.06,4.61-4.23,24.13-5.61,47.11-1.43,23.87-3.86,63.67-5.62,99.15-2.55,51.11-4.91,106.32-12.36,121.56-3.48,19.28-9.18,24.23-31.23,26-29.54,2.4-301.84,19.39-301.84,19.39l-21.14-195Z"/><path class="cls-34" d="M371.65,413.53,1027,358.16s23,142.21,19.5,216.71c-1.79,37.56-5.23,80.19-5.64,99.9-.31,14.82-2.87,20.51-14,24.44-4.74,13.17-57.1,18.69-107.85,23.23-47.25,4.23-108.36,11-154.21,15.11-13.76,1.24-24.42,2.45-30.74,3.31-17.68,2.4-19.06,16.38-20.84,21.93-3.43,4.09-3.76,23.49-5.17,47.14-1.47,24.44-3.83,63.55-5.64,98.89-2.66,52-5.14,106.94-11.47,121.52-3.17,19.65-8.51,24.55-30.67,26.3-27.46,2.17-302,19.29-302,19.29L342.61,881.85Z"/><path class="cls-35" d="M373.26,415.61l655.2-55.28s17.16,137.56,13.49,214.93c-1.85,39-4.94,80.54-5.26,98.37-.27,14.79-2.92,20.1-14.45,23.62-5,10.7-57,16-109.32,20.71-48.66,4.35-109.71,10.83-153.84,14.81-13.8,1.26-24.47,2.43-30.68,3.23-17.8,2.31-18.84,16.63-20.42,22.16-2.78,3.56-3.28,22.84-4.73,47.17-1.49,25-3.85,63.42-5.64,98.64-2.86,52.82-5.38,107.55-10.58,121.47-2.87,20-7.86,24.87-30.13,26.58-25.38,1.94-302.2,19.2-302.2,19.2L344.55,878Z"/><path class="cls-36" d="M374.86,417.7l655.07-55.19s11.3,132.9,7.49,213.13c-1.92,40.45-4.63,80.89-4.87,96.86-.22,14.75-3,19.68-14.94,22.79-5.18,8.24-57,13.38-110.78,18.19C856.76,718,795.77,724.16,753.34,728c-13.84,1.26-24.5,2.39-30.6,3.14-17.94,2.21-18.64,16.89-20,22.38-2.14,3.05-2.8,22.21-4.28,47.21-1.53,25.57-3.81,63.3-5.65,98.38-3,53.69-5.62,108.16-9.7,121.43-2.56,20.41-7.19,25.21-29.58,26.86-23.29,1.72-302.37,19.1-302.37,19.1l-4.66-192.29Z"/><path class="cls-37" d="M376.47,419.78l654.93-55.1s5.44,128.25,1.5,211.35c-2,41.9-4.34,81.23-4.49,95.33-.17,14.72-3,19.26-15.44,22-5.39,5.77-56.87,10.73-112.24,15.67-51.48,4.59-112.41,10.52-153.12,14.22-13.88,1.27-24.54,2.36-30.54,3.06-18.07,2.11-17.55,17.4-19.59,22.61-1.07,2.74-2.32,21.56-3.84,47.24-1.55,26.14-3.76,63.17-5.66,98.13-3.05,54.55-5.85,108.77-8.8,121.38-2.26,20.79-6.53,25.55-29,27.14-21.22,1.5-302.56,19-302.56,19l.84-191.38Z"/><path class="cls-38" d="M378.07,421.87l654.81-55s-.43,123.61-4.51,209.57c-2.06,43.34-4,81.57-4.11,93.8-.09,14.69-3.09,18.85-15.92,21.15-5.61,3.3-56.8,8.07-113.71,13.15-52.89,4.71-113.76,10.37-152.76,13.93-13.92,1.27-24.58,2.32-30.47,3-18.19,2-17.6,17.54-19.17,22.84-.61,2.09-1.84,20.92-3.39,47.27-1.59,26.7-3.72,63.05-5.67,97.87-3.15,55.41-6.09,109.39-7.92,121.35-2,21.16-5.86,25.9-28.48,27.41-19.13,1.28-302.74,18.9-302.74,18.9l6.34-190.48Z"/><path class="cls-39" d="M379.68,424l-39.2,628.39s285.87-17.73,302.92-18.8c22.73-1.42,26.28-6.15,27.93-27.69C672.9,980.68,686.23,745,687,739.63s.42-21.18,18.74-23.08c37.87-3.91,284.72-25.24,298-27.14s16.41-5.68,16.41-20.32c0-30.94,14.23-300.07,14.23-300.07Z"/></g><g class="cls-1"><polygon class="cls-40" points="631.14 635.94 694.77 727.33 1024.82 698.46 961.19 607.07 631.14 635.94"/><polygon class="cls-41" points="961.19 607.07 1024.82 698.46 1043.72 386.94 980.1 295.55 961.19 607.07"/><polygon class="cls-42" points="612.24 947.46 675.87 1038.85 694.77 727.33 631.14 635.94 612.24 947.46"/><polygon class="cls-43" points="282.19 976.34 345.82 1067.72 675.87 1038.85 612.24 947.46 282.19 976.34"/><polygon class="cls-44" points="320 353.3 282.19 976.34 612.24 947.46 631.14 635.94 961.19 607.07 980.1 295.55 320 353.3"/></g><g class="cls-7"><path class="cls-8" d="M42.94,64.74,783,0,980.1,295.55S960.2,416.92,961.19,503.8s-66.41,98.56-78.38,99.73S800.51,620.37,699,629.08s-90.1,65.37-90.9,76.24S602.4,780.27,602,823.83,604.12,972.38,512.64,983s-334,24.57-334,24.57L.55,763.23Z"/><path class="cls-9" d="M44.75,67.08,784.62,2.44S975.17,292.77,975,296c-.07,1.62-12.85,80.51-17.1,155.06-1,17.64-1.84,34.71-1.92,50.54-.42,84.11-66.31,95.58-80,96.9-13.53,1.3-83.77,16.67-183.39,25.22A195.94,195.94,0,0,0,654,630.5c-16.48,4.8-27.32,11.92-34.89,19.21-19.78,19.07-15.89,42.95-16.42,50.36-.83,11.49-5.63,74.81-6.1,118.2-.38,30.53.58,88.55-26.77,125.18-12.83,17.71-32,31-61,34.38-89.14,10.33-334.21,24.46-334.21,24.46L2.73,758.94Z"/><path class="cls-10" d="M46.55,69.43,786.27,4.88S970.24,290,969.93,296.42c-.15,3.25-12.56,80.9-16.67,153.35-1,17.61-2.13,34.23-2.48,49.62-1.82,81.32-66.2,92.6-81.62,94.06-15.09,1.44-85.24,16.5-182.95,24.89a203.52,203.52,0,0,0-38.5,6.67c-16.61,4.78-27.05,12.23-34.43,19.44-19,18.6-15.42,42.24-16,50.36-.86,12.13-5.58,74.68-6.1,117.9-.47,31.37.36,89.19-26.11,125-12.46,17.93-31.13,31.66-60,34.93C418.24,982.67,170.64,997,170.64,997L4.91,754.65Z"/><path class="cls-11" d="M48.35,71.77,787.93,7.32S965.3,287.2,964.84,296.86c-.23,4.87-12.42,81.27-16.24,151.63-1,17.57-2.41,33.74-3,48.7-3.21,78.5-66.11,89.61-83.24,91.23C845.69,590,775.63,604.73,679.83,613a210.34,210.34,0,0,0-38.42,6.56,74.75,74.75,0,0,0-34,19.66c-18.28,18.12-14.93,41.54-15.54,50.37-.89,12.76-5.53,74.53-6.11,117.59-.57,32.22.13,89.83-25.45,124.82-12.1,18.14-30.3,32.27-59.08,35.48-84.48,9.73-334.62,24.24-334.62,24.24L7.09,750.36Z"/><path class="cls-12" d="M50.16,74.11,789.58,9.76S960.37,284.42,959.76,297.3c-.31,6.49-12.18,81.65-15.81,149.92-.93,17.52-2.7,33.23-3.58,47.77-4.57,75.65-66,86.63-84.86,88.39-18.2,1.71-88.18,16.14-182.06,24.22a215.64,215.64,0,0,0-38.34,6.45c-16.86,4.65-26.49,12.83-33.5,19.88-17.53,17.63-14.46,40.83-15.1,50.37-.93,13.4-5.38,74.4-6.12,117.29-.58,33.06-.1,90.47-24.79,124.64-11.73,18.36-29.47,32.81-58.13,36-82.17,9.24-334.82,24.12-334.82,24.12L9.27,746.07Z"/><path class="cls-13" d="M52,76.45,791.24,12.2s164.2,269.44,163.43,285.53c-.38,8.12-11.92,82-15.37,148.21-.92,17.48-3,32.71-4.13,46.85-5.91,72.78-65.9,83.64-86.48,85.56-19.76,1.84-89.65,16-181.62,23.89a221.36,221.36,0,0,0-38.25,6.33c-17,4.58-26.22,13.13-33.05,20.11-16.79,17.14-14,40.12-14.66,50.37-1,14-5.3,74.26-6.12,117-.66,33.92-.32,91.12-24.13,124.48-11.36,18.57-28.64,33.39-57.18,36.57-79.84,8.89-335,24-335,24L11.45,741.78Z"/><path class="cls-14" d="M53.76,78.8,792.89,14.64s157.62,264.21,156.7,283.53c-.46,9.73-11.68,82.41-15,146.49-.89,17.44-3.26,32.18-4.68,45.93-7.2,69.87-65.8,80.66-88.09,82.72-21.33,2-91.13,15.79-181.18,23.56a229,229,0,0,0-38.17,6.22c-17.12,4.51-25.93,13.43-32.58,20.33-16.05,16.64-13.49,39.41-14.22,50.38-1,14.66-5.24,74.12-6.13,116.66-.74,34.76-.55,91.76-23.47,124.3-11,18.79-27.81,34-56.23,37.12-77.52,8.55-335.23,23.9-335.23,23.9L13.63,737.5Z"/><path class="cls-15" d="M55.57,81.14l739-64.06s151,259,150,281.52C944,310,933.08,381.4,930,443.39c-.87,17.4-3.54,31.62-5.23,45-8.46,66.94-65.7,77.67-89.72,79.89-22.88,2.11-92.6,15.6-180.74,23.22a236.69,236.69,0,0,0-38.07,6.11c-17.26,4.44-25.66,13.73-32.13,20.55-15.31,16.15-13,38.71-13.77,50.38-1,15.29-5.18,74-6.15,116.36-.81,35.6-.76,92.4-22.8,124.12-10.63,19-27,34.58-55.29,37.67-75.18,8.22-335.42,23.79-335.42,23.79L15.8,733.21Z"/><path class="cls-16" d="M57.37,83.48l738.83-64S940.64,273.29,939.42,299c-.62,13-11.16,83.18-14.09,143.07-.85,17.36-3.81,31.06-5.78,44.08-9.66,64-65.59,74.68-91.33,77.05-24.44,2.25-94.07,15.43-180.3,22.89a245.69,245.69,0,0,0-38,6c-17.39,4.37-25.37,14-31.66,20.77-14.58,15.64-12.53,38-13.33,50.39-1.06,15.92-5.12,73.85-6.16,116.05-.89,36.45-1,93-22.14,123.95-10.27,19.22-26.15,35.16-54.34,38.21-72.85,7.88-335.63,23.68-335.63,23.68L18,728.92Z"/><path class="cls-17" d="M59.17,85.82,797.86,22S935.71,270.51,934.33,299.48c-.69,14.6-10.89,83.55-13.65,141.35-.83,17.32-4.08,30.48-6.33,43.15-10.8,61-65.49,71.71-93,74.23-26,2.38-95.54,15.25-179.85,22.55a254.51,254.51,0,0,0-37.91,5.88c-17.52,4.31-25.09,14.33-31.2,21-13.84,15.13-12,37.3-12.89,50.4-1.09,16.55-5,73.7-6.16,115.74-1,37.29-1.21,93.68-21.47,123.77-9.91,19.44-25.33,35.76-53.4,38.76-70.52,7.55-335.83,23.57-335.83,23.57L20.16,724.63Z"/><path class="cls-18" d="M61,88.17,799.51,24.41s131.27,243.31,129.74,275.5c-.77,16.23-10.63,83.94-13.23,139.64-.8,17.28-2.2,30.51-6.88,42.23-1.42,59.16-65.39,68.72-94.57,71.39-27.56,2.53-97,15.08-179.41,22.22a265.08,265.08,0,0,0-37.82,5.77c-17.66,4.24-24.81,14.62-30.74,21.23C553.47,617,555,639,554.15,652.78c-1.12,17.19-5,73.57-6.17,115.44-1.06,38.14-1.44,94.32-20.81,123.59-9.54,19.66-24.5,36.35-52.45,39.31-68.19,7.22-336,23.46-336,23.46L22.34,720.34Z"/><path class="cls-19" d="M62.78,90.51,801.17,26.85s124.67,238.09,123,273.5c-.84,17.85-10.36,84.32-12.79,137.93-.78,17.24-2.27,30-7.43,41.3-1.67,56.38-65.29,65.74-96.19,68.55-29.12,2.67-98.49,14.9-179,21.89A275.51,275.51,0,0,0,591,575.68c-17.79,4.16-24.52,14.91-30.28,21.45-12.4,14.08-11.08,35.88-12,50.4-1.16,17.82-5,73.43-6.18,115.13-1.15,39-1.67,95-20.15,123.41-9.18,19.88-23.67,36.95-51.5,39.86-65.86,6.9-336.24,23.34-336.24,23.34L24.52,716.05Z"/><path class="cls-20" d="M64.58,92.85,802.82,29.29S920.91,262.16,919.08,300.78C918.15,320.26,909,385.49,906.71,437c-.76,17.2-2.33,29.58-8,40.38-1.91,53.61-65.18,62.75-97.81,65.72-30.68,2.8-99.95,14.72-178.52,21.55a288.64,288.64,0,0,0-37.65,5.55c-17.93,4.08-24.24,15.2-29.82,21.67-11.69,13.55-10.61,35.18-11.57,50.41-1.18,18.45-4.89,73.29-6.18,114.82-1.23,39.82-1.89,95.6-19.49,123.24-8.81,20.09-22.83,37.53-50.55,40.4C403.61,927.32,130.7,944,130.7,944l-104-232.2Z"/><path class="cls-21" d="M66.39,95.2,804.47,31.73S916,259.37,914,301.22c-1,21.1-9.81,85.09-11.93,134.5-.74,17.16-2.39,29.11-8.53,39.46-2.16,50.84-65.09,59.76-99.43,62.88C761.86,541,692.67,552.61,616,559.28a300.26,300.26,0,0,0-37.56,5.44c-18.06,4-24,15.49-29.36,21.89-11,13-10.12,34.47-11.12,50.41-1.22,19.09-4.84,73.16-6.19,114.52-1.32,40.67-2.12,96.24-18.83,123.06-8.44,20.31-22,38.13-49.61,40.95-61.19,6.26-336.64,23.12-336.64,23.12L28.88,707.48Z"/><path class="cls-22" d="M68.19,97.54,806.13,34.17S911.05,256.59,908.91,301.66c-1.08,22.71-9.53,85.47-11.51,132.78-.71,17.12-2.45,28.65-9.08,38.54-2.39,48.06-65,56.78-101.05,60-33.79,3.07-102.89,14.36-177.64,20.89a313.17,313.17,0,0,0-37.48,5.32c-18.2,3.92-23.67,15.77-28.89,22.11-10.28,12.47-9.65,33.77-10.68,50.42-1.25,19.71-4.79,73-6.2,114.21C525,787.49,524,842.86,508.21,868.86c-8.08,20.52-21.17,38.72-48.66,41.5-58.86,5.95-336.84,23-336.84,23L31.06,703.19Z"/><path class="cls-23" d="M70,99.88,807.78,36.61s98.33,217.2,96,265.48c-1.15,24.34-9.24,85.86-11.07,131.08-.69,17.08-2.52,28.17-9.63,37.61-2.64,45.29-64.88,53.79-102.67,57.21-35.35,3.21-104.37,14.19-177.2,20.56a329.34,329.34,0,0,0-37.39,5.21c-18.34,3.84-23.39,16.06-28.44,22.34-9.58,11.9-9.16,33.06-10.24,50.42-1.28,20.34-4.74,72.87-6.2,113.9-1.51,42.35-2.57,97.52-17.51,122.7-7.71,20.74-20.34,39.32-47.71,42-56.53,5.64-337,22.9-337,22.9L33.23,698.9Z"/><path class="cls-24" d="M71.8,102.22,809.44,39.05s91.74,212,89.3,263.48c-1.23,26-9,86.24-10.64,129.36-.67,17-2.59,27.71-10.19,36.69C875,511.1,813.14,519.39,773.63,523c-36.92,3.34-105.85,14-176.76,20.22a348.9,348.9,0,0,0-37.31,5.09c-18.47,3.76-23.1,16.35-28,22.57-8.9,11.34-8.69,32.35-9.8,50.42-1.31,21-4.69,72.74-6.21,113.6-1.6,43.2-2.8,98.16-16.85,122.53-7.34,21-19.51,39.91-46.76,42.59-54.2,5.33-337.25,22.79-337.25,22.79L35.41,694.61Z"/><path class="cls-25" d="M73.6,104.57,811.09,41.49S896.25,248.24,893.65,303c-1.31,27.59-8.67,86.63-10.21,127.65-.64,17-2.65,27.24-10.73,35.77C869.59,506.12,808,514.2,766.8,517.92c-38.47,3.48-107.31,13.84-176.31,19.89a369.89,369.89,0,0,0-37.22,5c-18.62,3.68-22.82,16.63-27.52,22.79-8.22,10.77-8.2,31.65-9.35,50.43-1.35,21.61-4.65,72.6-6.22,113.29-1.7,44-3,98.8-16.19,122.35-7,21.17-18.68,40.51-45.81,43.14-51.86,5-337.45,22.68-337.45,22.68L37.59,690.33Z"/><path class="cls-26" d="M75.4,106.91l737.35-63s78.57,201.53,75.82,259.47c-1.39,29.21-8.38,87-9.78,125.93-.62,17-2.72,26.78-11.28,34.84-3.37,37-64.58,44.85-107.53,48.72-40,3.61-108.79,13.65-175.88,19.55-16.06,1.43-28.74,3.27-37.13,4.87-18.75,3.59-22.53,16.9-27.05,23-7.55,10.19-7.72,30.94-8.92,50.44-1.37,22.24-4.6,72.46-6.22,113-1.8,44.89-3.25,99.44-15.53,122.17C482.64,867.3,471.4,887,444.39,889.6c-49.53,4.73-337.66,22.56-337.66,22.56L39.77,686Z"/><path class="cls-27" d="M77.21,109.25,814.4,46.37s72,196.31,69.08,257.47c-1.46,30.83-8.07,87.39-9.35,124.22-.59,16.92-2.77,26.3-11.83,33.91-3.61,34.2-64.47,41.86-109.15,45.88-41.59,3.75-110.25,13.48-175.43,19.22-16.1,1.44-28.78,3.23-37.05,4.76-18.89,3.49-22.24,17.18-26.59,23.23-6.89,9.6-7.24,30.24-8.47,50.44-1.41,22.88-4.56,72.32-6.23,112.68-1.89,45.73-3.47,100.08-14.87,122-6.25,21.6-17,41.71-43.92,44.23-47.19,4.44-337.85,22.45-337.85,22.45L42,681.75Z"/><path class="cls-28" d="M79,111.59,816.06,48.81s65.39,191.08,62.34,255.46c-1.54,32.46-7.77,87.78-8.92,122.51-.56,16.88-2.84,25.84-12.38,33-3.86,31.43-64.38,38.87-110.77,43-43.15,3.89-111.73,13.31-175,18.89-16.15,1.45-28.82,3.19-37,4.65-19,3.4-22,17.44-26.13,23.46-6.25,9-6.76,29.52-8,50.44-1.44,23.51-4.52,72.18-6.24,112.36-2,46.58-3.7,100.73-14.21,121.83-5.88,21.82-16.18,42.31-43,44.78-44.86,4.14-338,22.34-338,22.34L44.13,677.46Z"/><path class="cls-29" d="M80.81,113.94l736.9-62.69s58.81,185.86,55.6,253.46c-1.62,34.08-7.46,88.16-8.49,120.79-.53,16.84-2.9,25.38-12.93,32.07-4.09,28.66-64.27,35.89-112.38,40.21-44.71,4-113.2,13.13-174.55,18.55-16.19,1.46-28.86,3.16-36.88,4.54-19.17,3.3-21.67,17.71-25.67,23.68-5.61,8.37-6.28,28.82-7.58,50.44-1.48,24.14-4.48,72-6.25,112.06-2.1,47.43-3.93,101.37-13.55,121.65-5.51,22-15.35,42.92-42,45.33-42.52,3.86-338.26,22.23-338.26,22.23L46.31,673.17Z"/><path class="cls-30" d="M82.62,116.28,819.37,53.69s52.22,180.64,48.86,251.45c-1.7,35.71-7.16,88.55-8.06,119.08-.5,16.81-3,24.91-13.48,31.15-4.34,25.88-64.17,32.9-114,37.37C686.41,496.9,618,505.69,558.58,511c-16.23,1.46-28.9,3.12-36.79,4.43-19.32,3.2-21.39,18-25.21,23.9-5,7.74-5.8,28.12-7.15,50.45-1.51,24.77-4.44,71.91-6.25,111.75C481,749.76,479,803.5,470.29,823c-5.15,22.26-14.52,43.52-41.07,45.88C389,872.41,90.76,891,90.76,891L48.49,668.88Z"/><path class="cls-31" d="M84.42,118.62,821,56.13s45.64,175.42,42.12,249.45c-1.77,37.32-6.84,88.93-7.63,117.37-.46,16.76-3,24.44-14,30.22-4.58,23.11-64.06,29.92-115.62,34.54C678,492,609.71,500.48,552.19,505.6c-16.26,1.46-28.94,3.07-36.7,4.3C496,513,494.38,528.13,490.74,534c-4.38,7.1-5.32,27.41-6.7,50.46-1.54,25.4-4.4,71.77-6.26,111.44-2.31,49.11-4.38,102.65-12.22,121.3-4.79,22.47-13.69,44.12-40.13,46.42-37.85,3.29-338.67,22-338.67,22L50.67,664.6Z"/><path class="cls-32" d="M86.22,121,822.68,58.57s39,170.19,35.38,247.45c-1.85,38.94-6.53,89.32-7.2,115.65-.43,16.72-3.1,24-14.58,29.3-4.82,20.34-64,26.93-117.25,31.7-49.38,4.43-117.61,12.6-173.22,17.56-16.31,1.47-29,3-36.62,4.19-19.59,3-20.84,18.48-24.29,24.36-3.78,6.45-4.83,26.7-6.25,50.45-1.58,26-4.36,71.63-6.27,111.14-2.41,50-4.6,103.29-11.56,121.12-4.42,22.68-12.86,44.74-39.18,47-35.52,3-338.87,21.9-338.87,21.9L52.84,660.31Z"/><path class="cls-33" d="M88,123.31,824.33,61S856.79,226,853,306.45c-1.92,40.57-6.2,89.71-6.77,113.94-.39,16.69-3.16,23.51-15.13,28.38-5.06,17.56-63.86,24-118.86,28.87-50.94,4.56-119.09,12.42-172.78,17.22-16.35,1.48-29,3-36.53,4.08-19.74,2.88-20.58,18.72-23.83,24.58s-4.35,26-5.82,50.46c-1.6,26.67-4.32,71.49-6.27,110.83-2.52,50.8-4.83,103.93-10.9,120.94-4.06,22.9-12,45.36-38.24,47.52C384.67,856,78.77,875.05,78.77,875.05L55,656Z"/><path class="cls-34" d="M89.83,125.65,826,63.45s25.87,159.75,21.9,243.44c-2,42.19-5.88,90.09-6.34,112.23-.35,16.64-3.22,23-15.68,27.45-5.31,14.79-63.76,21-120.49,26-52.5,4.7-120.55,12.24-172.33,16.89-16.39,1.48-29.07,2.94-36.45,4-19.87,2.76-21.41,18.51-23.37,24.8-3.51,4.57-3.87,25.29-5.37,50.47-1.64,27.3-4.29,71.35-6.28,110.52C459,730.89,456.53,783.81,451.34,800c-3.69,23.12-11.19,46-37.29,48.07-30.84,2.48-339.27,21.67-339.27,21.67l-17.58-218Z"/><path class="cls-35" d="M91.63,128l736-62.1s19.29,154.52,15.16,241.43c-2.08,43.82-5.54,90.48-5.9,110.52-.3,16.6-3.29,22.57-16.24,26.52-5.55,12-63.66,18-122.1,23.21-54.06,4.83-122,12.06-171.89,16.55-16.44,1.49-29.11,2.9-36.36,3.86-20,2.64-20.11,19.17-22.91,25-2.12,4.43-3.39,24.59-4.93,50.47-1.67,27.94-4.32,71.21-6.29,110.22-2.84,52.48-5.28,105.2-9.58,120.59-3.33,23.33-10.36,46.6-36.34,48.61-28.5,2.21-339.47,21.56-339.47,21.56l-11.41-217Z"/><path class="cls-36" d="M93.44,130.33l735.86-62S842,217.63,837.72,307.76c-2.16,45.44-5.21,90.86-5.48,108.8-.24,16.57-3.35,22.11-16.78,25.6-5.79,9.25-63.56,15-123.72,20.37-55.62,5-123.5,11.89-171.46,16.22-16.47,1.5-29.14,2.85-36.27,3.75-20.16,2.52-19.92,19.38-22.45,25.24-1.6,3.74-2.91,23.88-4.49,50.48-1.7,28.56-4.26,71.07-6.29,109.91-2.93,53.32-5.51,105.84-8.92,120.41-3,23.55-9.52,47.24-35.39,49.16-26.17,1.95-339.68,21.45-339.68,21.45l-5.23-216Z"/><path class="cls-37" d="M95.24,132.68,831,70.78s6.11,144.07,1.68,237.42c-2.23,47.06-4.87,91.24-5,107.08-.18,16.53-3.42,21.64-17.34,24.68-6,6.48-63.45,12-125.34,17.54-57.18,5.1-125,11.71-171,15.88-16.51,1.51-29.18,2.81-36.19,3.63-20.3,2.4-19.81,19.57-22,25.48-1.12,3-2.43,23.17-4.05,50.48-1.73,29.19-4.22,70.93-6.3,109.6-3,54.17-5.73,106.48-8.26,120.23-2.59,23.77-8.69,47.88-34.44,49.71-23.83,1.7-339.88,21.34-339.88,21.34l.94-215Z"/><path class="cls-38" d="M97,135l735.57-61.8s-.48,138.85-5.06,235.41c-2.32,48.69-4.53,91.63-4.62,105.38-.1,16.48-3.48,21.17-17.88,23.75-6.28,3.7-63.35,9-127,14.7C619.35,457.7,551.65,464,507.52,468c-16.56,1.52-29.23,2.76-36.1,3.52-20.45,2.27-19.85,19.72-21.53,25.7-.65,2.34-1.94,22.46-3.6,50.48-1.77,29.83-4.17,70.79-6.32,109.3-3.11,55-6,107.12-7.59,120.06-2.23,24-7.85,48.53-33.49,50.25-21.5,1.45-340.09,21.23-340.09,21.23l7.12-214Z"/><path class="cls-39" d="M98.85,137.36l-44,705.89s321.13-19.92,340.28-21.12c25.53-1.59,30.69-26.6,32.55-50.8,1.76-28.27,15.57-273.28,16.42-279.36s.48-23.79,21.06-25.92c42.53-4.39,319.83-28.36,334.72-30.49s18.44-6.38,18.44-22.83c0-34.75,16-337.07,16-337.07Z"/></g><g class="cls-1"><polygon class="cls-45" points="391.19 383.22 454.81 474.61 824.85 442.23 761.22 350.85 391.19 383.22"/><polygon class="cls-46" points="761.22 350.85 824.85 442.23 846.04 92.98 782.41 1.59 761.22 350.85"/><polygon class="cls-47" points="369.99 732.44 433.62 823.83 454.81 474.61 391.19 383.22 369.99 732.44"/><polygon class="cls-48" points="0 764.82 63.62 856.2 433.62 823.83 369.99 732.44 0 764.82"/><polygon class="cls-49" points="42.39 66.33 0 764.82 369.99 732.44 391.19 383.22 761.22 350.85 782.41 1.59 42.39 66.33"/></g></g></g></g></svg>