<svg xmlns="http://www.w3.org/2000/svg" xmlns:xlink="http://www.w3.org/1999/xlink" viewBox="0 0 371.5 316.78"><defs><style>.cls-1{isolation:isolate;}.cls-2,.cls-3,.cls-4,.cls-5{opacity:0.3;}.cls-3{fill:url(#linear-gradient);}.cls-4{fill:url(#linear-gradient-2);}.cls-5{fill:url(#linear-gradient-3);}.cls-10,.cls-45,.cls-6,.cls-7,.cls-8,.cls-9{opacity:0.2;}.cls-6{fill:url(#linear-gradient-4);}.cls-7{fill:url(#linear-gradient-5);}.cls-8{fill:url(#linear-gradient-6);}.cls-9{fill:url(#linear-gradient-7);}.cls-10{fill:url(#linear-gradient-8);}.cls-11{fill:url(#linear-gradient-9);}.cls-12{fill:url(#linear-gradient-10);}.cls-13{fill:url(#linear-gradient-11);}.cls-14{fill:url(#linear-gradient-12);}.cls-15{fill:url(#linear-gradient-13);}.cls-16{fill:url(#linear-gradient-14);}.cls-17{fill:url(#linear-gradient-15);}.cls-18{fill:url(#linear-gradient-16);}.cls-19{fill:url(#linear-gradient-17);}.cls-20{fill:url(#linear-gradient-18);}.cls-21{fill:url(#linear-gradient-19);}.cls-22{fill:url(#linear-gradient-20);}.cls-23{fill:url(#linear-gradient-21);}.cls-24{fill:url(#linear-gradient-22);}.cls-25{fill:url(#linear-gradient-23);}.cls-26{fill:url(#linear-gradient-24);}.cls-27{fill:url(#linear-gradient-25);}.cls-28{fill:url(#linear-gradient-26);}.cls-29,.cls-34,.cls-35,.cls-51,.cls-52,.cls-64,.cls-65,.cls-66,.cls-75,.cls-76,.cls-77,.cls-82,.cls-83{mix-blend-mode:color-dodge;}.cls-30{fill:url(#radial-gradient);}.cls-31{fill:url(#radial-gradient-2);}.cls-32{fill:url(#radial-gradient-3);}.cls-33{fill:url(#radial-gradient-4);}.cls-34{fill:url(#radial-gradient-5);}.cls-35{fill:url(#radial-gradient-6);}.cls-36{fill:url(#linear-gradient-27);}.cls-37{fill:url(#linear-gradient-28);}.cls-38{fill:url(#linear-gradient-29);}.cls-39{fill:url(#linear-gradient-30);}.cls-40{fill:url(#linear-gradient-31);}.cls-41{fill:url(#linear-gradient-32);}.cls-42{fill:url(#linear-gradient-33);}.cls-43{fill:url(#linear-gradient-34);}.cls-44{fill:url(#linear-gradient-35);}.cls-46{fill:url(#linear-gradient-36);}.cls-47{fill:url(#linear-gradient-37);}.cls-48{fill:url(#radial-gradient-7);}.cls-49{fill:url(#radial-gradient-8);}.cls-50{fill:url(#radial-gradient-9);}.cls-51{fill:url(#radial-gradient-10);}.cls-52{fill:url(#radial-gradient-11);}.cls-53{fill:url(#linear-gradient-38);}.cls-54{fill:url(#linear-gradient-39);}.cls-55{fill:url(#linear-gradient-40);}.cls-56{fill:url(#linear-gradient-41);}.cls-57{fill:url(#linear-gradient-42);}.cls-58{fill:url(#linear-gradient-43);}.cls-59{fill:url(#linear-gradient-44);}.cls-60{fill:url(#linear-gradient-45);}.cls-61{fill:url(#linear-gradient-46);}.cls-62{fill:url(#radial-gradient-12);}.cls-63{fill:url(#radial-gradient-13);}.cls-64{fill:url(#radial-gradient-14);}.cls-65{fill:url(#radial-gradient-15);}.cls-66{fill:url(#radial-gradient-16);}.cls-67{fill:url(#linear-gradient-47);}.cls-68{fill:url(#linear-gradient-48);}.cls-69{fill:url(#linear-gradient-49);}.cls-70{fill:url(#linear-gradient-50);}.cls-71{fill:url(#radial-gradient-17);}.cls-72{fill:url(#radial-gradient-18);}.cls-73{fill:url(#radial-gradient-19);}.cls-74{fill:url(#radial-gradient-20);}.cls-75{fill:url(#radial-gradient-21);}.cls-76{fill:url(#radial-gradient-22);}.cls-77{fill:url(#Degradado_sin_nombre_38);}.cls-100,.cls-101,.cls-102,.cls-78,.cls-79,.cls-80,.cls-81,.cls-84,.cls-85,.cls-86,.cls-87,.cls-88,.cls-89,.cls-90,.cls-91,.cls-92,.cls-93,.cls-94,.cls-95,.cls-96,.cls-97,.cls-98,.cls-99{mix-blend-mode:screen;}.cls-78{fill:url(#Degradado_sin_nombre_47);}.cls-80{fill:url(#Degradado_sin_nombre_35);}.cls-81{fill:url(#Degradado_sin_nombre_35-2);}.cls-82{fill:url(#Degradado_sin_nombre_38-2);}.cls-83{fill:url(#Degradado_sin_nombre_38-3);}.cls-84{fill:url(#Degradado_sin_nombre_47-2);}.cls-85{fill:url(#Degradado_sin_nombre_47-3);}.cls-86{fill:url(#Degradado_sin_nombre_35-3);}.cls-87{fill:url(#Degradado_sin_nombre_35-4);}.cls-88{fill:url(#Degradado_sin_nombre_35-5);}.cls-89{fill:url(#Degradado_sin_nombre_35-6);}.cls-90{fill:url(#Degradado_sin_nombre_35-7);}.cls-91{fill:url(#Degradado_sin_nombre_35-8);}.cls-92{fill:url(#Degradado_sin_nombre_35-9);}.cls-93{fill:url(#Degradado_sin_nombre_35-10);}.cls-94{fill:url(#Degradado_sin_nombre_35-11);}.cls-95{fill:url(#Degradado_sin_nombre_35-12);}.cls-96{fill:url(#Degradado_sin_nombre_35-13);}.cls-97{fill:url(#Degradado_sin_nombre_35-14);}.cls-98{fill:url(#Degradado_sin_nombre_35-15);}.cls-99{fill:url(#Degradado_sin_nombre_35-16);}.cls-100{fill:url(#Degradado_sin_nombre_35-17);}.cls-101{fill:url(#Degradado_sin_nombre_35-18);}.cls-102{fill:url(#Degradado_sin_nombre_35-19);}</style><linearGradient id="linear-gradient" x1="97.5" y1="220.63" x2="160.61" y2="220.63" gradientUnits="userSpaceOnUse"><stop offset="0" stop-color="#1bb0d4"/><stop offset="0.11" stop-color="#1ebfdd"/><stop offset="0.24" stop-color="#23d8ec"/><stop offset="0.37" stop-color="#1ec0dd"/><stop offset="0.44" stop-color="#1bb0d4"/><stop offset="0.5" stop-color="#1bb0d4"/><stop offset="0.51" stop-color="#1bb0d4"/><stop offset="0.55" stop-color="#20c6e2"/><stop offset="0.56" stop-color="#1bafd4"/><stop offset="0.58" stop-color="#179bc7"/><stop offset="0.61" stop-color="#148fc0"/><stop offset="0.63" stop-color="#138bbd"/></linearGradient><linearGradient id="linear-gradient-2" x1="-45.23" y1="255.61" x2="153.43" y2="211.08" gradientUnits="userSpaceOnUse"><stop offset="0.04" stop-color="#138bbd"/><stop offset="0.23" stop-color="#169ac7"/><stop offset="0.59" stop-color="#1fc3df"/><stop offset="1" stop-color="#2af6ff"/></linearGradient><linearGradient id="linear-gradient-3" x1="103.21" y1="250.75" x2="111.31" y2="262.93" xlink:href="#linear-gradient-2"/><linearGradient id="linear-gradient-4" x1="283.42" y1="239.58" x2="435.49" y2="194.04" gradientUnits="userSpaceOnUse"><stop offset="0.04" stop-color="#9f19ab"/><stop offset="0.24" stop-color="#ae25b1"/><stop offset="0.65" stop-color="#d744bf"/><stop offset="1" stop-color="#ff63ce"/></linearGradient><linearGradient id="linear-gradient-5" x1="233.31" y1="251.14" x2="283.97" y2="239.79" xlink:href="#linear-gradient-4"/><linearGradient id="linear-gradient-6" x1="245.25" y1="243.05" x2="206.87" y2="243.05" gradientUnits="userSpaceOnUse"><stop offset="0" stop-color="#9f19ab"/><stop offset="0.17" stop-color="#ae25b1"/><stop offset="0.49" stop-color="#d744bf"/><stop offset="0.77" stop-color="#ff63ce"/><stop offset="0.92" stop-color="#dc48c1"/></linearGradient><linearGradient id="linear-gradient-7" x1="112.92" y1="286.59" x2="256.63" y2="286.59" gradientUnits="userSpaceOnUse"><stop offset="0.07" stop-color="#fcce9e"/><stop offset="0.52" stop-color="#fac099"/><stop offset="0.59" stop-color="#ffe1a6"/><stop offset="0.59" stop-color="#ffe4a7"/><stop offset="0.61" stop-color="#fdd4a1"/><stop offset="0.64" stop-color="#fabd98"/><stop offset="0.67" stop-color="#f8af92"/><stop offset="0.7" stop-color="#f7aa90"/><stop offset="1" stop-color="#f9b695"/></linearGradient><linearGradient id="linear-gradient-8" x1="99.47" y1="265.1" x2="137.89" y2="256.49" gradientUnits="userSpaceOnUse"><stop offset="0.04" stop-color="#ffa98c"/><stop offset="0.32" stop-color="#ffb892"/><stop offset="0.86" stop-color="#fee1a3"/><stop offset="1" stop-color="#feeca8"/></linearGradient><linearGradient id="linear-gradient-9" x1="256.43" y1="-53.85" x2="164.8" y2="120.78" gradientUnits="userSpaceOnUse"><stop offset="0.04" stop-color="#6b24d6"/><stop offset="0.29" stop-color="#7733dc"/><stop offset="0.79" stop-color="#975ced"/><stop offset="1" stop-color="#a56ef4"/></linearGradient><linearGradient id="linear-gradient-10" x1="193.26" y1="121.44" x2="347.93" y2="37.78" xlink:href="#linear-gradient-9"/><linearGradient id="linear-gradient-11" x1="183.34" y1="138.62" x2="247.92" y2="218.1" xlink:href="#linear-gradient-9"/><linearGradient id="linear-gradient-12" x1="200.98" y1="135.71" x2="355.65" y2="52.04" xlink:href="#linear-gradient-9"/><linearGradient id="linear-gradient-13" x1="206.92" y1="139.52" x2="206.94" y2="139.55" xlink:href="#linear-gradient-9"/><linearGradient id="linear-gradient-14" x1="207.59" y1="139.27" x2="207.61" y2="139.29" xlink:href="#linear-gradient-9"/><linearGradient id="linear-gradient-15" x1="8.91" y1="162.08" x2="281.95" y2="100.87" xlink:href="#linear-gradient-9"/><linearGradient id="linear-gradient-16" x1="208.92" y1="131.28" x2="242.25" y2="131.28" gradientUnits="userSpaceOnUse"><stop offset="0" stop-color="#6b24d6"/><stop offset="0.07" stop-color="#712dd9"/><stop offset="0.16" stop-color="#7734dc"/><stop offset="0.32" stop-color="#8c4fe7"/><stop offset="0.48" stop-color="#a56ef4"/><stop offset="0.87" stop-color="#6b24d6"/></linearGradient><linearGradient id="linear-gradient-17" x1="206.57" y1="117.24" x2="206.6" y2="117.28" xlink:href="#linear-gradient-9"/><linearGradient id="linear-gradient-18" x1="207.29" y1="116.91" x2="207.4" y2="117.04" xlink:href="#linear-gradient-9"/><linearGradient id="linear-gradient-19" x1="130.58" y1="116.83" x2="130.92" y2="116.75" xlink:href="#linear-gradient-9"/><linearGradient id="linear-gradient-20" x1="70.59" y1="120.16" x2="156.78" y2="100.84" xlink:href="#linear-gradient-9"/><linearGradient id="linear-gradient-21" x1="131.29" y1="116.83" x2="131.42" y2="116.8" xlink:href="#linear-gradient-9"/><linearGradient id="linear-gradient-22" x1="124.99" y1="139.76" x2="133.6" y2="137.83" xlink:href="#linear-gradient-9"/><linearGradient id="linear-gradient-23" x1="130.26" y1="139.49" x2="131.91" y2="139.12" xlink:href="#linear-gradient-9"/><linearGradient id="linear-gradient-24" x1="132.41" y1="139.1" x2="132.56" y2="139.07" xlink:href="#linear-gradient-9"/><linearGradient id="linear-gradient-25" x1="153.74" y1="146.55" x2="153.94" y2="146.51" xlink:href="#linear-gradient-9"/><linearGradient id="linear-gradient-26" x1="134.5" y1="121.74" x2="164.79" y2="121.74" gradientUnits="userSpaceOnUse"><stop offset="0" stop-color="#7c3adf"/><stop offset="0.04" stop-color="#7733dc"/><stop offset="0.14" stop-color="#6e28d8"/><stop offset="0.25" stop-color="#6b24d6"/><stop offset="0.56" stop-color="#9a60ee"/><stop offset="0.97" stop-color="#7734dc"/></linearGradient><radialGradient id="radial-gradient" cx="234.66" cy="95.18" r="9.69" gradientUnits="userSpaceOnUse"><stop offset="0" stop-color="#fff"/><stop offset="0.07" stop-color="#d8d8d8"/><stop offset="0.16" stop-color="#a6a6a6"/><stop offset="0.26" stop-color="#797979"/><stop offset="0.37" stop-color="#545454"/><stop offset="0.47" stop-color="#353535"/><stop offset="0.59" stop-color="#1e1e1e"/><stop offset="0.7" stop-color="#0d0d0d"/><stop offset="0.84" stop-color="#030303"/><stop offset="1"/></radialGradient><radialGradient id="radial-gradient-2" cx="226.04" cy="131.47" r="23.81" xlink:href="#radial-gradient"/><radialGradient id="radial-gradient-3" cx="115.6" cy="111.15" r="13.34" xlink:href="#radial-gradient"/><radialGradient id="radial-gradient-4" cx="149.53" cy="108.68" r="12.15" xlink:href="#radial-gradient"/><radialGradient id="radial-gradient-5" cx="-1253.09" cy="32343.62" r="15.68" gradientTransform="matrix(-0.01, 0.91, -0.22, 0, 7421.61, 1349.39)" gradientUnits="userSpaceOnUse"><stop offset="0" stop-color="#4916a1"/><stop offset="0.07" stop-color="#3f138a"/><stop offset="0.22" stop-color="#2c0d60"/><stop offset="0.37" stop-color="#1c083e"/><stop offset="0.52" stop-color="#100523"/><stop offset="0.68" stop-color="#07020f"/><stop offset="0.83" stop-color="#020104"/><stop offset="1"/></radialGradient><radialGradient id="radial-gradient-6" cx="-1276.31" cy="32682.29" r="15.68" xlink:href="#radial-gradient-5"/><linearGradient id="linear-gradient-27" x1="182.22" y1="-23.51" x2="79.84" y2="171.61" xlink:href="#linear-gradient-2"/><linearGradient id="linear-gradient-28" x1="138.01" y1="142.85" x2="173.45" y2="132.24" xlink:href="#linear-gradient-2"/><linearGradient id="linear-gradient-29" x1="16.8" y1="155.25" x2="16.8" y2="155.26" xlink:href="#linear-gradient-2"/><linearGradient id="linear-gradient-30" x1="97.5" y1="174.63" x2="160.61" y2="174.63" xlink:href="#linear-gradient"/><linearGradient id="linear-gradient-31" x1="-48.65" y1="210.38" x2="157" y2="164.28" xlink:href="#linear-gradient-2"/><linearGradient id="linear-gradient-32" x1="111.05" y1="176.81" x2="144.55" y2="227.2" xlink:href="#linear-gradient-2"/><linearGradient id="linear-gradient-33" x1="123.19" y1="195.06" x2="136.79" y2="215.52" xlink:href="#linear-gradient-2"/><linearGradient id="linear-gradient-34" x1="92.74" y1="189.01" x2="126.16" y2="239.26" xlink:href="#linear-gradient-2"/><linearGradient id="linear-gradient-35" x1="104.84" y1="207.21" x2="118.41" y2="227.62" xlink:href="#linear-gradient-2"/><linearGradient id="linear-gradient-36" x1="111.05" y1="232.81" x2="144.55" y2="283.2" xlink:href="#linear-gradient-2"/><linearGradient id="linear-gradient-37" x1="123.19" y1="251.06" x2="136.79" y2="271.52" xlink:href="#linear-gradient-2"/><radialGradient id="radial-gradient-7" cx="51.99" cy="173.53" r="51.75" xlink:href="#radial-gradient"/><radialGradient id="radial-gradient-8" cx="141.15" cy="133.59" r="7.17" xlink:href="#radial-gradient"/><radialGradient id="radial-gradient-9" cx="116.22" cy="159.38" r="23.01" xlink:href="#radial-gradient"/><radialGradient id="radial-gradient-10" cx="-1156.3" cy="37510.84" r="15.68" gradientTransform="matrix(-0.01, 0.92, -0.18, 0, 6838.06, 1308.94)" gradientUnits="userSpaceOnUse"><stop offset="0" stop-color="#972a74"/><stop offset="0.04" stop-color="#8a266a"/><stop offset="0.19" stop-color="#601b4a"/><stop offset="0.35" stop-color="#3d112f"/><stop offset="0.51" stop-color="#230a1b"/><stop offset="0.67" stop-color="#0f040c"/><stop offset="0.83" stop-color="#040103"/><stop offset="1"/></radialGradient><radialGradient id="radial-gradient-11" cx="-654.92" cy="2239.29" r="17.05" gradientTransform="matrix(0.52, 0, 0, 1.04, 454.94, -2159.26)" xlink:href="#radial-gradient-10"/><linearGradient id="linear-gradient-38" x1="197.44" y1="153.1" x2="340.84" y2="153.1" xlink:href="#linear-gradient-4"/><linearGradient id="linear-gradient-39" x1="354.75" y1="-9.74" x2="252.37" y2="185.37" xlink:href="#linear-gradient-4"/><linearGradient id="linear-gradient-40" x1="271.38" y1="137" x2="237.59" y2="137" gradientUnits="userSpaceOnUse"><stop offset="0" stop-color="#9f19ab"/><stop offset="0.14" stop-color="#ae25b1"/><stop offset="0.4" stop-color="#d744bf"/><stop offset="0.63" stop-color="#ff63ce"/><stop offset="0.87" stop-color="#dc48c1"/></linearGradient><linearGradient id="linear-gradient-41" x1="297.1" y1="167.22" x2="323.43" y2="221.88" xlink:href="#linear-gradient-4"/><linearGradient id="linear-gradient-42" x1="282.64" y1="192.48" x2="439.98" y2="145.36" xlink:href="#linear-gradient-4"/><linearGradient id="linear-gradient-43" x1="165.5" y1="175.56" x2="255.93" y2="155.29" xlink:href="#linear-gradient-4"/><linearGradient id="linear-gradient-44" x1="231.55" y1="204.2" x2="286.12" y2="191.97" xlink:href="#linear-gradient-4"/><linearGradient id="linear-gradient-45" x1="228.56" y1="200.23" x2="254.9" y2="254.9" xlink:href="#linear-gradient-4"/><linearGradient id="linear-gradient-46" x1="245.25" y1="195.72" x2="206.87" y2="195.72" xlink:href="#linear-gradient-6"/><radialGradient id="radial-gradient-12" cx="216.6" cy="160.97" r="15.52" xlink:href="#radial-gradient"/><radialGradient id="radial-gradient-13" cx="256.75" cy="128.83" r="11.16" xlink:href="#radial-gradient"/><radialGradient id="radial-gradient-14" cx="-494.2" cy="31391.25" r="15.68" gradientTransform="matrix(-0.01, 1.03, -0.24, 0, 7592.84, 783.34)" gradientUnits="userSpaceOnUse"><stop offset="0" stop-color="#ad3185"/><stop offset="0.1" stop-color="#8a276a"/><stop offset="0.24" stop-color="#601b4a"/><stop offset="0.39" stop-color="#3e112f"/><stop offset="0.54" stop-color="#230a1b"/><stop offset="0.69" stop-color="#0f040c"/><stop offset="0.84" stop-color="#040103"/><stop offset="1"/></radialGradient><radialGradient id="radial-gradient-15" cx="218.84" cy="195.15" r="36.07" xlink:href="#radial-gradient"/><radialGradient id="radial-gradient-16" cx="316.77" cy="177.22" r="38.5" xlink:href="#radial-gradient"/><linearGradient id="linear-gradient-47" x1="255.48" y1="63.09" x2="167.46" y2="230.84" xlink:href="#linear-gradient-8"/><linearGradient id="linear-gradient-48" x1="112.92" y1="240.43" x2="256.63" y2="240.43" xlink:href="#linear-gradient-7"/><linearGradient id="linear-gradient-49" x1="86.38" y1="211.87" x2="160.54" y2="195.25" xlink:href="#linear-gradient-8"/><linearGradient id="linear-gradient-50" x1="202.59" y1="194.87" x2="160.25" y2="194.87" gradientUnits="userSpaceOnUse"><stop offset="0.04" stop-color="#f7aa90"/><stop offset="0.23" stop-color="#f9b996"/><stop offset="0.61" stop-color="#ffe2a6"/><stop offset="0.63" stop-color="#ffe4a7"/><stop offset="0.87" stop-color="#f7aa90"/></linearGradient><radialGradient id="radial-gradient-17" cx="221.88" cy="195.03" r="0.11" xlink:href="#radial-gradient"/><radialGradient id="radial-gradient-18" cx="195.79" cy="189.97" r="5.84" xlink:href="#radial-gradient"/><radialGradient id="radial-gradient-19" cx="122.2" cy="197.93" r="8.34" xlink:href="#radial-gradient"/><radialGradient id="radial-gradient-20" cx="162.43" cy="231.87" r="53.62" xlink:href="#radial-gradient"/><radialGradient id="radial-gradient-21" cx="-1158.56" cy="37476.71" r="12.79" gradientTransform="matrix(-0.01, 0.92, -0.18, 0, 6837.97, 1340.09)" xlink:href="#radial-gradient-10"/><radialGradient id="radial-gradient-22" cx="-576.13" cy="-1326.59" r="21.84" gradientTransform="matrix(0.48, -0.2, 0.25, 0.61, 808.1, 955.47)" xlink:href="#radial-gradient-10"/><radialGradient id="Degradado_sin_nombre_38" cx="197" cy="278.73" r="53.89" gradientUnits="userSpaceOnUse"><stop offset="0" stop-color="#5de7e5"/><stop offset="0.22" stop-color="#7eecea" stop-opacity="0.8"/><stop offset="0.72" stop-color="#cff8f7" stop-opacity="0.29"/><stop offset="1" stop-color="#fff" stop-opacity="0"/></radialGradient><radialGradient id="Degradado_sin_nombre_47" cx="197.46" cy="294.99" r="14.7" gradientTransform="translate(206.65 -59.87) rotate(35.28)" gradientUnits="userSpaceOnUse"><stop offset="0.09" stop-color="#5de7e5"/><stop offset="0.1" stop-color="#3db7bb"/><stop offset="0.13" stop-color="#00596a"/><stop offset="0.21" stop-color="#1f6d7c" stop-opacity="0.88"/><stop offset="0.57" stop-color="#98bcc3" stop-opacity="0.4"/><stop offset="0.85" stop-color="#e3edef" stop-opacity="0.11"/><stop offset="1" stop-color="#fff" stop-opacity="0"/></radialGradient><radialGradient id="Degradado_sin_nombre_35" cx="270.33" cy="58.04" r="16.6" gradientUnits="userSpaceOnUse"><stop offset="0" stop-color="#5de7e5"/><stop offset="0.21" stop-color="#8beeec"/><stop offset="0.47" stop-color="#bdf5f4"/><stop offset="0.7" stop-color="#e1fbfa"/><stop offset="0.88" stop-color="#f7fefe"/><stop offset="1" stop-color="#fff"/></radialGradient><radialGradient id="Degradado_sin_nombre_35-2" cx="270.33" cy="58.03" r="5.4" xlink:href="#Degradado_sin_nombre_35"/><radialGradient id="Degradado_sin_nombre_38-2" cx="49.72" cy="200.1" r="44.22" xlink:href="#Degradado_sin_nombre_38"/><radialGradient id="Degradado_sin_nombre_38-3" cx="316.65" cy="200.5" r="44.9" gradientTransform="translate(149.38 -133.74) rotate(30.37)" xlink:href="#Degradado_sin_nombre_38"/><radialGradient id="Degradado_sin_nombre_47-2" cx="317.46" cy="210.4" r="14.7" gradientTransform="translate(462.64 -141.69) rotate(78.87)" xlink:href="#Degradado_sin_nombre_47"/><radialGradient id="Degradado_sin_nombre_47-3" cx="48.04" cy="215.9" r="14.7" gradientTransform="translate(247.76 120.86) rotate(77.09)" xlink:href="#Degradado_sin_nombre_47"/><radialGradient id="Degradado_sin_nombre_35-3" cx="228" cy="21.4" r="12.26" xlink:href="#Degradado_sin_nombre_35"/><radialGradient id="Degradado_sin_nombre_35-4" cx="228" cy="36.36" r="3.06" xlink:href="#Degradado_sin_nombre_35"/><radialGradient id="Degradado_sin_nombre_35-5" cx="227.82" cy="24.75" r="5.97" xlink:href="#Degradado_sin_nombre_35"/><radialGradient id="Degradado_sin_nombre_35-6" cx="-505.22" cy="2991.79" r="11.3" gradientTransform="matrix(0.87, 0.5, 0, 1.15, 615.29, -3162.01)" xlink:href="#Degradado_sin_nombre_35"/><radialGradient id="Degradado_sin_nombre_35-7" cx="-501.54" cy="2988.44" r="4.12" gradientTransform="matrix(0.87, 0.5, 0, 1.15, 615.29, -3162.01)" xlink:href="#Degradado_sin_nombre_35"/><radialGradient id="Degradado_sin_nombre_35-8" cx="318.03" cy="103.67" r="13.38" xlink:href="#Degradado_sin_nombre_35"/><radialGradient id="Degradado_sin_nombre_35-9" cx="240.79" cy="134.86" r="57.72" xlink:href="#Degradado_sin_nombre_35"/><radialGradient id="Degradado_sin_nombre_35-10" cx="227.08" cy="78.58" r="35.67" xlink:href="#Degradado_sin_nombre_35"/><radialGradient id="Degradado_sin_nombre_35-11" cx="128.09" cy="93.83" r="46.21" xlink:href="#Degradado_sin_nombre_35"/><radialGradient id="Degradado_sin_nombre_35-12" cx="100.67" cy="150.66" r="62.48" xlink:href="#Degradado_sin_nombre_35"/><radialGradient id="Degradado_sin_nombre_35-13" cx="292.13" cy="116.14" r="18.35" xlink:href="#Degradado_sin_nombre_35"/><radialGradient id="Degradado_sin_nombre_35-14" cx="208.29" cy="57.54" r="20.38" xlink:href="#Degradado_sin_nombre_35"/><radialGradient id="Degradado_sin_nombre_35-15" cx="133.21" cy="19.03" r="16.7" xlink:href="#Degradado_sin_nombre_35"/><radialGradient id="Degradado_sin_nombre_35-16" cx="133.21" cy="19.47" r="8.79" xlink:href="#Degradado_sin_nombre_35"/><radialGradient id="Degradado_sin_nombre_35-17" cx="61.49" cy="80.86" r="6.04" xlink:href="#Degradado_sin_nombre_35"/><radialGradient id="Degradado_sin_nombre_35-18" cx="69.71" cy="71.14" r="9.4" xlink:href="#Degradado_sin_nombre_35"/><radialGradient id="Degradado_sin_nombre_35-19" cx="77.94" cy="61.43" r="12.85" xlink:href="#Degradado_sin_nombre_35"/></defs><title>Team</title><g class="cls-1"><g id="Capa_2" data-name="Capa 2"><g id="Layer_1" data-name="Layer 1"><g class="cls-2"><path class="cls-3" d="M133.84,221.8c-1.33.77-3.65.3-3.84-.79-.39-2.31-2.25-4.55-5.55-6.23-5.84-3-15.73-3-21.57-.09-7.26,3.64-7.52,10-.8,13.89a23.07,23.07,0,0,0,10.11,2.75c1.14.07,1.87.59,2,1.16h0V225a24.61,24.61,0,0,1,10.28,2.24c3.3,1.68,5.16,3.92,5.55,6.23.19,1.09,2.51,1.56,3.84.79l25.24-14.57,1.11-.24V206.58Z"/><path class="cls-4" d="M19,209.43a3.83,3.83,0,0,1-2.24-3.05v12h0c-.2,1.26.53,2.56,2.21,3.53l68.11,39.33v-12.5Z"/><path class="cls-5" d="M113.53,233.52,87.14,248.76v12.5L113.53,246a1.09,1.09,0,0,0,.62-.82h0V232.57A1,1,0,0,1,113.53,233.52Z"/><path class="cls-6" d="M340.83,218h.05v-12.5l-.05,0c.05,1.15-.68,2.31-2.2,3.19l-67.69,39.08v12.5l67.69-39.08C340.15,220.28,340.88,219.11,340.83,218Z"/><path class="cls-7" d="M244.12,232.25a4.47,4.47,0,0,0-3-.39v12.5a4.47,4.47,0,0,1,3,.39l26.82,15.49v-12.5Z"/><path class="cls-8" d="M239.24,233.29c-.23,2.12-1.74,4.2-4.54,5.81-6.23,3.6-16.43,3.52-22.56-.23A8.38,8.38,0,0,1,208,233.8l-.11,0v10.83c-.2,2.4,1.22,4.85,4.26,6.71,6.13,3.75,16.33,3.83,22.56.23,2.8-1.61,4.31-3.69,4.54-5.81.08-.71.88-1.23,1.89-1.43v-12.5C240.12,232.06,239.32,232.58,239.24,233.29Z"/><path class="cls-9" d="M203.17,302.34c-2.32,2-7,2.54-10.54,1.18l-79.89-31V285l79.89,31c3.5,1.36,8.22.83,10.54-1.18l53.28-45.93v-12.5Z"/><path class="cls-10" d="M120.2,260.34c-4.17-1.63-6.58-4.2-7-6.88v11.17a6.43,6.43,0,0,0,2.31,5.41l9-6C126,262.9,123.5,261.62,120.2,260.34Z"/></g><path class="cls-11" d="M135.44,109c4.79-4.7,15.55-6.11,23.49-2.93,6.39,2.56,8.85,8.1,5.36,12.08-2,2.26-5.26,3.84-9,4.62-1.78.37-2,1.78-.34,2.34l32.23,11,19.14-18.76c1.23-1.21,4.41-1,5.18.31,1.24,2.18,3.9,4.09,7.74,5.25,7.21,2.17,16.21.77,20.51-3.18,4.72-4.34,2.26-10.06-5.37-12.67a25.93,25.93,0,0,0-10.9-1.13c-2.41.26-4.23-1.26-3-2.48L239.6,84.78,156.78,56.42c-3.62-1.24-8.28-.56-10.41,1.53L97.78,105.59l32.28,11c1.61.55,3.64-.22,3.33-1.28C132.8,113.25,133.42,111,135.44,109Z"/><path class="cls-12" d="M223.45,106a25.93,25.93,0,0,1,10.9,1.13,17.08,17.08,0,0,1,3.64,1.71l1.61-1.57V84.78l-19.14,18.75C219.22,104.75,221,106.27,223.45,106Z"/><path class="cls-13" d="M242,116a7,7,0,0,1-2.28,3.77c-4.3,4-13.3,5.35-20.51,3.18-3.84-1.16-6.5-3.07-7.74-5.25-.77-1.34-3.95-1.52-5.18-.31l-19.14,18.76-32.23-11c-1.64-.56-1.44-2,.34-2.34,3.77-.78,7.06-2.36,9-4.62,3.49-4,1-9.52-5.36-12.08-7.94-3.18-18.7-1.77-23.49,2.93-2,2-2.64,4.21-2.05,6.32.31,1.06-1.72,1.83-3.33,1.28l-32.28-11v22.5l32.28,11c1.61.55,3.64-.22,3.33-1.28-.59-2.11,0-4.35,2.05-6.32,3.83-3.76,11.47-5.4,18.44-4.29v19c-.21.52.11,1.1,1,1.42l32.23,11,19.14-18.76c1.23-1.21,4.41-1,5.18.31,1.24,2.18,3.9,4.09,7.74,5.25,7.21,2.17,16.21.77,20.51-3.18,2-1.82,2.68-3.88,2.28-5.86Z"/><path class="cls-14" d="M209.17,139.15v-22.5a3.8,3.8,0,0,0-2.88.78l-19.14,18.76v22.5l19.14-18.76A3.8,3.8,0,0,1,209.17,139.15Z"/><path class="cls-15" d="M207,139.49l-.13,0Z"/><path class="cls-16" d="M207.62,139.26h0Z"/><path class="cls-17" d="M154.92,125.15c-1.64-.56-1.44-2,.34-2.34,3.77-.78,7.06-2.36,9-4.62,3.49-4,1-9.52-5.36-12.08-7.94-3.18-18.7-1.77-23.49,2.93-2,2-2.64,4.21-2,6.32.3,1.06-1.73,1.83-3.34,1.28l-32.28-11v22.5l32.28,11c1.61.55,3.64-.22,3.34-1.28-.6-2.11,0-4.35,2-6.32,3.83-3.76,11.47-5.4,18.44-4.29v19c-.21.52.11,1.1,1,1.42l32.23,11v-22.5Z"/><path class="cls-18" d="M242,136.45V116a7,7,0,0,1-2.28,3.77c-4.3,4-13.3,5.35-20.51,3.18-3.84-1.15-6.5-3.07-7.74-5.25-.56-1-2.41-1.33-3.85-1a4.72,4.72,0,0,1,1.55-.11v22.5a2.91,2.91,0,0,1,2.3,1.09c1.24,2.18,3.9,4.1,7.74,5.25,7.21,2.17,16.21.77,20.51-3.18C241.7,140.49,242.4,138.43,242,136.45Z"/><path class="cls-19" d="M206.85,117a2.32,2.32,0,0,0-.56.39A2.32,2.32,0,0,1,206.85,117Z"/><path class="cls-20" d="M207.56,116.77a3.32,3.32,0,0,0-.58.22A3.32,3.32,0,0,1,207.56,116.77Z"/><path class="cls-21" d="M130.69,116.79h0Z"/><polygon class="cls-22" points="127.72 115.84 97.78 105.59 97.78 105.59 127.72 115.84"/><path class="cls-23" d="M131.38,116.82h0Z"/><path class="cls-24" d="M130.06,139.14l-2.35-.8,2.35.8a3.4,3.4,0,0,0,.63.15A3.4,3.4,0,0,1,130.06,139.14Z"/><path class="cls-25" d="M130.8,139.29a3.2,3.2,0,0,0,.53,0A3.2,3.2,0,0,1,130.8,139.29Z"/><path class="cls-26" d="M132.5,139.08h0C132.45,139.1,132.44,139.1,132.5,139.08Z"/><path class="cls-27" d="M153.84,146.38a.76.76,0,0,0,0,.3Z"/><path class="cls-28" d="M153.84,124.25c-.17-.58.32-1.21,1.42-1.44,3.77-.78,7.06-2.36,9-4.62,3.49-4,1-9.52-5.36-12.08-7.94-3.18-18.7-1.77-23.49,2.93-2,2-2.64,4.21-2,6.32.14.51-.26,1-.9,1.22v22.49c.19-.1,1.07-.58.9-1.21-.6-2.11,0-4.35,2-6.32,3.82-3.75,11.44-5.39,18.4-4.3Z"/><g class="cls-29"><path class="cls-30" d="M220.38,104.13l.08-.1L239.6,85.28l-1.14-.39-18,17.64A1.07,1.07,0,0,0,220.38,104.13Z"/><path class="cls-31" d="M239.72,118.81c-4.3,4-13.3,5.35-20.51,3.18-3.84-1.15-6.5-3.07-7.74-5.25-.77-1.34-3.95-1.52-5.18-.31l-19.14,18.76-32.23-11a2,2,0,0,1-.7-.39c-.72.58-.53,1.47.7,1.89l32.23,11,19.14-18.76c1.23-1.21,4.41-1,5.18.31,1.24,2.18,3.9,4.1,7.74,5.25,7.21,2.17,16.21.77,20.51-3.18a6.26,6.26,0,0,0,2.33-5.55A6.89,6.89,0,0,1,239.72,118.81Z"/><path class="cls-32" d="M133.23,115.08a3.15,3.15,0,0,1-3.17.56L98.91,105l-1.13,1.11,32.28,11c1.61.55,3.64-.22,3.34-1.28A5.44,5.44,0,0,1,133.23,115.08Z"/><path class="cls-33" d="M165.83,114c.46-3.35-2.12-6.93-6.9-8.84-7.94-3.18-18.7-1.77-23.49,2.93a6.44,6.44,0,0,0-2.21,5.55,7,7,0,0,1,2.21-4c4.79-4.7,15.55-6.11,23.49-2.93C163,108.24,165.47,111.08,165.83,114Z"/></g><path class="cls-34" d="M225,141.25c-1.93,0-3.42-6.43-3.33-14.32s1.73-14.27,3.66-14.24,3.42,6.43,3.33,14.32S226.89,141.27,225,141.25Z"/><path class="cls-35" d="M149.71,119.25c-1.93,0-3.42-6.43-3.33-14.32s1.73-14.27,3.66-14.24,3.42,6.43,3.33,14.32S151.64,119.27,149.71,119.25Z"/><path class="cls-36" d="M102.08,177.58c-6.72-3.88-6.46-10.25.8-13.89,5.84-2.92,15.73-2.88,21.57.09,3.3,1.68,5.16,3.92,5.55,6.23.19,1.09,2.51,1.56,3.84.79l26.35-15.22L133.37,140.1c-1.73-1-.65-2.73,1.79-2.82a21.42,21.42,0,0,0,10.68-3c5.39-3.47,5.23-8.87-.36-12.28-6.13-3.74-16.33-3.82-22.56-.23-2.79,1.62-4.31,3.69-4.53,5.81-.16,1.41-3.15,2-4.89,1L86.69,113.15,19,152.23c-3,1.7-2.95,4.48,0,6.2l68.11,39.33,26.39-15.23c1.32-.77.52-2.1-1.34-2.2A23.07,23.07,0,0,1,102.08,177.58Z"/><path class="cls-37" d="M145.84,134.29a21.42,21.42,0,0,1-10.68,3c-2.44.09-3.52,1.82-1.79,2.82l16.32,9.42V129.19A7.92,7.92,0,0,1,145.84,134.29Z"/><path class="cls-38" d="M16.79,155.24h0v0Z"/><path class="cls-39" d="M133.84,170.8c-1.33.77-3.65.3-3.84-.79-.39-2.31-2.25-4.55-5.55-6.23-5.84-3-15.73-3-21.57-.09-7.26,3.64-7.52,10-.8,13.89a23.07,23.07,0,0,0,10.11,2.75c1.14.07,1.87.59,2,1.16h0V184a24.61,24.61,0,0,1,10.28,2.24c3.3,1.68,5.16,3.92,5.55,6.23.19,1.09,2.51,1.56,3.84.79l25.24-14.57,1.11-.24V155.58Z"/><path class="cls-40" d="M19,158.43a3.83,3.83,0,0,1-2.24-3.05v22h0c-.2,1.26.53,2.56,2.21,3.53l68.11,39.33v-22.5Z"/><path class="cls-41" d="M114.17,181.49h0v0Z"/><path class="cls-42" d="M114.17,181.49h0v0Z"/><path class="cls-43" d="M113.53,182.52,87.14,197.76v22.5L113.53,205a1.09,1.09,0,0,0,.62-.82h0V181.57A1,1,0,0,1,113.53,182.52Z"/><path class="cls-44" d="M113.53,182.52,87.14,197.76v22.5L113.53,205a1.09,1.09,0,0,0,.62-.82h0V181.57A1,1,0,0,1,113.53,182.52Z"/><g class="cls-45"><path class="cls-46" d="M114.17,237.49h0v0Z"/><path class="cls-47" d="M114.17,237.49h0v0Z"/></g><g class="cls-29"><path class="cls-48" d="M113.37,181.61,87.14,196.76,19,157.43a4.44,4.44,0,0,1-2-2.12c-.58,1.43.09,3,2,4.12l68.11,39.33,26.39-15.24C114.51,183,114.31,182.07,113.37,181.61Z"/><path class="cls-49" d="M145.84,133.29a21.42,21.42,0,0,1-10.68,3c-2.3.09-3.39,1.63-2.06,2.64a3.7,3.7,0,0,1,2.06-.64,21.42,21.42,0,0,0,10.68-3c3-2,4.32-4.55,3.84-7A7.92,7.92,0,0,1,145.84,133.29Z"/><path class="cls-50" d="M133.84,169.8c-1.33.77-3.65.3-3.84-.79-.39-2.31-2.25-4.55-5.55-6.23-5.84-3-15.73-3-21.57-.09-4.24,2.13-6.08,5.18-5.54,8.13.42-2.28,2.26-4.48,5.54-6.13,5.84-2.92,15.73-2.88,21.57.09,3.3,1.68,5.16,3.92,5.55,6.23.19,1.09,2.51,1.56,3.84.79l26.35-15.22-1.73-1Z"/></g><path class="cls-51" d="M113.09,179.07c-1.56,0-2.74-6.52-2.65-14.53s1.42-14.48,3-14.46,2.74,6.52,2.65,14.53S114.64,179.09,113.09,179.07Z"/><ellipse class="cls-52" cx="115.35" cy="163.22" rx="8.84" ry="17.68" transform="translate(-53.38 56.1) rotate(-22.34)"/><path class="cls-53" d="M255.55,131c6.72,3.88,6.46,10.25-.81,13.89-5.83,2.92-15.72,2.88-21.56-.09-3.31-1.68-5.16-3.92-5.56-6.22-.19-1.1-2.5-1.57-3.84-.8L197.44,153l26.81,15.48c1.74,1,.66,2.73-1.78,2.82a21.46,21.46,0,0,0-10.69,3c-5.39,3.47-5.22,8.87.36,12.28,6.13,3.74,16.33,3.83,22.56.23,2.8-1.62,4.31-3.69,4.54-5.81.15-1.41,3.14-2,4.88-1l26.82,15.48,67.69-39.08c3-1.7,2.94-4.48,0-6.2l-68.11-39.33L244.1,126c-1.32.76-.52,2.09,1.34,2.19A23.11,23.11,0,0,1,255.55,131Z"/><path class="cls-54" d="M255.55,131c6.72,3.88,6.46,10.25-.81,13.89-5.83,2.92-15.72,2.88-21.56-.09-3.31-1.68-5.16-3.92-5.56-6.22-.19-1.1-2.5-1.57-3.84-.8L197.44,153l26.81,15.48c1.74,1,.66,2.73-1.78,2.82a21.46,21.46,0,0,0-10.69,3c-5.39,3.47-5.22,8.87.36,12.28,6.13,3.74,16.33,3.83,22.56.23,2.8-1.62,4.31-3.69,4.54-5.81.15-1.41,3.14-2,4.88-1l26.82,15.48,67.69-39.08c3-1.7,2.94-4.48,0-6.2l-68.11-39.33L244.1,126c-1.32.76-.52,2.09,1.34,2.19A23.11,23.11,0,0,1,255.55,131Z"/><path class="cls-55" d="M254.74,144.86c7.27-3.64,7.53-10,.81-13.89a23.11,23.11,0,0,0-10.11-2.75c-1.19-.07-1.94-.63-2-1.23h0v20A25,25,0,0,0,254.74,144.86Z"/><path class="cls-56" d="M340.83,175.62h.05v-22.5h-.05c.05,1.16-.68,2.32-2.2,3.19L270.94,195.4v22.5l67.69-39.08C340.15,177.94,340.88,176.78,340.83,175.62Z"/><path class="cls-57" d="M340.83,175.62h.05v-22.5h-.05c.05,1.16-.68,2.32-2.2,3.19L270.94,195.4v22.5l67.69-39.08C340.15,177.94,340.88,176.78,340.83,175.62Z"/><path class="cls-58" d="M211.78,174.26a21.46,21.46,0,0,1,10.69-3c2.44-.09,3.52-1.82,1.78-2.82L197.44,153v22.5l10.44,6,.11,0C207.42,178.92,208.67,176.27,211.78,174.26Z"/><path class="cls-59" d="M244.12,179.92a4.47,4.47,0,0,0-3-.39V202a4.47,4.47,0,0,1,3,.39l26.82,15.48V195.4Z"/><path class="cls-60" d="M239.24,181c-.23,2.12-1.74,4.19-4.54,5.81-6.23,3.6-16.43,3.51-22.56-.23a8.43,8.43,0,0,1-4.15-5.08l-.11,0v20.83c-.2,2.4,1.22,4.85,4.26,6.71,6.13,3.74,16.33,3.83,22.56.23,2.8-1.62,4.31-3.69,4.54-5.81.08-.72.88-1.23,1.89-1.43v-22.5C240.12,179.73,239.32,180.24,239.24,181Z"/><path class="cls-61" d="M239.24,181c-.23,2.12-1.74,4.19-4.54,5.81-6.23,3.6-16.43,3.51-22.56-.23a8.43,8.43,0,0,1-4.15-5.08l-.11,0v20.83c-.2,2.4,1.22,4.85,4.26,6.71,6.13,3.74,16.33,3.83,22.56.23,2.8-1.62,4.31-3.69,4.54-5.81.08-.72.88-1.23,1.89-1.43v-22.5C240.12,179.73,239.32,180.24,239.24,181Z"/><g class="cls-29"><path class="cls-62" d="M224.52,169.63c.8-.62.83-1.54-.27-2.18L199.17,153l-1.73,1,26.81,15.48Z"/><path class="cls-63" d="M245.44,129.22A23.11,23.11,0,0,1,255.55,132c2.79,1.62,4.36,3.66,4.74,5.76.51-2.76-1.06-5.63-4.74-7.76a23.11,23.11,0,0,0-10.11-2.75,3.31,3.31,0,0,1-1.19-.28l-.15.09C242.78,127.79,243.58,129.12,245.44,129.22Z"/></g><path class="cls-64" d="M215.22,205.56c-2,0-3.61-7.27-3.51-16.19s1.84-16.13,3.87-16.11,3.61,7.27,3.51,16.19S217.25,205.59,215.22,205.56Z"/><path class="cls-65" d="M244.12,178.92c-1.74-1-4.73-.37-4.88,1-.23,2.12-1.74,4.19-4.54,5.81-6.23,3.6-16.43,3.51-22.56-.23-2.42-1.48-3.82-3.33-4.19-5.24-.47,2.57.92,5.24,4.19,7.24,6.13,3.74,16.33,3.83,22.56.23,2.8-1.62,4.31-3.69,4.54-5.81.15-1.41,3.14-2,4.88-1l26.63,15.38v-2Z"/><path class="cls-66" d="M338.63,157.32c1.91-1.1,2.57-2.66,2-4.08a4.44,4.44,0,0,1-2,2.08L270.94,194.4l-.19-.1v2l.19.1Z"/><path class="cls-67" d="M219.18,200.55c-5.26,4.53-16.14,5.58-23.76,2.14-6.13-2.76-8-8.37-4.15-12.23,2.2-2.19,5.64-3.66,9.48-4.31,1.81-.31,2.16-1.71.58-2.32l-31.1-12.09-21,18.09c-1.36,1.17-4.52.88-5.15-.49-1-2.21-3.49-4.21-7.21-5.49-7-2.41-16.12-1.31-20.8,2.5-5.14,4.17-3.25,10,4.1,12.82A25.22,25.22,0,0,0,131,200.65c2.43-.17,4.09,1.4,2.73,2.58l-21,18.08,79.89,31.05c3.5,1.35,8.22.83,10.54-1.18l53.28-45.94-31.14-12.1c-1.56-.6-3.66.1-3.46,1.17C222.24,196.44,221.39,198.65,219.18,200.55Z"/><path class="cls-68" d="M203.17,251.18c-2.32,2-7,2.53-10.54,1.18l-79.89-31.05v22.5l79.89,31.05c3.5,1.35,8.22.83,10.54-1.18l53.28-45.94v-22.5Z"/><path class="cls-69" d="M131,200.65a25.22,25.22,0,0,1-10.78-1.48c-4.17-1.62-6.58-4.19-7-6.87v21.17a6.46,6.46,0,0,0,2.31,5.41l18.15-15.65C135.07,202.05,133.41,200.48,131,200.65Z"/><path class="cls-70" d="M200.75,186.15c-3.84.65-7.28,2.12-9.48,4.31-3.88,3.86-2,9.47,4.15,12.23a23.35,23.35,0,0,0,6.83,1.83v-19.3A1.83,1.83,0,0,1,200.75,186.15Z"/><g class="cls-29"><path class="cls-71" d="M221.91,194.88a.73.73,0,0,0,0,.3C221.87,195.08,221.9,195,221.91,194.88Z"/><path class="cls-72" d="M191.27,189.46a6.2,6.2,0,0,0-1.92,5.56,6.49,6.49,0,0,1,1.92-3.56c2.2-2.19,5.64-3.66,9.48-4.31,1.74-.3,2.1-1.59.75-2.24a3,3,0,0,1-.75.24C196.91,185.8,193.47,187.27,191.27,189.46Z"/><path class="cls-73" d="M120.2,200.17A25.22,25.22,0,0,0,131,201.65a3.92,3.92,0,0,1,2.64.66l.09-.08c1.36-1.18-.3-2.75-2.73-2.58a25.22,25.22,0,0,1-10.78-1.48c-4-1.57-6.42-4-6.9-6.61C112.66,194.83,115.13,198.2,120.2,200.17Z"/><path class="cls-74" d="M203.17,250.18c-2.32,2-7,2.53-10.54,1.18l-78.29-30.43-1.6,1.38,79.89,31.05c3.5,1.35,8.22.83,10.54-1.18l53.28-45.94-1.6-.62Z"/></g><path class="cls-75" d="M119.06,212.4c-1.26,0-2.23-5.28-2.16-11.77s1.16-11.74,2.43-11.72,2.24,5.28,2.16,11.77S120.33,212.42,119.06,212.4Z"/><path class="cls-76" d="M207.62,250.2c3,7.4.82,15.33-5,17.71s-12.94-1.7-16-9.11-.82-15.33,5-17.7S204.58,242.79,207.62,250.2Z"/><path class="cls-77" d="M197.09,295.43a6.58,6.58,0,0,1-2.39-.45l-82.14-32,.36-.93,82.14,32a5.54,5.54,0,0,0,5.63-.94L256.12,246l.65.76-55.43,47.07A6.55,6.55,0,0,1,197.09,295.43Z"/><circle class="cls-78" cx="197.46" cy="294.99" r="14.7" transform="translate(-134.11 168.23) rotate(-35.28)"/><g class="cls-79"><path class="cls-80" d="M276.68,76.73a10.94,10.94,0,0,1-2.88-.41.52.52,0,0,1-.33-.3l-1.9-4.66a12.16,12.16,0,0,1-1.49-.73,15.1,15.1,0,0,1-1.28-.83L267.12,72a.49.49,0,0,1-.35.19.53.53,0,0,1-.38-.12,31,31,0,0,1-3.59-3.79.49.49,0,0,1-.09-.42l.83-3.51a26.38,26.38,0,0,1-2.12-3.64l-3.47-1a.5.5,0,0,1-.32-.3,29.61,29.61,0,0,1-1.49-5,.5.5,0,0,1,.08-.39.52.52,0,0,1,.35-.2l2.74-.35a13.93,13.93,0,0,1-.08-1.51,11.88,11.88,0,0,1,.11-1.64l-3.1-4a.5.5,0,0,1-.09-.44,10,10,0,0,1,1.54-3.37.51.51,0,0,1,.73-.09l3.35,2.86a5.85,5.85,0,0,1,1.73-1l-.8-4.3a.49.49,0,0,1,.09-.39.53.53,0,0,1,.36-.2,10.51,10.51,0,0,1,3.71.37.52.52,0,0,1,.33.3l1.9,4.66a11.47,11.47,0,0,1,1.49.73,15,15,0,0,1,1.27.83l1.69-2.18a.48.48,0,0,1,.35-.19.5.5,0,0,1,.37.12,29.55,29.55,0,0,1,3.59,3.79.46.46,0,0,1,.1.42l-.83,3.5a27,27,0,0,1,2.11,3.65l3.47,1a.47.47,0,0,1,.32.29,30,30,0,0,1,1.5,5,.55.55,0,0,1-.09.39.5.5,0,0,1-.34.2l-2.75.35a13.94,13.94,0,0,1,.09,1.5,13.71,13.71,0,0,1-.11,1.65l3.1,4a.5.5,0,0,1,.09.44A10.14,10.14,0,0,1,283,73.58a.5.5,0,0,1-.34.2.47.47,0,0,1-.38-.11l-3.36-2.86a5.61,5.61,0,0,1-1.73,1l.8,4.3a.45.45,0,0,1-.09.39.49.49,0,0,1-.35.2C277.24,76.71,277,76.73,276.68,76.73Zm-2.38-1.32a9.4,9.4,0,0,0,2.57.31l-.78-4.18a.49.49,0,0,1,.36-.57,4.57,4.57,0,0,0,2.07-1.18.51.51,0,0,1,.68,0l3.26,2.78a9.65,9.65,0,0,0,1-2.35l-3.08-4a.46.46,0,0,1-.1-.38,12.91,12.91,0,0,0,.13-1.71,15.15,15.15,0,0,0-.14-1.87.5.5,0,0,1,.44-.56l2.69-.34a28.47,28.47,0,0,0-1.24-4.06l-3.45-1a.48.48,0,0,1-.31-.26,24.51,24.51,0,0,0-2.25-3.88.54.54,0,0,1-.08-.41l.83-3.48A30,30,0,0,0,274,45.13l-1.66,2.14a.48.48,0,0,1-.69.09,16.76,16.76,0,0,0-1.57-1.06,13.3,13.3,0,0,0-1.56-.74.48.48,0,0,1-.28-.28l-1.89-4.63a10.11,10.11,0,0,0-2.56-.31l.78,4.19a.5.5,0,0,1-.37.57,4.62,4.62,0,0,0-2.07,1.18.49.49,0,0,1-.67,0l-3.26-2.78a9.28,9.28,0,0,0-1,2.35l3.08,3.95a.49.49,0,0,1,.1.37,11.82,11.82,0,0,0-.13,1.71,15.23,15.23,0,0,0,.13,1.88.5.5,0,0,1-.43.56l-2.7.34a29.82,29.82,0,0,0,1.24,4.06l3.46,1a.48.48,0,0,1,.3.26,25.79,25.79,0,0,0,2.25,3.88.5.5,0,0,1,.08.41l-.82,3.48a28,28,0,0,0,2.92,3.11l1.65-2.14a.5.5,0,0,1,.7-.09,17.43,17.43,0,0,0,1.57,1.06,11.35,11.35,0,0,0,1.56.74.5.5,0,0,1,.27.28Z"/><path class="cls-81" d="M272.24,64a4.28,4.28,0,0,1-2.16-.66,9.92,9.92,0,0,1-4.51-7.77c0-2.14,1.12-3.52,2.85-3.52a4.31,4.31,0,0,1,2.16.66,9.94,9.94,0,0,1,4.5,7.77C275.08,62.63,274,64,272.24,64Zm-3.82-11c-1.16,0-1.85.94-1.85,2.52a8.86,8.86,0,0,0,4,6.91,3.39,3.39,0,0,0,1.66.52c1.15,0,1.84-.94,1.84-2.52a8.85,8.85,0,0,0-4-6.91A3.42,3.42,0,0,0,268.42,53.06Z"/></g><polygon class="cls-82" points="86.89 239.19 0 189.03 0.5 188.16 87.39 238.32 86.89 239.19"/><rect class="cls-83" x="262.97" y="207.86" width="116.25" height="1" transform="translate(-61.28 190.9) rotate(-30.37)"/><circle class="cls-84" cx="317.46" cy="210.4" r="14.7" transform="translate(49.74 481.29) rotate(-78.87)"/><circle class="cls-85" cx="48.04" cy="215.9" r="14.7" transform="translate(-173.14 214.51) rotate(-77.09)"/><g class="cls-79"><path class="cls-86" d="M230.88,36.16h0a2,2,0,0,1-1-.31l-4.2-2.42a4.34,4.34,0,0,1-2-3.43V27.84a10.44,10.44,0,0,0-1.74-5.27C219.69,19,218.59,15,219,11.81s2.39-5.17,5.18-5.17a7.45,7.45,0,0,1,3,.69c5.27,2.35,9.89,9.73,9.89,15.79,0,3-1.15,5.25-3.18,6.14a3,3,0,0,0-1.57,3v2.16a2,2,0,0,1-.37,1.22A1.35,1.35,0,0,1,230.88,36.16Zm-6.7-28.52c-2.28,0-3.85,1.6-4.19,4.3-.38,3,.66,6.75,2.78,10.1a11.4,11.4,0,0,1,1.9,5.8V30a3.29,3.29,0,0,0,1.48,2.56l4.2,2.43a1.12,1.12,0,0,0,.53.17h0a.34.34,0,0,0,.3-.14,1,1,0,0,0,.15-.59V32.27a4,4,0,0,1,2.17-3.92c1.64-.73,2.58-2.63,2.58-5.23,0-5.72-4.34-12.66-9.3-14.87A6.33,6.33,0,0,0,224.18,7.64Z"/><path class="cls-87" d="M229.45,39.69a1.53,1.53,0,0,1-.77-.22l-1.86-1.07a3.69,3.69,0,0,1-1.57-3V33l5.5,3.17V38C230.75,39.18,230.1,39.69,229.45,39.69Zm-3.2-4.93v.67a2.71,2.71,0,0,0,1.07,2.1l1.86,1.07a.51.51,0,0,0,.27.09c.21,0,.3-.34.3-.66V36.78Z"/><path class="cls-88" d="M228.61,32.17h-1V23.8l0,0-3.77-6.5,8,4.64-3.22,1.83Zm-2.07-12.1,1.64,2.83,1.64-.94Z"/></g><g class="cls-79"><path class="cls-89" d="M182.25,53.34a9.6,9.6,0,0,1-4.73-1.44c-5.65-3.26-10.24-11.18-10.24-17.66,0-4.6,2.36-7.57,6-7.57A9.5,9.5,0,0,1,178,28.11c5.64,3.26,10.24,11.18,10.24,17.66C188.26,50.37,185.9,53.34,182.25,53.34Zm-9-25.67c-3.09,0-5,2.52-5,6.57,0,6.16,4.37,13.69,9.74,16.79a8.64,8.64,0,0,0,4.23,1.31c3.09,0,5-2.52,5-6.57,0-6.16-4.37-13.69-9.74-16.8A8.72,8.72,0,0,0,173.29,27.67Z"/><path class="cls-90" d="M184.25,43.46l-6.68-2.85a.51.51,0,0,1-.3-.46V31.84h1v8l6.38,2.72Z"/></g><g class="cls-79"><path class="cls-91" d="M313.42,116.32h0a8.05,8.05,0,0,1-5.31-2.71.44.44,0,0,1-.12-.36.45.45,0,0,1,.21-.31l3.21-1.83-3.2-5.53L305,107.41a.4.4,0,0,1-.37,0,.44.44,0,0,1-.25-.28c-.91-3.32-.28-6.16,1.62-7.24s4.55-.23,6.89,2l6.24-3.56c-.79-3.17-.13-5.87,1.7-6.92s4.73-.16,7.12,2.26a.41.41,0,0,1,.12.35.43.43,0,0,1-.21.31l-3.21,1.83,3.2,5.53,3.22-1.83a.44.44,0,0,1,.37,0,.46.46,0,0,1,.25.28c.91,3.32.28,6.16-1.62,7.25s-4.54.22-6.89-2l-6.24,3.56c.79,3.18.14,5.87-1.7,6.92A3.58,3.58,0,0,1,313.42,116.32Zm-4.31-2.92a6.86,6.86,0,0,0,4.31,2.07h0a2.71,2.71,0,0,0,1.39-.35c1.55-.88,2-3.34,1.22-6.28a.43.43,0,0,1,.2-.48l6.8-3.87a.41.41,0,0,1,.51.07c2.11,2.12,4.56,3,6.1,2.11s2-3,1.36-5.75l-3.1,1.77a.44.44,0,0,1-.58-.16l-3.63-6.26a.45.45,0,0,1,0-.32.41.41,0,0,1,.2-.26l3.09-1.76c-2-1.85-4.26-2.55-5.7-1.73s-2,3.35-1.22,6.28a.42.42,0,0,1-.2.48l-6.8,3.88a.44.44,0,0,1-.51-.07c-2.11-2.13-4.56-3-6.1-2.12s-2,3.06-1.35,5.75l3.09-1.76a.42.42,0,0,1,.58.15l3.63,6.26a.42.42,0,0,1,0,.33.39.39,0,0,1-.2.25Z"/></g><g class="cls-79"><path class="cls-92" d="M224,182.58a.51.51,0,0,1-.5-.5v-2a.5.5,0,0,1,.5-.5.5.5,0,0,1,.5.5v2A.5.5,0,0,1,224,182.58Zm0-4a.51.51,0,0,1-.5-.5v-2a.5.5,0,0,1,.5-.5.5.5,0,0,1,.5.5v2A.5.5,0,0,1,224,178.58Zm0-4a.51.51,0,0,1-.5-.5v-2a.5.5,0,0,1,.5-.5.5.5,0,0,1,.5.5v2A.5.5,0,0,1,224,174.58Zm0-4a.51.51,0,0,1-.5-.5v-2a.5.5,0,0,1,.5-.5.5.5,0,0,1,.5.5v2A.5.5,0,0,1,224,170.58Zm0-4a.51.51,0,0,1-.5-.5v-2a.5.5,0,0,1,.5-.5.5.5,0,0,1,.5.5v2A.5.5,0,0,1,224,166.58Zm0-4a.51.51,0,0,1-.5-.5v-2a.5.5,0,0,1,.5-.5.5.5,0,0,1,.5.5v2A.5.5,0,0,1,224,162.58Zm0-4a.51.51,0,0,1-.5-.5v-2a.5.5,0,0,1,.5-.5.5.5,0,0,1,.5.5v2A.5.5,0,0,1,224,158.58Zm0-4a.51.51,0,0,1-.5-.5v-2a.5.5,0,0,1,.5-.5.5.5,0,0,1,.5.5v2A.5.5,0,0,1,224,154.58Zm0-4a.51.51,0,0,1-.5-.5v-2a.5.5,0,0,1,.5-.5.5.5,0,0,1,.5.5v2A.5.5,0,0,1,224,150.58Zm0-4a.51.51,0,0,1-.5-.5v-2a.5.5,0,0,1,.5-.5.5.5,0,0,1,.5.5v2A.5.5,0,0,1,224,146.58Zm0-4a.51.51,0,0,1-.5-.5v-2a.5.5,0,0,1,.5-.5.5.5,0,0,1,.5.5v2A.5.5,0,0,1,224,142.58Zm0-4a.51.51,0,0,1-.5-.5v-2a.5.5,0,0,1,.5-.5.5.5,0,0,1,.5.5v2A.5.5,0,0,1,224,138.58Zm0-4a.51.51,0,0,1-.5-.5v-2a.5.5,0,0,1,.5-.5.5.5,0,0,1,.5.5v2A.5.5,0,0,1,224,134.58Zm1.21-3.32a.49.49,0,0,1-.42-.24.5.5,0,0,1,.16-.69l1.72-1a.49.49,0,0,1,.68.16.5.5,0,0,1-.17.69l-1.71,1A.48.48,0,0,1,225.21,131.26Zm3.42-2.07a.5.5,0,0,1-.42-.24.49.49,0,0,1,.17-.69l1.71-1a.5.5,0,0,1,.68.17.49.49,0,0,1-.17.69l-1.71,1A.59.59,0,0,1,228.63,129.19Zm3.43-2.07a.5.5,0,0,1-.26-.93l1.71-1a.5.5,0,1,1,.52.86l-1.71,1A.52.52,0,0,1,232.06,127.12Zm3.42-2.08a.49.49,0,0,1-.43-.24.49.49,0,0,1,.17-.68l1.71-1a.5.5,0,0,1,.69.17.51.51,0,0,1-.17.69l-1.71,1A.48.48,0,0,1,235.48,125ZM238.9,123a.5.5,0,0,1-.26-.92l1.71-1a.5.5,0,0,1,.69.17.49.49,0,0,1-.17.68l-1.71,1A.48.48,0,0,1,238.9,123Zm3.42-2.07a.5.5,0,0,1-.43-.24.51.51,0,0,1,.17-.69l1.71-1a.5.5,0,0,1,.69.17.49.49,0,0,1-.17.68l-1.71,1A.48.48,0,0,1,242.32,120.9Zm3.42-2.07a.5.5,0,0,1-.42-.24.49.49,0,0,1,.17-.69l1.71-1a.49.49,0,0,1,.68.17.48.48,0,0,1-.17.68l-1.71,1A.48.48,0,0,1,245.74,118.83Zm3.43-2.07a.51.51,0,0,1-.43-.24.5.5,0,0,1,.17-.69l1.71-1a.5.5,0,0,1,.52.86l-1.72,1A.59.59,0,0,1,249.17,116.76Zm3.42-2.07a.51.51,0,0,1-.43-.24.5.5,0,0,1,.17-.69l1.71-1a.5.5,0,0,1,.52.86l-1.71,1A.5.5,0,0,1,252.59,114.69Zm3.42-2.07a.51.51,0,0,1-.43-.25.49.49,0,0,1,.17-.68l1.71-1a.5.5,0,1,1,.52.86l-1.71,1A.5.5,0,0,1,256,112.62Zm3.42-2.08a.5.5,0,0,1-.26-.92l1.71-1a.5.5,0,1,1,.52.86l-1.71,1A.48.48,0,0,1,259.43,110.54Zm3.42-2.07a.5.5,0,0,1-.43-.24.51.51,0,0,1,.17-.69l1.71-1a.5.5,0,0,1,.69.17.49.49,0,0,1-.17.68l-1.71,1A.48.48,0,0,1,262.85,108.47Zm3.42-2.07a.5.5,0,0,1-.42-.24.5.5,0,0,1,.17-.69l1.71-1a.49.49,0,0,1,.68.17.48.48,0,0,1-.17.68l-1.71,1A.48.48,0,0,1,266.27,106.4Zm3.43-2.07a.51.51,0,0,1-.43-.24.5.5,0,0,1,.17-.69l.31-.19v-1.07a.51.51,0,0,1,.5-.5.5.5,0,0,1,.5.5v1.35a.5.5,0,0,1-.24.43l-.55.34A.63.63,0,0,1,269.7,104.33Zm.55-3.69a.5.5,0,0,1-.5-.5v-2a.51.51,0,0,1,.5-.5.5.5,0,0,1,.5.5v2A.5.5,0,0,1,270.25,100.64Zm0-4a.5.5,0,0,1-.5-.5v-2a.51.51,0,0,1,.5-.5.5.5,0,0,1,.5.5v2A.5.5,0,0,1,270.25,96.64Zm0-4a.5.5,0,0,1-.5-.5v-2a.51.51,0,0,1,.5-.5.5.5,0,0,1,.5.5v2A.5.5,0,0,1,270.25,92.64Zm0-4a.5.5,0,0,1-.5-.5v-2a.51.51,0,0,1,.5-.5.5.5,0,0,1,.5.5v2A.5.5,0,0,1,270.25,88.64Zm0-4a.5.5,0,0,1-.5-.5v-2a.51.51,0,0,1,.5-.5.5.5,0,0,1,.5.5v2A.5.5,0,0,1,270.25,84.64Zm0-4a.5.5,0,0,1-.5-.5v-2a.51.51,0,0,1,.5-.5.5.5,0,0,1,.5.5v2A.5.5,0,0,1,270.25,80.64Zm0-4a.5.5,0,0,1-.5-.5v-2a.51.51,0,0,1,.5-.5.5.5,0,0,1,.5.5v2A.5.5,0,0,1,270.25,76.64Z"/><path class="cls-93" d="M227.08,115.33a.51.51,0,0,1-.5-.5v-.5a.5.5,0,0,1,.5-.5.5.5,0,0,1,.5.5v.5A.5.5,0,0,1,227.08,115.33Zm0-2.5a.51.51,0,0,1-.5-.5v-2a.5.5,0,0,1,.5-.5.5.5,0,0,1,.5.5v2A.5.5,0,0,1,227.08,112.83Zm0-4a.51.51,0,0,1-.5-.5v-2a.5.5,0,0,1,.5-.5.5.5,0,0,1,.5.5v2A.5.5,0,0,1,227.08,108.83Zm0-4a.51.51,0,0,1-.5-.5v-2a.5.5,0,0,1,.5-.5.5.5,0,0,1,.5.5v2A.5.5,0,0,1,227.08,104.83Zm0-4a.51.51,0,0,1-.5-.5v-2a.5.5,0,0,1,.5-.5.5.5,0,0,1,.5.5v2A.5.5,0,0,1,227.08,100.83Zm0-4a.51.51,0,0,1-.5-.5v-2a.5.5,0,0,1,.5-.5.5.5,0,0,1,.5.5v2A.5.5,0,0,1,227.08,96.83Zm0-4a.51.51,0,0,1-.5-.5v-2a.5.5,0,0,1,.5-.5.5.5,0,0,1,.5.5v2A.5.5,0,0,1,227.08,92.83Zm0-4a.51.51,0,0,1-.5-.5v-2a.5.5,0,0,1,.5-.5.5.5,0,0,1,.5.5v2A.5.5,0,0,1,227.08,88.83Zm0-4a.51.51,0,0,1-.5-.5v-2a.5.5,0,0,1,.5-.5.5.5,0,0,1,.5.5v2A.5.5,0,0,1,227.08,84.83Zm0-4a.51.51,0,0,1-.5-.5v-2a.5.5,0,0,1,.5-.5.5.5,0,0,1,.5.5v2A.5.5,0,0,1,227.08,80.83Zm0-4a.51.51,0,0,1-.5-.5v-2a.5.5,0,0,1,.5-.5.5.5,0,0,1,.5.5v2A.5.5,0,0,1,227.08,76.83Zm0-4a.51.51,0,0,1-.5-.5v-2a.5.5,0,0,1,.5-.5.5.5,0,0,1,.5.5v2A.5.5,0,0,1,227.08,72.83Zm0-4a.51.51,0,0,1-.5-.5v-2a.5.5,0,0,1,.5-.5.5.5,0,0,1,.5.5v2A.5.5,0,0,1,227.08,68.83Zm0-4a.51.51,0,0,1-.5-.5v-2a.5.5,0,0,1,.5-.5.5.5,0,0,1,.5.5v2A.5.5,0,0,1,227.08,64.83Zm0-4a.51.51,0,0,1-.5-.5v-2a.5.5,0,0,1,.5-.5.5.5,0,0,1,.5.5v2A.5.5,0,0,1,227.08,60.83Zm0-4a.51.51,0,0,1-.5-.5v-2a.5.5,0,0,1,.5-.5.5.5,0,0,1,.5.5v2A.5.5,0,0,1,227.08,56.83Zm0-4a.51.51,0,0,1-.5-.5v-2a.5.5,0,0,1,.5-.5.5.5,0,0,1,.5.5v2A.5.5,0,0,1,227.08,52.83Zm0-4a.51.51,0,0,1-.5-.5v-2a.5.5,0,0,1,.5-.5.5.5,0,0,1,.5.5v2A.5.5,0,0,1,227.08,48.83Zm0-4a.51.51,0,0,1-.5-.5v-2a.5.5,0,0,1,.5-.5.5.5,0,0,1,.5.5v2A.5.5,0,0,1,227.08,44.83Z"/><path class="cls-94" d="M133.75,127a.5.5,0,0,1-.5-.5v-2a.51.51,0,0,1,.5-.5.5.5,0,0,1,.5.5v2A.5.5,0,0,1,133.75,127Zm0-4a.5.5,0,0,1-.5-.5v-2a.51.51,0,0,1,.5-.5.5.5,0,0,1,.5.5v2A.5.5,0,0,1,133.75,123Zm0-4a.5.5,0,0,1-.5-.5v-2a.51.51,0,0,1,.5-.5.5.5,0,0,1,.5.5v2A.5.5,0,0,1,133.75,119Zm0-4a.5.5,0,0,1-.5-.5v-2a.51.51,0,0,1,.5-.5.5.5,0,0,1,.5.5v2A.5.5,0,0,1,133.75,115Zm0-4a.5.5,0,0,1-.5-.5v-2a.51.51,0,0,1,.5-.5.5.5,0,0,1,.5.5v2A.5.5,0,0,1,133.75,111Zm0-4a.5.5,0,0,1-.5-.5v-2a.51.51,0,0,1,.5-.5.5.5,0,0,1,.5.5v2A.5.5,0,0,1,133.75,107Zm0-4a.5.5,0,0,1-.5-.5v-2a.51.51,0,0,1,.5-.5.5.5,0,0,1,.5.5v2A.5.5,0,0,1,133.75,103Zm0-4a.5.5,0,0,1-.5-.5v-2a.51.51,0,0,1,.5-.5.5.5,0,0,1,.5.5v2A.5.5,0,0,1,133.75,99Zm0-4a.5.5,0,0,1-.5-.5v-2a.51.51,0,0,1,.5-.5.5.5,0,0,1,.5.5v2A.5.5,0,0,1,133.75,95Zm0-4a.5.5,0,0,1-.5-.5v-2a.51.51,0,0,1,.5-.5.5.5,0,0,1,.5.5v2A.5.5,0,0,1,133.75,91Zm0-4a.5.5,0,0,1-.5-.5v-2a.51.51,0,0,1,.5-.5.5.5,0,0,1,.5.5v2A.5.5,0,0,1,133.75,87Zm0-4a.5.5,0,0,1-.5-.5v-2a.51.51,0,0,1,.5-.5.5.5,0,0,1,.5.5v2A.5.5,0,0,1,133.75,83Zm0-4a.5.5,0,0,1-.5-.5v-2a.51.51,0,0,1,.5-.5.5.5,0,0,1,.5.5v2A.5.5,0,0,1,133.75,79Zm0-4a.5.5,0,0,1-.5-.5v-2a.51.51,0,0,1,.5-.5.5.5,0,0,1,.5.5v2A.5.5,0,0,1,133.75,75Zm0-4a.5.5,0,0,1-.5-.5v-2a.51.51,0,0,1,.5-.5.5.5,0,0,1,.5.5v2A.5.5,0,0,1,133.75,71Zm0-4a.5.5,0,0,1-.5-.5v-2a.51.51,0,0,1,.5-.5.5.5,0,0,1,.5.5v2A.5.5,0,0,1,133.75,67Zm0-4a.5.5,0,0,1-.5-.5v-2a.51.51,0,0,1,.5-.5.5.5,0,0,1,.5.5v2A.5.5,0,0,1,133.75,63Zm0-4a.5.5,0,0,1-.5-.5v-2a.51.51,0,0,1,.5-.5.5.5,0,0,1,.5.5v2A.5.5,0,0,1,133.75,59Zm0-4a.5.5,0,0,1-.5-.5v-2a.51.51,0,0,1,.5-.5.5.5,0,0,1,.5.5v2A.5.5,0,0,1,133.75,55Zm0-4a.5.5,0,0,1-.5-.5v-2a.51.51,0,0,1,.5-.5.5.5,0,0,1,.5.5v2A.5.5,0,0,1,133.75,51Zm0-4a.5.5,0,0,1-.5-.5v-2a.51.51,0,0,1,.5-.5.5.5,0,0,1,.5.5v2A.5.5,0,0,1,133.75,47Zm0-4a.5.5,0,0,1-.5-.5v-2a.51.51,0,0,1,.5-.5.5.5,0,0,1,.5.5v2A.5.5,0,0,1,133.75,43Z"/><path class="cls-95" d="M127.75,190.66a.5.5,0,0,1-.5-.5v-2a.5.5,0,0,1,.5-.5.5.5,0,0,1,.5.5v2A.5.5,0,0,1,127.75,190.66Zm0-4a.5.5,0,0,1-.5-.5v-2a.5.5,0,0,1,.5-.5.5.5,0,0,1,.5.5v2A.5.5,0,0,1,127.75,186.66Zm0-4a.5.5,0,0,1-.5-.5v-2a.5.5,0,0,1,.5-.5.5.5,0,0,1,.5.5v2A.5.5,0,0,1,127.75,182.66Zm0-4a.5.5,0,0,1-.5-.5v-2a.5.5,0,0,1,.5-.5.5.5,0,0,1,.5.5v2A.5.5,0,0,1,127.75,178.66Zm0-4a.5.5,0,0,1-.5-.5v-2a.5.5,0,0,1,.5-.5.5.5,0,0,1,.5.5v2A.5.5,0,0,1,127.75,174.66Zm0-4a.5.5,0,0,1-.5-.5v-2a.5.5,0,0,1,.5-.5.5.5,0,0,1,.5.5v2A.5.5,0,0,1,127.75,170.66Zm0-4a.5.5,0,0,1-.5-.5v-2a.5.5,0,0,1,.5-.5.5.5,0,0,1,.5.5v2A.5.5,0,0,1,127.75,166.66Zm0-4a.5.5,0,0,1-.5-.5v-2a.5.5,0,0,1,.5-.5.5.5,0,0,1,.5.5v2A.5.5,0,0,1,127.75,162.66Zm0-4a.5.5,0,0,1-.5-.5v-2a.5.5,0,0,1,.5-.5.5.5,0,0,1,.5.5v2A.5.5,0,0,1,127.75,158.66Zm0-4a.5.5,0,0,1-.5-.5v-2a.5.5,0,0,1,.5-.5.5.5,0,0,1,.5.5v2A.5.5,0,0,1,127.75,154.66Zm0-4a.5.5,0,0,1-.5-.5v-2a.5.5,0,0,1,.5-.5.5.5,0,0,1,.5.5v2A.5.5,0,0,1,127.75,150.66Zm0-4a.5.5,0,0,1-.5-.5v-2a.5.5,0,0,1,.5-.5.5.5,0,0,1,.5.5v2A.5.5,0,0,1,127.75,146.66Zm-1.38-3.19a.55.55,0,0,1-.24-.07l-1.74-1a.5.5,0,0,1,.49-.87l1.74,1a.5.5,0,0,1-.25.94Zm-3.48-2a.54.54,0,0,1-.25-.06l-1.74-1a.5.5,0,1,1,.49-.87l1.74,1a.51.51,0,0,1,.19.69A.5.5,0,0,1,122.89,141.5Zm-3.49-2a.44.44,0,0,1-.24-.07l-1.74-1a.5.5,0,1,1,.49-.87l1.74,1a.5.5,0,0,1,.19.68A.51.51,0,0,1,119.4,139.54Zm-3.48-2a.57.57,0,0,1-.25-.06l-1.74-1a.51.51,0,0,1-.19-.69.51.51,0,0,1,.68-.19l1.75,1a.5.5,0,0,1,.19.68A.52.52,0,0,1,115.92,137.57Zm-3.48-2a.45.45,0,0,1-.25-.07l-1.74-1a.5.5,0,1,1,.49-.87l1.74,1a.5.5,0,0,1,.19.68A.49.49,0,0,1,112.44,135.61Zm-3.49-2a.5.5,0,0,1-.24-.06l-1.75-1a.51.51,0,0,1-.19-.68.5.5,0,0,1,.68-.19l1.75,1a.5.5,0,0,1,.19.68A.52.52,0,0,1,109,133.64Zm-3.48-2a.45.45,0,0,1-.25-.07l-1.74-1a.5.5,0,1,1,.49-.87l1.74,1a.5.5,0,0,1,.19.68A.49.49,0,0,1,105.47,131.68Zm-3.49-2a.5.5,0,0,1-.24-.06l-1.74-1a.5.5,0,0,1-.2-.68.51.51,0,0,1,.69-.19l1.74,1a.5.5,0,0,1-.25.93Zm-3.48-2a.54.54,0,0,1-.25-.06l-1.74-1a.49.49,0,0,1-.19-.68.51.51,0,0,1,.68-.19l1.74,1a.51.51,0,0,1,.19.69A.5.5,0,0,1,98.5,127.75Zm-3.49-2a.51.51,0,0,1-.24-.07l-1.74-1a.5.5,0,0,1-.2-.68.51.51,0,0,1,.69-.19l1.74,1a.5.5,0,0,1-.25.94Zm-3.48-2a.54.54,0,0,1-.25-.06l-1.74-1a.49.49,0,0,1-.19-.68.51.51,0,0,1,.68-.19l1.74,1a.5.5,0,0,1-.24.93Zm-3.49-2a.44.44,0,0,1-.24-.07l-1.74-1a.5.5,0,1,1,.49-.87l1.74,1a.5.5,0,0,1,.19.68A.51.51,0,0,1,88,121.86Zm-3.48-2a.57.57,0,0,1-.25-.06l-1.74-1a.51.51,0,0,1-.19-.68.5.5,0,0,1,.68-.2l1.74,1a.5.5,0,0,1,.2.68A.52.52,0,0,1,84.56,119.89Zm-3.48-2a.45.45,0,0,1-.25-.07l-1.74-1a.5.5,0,1,1,.49-.87l1.74,1a.5.5,0,0,1,.19.68A.49.49,0,0,1,81.08,117.93Zm-3.49-2a.5.5,0,0,1-.24-.06l-1.75-1a.51.51,0,0,1-.19-.68.49.49,0,0,1,.68-.19l1.75,1a.5.5,0,0,1,.19.68A.52.52,0,0,1,77.59,116Zm-3.48-2a.45.45,0,0,1-.25-.07l-1.74-1a.49.49,0,0,1-.19-.68.5.5,0,0,1,.68-.19l1.74,1a.5.5,0,0,1,.19.68A.49.49,0,0,1,74.11,114Zm-3.49-2a.51.51,0,0,1-.24-.07l-.37-.21a.49.49,0,0,1-.26-.43v-1.58a.5.5,0,0,1,.5-.5.5.5,0,0,1,.5.5V111l.12.07a.5.5,0,0,1-.25.94Zm-.37-3.79a.5.5,0,0,1-.5-.5v-2a.5.5,0,0,1,.5-.5.5.5,0,0,1,.5.5v2A.5.5,0,0,1,70.25,108.25Zm0-4a.5.5,0,0,1-.5-.5v-2a.5.5,0,0,1,.5-.5.5.5,0,0,1,.5.5v2A.5.5,0,0,1,70.25,104.25Zm0-4a.5.5,0,0,1-.5-.5v-2a.5.5,0,0,1,.5-.5.5.5,0,0,1,.5.5v2A.5.5,0,0,1,70.25,100.25Zm0-4a.5.5,0,0,1-.5-.5v-2a.5.5,0,0,1,.5-.5.5.5,0,0,1,.5.5v2A.5.5,0,0,1,70.25,96.25Zm0-4a.5.5,0,0,1-.5-.5v-2a.5.5,0,0,1,.5-.5.5.5,0,0,1,.5.5v2A.5.5,0,0,1,70.25,92.25Zm0-4a.5.5,0,0,1-.5-.5V86.49a.51.51,0,0,1,.5-.5.5.5,0,0,1,.5.5v1.26A.5.5,0,0,1,70.25,88.25Z"/><path class="cls-96" d="M313.38,129.29a.48.48,0,0,1-.26-.07l-1.72-1a.49.49,0,0,1-.18-.68.51.51,0,0,1,.69-.18l1.72,1a.51.51,0,0,1,.18.69A.49.49,0,0,1,313.38,129.29Zm.62-.91a.5.5,0,0,1-.5-.5v-2a.51.51,0,0,1,.5-.5.5.5,0,0,1,.5.5v2A.5.5,0,0,1,314,128.38Zm-4.07-1.11a.48.48,0,0,1-.26-.07l-1.72-1a.5.5,0,1,1,.51-.86l1.72,1a.5.5,0,0,1-.25.93Zm-3.45-2a.59.59,0,0,1-.26-.07l-1.72-1a.51.51,0,0,1-.18-.69.51.51,0,0,1,.69-.18l1.72,1a.51.51,0,0,1,.18.69A.5.5,0,0,1,306.48,125.25Zm7.52-.87a.5.5,0,0,1-.5-.5v-2a.51.51,0,0,1,.5-.5.5.5,0,0,1,.5.5v2A.5.5,0,0,1,314,124.38Zm-11-1.16a.48.48,0,0,1-.26-.07l-1.72-1a.5.5,0,0,1-.18-.68.51.51,0,0,1,.69-.18l1.72,1a.5.5,0,0,1-.25.93Zm-3.45-2a.43.43,0,0,1-.25-.07l-1.73-1a.51.51,0,0,1-.18-.69.51.51,0,0,1,.69-.18l1.72,1a.5.5,0,0,1-.25.93Zm14.42-.82a.5.5,0,0,1-.5-.5v-1.22a.5.5,0,0,1,.5-.5.5.5,0,0,1,.5.5v1.22A.5.5,0,0,1,314,120.38Zm-17.87-1.21a.48.48,0,0,1-.26-.07l-1.72-1a.49.49,0,0,1-.18-.68.51.51,0,0,1,.69-.18l1.72,1a.51.51,0,0,1,.18.69A.49.49,0,0,1,296.13,119.17Zm-3.45-2a.48.48,0,0,1-.26-.07l-1.72-1a.5.5,0,1,1,.51-.86l1.72,1a.5.5,0,0,1-.25.93Zm-3.45-2a.59.59,0,0,1-.26-.07l-1.72-1a.49.49,0,0,1-.18-.68.5.5,0,0,1,.68-.18l1.73,1a.51.51,0,0,1,.18.69A.5.5,0,0,1,289.23,115.13Zm-3.45-2a.48.48,0,0,1-.26-.07l-1.72-1a.5.5,0,0,1-.18-.68.51.51,0,0,1,.69-.18l1.72,1a.5.5,0,0,1-.25.93Zm-3.45-2a.59.59,0,0,1-.26-.07l-1.72-1a.51.51,0,0,1-.18-.69.51.51,0,0,1,.69-.18l1.72,1a.51.51,0,0,1,.18.69A.5.5,0,0,1,282.33,111.08Zm-3.45-2a.48.48,0,0,1-.26-.07l-1.72-1a.49.49,0,0,1-.18-.68.51.51,0,0,1,.69-.18l1.72,1a.51.51,0,0,1,.18.69A.5.5,0,0,1,278.88,109.05Zm-3.45-2a.48.48,0,0,1-.26-.07l-1.72-1a.5.5,0,1,1,.51-.86l1.72,1a.49.49,0,0,1,.18.68A.51.51,0,0,1,275.43,107ZM272,105a.58.58,0,0,1-.26-.06l-1.72-1a.49.49,0,0,1-.18-.68.5.5,0,0,1,.68-.18l1.73,1a.51.51,0,0,1,.18.69A.5.5,0,0,1,272,105Z"/><path class="cls-97" d="M225,56.91a.45.45,0,0,1-.16,0l-.64-.22a.49.49,0,0,1-.32-.63.51.51,0,0,1,.64-.31l.64.22a.5.5,0,0,1-.16,1Zm-2.54-.86a.45.45,0,0,1-.16,0l-1.89-.64a.49.49,0,0,1-.32-.63.51.51,0,0,1,.64-.31l1.89.64a.5.5,0,0,1-.16,1Zm-3.79-1.28a.45.45,0,0,1-.16,0l-1.89-.64a.49.49,0,0,1-.32-.63.52.52,0,0,1,.64-.32l1.89.65a.5.5,0,0,1-.16,1Zm-3.79-1.28a.45.45,0,0,1-.16,0l-1.89-.64a.5.5,0,0,1-.32-.63.52.52,0,0,1,.64-.32l1.89.64a.52.52,0,0,1,.32.64A.5.5,0,0,1,214.88,53.49Zm-3.79-1.28-.16,0L209,51.54a.51.51,0,0,1-.32-.63.5.5,0,0,1,.64-.32l1.89.64a.51.51,0,0,1,.32.64A.52.52,0,0,1,211.09,52.21Zm-3.79-1.28-.16,0-1.89-.64a.5.5,0,0,1-.31-.64.49.49,0,0,1,.63-.31l1.89.64a.5.5,0,0,1,.32.64A.52.52,0,0,1,207.3,50.93Zm-3.79-1.29a.47.47,0,0,1-.16,0L201.46,49a.5.5,0,0,1,.32-.95l1.89.64a.49.49,0,0,1,.32.63A.5.5,0,0,1,203.51,49.64Zm-3.79-1.28-.16,0-1.89-.64a.51.51,0,0,1-.31-.64.49.49,0,0,1,.63-.31l1.89.64a.49.49,0,0,1,.32.63A.5.5,0,0,1,199.72,48.36Zm-3.78-1.28a.41.41,0,0,1-.16,0l-1.9-.64a.5.5,0,0,1,.32-.94l1.9.64a.5.5,0,0,1,.31.63A.5.5,0,0,1,195.94,47.08Zm-3.79-1.28a.41.41,0,0,1-.16,0l-1.9-.64a.5.5,0,1,1,.32-.94l1.9.64a.5.5,0,0,1-.16,1Z"/></g><g class="cls-79"><path class="cls-98" d="M133.11,38.06l-.18,0c-7.38-2.9-12.49-7.21-13.45-18.81l-.25-3.12a.48.48,0,0,1,.25-.47l.18-.1A43,43,0,0,0,132.77,3.28a1.07,1.07,0,0,1,.16-.14.66.66,0,0,1,.41-.08c3.73.84,8.32-.19,12.91-2.88l.18-.11a.49.49,0,0,1,.52,0,.47.47,0,0,1,.23.46L146.93,4c-.94,12.52-6,22.56-13.21,33.78a.65.65,0,0,1-.17.16l-.19.1A.43.43,0,0,1,133.11,38.06ZM120.25,16.34l.23,2.8c.9,10.93,5.65,15.08,12.53,17.84,7.09-11,12-20.87,12.92-33.1l.18-2.48c-4.48,2.49-8.94,3.44-12.69,2.7A43.75,43.75,0,0,1,120.25,16.34Z"/><path class="cls-99" d="M133.16,29.46a.52.52,0,0,1-.18,0c-4.58-1.8-6.62-4.65-7-9.84L125.8,18a.52.52,0,0,1,.25-.47l.1-.05a21.71,21.71,0,0,0,6.64-6.21.67.67,0,0,1,.15-.14.67.67,0,0,1,.39-.07,9.11,9.11,0,0,0,6.43-1.44l.09-.06a.51.51,0,0,1,.52,0,.5.5,0,0,1,.24.46l-.13,1.75c-.49,6.46-3.07,11.63-6.81,17.41a.44.44,0,0,1-.17.16l-.09.06A.54.54,0,0,1,133.16,29.46Zm-6.33-11.23.1,1.28c.44,5.37,2.74,7.47,6.08,8.85,3.55-5.54,6-10.52,6.47-16.67l.06-.82a9.89,9.89,0,0,1-6.12,1.22A22.81,22.81,0,0,1,126.83,18.23Z"/></g><g class="cls-79"><path class="cls-100" d="M58.89,88.83a.55.55,0,0,1-.25-.07.48.48,0,0,1-.25-.43V76.4a.48.48,0,0,1,.25-.43l5.19-3a.5.5,0,0,1,.5,0,.48.48,0,0,1,.25.43V85.33a.48.48,0,0,1-.25.43l-5.19,3A.59.59,0,0,1,58.89,88.83Zm.5-12.14V87.46L63.58,85V74.27Z"/><path class="cls-101" d="M67.12,84.08a.52.52,0,0,1-.25-.07.48.48,0,0,1-.25-.43V61.71a.48.48,0,0,1,.25-.43l5.19-3a.5.5,0,0,1,.5,0,.48.48,0,0,1,.25.43V80.58a.48.48,0,0,1-.25.43l-5.19,3A.59.59,0,0,1,67.12,84.08ZM67.62,62V82.71l4.19-2.42V59.58Z"/><path class="cls-102" d="M75.34,79.33a.59.59,0,0,1-.25-.07.5.5,0,0,1-.25-.43V47a.52.52,0,0,1,.25-.44l5.2-3a.5.5,0,0,1,.5,0A.52.52,0,0,1,81,44v31.8a.5.5,0,0,1-.25.43l-5.2,3A.52.52,0,0,1,75.34,79.33Zm.5-32V78L80,75.54V44.89Z"/></g></g></g></g></svg>