<svg xmlns="http://www.w3.org/2000/svg" viewBox="0 0 47.43 47.43"><defs><style>.cls-1{fill:#fff;fill-rule:evenodd;}</style></defs><title>wassap</title><g id="Capa_2" data-name="Capa 2"><g id="Capa_1-2" data-name="Capa 1"><path class="cls-1" d="M39,0H8.47A8.47,8.47,0,0,0,0,8.47V39a8.47,8.47,0,0,0,8.47,8.47H39A8.47,8.47,0,0,0,47.43,39V8.47A8.47,8.47,0,0,0,39,0ZM24,36.05a12.82,12.82,0,0,1-6.17-1.57l-7.07,2.24L13,29.93a12.6,12.6,0,0,1-1.83-6.55c0-.19,0-.37,0-.56a12.77,12.77,0,0,1,25.52.24c0,.1,0,.21,0,.32A12.72,12.72,0,0,1,24,36.05Z"/><path class="cls-1" d="M24,12.72a10.73,10.73,0,0,0-10.69,9.62c0,.34,0,.69,0,1a10.54,10.54,0,0,0,2,6.25l-1.34,3.95L18,32.27a10.75,10.75,0,0,0,16.65-8.89c0-.28,0-.56,0-.83A10.72,10.72,0,0,0,24,12.72Zm6.26,15.05a3.1,3.1,0,0,1-2.11,1.48c-.57.05-.57.47-3.76-.77A12.82,12.82,0,0,1,19,23.79a7.16,7.16,0,0,1-1.12-2.16,4.17,4.17,0,0,1-.16-1.05A3.5,3.5,0,0,1,18.81,18a1.17,1.17,0,0,1,.84-.39c.21,0,.42,0,.6,0s.45-.11.7.52.89,2.15,1,2.3A.59.59,0,0,1,22,21a3.09,3.09,0,0,1-.2.37l-.11.15c-.17.18-.33.4-.48.54s-.31.33-.13.64a9.26,9.26,0,0,0,1.74,2.14,8.47,8.47,0,0,0,2.51,1.55c.32.15.5.13.68-.08s.79-.9,1-1.22.42-.26.7-.15,1.83.85,2.14,1,.52.23.6.35A2.51,2.51,0,0,1,30.21,27.77Z"/></g></g></svg>